G04 #@! TF.GenerationSoftware,KiCad,Pcbnew,8.0.2-8.0.2-0~ubuntu23.10.1*
G04 #@! TF.CreationDate,2024-05-23T14:55:55+07:00*
G04 #@! TF.ProjectId,Node_Analog,4e6f6465-5f41-46e6-916c-6f672e6b6963,rev?*
G04 #@! TF.SameCoordinates,Original*
G04 #@! TF.FileFunction,Copper,L2,Bot*
G04 #@! TF.FilePolarity,Positive*
%FSLAX46Y46*%
G04 Gerber Fmt 4.6, Leading zero omitted, Abs format (unit mm)*
G04 Created by KiCad (PCBNEW 8.0.2-8.0.2-0~ubuntu23.10.1) date 2024-05-23 14:55:55*
%MOMM*%
%LPD*%
G01*
G04 APERTURE LIST*
G04 Aperture macros list*
%AMRoundRect*
0 Rectangle with rounded corners*
0 $1 Rounding radius*
0 $2 $3 $4 $5 $6 $7 $8 $9 X,Y pos of 4 corners*
0 Add a 4 corners polygon primitive as box body*
4,1,4,$2,$3,$4,$5,$6,$7,$8,$9,$2,$3,0*
0 Add four circle primitives for the rounded corners*
1,1,$1+$1,$2,$3*
1,1,$1+$1,$4,$5*
1,1,$1+$1,$6,$7*
1,1,$1+$1,$8,$9*
0 Add four rect primitives between the rounded corners*
20,1,$1+$1,$2,$3,$4,$5,0*
20,1,$1+$1,$4,$5,$6,$7,0*
20,1,$1+$1,$6,$7,$8,$9,0*
20,1,$1+$1,$8,$9,$2,$3,0*%
G04 Aperture macros list end*
G04 #@! TA.AperFunction,ComponentPad*
%ADD10C,1.440000*%
G04 #@! TD*
G04 #@! TA.AperFunction,ComponentPad*
%ADD11C,2.000000*%
G04 #@! TD*
G04 #@! TA.AperFunction,ComponentPad*
%ADD12C,2.500000*%
G04 #@! TD*
G04 #@! TA.AperFunction,HeatsinkPad*
%ADD13C,0.500000*%
G04 #@! TD*
G04 #@! TA.AperFunction,HeatsinkPad*
%ADD14R,1.600000X1.600000*%
G04 #@! TD*
G04 #@! TA.AperFunction,ComponentPad*
%ADD15RoundRect,0.250000X-0.600000X0.725000X-0.600000X-0.725000X0.600000X-0.725000X0.600000X0.725000X0*%
G04 #@! TD*
G04 #@! TA.AperFunction,ComponentPad*
%ADD16O,1.700000X1.950000*%
G04 #@! TD*
G04 #@! TA.AperFunction,ComponentPad*
%ADD17R,1.700000X1.700000*%
G04 #@! TD*
G04 #@! TA.AperFunction,ComponentPad*
%ADD18O,1.700000X1.700000*%
G04 #@! TD*
G04 #@! TA.AperFunction,ComponentPad*
%ADD19RoundRect,0.250000X1.550000X-0.650000X1.550000X0.650000X-1.550000X0.650000X-1.550000X-0.650000X0*%
G04 #@! TD*
G04 #@! TA.AperFunction,ComponentPad*
%ADD20O,3.600000X1.800000*%
G04 #@! TD*
G04 #@! TA.AperFunction,ComponentPad*
%ADD21C,0.600000*%
G04 #@! TD*
G04 #@! TA.AperFunction,ComponentPad*
%ADD22O,2.100000X1.000000*%
G04 #@! TD*
G04 #@! TA.AperFunction,ComponentPad*
%ADD23O,1.600000X1.000000*%
G04 #@! TD*
G04 #@! TA.AperFunction,ComponentPad*
%ADD24RoundRect,0.425000X-0.425000X0.550000X-0.425000X-0.550000X0.425000X-0.550000X0.425000X0.550000X0*%
G04 #@! TD*
G04 #@! TA.AperFunction,ComponentPad*
%ADD25C,0.500000*%
G04 #@! TD*
G04 #@! TA.AperFunction,ComponentPad*
%ADD26R,0.900000X0.500000*%
G04 #@! TD*
G04 #@! TA.AperFunction,ComponentPad*
%ADD27C,1.500000*%
G04 #@! TD*
G04 #@! TA.AperFunction,ViaPad*
%ADD28C,0.800000*%
G04 #@! TD*
G04 #@! TA.AperFunction,ViaPad*
%ADD29C,0.600000*%
G04 #@! TD*
G04 #@! TA.AperFunction,Conductor*
%ADD30C,0.600000*%
G04 #@! TD*
G04 #@! TA.AperFunction,Conductor*
%ADD31C,0.200000*%
G04 #@! TD*
G04 #@! TA.AperFunction,Conductor*
%ADD32C,1.000000*%
G04 #@! TD*
G04 #@! TA.AperFunction,Conductor*
%ADD33C,0.800000*%
G04 #@! TD*
G04 #@! TA.AperFunction,Conductor*
%ADD34C,1.500000*%
G04 #@! TD*
G04 APERTURE END LIST*
D10*
X149400000Y-79030000D03*
X149400000Y-76490000D03*
X149400000Y-73950000D03*
D11*
X105400000Y-91950000D03*
X105400000Y-96450000D03*
D12*
X107900000Y-90700000D03*
X107900000Y-97700000D03*
D13*
X142650000Y-114737500D03*
X142650000Y-115837500D03*
X143200000Y-115287500D03*
D14*
X143200000Y-115287500D03*
D13*
X143750000Y-114737500D03*
X143750000Y-115837500D03*
D15*
X133535000Y-116250000D03*
D16*
X136075000Y-116250000D03*
D17*
X114000000Y-76575000D03*
D18*
X111460000Y-76575000D03*
X114000000Y-74035000D03*
X111460000Y-74035000D03*
X114000000Y-71495000D03*
X111460000Y-71495000D03*
X114000000Y-68955000D03*
X111460000Y-68955000D03*
D19*
X178100000Y-95530000D03*
D20*
X178100000Y-91720000D03*
X178100000Y-87910000D03*
X178100000Y-84100000D03*
D19*
X178100000Y-106500000D03*
D20*
X178100000Y-102690000D03*
D21*
X124200000Y-104225000D03*
X125400000Y-104225000D03*
X124800000Y-103625000D03*
X124200000Y-103050000D03*
X125400000Y-103050000D03*
D22*
X105030000Y-100380000D03*
D23*
X100850000Y-100380000D03*
D22*
X105030000Y-109020000D03*
D23*
X100850000Y-109020000D03*
D11*
X105400000Y-81400000D03*
X105400000Y-85900000D03*
D12*
X107900000Y-80150000D03*
X107900000Y-87150000D03*
D24*
X132320000Y-92950000D03*
D16*
X129780000Y-92950000D03*
X127240000Y-92950000D03*
X124700000Y-92950000D03*
X122160000Y-92950000D03*
X119620000Y-92950000D03*
D25*
X145875000Y-101550000D03*
X146450000Y-100600000D03*
X146450000Y-102500000D03*
X147025000Y-101550000D03*
D26*
X124850000Y-113700000D03*
D10*
X164100000Y-79040000D03*
X164100000Y-76500000D03*
X164100000Y-73960000D03*
D27*
X177975000Y-78970000D03*
X177975000Y-76430000D03*
X175435000Y-78970000D03*
X175435000Y-76430000D03*
D28*
X181400000Y-80300000D03*
X181400000Y-75220000D03*
X181400000Y-77760000D03*
X181400000Y-85440000D03*
X181400000Y-93060000D03*
X181400000Y-87980000D03*
X181400000Y-95600000D03*
X181400000Y-82900000D03*
X181400000Y-90520000D03*
X141400000Y-106100000D03*
X149000000Y-108400000D03*
X148600000Y-99800000D03*
X136300000Y-79800000D03*
X138300000Y-82000000D03*
X130700000Y-89400000D03*
X106700000Y-78100000D03*
X144700000Y-87800000D03*
X123400000Y-99000000D03*
X117000000Y-79900000D03*
X165520000Y-67200000D03*
X112200000Y-89100000D03*
X145100000Y-67200000D03*
X132500000Y-84200000D03*
X142900000Y-110300000D03*
X132600000Y-89400000D03*
X123800000Y-81800000D03*
X124900000Y-112500000D03*
X120400000Y-111400000D03*
X179200000Y-81700000D03*
X168600000Y-114500000D03*
X121500000Y-111400000D03*
X154400000Y-92000000D03*
X112600000Y-92400000D03*
X126700000Y-79700000D03*
X134200000Y-93500000D03*
X136700000Y-98220000D03*
X136700000Y-100760000D03*
X139120000Y-118500000D03*
X168900000Y-86000000D03*
D29*
X116900000Y-107100000D03*
D28*
X116800000Y-70100000D03*
X121400000Y-71700000D03*
X101000000Y-75300000D03*
X108300000Y-84800000D03*
X132900000Y-112400000D03*
X149400000Y-84700000D03*
X165100000Y-101500000D03*
X130100000Y-68500000D03*
X138700000Y-97100000D03*
X140000000Y-110300000D03*
X162600000Y-78200000D03*
X129200000Y-91600000D03*
X166600000Y-99800000D03*
X152100000Y-79000000D03*
X173300000Y-73400000D03*
X181400000Y-103200000D03*
X153200000Y-70400000D03*
X134800000Y-87300000D03*
X126700000Y-72300000D03*
X117900000Y-93000000D03*
X102800000Y-109000000D03*
X107400000Y-101300000D03*
X171700000Y-69500000D03*
X132600000Y-87300000D03*
X123800000Y-79700000D03*
X110300000Y-107800000D03*
X105300000Y-75300000D03*
X139600000Y-67200000D03*
X156900000Y-81900000D03*
X119000000Y-112500000D03*
X142200000Y-67200000D03*
X121500000Y-110300000D03*
X121500000Y-109200000D03*
X123900000Y-109700000D03*
X163600000Y-81200000D03*
X117800000Y-111400000D03*
X166300000Y-70300000D03*
X135900000Y-73900000D03*
X157060000Y-116200000D03*
X109800000Y-101300000D03*
X101000000Y-110860000D03*
X103000000Y-75300000D03*
X148100000Y-72100000D03*
X181400000Y-98120000D03*
X141500000Y-110100000D03*
X113200000Y-99600000D03*
X101000000Y-103240000D03*
X147600000Y-103300000D03*
X101000000Y-77840000D03*
X172140000Y-118500000D03*
X174400000Y-91100000D03*
X172400000Y-96100000D03*
D29*
X114600000Y-104600000D03*
D28*
X120200000Y-107700000D03*
X133600000Y-71600000D03*
X125100000Y-100100000D03*
X149900000Y-81400000D03*
X156000000Y-79700000D03*
X118500000Y-68300000D03*
X114300000Y-85400000D03*
X152720000Y-67200000D03*
X172000000Y-80200000D03*
X149100000Y-112700000D03*
X159600000Y-116200000D03*
X123900000Y-110800000D03*
X166700000Y-77900000D03*
D29*
X118300000Y-107200000D03*
D28*
X173900000Y-110500000D03*
X114800000Y-80800000D03*
X157900000Y-86100000D03*
X134300000Y-75800000D03*
X108190000Y-74070000D03*
X157000000Y-93800000D03*
X163500000Y-87900000D03*
X113920000Y-112500000D03*
X161600000Y-75400000D03*
X157500000Y-73200000D03*
X117000000Y-82100000D03*
X119000000Y-107700000D03*
D29*
X119900000Y-106200000D03*
D28*
X169100000Y-76400000D03*
X114200000Y-96500000D03*
X173200000Y-91100000D03*
X138800000Y-105800000D03*
X149900000Y-114000000D03*
D29*
X115400000Y-102000000D03*
D28*
X116100000Y-68400000D03*
X146500000Y-103600000D03*
X157800000Y-79700000D03*
X118000000Y-91300000D03*
X155800000Y-111500000D03*
D29*
X109450000Y-104700000D03*
D28*
X108100000Y-99600000D03*
X150300000Y-86700000D03*
X112720000Y-111400000D03*
X173600000Y-74700000D03*
X181400000Y-105740000D03*
X123800000Y-76100000D03*
X174600000Y-97800000D03*
X131500000Y-118500000D03*
X122500000Y-68400000D03*
D29*
X114600000Y-103200000D03*
D28*
X132300000Y-68500000D03*
X114200000Y-94100000D03*
X114000000Y-82500000D03*
X112500000Y-103300000D03*
X160200000Y-74100000D03*
X176900000Y-81700000D03*
X129600000Y-109400000D03*
X126600000Y-81800000D03*
X119000000Y-109200000D03*
X147300000Y-97700000D03*
X137700000Y-76200000D03*
X134300000Y-73900000D03*
X136300000Y-84400000D03*
X128200000Y-68500000D03*
X148300000Y-96900000D03*
X101000000Y-95620000D03*
X167000000Y-80700000D03*
X144200000Y-118500000D03*
X126700000Y-76100000D03*
X134800000Y-83200000D03*
X131600000Y-76100000D03*
X130200000Y-86400000D03*
D29*
X118300000Y-102000000D03*
D28*
X141660000Y-118500000D03*
X110600000Y-99600000D03*
X101000000Y-90540000D03*
X101000000Y-82920000D03*
X147200000Y-78200000D03*
X135300000Y-69700000D03*
D29*
X116900000Y-102000000D03*
D28*
X149900000Y-116500000D03*
X115800000Y-79800000D03*
X128960000Y-112400000D03*
X154100000Y-112700000D03*
X169100000Y-98200000D03*
X168100000Y-86800000D03*
X162200000Y-72900000D03*
X136700000Y-95680000D03*
X137000000Y-71300000D03*
X144800000Y-69800000D03*
X154600000Y-84600000D03*
X141000000Y-112600000D03*
X120400000Y-108900000D03*
X136600000Y-78000000D03*
X136700000Y-106000000D03*
X144700000Y-81300000D03*
X126600000Y-84200000D03*
X134000000Y-100760000D03*
X160440000Y-67200000D03*
X134000000Y-98220000D03*
X149800000Y-70400000D03*
X120200000Y-112400000D03*
X116460000Y-109200000D03*
X166300000Y-74000000D03*
X101000000Y-80380000D03*
X120800000Y-68300000D03*
X123900000Y-111900000D03*
X161400000Y-83800000D03*
X115260000Y-111400000D03*
X134000000Y-106000000D03*
X146400000Y-96900000D03*
X158000000Y-111100000D03*
D29*
X115400000Y-107100000D03*
D28*
X112400000Y-85400000D03*
X101000000Y-105780000D03*
X179200000Y-86000000D03*
X112300000Y-96000000D03*
X158300000Y-116200000D03*
X173000000Y-89400000D03*
X134200000Y-96000000D03*
X177000000Y-108700000D03*
X153400000Y-73000000D03*
X147640000Y-67200000D03*
X167060000Y-118500000D03*
X108900000Y-67100000D03*
X157000000Y-91400000D03*
X134040000Y-118500000D03*
X154500000Y-87900000D03*
X154400000Y-116500000D03*
X169600000Y-79300000D03*
X171800000Y-67200000D03*
X117000000Y-84300000D03*
X151300000Y-72300000D03*
X111300000Y-101900000D03*
X153000000Y-115000000D03*
X119700000Y-101600000D03*
X176860000Y-98300000D03*
X112900000Y-106100000D03*
X119500000Y-85300000D03*
X173900000Y-81500000D03*
X125100000Y-107200000D03*
X120000000Y-79900000D03*
X124800000Y-68500000D03*
X111380000Y-109200000D03*
X155260000Y-67200000D03*
X107300000Y-107900000D03*
X129900000Y-71600000D03*
X171300000Y-112500000D03*
X124000000Y-96100000D03*
X147700000Y-75000000D03*
X128700000Y-94800000D03*
X107400000Y-67100000D03*
X150300000Y-85300000D03*
X107640000Y-111400000D03*
X172900000Y-86000000D03*
X116900000Y-78500000D03*
X136300000Y-90460000D03*
X108840000Y-112500000D03*
X152100000Y-80600000D03*
X155800000Y-113800000D03*
X181400000Y-100660000D03*
X134000000Y-108540000D03*
X111380000Y-112500000D03*
X181400000Y-108280000D03*
X149280000Y-118500000D03*
X173900000Y-112900000D03*
X123800000Y-84200000D03*
X108300000Y-95100000D03*
X172700000Y-71100000D03*
X101000000Y-88000000D03*
X132500000Y-81800000D03*
X141200000Y-108300000D03*
X168900000Y-101600000D03*
X131500000Y-116100000D03*
X179400000Y-98300000D03*
X133640000Y-110400000D03*
X168100000Y-85300000D03*
X130900000Y-108200000D03*
X158500000Y-108600000D03*
X136300000Y-93000000D03*
X105000000Y-98600000D03*
X111300000Y-106800000D03*
X162980000Y-67200000D03*
X137200000Y-67200000D03*
X136300000Y-87920000D03*
X109300000Y-81600000D03*
X168800000Y-67200000D03*
D29*
X147371384Y-106128616D03*
D28*
X126700000Y-74200000D03*
X167200000Y-82700000D03*
X131500000Y-113400000D03*
X136700000Y-108540000D03*
X110800000Y-72800000D03*
X161800000Y-70300000D03*
X171300000Y-116300000D03*
X162400000Y-82700000D03*
X171100000Y-85800000D03*
X121900000Y-107200000D03*
X101000000Y-93080000D03*
X131800000Y-71600000D03*
X138400000Y-78000000D03*
X114800000Y-91200000D03*
X136580000Y-118500000D03*
X116460000Y-112500000D03*
X167600000Y-71500000D03*
X134200000Y-68500000D03*
X108840000Y-109200000D03*
X167200000Y-95600000D03*
X129400000Y-81800000D03*
X126900000Y-112400000D03*
X159300000Y-73300000D03*
X154700000Y-109800000D03*
X164520000Y-118500000D03*
X160000000Y-69900000D03*
X179400000Y-89800000D03*
X150800000Y-115000000D03*
X110180000Y-111400000D03*
X175100000Y-74700000D03*
X158000000Y-84700000D03*
X161980000Y-118500000D03*
X134000000Y-103300000D03*
X163900000Y-70300000D03*
X105400000Y-88900000D03*
X146500000Y-99500000D03*
X171500000Y-83700000D03*
X118600000Y-88200000D03*
X129400000Y-79700000D03*
X165000000Y-96900000D03*
X147500000Y-81300000D03*
X105400000Y-94200000D03*
X154400000Y-93800000D03*
X105400000Y-79700000D03*
X176860000Y-89800000D03*
X149400000Y-86000000D03*
X174700000Y-87700000D03*
X164900000Y-82700000D03*
X138000000Y-80100000D03*
X107200000Y-75000000D03*
X176900000Y-86000000D03*
X115500000Y-99600000D03*
X156600000Y-77100000D03*
X101000000Y-98160000D03*
X105300000Y-83500000D03*
X157900000Y-67200000D03*
X168900000Y-96700000D03*
X110000000Y-78100000D03*
X125000000Y-89400000D03*
X143400000Y-71000000D03*
X117500000Y-85700000D03*
X181400000Y-110820000D03*
X121900000Y-100200000D03*
X154400000Y-86400000D03*
X173400000Y-99400000D03*
X136700000Y-103300000D03*
D29*
X114600000Y-106100000D03*
D28*
X154400000Y-89600000D03*
X170000000Y-82300000D03*
X129400000Y-76100000D03*
X171900000Y-108700000D03*
X174680000Y-118500000D03*
X150180000Y-67200000D03*
X131100000Y-110400000D03*
X127800000Y-111300000D03*
X126100000Y-96100000D03*
X154360000Y-118500000D03*
X132200000Y-73900000D03*
X142300000Y-72300000D03*
X159900000Y-84000000D03*
X169100000Y-73800000D03*
X169600000Y-118500000D03*
X144800000Y-78200000D03*
X146740000Y-118500000D03*
X112500000Y-101300000D03*
X101000000Y-85460000D03*
X123400000Y-100100000D03*
X129400000Y-84200000D03*
X128000000Y-89400000D03*
X113920000Y-109200000D03*
X159100000Y-114800000D03*
D29*
X111475000Y-82975000D03*
X122250000Y-74475000D03*
D28*
X140400000Y-96450000D03*
X117550000Y-98200000D03*
X140400000Y-97350000D03*
D29*
X110500000Y-86775000D03*
D28*
X117550000Y-99100000D03*
X119175000Y-69800000D03*
X118175000Y-69800000D03*
X141300000Y-96450000D03*
D29*
X110525000Y-97350000D03*
D28*
X141300000Y-97350000D03*
X118675000Y-70500000D03*
D29*
X138474265Y-74774265D03*
X141900000Y-116725000D03*
D28*
X144200000Y-110600000D03*
D29*
X111675000Y-104700000D03*
D28*
X145100000Y-109700000D03*
X144200000Y-109700000D03*
D29*
X107100000Y-102250000D03*
D28*
X145100000Y-110600000D03*
D29*
X144425000Y-112200000D03*
D28*
X145925000Y-105550000D03*
X147400000Y-116100000D03*
X145025000Y-105550000D03*
X145425000Y-95050000D03*
X147400000Y-115200000D03*
X144425000Y-95050000D03*
X145925000Y-106450000D03*
X148300000Y-115200000D03*
D29*
X171400000Y-73400000D03*
D28*
X148300000Y-116100000D03*
X145025000Y-106450000D03*
X160900000Y-91800000D03*
X160900000Y-90800000D03*
X121425000Y-105125000D03*
X125550000Y-97650000D03*
X130525000Y-104725000D03*
X126450000Y-109175000D03*
D29*
X114900000Y-95600000D03*
X115800000Y-86000000D03*
D28*
X126450000Y-97650000D03*
D29*
X127450000Y-106875000D03*
X127450000Y-96325000D03*
X128100000Y-102250000D03*
X128250003Y-96325000D03*
X119975000Y-82900000D03*
X136300000Y-77000000D03*
X138600000Y-109100000D03*
X119975000Y-77900000D03*
X120425000Y-103200000D03*
X121025548Y-102663350D03*
X128074528Y-105799528D03*
X128075000Y-82600000D03*
X125175000Y-82600000D03*
X128125000Y-105000000D03*
X115450000Y-96650000D03*
X122250000Y-89300000D03*
X138500000Y-85600000D03*
X135000000Y-79900000D03*
X122250000Y-75300000D03*
X111475000Y-93525000D03*
X150200000Y-105900000D03*
X148925000Y-102500000D03*
X151700000Y-82700000D03*
X156200000Y-86600000D03*
X144625000Y-116725000D03*
D30*
X124850000Y-112550000D02*
X124900000Y-112500000D01*
X124850000Y-113700000D02*
X124850000Y-112550000D01*
D31*
X114950000Y-78000000D02*
X111475000Y-81475000D01*
X118475000Y-74475000D02*
X114950000Y-78000000D01*
X122250000Y-74475000D02*
X118475000Y-74475000D01*
X111475000Y-81475000D02*
X111475000Y-82975000D01*
D32*
X139625000Y-75950000D02*
X133475000Y-69800000D01*
X139625000Y-95675000D02*
X139625000Y-75950000D01*
X114000000Y-76575000D02*
X117675000Y-72900000D01*
X117675000Y-72900000D02*
X117675000Y-71500000D01*
X140400000Y-96450000D02*
X139625000Y-95675000D01*
D33*
X117550000Y-99100000D02*
X117550000Y-99000000D01*
X111775000Y-98600000D02*
X117150000Y-98600000D01*
X110500000Y-97325000D02*
X110525000Y-97350000D01*
D32*
X117675000Y-71500000D02*
X118675000Y-70500000D01*
X133475000Y-69800000D02*
X119175000Y-69800000D01*
D33*
X110500000Y-86775000D02*
X110500000Y-97325000D01*
X117150000Y-98600000D02*
X117550000Y-98200000D01*
X110500000Y-86775000D02*
X110500000Y-80075000D01*
X110525000Y-97350000D02*
X111775000Y-98600000D01*
X117550000Y-99000000D02*
X117150000Y-98600000D01*
X110500000Y-80075000D02*
X114000000Y-76575000D01*
D32*
X143050000Y-96350000D02*
X141375000Y-94675000D01*
D31*
X111100000Y-103025000D02*
X111675000Y-103600000D01*
X144425000Y-112200000D02*
X142650000Y-112200000D01*
D32*
X143050000Y-108550000D02*
X143050000Y-96350000D01*
X141375000Y-94675000D02*
X141375000Y-73800000D01*
D31*
X107100000Y-102250000D02*
X110325000Y-102250000D01*
X141900000Y-112950000D02*
X141900000Y-116725000D01*
D32*
X144200000Y-109700000D02*
X143050000Y-108550000D01*
D31*
X142650000Y-112200000D02*
X141900000Y-112950000D01*
D32*
X110700000Y-67100000D02*
X109600000Y-68200000D01*
D31*
X111675000Y-103600000D02*
X111675000Y-104700000D01*
D32*
X134675000Y-67100000D02*
X110700000Y-67100000D01*
X141375000Y-73800000D02*
X134675000Y-67100000D01*
X109600000Y-74715000D02*
X111460000Y-76575000D01*
D31*
X110325000Y-102250000D02*
X111100000Y-103025000D01*
D32*
X109600000Y-68200000D02*
X109600000Y-74715000D01*
D31*
X171400000Y-73400000D02*
X167100000Y-69100000D01*
D33*
X159050000Y-95050000D02*
X160900000Y-93200000D01*
D31*
X143475000Y-74125000D02*
X143475000Y-94100000D01*
D34*
X145925000Y-106450000D02*
X147400000Y-107925000D01*
D33*
X160900000Y-93200000D02*
X160900000Y-90800000D01*
D31*
X167100000Y-69100000D02*
X148500000Y-69100000D01*
X143475000Y-94100000D02*
X144425000Y-95050000D01*
D33*
X145025000Y-105550000D02*
X145025000Y-95650000D01*
D34*
X147400000Y-107925000D02*
X147400000Y-115200000D01*
D31*
X148500000Y-69100000D02*
X143475000Y-74125000D01*
D33*
X144425000Y-95050000D02*
X159050000Y-95050000D01*
X145025000Y-95650000D02*
X144425000Y-95050000D01*
X130525000Y-106625000D02*
X127975000Y-109175000D01*
X130525000Y-104725000D02*
X132320000Y-102930000D01*
D31*
X115800000Y-94700000D02*
X114900000Y-95600000D01*
X115800000Y-86000000D02*
X115800000Y-94700000D01*
D33*
X132320000Y-102930000D02*
X132320000Y-92950000D01*
X126450000Y-105125000D02*
X126450000Y-109175000D01*
X126450000Y-97650000D02*
X126450000Y-105125000D01*
X130525000Y-104725000D02*
X130525000Y-106625000D01*
X127975000Y-109175000D02*
X126450000Y-109175000D01*
X121425000Y-105125000D02*
X126450000Y-105125000D01*
D31*
X127450000Y-106875000D02*
X127450000Y-96325000D01*
X128250003Y-96325000D02*
X128250003Y-102099997D01*
X128250003Y-102099997D02*
X128100000Y-102250000D01*
X136300000Y-77000000D02*
X119450000Y-77000000D01*
X118675000Y-81600000D02*
X119975000Y-82900000D01*
X119450000Y-77000000D02*
X118675000Y-77775000D01*
X118675000Y-77775000D02*
X118675000Y-81600000D01*
X138600000Y-109100000D02*
X137700000Y-108200000D01*
X137700000Y-108200000D02*
X137700000Y-83700000D01*
X137700000Y-83700000D02*
X131900000Y-77900000D01*
X131900000Y-77900000D02*
X119975000Y-77900000D01*
X124700000Y-92950000D02*
X123100000Y-94550000D01*
X123100000Y-94550000D02*
X121700000Y-94550000D01*
X120425000Y-95825000D02*
X120425000Y-103200000D01*
X121700000Y-94550000D02*
X120425000Y-95825000D01*
X121025548Y-102663350D02*
X121025548Y-96099452D01*
X121025548Y-96099452D02*
X122000000Y-95125000D01*
X125065000Y-95125000D02*
X127240000Y-92950000D01*
X122000000Y-95125000D02*
X125065000Y-95125000D01*
X128075000Y-87825000D02*
X128075000Y-82600000D01*
X130200000Y-103773529D02*
X130200000Y-94475000D01*
X131050000Y-93625000D02*
X131050000Y-90800000D01*
X131050000Y-90800000D02*
X128075000Y-87825000D01*
X130200000Y-94475000D02*
X131050000Y-93625000D01*
X128074528Y-105799528D02*
X128174001Y-105799528D01*
X128174001Y-105799528D02*
X130200000Y-103773529D01*
X128500000Y-91775000D02*
X125175000Y-88450000D01*
X128500000Y-93575000D02*
X128500000Y-91775000D01*
X129400000Y-103725000D02*
X129400000Y-94475000D01*
X125175000Y-88450000D02*
X125175000Y-82600000D01*
X129400000Y-94475000D02*
X128500000Y-93575000D01*
X128125000Y-105000000D02*
X129400000Y-103725000D01*
X118125000Y-89300000D02*
X116925000Y-90500000D01*
X122250000Y-89300000D02*
X118125000Y-89300000D01*
X116925000Y-90500000D02*
X116925000Y-95175000D01*
X116925000Y-95175000D02*
X115450000Y-96650000D01*
X138500000Y-85600000D02*
X138500000Y-83400000D01*
X138500000Y-83400000D02*
X135000000Y-79900000D01*
X112450000Y-83375000D02*
X112450000Y-81800000D01*
X112450000Y-81800000D02*
X118950000Y-75300000D01*
X111475000Y-84350000D02*
X112450000Y-83375000D01*
X118950000Y-75300000D02*
X122250000Y-75300000D01*
X111475000Y-93525000D02*
X111475000Y-84350000D01*
X148925000Y-104625000D02*
X150200000Y-105900000D01*
X148925000Y-102500000D02*
X148925000Y-104625000D01*
X156200000Y-86600000D02*
X156200000Y-84000000D01*
X156200000Y-84000000D02*
X154900000Y-82700000D01*
X154900000Y-82700000D02*
X151700000Y-82700000D01*
X146125000Y-115225000D02*
X146125000Y-109150000D01*
X144025000Y-107050000D02*
X144025000Y-95950000D01*
X142450000Y-73650000D02*
X147500000Y-68600000D01*
X144025000Y-95950000D02*
X142450000Y-94375000D01*
X147500000Y-68600000D02*
X167300000Y-68600000D01*
X144625000Y-116725000D02*
X146125000Y-115225000D01*
X146125000Y-109150000D02*
X144025000Y-107050000D01*
X142450000Y-94375000D02*
X142450000Y-73650000D01*
X171300000Y-72600000D02*
X174145000Y-72600000D01*
X174145000Y-72600000D02*
X177975000Y-76430000D01*
X167300000Y-68600000D02*
X171300000Y-72600000D01*
G04 #@! TA.AperFunction,Conductor*
G36*
X110128027Y-66519407D02*
G01*
X110163991Y-66568907D01*
X110163991Y-66630093D01*
X110139841Y-66669501D01*
X109502029Y-67307314D01*
X109055883Y-67753460D01*
X109024453Y-67800500D01*
X108979223Y-67868191D01*
X108926420Y-67995670D01*
X108926420Y-67995672D01*
X108899500Y-68131004D01*
X108899500Y-74783996D01*
X108910694Y-74840269D01*
X108926127Y-74917857D01*
X108926420Y-74919327D01*
X108926420Y-74919329D01*
X108979223Y-75046808D01*
X108979224Y-75046810D01*
X108979225Y-75046811D01*
X109055886Y-75161543D01*
X109722928Y-75828585D01*
X110377129Y-76482786D01*
X110404906Y-76537303D01*
X110405648Y-76562490D01*
X110404418Y-76574996D01*
X110404417Y-76575003D01*
X110424698Y-76780929D01*
X110424699Y-76780934D01*
X110484768Y-76978954D01*
X110582316Y-77161452D01*
X110689099Y-77291568D01*
X110713590Y-77321410D01*
X110713595Y-77321414D01*
X110873547Y-77452683D01*
X110873548Y-77452683D01*
X110873550Y-77452685D01*
X111056046Y-77550232D01*
X111188757Y-77590489D01*
X111254065Y-77610300D01*
X111254070Y-77610301D01*
X111459997Y-77630583D01*
X111460000Y-77630583D01*
X111460003Y-77630583D01*
X111665929Y-77610301D01*
X111665934Y-77610300D01*
X111701537Y-77599500D01*
X111863954Y-77550232D01*
X111944714Y-77507064D01*
X112004944Y-77496307D01*
X112059995Y-77523008D01*
X112088839Y-77576968D01*
X112080457Y-77637577D01*
X112061385Y-77664378D01*
X110131286Y-79594478D01*
X110131284Y-79594480D01*
X110131283Y-79594479D01*
X110019482Y-79706281D01*
X110019480Y-79706283D01*
X110019480Y-79706284D01*
X109986078Y-79764140D01*
X109979984Y-79774695D01*
X109979983Y-79774696D01*
X109940424Y-79843211D01*
X109940423Y-79843215D01*
X109899499Y-79995943D01*
X109899499Y-79995945D01*
X109899499Y-80162031D01*
X109899500Y-80162044D01*
X109899500Y-97239863D01*
X109899499Y-97239881D01*
X109899499Y-97245943D01*
X109899499Y-97404057D01*
X109940423Y-97556785D01*
X109940424Y-97556787D01*
X109967125Y-97603033D01*
X109967126Y-97603036D01*
X110019478Y-97693713D01*
X110019480Y-97693716D01*
X110131284Y-97805520D01*
X110131286Y-97805521D01*
X111294478Y-98968713D01*
X111294480Y-98968716D01*
X111406284Y-99080520D01*
X111406286Y-99080521D01*
X111406289Y-99080524D01*
X111406288Y-99080524D01*
X111493091Y-99130637D01*
X111493093Y-99130639D01*
X111493094Y-99130639D01*
X111522032Y-99147346D01*
X111543215Y-99159577D01*
X111695943Y-99200501D01*
X111695944Y-99200501D01*
X111860120Y-99200501D01*
X111860136Y-99200500D01*
X116218872Y-99200500D01*
X116277063Y-99219407D01*
X116288876Y-99229496D01*
X116668376Y-99608996D01*
X116684722Y-99623679D01*
X116684738Y-99623693D01*
X116701552Y-99637242D01*
X116705380Y-99640327D01*
X116761819Y-99669850D01*
X116776425Y-99677490D01*
X116776426Y-99677490D01*
X116776428Y-99677491D01*
X116843457Y-99697173D01*
X116843464Y-99697175D01*
X116901362Y-99705500D01*
X117542126Y-99705500D01*
X117544905Y-99705682D01*
X117550000Y-99705682D01*
X117555095Y-99705682D01*
X117557874Y-99705500D01*
X117598620Y-99705500D01*
X117598638Y-99705500D01*
X117620607Y-99704322D01*
X117646965Y-99701488D01*
X117686028Y-99689255D01*
X117702693Y-99685579D01*
X117706762Y-99685044D01*
X117737455Y-99672329D01*
X117749704Y-99668171D01*
X117781784Y-99659577D01*
X117810542Y-99642973D01*
X117822150Y-99637247D01*
X117852841Y-99624536D01*
X117879193Y-99604314D01*
X117889954Y-99597125D01*
X117918716Y-99580520D01*
X117942204Y-99557030D01*
X117951932Y-99548500D01*
X117978282Y-99528282D01*
X117998500Y-99501932D01*
X118007030Y-99492204D01*
X118030520Y-99468716D01*
X118047125Y-99439954D01*
X118054314Y-99429193D01*
X118074536Y-99402841D01*
X118087247Y-99372150D01*
X118092973Y-99360542D01*
X118109575Y-99331787D01*
X118109577Y-99331784D01*
X118118171Y-99299704D01*
X118122331Y-99287451D01*
X118135044Y-99256762D01*
X118136170Y-99248202D01*
X118139329Y-99233253D01*
X118147175Y-99206536D01*
X118155500Y-99148638D01*
X118155500Y-99107875D01*
X118155682Y-99105097D01*
X118155682Y-99094912D01*
X118155500Y-99092132D01*
X118155500Y-98207875D01*
X118155682Y-98205097D01*
X118155682Y-98194912D01*
X118155500Y-98192132D01*
X118155500Y-98151380D01*
X118155499Y-98151343D01*
X118155465Y-98150720D01*
X118154322Y-98129393D01*
X118151488Y-98103035D01*
X118139255Y-98063969D01*
X118135579Y-98047305D01*
X118135562Y-98047173D01*
X118135044Y-98043238D01*
X118122329Y-98012544D01*
X118118167Y-98000281D01*
X118117958Y-97999500D01*
X118109576Y-97968216D01*
X118096411Y-97945414D01*
X118092973Y-97939458D01*
X118087247Y-97927846D01*
X118085438Y-97923479D01*
X118074536Y-97897159D01*
X118054309Y-97870798D01*
X118047121Y-97860040D01*
X118030719Y-97831630D01*
X118030520Y-97831285D01*
X118030517Y-97831282D01*
X118007034Y-97807798D01*
X117998497Y-97798063D01*
X117978285Y-97771722D01*
X117978282Y-97771718D01*
X117978277Y-97771714D01*
X117978276Y-97771713D01*
X117951936Y-97751502D01*
X117942199Y-97742964D01*
X117918714Y-97719479D01*
X117889958Y-97702876D01*
X117879194Y-97695684D01*
X117852843Y-97675465D01*
X117822145Y-97662749D01*
X117810536Y-97657023D01*
X117781784Y-97640424D01*
X117781785Y-97640424D01*
X117772227Y-97637863D01*
X117749708Y-97631829D01*
X117737454Y-97627669D01*
X117706762Y-97614956D01*
X117698206Y-97613829D01*
X117683247Y-97610667D01*
X117656537Y-97602824D01*
X117605102Y-97595429D01*
X117598638Y-97594500D01*
X117598637Y-97594500D01*
X117557874Y-97594500D01*
X117555095Y-97594318D01*
X117544905Y-97594318D01*
X117542126Y-97594500D01*
X116801343Y-97594500D01*
X116779405Y-97595677D01*
X116779398Y-97595677D01*
X116779393Y-97595678D01*
X116770894Y-97596591D01*
X116753038Y-97598511D01*
X116753033Y-97598512D01*
X116676520Y-97622469D01*
X116615193Y-97655957D01*
X116568369Y-97691010D01*
X116288876Y-97970504D01*
X116234359Y-97998281D01*
X116218872Y-97999500D01*
X112064743Y-97999500D01*
X112006552Y-97980593D01*
X111994739Y-97970504D01*
X111129496Y-97105261D01*
X111101719Y-97050744D01*
X111100500Y-97035257D01*
X111100500Y-95599997D01*
X114394353Y-95599997D01*
X114394353Y-95600002D01*
X114414834Y-95742456D01*
X114474622Y-95873371D01*
X114474623Y-95873373D01*
X114568871Y-95982142D01*
X114568873Y-95982144D01*
X114676991Y-96051627D01*
X114689947Y-96059953D01*
X114796403Y-96091211D01*
X114828035Y-96100499D01*
X114828036Y-96100499D01*
X114828039Y-96100500D01*
X114828041Y-96100500D01*
X114971959Y-96100500D01*
X114971961Y-96100500D01*
X115061279Y-96074274D01*
X115122438Y-96076021D01*
X115170891Y-96113384D01*
X115188129Y-96172091D01*
X115167567Y-96229718D01*
X115142693Y-96252547D01*
X115118874Y-96267854D01*
X115024622Y-96376628D01*
X114964834Y-96507543D01*
X114944353Y-96649997D01*
X114944353Y-96650002D01*
X114964834Y-96792456D01*
X115007340Y-96885530D01*
X115024623Y-96923373D01*
X115118872Y-97032143D01*
X115118873Y-97032144D01*
X115187527Y-97076265D01*
X115239947Y-97109953D01*
X115346403Y-97141211D01*
X115378035Y-97150499D01*
X115378036Y-97150499D01*
X115378039Y-97150500D01*
X115378041Y-97150500D01*
X115521959Y-97150500D01*
X115521961Y-97150500D01*
X115660053Y-97109953D01*
X115781128Y-97032143D01*
X115875377Y-96923373D01*
X115935165Y-96792457D01*
X115947431Y-96707143D01*
X115955647Y-96650002D01*
X115955647Y-96650000D01*
X115952843Y-96630499D01*
X115952558Y-96628517D01*
X115962990Y-96568228D01*
X115980543Y-96544426D01*
X117165460Y-95359511D01*
X117187850Y-95320729D01*
X117196046Y-95306535D01*
X117201571Y-95296965D01*
X117205021Y-95290989D01*
X117225500Y-95214562D01*
X117225500Y-92721532D01*
X118569500Y-92721532D01*
X118569500Y-93178467D01*
X118609869Y-93381418D01*
X118689058Y-93572597D01*
X118783667Y-93714190D01*
X118804023Y-93744655D01*
X118950345Y-93890977D01*
X119122402Y-94005941D01*
X119313580Y-94085130D01*
X119516535Y-94125500D01*
X119516536Y-94125500D01*
X119723464Y-94125500D01*
X119723465Y-94125500D01*
X119926420Y-94085130D01*
X120117598Y-94005941D01*
X120289655Y-93890977D01*
X120435977Y-93744655D01*
X120550941Y-93572598D01*
X120630130Y-93381420D01*
X120670500Y-93178465D01*
X120670500Y-92721535D01*
X120630130Y-92518580D01*
X120550941Y-92327402D01*
X120435977Y-92155345D01*
X120289655Y-92009023D01*
X120289651Y-92009020D01*
X120117597Y-91894058D01*
X119926418Y-91814869D01*
X119723467Y-91774500D01*
X119723465Y-91774500D01*
X119516535Y-91774500D01*
X119516532Y-91774500D01*
X119313581Y-91814869D01*
X119122402Y-91894058D01*
X118950348Y-92009020D01*
X118804020Y-92155348D01*
X118689058Y-92327402D01*
X118609869Y-92518581D01*
X118569500Y-92721532D01*
X117225500Y-92721532D01*
X117225500Y-90665479D01*
X117244407Y-90607288D01*
X117254496Y-90595475D01*
X118220475Y-89629496D01*
X118274992Y-89601719D01*
X118290479Y-89600500D01*
X121802917Y-89600500D01*
X121861108Y-89619407D01*
X121877733Y-89634667D01*
X121918872Y-89682143D01*
X122039947Y-89759953D01*
X122146403Y-89791211D01*
X122178035Y-89800499D01*
X122178036Y-89800499D01*
X122178039Y-89800500D01*
X122178041Y-89800500D01*
X122321959Y-89800500D01*
X122321961Y-89800500D01*
X122460053Y-89759953D01*
X122581128Y-89682143D01*
X122675377Y-89573373D01*
X122735165Y-89442457D01*
X122755647Y-89300000D01*
X122748386Y-89249500D01*
X122735165Y-89157543D01*
X122675377Y-89026628D01*
X122675377Y-89026627D01*
X122581128Y-88917857D01*
X122581127Y-88917856D01*
X122581126Y-88917855D01*
X122460057Y-88840049D01*
X122460054Y-88840047D01*
X122460053Y-88840047D01*
X122460050Y-88840046D01*
X122321964Y-88799500D01*
X122321961Y-88799500D01*
X122178039Y-88799500D01*
X122178035Y-88799500D01*
X122039949Y-88840046D01*
X122039942Y-88840049D01*
X121918876Y-88917854D01*
X121918871Y-88917858D01*
X121877736Y-88965331D01*
X121825340Y-88996927D01*
X121802917Y-88999500D01*
X118085435Y-88999500D01*
X118009011Y-89019978D01*
X118009007Y-89019980D01*
X117940491Y-89059538D01*
X116740489Y-90259540D01*
X116740488Y-90259539D01*
X116684539Y-90315489D01*
X116644980Y-90384007D01*
X116644978Y-90384011D01*
X116624500Y-90460435D01*
X116624500Y-95009520D01*
X116605593Y-95067711D01*
X116595504Y-95079524D01*
X115554524Y-96120504D01*
X115500007Y-96148281D01*
X115484520Y-96149500D01*
X115378035Y-96149500D01*
X115288721Y-96175725D01*
X115227560Y-96173977D01*
X115179108Y-96136614D01*
X115161870Y-96077907D01*
X115182432Y-96020280D01*
X115207303Y-95997454D01*
X115231128Y-95982143D01*
X115325377Y-95873373D01*
X115385165Y-95742457D01*
X115399826Y-95640489D01*
X115405647Y-95600002D01*
X115405647Y-95600000D01*
X115402558Y-95578518D01*
X115412990Y-95518228D01*
X115430543Y-95494427D01*
X116040460Y-94884511D01*
X116060096Y-94850500D01*
X116080021Y-94815989D01*
X116100500Y-94739562D01*
X116100500Y-86453893D01*
X116119407Y-86395702D01*
X116126741Y-86387711D01*
X116126491Y-86387494D01*
X116131128Y-86382143D01*
X116225377Y-86273373D01*
X116285165Y-86142457D01*
X116291992Y-86094971D01*
X116305647Y-86000002D01*
X116305647Y-85999997D01*
X116285165Y-85857543D01*
X116232606Y-85742457D01*
X116225377Y-85726627D01*
X116131128Y-85617857D01*
X116131127Y-85617856D01*
X116131126Y-85617855D01*
X116010057Y-85540049D01*
X116010054Y-85540047D01*
X116010053Y-85540047D01*
X116010050Y-85540046D01*
X115871964Y-85499500D01*
X115871961Y-85499500D01*
X115728039Y-85499500D01*
X115728035Y-85499500D01*
X115589949Y-85540046D01*
X115589942Y-85540049D01*
X115468873Y-85617855D01*
X115374622Y-85726628D01*
X115314834Y-85857543D01*
X115294353Y-85999997D01*
X115294353Y-86000002D01*
X115314834Y-86142456D01*
X115348383Y-86215917D01*
X115374623Y-86273373D01*
X115420768Y-86326628D01*
X115473509Y-86387494D01*
X115471471Y-86389259D01*
X115496925Y-86431458D01*
X115499500Y-86453893D01*
X115499500Y-94534520D01*
X115480593Y-94592711D01*
X115470504Y-94604524D01*
X115004524Y-95070504D01*
X114950007Y-95098281D01*
X114934520Y-95099500D01*
X114828035Y-95099500D01*
X114689949Y-95140046D01*
X114689942Y-95140049D01*
X114568873Y-95217855D01*
X114474622Y-95326628D01*
X114414834Y-95457543D01*
X114394353Y-95599997D01*
X111100500Y-95599997D01*
X111100500Y-94060574D01*
X111119407Y-94002383D01*
X111168907Y-93966419D01*
X111230093Y-93966419D01*
X111253020Y-93977288D01*
X111264947Y-93984953D01*
X111350145Y-94009969D01*
X111403035Y-94025499D01*
X111403036Y-94025499D01*
X111403039Y-94025500D01*
X111403041Y-94025500D01*
X111546959Y-94025500D01*
X111546961Y-94025500D01*
X111685053Y-93984953D01*
X111806128Y-93907143D01*
X111900377Y-93798373D01*
X111960165Y-93667457D01*
X111970061Y-93598627D01*
X111980647Y-93525002D01*
X111980647Y-93524997D01*
X111960165Y-93382543D01*
X111900377Y-93251628D01*
X111900377Y-93251627D01*
X111806128Y-93142857D01*
X111806127Y-93142856D01*
X111801491Y-93137506D01*
X111803524Y-93135743D01*
X111778067Y-93093505D01*
X111775500Y-93071105D01*
X111775500Y-84515478D01*
X111794407Y-84457287D01*
X111804490Y-84445480D01*
X112690460Y-83559511D01*
X112715876Y-83515489D01*
X112716024Y-83515234D01*
X112727431Y-83495475D01*
X112730021Y-83490989D01*
X112750500Y-83414562D01*
X112750500Y-81965479D01*
X112769407Y-81907288D01*
X112779496Y-81895475D01*
X119045475Y-75629496D01*
X119099992Y-75601719D01*
X119115479Y-75600500D01*
X121802917Y-75600500D01*
X121861108Y-75619407D01*
X121877733Y-75634667D01*
X121918872Y-75682143D01*
X121954832Y-75705253D01*
X122031690Y-75754647D01*
X122039947Y-75759953D01*
X122146403Y-75791211D01*
X122178035Y-75800499D01*
X122178036Y-75800499D01*
X122178039Y-75800500D01*
X122178041Y-75800500D01*
X122321959Y-75800500D01*
X122321961Y-75800500D01*
X122460053Y-75759953D01*
X122581128Y-75682143D01*
X122675377Y-75573373D01*
X122735165Y-75442457D01*
X122755647Y-75300000D01*
X122735165Y-75157543D01*
X122675377Y-75026627D01*
X122649642Y-74996927D01*
X122611000Y-74952331D01*
X122587182Y-74895972D01*
X122601041Y-74836376D01*
X122611000Y-74822669D01*
X122627476Y-74803653D01*
X122675377Y-74748373D01*
X122735165Y-74617457D01*
X122752159Y-74499261D01*
X122755647Y-74475002D01*
X122755647Y-74474997D01*
X122735165Y-74332543D01*
X122690408Y-74234540D01*
X122675377Y-74201627D01*
X122581128Y-74092857D01*
X122581127Y-74092856D01*
X122581126Y-74092855D01*
X122460057Y-74015049D01*
X122460054Y-74015047D01*
X122460053Y-74015047D01*
X122460050Y-74015046D01*
X122321964Y-73974500D01*
X122321961Y-73974500D01*
X122178039Y-73974500D01*
X122178035Y-73974500D01*
X122039949Y-74015046D01*
X122039942Y-74015049D01*
X121918876Y-74092854D01*
X121918871Y-74092858D01*
X121877736Y-74140331D01*
X121825340Y-74171927D01*
X121802917Y-74174500D01*
X118435435Y-74174500D01*
X118359011Y-74194978D01*
X118359007Y-74194980D01*
X118343913Y-74203694D01*
X118343914Y-74203695D01*
X118290490Y-74234539D01*
X115219504Y-77305524D01*
X115164987Y-77333301D01*
X115104555Y-77323730D01*
X115061290Y-77280465D01*
X115050500Y-77235520D01*
X115050500Y-76556164D01*
X115069407Y-76497973D01*
X115079490Y-76486166D01*
X118219114Y-73346543D01*
X118295775Y-73231811D01*
X118348580Y-73104328D01*
X118375500Y-72968994D01*
X118375500Y-72831006D01*
X118375500Y-71831164D01*
X118394407Y-71772973D01*
X118404490Y-71761166D01*
X119219114Y-70946543D01*
X119219117Y-70946537D01*
X119222464Y-70943191D01*
X119222802Y-70942816D01*
X119636124Y-70529496D01*
X119690640Y-70501719D01*
X119706127Y-70500500D01*
X133143835Y-70500500D01*
X133202026Y-70519407D01*
X133213839Y-70529496D01*
X138895504Y-76211160D01*
X138923281Y-76265677D01*
X138924500Y-76281164D01*
X138924500Y-83164783D01*
X138905593Y-83222974D01*
X138856093Y-83258938D01*
X138794907Y-83258938D01*
X138745407Y-83222974D01*
X138741021Y-83216220D01*
X138740462Y-83215490D01*
X138684511Y-83159539D01*
X138684511Y-83159540D01*
X135530546Y-80005575D01*
X135502769Y-79951058D01*
X135502558Y-79921482D01*
X135505647Y-79900000D01*
X135498802Y-79852394D01*
X135485165Y-79757543D01*
X135467029Y-79717831D01*
X135425377Y-79626627D01*
X135331128Y-79517857D01*
X135331127Y-79517856D01*
X135331126Y-79517855D01*
X135210057Y-79440049D01*
X135210054Y-79440047D01*
X135210053Y-79440047D01*
X135210050Y-79440046D01*
X135071964Y-79399500D01*
X135071961Y-79399500D01*
X134928039Y-79399500D01*
X134928035Y-79399500D01*
X134789949Y-79440046D01*
X134789942Y-79440049D01*
X134668873Y-79517855D01*
X134574622Y-79626628D01*
X134514834Y-79757543D01*
X134501207Y-79852325D01*
X134474211Y-79907233D01*
X134420097Y-79935786D01*
X134359534Y-79927079D01*
X134333211Y-79908240D01*
X133242089Y-78817118D01*
X132084511Y-77659540D01*
X132084508Y-77659538D01*
X132084507Y-77659537D01*
X132083587Y-77659006D01*
X132083587Y-77659005D01*
X132015989Y-77619979D01*
X132015985Y-77619977D01*
X131939564Y-77599500D01*
X131939562Y-77599500D01*
X120422083Y-77599500D01*
X120363892Y-77580593D01*
X120347264Y-77565331D01*
X120334179Y-77550230D01*
X120306128Y-77517857D01*
X120251552Y-77482783D01*
X120212822Y-77435418D01*
X120209329Y-77374332D01*
X120242409Y-77322860D01*
X120299425Y-77300661D01*
X120305077Y-77300500D01*
X135852917Y-77300500D01*
X135911108Y-77319407D01*
X135927733Y-77334667D01*
X135968872Y-77382143D01*
X136028557Y-77420500D01*
X136078634Y-77452683D01*
X136089947Y-77459953D01*
X136196403Y-77491211D01*
X136228035Y-77500499D01*
X136228036Y-77500499D01*
X136228039Y-77500500D01*
X136228041Y-77500500D01*
X136371959Y-77500500D01*
X136371961Y-77500500D01*
X136510053Y-77459953D01*
X136631128Y-77382143D01*
X136725377Y-77273373D01*
X136785165Y-77142457D01*
X136799316Y-77044032D01*
X136805647Y-77000002D01*
X136805647Y-76999997D01*
X136785165Y-76857543D01*
X136740406Y-76759536D01*
X136725377Y-76726627D01*
X136631128Y-76617857D01*
X136631127Y-76617856D01*
X136631126Y-76617855D01*
X136510057Y-76540049D01*
X136510054Y-76540047D01*
X136510053Y-76540047D01*
X136500708Y-76537303D01*
X136371964Y-76499500D01*
X136371961Y-76499500D01*
X136228039Y-76499500D01*
X136228035Y-76499500D01*
X136089949Y-76540046D01*
X136089942Y-76540049D01*
X135968876Y-76617854D01*
X135968871Y-76617858D01*
X135927736Y-76665331D01*
X135875340Y-76696927D01*
X135852917Y-76699500D01*
X119489562Y-76699500D01*
X119410438Y-76699500D01*
X119363661Y-76712033D01*
X119334007Y-76719979D01*
X119265493Y-76759536D01*
X118490489Y-77534540D01*
X118490488Y-77534539D01*
X118434539Y-77590489D01*
X118394981Y-77659006D01*
X118394978Y-77659011D01*
X118374500Y-77735435D01*
X118374500Y-81639564D01*
X118394977Y-81715985D01*
X118394979Y-81715990D01*
X118417513Y-81755020D01*
X118420641Y-81760438D01*
X118434540Y-81784511D01*
X118967883Y-82317854D01*
X119444453Y-82794424D01*
X119472230Y-82848941D01*
X119472441Y-82878514D01*
X119469354Y-82899997D01*
X119469353Y-82900002D01*
X119489834Y-83042456D01*
X119543493Y-83159950D01*
X119549623Y-83173373D01*
X119616479Y-83250529D01*
X119643873Y-83282144D01*
X119764942Y-83359950D01*
X119764947Y-83359953D01*
X119871403Y-83391211D01*
X119903035Y-83400499D01*
X119903036Y-83400499D01*
X119903039Y-83400500D01*
X119903041Y-83400500D01*
X120046959Y-83400500D01*
X120046961Y-83400500D01*
X120185053Y-83359953D01*
X120306128Y-83282143D01*
X120400377Y-83173373D01*
X120460165Y-83042457D01*
X120480647Y-82900000D01*
X120473490Y-82850223D01*
X120460165Y-82757543D01*
X120434629Y-82701627D01*
X120400377Y-82626627D01*
X120306128Y-82517857D01*
X120306127Y-82517856D01*
X120306126Y-82517855D01*
X120185057Y-82440049D01*
X120185054Y-82440047D01*
X120185053Y-82440047D01*
X120185050Y-82440046D01*
X120046964Y-82399500D01*
X120046961Y-82399500D01*
X119940479Y-82399500D01*
X119882288Y-82380593D01*
X119870475Y-82370504D01*
X119004496Y-81504525D01*
X118976719Y-81450008D01*
X118975500Y-81434521D01*
X118975500Y-77940479D01*
X118994407Y-77882288D01*
X119004496Y-77870475D01*
X119545475Y-77329496D01*
X119599992Y-77301719D01*
X119615479Y-77300500D01*
X119644923Y-77300500D01*
X119703114Y-77319407D01*
X119739078Y-77368907D01*
X119739078Y-77430093D01*
X119703114Y-77479593D01*
X119698447Y-77482784D01*
X119643872Y-77517857D01*
X119549622Y-77626628D01*
X119489834Y-77757543D01*
X119469353Y-77899997D01*
X119469353Y-77900002D01*
X119489834Y-78042456D01*
X119538825Y-78149730D01*
X119549623Y-78173373D01*
X119643870Y-78282141D01*
X119643873Y-78282144D01*
X119752833Y-78352168D01*
X119764947Y-78359953D01*
X119871403Y-78391211D01*
X119903035Y-78400499D01*
X119903036Y-78400499D01*
X119903039Y-78400500D01*
X119903041Y-78400500D01*
X120046959Y-78400500D01*
X120046961Y-78400500D01*
X120185053Y-78359953D01*
X120306128Y-78282143D01*
X120347264Y-78234668D01*
X120399660Y-78203073D01*
X120422083Y-78200500D01*
X131734521Y-78200500D01*
X131792712Y-78219407D01*
X131804525Y-78229496D01*
X137370504Y-83795475D01*
X137398281Y-83849992D01*
X137399500Y-83865479D01*
X137399500Y-108239564D01*
X137419978Y-108315988D01*
X137419979Y-108315989D01*
X137454180Y-108375227D01*
X137454181Y-108375230D01*
X137454182Y-108375230D01*
X137459540Y-108384511D01*
X137792884Y-108717855D01*
X138069453Y-108994424D01*
X138097230Y-109048941D01*
X138097441Y-109078514D01*
X138094354Y-109099997D01*
X138094353Y-109100002D01*
X138114834Y-109242456D01*
X138155621Y-109331765D01*
X138174623Y-109373373D01*
X138265144Y-109477841D01*
X138268873Y-109482144D01*
X138364683Y-109543717D01*
X138389947Y-109559953D01*
X138496403Y-109591211D01*
X138528035Y-109600499D01*
X138528036Y-109600499D01*
X138528039Y-109600500D01*
X138528041Y-109600500D01*
X138671959Y-109600500D01*
X138671961Y-109600500D01*
X138810053Y-109559953D01*
X138931128Y-109482143D01*
X139025377Y-109373373D01*
X139085165Y-109242457D01*
X139101456Y-109129149D01*
X139105647Y-109100002D01*
X139105647Y-109099997D01*
X139085165Y-108957543D01*
X139025377Y-108826627D01*
X138931128Y-108717857D01*
X138931127Y-108717856D01*
X138931126Y-108717855D01*
X138810057Y-108640049D01*
X138810054Y-108640047D01*
X138810053Y-108640047D01*
X138810050Y-108640046D01*
X138671964Y-108599500D01*
X138671961Y-108599500D01*
X138565479Y-108599500D01*
X138507288Y-108580593D01*
X138495475Y-108570504D01*
X138029496Y-108104525D01*
X138001719Y-108050008D01*
X138000500Y-108034521D01*
X138000500Y-86053027D01*
X138019407Y-85994836D01*
X138068907Y-85958872D01*
X138130093Y-85958872D01*
X138164334Y-85978210D01*
X138168869Y-85982140D01*
X138168872Y-85982143D01*
X138289947Y-86059953D01*
X138396403Y-86091211D01*
X138428035Y-86100499D01*
X138428036Y-86100499D01*
X138428039Y-86100500D01*
X138428041Y-86100500D01*
X138571959Y-86100500D01*
X138571961Y-86100500D01*
X138710053Y-86059953D01*
X138771977Y-86020156D01*
X138831152Y-86004602D01*
X138888168Y-86026801D01*
X138921247Y-86078273D01*
X138924500Y-86103441D01*
X138924500Y-95743996D01*
X138927907Y-95761124D01*
X138950235Y-95873373D01*
X138951420Y-95879327D01*
X138951420Y-95879329D01*
X139004223Y-96006808D01*
X139080191Y-96120504D01*
X139080886Y-96121543D01*
X139665505Y-96706162D01*
X139693281Y-96760677D01*
X139694500Y-96776164D01*
X139694500Y-97598656D01*
X139695375Y-97614956D01*
X139695678Y-97620607D01*
X139696437Y-97627669D01*
X139698511Y-97646961D01*
X139698512Y-97646966D01*
X139722469Y-97723479D01*
X139722522Y-97723576D01*
X139755956Y-97784805D01*
X139790752Y-97831285D01*
X139791010Y-97831630D01*
X139918376Y-97958996D01*
X139934722Y-97973679D01*
X139934738Y-97973693D01*
X139955380Y-97990327D01*
X140026425Y-98027490D01*
X140026426Y-98027490D01*
X140026428Y-98027491D01*
X140040524Y-98031630D01*
X140093464Y-98047175D01*
X140151362Y-98055500D01*
X140151363Y-98055500D01*
X141548620Y-98055500D01*
X141548638Y-98055500D01*
X141570607Y-98054322D01*
X141596965Y-98051488D01*
X141673482Y-98027529D01*
X141734805Y-97994044D01*
X141781629Y-97958991D01*
X141908991Y-97831629D01*
X141923693Y-97815262D01*
X141940327Y-97794620D01*
X141977490Y-97723575D01*
X141997175Y-97656536D01*
X142005500Y-97598638D01*
X142005500Y-96535165D01*
X142024407Y-96476974D01*
X142073907Y-96441010D01*
X142135093Y-96441010D01*
X142174504Y-96465161D01*
X142320504Y-96611161D01*
X142348281Y-96665678D01*
X142349500Y-96681165D01*
X142349500Y-108618996D01*
X142376420Y-108754327D01*
X142376420Y-108754329D01*
X142429223Y-108881808D01*
X142491887Y-108975593D01*
X142505886Y-108996543D01*
X143465505Y-109956162D01*
X143493281Y-110010677D01*
X143494500Y-110026164D01*
X143494500Y-110848656D01*
X143495677Y-110870594D01*
X143495678Y-110870603D01*
X143498511Y-110896961D01*
X143498512Y-110896966D01*
X143522469Y-110973479D01*
X143536654Y-110999456D01*
X143555956Y-111034805D01*
X143578757Y-111065262D01*
X143591010Y-111081630D01*
X143718376Y-111208996D01*
X143734722Y-111223679D01*
X143734738Y-111223693D01*
X143755380Y-111240327D01*
X143826425Y-111277490D01*
X143826426Y-111277490D01*
X143826428Y-111277491D01*
X143826561Y-111277530D01*
X143893464Y-111297175D01*
X143951362Y-111305500D01*
X143951363Y-111305500D01*
X145348620Y-111305500D01*
X145348638Y-111305500D01*
X145370607Y-111304322D01*
X145396965Y-111301488D01*
X145473482Y-111277529D01*
X145534805Y-111244044D01*
X145581629Y-111208991D01*
X145655496Y-111135124D01*
X145710013Y-111107347D01*
X145770445Y-111116918D01*
X145813710Y-111160183D01*
X145824500Y-111205128D01*
X145824500Y-115059520D01*
X145805593Y-115117711D01*
X145795504Y-115129524D01*
X144729524Y-116195504D01*
X144675007Y-116223281D01*
X144659520Y-116224500D01*
X144553035Y-116224500D01*
X144414949Y-116265046D01*
X144414942Y-116265049D01*
X144293873Y-116342855D01*
X144199622Y-116451628D01*
X144139834Y-116582543D01*
X144119353Y-116724997D01*
X144119353Y-116725002D01*
X144139834Y-116867456D01*
X144183497Y-116963062D01*
X144199623Y-116998373D01*
X144293872Y-117107143D01*
X144293873Y-117107144D01*
X144358598Y-117148740D01*
X144414947Y-117184953D01*
X144521403Y-117216211D01*
X144553035Y-117225499D01*
X144553036Y-117225499D01*
X144553039Y-117225500D01*
X144553041Y-117225500D01*
X144696959Y-117225500D01*
X144696961Y-117225500D01*
X144835053Y-117184953D01*
X144956128Y-117107143D01*
X145050377Y-116998373D01*
X145110165Y-116867457D01*
X145119242Y-116804322D01*
X145130647Y-116725002D01*
X145130647Y-116725000D01*
X145127558Y-116703518D01*
X145137990Y-116643228D01*
X145155543Y-116619426D01*
X146275497Y-115499473D01*
X146330013Y-115471697D01*
X146390445Y-115481268D01*
X146433710Y-115524533D01*
X146444500Y-115569478D01*
X146444500Y-116098656D01*
X146445677Y-116120594D01*
X146445678Y-116120603D01*
X146448511Y-116146961D01*
X146448512Y-116146966D01*
X146472469Y-116223479D01*
X146487323Y-116250681D01*
X146505956Y-116284805D01*
X146539263Y-116329296D01*
X146541010Y-116331630D01*
X146918376Y-116708996D01*
X146934722Y-116723679D01*
X146934738Y-116723693D01*
X146955380Y-116740327D01*
X147026425Y-116777490D01*
X147026426Y-116777490D01*
X147026428Y-116777491D01*
X147026561Y-116777530D01*
X147093464Y-116797175D01*
X147151362Y-116805500D01*
X147151363Y-116805500D01*
X148548620Y-116805500D01*
X148548638Y-116805500D01*
X148570607Y-116804322D01*
X148596965Y-116801488D01*
X148673482Y-116777529D01*
X148734805Y-116744044D01*
X148781629Y-116708991D01*
X148908991Y-116581629D01*
X148923693Y-116565262D01*
X148940327Y-116544620D01*
X148977490Y-116473575D01*
X148997175Y-116406536D01*
X149005500Y-116348638D01*
X149005500Y-114951362D01*
X149004322Y-114929393D01*
X149001488Y-114903035D01*
X148977529Y-114826518D01*
X148944044Y-114765195D01*
X148908991Y-114718371D01*
X148781629Y-114591009D01*
X148781623Y-114591003D01*
X148765277Y-114576320D01*
X148765270Y-114576314D01*
X148765262Y-114576307D01*
X148744620Y-114559673D01*
X148744619Y-114559672D01*
X148673576Y-114522510D01*
X148673571Y-114522508D01*
X148606542Y-114502826D01*
X148606533Y-114502824D01*
X148560322Y-114496180D01*
X148548638Y-114494500D01*
X148548637Y-114494500D01*
X148449500Y-114494500D01*
X148391309Y-114475593D01*
X148355345Y-114426093D01*
X148350500Y-114395500D01*
X148350500Y-107831385D01*
X148350499Y-107831381D01*
X148313973Y-107647750D01*
X148294402Y-107600500D01*
X148258669Y-107514234D01*
X148242323Y-107474770D01*
X148242320Y-107474766D01*
X148242319Y-107474763D01*
X148179859Y-107381287D01*
X148138302Y-107319092D01*
X146659496Y-105840286D01*
X146631719Y-105785769D01*
X146630500Y-105770282D01*
X146630500Y-105301380D01*
X146630499Y-105301343D01*
X146629449Y-105281765D01*
X146629322Y-105279393D01*
X146626488Y-105253035D01*
X146602529Y-105176518D01*
X146569044Y-105115195D01*
X146533991Y-105068371D01*
X146406629Y-104941009D01*
X146406623Y-104941003D01*
X146390277Y-104926320D01*
X146390270Y-104926314D01*
X146390262Y-104926307D01*
X146369620Y-104909673D01*
X146369619Y-104909672D01*
X146298576Y-104872510D01*
X146298571Y-104872508D01*
X146231542Y-104852826D01*
X146231533Y-104852824D01*
X146185322Y-104846180D01*
X146173638Y-104844500D01*
X146173637Y-104844500D01*
X145724500Y-104844500D01*
X145666309Y-104825593D01*
X145630345Y-104776093D01*
X145625500Y-104745500D01*
X145625500Y-102499997D01*
X148419353Y-102499997D01*
X148419353Y-102500002D01*
X148439834Y-102642456D01*
X148499623Y-102773373D01*
X148598509Y-102887494D01*
X148596471Y-102889259D01*
X148621925Y-102931458D01*
X148624500Y-102953893D01*
X148624500Y-104664564D01*
X148644977Y-104740985D01*
X148644979Y-104740989D01*
X148681390Y-104804056D01*
X148684539Y-104809510D01*
X149669453Y-105794424D01*
X149697230Y-105848941D01*
X149697441Y-105878514D01*
X149694354Y-105899997D01*
X149694353Y-105900002D01*
X149714834Y-106042456D01*
X149728737Y-106072898D01*
X149774623Y-106173373D01*
X149852521Y-106263273D01*
X149868873Y-106282144D01*
X149987317Y-106358263D01*
X149989947Y-106359953D01*
X150096403Y-106391211D01*
X150128035Y-106400499D01*
X150128036Y-106400499D01*
X150128039Y-106400500D01*
X150128041Y-106400500D01*
X150271959Y-106400500D01*
X150271961Y-106400500D01*
X150410053Y-106359953D01*
X150531128Y-106282143D01*
X150625377Y-106173373D01*
X150685165Y-106042457D01*
X150705647Y-105900000D01*
X150690655Y-105795725D01*
X176099500Y-105795725D01*
X176099500Y-107204274D01*
X176102353Y-107234694D01*
X176102355Y-107234703D01*
X176147207Y-107362883D01*
X176227845Y-107472144D01*
X176227847Y-107472146D01*
X176227850Y-107472150D01*
X176227853Y-107472152D01*
X176227855Y-107472154D01*
X176337116Y-107552792D01*
X176337117Y-107552792D01*
X176337118Y-107552793D01*
X176465301Y-107597646D01*
X176495725Y-107600499D01*
X176495727Y-107600500D01*
X176495734Y-107600500D01*
X179704273Y-107600500D01*
X179704273Y-107600499D01*
X179734699Y-107597646D01*
X179862882Y-107552793D01*
X179972150Y-107472150D01*
X180052793Y-107362882D01*
X180097646Y-107234699D01*
X180100499Y-107204273D01*
X180100500Y-107204273D01*
X180100500Y-105795727D01*
X180100499Y-105795725D01*
X180100377Y-105794424D01*
X180097646Y-105765301D01*
X180052793Y-105637118D01*
X180047037Y-105629319D01*
X179972154Y-105527855D01*
X179972152Y-105527853D01*
X179972150Y-105527850D01*
X179972146Y-105527847D01*
X179972144Y-105527845D01*
X179862883Y-105447207D01*
X179734703Y-105402355D01*
X179734694Y-105402353D01*
X179704274Y-105399500D01*
X179704266Y-105399500D01*
X176495734Y-105399500D01*
X176495725Y-105399500D01*
X176465305Y-105402353D01*
X176465296Y-105402355D01*
X176337116Y-105447207D01*
X176227855Y-105527845D01*
X176227845Y-105527855D01*
X176147207Y-105637116D01*
X176102355Y-105765296D01*
X176102353Y-105765305D01*
X176099500Y-105795725D01*
X150690655Y-105795725D01*
X150685165Y-105757543D01*
X150625377Y-105626627D01*
X150531128Y-105517857D01*
X150531127Y-105517856D01*
X150531126Y-105517855D01*
X150410057Y-105440049D01*
X150410054Y-105440047D01*
X150410053Y-105440047D01*
X150410050Y-105440046D01*
X150271964Y-105399500D01*
X150271961Y-105399500D01*
X150165479Y-105399500D01*
X150107288Y-105380593D01*
X150095475Y-105370504D01*
X149254496Y-104529525D01*
X149226719Y-104475008D01*
X149225500Y-104459521D01*
X149225500Y-102953893D01*
X149244407Y-102895702D01*
X149251741Y-102887711D01*
X149251491Y-102887494D01*
X149256128Y-102882143D01*
X149350377Y-102773373D01*
X149410165Y-102642457D01*
X149430647Y-102500000D01*
X149410165Y-102357543D01*
X149350377Y-102226627D01*
X149256128Y-102117857D01*
X149256127Y-102117856D01*
X149256126Y-102117855D01*
X149135057Y-102040049D01*
X149135054Y-102040047D01*
X149135053Y-102040047D01*
X149108121Y-102032139D01*
X148996964Y-101999500D01*
X148996961Y-101999500D01*
X148853039Y-101999500D01*
X148853035Y-101999500D01*
X148714949Y-102040046D01*
X148714942Y-102040049D01*
X148593873Y-102117855D01*
X148499622Y-102226628D01*
X148439834Y-102357543D01*
X148419353Y-102499997D01*
X145625500Y-102499997D01*
X145625500Y-95831128D01*
X145644407Y-95772937D01*
X145654496Y-95761124D01*
X145736124Y-95679496D01*
X145790641Y-95651719D01*
X145806128Y-95650500D01*
X158964864Y-95650500D01*
X158964880Y-95650501D01*
X158970943Y-95650501D01*
X159129055Y-95650501D01*
X159129057Y-95650501D01*
X159281785Y-95609577D01*
X159342477Y-95574536D01*
X159418716Y-95530520D01*
X159530520Y-95418716D01*
X159530521Y-95418713D01*
X160123509Y-94825725D01*
X176099500Y-94825725D01*
X176099500Y-96234274D01*
X176102353Y-96264694D01*
X176102355Y-96264703D01*
X176147207Y-96392883D01*
X176227845Y-96502144D01*
X176227847Y-96502146D01*
X176227850Y-96502150D01*
X176227853Y-96502152D01*
X176227855Y-96502154D01*
X176337116Y-96582792D01*
X176337117Y-96582792D01*
X176337118Y-96582793D01*
X176465301Y-96627646D01*
X176495725Y-96630499D01*
X176495727Y-96630500D01*
X176495734Y-96630500D01*
X179704273Y-96630500D01*
X179704273Y-96630499D01*
X179734699Y-96627646D01*
X179862882Y-96582793D01*
X179972150Y-96502150D01*
X180052793Y-96392882D01*
X180097646Y-96264699D01*
X180100499Y-96234273D01*
X180100500Y-96234273D01*
X180100500Y-94825727D01*
X180100499Y-94825725D01*
X180097646Y-94795305D01*
X180097646Y-94795301D01*
X180052793Y-94667118D01*
X180044216Y-94655497D01*
X179972154Y-94557855D01*
X179972152Y-94557853D01*
X179972150Y-94557850D01*
X179972146Y-94557847D01*
X179972144Y-94557845D01*
X179862883Y-94477207D01*
X179734703Y-94432355D01*
X179734694Y-94432353D01*
X179704274Y-94429500D01*
X179704266Y-94429500D01*
X176495734Y-94429500D01*
X176495725Y-94429500D01*
X176465305Y-94432353D01*
X176465296Y-94432355D01*
X176337116Y-94477207D01*
X176227855Y-94557845D01*
X176227845Y-94557855D01*
X176147207Y-94667116D01*
X176102355Y-94795296D01*
X176102353Y-94795305D01*
X176099500Y-94825725D01*
X160123509Y-94825725D01*
X161268713Y-93680521D01*
X161268716Y-93680520D01*
X161380520Y-93568716D01*
X161409967Y-93517712D01*
X161443829Y-93459062D01*
X161443843Y-93459034D01*
X161443857Y-93459012D01*
X161459577Y-93431785D01*
X161500500Y-93279057D01*
X161500500Y-93120943D01*
X161500500Y-92631128D01*
X161519407Y-92572937D01*
X161529496Y-92561124D01*
X161608991Y-92481629D01*
X161623693Y-92465262D01*
X161640327Y-92444620D01*
X161677490Y-92373575D01*
X161697175Y-92306536D01*
X161705500Y-92248638D01*
X161705500Y-90551362D01*
X161704322Y-90529393D01*
X161701488Y-90503035D01*
X161677529Y-90426518D01*
X161644044Y-90365195D01*
X161608991Y-90318371D01*
X161481629Y-90191009D01*
X161481623Y-90191003D01*
X161465277Y-90176320D01*
X161465270Y-90176314D01*
X161465262Y-90176307D01*
X161444620Y-90159673D01*
X161444619Y-90159672D01*
X161373576Y-90122510D01*
X161373571Y-90122508D01*
X161306542Y-90102826D01*
X161306533Y-90102824D01*
X161260322Y-90096180D01*
X161248638Y-90094500D01*
X160551362Y-90094500D01*
X160551343Y-90094500D01*
X160529405Y-90095677D01*
X160529398Y-90095677D01*
X160529393Y-90095678D01*
X160520894Y-90096591D01*
X160503038Y-90098511D01*
X160503033Y-90098512D01*
X160426520Y-90122469D01*
X160365193Y-90155957D01*
X160318369Y-90191010D01*
X160191003Y-90318376D01*
X160176320Y-90334722D01*
X160176301Y-90334745D01*
X160159672Y-90355380D01*
X160122510Y-90426423D01*
X160122508Y-90426428D01*
X160102826Y-90493457D01*
X160102824Y-90493466D01*
X160094500Y-90551362D01*
X160094500Y-92248656D01*
X160095677Y-92270594D01*
X160095678Y-92270603D01*
X160098511Y-92296961D01*
X160098512Y-92296966D01*
X160122469Y-92373479D01*
X160122522Y-92373576D01*
X160155956Y-92434805D01*
X160178757Y-92465262D01*
X160191010Y-92481630D01*
X160270504Y-92561124D01*
X160298281Y-92615641D01*
X160299500Y-92631128D01*
X160299500Y-92910257D01*
X160280593Y-92968448D01*
X160270504Y-92980261D01*
X158830261Y-94420504D01*
X158775744Y-94448281D01*
X158760257Y-94449500D01*
X145806128Y-94449500D01*
X145747937Y-94430593D01*
X145736124Y-94420504D01*
X145706623Y-94391003D01*
X145690277Y-94376320D01*
X145690270Y-94376314D01*
X145690262Y-94376307D01*
X145669620Y-94359673D01*
X145669619Y-94359672D01*
X145598576Y-94322510D01*
X145598571Y-94322508D01*
X145531542Y-94302826D01*
X145531533Y-94302824D01*
X145485322Y-94296180D01*
X145473638Y-94294500D01*
X144376362Y-94294500D01*
X144376343Y-94294500D01*
X144354405Y-94295677D01*
X144354398Y-94295677D01*
X144354393Y-94295678D01*
X144345894Y-94296591D01*
X144328038Y-94298511D01*
X144328033Y-94298512D01*
X144251517Y-94322470D01*
X144233075Y-94332541D01*
X144172941Y-94343834D01*
X144117654Y-94317625D01*
X144115626Y-94315655D01*
X143804496Y-94004525D01*
X143776719Y-93950008D01*
X143775500Y-93934521D01*
X143775500Y-82699997D01*
X151194353Y-82699997D01*
X151194353Y-82700002D01*
X151214834Y-82842456D01*
X151228954Y-82873373D01*
X151274623Y-82973373D01*
X151367125Y-83080127D01*
X151368873Y-83082144D01*
X151489304Y-83159540D01*
X151489947Y-83159953D01*
X151596403Y-83191211D01*
X151628035Y-83200499D01*
X151628036Y-83200499D01*
X151628039Y-83200500D01*
X151628041Y-83200500D01*
X151771959Y-83200500D01*
X151771961Y-83200500D01*
X151910053Y-83159953D01*
X152031128Y-83082143D01*
X152072264Y-83034668D01*
X152124660Y-83003073D01*
X152147083Y-83000500D01*
X154734521Y-83000500D01*
X154792712Y-83019407D01*
X154804525Y-83029496D01*
X155870504Y-84095475D01*
X155898281Y-84149992D01*
X155899500Y-84165479D01*
X155899500Y-86146105D01*
X155880593Y-86204296D01*
X155873258Y-86212289D01*
X155873509Y-86212506D01*
X155868872Y-86217856D01*
X155868872Y-86217857D01*
X155800915Y-86296283D01*
X155774622Y-86326628D01*
X155714834Y-86457543D01*
X155694353Y-86599997D01*
X155694353Y-86600002D01*
X155714834Y-86742456D01*
X155769485Y-86862123D01*
X155774623Y-86873373D01*
X155806739Y-86910437D01*
X155868873Y-86982144D01*
X155989942Y-87059950D01*
X155989947Y-87059953D01*
X156096403Y-87091211D01*
X156128035Y-87100499D01*
X156128036Y-87100499D01*
X156128039Y-87100500D01*
X156128041Y-87100500D01*
X156271959Y-87100500D01*
X156271961Y-87100500D01*
X156410053Y-87059953D01*
X156531128Y-86982143D01*
X156625377Y-86873373D01*
X156685165Y-86742457D01*
X156697345Y-86657740D01*
X156705647Y-86600002D01*
X156705647Y-86599997D01*
X156685165Y-86457543D01*
X156673252Y-86431458D01*
X156625377Y-86326627D01*
X156531128Y-86217857D01*
X156531127Y-86217856D01*
X156526491Y-86212506D01*
X156528524Y-86210743D01*
X156503067Y-86168505D01*
X156500500Y-86146105D01*
X156500500Y-84013385D01*
X176099500Y-84013385D01*
X176099500Y-84186614D01*
X176126597Y-84357702D01*
X176126598Y-84357706D01*
X176180123Y-84522438D01*
X176180125Y-84522441D01*
X176180126Y-84522444D01*
X176180127Y-84522445D01*
X176258768Y-84676788D01*
X176360586Y-84816928D01*
X176483072Y-84939414D01*
X176623212Y-85041232D01*
X176777555Y-85119873D01*
X176777557Y-85119873D01*
X176777558Y-85119874D01*
X176777561Y-85119876D01*
X176942293Y-85173401D01*
X176942297Y-85173402D01*
X177113386Y-85200500D01*
X177113389Y-85200500D01*
X179086614Y-85200500D01*
X179257702Y-85173402D01*
X179257706Y-85173401D01*
X179422438Y-85119876D01*
X179422440Y-85119874D01*
X179422445Y-85119873D01*
X179576788Y-85041232D01*
X179716928Y-84939414D01*
X179839414Y-84816928D01*
X179941232Y-84676788D01*
X180019873Y-84522445D01*
X180019874Y-84522440D01*
X180019876Y-84522438D01*
X180073401Y-84357706D01*
X180073402Y-84357702D01*
X180100500Y-84186614D01*
X180100500Y-84013385D01*
X180073402Y-83842297D01*
X180073401Y-83842293D01*
X180019876Y-83677561D01*
X180019874Y-83677558D01*
X180019873Y-83677557D01*
X180019873Y-83677555D01*
X179941232Y-83523212D01*
X179839414Y-83383072D01*
X179716928Y-83260586D01*
X179576788Y-83158768D01*
X179576787Y-83158767D01*
X179576785Y-83158766D01*
X179422441Y-83080125D01*
X179422438Y-83080123D01*
X179257706Y-83026598D01*
X179257702Y-83026597D01*
X179086614Y-82999500D01*
X179086611Y-82999500D01*
X177113389Y-82999500D01*
X177113386Y-82999500D01*
X176942297Y-83026597D01*
X176942293Y-83026598D01*
X176777561Y-83080123D01*
X176777558Y-83080125D01*
X176623214Y-83158766D01*
X176483073Y-83260585D01*
X176360585Y-83383073D01*
X176258766Y-83523214D01*
X176180125Y-83677558D01*
X176180123Y-83677561D01*
X176126598Y-83842293D01*
X176126597Y-83842297D01*
X176099500Y-84013385D01*
X156500500Y-84013385D01*
X156500500Y-83960439D01*
X156500499Y-83960435D01*
X156495147Y-83940460D01*
X156480022Y-83884012D01*
X156469322Y-83865479D01*
X156440463Y-83815493D01*
X156440461Y-83815491D01*
X156440460Y-83815489D01*
X155084511Y-82459540D01*
X155081054Y-82457544D01*
X155081052Y-82457542D01*
X155081052Y-82457543D01*
X155015989Y-82419979D01*
X155015988Y-82419978D01*
X155015987Y-82419978D01*
X154939564Y-82399500D01*
X154939562Y-82399500D01*
X152147083Y-82399500D01*
X152088892Y-82380593D01*
X152072264Y-82365331D01*
X152031128Y-82317857D01*
X151998182Y-82296684D01*
X151910057Y-82240049D01*
X151910054Y-82240047D01*
X151910053Y-82240047D01*
X151910050Y-82240046D01*
X151771964Y-82199500D01*
X151771961Y-82199500D01*
X151628039Y-82199500D01*
X151628035Y-82199500D01*
X151489949Y-82240046D01*
X151489942Y-82240049D01*
X151368873Y-82317855D01*
X151274622Y-82426628D01*
X151214834Y-82557543D01*
X151194353Y-82699997D01*
X143775500Y-82699997D01*
X143775500Y-79030000D01*
X148474430Y-79030000D01*
X148487707Y-79156325D01*
X148494657Y-79222442D01*
X148554448Y-79406458D01*
X148554454Y-79406472D01*
X148608813Y-79500623D01*
X148651198Y-79574036D01*
X148669605Y-79594479D01*
X148770271Y-79706281D01*
X148780673Y-79717833D01*
X148937215Y-79831567D01*
X148937219Y-79831569D01*
X148937221Y-79831570D01*
X148983838Y-79852325D01*
X149113983Y-79910269D01*
X149303252Y-79950500D01*
X149303254Y-79950500D01*
X149496746Y-79950500D01*
X149496748Y-79950500D01*
X149686017Y-79910269D01*
X149862785Y-79831567D01*
X150019327Y-79717833D01*
X150148802Y-79574036D01*
X150239777Y-79416463D01*
X150245545Y-79406472D01*
X150245545Y-79406470D01*
X150245550Y-79406463D01*
X150305344Y-79222437D01*
X150324519Y-79040000D01*
X163174430Y-79040000D01*
X163193605Y-79222442D01*
X163194657Y-79232442D01*
X163254448Y-79416458D01*
X163254454Y-79416472D01*
X163331315Y-79549597D01*
X163351198Y-79584036D01*
X163360602Y-79594480D01*
X163461267Y-79706281D01*
X163480673Y-79727833D01*
X163637215Y-79841567D01*
X163637219Y-79841569D01*
X163637221Y-79841570D01*
X163661537Y-79852396D01*
X163813983Y-79920269D01*
X164003252Y-79960500D01*
X164003254Y-79960500D01*
X164196746Y-79960500D01*
X164196748Y-79960500D01*
X164386017Y-79920269D01*
X164562785Y-79841567D01*
X164719327Y-79727833D01*
X164848802Y-79584036D01*
X164945550Y-79416463D01*
X165005344Y-79232437D01*
X165025570Y-79040000D01*
X165018212Y-78969995D01*
X174479901Y-78969995D01*
X174479901Y-78970004D01*
X174498251Y-79156325D01*
X174498252Y-79156328D01*
X174552605Y-79335504D01*
X174552606Y-79335506D01*
X174640859Y-79500617D01*
X174640862Y-79500622D01*
X174640864Y-79500625D01*
X174655006Y-79517857D01*
X174759638Y-79645352D01*
X174759647Y-79645361D01*
X174798698Y-79677409D01*
X174904375Y-79764136D01*
X174904380Y-79764138D01*
X174904382Y-79764140D01*
X175052315Y-79843211D01*
X175069499Y-79852396D01*
X175248669Y-79906747D01*
X175248671Y-79906747D01*
X175248674Y-79906748D01*
X175434996Y-79925099D01*
X175435000Y-79925099D01*
X175435004Y-79925099D01*
X175621325Y-79906748D01*
X175621326Y-79906747D01*
X175621331Y-79906747D01*
X175800501Y-79852396D01*
X175965625Y-79764136D01*
X176110357Y-79645357D01*
X176229136Y-79500625D01*
X176317396Y-79335501D01*
X176371747Y-79156331D01*
X176379347Y-79079175D01*
X176390099Y-78970004D01*
X176390099Y-78969995D01*
X177019901Y-78969995D01*
X177019901Y-78970004D01*
X177038251Y-79156325D01*
X177038252Y-79156328D01*
X177092605Y-79335504D01*
X177092606Y-79335506D01*
X177180859Y-79500617D01*
X177180862Y-79500622D01*
X177180864Y-79500625D01*
X177195006Y-79517857D01*
X177299638Y-79645352D01*
X177299647Y-79645361D01*
X177338698Y-79677409D01*
X177444375Y-79764136D01*
X177444380Y-79764138D01*
X177444382Y-79764140D01*
X177592315Y-79843211D01*
X177609499Y-79852396D01*
X177788669Y-79906747D01*
X177788671Y-79906747D01*
X177788674Y-79906748D01*
X177974996Y-79925099D01*
X177975000Y-79925099D01*
X177975004Y-79925099D01*
X178161325Y-79906748D01*
X178161326Y-79906747D01*
X178161331Y-79906747D01*
X178340501Y-79852396D01*
X178505625Y-79764136D01*
X178650357Y-79645357D01*
X178769136Y-79500625D01*
X178857396Y-79335501D01*
X178911747Y-79156331D01*
X178919347Y-79079175D01*
X178930099Y-78970004D01*
X178930099Y-78969995D01*
X178911748Y-78783674D01*
X178911747Y-78783671D01*
X178911747Y-78783669D01*
X178857396Y-78604499D01*
X178799385Y-78495967D01*
X178769140Y-78439382D01*
X178769138Y-78439380D01*
X178769136Y-78439375D01*
X178689359Y-78342167D01*
X178650361Y-78294647D01*
X178650352Y-78294638D01*
X178516161Y-78184511D01*
X178505625Y-78175864D01*
X178505622Y-78175862D01*
X178505617Y-78175859D01*
X178340506Y-78087606D01*
X178340504Y-78087605D01*
X178161328Y-78033252D01*
X178161325Y-78033251D01*
X177975004Y-78014901D01*
X177974996Y-78014901D01*
X177788674Y-78033251D01*
X177788671Y-78033252D01*
X177609495Y-78087605D01*
X177609493Y-78087606D01*
X177444382Y-78175859D01*
X177444376Y-78175863D01*
X177299647Y-78294638D01*
X177299638Y-78294647D01*
X177180863Y-78439376D01*
X177180859Y-78439382D01*
X177092606Y-78604493D01*
X177092605Y-78604495D01*
X177038252Y-78783671D01*
X177038251Y-78783674D01*
X177019901Y-78969995D01*
X176390099Y-78969995D01*
X176371748Y-78783674D01*
X176371747Y-78783671D01*
X176371747Y-78783669D01*
X176317396Y-78604499D01*
X176259385Y-78495967D01*
X176229140Y-78439382D01*
X176229138Y-78439380D01*
X176229136Y-78439375D01*
X176149359Y-78342167D01*
X176110361Y-78294647D01*
X176110352Y-78294638D01*
X175976161Y-78184511D01*
X175965625Y-78175864D01*
X175965622Y-78175862D01*
X175965617Y-78175859D01*
X175800506Y-78087606D01*
X175800504Y-78087605D01*
X175621328Y-78033252D01*
X175621325Y-78033251D01*
X175435004Y-78014901D01*
X175434996Y-78014901D01*
X175248674Y-78033251D01*
X175248671Y-78033252D01*
X175069495Y-78087605D01*
X175069493Y-78087606D01*
X174904382Y-78175859D01*
X174904376Y-78175863D01*
X174759647Y-78294638D01*
X174759638Y-78294647D01*
X174640863Y-78439376D01*
X174640859Y-78439382D01*
X174552606Y-78604493D01*
X174552605Y-78604495D01*
X174498252Y-78783671D01*
X174498251Y-78783674D01*
X174479901Y-78969995D01*
X165018212Y-78969995D01*
X165005344Y-78847563D01*
X164945550Y-78663537D01*
X164945547Y-78663532D01*
X164945545Y-78663527D01*
X164895842Y-78577441D01*
X164848802Y-78495964D01*
X164719327Y-78352167D01*
X164562785Y-78238433D01*
X164562781Y-78238431D01*
X164562778Y-78238429D01*
X164386019Y-78159732D01*
X164386017Y-78159731D01*
X164386014Y-78159730D01*
X164386013Y-78159730D01*
X164336707Y-78149249D01*
X164196748Y-78119500D01*
X164003252Y-78119500D01*
X163901072Y-78141219D01*
X163813986Y-78159730D01*
X163813980Y-78159732D01*
X163637221Y-78238429D01*
X163637218Y-78238431D01*
X163480671Y-78352168D01*
X163351196Y-78495966D01*
X163351196Y-78495967D01*
X163254454Y-78663527D01*
X163254448Y-78663541D01*
X163194657Y-78847557D01*
X163194656Y-78847561D01*
X163194656Y-78847563D01*
X163174430Y-79040000D01*
X150324519Y-79040000D01*
X150325570Y-79030000D01*
X150305344Y-78837563D01*
X150245550Y-78653537D01*
X150245547Y-78653532D01*
X150245545Y-78653527D01*
X150154577Y-78495967D01*
X150148802Y-78485964D01*
X150019327Y-78342167D01*
X149862785Y-78228433D01*
X149862781Y-78228431D01*
X149862778Y-78228429D01*
X149686019Y-78149732D01*
X149686017Y-78149731D01*
X149686014Y-78149730D01*
X149686013Y-78149730D01*
X149636707Y-78139249D01*
X149496748Y-78109500D01*
X149303252Y-78109500D01*
X149201072Y-78131219D01*
X149113986Y-78149730D01*
X149113980Y-78149732D01*
X148937221Y-78228429D01*
X148937218Y-78228431D01*
X148780671Y-78342168D01*
X148651196Y-78485966D01*
X148651196Y-78485967D01*
X148554454Y-78653527D01*
X148554448Y-78653541D01*
X148494657Y-78837557D01*
X148494656Y-78837561D01*
X148494656Y-78837563D01*
X148474430Y-79030000D01*
X143775500Y-79030000D01*
X143775500Y-76490000D01*
X148474430Y-76490000D01*
X148492858Y-76665331D01*
X148494657Y-76682442D01*
X148554448Y-76866458D01*
X148554454Y-76866472D01*
X148608813Y-76960623D01*
X148651198Y-77034036D01*
X148674318Y-77059713D01*
X148765923Y-77161452D01*
X148780673Y-77177833D01*
X148937215Y-77291567D01*
X148937219Y-77291569D01*
X148937221Y-77291570D01*
X148968563Y-77305524D01*
X149113983Y-77370269D01*
X149303252Y-77410500D01*
X149303254Y-77410500D01*
X149496746Y-77410500D01*
X149496748Y-77410500D01*
X149686017Y-77370269D01*
X149862785Y-77291567D01*
X150019327Y-77177833D01*
X150148802Y-77034036D01*
X150239777Y-76876463D01*
X150245545Y-76866472D01*
X150245545Y-76866470D01*
X150245550Y-76866463D01*
X150305344Y-76682437D01*
X150324519Y-76500000D01*
X163174430Y-76500000D01*
X163193605Y-76682442D01*
X163194657Y-76692442D01*
X163254448Y-76876458D01*
X163254454Y-76876472D01*
X163313623Y-76978954D01*
X163351198Y-77044036D01*
X163439816Y-77142457D01*
X163456919Y-77161452D01*
X163480673Y-77187833D01*
X163637215Y-77301567D01*
X163637219Y-77301569D01*
X163637221Y-77301570D01*
X163661537Y-77312396D01*
X163813983Y-77380269D01*
X164003252Y-77420500D01*
X164003254Y-77420500D01*
X164196746Y-77420500D01*
X164196748Y-77420500D01*
X164386017Y-77380269D01*
X164562785Y-77301567D01*
X164719327Y-77187833D01*
X164848802Y-77044036D01*
X164945550Y-76876463D01*
X165005344Y-76692437D01*
X165025570Y-76500000D01*
X165018212Y-76429995D01*
X174479901Y-76429995D01*
X174479901Y-76430004D01*
X174498251Y-76616325D01*
X174498252Y-76616328D01*
X174498253Y-76616331D01*
X174529694Y-76719979D01*
X174552605Y-76795504D01*
X174552606Y-76795506D01*
X174640859Y-76960617D01*
X174640862Y-76960622D01*
X174640864Y-76960625D01*
X174673180Y-77000002D01*
X174759638Y-77105352D01*
X174759647Y-77105361D01*
X174804848Y-77142456D01*
X174904375Y-77224136D01*
X174904380Y-77224138D01*
X174904382Y-77224140D01*
X175056642Y-77305524D01*
X175069499Y-77312396D01*
X175248669Y-77366747D01*
X175248671Y-77366747D01*
X175248674Y-77366748D01*
X175434996Y-77385099D01*
X175435000Y-77385099D01*
X175435004Y-77385099D01*
X175621325Y-77366748D01*
X175621326Y-77366747D01*
X175621331Y-77366747D01*
X175800501Y-77312396D01*
X175965625Y-77224136D01*
X176110357Y-77105357D01*
X176229136Y-76960625D01*
X176317396Y-76795501D01*
X176371747Y-76616331D01*
X176375818Y-76575003D01*
X176390099Y-76430004D01*
X176390099Y-76429995D01*
X176371748Y-76243674D01*
X176371747Y-76243671D01*
X176371747Y-76243669D01*
X176317396Y-76064499D01*
X176286791Y-76007241D01*
X176229140Y-75899382D01*
X176229138Y-75899380D01*
X176229136Y-75899375D01*
X176114715Y-75759953D01*
X176110361Y-75754647D01*
X176110352Y-75754638D01*
X175978916Y-75646772D01*
X175965625Y-75635864D01*
X175965622Y-75635862D01*
X175965617Y-75635859D01*
X175800506Y-75547606D01*
X175800504Y-75547605D01*
X175774438Y-75539698D01*
X175621331Y-75493253D01*
X175621328Y-75493252D01*
X175621325Y-75493251D01*
X175435004Y-75474901D01*
X175434996Y-75474901D01*
X175248674Y-75493251D01*
X175248671Y-75493252D01*
X175069495Y-75547605D01*
X175069493Y-75547606D01*
X174904382Y-75635859D01*
X174904376Y-75635863D01*
X174759647Y-75754638D01*
X174759638Y-75754647D01*
X174640863Y-75899376D01*
X174640859Y-75899382D01*
X174552606Y-76064493D01*
X174552605Y-76064495D01*
X174498252Y-76243671D01*
X174498251Y-76243674D01*
X174479901Y-76429995D01*
X165018212Y-76429995D01*
X165005344Y-76307563D01*
X164945550Y-76123537D01*
X164945547Y-76123532D01*
X164945545Y-76123527D01*
X164895842Y-76037441D01*
X164848802Y-75955964D01*
X164719327Y-75812167D01*
X164562785Y-75698433D01*
X164562781Y-75698431D01*
X164562778Y-75698429D01*
X164386019Y-75619732D01*
X164386017Y-75619731D01*
X164386014Y-75619730D01*
X164386013Y-75619730D01*
X164336707Y-75609249D01*
X164196748Y-75579500D01*
X164003252Y-75579500D01*
X163907900Y-75599768D01*
X163813986Y-75619730D01*
X163813980Y-75619732D01*
X163637221Y-75698429D01*
X163637218Y-75698431D01*
X163637215Y-75698432D01*
X163637215Y-75698433D01*
X163627828Y-75705253D01*
X163480671Y-75812168D01*
X163351196Y-75955966D01*
X163351196Y-75955967D01*
X163254454Y-76123527D01*
X163254448Y-76123541D01*
X163194657Y-76307557D01*
X163194656Y-76307561D01*
X163194656Y-76307563D01*
X163174430Y-76500000D01*
X150324519Y-76500000D01*
X150325570Y-76490000D01*
X150305344Y-76297563D01*
X150245550Y-76113537D01*
X150245547Y-76113532D01*
X150245545Y-76113527D01*
X150154577Y-75955967D01*
X150148802Y-75945964D01*
X150019327Y-75802167D01*
X149862785Y-75688433D01*
X149862781Y-75688431D01*
X149862778Y-75688429D01*
X149686019Y-75609732D01*
X149686017Y-75609731D01*
X149686014Y-75609730D01*
X149686013Y-75609730D01*
X149636707Y-75599249D01*
X149496748Y-75569500D01*
X149303252Y-75569500D01*
X149201072Y-75591219D01*
X149113986Y-75609730D01*
X149113980Y-75609732D01*
X148937221Y-75688429D01*
X148937218Y-75688431D01*
X148780671Y-75802168D01*
X148651196Y-75945966D01*
X148651196Y-75945967D01*
X148554454Y-76113527D01*
X148554448Y-76113541D01*
X148494657Y-76297557D01*
X148494656Y-76297561D01*
X148494656Y-76297563D01*
X148474430Y-76490000D01*
X143775500Y-76490000D01*
X143775500Y-74290479D01*
X143794407Y-74232288D01*
X143804496Y-74220475D01*
X144074971Y-73950000D01*
X148474430Y-73950000D01*
X148493471Y-74131165D01*
X148494657Y-74142442D01*
X148554448Y-74326458D01*
X148554454Y-74326472D01*
X148627990Y-74453839D01*
X148651198Y-74494036D01*
X148745166Y-74598398D01*
X148762325Y-74617456D01*
X148780673Y-74637833D01*
X148937215Y-74751567D01*
X148937219Y-74751569D01*
X148937221Y-74751570D01*
X148993707Y-74776719D01*
X149113983Y-74830269D01*
X149303252Y-74870500D01*
X149303254Y-74870500D01*
X149496746Y-74870500D01*
X149496748Y-74870500D01*
X149686017Y-74830269D01*
X149862785Y-74751567D01*
X150019327Y-74637833D01*
X150148802Y-74494036D01*
X150239777Y-74336463D01*
X150245545Y-74326472D01*
X150245545Y-74326470D01*
X150245550Y-74326463D01*
X150305344Y-74142437D01*
X150324519Y-73960000D01*
X163174430Y-73960000D01*
X163193605Y-74142442D01*
X163194657Y-74152442D01*
X163254448Y-74336458D01*
X163254454Y-74336472D01*
X163305476Y-74424843D01*
X163351198Y-74504036D01*
X163480673Y-74647833D01*
X163637215Y-74761567D01*
X163637219Y-74761569D01*
X163637221Y-74761570D01*
X163668509Y-74775500D01*
X163813983Y-74840269D01*
X164003252Y-74880500D01*
X164003254Y-74880500D01*
X164196746Y-74880500D01*
X164196748Y-74880500D01*
X164386017Y-74840269D01*
X164562785Y-74761567D01*
X164719327Y-74647833D01*
X164848802Y-74504036D01*
X164945550Y-74336463D01*
X165005344Y-74152437D01*
X165025570Y-73960000D01*
X165005344Y-73767563D01*
X164945550Y-73583537D01*
X164945547Y-73583532D01*
X164945545Y-73583527D01*
X164859277Y-73434108D01*
X164848802Y-73415964D01*
X164719327Y-73272167D01*
X164562785Y-73158433D01*
X164562781Y-73158431D01*
X164562778Y-73158429D01*
X164386019Y-73079732D01*
X164386017Y-73079731D01*
X164386014Y-73079730D01*
X164386013Y-73079730D01*
X164293497Y-73060065D01*
X164196748Y-73039500D01*
X164003252Y-73039500D01*
X163906503Y-73060065D01*
X163813986Y-73079730D01*
X163813980Y-73079732D01*
X163637221Y-73158429D01*
X163637218Y-73158431D01*
X163480671Y-73272168D01*
X163351196Y-73415966D01*
X163351196Y-73415967D01*
X163254454Y-73583527D01*
X163254448Y-73583541D01*
X163194657Y-73767557D01*
X163194656Y-73767561D01*
X163194656Y-73767563D01*
X163174430Y-73960000D01*
X150324519Y-73960000D01*
X150325570Y-73950000D01*
X150305344Y-73757563D01*
X150245550Y-73573537D01*
X150245547Y-73573532D01*
X150245545Y-73573527D01*
X150195842Y-73487441D01*
X150148802Y-73405964D01*
X150019327Y-73262167D01*
X149862785Y-73148433D01*
X149862781Y-73148431D01*
X149862778Y-73148429D01*
X149686019Y-73069732D01*
X149686017Y-73069731D01*
X149686014Y-73069730D01*
X149686013Y-73069730D01*
X149636707Y-73059249D01*
X149496748Y-73029500D01*
X149303252Y-73029500D01*
X149201072Y-73051219D01*
X149113986Y-73069730D01*
X149113980Y-73069732D01*
X148937221Y-73148429D01*
X148937218Y-73148431D01*
X148780671Y-73262168D01*
X148651196Y-73405966D01*
X148651196Y-73405967D01*
X148554454Y-73573527D01*
X148554448Y-73573541D01*
X148494657Y-73757557D01*
X148494656Y-73757561D01*
X148494656Y-73757563D01*
X148474430Y-73950000D01*
X144074971Y-73950000D01*
X148595475Y-69429496D01*
X148649992Y-69401719D01*
X148665479Y-69400500D01*
X166934521Y-69400500D01*
X166992712Y-69419407D01*
X167004525Y-69429496D01*
X170869453Y-73294424D01*
X170897230Y-73348941D01*
X170897441Y-73378514D01*
X170894354Y-73399997D01*
X170894353Y-73400002D01*
X170914834Y-73542456D01*
X170945881Y-73610438D01*
X170974623Y-73673373D01*
X171067889Y-73781008D01*
X171068873Y-73782144D01*
X171189942Y-73859950D01*
X171189947Y-73859953D01*
X171273684Y-73884540D01*
X171328035Y-73900499D01*
X171328036Y-73900499D01*
X171328039Y-73900500D01*
X171328041Y-73900500D01*
X171471959Y-73900500D01*
X171471961Y-73900500D01*
X171610053Y-73859953D01*
X171731128Y-73782143D01*
X171825377Y-73673373D01*
X171885165Y-73542457D01*
X171896231Y-73465489D01*
X171905647Y-73400002D01*
X171905647Y-73399997D01*
X171885165Y-73257543D01*
X171839902Y-73158433D01*
X171825377Y-73126627D01*
X171771398Y-73064331D01*
X171747580Y-73007972D01*
X171761439Y-72948376D01*
X171807680Y-72908309D01*
X171846217Y-72900500D01*
X173979521Y-72900500D01*
X174037712Y-72919407D01*
X174049525Y-72929496D01*
X177072753Y-75952724D01*
X177100530Y-76007241D01*
X177094216Y-76060607D01*
X177092605Y-76064496D01*
X177038252Y-76243671D01*
X177038251Y-76243674D01*
X177019901Y-76429995D01*
X177019901Y-76430004D01*
X177038251Y-76616325D01*
X177038252Y-76616328D01*
X177038253Y-76616331D01*
X177069694Y-76719979D01*
X177092605Y-76795504D01*
X177092606Y-76795506D01*
X177180859Y-76960617D01*
X177180862Y-76960622D01*
X177180864Y-76960625D01*
X177213180Y-77000002D01*
X177299638Y-77105352D01*
X177299647Y-77105361D01*
X177344848Y-77142456D01*
X177444375Y-77224136D01*
X177444380Y-77224138D01*
X177444382Y-77224140D01*
X177596642Y-77305524D01*
X177609499Y-77312396D01*
X177788669Y-77366747D01*
X177788671Y-77366747D01*
X177788674Y-77366748D01*
X177974996Y-77385099D01*
X177975000Y-77385099D01*
X177975004Y-77385099D01*
X178161325Y-77366748D01*
X178161326Y-77366747D01*
X178161331Y-77366747D01*
X178340501Y-77312396D01*
X178505625Y-77224136D01*
X178650357Y-77105357D01*
X178769136Y-76960625D01*
X178857396Y-76795501D01*
X178911747Y-76616331D01*
X178915818Y-76575003D01*
X178930099Y-76430004D01*
X178930099Y-76429995D01*
X178911748Y-76243674D01*
X178911747Y-76243671D01*
X178911747Y-76243669D01*
X178857396Y-76064499D01*
X178826791Y-76007241D01*
X178769140Y-75899382D01*
X178769138Y-75899380D01*
X178769136Y-75899375D01*
X178654715Y-75759953D01*
X178650361Y-75754647D01*
X178650352Y-75754638D01*
X178518916Y-75646772D01*
X178505625Y-75635864D01*
X178505622Y-75635862D01*
X178505617Y-75635859D01*
X178340506Y-75547606D01*
X178340504Y-75547605D01*
X178314438Y-75539698D01*
X178161331Y-75493253D01*
X178161328Y-75493252D01*
X178161325Y-75493251D01*
X177975004Y-75474901D01*
X177974996Y-75474901D01*
X177788674Y-75493251D01*
X177788671Y-75493252D01*
X177609496Y-75547605D01*
X177605607Y-75549216D01*
X177544610Y-75554012D01*
X177497724Y-75527753D01*
X176312507Y-74342536D01*
X176284730Y-74288019D01*
X176294301Y-74227587D01*
X176337566Y-74184322D01*
X176397998Y-74174751D01*
X176434630Y-74188362D01*
X176451263Y-74198661D01*
X176707942Y-74326472D01*
X176782388Y-74363542D01*
X177127318Y-74497168D01*
X177483105Y-74598398D01*
X177483109Y-74598399D01*
X177483108Y-74598399D01*
X177846703Y-74666367D01*
X177846708Y-74666367D01*
X177846715Y-74666369D01*
X178215046Y-74700500D01*
X178334108Y-74700500D01*
X178534108Y-74700500D01*
X178600000Y-74700500D01*
X178784002Y-74700543D01*
X178784002Y-74700542D01*
X178784012Y-74700543D01*
X179150482Y-74666759D01*
X179512303Y-74599476D01*
X179866420Y-74499261D01*
X180209843Y-74366962D01*
X180539670Y-74203696D01*
X180846062Y-74015181D01*
X180897941Y-74000500D01*
X182500500Y-74000500D01*
X182558691Y-74019407D01*
X182594655Y-74068907D01*
X182599500Y-74099500D01*
X182599500Y-111600500D01*
X182580593Y-111658691D01*
X182531093Y-111694655D01*
X182500500Y-111699500D01*
X180897941Y-111699500D01*
X180846062Y-111684818D01*
X180539671Y-111496304D01*
X180381158Y-111417840D01*
X180209843Y-111333038D01*
X180209835Y-111333035D01*
X180209831Y-111333033D01*
X179866428Y-111200742D01*
X179866411Y-111200736D01*
X179512306Y-111100524D01*
X179158898Y-111034806D01*
X179150485Y-111033241D01*
X179150478Y-111033240D01*
X178871650Y-111007536D01*
X178784012Y-110999457D01*
X178784009Y-110999457D01*
X178783999Y-110999456D01*
X178600000Y-110999500D01*
X178215043Y-110999500D01*
X177846710Y-111033631D01*
X177846703Y-111033632D01*
X177483108Y-111101600D01*
X177127320Y-111202831D01*
X176782384Y-111336459D01*
X176451260Y-111501339D01*
X176136755Y-111696072D01*
X175841556Y-111918998D01*
X175568205Y-112168191D01*
X175568191Y-112168205D01*
X175318998Y-112441556D01*
X175096072Y-112736755D01*
X174901339Y-113051260D01*
X174736459Y-113382384D01*
X174602831Y-113727320D01*
X174501600Y-114083108D01*
X174433632Y-114446703D01*
X174433631Y-114446710D01*
X174399500Y-114815043D01*
X174399500Y-115384956D01*
X174433631Y-115753289D01*
X174433632Y-115753296D01*
X174501600Y-116116891D01*
X174602831Y-116472679D01*
X174602832Y-116472682D01*
X174630701Y-116544620D01*
X174736459Y-116817615D01*
X174901339Y-117148739D01*
X175096072Y-117463244D01*
X175210671Y-117614996D01*
X175318992Y-117758436D01*
X175568198Y-118031802D01*
X175722794Y-118172735D01*
X175789568Y-118233608D01*
X175841564Y-118281008D01*
X175989449Y-118392686D01*
X176136755Y-118503927D01*
X176451260Y-118698660D01*
X176779682Y-118862194D01*
X176782388Y-118863542D01*
X177127318Y-118997168D01*
X177152720Y-119004395D01*
X177155825Y-119005279D01*
X177206620Y-119039390D01*
X177227664Y-119096842D01*
X177210920Y-119155692D01*
X177162783Y-119193460D01*
X177128732Y-119199500D01*
X131044589Y-119199500D01*
X130986398Y-119180593D01*
X130950434Y-119131093D01*
X130945621Y-119097994D01*
X131037450Y-115470725D01*
X132484500Y-115470725D01*
X132484500Y-117029274D01*
X132487353Y-117059694D01*
X132487355Y-117059703D01*
X132532207Y-117187883D01*
X132612845Y-117297144D01*
X132612847Y-117297146D01*
X132612850Y-117297150D01*
X132612853Y-117297152D01*
X132612855Y-117297154D01*
X132722116Y-117377792D01*
X132722117Y-117377792D01*
X132722118Y-117377793D01*
X132850301Y-117422646D01*
X132880725Y-117425499D01*
X132880727Y-117425500D01*
X132880734Y-117425500D01*
X134189273Y-117425500D01*
X134189273Y-117425499D01*
X134219699Y-117422646D01*
X134347882Y-117377793D01*
X134457150Y-117297150D01*
X134537793Y-117187882D01*
X134582646Y-117059699D01*
X134585499Y-117029273D01*
X134585500Y-117029273D01*
X134585500Y-116724997D01*
X141394353Y-116724997D01*
X141394353Y-116725002D01*
X141414834Y-116867456D01*
X141458497Y-116963062D01*
X141474623Y-116998373D01*
X141568872Y-117107143D01*
X141568873Y-117107144D01*
X141633598Y-117148740D01*
X141689947Y-117184953D01*
X141796403Y-117216211D01*
X141828035Y-117225499D01*
X141828036Y-117225499D01*
X141828039Y-117225500D01*
X141828041Y-117225500D01*
X141971959Y-117225500D01*
X141971961Y-117225500D01*
X142110053Y-117184953D01*
X142231128Y-117107143D01*
X142325377Y-116998373D01*
X142385165Y-116867457D01*
X142394242Y-116804322D01*
X142405647Y-116725002D01*
X142405647Y-116724997D01*
X142385165Y-116582543D01*
X142335400Y-116473575D01*
X142325377Y-116451627D01*
X142231128Y-116342857D01*
X142231127Y-116342856D01*
X142226491Y-116337506D01*
X142228524Y-116335743D01*
X142203067Y-116293505D01*
X142200500Y-116271105D01*
X142200500Y-113115479D01*
X142219407Y-113057288D01*
X142229496Y-113045475D01*
X142745475Y-112529496D01*
X142799992Y-112501719D01*
X142815479Y-112500500D01*
X143977917Y-112500500D01*
X144036108Y-112519407D01*
X144052733Y-112534667D01*
X144093872Y-112582143D01*
X144150330Y-112618426D01*
X144201370Y-112651228D01*
X144214947Y-112659953D01*
X144313958Y-112689025D01*
X144353035Y-112700499D01*
X144353036Y-112700499D01*
X144353039Y-112700500D01*
X144353041Y-112700500D01*
X144496959Y-112700500D01*
X144496961Y-112700500D01*
X144635053Y-112659953D01*
X144756128Y-112582143D01*
X144850377Y-112473373D01*
X144910165Y-112342457D01*
X144922046Y-112259820D01*
X144930647Y-112200002D01*
X144930647Y-112199997D01*
X144910165Y-112057543D01*
X144850377Y-111926628D01*
X144850377Y-111926627D01*
X144756128Y-111817857D01*
X144756127Y-111817856D01*
X144756126Y-111817855D01*
X144635057Y-111740049D01*
X144635054Y-111740047D01*
X144635053Y-111740047D01*
X144635050Y-111740046D01*
X144496964Y-111699500D01*
X144496961Y-111699500D01*
X144353039Y-111699500D01*
X144353035Y-111699500D01*
X144214949Y-111740046D01*
X144214942Y-111740049D01*
X144093876Y-111817854D01*
X144093871Y-111817858D01*
X144052736Y-111865331D01*
X144000340Y-111896927D01*
X143977917Y-111899500D01*
X142610435Y-111899500D01*
X142534011Y-111919978D01*
X142534007Y-111919980D01*
X142465491Y-111959538D01*
X141715489Y-112709540D01*
X141715488Y-112709539D01*
X141659539Y-112765489D01*
X141619980Y-112834007D01*
X141619978Y-112834011D01*
X141599500Y-112910435D01*
X141599500Y-116271105D01*
X141580593Y-116329296D01*
X141573258Y-116337289D01*
X141573509Y-116337506D01*
X141474622Y-116451628D01*
X141414834Y-116582543D01*
X141394353Y-116724997D01*
X134585500Y-116724997D01*
X134585500Y-115470727D01*
X134585499Y-115470725D01*
X134582646Y-115440305D01*
X134582646Y-115440301D01*
X134537793Y-115312118D01*
X134502695Y-115264562D01*
X134457154Y-115202855D01*
X134457152Y-115202853D01*
X134457150Y-115202850D01*
X134457146Y-115202847D01*
X134457144Y-115202845D01*
X134347883Y-115122207D01*
X134219703Y-115077355D01*
X134219694Y-115077353D01*
X134189274Y-115074500D01*
X134189266Y-115074500D01*
X132880734Y-115074500D01*
X132880725Y-115074500D01*
X132850305Y-115077353D01*
X132850296Y-115077355D01*
X132722116Y-115122207D01*
X132612855Y-115202845D01*
X132612845Y-115202855D01*
X132532207Y-115312116D01*
X132487355Y-115440296D01*
X132487353Y-115440305D01*
X132484500Y-115470725D01*
X131037450Y-115470725D01*
X131100000Y-113000000D01*
X107622063Y-113000000D01*
X107563872Y-112981093D01*
X107537891Y-112953116D01*
X107403930Y-112736760D01*
X107403926Y-112736755D01*
X107181008Y-112441564D01*
X106931802Y-112168198D01*
X106702913Y-111959538D01*
X106658443Y-111918998D01*
X106658440Y-111918996D01*
X106658436Y-111918992D01*
X106421478Y-111740049D01*
X106363244Y-111696072D01*
X106048739Y-111501339D01*
X105717615Y-111336459D01*
X105469468Y-111240327D01*
X105372682Y-111202832D01*
X105372680Y-111202831D01*
X105372679Y-111202831D01*
X105016890Y-111101600D01*
X105016891Y-111101600D01*
X104653296Y-111033632D01*
X104653289Y-111033631D01*
X104284956Y-110999500D01*
X104284954Y-110999500D01*
X104165892Y-110999500D01*
X103900000Y-110999500D01*
X103715997Y-110999456D01*
X103349521Y-111033240D01*
X103349512Y-111033242D01*
X102987693Y-111100524D01*
X102633588Y-111200736D01*
X102633571Y-111200742D01*
X102290168Y-111333033D01*
X102290149Y-111333042D01*
X101960328Y-111496304D01*
X101653938Y-111684818D01*
X101602059Y-111699500D01*
X99999500Y-111699500D01*
X99941309Y-111680593D01*
X99905345Y-111631093D01*
X99900500Y-111600500D01*
X99900500Y-107514234D01*
X103924500Y-107514234D01*
X103924500Y-107665766D01*
X103959086Y-107794847D01*
X103963720Y-107812139D01*
X104039481Y-107943360D01*
X104039483Y-107943362D01*
X104039485Y-107943365D01*
X104146635Y-108050515D01*
X104146637Y-108050516D01*
X104146639Y-108050518D01*
X104277861Y-108126279D01*
X104277859Y-108126279D01*
X104277863Y-108126280D01*
X104277865Y-108126281D01*
X104424234Y-108165500D01*
X104424236Y-108165500D01*
X104575764Y-108165500D01*
X104575766Y-108165500D01*
X104722135Y-108126281D01*
X104722137Y-108126279D01*
X104722139Y-108126279D01*
X104853360Y-108050518D01*
X104853360Y-108050517D01*
X104853365Y-108050515D01*
X104960515Y-107943365D01*
X105025168Y-107831384D01*
X105036279Y-107812139D01*
X105036279Y-107812137D01*
X105036281Y-107812135D01*
X105075500Y-107665766D01*
X105075500Y-107514234D01*
X105036281Y-107367865D01*
X105036279Y-107367862D01*
X105036279Y-107367860D01*
X104960518Y-107236639D01*
X104960516Y-107236637D01*
X104960515Y-107236635D01*
X104853365Y-107129485D01*
X104853362Y-107129483D01*
X104853360Y-107129481D01*
X104722138Y-107053720D01*
X104722140Y-107053720D01*
X104665347Y-107038503D01*
X104575766Y-107014500D01*
X104424234Y-107014500D01*
X104334652Y-107038503D01*
X104277860Y-107053720D01*
X104146639Y-107129481D01*
X104039481Y-107236639D01*
X103963720Y-107367860D01*
X103956580Y-107394507D01*
X103924500Y-107514234D01*
X99900500Y-107514234D01*
X99900500Y-101734234D01*
X103924500Y-101734234D01*
X103924500Y-101885766D01*
X103947064Y-101969978D01*
X103963720Y-102032139D01*
X104039481Y-102163360D01*
X104039483Y-102163362D01*
X104039485Y-102163365D01*
X104146635Y-102270515D01*
X104146637Y-102270516D01*
X104146639Y-102270518D01*
X104277861Y-102346279D01*
X104277859Y-102346279D01*
X104277863Y-102346280D01*
X104277865Y-102346281D01*
X104424234Y-102385500D01*
X104424236Y-102385500D01*
X104575764Y-102385500D01*
X104575766Y-102385500D01*
X104722135Y-102346281D01*
X104722137Y-102346279D01*
X104722139Y-102346279D01*
X104853360Y-102270518D01*
X104853360Y-102270517D01*
X104853365Y-102270515D01*
X104873883Y-102249997D01*
X106594353Y-102249997D01*
X106594353Y-102250002D01*
X106614834Y-102392456D01*
X106663947Y-102499997D01*
X106674623Y-102523373D01*
X106727736Y-102584669D01*
X106768873Y-102632144D01*
X106889729Y-102709813D01*
X106889947Y-102709953D01*
X106996403Y-102741211D01*
X107028035Y-102750499D01*
X107028036Y-102750499D01*
X107028039Y-102750500D01*
X107028041Y-102750500D01*
X107171959Y-102750500D01*
X107171961Y-102750500D01*
X107310053Y-102709953D01*
X107431128Y-102632143D01*
X107472264Y-102584668D01*
X107524660Y-102553073D01*
X107547083Y-102550500D01*
X110159521Y-102550500D01*
X110217712Y-102569407D01*
X110229525Y-102579496D01*
X111345504Y-103695475D01*
X111373281Y-103749992D01*
X111374500Y-103765479D01*
X111374500Y-104246105D01*
X111355593Y-104304296D01*
X111348258Y-104312289D01*
X111348509Y-104312506D01*
X111343872Y-104317856D01*
X111343872Y-104317857D01*
X111310575Y-104356284D01*
X111249622Y-104426628D01*
X111189834Y-104557543D01*
X111169353Y-104699997D01*
X111169353Y-104700002D01*
X111189834Y-104842456D01*
X111247277Y-104968237D01*
X111249623Y-104973373D01*
X111312505Y-105045943D01*
X111343873Y-105082144D01*
X111395302Y-105115195D01*
X111464947Y-105159953D01*
X111571403Y-105191211D01*
X111603035Y-105200499D01*
X111603036Y-105200499D01*
X111603039Y-105200500D01*
X111603041Y-105200500D01*
X111746959Y-105200500D01*
X111746961Y-105200500D01*
X111885053Y-105159953D01*
X112006128Y-105082143D01*
X112100377Y-104973373D01*
X112160165Y-104842457D01*
X112180647Y-104700000D01*
X112180175Y-104696718D01*
X112160165Y-104557543D01*
X112152133Y-104539955D01*
X112100377Y-104426627D01*
X112006128Y-104317857D01*
X112006127Y-104317856D01*
X112001491Y-104312506D01*
X112003524Y-104310743D01*
X111978067Y-104268505D01*
X111975500Y-104246105D01*
X111975500Y-103560437D01*
X111975499Y-103560435D01*
X111955021Y-103484011D01*
X111955019Y-103484007D01*
X111915460Y-103415489D01*
X111859511Y-103359539D01*
X111859511Y-103359540D01*
X111699968Y-103199997D01*
X119919353Y-103199997D01*
X119919353Y-103200002D01*
X119939834Y-103342456D01*
X119970919Y-103410521D01*
X119999623Y-103473373D01*
X120008841Y-103484011D01*
X120093873Y-103582144D01*
X120122481Y-103600529D01*
X120214947Y-103659953D01*
X120321403Y-103691211D01*
X120353035Y-103700499D01*
X120353036Y-103700499D01*
X120353039Y-103700500D01*
X120353041Y-103700500D01*
X120496959Y-103700500D01*
X120496961Y-103700500D01*
X120635053Y-103659953D01*
X120756128Y-103582143D01*
X120850377Y-103473373D01*
X120910165Y-103342457D01*
X120916454Y-103298715D01*
X120923637Y-103248761D01*
X120950633Y-103193853D01*
X121004747Y-103165300D01*
X121021629Y-103163850D01*
X121097507Y-103163850D01*
X121097509Y-103163850D01*
X121235601Y-103123303D01*
X121356676Y-103045493D01*
X121450925Y-102936723D01*
X121510713Y-102805807D01*
X121519869Y-102742125D01*
X121531195Y-102663352D01*
X121531195Y-102663347D01*
X121510713Y-102520893D01*
X121501170Y-102499997D01*
X121450925Y-102389977D01*
X121356676Y-102281207D01*
X121356675Y-102281206D01*
X121352039Y-102275856D01*
X121354072Y-102274093D01*
X121328615Y-102231855D01*
X121326048Y-102209455D01*
X121326048Y-96264931D01*
X121344955Y-96206740D01*
X121355044Y-96194927D01*
X122095475Y-95454496D01*
X122149992Y-95426719D01*
X122165479Y-95425500D01*
X125104563Y-95425500D01*
X125104563Y-95425499D01*
X125180989Y-95405021D01*
X125249511Y-95365460D01*
X125305460Y-95309511D01*
X126605002Y-94009967D01*
X126659517Y-93982192D01*
X126719949Y-93991763D01*
X126730003Y-93997656D01*
X126742402Y-94005941D01*
X126933580Y-94085130D01*
X127136535Y-94125500D01*
X127136536Y-94125500D01*
X127343464Y-94125500D01*
X127343465Y-94125500D01*
X127546420Y-94085130D01*
X127737598Y-94005941D01*
X127909655Y-93890977D01*
X128055977Y-93744655D01*
X128072129Y-93720482D01*
X128120178Y-93682602D01*
X128181316Y-93680198D01*
X128232190Y-93714190D01*
X128240181Y-93725982D01*
X128250951Y-93744636D01*
X128250960Y-93744650D01*
X128250963Y-93744655D01*
X128259540Y-93759511D01*
X129070505Y-94570476D01*
X129098281Y-94624991D01*
X129099500Y-94640478D01*
X129099500Y-103559520D01*
X129080593Y-103617711D01*
X129070504Y-103629524D01*
X128229524Y-104470504D01*
X128175007Y-104498281D01*
X128159520Y-104499500D01*
X128053035Y-104499500D01*
X127914949Y-104540046D01*
X127914945Y-104540048D01*
X127903021Y-104547711D01*
X127843845Y-104563263D01*
X127786829Y-104541063D01*
X127753752Y-104489590D01*
X127750500Y-104464425D01*
X127750500Y-102800316D01*
X127769407Y-102742125D01*
X127818907Y-102706161D01*
X127880093Y-102706161D01*
X127889471Y-102709813D01*
X127889946Y-102709952D01*
X127889947Y-102709953D01*
X127890993Y-102710260D01*
X128028035Y-102750499D01*
X128028036Y-102750499D01*
X128028039Y-102750500D01*
X128028041Y-102750500D01*
X128171959Y-102750500D01*
X128171961Y-102750500D01*
X128310053Y-102709953D01*
X128431128Y-102632143D01*
X128525377Y-102523373D01*
X128585165Y-102392457D01*
X128602697Y-102270518D01*
X128605647Y-102250002D01*
X128605647Y-102249997D01*
X128585166Y-102107547D01*
X128585165Y-102107545D01*
X128585165Y-102107543D01*
X128559448Y-102051232D01*
X128550503Y-102010107D01*
X128550503Y-96778893D01*
X128569410Y-96720702D01*
X128576744Y-96712711D01*
X128576494Y-96712494D01*
X128581131Y-96707143D01*
X128675380Y-96598373D01*
X128735168Y-96467457D01*
X128749594Y-96367119D01*
X128755650Y-96325002D01*
X128755650Y-96324997D01*
X128735168Y-96182543D01*
X128720447Y-96150309D01*
X128675380Y-96051627D01*
X128581131Y-95942857D01*
X128581130Y-95942856D01*
X128581129Y-95942855D01*
X128460060Y-95865049D01*
X128460057Y-95865047D01*
X128460056Y-95865047D01*
X128460053Y-95865046D01*
X128321967Y-95824500D01*
X128321964Y-95824500D01*
X128178042Y-95824500D01*
X128178038Y-95824500D01*
X128039952Y-95865046D01*
X128039945Y-95865049D01*
X127918870Y-95942859D01*
X127914823Y-95946366D01*
X127858461Y-95970178D01*
X127798867Y-95956313D01*
X127785165Y-95946356D01*
X127781132Y-95942862D01*
X127781128Y-95942857D01*
X127730683Y-95910438D01*
X127660057Y-95865049D01*
X127660054Y-95865047D01*
X127660053Y-95865047D01*
X127660050Y-95865046D01*
X127521964Y-95824500D01*
X127521961Y-95824500D01*
X127378039Y-95824500D01*
X127378035Y-95824500D01*
X127239949Y-95865046D01*
X127239942Y-95865049D01*
X127118873Y-95942855D01*
X127024622Y-96051628D01*
X126964834Y-96182543D01*
X126944353Y-96324997D01*
X126944353Y-96325002D01*
X126964834Y-96467456D01*
X127010856Y-96568228D01*
X127024623Y-96598373D01*
X127118020Y-96706160D01*
X127123509Y-96712494D01*
X127121471Y-96714259D01*
X127146925Y-96756458D01*
X127149500Y-96778893D01*
X127149500Y-97219872D01*
X127130593Y-97278063D01*
X127081093Y-97314027D01*
X127019907Y-97314027D01*
X126980496Y-97289876D01*
X126731623Y-97041003D01*
X126715277Y-97026320D01*
X126715270Y-97026314D01*
X126715262Y-97026307D01*
X126694620Y-97009673D01*
X126694619Y-97009672D01*
X126623576Y-96972510D01*
X126623571Y-96972508D01*
X126556542Y-96952826D01*
X126556533Y-96952824D01*
X126510322Y-96946180D01*
X126498638Y-96944500D01*
X125401362Y-96944500D01*
X125401343Y-96944500D01*
X125379405Y-96945677D01*
X125379398Y-96945677D01*
X125379393Y-96945678D01*
X125370894Y-96946591D01*
X125353038Y-96948511D01*
X125353033Y-96948512D01*
X125276520Y-96972469D01*
X125215193Y-97005957D01*
X125168369Y-97041010D01*
X124941003Y-97268376D01*
X124926320Y-97284722D01*
X124926301Y-97284745D01*
X124909672Y-97305380D01*
X124872510Y-97376423D01*
X124872508Y-97376428D01*
X124852826Y-97443457D01*
X124852824Y-97443466D01*
X124844500Y-97501362D01*
X124844500Y-97798656D01*
X124845677Y-97820594D01*
X124845678Y-97820603D01*
X124848511Y-97846961D01*
X124848512Y-97846966D01*
X124872469Y-97923479D01*
X124881251Y-97939561D01*
X124905956Y-97984805D01*
X124937941Y-98027530D01*
X124941010Y-98031630D01*
X125268376Y-98358996D01*
X125284722Y-98373679D01*
X125284738Y-98373693D01*
X125305380Y-98390327D01*
X125376425Y-98427490D01*
X125443464Y-98447175D01*
X125501362Y-98455500D01*
X125750500Y-98455500D01*
X125808691Y-98474407D01*
X125844655Y-98523907D01*
X125849500Y-98554500D01*
X125849500Y-104425500D01*
X125830593Y-104483691D01*
X125781093Y-104519655D01*
X125750500Y-104524500D01*
X121470850Y-104524500D01*
X121457928Y-104523653D01*
X121425001Y-104519318D01*
X121424999Y-104519318D01*
X121392072Y-104523653D01*
X121379150Y-104524500D01*
X121345943Y-104524500D01*
X121327188Y-104529525D01*
X121313866Y-104533094D01*
X121301172Y-104535619D01*
X121268240Y-104539955D01*
X121268237Y-104539956D01*
X121237550Y-104552667D01*
X121225290Y-104556828D01*
X121193219Y-104565421D01*
X121193217Y-104565422D01*
X121164458Y-104582026D01*
X121152847Y-104587751D01*
X121122162Y-104600461D01*
X121095810Y-104620681D01*
X121085047Y-104627872D01*
X121056288Y-104644476D01*
X121056281Y-104644481D01*
X121032799Y-104667963D01*
X121023069Y-104676496D01*
X120996723Y-104696713D01*
X120996713Y-104696723D01*
X120976496Y-104723069D01*
X120967963Y-104732799D01*
X120944481Y-104756281D01*
X120944476Y-104756288D01*
X120927872Y-104785047D01*
X120920681Y-104795810D01*
X120900461Y-104822162D01*
X120887751Y-104852847D01*
X120882026Y-104864458D01*
X120865422Y-104893217D01*
X120865421Y-104893219D01*
X120856828Y-104925290D01*
X120852667Y-104937550D01*
X120839956Y-104968237D01*
X120839955Y-104968240D01*
X120835619Y-105001172D01*
X120833094Y-105013866D01*
X120824500Y-105045944D01*
X120824500Y-105079149D01*
X120823653Y-105092071D01*
X120819318Y-105124999D01*
X120819318Y-105125000D01*
X120823653Y-105157927D01*
X120824500Y-105170849D01*
X120824500Y-105204060D01*
X120833093Y-105236131D01*
X120835619Y-105248826D01*
X120839955Y-105281759D01*
X120839957Y-105281765D01*
X120852665Y-105312445D01*
X120856827Y-105324706D01*
X120865421Y-105356780D01*
X120865422Y-105356783D01*
X120882028Y-105385546D01*
X120887754Y-105397157D01*
X120900463Y-105427840D01*
X120920681Y-105454189D01*
X120927874Y-105464955D01*
X120944476Y-105493711D01*
X120944481Y-105493717D01*
X120967967Y-105517204D01*
X120976500Y-105526933D01*
X120996718Y-105553282D01*
X120996722Y-105553285D01*
X121023059Y-105573494D01*
X121032794Y-105582031D01*
X121056282Y-105605518D01*
X121056284Y-105605520D01*
X121085047Y-105622126D01*
X121095809Y-105629317D01*
X121122159Y-105649536D01*
X121135979Y-105655260D01*
X121152844Y-105662246D01*
X121164461Y-105667975D01*
X121193211Y-105684575D01*
X121193213Y-105684575D01*
X121193216Y-105684577D01*
X121225293Y-105693171D01*
X121237549Y-105697331D01*
X121268238Y-105710044D01*
X121301168Y-105714379D01*
X121313851Y-105716901D01*
X121345943Y-105725500D01*
X121379150Y-105725500D01*
X121392072Y-105726347D01*
X121424999Y-105730682D01*
X121425000Y-105730682D01*
X121425001Y-105730682D01*
X121457928Y-105726347D01*
X121470850Y-105725500D01*
X125750500Y-105725500D01*
X125808691Y-105744407D01*
X125844655Y-105793907D01*
X125849500Y-105824500D01*
X125849500Y-109129149D01*
X125848653Y-109142071D01*
X125844318Y-109174999D01*
X125844318Y-109175000D01*
X125848653Y-109207927D01*
X125849500Y-109220849D01*
X125849500Y-109254060D01*
X125858093Y-109286131D01*
X125860619Y-109298826D01*
X125864955Y-109331759D01*
X125864957Y-109331765D01*
X125877665Y-109362445D01*
X125881827Y-109374706D01*
X125890421Y-109406780D01*
X125890422Y-109406783D01*
X125907028Y-109435546D01*
X125912754Y-109447157D01*
X125925463Y-109477840D01*
X125945681Y-109504189D01*
X125952874Y-109514955D01*
X125969476Y-109543711D01*
X125969481Y-109543717D01*
X125992967Y-109567204D01*
X126001500Y-109576933D01*
X126021718Y-109603282D01*
X126021722Y-109603285D01*
X126048059Y-109623494D01*
X126057794Y-109632031D01*
X126081282Y-109655518D01*
X126081284Y-109655520D01*
X126110047Y-109672126D01*
X126120809Y-109679317D01*
X126147159Y-109699536D01*
X126160979Y-109705260D01*
X126177844Y-109712246D01*
X126189461Y-109717975D01*
X126218211Y-109734575D01*
X126218213Y-109734575D01*
X126218216Y-109734577D01*
X126250293Y-109743171D01*
X126262549Y-109747331D01*
X126293238Y-109760044D01*
X126326168Y-109764379D01*
X126338851Y-109766901D01*
X126370943Y-109775500D01*
X126404150Y-109775500D01*
X126417072Y-109776347D01*
X126449999Y-109780682D01*
X126450000Y-109780682D01*
X126450001Y-109780682D01*
X126482928Y-109776347D01*
X126495850Y-109775500D01*
X127889864Y-109775500D01*
X127889880Y-109775501D01*
X127895943Y-109775501D01*
X128054056Y-109775501D01*
X128054057Y-109775501D01*
X128206785Y-109734577D01*
X128256904Y-109705639D01*
X128343716Y-109655520D01*
X128455520Y-109543716D01*
X128455521Y-109543713D01*
X131005520Y-106993716D01*
X131084577Y-106856784D01*
X131125501Y-106704057D01*
X131125501Y-106545942D01*
X131125501Y-106539880D01*
X131125500Y-106539862D01*
X131125500Y-105014742D01*
X131144407Y-104956551D01*
X131154490Y-104944744D01*
X132688713Y-103410521D01*
X132688716Y-103410520D01*
X132800520Y-103298716D01*
X132879577Y-103161784D01*
X132920500Y-103009057D01*
X132920500Y-94174707D01*
X132939407Y-94116516D01*
X132988907Y-94080552D01*
X132991883Y-94079637D01*
X132995390Y-94078618D01*
X133028501Y-94059036D01*
X133131420Y-93998170D01*
X133243170Y-93886420D01*
X133323618Y-93750390D01*
X133367709Y-93598627D01*
X133370500Y-93563163D01*
X133370499Y-92336838D01*
X133367709Y-92301373D01*
X133323618Y-92149610D01*
X133243170Y-92013580D01*
X133131420Y-91901830D01*
X133131417Y-91901828D01*
X133131416Y-91901827D01*
X132995392Y-91821383D01*
X132995391Y-91821382D01*
X132995390Y-91821382D01*
X132919508Y-91799336D01*
X132843625Y-91777290D01*
X132820894Y-91775502D01*
X132808163Y-91774500D01*
X132808157Y-91774500D01*
X131831842Y-91774500D01*
X131796373Y-91777291D01*
X131796368Y-91777292D01*
X131644606Y-91821383D01*
X131503219Y-91905000D01*
X131502291Y-91903431D01*
X131452603Y-91921316D01*
X131393848Y-91904242D01*
X131356351Y-91855894D01*
X131350500Y-91822365D01*
X131350500Y-90760437D01*
X131350499Y-90760435D01*
X131330021Y-90684011D01*
X131330019Y-90684007D01*
X131290460Y-90615489D01*
X131234511Y-90559539D01*
X131234511Y-90559540D01*
X128404496Y-87729525D01*
X128376719Y-87675008D01*
X128375500Y-87659521D01*
X128375500Y-83053893D01*
X128394407Y-82995702D01*
X128401741Y-82987711D01*
X128401491Y-82987494D01*
X128413727Y-82973373D01*
X128500377Y-82873373D01*
X128560165Y-82742457D01*
X128566992Y-82694971D01*
X128580647Y-82600002D01*
X128580647Y-82599997D01*
X128560165Y-82457543D01*
X128533657Y-82399500D01*
X128500377Y-82326627D01*
X128406128Y-82217857D01*
X128406127Y-82217856D01*
X128406126Y-82217855D01*
X128285057Y-82140049D01*
X128285054Y-82140047D01*
X128285053Y-82140047D01*
X128285050Y-82140046D01*
X128146964Y-82099500D01*
X128146961Y-82099500D01*
X128003039Y-82099500D01*
X128003035Y-82099500D01*
X127864949Y-82140046D01*
X127864942Y-82140049D01*
X127743873Y-82217855D01*
X127649622Y-82326628D01*
X127589834Y-82457543D01*
X127569353Y-82599997D01*
X127569353Y-82600002D01*
X127589834Y-82742456D01*
X127649623Y-82873373D01*
X127748509Y-82987494D01*
X127746471Y-82989259D01*
X127771925Y-83031458D01*
X127774500Y-83053893D01*
X127774500Y-87864564D01*
X127794978Y-87940987D01*
X127824616Y-87992322D01*
X127824615Y-87992322D01*
X127834538Y-88009508D01*
X127834540Y-88009511D01*
X130720505Y-90895476D01*
X130748281Y-90949991D01*
X130749500Y-90965478D01*
X130749500Y-93459521D01*
X130730593Y-93517712D01*
X130720504Y-93529525D01*
X130015489Y-94234540D01*
X130015488Y-94234539D01*
X129959539Y-94290489D01*
X129919980Y-94359007D01*
X129919978Y-94359011D01*
X129899500Y-94435435D01*
X129899500Y-103608050D01*
X129880593Y-103666241D01*
X129870504Y-103678054D01*
X129869504Y-103679054D01*
X129814987Y-103706831D01*
X129754555Y-103697260D01*
X129711290Y-103653995D01*
X129700500Y-103609050D01*
X129700500Y-94435437D01*
X129700499Y-94435435D01*
X129699673Y-94432354D01*
X129680021Y-94359011D01*
X129651458Y-94309539D01*
X129640460Y-94290489D01*
X129584511Y-94234539D01*
X129584511Y-94234540D01*
X128829496Y-93479525D01*
X128801719Y-93425008D01*
X128800500Y-93409521D01*
X128800500Y-91735437D01*
X128800499Y-91735435D01*
X128780021Y-91659011D01*
X128780019Y-91659007D01*
X128740460Y-91590489D01*
X128684511Y-91534539D01*
X128684511Y-91534540D01*
X125504496Y-88354525D01*
X125476719Y-88300008D01*
X125475500Y-88284521D01*
X125475500Y-83053893D01*
X125494407Y-82995702D01*
X125501741Y-82987711D01*
X125501491Y-82987494D01*
X125513727Y-82973373D01*
X125600377Y-82873373D01*
X125660165Y-82742457D01*
X125666992Y-82694971D01*
X125680647Y-82600002D01*
X125680647Y-82599997D01*
X125660165Y-82457543D01*
X125633657Y-82399500D01*
X125600377Y-82326627D01*
X125506128Y-82217857D01*
X125506127Y-82217856D01*
X125506126Y-82217855D01*
X125385057Y-82140049D01*
X125385054Y-82140047D01*
X125385053Y-82140047D01*
X125385050Y-82140046D01*
X125246964Y-82099500D01*
X125246961Y-82099500D01*
X125103039Y-82099500D01*
X125103035Y-82099500D01*
X124964949Y-82140046D01*
X124964942Y-82140049D01*
X124843873Y-82217855D01*
X124749622Y-82326628D01*
X124689834Y-82457543D01*
X124669353Y-82599997D01*
X124669353Y-82600002D01*
X124689834Y-82742456D01*
X124749623Y-82873373D01*
X124848509Y-82987494D01*
X124846471Y-82989259D01*
X124871925Y-83031458D01*
X124874500Y-83053893D01*
X124874500Y-88489564D01*
X124894978Y-88565988D01*
X124894979Y-88565989D01*
X124914904Y-88600500D01*
X124934540Y-88634511D01*
X128170505Y-91870476D01*
X128198281Y-91924991D01*
X128199500Y-91940478D01*
X128199500Y-92059861D01*
X128180593Y-92118052D01*
X128131093Y-92154016D01*
X128069907Y-92154016D01*
X128030498Y-92129866D01*
X127909655Y-92009023D01*
X127909651Y-92009020D01*
X127737597Y-91894058D01*
X127546418Y-91814869D01*
X127343467Y-91774500D01*
X127343465Y-91774500D01*
X127136535Y-91774500D01*
X127136532Y-91774500D01*
X126933581Y-91814869D01*
X126742402Y-91894058D01*
X126570348Y-92009020D01*
X126424020Y-92155348D01*
X126309058Y-92327402D01*
X126229869Y-92518581D01*
X126189500Y-92721532D01*
X126189500Y-93178467D01*
X126229870Y-93381419D01*
X126229870Y-93381421D01*
X126249584Y-93429014D01*
X126254385Y-93490010D01*
X126228124Y-93536903D01*
X124969525Y-94795504D01*
X124915008Y-94823281D01*
X124899521Y-94824500D01*
X123489479Y-94824500D01*
X123431288Y-94805593D01*
X123395324Y-94756093D01*
X123395324Y-94694907D01*
X123419475Y-94655497D01*
X124065000Y-94009970D01*
X124119517Y-93982192D01*
X124179949Y-93991763D01*
X124190003Y-93997656D01*
X124202402Y-94005941D01*
X124393580Y-94085130D01*
X124596535Y-94125500D01*
X124596536Y-94125500D01*
X124803464Y-94125500D01*
X124803465Y-94125500D01*
X125006420Y-94085130D01*
X125197598Y-94005941D01*
X125369655Y-93890977D01*
X125515977Y-93744655D01*
X125630941Y-93572598D01*
X125710130Y-93381420D01*
X125750500Y-93178465D01*
X125750500Y-92721535D01*
X125710130Y-92518580D01*
X125630941Y-92327402D01*
X125515977Y-92155345D01*
X125369655Y-92009023D01*
X125369651Y-92009020D01*
X125197597Y-91894058D01*
X125006418Y-91814869D01*
X124803467Y-91774500D01*
X124803465Y-91774500D01*
X124596535Y-91774500D01*
X124596532Y-91774500D01*
X124393581Y-91814869D01*
X124202402Y-91894058D01*
X124030348Y-92009020D01*
X123884020Y-92155348D01*
X123769058Y-92327402D01*
X123689869Y-92518581D01*
X123649500Y-92721532D01*
X123649500Y-93178467D01*
X123689870Y-93381419D01*
X123689870Y-93381421D01*
X123709584Y-93429014D01*
X123714385Y-93490010D01*
X123688124Y-93536902D01*
X123004525Y-94220503D01*
X122950008Y-94248281D01*
X122934521Y-94249500D01*
X122567301Y-94249500D01*
X122509110Y-94230593D01*
X122473146Y-94181093D01*
X122473146Y-94119907D01*
X122509110Y-94070407D01*
X122529411Y-94059037D01*
X122657598Y-94005941D01*
X122829655Y-93890977D01*
X122975977Y-93744655D01*
X123090941Y-93572598D01*
X123170130Y-93381420D01*
X123210500Y-93178465D01*
X123210500Y-92721535D01*
X123170130Y-92518580D01*
X123090941Y-92327402D01*
X122975977Y-92155345D01*
X122829655Y-92009023D01*
X122829651Y-92009020D01*
X122657597Y-91894058D01*
X122466418Y-91814869D01*
X122263467Y-91774500D01*
X122263465Y-91774500D01*
X122056535Y-91774500D01*
X122056532Y-91774500D01*
X121853581Y-91814869D01*
X121662402Y-91894058D01*
X121490348Y-92009020D01*
X121344020Y-92155348D01*
X121229058Y-92327402D01*
X121149869Y-92518581D01*
X121109500Y-92721532D01*
X121109500Y-93178467D01*
X121149869Y-93381418D01*
X121229058Y-93572597D01*
X121323667Y-93714190D01*
X121344023Y-93744655D01*
X121490345Y-93890977D01*
X121662402Y-94005941D01*
X121790586Y-94059036D01*
X121837110Y-94098773D01*
X121851394Y-94158267D01*
X121827979Y-94214795D01*
X121775810Y-94246765D01*
X121752699Y-94249500D01*
X121660435Y-94249500D01*
X121584012Y-94269978D01*
X121539499Y-94295678D01*
X121539498Y-94295677D01*
X121515490Y-94309539D01*
X120240489Y-95584540D01*
X120240488Y-95584539D01*
X120184539Y-95640489D01*
X120144980Y-95709007D01*
X120144978Y-95709011D01*
X120124500Y-95785435D01*
X120124500Y-102746105D01*
X120105593Y-102804296D01*
X120098258Y-102812289D01*
X120098509Y-102812506D01*
X119999622Y-102926628D01*
X119939834Y-103057543D01*
X119919353Y-103199997D01*
X111699968Y-103199997D01*
X111284511Y-102784540D01*
X110999968Y-102499997D01*
X110509511Y-102009540D01*
X110509508Y-102009538D01*
X110492121Y-101999499D01*
X110492121Y-101999500D01*
X110440989Y-101969979D01*
X110440988Y-101969978D01*
X110440987Y-101969978D01*
X110364564Y-101949500D01*
X110364562Y-101949500D01*
X107547083Y-101949500D01*
X107488892Y-101930593D01*
X107472264Y-101915331D01*
X107431128Y-101867857D01*
X107398182Y-101846684D01*
X107310057Y-101790049D01*
X107310054Y-101790047D01*
X107310053Y-101790047D01*
X107307441Y-101789280D01*
X107171964Y-101749500D01*
X107171961Y-101749500D01*
X107028039Y-101749500D01*
X107028035Y-101749500D01*
X106889949Y-101790046D01*
X106889942Y-101790049D01*
X106768873Y-101867855D01*
X106674622Y-101976628D01*
X106614834Y-102107543D01*
X106594353Y-102249997D01*
X104873883Y-102249997D01*
X104960515Y-102163365D01*
X104986789Y-102117857D01*
X105036279Y-102032139D01*
X105036279Y-102032137D01*
X105036281Y-102032135D01*
X105075500Y-101885766D01*
X105075500Y-101734234D01*
X105036281Y-101587865D01*
X105036279Y-101587862D01*
X105036279Y-101587860D01*
X104960518Y-101456639D01*
X104960516Y-101456637D01*
X104960515Y-101456635D01*
X104853365Y-101349485D01*
X104853362Y-101349483D01*
X104853360Y-101349481D01*
X104722138Y-101273720D01*
X104722140Y-101273720D01*
X104665347Y-101258503D01*
X104575766Y-101234500D01*
X104424234Y-101234500D01*
X104334652Y-101258503D01*
X104277860Y-101273720D01*
X104146639Y-101349481D01*
X104039481Y-101456639D01*
X103963720Y-101587860D01*
X103963719Y-101587865D01*
X103924500Y-101734234D01*
X99900500Y-101734234D01*
X99900500Y-96450000D01*
X104194357Y-96450000D01*
X104214885Y-96671536D01*
X104275771Y-96885528D01*
X104374942Y-97084689D01*
X104509019Y-97262236D01*
X104673438Y-97412124D01*
X104862599Y-97529247D01*
X105070060Y-97609618D01*
X105288757Y-97650500D01*
X105511243Y-97650500D01*
X105729940Y-97609618D01*
X105937401Y-97529247D01*
X106126562Y-97412124D01*
X106290981Y-97262236D01*
X106332135Y-97207737D01*
X106382288Y-97172697D01*
X106443463Y-97173826D01*
X106492291Y-97210698D01*
X106510120Y-97269228D01*
X106507108Y-97291702D01*
X106464380Y-97460434D01*
X106464379Y-97460438D01*
X106444529Y-97700000D01*
X106464379Y-97939561D01*
X106464379Y-97939562D01*
X106523388Y-98172585D01*
X106523390Y-98172591D01*
X106538867Y-98207875D01*
X106619950Y-98392727D01*
X106619953Y-98392732D01*
X106751425Y-98593964D01*
X106751427Y-98593966D01*
X106751429Y-98593969D01*
X106914236Y-98770825D01*
X107103933Y-98918472D01*
X107315344Y-99032882D01*
X107542703Y-99110934D01*
X107779808Y-99150500D01*
X108020192Y-99150500D01*
X108257297Y-99110934D01*
X108484656Y-99032882D01*
X108696067Y-98918472D01*
X108885764Y-98770825D01*
X109048571Y-98593969D01*
X109180049Y-98392728D01*
X109276610Y-98172591D01*
X109335620Y-97939563D01*
X109355471Y-97700000D01*
X109335620Y-97460437D01*
X109276610Y-97227409D01*
X109180049Y-97007272D01*
X109157338Y-96972510D01*
X109048574Y-96806035D01*
X109048572Y-96806033D01*
X109048571Y-96806031D01*
X108885764Y-96629175D01*
X108729491Y-96507543D01*
X108696070Y-96481530D01*
X108696067Y-96481528D01*
X108484659Y-96367119D01*
X108467796Y-96361330D01*
X108257297Y-96289066D01*
X108257294Y-96289065D01*
X108257293Y-96289065D01*
X108020192Y-96249500D01*
X107779808Y-96249500D01*
X107542706Y-96289065D01*
X107315340Y-96367119D01*
X107103932Y-96481528D01*
X107103929Y-96481530D01*
X106914239Y-96629172D01*
X106914236Y-96629174D01*
X106914236Y-96629175D01*
X106880633Y-96665678D01*
X106751425Y-96806035D01*
X106745464Y-96815160D01*
X106697807Y-96853533D01*
X106636697Y-96856565D01*
X106585476Y-96823099D01*
X106563708Y-96765917D01*
X106567364Y-96733923D01*
X106585115Y-96671536D01*
X106605643Y-96450000D01*
X106585115Y-96228464D01*
X106524229Y-96014472D01*
X106425058Y-95815311D01*
X106290981Y-95637764D01*
X106126562Y-95487876D01*
X105937401Y-95370753D01*
X105729940Y-95290382D01*
X105729939Y-95290381D01*
X105729937Y-95290381D01*
X105511243Y-95249500D01*
X105288757Y-95249500D01*
X105070062Y-95290381D01*
X105068493Y-95290989D01*
X104862599Y-95370753D01*
X104727349Y-95454496D01*
X104673438Y-95487876D01*
X104577323Y-95575497D01*
X104509019Y-95637764D01*
X104498481Y-95651719D01*
X104374943Y-95815309D01*
X104374938Y-95815318D01*
X104275772Y-96014469D01*
X104275771Y-96014472D01*
X104214885Y-96228464D01*
X104194357Y-96450000D01*
X99900500Y-96450000D01*
X99900500Y-90700000D01*
X106444529Y-90700000D01*
X106464379Y-90939561D01*
X106464379Y-90939562D01*
X106470942Y-90965478D01*
X106523390Y-91172591D01*
X106574520Y-91289157D01*
X106619950Y-91392727D01*
X106619953Y-91392732D01*
X106751425Y-91593964D01*
X106751427Y-91593966D01*
X106751429Y-91593969D01*
X106914236Y-91770825D01*
X107103933Y-91918472D01*
X107259499Y-92002660D01*
X107279682Y-92013583D01*
X107315344Y-92032882D01*
X107542703Y-92110934D01*
X107779808Y-92150500D01*
X108020192Y-92150500D01*
X108257297Y-92110934D01*
X108484656Y-92032882D01*
X108696067Y-91918472D01*
X108885764Y-91770825D01*
X109048571Y-91593969D01*
X109180049Y-91392728D01*
X109276610Y-91172591D01*
X109335620Y-90939563D01*
X109355471Y-90700000D01*
X109335620Y-90460437D01*
X109276610Y-90227409D01*
X109180049Y-90007272D01*
X109048571Y-89806031D01*
X108885764Y-89629175D01*
X108696067Y-89481528D01*
X108484659Y-89367119D01*
X108467796Y-89361330D01*
X108257297Y-89289066D01*
X108257294Y-89289065D01*
X108257293Y-89289065D01*
X108020192Y-89249500D01*
X107779808Y-89249500D01*
X107542706Y-89289065D01*
X107315340Y-89367119D01*
X107103932Y-89481528D01*
X107103929Y-89481530D01*
X106914239Y-89629172D01*
X106914236Y-89629174D01*
X106914236Y-89629175D01*
X106865476Y-89682143D01*
X106751425Y-89806035D01*
X106619953Y-90007267D01*
X106619950Y-90007272D01*
X106523388Y-90227414D01*
X106464379Y-90460437D01*
X106464379Y-90460438D01*
X106444529Y-90700000D01*
X99900500Y-90700000D01*
X99900500Y-85900000D01*
X104194357Y-85900000D01*
X104214885Y-86121536D01*
X104275771Y-86335528D01*
X104374942Y-86534689D01*
X104509019Y-86712236D01*
X104673438Y-86862124D01*
X104862599Y-86979247D01*
X105070060Y-87059618D01*
X105288757Y-87100500D01*
X105511243Y-87100500D01*
X105729940Y-87059618D01*
X105937401Y-86979247D01*
X106126562Y-86862124D01*
X106290981Y-86712236D01*
X106332135Y-86657737D01*
X106382288Y-86622697D01*
X106443463Y-86623826D01*
X106492291Y-86660698D01*
X106510120Y-86719228D01*
X106507108Y-86741702D01*
X106464380Y-86910434D01*
X106464379Y-86910438D01*
X106444529Y-87150000D01*
X106464379Y-87389561D01*
X106464379Y-87389562D01*
X106523388Y-87622585D01*
X106523390Y-87622591D01*
X106557577Y-87700529D01*
X106619950Y-87842727D01*
X106619953Y-87842732D01*
X106751425Y-88043964D01*
X106751427Y-88043966D01*
X106751429Y-88043969D01*
X106914236Y-88220825D01*
X107103933Y-88368472D01*
X107315344Y-88482882D01*
X107542703Y-88560934D01*
X107779808Y-88600500D01*
X108020192Y-88600500D01*
X108257297Y-88560934D01*
X108484656Y-88482882D01*
X108696067Y-88368472D01*
X108885764Y-88220825D01*
X109048571Y-88043969D01*
X109180049Y-87842728D01*
X109276610Y-87622591D01*
X109335620Y-87389563D01*
X109355471Y-87150000D01*
X109335620Y-86910437D01*
X109276610Y-86677409D01*
X109180049Y-86457272D01*
X109180046Y-86457267D01*
X109048574Y-86256035D01*
X109048572Y-86256033D01*
X109048571Y-86256031D01*
X108885764Y-86079175D01*
X108789953Y-86004602D01*
X108696070Y-85931530D01*
X108696067Y-85931528D01*
X108484659Y-85817119D01*
X108467796Y-85811330D01*
X108257297Y-85739066D01*
X108257294Y-85739065D01*
X108257293Y-85739065D01*
X108020192Y-85699500D01*
X107779808Y-85699500D01*
X107542706Y-85739065D01*
X107315340Y-85817119D01*
X107103932Y-85931528D01*
X107103929Y-85931530D01*
X106914239Y-86079172D01*
X106751425Y-86256035D01*
X106745464Y-86265160D01*
X106697807Y-86303533D01*
X106636697Y-86306565D01*
X106585476Y-86273099D01*
X106563708Y-86215917D01*
X106567364Y-86183923D01*
X106585115Y-86121536D01*
X106605643Y-85900000D01*
X106585115Y-85678464D01*
X106524229Y-85464472D01*
X106425058Y-85265311D01*
X106290981Y-85087764D01*
X106126562Y-84937876D01*
X105937401Y-84820753D01*
X105729940Y-84740382D01*
X105729939Y-84740381D01*
X105729937Y-84740381D01*
X105511243Y-84699500D01*
X105288757Y-84699500D01*
X105070062Y-84740381D01*
X104993797Y-84769926D01*
X104862599Y-84820753D01*
X104673438Y-84937876D01*
X104509019Y-85087764D01*
X104484771Y-85119874D01*
X104374943Y-85265309D01*
X104374938Y-85265318D01*
X104344914Y-85325614D01*
X104275771Y-85464472D01*
X104214885Y-85678464D01*
X104194357Y-85900000D01*
X99900500Y-85900000D01*
X99900500Y-80150000D01*
X106444529Y-80150000D01*
X106464379Y-80389561D01*
X106464379Y-80389562D01*
X106523388Y-80622585D01*
X106523390Y-80622591D01*
X106574520Y-80739157D01*
X106619950Y-80842727D01*
X106619953Y-80842732D01*
X106751425Y-81043964D01*
X106751427Y-81043966D01*
X106751429Y-81043969D01*
X106914236Y-81220825D01*
X107103933Y-81368472D01*
X107315344Y-81482882D01*
X107542703Y-81560934D01*
X107779808Y-81600500D01*
X108020192Y-81600500D01*
X108257297Y-81560934D01*
X108484656Y-81482882D01*
X108696067Y-81368472D01*
X108885764Y-81220825D01*
X109048571Y-81043969D01*
X109180049Y-80842728D01*
X109276610Y-80622591D01*
X109335620Y-80389563D01*
X109355471Y-80150000D01*
X109335620Y-79910437D01*
X109276610Y-79677409D01*
X109180049Y-79457272D01*
X109168797Y-79440049D01*
X109048574Y-79256035D01*
X109048572Y-79256033D01*
X109048571Y-79256031D01*
X108885764Y-79079175D01*
X108745496Y-78970000D01*
X108696070Y-78931530D01*
X108696067Y-78931528D01*
X108484659Y-78817119D01*
X108387236Y-78783674D01*
X108257297Y-78739066D01*
X108257294Y-78739065D01*
X108257293Y-78739065D01*
X108020192Y-78699500D01*
X107779808Y-78699500D01*
X107542706Y-78739065D01*
X107315340Y-78817119D01*
X107103932Y-78931528D01*
X107103929Y-78931530D01*
X106914239Y-79079172D01*
X106751425Y-79256035D01*
X106619953Y-79457267D01*
X106619950Y-79457272D01*
X106564349Y-79584032D01*
X106537452Y-79645352D01*
X106523388Y-79677414D01*
X106464379Y-79910437D01*
X106464379Y-79910438D01*
X106444529Y-80150000D01*
X99900500Y-80150000D01*
X99900500Y-74099500D01*
X99919407Y-74041309D01*
X99968907Y-74005345D01*
X99999500Y-74000500D01*
X101602059Y-74000500D01*
X101653938Y-74015182D01*
X101960326Y-74203694D01*
X101960330Y-74203696D01*
X102290157Y-74366962D01*
X102633580Y-74499261D01*
X102869658Y-74566071D01*
X102983887Y-74598398D01*
X102987697Y-74599476D01*
X103349518Y-74666759D01*
X103715988Y-74700543D01*
X103900000Y-74700500D01*
X103965892Y-74700500D01*
X104034108Y-74700500D01*
X104100000Y-74700500D01*
X104284954Y-74700500D01*
X104653285Y-74666369D01*
X104653296Y-74666367D01*
X105016891Y-74598399D01*
X105016895Y-74598398D01*
X105372682Y-74497168D01*
X105717612Y-74363542D01*
X105883852Y-74280763D01*
X106048739Y-74198660D01*
X106345067Y-74015182D01*
X106363243Y-74003928D01*
X106658436Y-73781008D01*
X106931802Y-73531802D01*
X107181008Y-73258436D01*
X107403928Y-72963243D01*
X107562551Y-72707057D01*
X107598660Y-72648739D01*
X107691116Y-72463062D01*
X107763542Y-72317612D01*
X107897168Y-71972682D01*
X107998398Y-71616895D01*
X108058446Y-71295672D01*
X108066367Y-71253296D01*
X108066368Y-71253289D01*
X108066369Y-71253285D01*
X108100500Y-70884954D01*
X108100500Y-70700000D01*
X108100500Y-70634108D01*
X108100500Y-70434108D01*
X108100500Y-70315046D01*
X108066369Y-69946715D01*
X108045053Y-69832683D01*
X107998399Y-69583108D01*
X107977681Y-69510293D01*
X107897168Y-69227318D01*
X107763542Y-68882388D01*
X107762194Y-68879682D01*
X107598660Y-68551260D01*
X107403927Y-68236755D01*
X107283523Y-68077316D01*
X107181008Y-67941564D01*
X107161076Y-67919700D01*
X107015326Y-67759820D01*
X106931802Y-67668198D01*
X106747846Y-67500500D01*
X106658443Y-67418998D01*
X106658440Y-67418996D01*
X106658436Y-67418992D01*
X106510551Y-67307314D01*
X106363244Y-67196072D01*
X106048739Y-67001339D01*
X105717615Y-66836459D01*
X105372679Y-66702831D01*
X105344175Y-66694721D01*
X105293380Y-66660610D01*
X105272336Y-66603158D01*
X105289080Y-66544308D01*
X105337217Y-66506540D01*
X105371268Y-66500500D01*
X110069836Y-66500500D01*
X110128027Y-66519407D01*
G37*
G04 #@! TD.AperFunction*
G04 #@! TA.AperFunction,Conductor*
G36*
X113594394Y-67819407D02*
G01*
X113630358Y-67868907D01*
X113630358Y-67930093D01*
X113594394Y-67979593D01*
X113582875Y-67986808D01*
X113566296Y-67995670D01*
X113413547Y-68077316D01*
X113253595Y-68208585D01*
X113253585Y-68208595D01*
X113122316Y-68368547D01*
X113024768Y-68551045D01*
X112964699Y-68749065D01*
X112964698Y-68749070D01*
X112944417Y-68954996D01*
X112944417Y-68955003D01*
X112964698Y-69160929D01*
X112964699Y-69160934D01*
X113024768Y-69358954D01*
X113122316Y-69541452D01*
X113212571Y-69651428D01*
X113253590Y-69701410D01*
X113274373Y-69718466D01*
X113413547Y-69832683D01*
X113413548Y-69832683D01*
X113413550Y-69832685D01*
X113596046Y-69930232D01*
X113733997Y-69972078D01*
X113794065Y-69990300D01*
X113794070Y-69990301D01*
X113999997Y-70010583D01*
X114000000Y-70010583D01*
X114000003Y-70010583D01*
X114205929Y-69990301D01*
X114205934Y-69990300D01*
X114403954Y-69930232D01*
X114586450Y-69832685D01*
X114746410Y-69701410D01*
X114877685Y-69541450D01*
X114975232Y-69358954D01*
X115035300Y-69160934D01*
X115035301Y-69160929D01*
X115055583Y-68955003D01*
X115055583Y-68954996D01*
X115035301Y-68749070D01*
X115035300Y-68749065D01*
X115017078Y-68688997D01*
X114975232Y-68551046D01*
X114877685Y-68368550D01*
X114870289Y-68359538D01*
X114746414Y-68208595D01*
X114746410Y-68208590D01*
X114746404Y-68208585D01*
X114586452Y-68077316D01*
X114433704Y-67995670D01*
X114417127Y-67986809D01*
X114374722Y-67942704D01*
X114366339Y-67882096D01*
X114395182Y-67828135D01*
X114450233Y-67801434D01*
X114463797Y-67800500D01*
X134343835Y-67800500D01*
X134402026Y-67819407D01*
X134413839Y-67829496D01*
X140645504Y-74061161D01*
X140673281Y-74115678D01*
X140674500Y-74131165D01*
X140674500Y-94743996D01*
X140701420Y-94879327D01*
X140701420Y-94879329D01*
X140754223Y-95006808D01*
X140830885Y-95121542D01*
X141284839Y-95575497D01*
X141312616Y-95630013D01*
X141303045Y-95690445D01*
X141259780Y-95733710D01*
X141214835Y-95744500D01*
X140726165Y-95744500D01*
X140667974Y-95725593D01*
X140656161Y-95715504D01*
X140354496Y-95413839D01*
X140326719Y-95359322D01*
X140325500Y-95343835D01*
X140325500Y-75881008D01*
X140325499Y-75881004D01*
X140315074Y-75828595D01*
X140301421Y-75759953D01*
X140298580Y-75745671D01*
X140274871Y-75688433D01*
X140245775Y-75618189D01*
X140169114Y-75503458D01*
X140071542Y-75405886D01*
X133921543Y-69255886D01*
X133806811Y-69179225D01*
X133806810Y-69179224D01*
X133806808Y-69179223D01*
X133679328Y-69126420D01*
X133543996Y-69099500D01*
X133543994Y-69099500D01*
X133543993Y-69099500D01*
X119240491Y-69099500D01*
X119226402Y-69098492D01*
X119217939Y-69097275D01*
X119198638Y-69094500D01*
X118126362Y-69094500D01*
X118126343Y-69094500D01*
X118104405Y-69095677D01*
X118104398Y-69095677D01*
X118104393Y-69095678D01*
X118095894Y-69096591D01*
X118078038Y-69098511D01*
X118078033Y-69098512D01*
X118001520Y-69122469D01*
X117940193Y-69155957D01*
X117893369Y-69191010D01*
X117541003Y-69543376D01*
X117526320Y-69559722D01*
X117526301Y-69559745D01*
X117509672Y-69580380D01*
X117472510Y-69651423D01*
X117472508Y-69651428D01*
X117452826Y-69718457D01*
X117452824Y-69718466D01*
X117444500Y-69776362D01*
X117444500Y-70698835D01*
X117425593Y-70757026D01*
X117415504Y-70768838D01*
X117130885Y-71053457D01*
X117105770Y-71091046D01*
X117054223Y-71168191D01*
X117001420Y-71295670D01*
X117001420Y-71295672D01*
X116974500Y-71431004D01*
X116974500Y-72568835D01*
X116955593Y-72627026D01*
X116945504Y-72638839D01*
X114088839Y-75495504D01*
X114034322Y-75523281D01*
X114018835Y-75524500D01*
X113130252Y-75524500D01*
X113130251Y-75524500D01*
X113130241Y-75524501D01*
X113071772Y-75536132D01*
X113071766Y-75536134D01*
X113005451Y-75580445D01*
X113005445Y-75580451D01*
X112961134Y-75646766D01*
X112961132Y-75646772D01*
X112949501Y-75705241D01*
X112949500Y-75705253D01*
X112949500Y-76735256D01*
X112930593Y-76793447D01*
X112920504Y-76805260D01*
X112549378Y-77176386D01*
X112494861Y-77204163D01*
X112434429Y-77194592D01*
X112391164Y-77151327D01*
X112381593Y-77090895D01*
X112392062Y-77059718D01*
X112435232Y-76978954D01*
X112495300Y-76780934D01*
X112495301Y-76780929D01*
X112515583Y-76575003D01*
X112515583Y-76574996D01*
X112495301Y-76369070D01*
X112495300Y-76369065D01*
X112473608Y-76297557D01*
X112435232Y-76171046D01*
X112337685Y-75988550D01*
X112310944Y-75955966D01*
X112206414Y-75828595D01*
X112206410Y-75828590D01*
X112186400Y-75812168D01*
X112046452Y-75697316D01*
X111863954Y-75599768D01*
X111665934Y-75539699D01*
X111665929Y-75539698D01*
X111460003Y-75519417D01*
X111460001Y-75519417D01*
X111460000Y-75519417D01*
X111447491Y-75520649D01*
X111387727Y-75507534D01*
X111367786Y-75492129D01*
X110329496Y-74453839D01*
X110301719Y-74399322D01*
X110300500Y-74383835D01*
X110300500Y-71949443D01*
X110319407Y-71891252D01*
X110368907Y-71855288D01*
X110430093Y-71855288D01*
X110479593Y-71891252D01*
X110486810Y-71902774D01*
X110582316Y-72081452D01*
X110679401Y-72199750D01*
X110713590Y-72241410D01*
X110713595Y-72241414D01*
X110873547Y-72372683D01*
X110873548Y-72372683D01*
X110873550Y-72372685D01*
X111056046Y-72470232D01*
X111193997Y-72512078D01*
X111254065Y-72530300D01*
X111254070Y-72530301D01*
X111459997Y-72550583D01*
X111460000Y-72550583D01*
X111460003Y-72550583D01*
X111665929Y-72530301D01*
X111665934Y-72530300D01*
X111863954Y-72470232D01*
X112046450Y-72372685D01*
X112206410Y-72241410D01*
X112337685Y-72081450D01*
X112435232Y-71898954D01*
X112495300Y-71700934D01*
X112495301Y-71700929D01*
X112515583Y-71495003D01*
X112515583Y-71494996D01*
X112944417Y-71494996D01*
X112944417Y-71495003D01*
X112964698Y-71700929D01*
X112964699Y-71700934D01*
X113024768Y-71898954D01*
X113122316Y-72081452D01*
X113219401Y-72199750D01*
X113253590Y-72241410D01*
X113253595Y-72241414D01*
X113413547Y-72372683D01*
X113413548Y-72372683D01*
X113413550Y-72372685D01*
X113596046Y-72470232D01*
X113733997Y-72512078D01*
X113794065Y-72530300D01*
X113794070Y-72530301D01*
X113999997Y-72550583D01*
X114000000Y-72550583D01*
X114000003Y-72550583D01*
X114205929Y-72530301D01*
X114205934Y-72530300D01*
X114403954Y-72470232D01*
X114586450Y-72372685D01*
X114746410Y-72241410D01*
X114877685Y-72081450D01*
X114975232Y-71898954D01*
X115035300Y-71700934D01*
X115035301Y-71700929D01*
X115055583Y-71495003D01*
X115055583Y-71494996D01*
X115035301Y-71289070D01*
X115035300Y-71289065D01*
X114998633Y-71168191D01*
X114975232Y-71091046D01*
X114877685Y-70908550D01*
X114858320Y-70884954D01*
X114746414Y-70748595D01*
X114746410Y-70748590D01*
X114685783Y-70698835D01*
X114586452Y-70617316D01*
X114403954Y-70519768D01*
X114205934Y-70459699D01*
X114205929Y-70459698D01*
X114000003Y-70439417D01*
X113999997Y-70439417D01*
X113794070Y-70459698D01*
X113794065Y-70459699D01*
X113596045Y-70519768D01*
X113413547Y-70617316D01*
X113253595Y-70748585D01*
X113253585Y-70748595D01*
X113122316Y-70908547D01*
X113024768Y-71091045D01*
X112964699Y-71289065D01*
X112964698Y-71289070D01*
X112944417Y-71494996D01*
X112515583Y-71494996D01*
X112495301Y-71289070D01*
X112495300Y-71289065D01*
X112458633Y-71168191D01*
X112435232Y-71091046D01*
X112337685Y-70908550D01*
X112318320Y-70884954D01*
X112206414Y-70748595D01*
X112206410Y-70748590D01*
X112145783Y-70698835D01*
X112046452Y-70617316D01*
X111863954Y-70519768D01*
X111665934Y-70459699D01*
X111665929Y-70459698D01*
X111460003Y-70439417D01*
X111459997Y-70439417D01*
X111254070Y-70459698D01*
X111254065Y-70459699D01*
X111056045Y-70519768D01*
X110873547Y-70617316D01*
X110713595Y-70748585D01*
X110713585Y-70748595D01*
X110582316Y-70908547D01*
X110486810Y-71087225D01*
X110442704Y-71129631D01*
X110382095Y-71138014D01*
X110328135Y-71109171D01*
X110301434Y-71054120D01*
X110300500Y-71040556D01*
X110300500Y-69409443D01*
X110319407Y-69351252D01*
X110368907Y-69315288D01*
X110430093Y-69315288D01*
X110479593Y-69351252D01*
X110486810Y-69362774D01*
X110582316Y-69541452D01*
X110672571Y-69651428D01*
X110713590Y-69701410D01*
X110734373Y-69718466D01*
X110873547Y-69832683D01*
X110873548Y-69832683D01*
X110873550Y-69832685D01*
X111056046Y-69930232D01*
X111193997Y-69972078D01*
X111254065Y-69990300D01*
X111254070Y-69990301D01*
X111459997Y-70010583D01*
X111460000Y-70010583D01*
X111460003Y-70010583D01*
X111665929Y-69990301D01*
X111665934Y-69990300D01*
X111863954Y-69930232D01*
X112046450Y-69832685D01*
X112206410Y-69701410D01*
X112337685Y-69541450D01*
X112435232Y-69358954D01*
X112495300Y-69160934D01*
X112495301Y-69160929D01*
X112515583Y-68955003D01*
X112515583Y-68954996D01*
X112495301Y-68749070D01*
X112495300Y-68749065D01*
X112477078Y-68688997D01*
X112435232Y-68551046D01*
X112337685Y-68368550D01*
X112330289Y-68359538D01*
X112206414Y-68208595D01*
X112206410Y-68208590D01*
X112206404Y-68208585D01*
X112046452Y-68077316D01*
X111893704Y-67995670D01*
X111877127Y-67986809D01*
X111834722Y-67942704D01*
X111826339Y-67882096D01*
X111855182Y-67828135D01*
X111910233Y-67801434D01*
X111923797Y-67800500D01*
X113536203Y-67800500D01*
X113594394Y-67819407D01*
G37*
G04 #@! TD.AperFunction*
G04 #@! TA.AperFunction,Conductor*
G36*
X177186923Y-66519407D02*
G01*
X177222887Y-66568907D01*
X177222887Y-66630093D01*
X177186923Y-66679593D01*
X177155825Y-66694721D01*
X177127320Y-66702831D01*
X176782384Y-66836459D01*
X176451260Y-67001339D01*
X176136755Y-67196072D01*
X175841556Y-67418998D01*
X175568205Y-67668191D01*
X175568191Y-67668205D01*
X175318998Y-67941556D01*
X175096072Y-68236755D01*
X174901339Y-68551260D01*
X174736459Y-68882384D01*
X174602831Y-69227320D01*
X174501600Y-69583108D01*
X174433632Y-69946703D01*
X174433631Y-69946710D01*
X174399500Y-70315043D01*
X174399500Y-70884956D01*
X174433631Y-71253289D01*
X174433632Y-71253296D01*
X174501600Y-71616891D01*
X174602831Y-71972679D01*
X174736459Y-72317615D01*
X174901338Y-72648736D01*
X174911639Y-72665373D01*
X174926197Y-72724802D01*
X174903042Y-72781437D01*
X174851021Y-72813646D01*
X174790003Y-72809127D01*
X174757465Y-72787494D01*
X174329511Y-72359540D01*
X174323182Y-72355886D01*
X174260989Y-72319979D01*
X174260988Y-72319978D01*
X174260987Y-72319978D01*
X174184564Y-72299500D01*
X174184562Y-72299500D01*
X171465479Y-72299500D01*
X171407288Y-72280593D01*
X171395475Y-72270504D01*
X169440014Y-70315043D01*
X167484511Y-68359540D01*
X167484508Y-68359538D01*
X167415992Y-68319980D01*
X167415988Y-68319978D01*
X167339564Y-68299500D01*
X167339562Y-68299500D01*
X147460438Y-68299500D01*
X147460435Y-68299500D01*
X147384011Y-68319978D01*
X147384007Y-68319980D01*
X147315491Y-68359538D01*
X142265489Y-73409540D01*
X142265488Y-73409539D01*
X142209541Y-73465487D01*
X142184797Y-73508345D01*
X142139327Y-73549285D01*
X142078477Y-73555680D01*
X142025489Y-73525087D01*
X142007597Y-73496729D01*
X141995776Y-73468191D01*
X141993969Y-73465487D01*
X141973003Y-73434108D01*
X141919114Y-73353457D01*
X135235158Y-66669501D01*
X135207383Y-66614987D01*
X135216954Y-66554555D01*
X135260219Y-66511290D01*
X135305164Y-66500500D01*
X177128732Y-66500500D01*
X177186923Y-66519407D01*
G37*
G04 #@! TD.AperFunction*
G04 #@! TA.AperFunction,Conductor*
G36*
X146240677Y-105069685D02*
G01*
X146261319Y-105086319D01*
X146388681Y-105213681D01*
X146422166Y-105275004D01*
X146425000Y-105301362D01*
X146425000Y-106698638D01*
X146405315Y-106765677D01*
X146388681Y-106786319D01*
X146261319Y-106913681D01*
X146199996Y-106947166D01*
X146173638Y-106950000D01*
X144925000Y-106950000D01*
X144776362Y-106950000D01*
X144709323Y-106930315D01*
X144688681Y-106913681D01*
X144561319Y-106786319D01*
X144527834Y-106724996D01*
X144525000Y-106698638D01*
X144525000Y-105301362D01*
X144544685Y-105234323D01*
X144561319Y-105213681D01*
X144688681Y-105086319D01*
X144750004Y-105052834D01*
X144776362Y-105050000D01*
X146173638Y-105050000D01*
X146240677Y-105069685D01*
G37*
G04 #@! TD.AperFunction*
G04 #@! TA.AperFunction,Conductor*
G36*
X148615677Y-114719685D02*
G01*
X148636319Y-114736319D01*
X148763681Y-114863681D01*
X148797166Y-114925004D01*
X148800000Y-114951362D01*
X148800000Y-116348638D01*
X148780315Y-116415677D01*
X148763681Y-116436319D01*
X148636319Y-116563681D01*
X148574996Y-116597166D01*
X148548638Y-116600000D01*
X147151362Y-116600000D01*
X147084323Y-116580315D01*
X147063681Y-116563681D01*
X146686319Y-116186319D01*
X146652834Y-116124996D01*
X146650000Y-116098638D01*
X146650000Y-115301362D01*
X146669685Y-115234323D01*
X146686319Y-115213681D01*
X147163681Y-114736319D01*
X147225004Y-114702834D01*
X147251362Y-114700000D01*
X148548638Y-114700000D01*
X148615677Y-114719685D01*
G37*
G04 #@! TD.AperFunction*
G04 #@! TA.AperFunction,Conductor*
G36*
X117665677Y-97819685D02*
G01*
X117686319Y-97836319D01*
X117913681Y-98063681D01*
X117947166Y-98125004D01*
X117950000Y-98151362D01*
X117950000Y-99148638D01*
X117930315Y-99215677D01*
X117913681Y-99236319D01*
X117686319Y-99463681D01*
X117624996Y-99497166D01*
X117598638Y-99500000D01*
X116901362Y-99500000D01*
X116834323Y-99480315D01*
X116813681Y-99463681D01*
X116386319Y-99036319D01*
X116352834Y-98974996D01*
X116350000Y-98948638D01*
X116350000Y-98251362D01*
X116369685Y-98184323D01*
X116386319Y-98163681D01*
X116713681Y-97836319D01*
X116775004Y-97802834D01*
X116801362Y-97800000D01*
X117598638Y-97800000D01*
X117665677Y-97819685D01*
G37*
G04 #@! TD.AperFunction*
G04 #@! TA.AperFunction,Conductor*
G36*
X141615677Y-95969685D02*
G01*
X141636319Y-95986319D01*
X141763681Y-96113681D01*
X141797166Y-96175004D01*
X141800000Y-96201362D01*
X141800000Y-97598638D01*
X141780315Y-97665677D01*
X141763681Y-97686319D01*
X141636319Y-97813681D01*
X141574996Y-97847166D01*
X141548638Y-97850000D01*
X140300000Y-97850000D01*
X140151362Y-97850000D01*
X140084323Y-97830315D01*
X140063681Y-97813681D01*
X139936319Y-97686319D01*
X139902834Y-97624996D01*
X139900000Y-97598638D01*
X139900000Y-96201362D01*
X139919685Y-96134323D01*
X139936319Y-96113681D01*
X140063681Y-95986319D01*
X140125004Y-95952834D01*
X140151362Y-95950000D01*
X141548638Y-95950000D01*
X141615677Y-95969685D01*
G37*
G04 #@! TD.AperFunction*
G04 #@! TA.AperFunction,Conductor*
G36*
X145540677Y-94519685D02*
G01*
X145561319Y-94536319D01*
X145788681Y-94763681D01*
X145822166Y-94825004D01*
X145825000Y-94851362D01*
X145825000Y-95248638D01*
X145805315Y-95315677D01*
X145788681Y-95336319D01*
X145261319Y-95863681D01*
X145199996Y-95897166D01*
X145173638Y-95900000D01*
X144676362Y-95900000D01*
X144609323Y-95880315D01*
X144588681Y-95863681D01*
X144061319Y-95336319D01*
X144027834Y-95274996D01*
X144025000Y-95248638D01*
X144025000Y-94851362D01*
X144044685Y-94784323D01*
X144061319Y-94763681D01*
X144288681Y-94536319D01*
X144350004Y-94502834D01*
X144376362Y-94500000D01*
X145473638Y-94500000D01*
X145540677Y-94519685D01*
G37*
G04 #@! TD.AperFunction*
G04 #@! TA.AperFunction,Conductor*
G36*
X145415677Y-109219685D02*
G01*
X145436319Y-109236319D01*
X145563681Y-109363681D01*
X145597166Y-109425004D01*
X145600000Y-109451362D01*
X145600000Y-110848638D01*
X145580315Y-110915677D01*
X145563681Y-110936319D01*
X145436319Y-111063681D01*
X145374996Y-111097166D01*
X145348638Y-111100000D01*
X143951362Y-111100000D01*
X143884323Y-111080315D01*
X143863681Y-111063681D01*
X143736319Y-110936319D01*
X143702834Y-110874996D01*
X143700000Y-110848638D01*
X143700000Y-109551362D01*
X143719685Y-109484323D01*
X143736319Y-109463681D01*
X143963681Y-109236319D01*
X144025004Y-109202834D01*
X144051362Y-109200000D01*
X145348638Y-109200000D01*
X145415677Y-109219685D01*
G37*
G04 #@! TD.AperFunction*
G04 #@! TA.AperFunction,Conductor*
G36*
X119265677Y-69319685D02*
G01*
X119286319Y-69336319D01*
X119513681Y-69563681D01*
X119547166Y-69625004D01*
X119550000Y-69651362D01*
X119550000Y-70273638D01*
X119530315Y-70340677D01*
X119513681Y-70361319D01*
X118786319Y-71088681D01*
X118724996Y-71122166D01*
X118698638Y-71125000D01*
X118001362Y-71125000D01*
X117934323Y-71105315D01*
X117913681Y-71088681D01*
X117686319Y-70861319D01*
X117652834Y-70799996D01*
X117650000Y-70773638D01*
X117650000Y-69776362D01*
X117669685Y-69709323D01*
X117686319Y-69688681D01*
X118038681Y-69336319D01*
X118100004Y-69302834D01*
X118126362Y-69300000D01*
X119198638Y-69300000D01*
X119265677Y-69319685D01*
G37*
G04 #@! TD.AperFunction*
G04 #@! TA.AperFunction,Conductor*
G36*
X126565677Y-97169685D02*
G01*
X126586319Y-97186319D01*
X126963681Y-97563681D01*
X126997166Y-97625004D01*
X127000000Y-97651362D01*
X127000000Y-98126000D01*
X126980315Y-98193039D01*
X126927511Y-98238794D01*
X126876000Y-98250000D01*
X126750000Y-98250000D01*
X125501362Y-98250000D01*
X125434323Y-98230315D01*
X125413681Y-98213681D01*
X125086319Y-97886319D01*
X125052834Y-97824996D01*
X125050000Y-97798638D01*
X125050000Y-97501362D01*
X125069685Y-97434323D01*
X125086319Y-97413681D01*
X125313681Y-97186319D01*
X125375004Y-97152834D01*
X125401362Y-97150000D01*
X126498638Y-97150000D01*
X126565677Y-97169685D01*
G37*
G04 #@! TD.AperFunction*
G04 #@! TA.AperFunction,Conductor*
G36*
X161315677Y-90319685D02*
G01*
X161336319Y-90336319D01*
X161463681Y-90463681D01*
X161497166Y-90525004D01*
X161500000Y-90551362D01*
X161500000Y-92248638D01*
X161480315Y-92315677D01*
X161463681Y-92336319D01*
X161336319Y-92463681D01*
X161274996Y-92497166D01*
X161248638Y-92500000D01*
X160551362Y-92500000D01*
X160484323Y-92480315D01*
X160463681Y-92463681D01*
X160336319Y-92336319D01*
X160302834Y-92274996D01*
X160300000Y-92248638D01*
X160300000Y-90551362D01*
X160319685Y-90484323D01*
X160336319Y-90463681D01*
X160463681Y-90336319D01*
X160525004Y-90302834D01*
X160551362Y-90300000D01*
X161248638Y-90300000D01*
X161315677Y-90319685D01*
G37*
G04 #@! TD.AperFunction*
M02*
