G04 #@! TF.GenerationSoftware,KiCad,Pcbnew,8.0.2-8.0.2-0~ubuntu23.10.1*
G04 #@! TF.CreationDate,2024-05-23T14:55:55+07:00*
G04 #@! TF.ProjectId,Node_Analog,4e6f6465-5f41-46e6-916c-6f672e6b6963,rev?*
G04 #@! TF.SameCoordinates,Original*
G04 #@! TF.FileFunction,Profile,NP*
%FSLAX46Y46*%
G04 Gerber Fmt 4.6, Leading zero omitted, Abs format (unit mm)*
G04 Created by KiCad (PCBNEW 8.0.2-8.0.2-0~ubuntu23.10.1) date 2024-05-23 14:55:55*
%MOMM*%
%LPD*%
G01*
G04 APERTURE LIST*
G04 #@! TA.AperFunction,Profile*
%ADD10C,0.250000*%
G04 #@! TD*
G04 APERTURE END LIST*
D10*
X104100000Y-118700000D02*
X104100000Y-119700000D01*
X174900000Y-115000000D02*
X174900000Y-115200000D01*
X104100000Y-66000000D02*
X178400000Y-66000000D01*
X104100000Y-67000000D02*
X104100000Y-66000000D01*
X103900000Y-74200000D02*
G75*
G02*
X101800000Y-73500000I0J3500000D01*
G01*
X174900000Y-70500000D02*
X174900000Y-70700000D01*
X178600000Y-74200000D02*
X178400000Y-74200000D01*
X104100000Y-111500000D02*
G75*
G02*
X107600000Y-115000000I0J-3500000D01*
G01*
X178600000Y-111500000D02*
G75*
G02*
X180700000Y-112200000I0J-3500000D01*
G01*
X104100000Y-111500000D02*
X103900000Y-111500000D01*
X104100000Y-74200000D02*
X103900000Y-74200000D01*
X180700000Y-73500000D02*
G75*
G02*
X178600000Y-74200000I-2100000J2800000D01*
G01*
X174900000Y-70500000D02*
G75*
G02*
X178400000Y-67000000I3500000J0D01*
G01*
X183100000Y-73500000D02*
X180700000Y-73500000D01*
X101800000Y-112200000D02*
X99400000Y-112200000D01*
X99400000Y-73500000D02*
X99400000Y-112200000D01*
X183100000Y-73500000D02*
X183100000Y-112200000D01*
X107600000Y-70700000D02*
X107600000Y-70500000D01*
X101800000Y-112200000D02*
G75*
G02*
X103900000Y-111500000I2100000J-2800000D01*
G01*
X174900000Y-115000000D02*
G75*
G02*
X178400000Y-111500000I3500000J0D01*
G01*
X107600000Y-115000000D02*
X107600000Y-115200000D01*
X107600000Y-115200000D02*
G75*
G02*
X104100000Y-118700000I-3500000J0D01*
G01*
X180700000Y-112200000D02*
X183100000Y-112200000D01*
X101800000Y-73500000D02*
X99400000Y-73500000D01*
X178400000Y-74200000D02*
G75*
G02*
X174900000Y-70700000I0J3500000D01*
G01*
X178400000Y-111500000D02*
X178600000Y-111500000D01*
X104100000Y-67000000D02*
G75*
G02*
X107600000Y-70500000I0J-3500000D01*
G01*
X178400000Y-118700000D02*
G75*
G02*
X174900000Y-115200000I0J3500000D01*
G01*
X107600000Y-70700000D02*
G75*
G02*
X104100000Y-74200000I-3500000J0D01*
G01*
X178400000Y-118700000D02*
X178400000Y-119700000D01*
X104100000Y-119700000D02*
X178400000Y-119700000D01*
X178400000Y-66000000D02*
X178400000Y-67000000D01*
M02*
