M48
; DRILL file {KiCad 8.0.2-8.0.2-0~ubuntu23.10.1} date 2024-05-02T10:33:16+0700
; FORMAT={-:-/ absolute / metric / decimal}
; #@! TF.CreationDate,2024-05-02T10:33:16+07:00
; #@! TF.GenerationSoftware,Kicad,Pcbnew,8.0.2-8.0.2-0~ubuntu23.10.1
; #@! TF.FileFunction,Plated,1,2,PTH
FMAT,2
METRIC
; #@! TA.AperFunction,Plated,PTH,ViaDrill
T1C0.300
; #@! TA.AperFunction,Plated,PTH,ComponentDrill
T2C0.300
; #@! TA.AperFunction,Plated,PTH,ViaDrill
T3C0.400
; #@! TA.AperFunction,Plated,PTH,ComponentDrill
T4C0.400
; #@! TA.AperFunction,Plated,PTH,ComponentDrill
T5C0.600
; #@! TA.AperFunction,Plated,PTH,ComponentDrill
T6C0.800
; #@! TA.AperFunction,Plated,PTH,ComponentDrill
T7C1.000
; #@! TA.AperFunction,Plated,PTH,ComponentDrill
T8C1.100
; #@! TA.AperFunction,Plated,PTH,ComponentDrill
T9C1.200
; #@! TA.AperFunction,Plated,PTH,ComponentDrill
T10C1.400
%
G90
G05
T1
X107.1Y-102.25
X109.45Y-104.7
X110.5Y-86.775
X110.525Y-97.35
X111.475Y-82.975
X111.475Y-93.525
X111.675Y-104.7
X114.6Y-103.2
X114.6Y-104.6
X114.6Y-106.1
X114.9Y-95.6
X115.4Y-102.0
X115.4Y-107.1
X115.45Y-96.65
X115.8Y-86.0
X116.9Y-102.0
X116.9Y-107.1
X118.3Y-102.0
X118.3Y-107.2
X119.9Y-106.2
X119.975Y-77.9
X119.975Y-78.9
X119.975Y-82.9
X120.425Y-103.2
X121.026Y-102.663
X122.25Y-74.475
X122.25Y-75.3
X122.25Y-86.475
X125.175Y-82.6
X127.45Y-96.325
X127.45Y-106.875
X128.075Y-105.8
X128.075Y-82.6
X128.1Y-102.25
X128.125Y-105.0
X128.25Y-96.325
X135.075Y-83.875
X136.75Y-94.475
X137.1Y-80.595
X139.625Y-75.95
X141.9Y-116.725
X144.425Y-112.2
X144.625Y-116.725
X171.475Y-76.1
T2
X124.85Y-113.7
X142.65Y-114.737
X142.65Y-115.837
X143.2Y-115.287
X143.75Y-114.737
X143.75Y-115.837
X145.875Y-101.55
X146.45Y-100.6
X146.45Y-102.5
X147.025Y-101.55
T3
X101.0Y-75.3
X101.0Y-77.84
X101.0Y-80.38
X101.0Y-82.92
X101.0Y-85.46
X101.0Y-88.0
X101.0Y-90.54
X101.0Y-93.08
X101.0Y-95.62
X101.0Y-98.16
X101.0Y-103.24
X101.0Y-105.78
X101.0Y-110.86
X102.8Y-109.0
X103.0Y-75.3
X105.0Y-98.6
X105.3Y-75.3
X105.3Y-83.5
X105.4Y-79.7
X105.4Y-88.9
X105.4Y-94.2
X106.7Y-78.1
X107.2Y-75.0
X107.3Y-107.9
X107.4Y-67.1
X107.4Y-101.3
X107.64Y-111.4
X108.1Y-99.6
X108.19Y-74.07
X108.3Y-84.8
X108.3Y-95.1
X108.84Y-109.2
X108.84Y-113.4
X108.9Y-67.1
X109.3Y-81.6
X109.8Y-101.3
X110.0Y-78.1
X110.18Y-111.4
X110.3Y-107.8
X110.6Y-99.6
X110.8Y-72.8
X111.3Y-101.9
X111.3Y-106.8
X111.38Y-109.2
X111.38Y-113.4
X112.2Y-89.1
X112.3Y-96.0
X112.4Y-85.4
X112.5Y-101.3
X112.5Y-103.3
X112.6Y-92.4
X112.72Y-111.4
X112.9Y-106.1
X113.2Y-99.6
X113.92Y-109.2
X113.92Y-113.4
X114.0Y-82.5
X114.2Y-94.1
X114.2Y-96.5
X114.3Y-85.4
X114.8Y-80.8
X114.8Y-91.2
X115.26Y-111.4
X115.5Y-99.6
X115.8Y-79.8
X116.1Y-68.4
X116.46Y-109.2
X116.46Y-113.4
X116.8Y-70.1
X116.9Y-78.5
X117.0Y-79.9
X117.0Y-82.1
X117.0Y-84.3
X117.5Y-85.7
X117.55Y-98.2
X117.55Y-99.1
X117.8Y-111.4
X117.9Y-93.0
X118.0Y-91.3
X118.175Y-69.8
X118.5Y-68.3
X118.6Y-88.2
X118.675Y-70.5
X119.0Y-107.7
X119.0Y-109.2
X119.0Y-113.4
X119.175Y-69.8
X119.2Y-89.5
X119.5Y-85.3
X119.7Y-101.6
X120.0Y-79.9
X120.2Y-107.7
X120.2Y-112.4
X120.2Y-113.4
X120.4Y-108.9
X120.4Y-111.4
X120.8Y-68.3
X121.4Y-71.7
X121.425Y-105.125
X121.5Y-109.2
X121.5Y-110.3
X121.5Y-111.4
X121.5Y-113.4
X121.9Y-100.2
X121.9Y-107.2
X122.3Y-89.4
X122.5Y-68.4
X123.4Y-99.0
X123.4Y-100.1
X123.8Y-76.1
X123.8Y-79.7
X123.8Y-81.8
X123.8Y-84.2
X123.9Y-109.7
X123.9Y-110.8
X123.9Y-111.9
X123.9Y-113.0
X124.0Y-96.1
X124.8Y-68.5
X125.0Y-89.4
X125.1Y-100.1
X125.1Y-107.2
X125.55Y-97.65
X126.1Y-96.1
X126.42Y-113.4
X126.45Y-97.65
X126.45Y-109.175
X126.6Y-81.8
X126.6Y-84.2
X126.7Y-72.3
X126.7Y-74.2
X126.7Y-76.1
X126.7Y-79.7
X127.8Y-111.3
X128.0Y-89.4
X128.2Y-68.5
X128.7Y-94.8
X128.96Y-113.4
X129.2Y-91.6
X129.4Y-76.1
X129.4Y-79.7
X129.4Y-81.8
X129.4Y-84.2
X129.6Y-109.4
X129.9Y-71.6
X130.1Y-68.5
X130.2Y-86.4
X130.25Y-105.0
X130.7Y-89.4
X131.4Y-106.3
X131.5Y-113.4
X131.5Y-116.1
X131.5Y-118.5
X131.6Y-76.1
X131.8Y-71.6
X132.2Y-73.9
X132.3Y-68.5
X132.5Y-81.8
X132.5Y-84.2
X132.6Y-87.3
X132.6Y-89.4
X133.6Y-71.6
X134.0Y-97.12
X134.0Y-99.66
X134.0Y-102.2
X134.04Y-118.5
X134.2Y-68.5
X134.2Y-92.4
X134.2Y-94.9
X134.3Y-73.9
X134.8Y-87.3
X134.8Y-109.5
X135.1Y-75.7
X135.1Y-78.0
X135.2Y-110.4
X135.2Y-111.9
X135.2Y-113.7
X135.5Y-69.9
X135.9Y-73.9
X136.0Y-81.6
X136.4Y-110.5
X136.4Y-111.3
X136.4Y-112.2
X136.58Y-118.5
X136.9Y-95.74
X136.9Y-98.28
X136.9Y-100.82
X136.9Y-103.36
X137.0Y-71.3
X137.1Y-113.9
X137.78Y-67.2
X138.0Y-107.5
X138.0Y-108.8
X138.2Y-87.8
X138.3Y-76.6
X138.3Y-79.5
X138.4Y-72.8
X138.4Y-81.6
X138.4Y-83.9
X138.4Y-85.3
X138.4Y-91.6
X138.4Y-92.8
X138.4Y-96.9
X138.7Y-113.9
X138.8Y-105.8
X139.12Y-118.5
X140.0Y-110.3
X140.32Y-67.2
X140.4Y-96.45
X140.4Y-97.35
X141.0Y-112.6
X141.1Y-106.3
X141.1Y-108.8
X141.3Y-96.45
X141.3Y-97.35
X141.66Y-118.5
X141.7Y-69.4
X142.86Y-67.2
X142.9Y-110.3
X144.2Y-109.7
X144.2Y-110.6
X144.2Y-118.5
X144.24Y-69.4
X144.3Y-82.8
X144.425Y-95.05
X144.5Y-75.4
X144.5Y-79.0
X144.7Y-87.8
X145.025Y-105.55
X145.025Y-106.45
X145.1Y-109.7
X145.1Y-110.6
X145.2Y-81.7
X145.4Y-67.2
X145.425Y-95.05
X145.8Y-78.2
X145.925Y-105.55
X145.925Y-106.45
X146.0Y-82.8
X146.4Y-76.6
X146.4Y-96.9
X146.5Y-99.5
X146.5Y-103.6
X146.74Y-118.5
X146.78Y-69.4
X146.8Y-74.2
X146.9Y-95.1
X147.3Y-97.7
X147.4Y-115.2
X147.4Y-116.1
X147.6Y-103.3
X147.7Y-75.4
X147.7Y-81.7
X147.8Y-77.7
X147.94Y-67.2
X148.3Y-96.9
X148.3Y-115.2
X148.3Y-116.1
X148.6Y-103.3
X148.7Y-99.8
X148.7Y-101.0
X148.9Y-106.0
X149.1Y-112.7
X149.28Y-118.5
X149.3Y-95.1
X149.32Y-69.4
X149.4Y-82.8
X149.4Y-84.7
X149.4Y-86.0
X149.4Y-107.9
X149.7Y-75.2
X149.9Y-99.8
X149.9Y-114.0
X149.9Y-116.5
X150.48Y-67.2
X150.7Y-76.2
X150.8Y-115.0
X151.1Y-79.3
X151.1Y-81.7
X151.1Y-83.8
X151.2Y-87.0
X151.2Y-88.7
X151.2Y-90.2
X151.86Y-69.4
X152.8Y-75.0
X153.0Y-115.0
X153.02Y-67.2
X153.2Y-84.9
X153.2Y-87.0
X153.2Y-88.8
X153.2Y-90.2
X154.1Y-112.7
X154.36Y-118.5
X154.4Y-69.4
X154.4Y-116.5
X154.7Y-88.8
X154.7Y-90.2
X154.7Y-109.8
X155.2Y-75.0
X155.2Y-77.6
X155.5Y-82.2
X155.56Y-67.2
X155.6Y-87.0
X155.8Y-111.5
X155.8Y-113.8
X155.9Y-84.0
X156.6Y-85.0
X156.94Y-69.4
X157.06Y-116.2
X157.3Y-75.0
X157.3Y-77.6
X158.0Y-111.1
X158.1Y-67.2
X158.3Y-116.2
X158.5Y-108.6
X159.1Y-114.8
X159.48Y-69.4
X159.6Y-116.2
X160.0Y-90.4
X160.4Y-81.2
X160.64Y-67.2
X160.7Y-84.0
X160.7Y-86.093
X160.9Y-79.1
X161.2Y-77.3
X161.38Y-92.6
X161.98Y-118.5
X162.02Y-69.4
X162.1Y-85.3
X162.54Y-90.4
X163.1Y-73.5
X163.6Y-67.2
X163.8Y-77.3
X163.92Y-92.6
X164.5Y-73.5
X164.52Y-118.5
X164.98Y-69.4
X165.08Y-90.4
X165.2Y-94.7
X165.9Y-85.36
X165.9Y-87.9
X166.06Y-98.9
X166.06Y-101.7
X166.14Y-67.2
X166.46Y-92.6
X166.5Y-79.6
X166.5Y-82.6
X166.58Y-96.9
X166.6Y-74.8
X166.7Y-77.0
X167.06Y-118.5
X167.52Y-69.4
X167.62Y-90.4
X167.74Y-94.7
X167.9Y-73.3
X168.6Y-98.9
X168.6Y-101.7
X168.6Y-114.5
X168.68Y-67.2
X168.9Y-85.26
X168.9Y-87.8
X169.0Y-92.6
X169.1Y-74.8
X169.12Y-96.9
X169.6Y-118.5
X170.06Y-69.4
X170.28Y-94.7
X171.06Y-79.6
X171.1Y-83.66
X171.1Y-86.2
X171.22Y-67.2
X171.3Y-112.5
X171.3Y-116.3
X171.4Y-81.5
X171.6Y-92.3
X171.66Y-96.9
X171.76Y-87.8
X171.9Y-108.7
X172.14Y-118.5
X172.4Y-98.4
X172.6Y-69.4
X172.7Y-75.5
X172.78Y-83.7
X172.82Y-94.7
X173.2Y-71.7
X173.4Y-99.4
X173.6Y-79.6
X173.9Y-67.2
X173.9Y-110.5
X173.9Y-112.9
X173.94Y-81.5
X174.14Y-92.3
X174.2Y-96.9
X174.3Y-87.8
X174.68Y-118.5
X175.2Y-74.3
X175.32Y-83.7
X176.48Y-81.5
X176.86Y-89.8
X176.86Y-94.6
X176.86Y-98.3
X177.0Y-108.7
X177.86Y-83.7
X179.02Y-81.5
X179.4Y-89.8
X179.4Y-94.6
X179.4Y-98.3
X180.4Y-83.7
X181.4Y-74.7
X181.4Y-77.38
X181.4Y-79.92
X181.4Y-82.46
X181.4Y-85.0
X181.4Y-87.96
X181.4Y-90.5
X181.4Y-93.04
X181.4Y-95.58
X181.4Y-98.12
X181.4Y-100.66
X181.4Y-103.2
X181.4Y-105.74
X181.4Y-108.28
X181.4Y-110.82
T4
X124.2Y-103.05
X124.2Y-104.225
X124.8Y-103.625
X125.4Y-103.05
X125.4Y-104.225
T6
X153.2Y-78.14
X153.2Y-80.68
X153.2Y-83.22
X168.0Y-78.15
X168.0Y-80.69
X168.0Y-83.23
X175.435Y-76.43
X175.435Y-78.97
X177.975Y-76.43
X177.975Y-78.97
T7
X111.46Y-68.955
X111.46Y-71.495
X111.46Y-74.035
X111.46Y-76.575
X114.0Y-68.955
X114.0Y-71.495
X114.0Y-74.035
X114.0Y-76.575
X119.62Y-92.95
X122.16Y-92.95
X124.7Y-92.95
X127.24Y-92.95
X129.78Y-92.95
X132.32Y-92.95
X133.535Y-116.25
X136.075Y-116.25
T8
X105.4Y-81.4
X105.4Y-85.9
X105.4Y-91.95
X105.4Y-96.45
T9
X178.1Y-87.9
X178.1Y-91.71
X178.1Y-102.69
X178.1Y-106.5
T10
X107.9Y-80.15
X107.9Y-87.15
X107.9Y-90.7
X107.9Y-97.7
T5
X101.15Y-100.38G85X100.55Y-100.38
G05
X101.15Y-109.02G85X100.55Y-109.02
G05
X105.58Y-100.38G85X104.48Y-100.38
G05
X105.58Y-109.02G85X104.48Y-109.02
G05
M30
