M48
; DRILL file {KiCad 8.0.2-8.0.2-0~ubuntu23.10.1} date 2024-05-23T14:56:00+0700
; FORMAT={-:-/ absolute / metric / decimal}
; #@! TF.CreationDate,2024-05-23T14:56:00+07:00
; #@! TF.GenerationSoftware,Kicad,Pcbnew,8.0.2-8.0.2-0~ubuntu23.10.1
; #@! TF.FileFunction,Plated,1,2,PTH
FMAT,2
METRIC
; #@! TA.AperFunction,Plated,PTH,ViaDrill
T1C0.300
; #@! TA.AperFunction,Plated,PTH,ComponentDrill
T2C0.300
; #@! TA.AperFunction,Plated,PTH,ViaDrill
T3C0.400
; #@! TA.AperFunction,Plated,PTH,ComponentDrill
T4C0.400
; #@! TA.AperFunction,Plated,PTH,ComponentDrill
T5C0.600
; #@! TA.AperFunction,Plated,PTH,ComponentDrill
T6C0.800
; #@! TA.AperFunction,Plated,PTH,ComponentDrill
T7C1.000
; #@! TA.AperFunction,Plated,PTH,ComponentDrill
T8C1.100
; #@! TA.AperFunction,Plated,PTH,ComponentDrill
T9C1.200
; #@! TA.AperFunction,Plated,PTH,ComponentDrill
T10C1.400
%
G90
G05
T1
X107.1Y-102.25
X109.45Y-104.7
X110.5Y-86.775
X110.525Y-97.35
X111.475Y-82.975
X111.475Y-93.525
X111.675Y-104.7
X114.6Y-103.2
X114.6Y-104.6
X114.6Y-106.1
X114.9Y-95.6
X115.4Y-102.0
X115.4Y-107.1
X115.45Y-96.65
X115.8Y-86.0
X116.9Y-102.0
X116.9Y-107.1
X118.3Y-102.0
X118.3Y-107.2
X119.9Y-106.2
X119.975Y-77.9
X119.975Y-82.9
X120.425Y-103.2
X121.026Y-102.663
X122.25Y-74.475
X122.25Y-75.3
X122.25Y-89.3
X125.175Y-82.6
X127.45Y-96.325
X127.45Y-106.875
X128.075Y-105.8
X128.075Y-82.6
X128.1Y-102.25
X128.125Y-105.0
X128.25Y-96.325
X135.0Y-79.9
X136.3Y-77.0
X138.474Y-74.774
X138.5Y-85.6
X138.6Y-109.1
X141.9Y-116.725
X144.425Y-112.2
X144.625Y-116.725
X147.371Y-106.129
X148.925Y-102.5
X150.2Y-105.9
X151.7Y-82.7
X156.2Y-86.6
X171.4Y-73.4
T2
X124.85Y-113.7
X142.65Y-114.737
X142.65Y-115.837
X143.2Y-115.287
X143.75Y-114.737
X143.75Y-115.837
X145.875Y-101.55
X146.45Y-100.6
X146.45Y-102.5
X147.025Y-101.55
T3
X101.0Y-75.3
X101.0Y-77.84
X101.0Y-80.38
X101.0Y-82.92
X101.0Y-85.46
X101.0Y-88.0
X101.0Y-90.54
X101.0Y-93.08
X101.0Y-95.62
X101.0Y-98.16
X101.0Y-103.24
X101.0Y-105.78
X101.0Y-110.86
X102.8Y-109.0
X103.0Y-75.3
X105.0Y-98.6
X105.3Y-75.3
X105.3Y-83.5
X105.4Y-79.7
X105.4Y-88.9
X105.4Y-94.2
X106.7Y-78.1
X107.2Y-75.0
X107.3Y-107.9
X107.4Y-67.1
X107.4Y-101.3
X107.64Y-111.4
X108.1Y-99.6
X108.19Y-74.07
X108.3Y-84.8
X108.3Y-95.1
X108.84Y-109.2
X108.84Y-112.5
X108.9Y-67.1
X109.3Y-81.6
X109.8Y-101.3
X110.0Y-78.1
X110.18Y-111.4
X110.3Y-107.8
X110.6Y-99.6
X110.8Y-72.8
X111.3Y-101.9
X111.3Y-106.8
X111.38Y-109.2
X111.38Y-112.5
X112.2Y-89.1
X112.3Y-96.0
X112.4Y-85.4
X112.5Y-101.3
X112.5Y-103.3
X112.6Y-92.4
X112.72Y-111.4
X112.9Y-106.1
X113.2Y-99.6
X113.92Y-109.2
X113.92Y-112.5
X114.0Y-82.5
X114.2Y-94.1
X114.2Y-96.5
X114.3Y-85.4
X114.8Y-80.8
X114.8Y-91.2
X115.26Y-111.4
X115.5Y-99.6
X115.8Y-79.8
X116.1Y-68.4
X116.46Y-109.2
X116.46Y-112.5
X116.8Y-70.1
X116.9Y-78.5
X117.0Y-79.9
X117.0Y-82.1
X117.0Y-84.3
X117.5Y-85.7
X117.55Y-98.2
X117.55Y-99.1
X117.8Y-111.4
X117.9Y-93.0
X118.0Y-91.3
X118.175Y-69.8
X118.5Y-68.3
X118.6Y-88.2
X118.675Y-70.5
X119.0Y-107.7
X119.0Y-109.2
X119.0Y-112.5
X119.175Y-69.8
X119.5Y-85.3
X119.7Y-101.6
X120.0Y-79.9
X120.2Y-107.7
X120.2Y-112.4
X120.4Y-108.9
X120.4Y-111.4
X120.8Y-68.3
X121.4Y-71.7
X121.425Y-105.125
X121.5Y-109.2
X121.5Y-110.3
X121.5Y-111.4
X121.9Y-100.2
X121.9Y-107.2
X122.5Y-68.4
X123.4Y-99.0
X123.4Y-100.1
X123.8Y-76.1
X123.8Y-79.7
X123.8Y-81.8
X123.8Y-84.2
X123.9Y-109.7
X123.9Y-110.8
X123.9Y-111.9
X124.0Y-96.1
X124.8Y-68.5
X124.9Y-112.5
X125.0Y-89.4
X125.1Y-100.1
X125.1Y-107.2
X125.55Y-97.65
X126.1Y-96.1
X126.45Y-97.65
X126.45Y-109.175
X126.6Y-81.8
X126.6Y-84.2
X126.7Y-72.3
X126.7Y-74.2
X126.7Y-76.1
X126.7Y-79.7
X126.9Y-112.4
X127.8Y-111.3
X128.0Y-89.4
X128.2Y-68.5
X128.7Y-94.8
X128.96Y-112.4
X129.2Y-91.6
X129.4Y-76.1
X129.4Y-79.7
X129.4Y-81.8
X129.4Y-84.2
X129.6Y-109.4
X129.9Y-71.6
X130.1Y-68.5
X130.2Y-86.4
X130.525Y-104.725
X130.7Y-89.4
X130.9Y-108.2
X131.1Y-110.4
X131.5Y-113.4
X131.5Y-116.1
X131.5Y-118.5
X131.6Y-76.1
X131.8Y-71.6
X132.2Y-73.9
X132.3Y-68.5
X132.5Y-81.8
X132.5Y-84.2
X132.6Y-87.3
X132.6Y-89.4
X132.9Y-112.4
X133.6Y-71.6
X133.64Y-110.4
X134.0Y-98.22
X134.0Y-100.76
X134.0Y-103.3
X134.0Y-106.0
X134.0Y-108.54
X134.04Y-118.5
X134.2Y-68.5
X134.2Y-93.5
X134.2Y-96.0
X134.3Y-73.9
X134.3Y-75.8
X134.8Y-83.2
X134.8Y-87.3
X135.3Y-69.7
X135.9Y-73.9
X136.3Y-79.8
X136.3Y-84.4
X136.3Y-87.92
X136.3Y-90.46
X136.3Y-93.0
X136.58Y-118.5
X136.6Y-78.0
X136.7Y-95.68
X136.7Y-98.22
X136.7Y-100.76
X136.7Y-103.3
X136.7Y-106.0
X136.7Y-108.54
X137.0Y-71.3
X137.2Y-67.2
X137.7Y-76.2
X138.0Y-80.1
X138.3Y-82.0
X138.4Y-78.0
X138.7Y-97.1
X138.8Y-105.8
X139.12Y-118.5
X139.6Y-67.2
X140.0Y-110.3
X140.4Y-96.45
X140.4Y-97.35
X141.0Y-112.6
X141.2Y-108.3
X141.3Y-96.45
X141.3Y-97.35
X141.4Y-106.1
X141.5Y-110.1
X141.66Y-118.5
X142.2Y-67.2
X142.3Y-72.3
X142.9Y-110.3
X143.4Y-71.0
X144.2Y-109.7
X144.2Y-110.6
X144.2Y-118.5
X144.425Y-95.05
X144.7Y-81.3
X144.7Y-87.8
X144.8Y-69.8
X144.8Y-78.2
X145.025Y-105.55
X145.025Y-106.45
X145.1Y-67.2
X145.1Y-109.7
X145.1Y-110.6
X145.425Y-95.05
X145.925Y-105.55
X145.925Y-106.45
X146.4Y-96.9
X146.5Y-99.5
X146.5Y-103.6
X146.74Y-118.5
X147.2Y-78.2
X147.3Y-97.7
X147.4Y-115.2
X147.4Y-116.1
X147.5Y-81.3
X147.6Y-103.3
X147.64Y-67.2
X147.7Y-75.0
X148.1Y-72.1
X148.3Y-96.9
X148.3Y-115.2
X148.3Y-116.1
X148.6Y-99.8
X149.0Y-108.4
X149.1Y-112.7
X149.28Y-118.5
X149.4Y-84.7
X149.4Y-86.0
X149.8Y-70.4
X149.9Y-81.4
X149.9Y-114.0
X149.9Y-116.5
X150.18Y-67.2
X150.3Y-85.3
X150.3Y-86.7
X150.8Y-115.0
X151.3Y-72.3
X152.1Y-79.0
X152.1Y-80.6
X152.72Y-67.2
X153.0Y-115.0
X153.2Y-70.4
X153.4Y-73.0
X154.1Y-112.7
X154.36Y-118.5
X154.4Y-86.4
X154.4Y-89.6
X154.4Y-92.0
X154.4Y-93.8
X154.4Y-116.5
X154.5Y-87.9
X154.6Y-84.6
X154.7Y-109.8
X155.26Y-67.2
X155.8Y-111.5
X155.8Y-113.8
X156.0Y-79.7
X156.6Y-77.1
X156.9Y-81.9
X157.0Y-91.4
X157.0Y-93.8
X157.06Y-116.2
X157.5Y-73.2
X157.8Y-79.7
X157.9Y-67.2
X157.9Y-86.1
X158.0Y-84.7
X158.0Y-111.1
X158.3Y-116.2
X158.5Y-108.6
X159.1Y-114.8
X159.3Y-73.3
X159.6Y-116.2
X159.9Y-84.0
X160.0Y-69.9
X160.2Y-74.1
X160.44Y-67.2
X160.9Y-90.8
X160.9Y-91.8
X161.4Y-83.8
X161.6Y-75.4
X161.8Y-70.3
X161.98Y-118.5
X162.2Y-72.9
X162.4Y-82.7
X162.6Y-78.2
X162.98Y-67.2
X163.5Y-87.9
X163.6Y-81.2
X163.9Y-70.3
X164.52Y-118.5
X164.9Y-82.7
X165.0Y-96.9
X165.1Y-101.5
X165.52Y-67.2
X166.3Y-70.3
X166.3Y-74.0
X166.6Y-99.8
X166.7Y-77.9
X167.0Y-80.7
X167.06Y-118.5
X167.2Y-82.7
X167.2Y-95.6
X167.6Y-71.5
X168.1Y-85.3
X168.1Y-86.8
X168.6Y-114.5
X168.8Y-67.2
X168.9Y-86.0
X168.9Y-96.7
X168.9Y-101.6
X169.1Y-73.8
X169.1Y-76.4
X169.1Y-98.2
X169.6Y-79.3
X169.6Y-118.5
X170.0Y-82.3
X171.1Y-85.8
X171.3Y-112.5
X171.3Y-116.3
X171.5Y-83.7
X171.7Y-69.5
X171.8Y-67.2
X171.9Y-108.7
X172.0Y-80.2
X172.14Y-118.5
X172.4Y-96.1
X172.7Y-71.1
X172.9Y-86.0
X173.0Y-89.4
X173.2Y-91.1
X173.3Y-73.4
X173.4Y-99.4
X173.6Y-74.7
X173.9Y-81.5
X173.9Y-110.5
X173.9Y-112.9
X174.4Y-91.1
X174.6Y-97.8
X174.68Y-118.5
X174.7Y-87.7
X175.1Y-74.7
X176.86Y-89.8
X176.86Y-98.3
X176.9Y-81.7
X176.9Y-86.0
X177.0Y-108.7
X179.2Y-81.7
X179.2Y-86.0
X179.4Y-89.8
X179.4Y-98.3
X181.4Y-75.22
X181.4Y-77.76
X181.4Y-80.3
X181.4Y-82.9
X181.4Y-85.44
X181.4Y-87.98
X181.4Y-90.52
X181.4Y-93.06
X181.4Y-95.6
X181.4Y-98.12
X181.4Y-100.66
X181.4Y-103.2
X181.4Y-105.74
X181.4Y-108.28
X181.4Y-110.82
T4
X124.2Y-103.05
X124.2Y-104.225
X124.8Y-103.625
X125.4Y-103.05
X125.4Y-104.225
T6
X149.4Y-73.95
X149.4Y-76.49
X149.4Y-79.03
X164.1Y-73.96
X164.1Y-76.5
X164.1Y-79.04
X175.435Y-76.43
X175.435Y-78.97
X177.975Y-76.43
X177.975Y-78.97
T7
X111.46Y-68.955
X111.46Y-71.495
X111.46Y-74.035
X111.46Y-76.575
X114.0Y-68.955
X114.0Y-71.495
X114.0Y-74.035
X114.0Y-76.575
X119.62Y-92.95
X122.16Y-92.95
X124.7Y-92.95
X127.24Y-92.95
X129.78Y-92.95
X132.32Y-92.95
X133.535Y-116.25
X136.075Y-116.25
T8
X105.4Y-81.4
X105.4Y-85.9
X105.4Y-91.95
X105.4Y-96.45
T9
X178.1Y-84.1
X178.1Y-87.91
X178.1Y-91.72
X178.1Y-95.53
X178.1Y-102.69
X178.1Y-106.5
T10
X107.9Y-80.15
X107.9Y-87.15
X107.9Y-90.7
X107.9Y-97.7
T5
X101.15Y-100.38G85X100.55Y-100.38
G05
X101.15Y-109.02G85X100.55Y-109.02
G05
X105.58Y-100.38G85X104.48Y-100.38
G05
X105.58Y-109.02G85X104.48Y-109.02
G05
M30
