G04 #@! TF.GenerationSoftware,KiCad,Pcbnew,8.0.2-8.0.2-0~ubuntu23.10.1*
G04 #@! TF.CreationDate,2024-05-02T10:32:58+07:00*
G04 #@! TF.ProjectId,Node_Analog,4e6f6465-5f41-46e6-916c-6f672e6b6963,rev?*
G04 #@! TF.SameCoordinates,Original*
G04 #@! TF.FileFunction,Soldermask,Bot*
G04 #@! TF.FilePolarity,Negative*
%FSLAX46Y46*%
G04 Gerber Fmt 4.6, Leading zero omitted, Abs format (unit mm)*
G04 Created by KiCad (PCBNEW 8.0.2-8.0.2-0~ubuntu23.10.1) date 2024-05-02 10:32:58*
%MOMM*%
%LPD*%
G01*
G04 APERTURE LIST*
G04 Aperture macros list*
%AMRoundRect*
0 Rectangle with rounded corners*
0 $1 Rounding radius*
0 $2 $3 $4 $5 $6 $7 $8 $9 X,Y pos of 4 corners*
0 Add a 4 corners polygon primitive as box body*
4,1,4,$2,$3,$4,$5,$6,$7,$8,$9,$2,$3,0*
0 Add four circle primitives for the rounded corners*
1,1,$1+$1,$2,$3*
1,1,$1+$1,$4,$5*
1,1,$1+$1,$6,$7*
1,1,$1+$1,$8,$9*
0 Add four rect primitives between the rounded corners*
20,1,$1+$1,$2,$3,$4,$5,0*
20,1,$1+$1,$4,$5,$6,$7,0*
20,1,$1+$1,$6,$7,$8,$9,0*
20,1,$1+$1,$8,$9,$2,$3,0*%
G04 Aperture macros list end*
%ADD10C,1.440000*%
%ADD11C,2.000000*%
%ADD12C,2.500000*%
%ADD13RoundRect,0.425000X-0.425000X0.550000X-0.425000X-0.550000X0.425000X-0.550000X0.425000X0.550000X0*%
%ADD14O,1.700000X1.950000*%
%ADD15R,1.700000X1.700000*%
%ADD16O,1.700000X1.700000*%
%ADD17RoundRect,0.250000X1.550000X-0.650000X1.550000X0.650000X-1.550000X0.650000X-1.550000X-0.650000X0*%
%ADD18O,3.600000X1.800000*%
%ADD19C,0.650000*%
%ADD20O,2.100000X1.000000*%
%ADD21O,1.600000X1.000000*%
%ADD22C,1.500000*%
G04 APERTURE END LIST*
D10*
X153200000Y-83220000D03*
X153200000Y-80680000D03*
X153200000Y-78140000D03*
D11*
X105400000Y-91950000D03*
X105400000Y-96450000D03*
D12*
X107900000Y-90700000D03*
X107900000Y-97700000D03*
D13*
X136075000Y-116250000D03*
D14*
X133535000Y-116250000D03*
D15*
X114000000Y-76575000D03*
D16*
X111460000Y-76575000D03*
X114000000Y-74035000D03*
X111460000Y-74035000D03*
X114000000Y-71495000D03*
X111460000Y-71495000D03*
X114000000Y-68955000D03*
X111460000Y-68955000D03*
D17*
X178100000Y-91710000D03*
D18*
X178100000Y-87900000D03*
D17*
X178100000Y-106500000D03*
D18*
X178100000Y-102690000D03*
D19*
X104500000Y-101810000D03*
X104500000Y-107590000D03*
D20*
X105030000Y-100380000D03*
D21*
X100850000Y-100380000D03*
D20*
X105030000Y-109020000D03*
D21*
X100850000Y-109020000D03*
D11*
X105400000Y-81400000D03*
X105400000Y-85900000D03*
D12*
X107900000Y-80150000D03*
X107900000Y-87150000D03*
D13*
X132320000Y-92950000D03*
D14*
X129780000Y-92950000D03*
X127240000Y-92950000D03*
X124700000Y-92950000D03*
X122160000Y-92950000D03*
X119620000Y-92950000D03*
D10*
X168000000Y-83230000D03*
X168000000Y-80690000D03*
X168000000Y-78150000D03*
D22*
X177975000Y-78970000D03*
X177975000Y-76430000D03*
X175435000Y-78970000D03*
X175435000Y-76430000D03*
M02*
