G04 #@! TF.GenerationSoftware,KiCad,Pcbnew,8.0.2-8.0.2-0~ubuntu23.10.1*
G04 #@! TF.CreationDate,2024-05-02T10:32:58+07:00*
G04 #@! TF.ProjectId,Node_Analog,4e6f6465-5f41-46e6-916c-6f672e6b6963,rev?*
G04 #@! TF.SameCoordinates,Original*
G04 #@! TF.FileFunction,Paste,Top*
G04 #@! TF.FilePolarity,Positive*
%FSLAX46Y46*%
G04 Gerber Fmt 4.6, Leading zero omitted, Abs format (unit mm)*
G04 Created by KiCad (PCBNEW 8.0.2-8.0.2-0~ubuntu23.10.1) date 2024-05-02 10:32:58*
%MOMM*%
%LPD*%
G01*
G04 APERTURE LIST*
G04 Aperture macros list*
%AMRoundRect*
0 Rectangle with rounded corners*
0 $1 Rounding radius*
0 $2 $3 $4 $5 $6 $7 $8 $9 X,Y pos of 4 corners*
0 Add a 4 corners polygon primitive as box body*
4,1,4,$2,$3,$4,$5,$6,$7,$8,$9,$2,$3,0*
0 Add four circle primitives for the rounded corners*
1,1,$1+$1,$2,$3*
1,1,$1+$1,$4,$5*
1,1,$1+$1,$6,$7*
1,1,$1+$1,$8,$9*
0 Add four rect primitives between the rounded corners*
20,1,$1+$1,$2,$3,$4,$5,0*
20,1,$1+$1,$4,$5,$6,$7,0*
20,1,$1+$1,$6,$7,$8,$9,0*
20,1,$1+$1,$8,$9,$2,$3,0*%
%AMFreePoly0*
4,1,18,-0.700000,0.540000,-0.695433,0.562961,-0.682426,0.582426,-0.662961,0.595433,-0.640000,0.600000,0.640000,0.600000,0.662961,0.595433,0.682426,0.582426,0.695433,0.562961,0.700000,0.540000,0.700000,-0.540000,0.695433,-0.562961,0.682426,-0.582426,0.662961,-0.595433,0.640000,-0.600000,-0.400000,-0.600000,-0.700000,-0.300000,-0.700000,0.540000,-0.700000,0.540000,$1*%
G04 Aperture macros list end*
%ADD10RoundRect,0.085000X-0.365000X0.340000X-0.365000X-0.340000X0.365000X-0.340000X0.365000X0.340000X0*%
%ADD11RoundRect,0.090000X-0.210000X0.885000X-0.210000X-0.885000X0.210000X-0.885000X0.210000X0.885000X0*%
%ADD12RoundRect,0.290000X1.160000X2.410000X-1.160000X2.410000X-1.160000X-2.410000X1.160000X-2.410000X0*%
%ADD13RoundRect,0.090000X-0.560000X-0.210000X0.560000X-0.210000X0.560000X0.210000X-0.560000X0.210000X0*%
%ADD14RoundRect,0.090000X0.210000X-0.360000X0.210000X0.360000X-0.210000X0.360000X-0.210000X-0.360000X0*%
%ADD15RoundRect,0.100000X0.637500X0.100000X-0.637500X0.100000X-0.637500X-0.100000X0.637500X-0.100000X0*%
%ADD16RoundRect,0.085000X0.340000X0.365000X-0.340000X0.365000X-0.340000X-0.365000X0.340000X-0.365000X0*%
%ADD17RoundRect,0.085000X0.365000X-0.340000X0.365000X0.340000X-0.365000X0.340000X-0.365000X-0.340000X0*%
%ADD18RoundRect,0.172500X-0.172500X-0.172500X0.172500X-0.172500X0.172500X0.172500X-0.172500X0.172500X0*%
%ADD19RoundRect,0.062500X-0.375000X-0.062500X0.375000X-0.062500X0.375000X0.062500X-0.375000X0.062500X0*%
%ADD20RoundRect,0.062500X-0.062500X-0.375000X0.062500X-0.375000X0.062500X0.375000X-0.062500X0.375000X0*%
%ADD21RoundRect,0.090000X0.210000X-0.560000X0.210000X0.560000X-0.210000X0.560000X-0.210000X-0.560000X0*%
%ADD22RoundRect,0.085000X-0.340000X-0.365000X0.340000X-0.365000X0.340000X0.365000X-0.340000X0.365000X0*%
%ADD23RoundRect,0.250000X-1.950000X-1.000000X1.950000X-1.000000X1.950000X1.000000X-1.950000X1.000000X0*%
%ADD24RoundRect,0.150000X-0.600000X0.600000X-0.600000X-0.600000X0.600000X-0.600000X0.600000X0.600000X0*%
%ADD25RoundRect,0.100000X-0.575000X0.400000X-0.575000X-0.400000X0.575000X-0.400000X0.575000X0.400000X0*%
%ADD26RoundRect,0.180000X1.020000X0.720000X-1.020000X0.720000X-1.020000X-0.720000X1.020000X-0.720000X0*%
%ADD27RoundRect,0.232500X0.232500X-0.232500X0.232500X0.232500X-0.232500X0.232500X-0.232500X-0.232500X0*%
%ADD28RoundRect,0.062500X0.062500X-0.375000X0.062500X0.375000X-0.062500X0.375000X-0.062500X-0.375000X0*%
%ADD29RoundRect,0.062500X0.375000X-0.062500X0.375000X0.062500X-0.375000X0.062500X-0.375000X-0.062500X0*%
%ADD30R,0.700000X1.800000*%
%ADD31R,1.800000X0.700000*%
%ADD32RoundRect,0.090000X0.885000X0.210000X-0.885000X0.210000X-0.885000X-0.210000X0.885000X-0.210000X0*%
%ADD33R,1.300000X0.600000*%
%ADD34R,1.300000X0.300000*%
%ADD35RoundRect,0.090000X-0.360000X-0.210000X0.360000X-0.210000X0.360000X0.210000X-0.360000X0.210000X0*%
%ADD36RoundRect,0.090000X0.360000X0.210000X-0.360000X0.210000X-0.360000X-0.210000X0.360000X-0.210000X0*%
%ADD37RoundRect,0.025000X-0.100000X-0.145000X0.100000X-0.145000X0.100000X0.145000X-0.100000X0.145000X0*%
%ADD38RoundRect,0.106000X-0.644000X-0.424000X0.644000X-0.424000X0.644000X0.424000X-0.644000X0.424000X0*%
%ADD39RoundRect,0.060000X-0.240000X-0.060000X0.240000X-0.060000X0.240000X0.060000X-0.240000X0.060000X0*%
%ADD40RoundRect,0.090000X0.560000X0.210000X-0.560000X0.210000X-0.560000X-0.210000X0.560000X-0.210000X0*%
%ADD41RoundRect,0.250000X0.400000X0.600000X-0.400000X0.600000X-0.400000X-0.600000X0.400000X-0.600000X0*%
%ADD42RoundRect,0.250000X-0.550000X1.500000X-0.550000X-1.500000X0.550000X-1.500000X0.550000X1.500000X0*%
%ADD43R,5.100000X2.350000*%
%ADD44FreePoly0,90.000000*%
%ADD45RoundRect,0.060000X0.540000X-0.640000X0.540000X0.640000X-0.540000X0.640000X-0.540000X-0.640000X0*%
%ADD46RoundRect,0.250000X0.850000X0.350000X-0.850000X0.350000X-0.850000X-0.350000X0.850000X-0.350000X0*%
%ADD47RoundRect,0.250000X1.275000X1.125000X-1.275000X1.125000X-1.275000X-1.125000X1.275000X-1.125000X0*%
%ADD48RoundRect,0.250000X0.600000X-0.400000X0.600000X0.400000X-0.600000X0.400000X-0.600000X-0.400000X0*%
%ADD49R,2.350000X5.100000*%
G04 APERTURE END LIST*
D10*
X158350000Y-85317500D03*
X158350000Y-86867500D03*
D11*
X160555000Y-112825000D03*
X159285000Y-112825000D03*
X158015000Y-112825000D03*
X156745000Y-112825000D03*
X156745000Y-117775000D03*
X158015000Y-117775000D03*
X159285000Y-117775000D03*
X160555000Y-117775000D03*
D12*
X162150000Y-101550000D03*
X152250000Y-101550000D03*
D13*
X108412500Y-103750000D03*
X108412500Y-104700000D03*
X108412500Y-105650000D03*
X110687500Y-105650000D03*
X110687500Y-104700000D03*
X110687500Y-103750000D03*
D14*
X159750000Y-87280000D03*
X161650000Y-87280000D03*
X160700000Y-85005000D03*
D10*
X149450000Y-100775000D03*
X149450000Y-102325000D03*
D15*
X137662500Y-111725000D03*
X137662500Y-111075000D03*
X137662500Y-110425000D03*
X137662500Y-109775000D03*
X131937500Y-109775000D03*
X131937500Y-110425000D03*
X131937500Y-111075000D03*
X131937500Y-111725000D03*
D16*
X135575000Y-104150000D03*
X134025000Y-104150000D03*
D17*
X146400000Y-117112500D03*
X146400000Y-115562500D03*
X115800000Y-95650000D03*
X115800000Y-94100000D03*
D18*
X142800000Y-114887500D03*
X142800000Y-115687500D03*
X143600000Y-114887500D03*
X143600000Y-115687500D03*
D19*
X141762500Y-114537500D03*
X141762500Y-115037500D03*
X141762500Y-115537500D03*
X141762500Y-116037500D03*
D20*
X142450000Y-116725000D03*
X142950000Y-116725000D03*
X143450000Y-116725000D03*
X143950000Y-116725000D03*
D19*
X144637500Y-116037500D03*
X144637500Y-115537500D03*
X144637500Y-115037500D03*
X144637500Y-114537500D03*
D20*
X143950000Y-113850000D03*
X143450000Y-113850000D03*
X142950000Y-113850000D03*
X142450000Y-113850000D03*
D21*
X133850000Y-107987500D03*
X134800000Y-107987500D03*
X135750000Y-107987500D03*
X135750000Y-105712500D03*
X134800000Y-105712500D03*
X133850000Y-105712500D03*
D16*
X146625000Y-98650000D03*
X145075000Y-98650000D03*
D22*
X124050000Y-108150000D03*
X125600000Y-108150000D03*
D16*
X158425000Y-84030000D03*
X156875000Y-84030000D03*
D22*
X155625000Y-90200000D03*
X157175000Y-90200000D03*
D23*
X163900000Y-114450000D03*
X171300000Y-114450000D03*
D24*
X113250000Y-79750000D03*
X113250000Y-87550000D03*
D16*
X146625000Y-104450000D03*
X145075000Y-104450000D03*
D10*
X120650000Y-105275000D03*
X120650000Y-106825000D03*
X149700000Y-76145000D03*
X149700000Y-77695000D03*
D14*
X135800000Y-90937500D03*
X137700000Y-90937500D03*
X136750000Y-88662500D03*
D17*
X122650000Y-111050000D03*
X122650000Y-109500000D03*
D25*
X174250000Y-88850000D03*
X174250000Y-90750000D03*
D10*
X139100000Y-88975000D03*
X139100000Y-90525000D03*
D17*
X137000000Y-108225000D03*
X137000000Y-106675000D03*
D16*
X128075000Y-70850000D03*
X126525000Y-70850000D03*
D10*
X116450000Y-96975000D03*
X116450000Y-98525000D03*
D17*
X110500000Y-82975000D03*
X110500000Y-81425000D03*
D26*
X160600000Y-109800000D03*
X156550000Y-109800000D03*
D16*
X137525000Y-83875000D03*
X135975000Y-83875000D03*
D17*
X119250000Y-106825000D03*
X119250000Y-105275000D03*
D16*
X163125000Y-75950000D03*
X161575000Y-75950000D03*
X122725000Y-112400000D03*
X121175000Y-112400000D03*
X146625000Y-97250000D03*
X145075000Y-97250000D03*
D22*
X127625000Y-99125000D03*
X129175000Y-99125000D03*
D16*
X148225000Y-83800000D03*
X146675000Y-83800000D03*
X122725000Y-108150000D03*
X121175000Y-108150000D03*
D22*
X108775000Y-106850000D03*
X110325000Y-106850000D03*
D16*
X173025000Y-77000000D03*
X171475000Y-77000000D03*
D17*
X110525000Y-93550000D03*
X110525000Y-92000000D03*
D27*
X123650000Y-104775000D03*
X124800000Y-104775000D03*
X125950000Y-104775000D03*
X123650000Y-103625000D03*
X124800000Y-103625000D03*
X125950000Y-103625000D03*
X123650000Y-102475000D03*
X124800000Y-102475000D03*
X125950000Y-102475000D03*
D28*
X123050000Y-106062500D03*
X123550000Y-106062500D03*
X124050000Y-106062500D03*
X124550000Y-106062500D03*
X125050000Y-106062500D03*
X125550000Y-106062500D03*
X126050000Y-106062500D03*
X126550000Y-106062500D03*
D29*
X127237500Y-105375000D03*
X127237500Y-104875000D03*
X127237500Y-104375000D03*
X127237500Y-103875000D03*
X127237500Y-103375000D03*
X127237500Y-102875000D03*
X127237500Y-102375000D03*
X127237500Y-101875000D03*
D28*
X126550000Y-101187500D03*
X126050000Y-101187500D03*
X125550000Y-101187500D03*
X125050000Y-101187500D03*
X124550000Y-101187500D03*
X124050000Y-101187500D03*
X123550000Y-101187500D03*
X123050000Y-101187500D03*
D29*
X122362500Y-101875000D03*
X122362500Y-102375000D03*
X122362500Y-102875000D03*
X122362500Y-103375000D03*
X122362500Y-103875000D03*
X122362500Y-104375000D03*
X122362500Y-104875000D03*
X122362500Y-105375000D03*
D30*
X120250000Y-87855000D03*
X121250000Y-87855000D03*
X122250000Y-87855000D03*
X123250000Y-87855000D03*
X124250000Y-87855000D03*
X125250000Y-87855000D03*
X126250000Y-87855000D03*
X127250000Y-87855000D03*
X128250000Y-87855000D03*
X129250000Y-87855000D03*
X130250000Y-87855000D03*
X131250000Y-87855000D03*
D31*
X133385000Y-79900000D03*
X133385000Y-78900000D03*
X133385000Y-77900000D03*
X133385000Y-76900000D03*
D30*
X131250000Y-73055000D03*
X130250000Y-73055000D03*
X129250000Y-73055000D03*
X124250000Y-73055000D03*
X123250000Y-73055000D03*
X122250000Y-73055000D03*
X121250000Y-73055000D03*
X120250000Y-73055000D03*
D31*
X118585000Y-76900000D03*
X118585000Y-77900000D03*
X118585000Y-78900000D03*
X118585000Y-79900000D03*
X118585000Y-80900000D03*
X118585000Y-81900000D03*
X118585000Y-82900000D03*
X118585000Y-83900000D03*
D32*
X162475000Y-82585000D03*
X162475000Y-81315000D03*
X162475000Y-80045000D03*
X162475000Y-78775000D03*
X157525000Y-78775000D03*
X157525000Y-80045000D03*
X157525000Y-81315000D03*
X157525000Y-82585000D03*
D22*
X161575000Y-74550000D03*
X163125000Y-74550000D03*
X158675000Y-74550000D03*
X160225000Y-74550000D03*
X142875000Y-111287500D03*
X144425000Y-111287500D03*
X155625000Y-88800000D03*
X157175000Y-88800000D03*
D17*
X146400000Y-114212500D03*
X146400000Y-112662500D03*
D33*
X106025000Y-101450000D03*
X106025000Y-102250000D03*
D34*
X106025000Y-103450000D03*
X106025000Y-104450000D03*
X106025000Y-104950000D03*
X106025000Y-105950000D03*
D33*
X106025000Y-107150000D03*
X106025000Y-107950000D03*
X106025000Y-107950000D03*
X106025000Y-107150000D03*
D34*
X106025000Y-106450000D03*
X106025000Y-105450000D03*
X106025000Y-103950000D03*
X106025000Y-102950000D03*
D33*
X106025000Y-102250000D03*
X106025000Y-101450000D03*
D17*
X110525000Y-96450000D03*
X110525000Y-94900000D03*
X119850000Y-98425000D03*
X119850000Y-96875000D03*
D16*
X137525000Y-93700000D03*
X135975000Y-93700000D03*
D17*
X149700000Y-80595000D03*
X149700000Y-79045000D03*
D35*
X121212500Y-96700000D03*
X121212500Y-98600000D03*
X123487500Y-97650000D03*
D36*
X125937500Y-69500000D03*
X125937500Y-67600000D03*
X123662500Y-68550000D03*
D17*
X143900000Y-87325000D03*
X143900000Y-85775000D03*
D10*
X149400000Y-97175000D03*
X149400000Y-98725000D03*
D17*
X163050000Y-86867500D03*
X163050000Y-85317500D03*
D37*
X146200000Y-100020000D03*
X146200000Y-103080000D03*
D38*
X146450000Y-100920000D03*
X146450000Y-102180000D03*
D37*
X146700000Y-100020000D03*
X146700000Y-103080000D03*
D39*
X145050000Y-100550000D03*
X145050000Y-101050000D03*
X145050000Y-101550000D03*
X145050000Y-102050000D03*
X145050000Y-102550000D03*
X147850000Y-102550000D03*
X147850000Y-102050000D03*
X147850000Y-101550000D03*
X147850000Y-101050000D03*
X147850000Y-100550000D03*
D17*
X115800000Y-82275000D03*
X115800000Y-80725000D03*
X127300000Y-69325000D03*
X127300000Y-67775000D03*
D22*
X135975000Y-85275000D03*
X137525000Y-85275000D03*
D17*
X132600000Y-107025000D03*
X132600000Y-105475000D03*
X145800000Y-80595000D03*
X145800000Y-79045000D03*
D16*
X160225000Y-75950000D03*
X158675000Y-75950000D03*
D40*
X147937500Y-86950000D03*
X147937500Y-86000000D03*
X147937500Y-85050000D03*
X145662500Y-85050000D03*
X145662500Y-86000000D03*
X145662500Y-86950000D03*
D14*
X140500000Y-90937500D03*
X142400000Y-90937500D03*
X141450000Y-88662500D03*
D41*
X174350000Y-101400000D03*
X170850000Y-101400000D03*
D22*
X135975000Y-92300000D03*
X137525000Y-92300000D03*
D16*
X126275000Y-99125000D03*
X124725000Y-99125000D03*
D22*
X123625000Y-70850000D03*
X125175000Y-70850000D03*
D26*
X156100000Y-92600000D03*
X152050000Y-92600000D03*
D17*
X115800000Y-85125000D03*
X115800000Y-83575000D03*
D22*
X108775000Y-102550000D03*
X110325000Y-102550000D03*
D42*
X151900000Y-111700000D03*
X151900000Y-117100000D03*
D17*
X164500000Y-76025000D03*
X164500000Y-74475000D03*
D22*
X162975000Y-83992500D03*
X164525000Y-83992500D03*
X147975000Y-104450000D03*
X149525000Y-104450000D03*
D10*
X119250000Y-102375000D03*
X119250000Y-103925000D03*
D43*
X140725000Y-99475000D03*
X140725000Y-103625000D03*
D17*
X140050000Y-117112500D03*
X140050000Y-115562500D03*
D16*
X141525000Y-111287500D03*
X139975000Y-111287500D03*
X145325000Y-83800000D03*
X143775000Y-83800000D03*
D22*
X119910000Y-69450000D03*
X121460000Y-69450000D03*
X158675000Y-77350000D03*
X160225000Y-77350000D03*
D24*
X113250000Y-90275000D03*
X113250000Y-98075000D03*
D17*
X110500000Y-85875000D03*
X110500000Y-84325000D03*
X108200000Y-76575000D03*
X108200000Y-75025000D03*
D10*
X129100000Y-100775000D03*
X129100000Y-102325000D03*
D16*
X173025000Y-78400000D03*
X171475000Y-78400000D03*
D44*
X117700000Y-105700000D03*
D45*
X117700000Y-103500000D03*
X116000000Y-103500000D03*
X116000000Y-105700000D03*
D46*
X174000000Y-108527500D03*
D47*
X169375000Y-107772500D03*
X169375000Y-104722500D03*
X166025000Y-107772500D03*
X166025000Y-104722500D03*
D46*
X174000000Y-103967500D03*
D48*
X147750000Y-80070000D03*
X147750000Y-76570000D03*
D10*
X129100000Y-104725000D03*
X129100000Y-106275000D03*
D22*
X119910000Y-70850000D03*
X121460000Y-70850000D03*
D17*
X164450000Y-86867500D03*
X164450000Y-85317500D03*
X140050000Y-114212500D03*
X140050000Y-112662500D03*
X118450000Y-98425000D03*
X118450000Y-96875000D03*
D16*
X172425000Y-99400000D03*
X170875000Y-99400000D03*
D17*
X148000000Y-98725000D03*
X148000000Y-97175000D03*
X115800000Y-92750000D03*
X115800000Y-91200000D03*
D49*
X144725000Y-91350000D03*
X148875000Y-91350000D03*
D16*
X137525000Y-86675000D03*
X135975000Y-86675000D03*
X142225000Y-92300000D03*
X140675000Y-92300000D03*
M02*
