G04 #@! TF.GenerationSoftware,KiCad,Pcbnew,8.0.2-8.0.2-0~ubuntu23.10.1*
G04 #@! TF.CreationDate,2024-05-02T10:42:59+07:00*
G04 #@! TF.ProjectId,Node_RS232,4e6f6465-5f52-4533-9233-322e6b696361,rev?*
G04 #@! TF.SameCoordinates,Original*
G04 #@! TF.FileFunction,Profile,NP*
%FSLAX46Y46*%
G04 Gerber Fmt 4.6, Leading zero omitted, Abs format (unit mm)*
G04 Created by KiCad (PCBNEW 8.0.2-8.0.2-0~ubuntu23.10.1) date 2024-05-02 10:42:59*
%MOMM*%
%LPD*%
G01*
G04 APERTURE LIST*
G04 #@! TA.AperFunction,Profile*
%ADD10C,0.250000*%
G04 #@! TD*
G04 APERTURE END LIST*
D10*
X102300000Y-109900000D02*
X99900000Y-109900000D01*
X104600000Y-71900000D02*
X104400000Y-71900000D01*
X108100000Y-112900000D02*
G75*
G02*
X104600000Y-116400000I-3500000J0D01*
G01*
X104600000Y-116400000D02*
X104600000Y-117400000D01*
X102300000Y-71200000D02*
X99900000Y-71200000D01*
X108100000Y-68400000D02*
G75*
G02*
X104600000Y-71900000I-3500000J0D01*
G01*
X108100000Y-68400000D02*
X108100000Y-68200000D01*
X104600000Y-63700000D02*
X178900000Y-63700000D01*
X179100000Y-71900000D02*
X178900000Y-71900000D01*
X183600000Y-71200000D02*
X183600000Y-109900000D01*
X175400000Y-112700000D02*
G75*
G02*
X178900000Y-109200000I3500000J0D01*
G01*
X178900000Y-63700000D02*
X178900000Y-64700000D01*
X178900000Y-71900000D02*
G75*
G02*
X175400000Y-68400000I0J3500000D01*
G01*
X99900000Y-71200000D02*
X99900000Y-109900000D01*
X181200000Y-109900000D02*
X183600000Y-109900000D01*
X175400000Y-112700000D02*
X175400000Y-112900000D01*
X175400000Y-68200000D02*
X175400000Y-68400000D01*
X178900000Y-116400000D02*
G75*
G02*
X175400000Y-112900000I0J3500000D01*
G01*
X178900000Y-109200000D02*
X179100000Y-109200000D01*
X104600000Y-64700000D02*
X104600000Y-63700000D01*
X183600000Y-71200000D02*
X181200000Y-71200000D01*
X104600000Y-64700000D02*
G75*
G02*
X108100000Y-68200000I0J-3500000D01*
G01*
X178900000Y-116400000D02*
X178900000Y-117400000D01*
X175400000Y-68200000D02*
G75*
G02*
X178900000Y-64700000I3500000J0D01*
G01*
X104400000Y-71900000D02*
G75*
G02*
X102300000Y-71200000I0J3500000D01*
G01*
X108100000Y-112700000D02*
X108100000Y-112900000D01*
X102300000Y-109900000D02*
G75*
G02*
X104400000Y-109200000I2100000J-2800000D01*
G01*
X179100000Y-109200000D02*
G75*
G02*
X181200000Y-109900000I0J-3500000D01*
G01*
X104600000Y-117400000D02*
X178900000Y-117400000D01*
X181200000Y-71200000D02*
G75*
G02*
X179100000Y-71900000I-2100000J2800000D01*
G01*
X104600000Y-109200000D02*
X104400000Y-109200000D01*
X104600000Y-109200000D02*
G75*
G02*
X108100000Y-112700000I0J-3500000D01*
G01*
M02*
