M48
; DRILL file {KiCad 8.0.2-8.0.2-0~ubuntu23.10.1} date 2024-05-02T10:43:01+0700
; FORMAT={-:-/ absolute / inch / decimal}
; #@! TF.CreationDate,2024-05-02T10:43:01+07:00
; #@! TF.GenerationSoftware,Kicad,Pcbnew,8.0.2-8.0.2-0~ubuntu23.10.1
; #@! TF.FileFunction,Plated,1,2,PTH
FMAT,2
INCH
; #@! TA.AperFunction,Plated,PTH,ViaDrill
T1C0.0118
; #@! TA.AperFunction,Plated,PTH,ComponentDrill
T2C0.0118
; #@! TA.AperFunction,Plated,PTH,ViaDrill
T3C0.0157
; #@! TA.AperFunction,Plated,PTH,ComponentDrill
T4C0.0157
; #@! TA.AperFunction,Plated,PTH,ComponentDrill
T5C0.0236
; #@! TA.AperFunction,Plated,PTH,ComponentDrill
T6C0.0315
; #@! TA.AperFunction,Plated,PTH,ComponentDrill
T7C0.0394
; #@! TA.AperFunction,Plated,PTH,ComponentDrill
T8C0.0433
; #@! TA.AperFunction,Plated,PTH,ComponentDrill
T9C0.0472
; #@! TA.AperFunction,Plated,PTH,ComponentDrill
T10C0.0551
%
G90
G05
T1
X4.2362Y-3.9331
X4.3228Y-4.0315
X4.3386Y-3.9646
X4.3386Y-4.0984
X4.3701Y-3.3228
X4.3701Y-3.7362
X4.4134Y-4.0315
X4.4173Y-3.1772
X4.4173Y-3.5906
X4.5394Y-3.9606
X4.5394Y-4.0118
X4.5394Y-4.063
X4.5551Y-3.6575
X4.559Y-3.7169
X4.5591Y-3.9134
X4.5591Y-4.1102
X4.5787Y-3.3228
X4.622Y-3.9134
X4.622Y-4.1102
X4.6811Y-3.9134
X4.6811Y-4.1102
X4.7008Y-3.9449
X4.7008Y-4.0787
X4.7441Y-2.9803
X4.7441Y-3.0197
X4.7441Y-4.0787
X4.7657Y-3.9623
X4.7898Y-3.9421
X4.8307Y-2.8425
X4.8307Y-3.311
X4.8583Y-2.874
X4.9488Y-3.189
X5.0472Y-3.7047
X5.0472Y-4.1053
X5.0591Y-3.189
X5.0709Y-3.9252
X5.0727Y-4.0359
X5.0729Y-4.0674
X5.0787Y-3.7047
X5.1339Y-4.0472
X5.3386Y-3.2047
X5.3987Y-3.6269
X5.6014Y-4.5026
X5.7077Y-4.3256
X5.7165Y-4.4961
X6.7717Y-2.9016
T2
X4.9449Y-4.3701
X5.6358Y-4.4268
X5.6358Y-4.4701
X5.6575Y-4.4485
X5.6791Y-4.4268
X5.6791Y-4.4701
X5.7612Y-3.9059
X5.7839Y-3.8685
X5.7839Y-3.9433
X5.8065Y-3.9059
T3
X3.9921Y-2.8622
X3.9921Y-2.9409
X3.9921Y-3.0197
X3.9921Y-3.0984
X3.9921Y-3.1772
X3.9921Y-3.2559
X3.9921Y-3.3346
X3.9921Y-3.4134
X3.9921Y-3.4921
X3.9921Y-3.5709
X3.9921Y-3.6496
X3.9921Y-3.7283
X3.9921Y-3.8071
X3.9921Y-3.9646
X3.9921Y-4.0433
X3.9921Y-4.122
X3.9921Y-4.2874
X4.0669Y-4.2047
X4.0748Y-2.9409
X4.1693Y-3.4094
X4.1693Y-3.6181
X4.1693Y-3.7992
X4.2165Y-2.9764
X4.2165Y-3.1811
X4.2402Y-3.8976
X4.2402Y-4.1614
X4.252Y-2.8622
X4.2598Y-3.8425
X4.2677Y-3.5906
X4.2913Y-2.8268
X4.3031Y-4.185
X4.3031Y-4.2756
X4.3031Y-4.3583
X4.3228Y-3.1181
X4.3268Y-3.5276
X4.3543Y-2.9764
X4.3661Y-3.8425
X4.3819Y-4.185
X4.3819Y-4.2756
X4.3819Y-4.3583
X4.3858Y-2.7795
X4.3976Y-3.9134
X4.3976Y-4.1181
X4.4291Y-3.6339
X4.4291Y-3.7087
X4.4331Y-2.8701
X4.4606Y-4.185
X4.4606Y-4.2756
X4.4606Y-4.3583
X4.4764Y-3.5157
X4.4764Y-3.5906
X4.4764Y-3.8425
X4.4882Y-3.1142
X4.5118Y-3.189
X4.5118Y-3.2835
X4.5118Y-3.689
X4.5394Y-3.1142
X4.5394Y-3.4016
X4.5394Y-3.5
X4.5394Y-4.185
X4.5394Y-4.2756
X4.5394Y-4.3583
X4.5591Y-2.8071
X4.5709Y-2.6142
X4.5787Y-3.0787
X4.6181Y-2.6142
X4.6181Y-2.6732
X4.6181Y-4.185
X4.6181Y-4.2756
X4.6181Y-4.3583
X4.622Y-3.1142
X4.622Y-3.189
X4.622Y-3.2677
X4.626Y-3.0591
X4.6496Y-3.7717
X4.6496Y-3.8071
X4.6575Y-3.5039
X4.6575Y-3.6339
X4.6693Y-2.6614
X4.685Y-3.3701
X4.689Y-2.689
X4.689Y-2.752
X4.6969Y-4.185
X4.6969Y-4.2756
X4.6969Y-4.3583
X4.7087Y-2.6614
X4.7126Y-3.4291
X4.7165Y-3.2677
X4.7205Y-3.8898
X4.7205Y-4.1378
X4.7638Y-4.1378
X4.7638Y-4.185
X4.7638Y-4.3189
X4.7756Y-4.3583
X4.7835Y-2.6063
X4.7953Y-2.7362
X4.8071Y-4.0394
X4.815Y-4.2087
X4.815Y-4.2441
X4.815Y-4.2795
X4.815Y-4.3504
X4.8268Y-4.1181
X4.8307Y-3.7362
X4.8346Y-2.6063
X4.8386Y-3.878
X4.8386Y-4.0866
X4.8504Y-3.8031
X4.8937Y-2.9331
X4.8937Y-3.0669
X4.8937Y-3.1457
X4.8937Y-3.2244
X4.9016Y-3.8031
X4.9016Y-4.2087
X4.9016Y-4.2441
X4.9016Y-4.2795
X4.9016Y-4.315
X4.9016Y-4.3504
X4.9055Y-3.6969
X4.9331Y-2.6063
X4.937Y-3.8425
X4.9488Y-4.1181
X4.9606Y-4.2795
X4.9685Y-3.7441
X4.9843Y-3.6969
X4.9921Y-2.6063
X4.9961Y-4.3583
X5.0039Y-2.7756
X5.0039Y-2.8543
X5.0039Y-2.9331
X5.0039Y-3.0669
X5.0039Y-3.1457
X5.0039Y-3.2244
X5.0039Y-3.7441
X5.0157Y-4.1418
X5.0394Y-4.2795
X5.063Y-2.6063
X5.0748Y-3.6417
X5.0748Y-4.3583
X5.1102Y-4.1614
X5.1181Y-3.0827
X5.1181Y-3.1614
X5.1181Y-3.2402
X5.1181Y-4.2795
X5.1299Y-2.8937
X5.1457Y-2.6102
X5.1457Y-2.7283
X5.1457Y-3.311
X5.1535Y-4.122
X5.1535Y-4.3583
X5.1732Y-4.0827
X5.185Y-2.7283
X5.1969Y-3.0827
X5.1969Y-3.1614
X5.1969Y-3.2402
X5.2008Y-4.3583
X5.2008Y-4.437
X5.2008Y-4.5157
X5.2008Y-4.5709
X5.2087Y-2.8937
X5.2165Y-3.4921
X5.2441Y-2.6102
X5.2441Y-3.6535
X5.2441Y-3.7323
X5.2441Y-3.811
X5.2441Y-3.8898
X5.2441Y-3.9685
X5.248Y-2.7402
X5.248Y-2.8189
X5.2795Y-4.5709
X5.2874Y-2.8937
X5.2953Y-3.2756
X5.2953Y-3.3543
X5.2953Y-3.4331
X5.2953Y-3.5118
X5.2953Y-3.5906
X5.3071Y-3.6535
X5.3071Y-3.7323
X5.3071Y-3.811
X5.3071Y-3.8898
X5.3071Y-3.9685
X5.3268Y-2.7402
X5.3268Y-2.8189
X5.3268Y-4.2165
X5.3425Y-2.6102
X5.3465Y-4.2913
X5.3465Y-4.3465
X5.3465Y-4.4016
X5.3583Y-4.5709
X5.378Y-2.9173
X5.378Y-2.9961
X5.378Y-3.0748
X5.3858Y-4.2638
X5.3858Y-4.3189
X5.3937Y-4.2047
X5.4055Y-3.7087
X5.4055Y-3.7874
X5.4055Y-3.8661
X5.4055Y-3.9449
X5.4094Y-2.6654
X5.437Y-3.4488
X5.437Y-4.5709
X5.4449Y-4.3898
X5.4528Y-4.1457
X5.4528Y-4.2008
X5.4567Y-2.9173
X5.4567Y-2.9961
X5.4567Y-3.0748
X5.4646Y-3.2047
X5.4646Y-3.2598
X5.4646Y-3.3622
X5.4646Y-3.5433
X5.4646Y-3.6535
X5.4685Y-2.7244
X5.4803Y-2.5551
X5.4921Y-3.7323
X5.4961Y-4.3543
X5.4961Y-4.5394
X5.5Y-4.0748
X5.5118Y-2.9961
X5.5236Y-2.7835
X5.5315Y-4.2559
X5.5354Y-4.5591
X5.5472Y-3.7047
X5.5472Y-3.7402
X5.563Y-2.5551
X5.563Y-2.6339
X5.5748Y-4.3543
X5.5748Y-4.5276
X5.5787Y-4.0748
X5.5787Y-4.1535
X5.5787Y-4.2323
X5.5827Y-3.7047
X5.5827Y-3.7402
X5.6457Y-2.5551
X5.6457Y-2.6339
X5.6457Y-2.7126
X5.6457Y-2.7992
X5.6457Y-4.2559
X5.6457Y-4.5433
X5.6535Y-4.3543
X5.6929Y-4.2244
X5.6929Y-4.2598
X5.6929Y-4.5433
X5.6969Y-3.1772
X5.6969Y-3.2362
X5.7028Y-3.6496
X5.7165Y-3.3661
X5.7244Y-2.5551
X5.7244Y-2.6339
X5.7244Y-2.7126
X5.7244Y-2.7992
X5.7283Y-4.063
X5.7283Y-4.0984
X5.7283Y-4.2244
X5.7283Y-4.2598
X5.7421Y-3.6496
X5.7441Y-4.5236
X5.7638Y-4.063
X5.7638Y-4.0984
X5.7835Y-4.563
X5.7874Y-3.6535
X5.8031Y-2.5551
X5.8031Y-2.6339
X5.8031Y-2.7126
X5.8031Y-2.7992
X5.8031Y-2.9488
X5.8031Y-3.0512
X5.8071Y-3.815
X5.8189Y-3.7165
X5.8189Y-3.7598
X5.8228Y-4.4449
X5.8228Y-4.4803
X5.8228Y-4.5236
X5.8268Y-3.9764
X5.8504Y-3.6535
X5.8543Y-4.5669
X5.8583Y-4.4449
X5.8583Y-4.4803
X5.8701Y-3.8386
X5.8701Y-3.8858
X5.878Y-3.9764
X5.878Y-4.3465
X5.878Y-4.4055
X5.8819Y-2.5551
X5.8819Y-2.6339
X5.8819Y-2.7126
X5.8819Y-2.7992
X5.8819Y-2.9488
X5.8819Y-3.0512
X5.8858Y-3.2913
X5.8936Y-4.061
X5.8937Y-4.1142
X5.8937Y-4.1693
X5.9173Y-3.6535
X5.9213Y-3.8386
X5.9449Y-4.4567
X5.9449Y-4.5669
X5.9606Y-2.5551
X5.9606Y-2.6339
X5.9606Y-2.7126
X5.9606Y-2.7992
X5.9606Y-2.9488
X5.9606Y-3.0512
X5.9685Y-3.3622
X6.0039Y-3.2835
X6.0039Y-3.437
X6.0394Y-2.5551
X6.0394Y-2.6339
X6.0394Y-2.7126
X6.0394Y-2.7992
X6.0394Y-2.9488
X6.0394Y-3.0512
X6.0472Y-3.3622
X6.0472Y-4.4567
X6.0472Y-4.5669
X6.0787Y-4.3583
X6.0827Y-3.2835
X6.0827Y-3.437
X6.1181Y-2.5551
X6.1181Y-2.6339
X6.1181Y-2.7126
X6.1181Y-2.7992
X6.1181Y-2.9488
X6.1181Y-3.0512
X6.126Y-3.3622
X6.126Y-4.185
X6.126Y-4.2795
X6.1299Y-4.4567
X6.1299Y-4.5709
X6.1614Y-3.2835
X6.1614Y-3.437
X6.1614Y-4.3307
X6.1614Y-4.3819
X6.1929Y-4.4882
X6.1969Y-2.5551
X6.1969Y-2.6339
X6.1969Y-2.7126
X6.1969Y-2.7992
X6.1969Y-2.9488
X6.1969Y-3.0512
X6.2047Y-3.3622
X6.2402Y-3.2835
X6.2402Y-3.437
X6.2441Y-4.185
X6.2441Y-4.2795
X6.2441Y-4.4882
X6.2598Y-3.4843
X6.2756Y-2.5551
X6.2756Y-2.6339
X6.2756Y-2.7126
X6.2756Y-2.7992
X6.2756Y-2.9488
X6.2756Y-3.0512
X6.2835Y-3.3622
X6.2953Y-4.4882
X6.315Y-3.4843
X6.3189Y-3.2835
X6.3189Y-3.437
X6.3465Y-3.189
X6.3543Y-2.5551
X6.3543Y-2.6339
X6.3543Y-2.7126
X6.3543Y-2.7992
X6.3543Y-2.9488
X6.3543Y-3.0512
X6.374Y-4.5433
X6.4094Y-3.2795
X6.4094Y-3.3583
X6.4094Y-3.437
X6.4094Y-3.5157
X6.4213Y-4.5709
X6.4331Y-2.5551
X6.4331Y-2.6339
X6.4331Y-2.7126
X6.4331Y-2.7992
X6.4331Y-2.9488
X6.4331Y-3.0512
X6.4803Y-3.1732
X6.4803Y-3.6181
X6.5Y-4.5709
X6.5118Y-2.5551
X6.5118Y-2.6339
X6.5118Y-2.7126
X6.5118Y-2.7992
X6.5118Y-2.9488
X6.5118Y-3.0512
X6.5157Y-3.1457
X6.5157Y-3.5157
X6.5197Y-3.815
X6.5197Y-3.9016
X6.5591Y-3.6181
X6.5591Y-3.7402
X6.5787Y-4.5709
X6.5906Y-2.5551
X6.5906Y-2.6339
X6.5906Y-2.7126
X6.5906Y-2.7992
X6.5906Y-2.9488
X6.5906Y-3.0512
X6.5984Y-3.815
X6.5984Y-3.9016
X6.6378Y-3.6181
X6.6378Y-3.7402
X6.6575Y-4.5709
X6.6693Y-2.5551
X6.6693Y-2.6339
X6.6693Y-2.7126
X6.6693Y-2.7992
X6.6693Y-2.9488
X6.6693Y-3.0512
X6.6772Y-3.815
X6.6772Y-3.9016
X6.7008Y-3.3189
X6.7165Y-3.6181
X6.7165Y-3.7402
X6.7362Y-3.2205
X6.7362Y-4.3465
X6.7362Y-4.4882
X6.7362Y-4.5709
X6.748Y-2.5551
X6.748Y-2.6339
X6.748Y-2.7126
X6.748Y-2.7992
X6.7559Y-3.0512
X6.7559Y-3.1299
X6.7953Y-3.6181
X6.7953Y-3.7402
X6.7953Y-4.2402
X6.8031Y-3.7835
X6.8031Y-3.8622
X6.815Y-4.3465
X6.815Y-4.4882
X6.815Y-4.5709
X6.8268Y-2.5551
X6.8268Y-2.6339
X6.8268Y-2.7126
X6.8268Y-2.7992
X6.8346Y-3.0512
X6.8346Y-3.1299
X6.8386Y-3.8228
X6.874Y-3.7402
X6.874Y-4.2402
X6.8937Y-4.5709
X6.9055Y-2.5551
X6.9055Y-2.7992
X6.9094Y-3.4488
X6.9094Y-3.5906
X6.9134Y-3.2047
X6.9291Y-3.2953
X6.9488Y-3.0945
X6.9528Y-3.7402
X6.9528Y-3.8583
X6.9528Y-4.2402
X6.9882Y-3.4488
X6.9882Y-3.5906
X7.0276Y-3.0945
X7.0315Y-3.2953
X7.0315Y-3.7402
X7.0315Y-3.8583
X7.0315Y-4.2402
X7.0669Y-3.4488
X7.0669Y-3.5906
X7.0984Y-2.9409
X7.0984Y-3.0197
X7.0984Y-3.0945
X7.1102Y-3.7402
X7.1102Y-3.8583
X7.1102Y-4.2402
X7.185Y-2.8622
X7.185Y-2.9409
X7.185Y-3.0197
X7.185Y-3.0984
X7.185Y-3.1772
X7.185Y-3.2559
X7.185Y-3.3346
X7.185Y-3.4134
X7.185Y-3.4921
X7.185Y-3.5709
X7.185Y-3.6496
X7.185Y-3.7283
X7.185Y-3.8071
X7.185Y-3.8858
X7.185Y-3.9646
X7.185Y-4.0433
X7.185Y-4.122
X7.185Y-4.2008
X7.185Y-4.2795
T4
X4.9154Y-3.9562
X4.9154Y-4.0025
X4.939Y-3.9788
X4.9626Y-3.9562
X4.9626Y-4.0025
T6
X6.9236Y-2.9173
X6.9236Y-3.0173
X7.0236Y-2.9173
X7.0236Y-3.0173
T7
X4.4069Y-2.6252
X4.4069Y-2.7252
X4.4069Y-2.8252
X4.4069Y-2.9252
X4.5069Y-2.6252
X4.5069Y-2.7252
X4.5069Y-2.8252
X4.5069Y-2.9252
X4.7197Y-3.5669
X4.8197Y-3.5669
X4.9197Y-3.5669
X5.0197Y-3.5669
X5.1197Y-3.5669
X5.2197Y-3.5669
X5.277Y-4.4862
X5.377Y-4.4862
T8
X4.1693Y-3.1161
X4.1693Y-3.2933
X4.1693Y-3.5295
X4.1693Y-3.7067
T9
X7.0315Y-3.2205
X7.0315Y-3.3705
X7.0315Y-3.5205
X7.0315Y-3.6705
X7.0315Y-3.9524
X7.0315Y-4.1024
T10
X4.2677Y-3.0669
X4.2677Y-3.3425
X4.2677Y-3.4803
X4.2677Y-3.7559
T5
G00X4.002Y-3.8614
M15
G01X3.9783Y-3.8614
M16
G05
G00X4.002Y-4.2016
M15
G01X3.9783Y-4.2016
M16
G05
G00X4.1764Y-3.8614
M15
G01X4.1331Y-3.8614
M16
G05
G00X4.1764Y-4.2016
M15
G01X4.1331Y-4.2016
M16
G05
M30
