G04 #@! TF.GenerationSoftware,KiCad,Pcbnew,8.0.2-8.0.2-0~ubuntu23.10.1*
G04 #@! TF.CreationDate,2024-05-02T10:42:59+07:00*
G04 #@! TF.ProjectId,Node_RS232,4e6f6465-5f52-4533-9233-322e6b696361,rev?*
G04 #@! TF.SameCoordinates,Original*
G04 #@! TF.FileFunction,Copper,L2,Bot*
G04 #@! TF.FilePolarity,Positive*
%FSLAX46Y46*%
G04 Gerber Fmt 4.6, Leading zero omitted, Abs format (unit mm)*
G04 Created by KiCad (PCBNEW 8.0.2-8.0.2-0~ubuntu23.10.1) date 2024-05-02 10:42:59*
%MOMM*%
%LPD*%
G01*
G04 APERTURE LIST*
G04 Aperture macros list*
%AMRoundRect*
0 Rectangle with rounded corners*
0 $1 Rounding radius*
0 $2 $3 $4 $5 $6 $7 $8 $9 X,Y pos of 4 corners*
0 Add a 4 corners polygon primitive as box body*
4,1,4,$2,$3,$4,$5,$6,$7,$8,$9,$2,$3,0*
0 Add four circle primitives for the rounded corners*
1,1,$1+$1,$2,$3*
1,1,$1+$1,$4,$5*
1,1,$1+$1,$6,$7*
1,1,$1+$1,$8,$9*
0 Add four rect primitives between the rounded corners*
20,1,$1+$1,$2,$3,$4,$5,0*
20,1,$1+$1,$4,$5,$6,$7,0*
20,1,$1+$1,$6,$7,$8,$9,0*
20,1,$1+$1,$8,$9,$2,$3,0*%
G04 Aperture macros list end*
G04 #@! TA.AperFunction,ComponentPad*
%ADD10O,2.100000X1.000000*%
G04 #@! TD*
G04 #@! TA.AperFunction,ComponentPad*
%ADD11O,1.600000X1.000000*%
G04 #@! TD*
G04 #@! TA.AperFunction,ComponentPad*
%ADD12C,2.000000*%
G04 #@! TD*
G04 #@! TA.AperFunction,ComponentPad*
%ADD13C,2.500000*%
G04 #@! TD*
G04 #@! TA.AperFunction,ComponentPad*
%ADD14RoundRect,0.425000X-0.425000X0.550000X-0.425000X-0.550000X0.425000X-0.550000X0.425000X0.550000X0*%
G04 #@! TD*
G04 #@! TA.AperFunction,ComponentPad*
%ADD15O,1.700000X1.950000*%
G04 #@! TD*
G04 #@! TA.AperFunction,ComponentPad*
%ADD16C,1.500000*%
G04 #@! TD*
G04 #@! TA.AperFunction,ComponentPad*
%ADD17RoundRect,0.250000X1.550000X-0.650000X1.550000X0.650000X-1.550000X0.650000X-1.550000X-0.650000X0*%
G04 #@! TD*
G04 #@! TA.AperFunction,ComponentPad*
%ADD18O,3.600000X1.800000*%
G04 #@! TD*
G04 #@! TA.AperFunction,ComponentPad*
%ADD19C,0.500000*%
G04 #@! TD*
G04 #@! TA.AperFunction,ComponentPad*
%ADD20C,0.600000*%
G04 #@! TD*
G04 #@! TA.AperFunction,HeatsinkPad*
%ADD21C,0.500000*%
G04 #@! TD*
G04 #@! TA.AperFunction,HeatsinkPad*
%ADD22R,1.600000X1.600000*%
G04 #@! TD*
G04 #@! TA.AperFunction,ComponentPad*
%ADD23R,0.900000X0.500000*%
G04 #@! TD*
G04 #@! TA.AperFunction,ComponentPad*
%ADD24R,1.700000X1.700000*%
G04 #@! TD*
G04 #@! TA.AperFunction,ComponentPad*
%ADD25O,1.700000X1.700000*%
G04 #@! TD*
G04 #@! TA.AperFunction,ViaPad*
%ADD26C,0.800000*%
G04 #@! TD*
G04 #@! TA.AperFunction,ViaPad*
%ADD27C,0.600000*%
G04 #@! TD*
G04 #@! TA.AperFunction,Conductor*
%ADD28C,0.200000*%
G04 #@! TD*
G04 #@! TA.AperFunction,Conductor*
%ADD29C,1.000000*%
G04 #@! TD*
G04 #@! TA.AperFunction,Conductor*
%ADD30C,0.600000*%
G04 #@! TD*
G04 #@! TA.AperFunction,Conductor*
%ADD31C,1.500000*%
G04 #@! TD*
G04 #@! TA.AperFunction,Conductor*
%ADD32C,0.800000*%
G04 #@! TD*
G04 APERTURE END LIST*
D10*
X105530000Y-98080000D03*
D11*
X101350000Y-98080000D03*
D10*
X105530000Y-106720000D03*
D11*
X101350000Y-106720000D03*
D12*
X105900000Y-79150000D03*
X105900000Y-83650000D03*
D13*
X108400000Y-77900000D03*
X108400000Y-84900000D03*
D14*
X136575000Y-113950000D03*
D15*
X134035000Y-113950000D03*
D16*
X178400000Y-76640000D03*
X178400000Y-74100000D03*
X175860000Y-76640000D03*
X175860000Y-74100000D03*
D14*
X132580000Y-90600000D03*
D15*
X130040000Y-90600000D03*
X127500000Y-90600000D03*
X124960000Y-90600000D03*
X122420000Y-90600000D03*
X119880000Y-90600000D03*
D17*
X178600000Y-93230000D03*
D18*
X178600000Y-89420000D03*
X178600000Y-85610000D03*
X178600000Y-81800000D03*
D12*
X105900000Y-89650000D03*
X105900000Y-94150000D03*
D13*
X108400000Y-88400000D03*
X108400000Y-95400000D03*
D19*
X146335000Y-99210000D03*
X146910000Y-98260000D03*
X146910000Y-100160000D03*
X147485000Y-99210000D03*
D20*
X124850000Y-101662500D03*
X126050000Y-101662500D03*
X125450000Y-101062500D03*
X124850000Y-100487500D03*
X126050000Y-100487500D03*
D21*
X143150000Y-112441421D03*
X143150000Y-113541421D03*
X143700000Y-112991421D03*
D22*
X143700000Y-112991421D03*
D21*
X144250000Y-112441421D03*
X144250000Y-113541421D03*
D17*
X178600000Y-104200000D03*
D18*
X178600000Y-100390000D03*
D23*
X125600000Y-111000000D03*
D24*
X114475000Y-74300000D03*
D25*
X111935000Y-74300000D03*
X114475000Y-71760000D03*
X111935000Y-71760000D03*
X114475000Y-69220000D03*
X111935000Y-69220000D03*
X114475000Y-66680000D03*
X111935000Y-66680000D03*
D26*
X117300000Y-110700000D03*
X134800000Y-96800000D03*
X155700000Y-113200000D03*
X169100000Y-116100000D03*
X162800000Y-87300000D03*
X122900000Y-98500000D03*
X113300000Y-108600000D03*
X161900000Y-115400000D03*
X138800000Y-81400000D03*
X158600000Y-108700000D03*
X103300000Y-106800000D03*
X152500000Y-87300000D03*
X141700000Y-105500000D03*
X139600000Y-110600000D03*
X107100000Y-75600000D03*
X165600000Y-99100000D03*
X147000000Y-92800000D03*
X121300000Y-110700000D03*
X182500000Y-88700000D03*
X121500000Y-66200000D03*
X169600000Y-99100000D03*
X138800000Y-92800000D03*
X167400000Y-66900000D03*
X170200000Y-84300000D03*
X153400000Y-66900000D03*
X119300000Y-106300000D03*
X133200000Y-98800000D03*
X182500000Y-90700000D03*
X101400000Y-102700000D03*
X124500000Y-96600000D03*
X122300000Y-108700000D03*
X143400000Y-115400000D03*
X107700000Y-99000000D03*
X182500000Y-78700000D03*
X109300000Y-106300000D03*
X176600000Y-95000000D03*
X169400000Y-71100000D03*
X105900000Y-86600000D03*
X135300000Y-71600000D03*
X172800000Y-96100000D03*
X174600000Y-95000000D03*
X173400000Y-68900000D03*
X163400000Y-77500000D03*
X152500000Y-83400000D03*
X145400000Y-68900000D03*
X145400000Y-64900000D03*
X147400000Y-77500000D03*
X175500000Y-87600000D03*
X126800000Y-66200000D03*
X163100000Y-116100000D03*
X153400000Y-74900000D03*
X138800000Y-90000000D03*
X134800000Y-98800000D03*
X115300000Y-88900000D03*
X137300000Y-100200000D03*
X134800000Y-92800000D03*
X109300000Y-108600000D03*
X133200000Y-94800000D03*
X107100000Y-80800000D03*
X140300000Y-70700000D03*
X149300000Y-110400000D03*
X172800000Y-98100000D03*
X170600000Y-91900000D03*
X155400000Y-66900000D03*
X182500000Y-76700000D03*
X141700000Y-107500000D03*
X138100000Y-87600000D03*
X122600000Y-104600000D03*
X167400000Y-68900000D03*
X122900000Y-103800000D03*
X124500000Y-110500000D03*
X182500000Y-106700000D03*
X143400000Y-66900000D03*
X111700000Y-99400000D03*
X134800000Y-94800000D03*
D27*
X115300000Y-100600000D03*
X118900000Y-104400000D03*
D26*
X151400000Y-68900000D03*
X158600000Y-106300000D03*
X153400000Y-68900000D03*
X121000000Y-106300000D03*
X117400000Y-79100000D03*
D27*
X115800000Y-99400000D03*
D26*
X167400000Y-64900000D03*
X153400000Y-77500000D03*
X171600000Y-77500000D03*
X153600000Y-85400000D03*
X159400000Y-66900000D03*
X173400000Y-66900000D03*
X151600000Y-85400000D03*
X160500000Y-83400000D03*
X149400000Y-66900000D03*
X144700000Y-82200000D03*
X110900000Y-97600000D03*
X176600000Y-98000000D03*
X108400000Y-91200000D03*
X180600000Y-98000000D03*
X132100000Y-116100000D03*
X169600000Y-96900000D03*
X165500000Y-79900000D03*
X124500000Y-108700000D03*
X165100000Y-116100000D03*
X159600000Y-85400000D03*
X122300000Y-107800000D03*
X132500000Y-88700000D03*
X127100000Y-70500000D03*
X139700000Y-103500000D03*
D27*
X118900000Y-99400000D03*
D26*
X134500000Y-87200000D03*
X178600000Y-83700000D03*
X139600000Y-115300000D03*
X165400000Y-74900000D03*
X121000000Y-105100000D03*
X171600000Y-79500000D03*
X151400000Y-77500000D03*
X139500000Y-94800000D03*
X113700000Y-91200000D03*
X182500000Y-80700000D03*
X111400000Y-70600000D03*
X143400000Y-71100000D03*
X149300000Y-101000000D03*
X131700000Y-69300000D03*
X159400000Y-68900000D03*
X124300000Y-77900000D03*
D27*
X115300000Y-103200000D03*
D26*
X159400000Y-74900000D03*
X176000000Y-83700000D03*
X162800000Y-83300000D03*
X153600000Y-116000000D03*
X136800000Y-108300000D03*
X116300000Y-78200000D03*
X148600000Y-92800000D03*
X155400000Y-68900000D03*
X159400000Y-77500000D03*
D27*
X117400000Y-99400000D03*
D26*
X114600000Y-93700000D03*
X111300000Y-108600000D03*
X135800000Y-111800000D03*
X125700000Y-104600000D03*
X144600000Y-115400000D03*
X171100000Y-81800000D03*
X136600000Y-78100000D03*
X146900000Y-115900000D03*
X169400000Y-77500000D03*
X129800000Y-105700000D03*
X101400000Y-88700000D03*
X130000000Y-80300000D03*
X124500000Y-106900000D03*
X101400000Y-82700000D03*
X178600000Y-95000000D03*
X132000000Y-78300000D03*
X135800000Y-109000000D03*
X128900000Y-110700000D03*
X127100000Y-81900000D03*
X115300000Y-108600000D03*
X165600000Y-96900000D03*
X163400000Y-66900000D03*
X182500000Y-72700000D03*
X157400000Y-71100000D03*
X179500000Y-87600000D03*
X136600000Y-74100000D03*
X171100000Y-114000000D03*
X141300000Y-66900000D03*
X119100000Y-69900000D03*
X109800000Y-79200000D03*
X149100000Y-98700000D03*
X161200000Y-81000000D03*
X110600000Y-75600000D03*
X131400000Y-103700000D03*
X171100000Y-110400000D03*
X160400000Y-88500000D03*
X138100000Y-116100000D03*
X119300000Y-108600000D03*
D27*
X109800000Y-102400000D03*
D26*
X133200000Y-66300000D03*
X182500000Y-94700000D03*
X169400000Y-64900000D03*
X165400000Y-68900000D03*
X130000000Y-108700000D03*
X136600000Y-76100000D03*
X159400000Y-71100000D03*
X147400000Y-71100000D03*
X147400000Y-64900000D03*
X182500000Y-74700000D03*
X127100000Y-72500000D03*
X113700000Y-89300000D03*
X111700000Y-104600000D03*
X125400000Y-97600000D03*
X167100000Y-116100000D03*
X180300000Y-76700000D03*
X133200000Y-100800000D03*
X160500000Y-87300000D03*
X153400000Y-71100000D03*
X180600000Y-107700000D03*
X165400000Y-77500000D03*
X117300000Y-66400000D03*
X159900000Y-114000000D03*
X182500000Y-108700000D03*
X117500000Y-77700000D03*
X171400000Y-64900000D03*
X130700000Y-66300000D03*
X138500000Y-106700000D03*
X149500000Y-83600000D03*
X180300000Y-74700000D03*
X173600000Y-77500000D03*
X149700000Y-104500000D03*
X138900000Y-69200000D03*
X155400000Y-64900000D03*
X113300000Y-110700000D03*
X124300000Y-74500000D03*
X122700000Y-94900000D03*
X161400000Y-77500000D03*
X119700000Y-87100000D03*
X132000000Y-82300000D03*
X176600000Y-107700000D03*
X177500000Y-91200000D03*
X123200000Y-96600000D03*
X141300000Y-64900000D03*
X172600000Y-91900000D03*
X115300000Y-110700000D03*
X138600000Y-76100000D03*
X180600000Y-95000000D03*
X124500000Y-107800000D03*
X130700000Y-84100000D03*
X133200000Y-92800000D03*
X167600000Y-99100000D03*
X167400000Y-74900000D03*
X124300000Y-81900000D03*
X136100000Y-116100000D03*
X101400000Y-104700000D03*
X166600000Y-91900000D03*
X151000000Y-113200000D03*
X147400000Y-68900000D03*
X135300000Y-107100000D03*
X121000000Y-109700000D03*
X115300000Y-79100000D03*
X103500000Y-74700000D03*
X168600000Y-95000000D03*
D27*
X115800000Y-104400000D03*
D26*
X164600000Y-80600000D03*
X101400000Y-92700000D03*
X173700000Y-97100000D03*
X149400000Y-74900000D03*
X117300000Y-106300000D03*
D27*
X119400000Y-103600000D03*
D26*
X161400000Y-74900000D03*
X147400000Y-66900000D03*
X114600000Y-81000000D03*
X101400000Y-84700000D03*
D27*
X120500000Y-103600000D03*
D26*
X125300000Y-66200000D03*
X182500000Y-104700000D03*
X122300000Y-106900000D03*
X134500000Y-85200000D03*
X182500000Y-102700000D03*
X151400000Y-71100000D03*
X111300000Y-106300000D03*
X109300000Y-110700000D03*
X124300000Y-79900000D03*
X157400000Y-68900000D03*
X130700000Y-69300000D03*
X117300000Y-67900000D03*
D27*
X115300000Y-101900000D03*
D26*
X158500000Y-87300000D03*
X140500000Y-108100000D03*
X148700000Y-116000000D03*
X101400000Y-80700000D03*
X165400000Y-64900000D03*
X169400000Y-74900000D03*
X182500000Y-84700000D03*
X118300000Y-89000000D03*
X124600000Y-93900000D03*
X137400000Y-67700000D03*
X113300000Y-106300000D03*
X134500000Y-89200000D03*
X135300000Y-69600000D03*
X109000000Y-71800000D03*
X171400000Y-66900000D03*
X137300000Y-96200000D03*
X130900000Y-110700000D03*
D27*
X110200000Y-100700000D03*
D26*
X151000000Y-116000000D03*
X147400000Y-74900000D03*
X155700000Y-116100000D03*
X162800000Y-89300000D03*
X155400000Y-71100000D03*
X171400000Y-68900000D03*
X159400000Y-64900000D03*
X132100000Y-110700000D03*
X173100000Y-116100000D03*
X147500000Y-96900000D03*
X167400000Y-71100000D03*
X132300000Y-73500000D03*
X177500000Y-87600000D03*
X126600000Y-93900000D03*
X155600000Y-85400000D03*
X138600000Y-78100000D03*
X163400000Y-71100000D03*
X175100000Y-116100000D03*
X132100000Y-112700000D03*
X158600000Y-114000000D03*
X147800000Y-94400000D03*
X153400000Y-64900000D03*
X128000000Y-108700000D03*
X115300000Y-106300000D03*
X138800000Y-82800000D03*
X182500000Y-86700000D03*
X117300000Y-108600000D03*
X149400000Y-71100000D03*
X156500000Y-110000000D03*
X157300000Y-114000000D03*
X147900000Y-114900000D03*
X163400000Y-68900000D03*
X132000000Y-80300000D03*
X149700000Y-105900000D03*
X127100000Y-77900000D03*
X101400000Y-90700000D03*
X161400000Y-68900000D03*
X119900000Y-98800000D03*
X133300000Y-71600000D03*
X180300000Y-78600000D03*
X141600000Y-115000000D03*
X157600000Y-85400000D03*
X137300000Y-94200000D03*
X134300000Y-73500000D03*
X126900000Y-110700000D03*
X108000000Y-72700000D03*
X117400000Y-83000000D03*
D27*
X117400000Y-104400000D03*
D26*
X150300000Y-92800000D03*
X145400000Y-66900000D03*
X108200000Y-97600000D03*
X162800000Y-85300000D03*
X101400000Y-76700000D03*
X154400000Y-110700000D03*
X182500000Y-92700000D03*
X155600000Y-108700000D03*
X114600000Y-83400000D03*
X140600000Y-115800000D03*
X171100000Y-116100000D03*
X159000000Y-88500000D03*
X149697613Y-103149298D03*
X182500000Y-100700000D03*
X118300000Y-92300000D03*
X153600000Y-113200000D03*
X154500000Y-87300000D03*
X178600000Y-98000000D03*
X112500000Y-94200000D03*
X115800000Y-71300000D03*
X170600000Y-95000000D03*
X173400000Y-71100000D03*
X121800000Y-69500000D03*
X130300000Y-73500000D03*
X138500000Y-105300000D03*
X155400000Y-77500000D03*
X101400000Y-100700000D03*
X161400000Y-66900000D03*
X165500000Y-89300000D03*
X143400000Y-64900000D03*
X173100000Y-114000000D03*
X112600000Y-72900000D03*
X105900000Y-96500000D03*
X138800000Y-85400000D03*
X127100000Y-74500000D03*
X163400000Y-74900000D03*
X175400000Y-64900000D03*
X166600000Y-95000000D03*
X130000000Y-78300000D03*
X117400000Y-81000000D03*
X101400000Y-96700000D03*
X173100000Y-110400000D03*
X155400000Y-74900000D03*
X147800000Y-95500000D03*
X115300000Y-86400000D03*
X173600000Y-79500000D03*
X163400000Y-64900000D03*
X179500000Y-91200000D03*
X157400000Y-66900000D03*
X127100000Y-79900000D03*
X172600000Y-107700000D03*
X151400000Y-74900000D03*
X119800000Y-83000000D03*
X171400000Y-71100000D03*
X138300000Y-111500000D03*
X119900000Y-105100000D03*
X156500000Y-83400000D03*
X178500000Y-78600000D03*
X165400000Y-66900000D03*
X122300000Y-110500000D03*
X157400000Y-74900000D03*
X101400000Y-108900000D03*
X135800000Y-110400000D03*
X182500000Y-98700000D03*
X124500000Y-109600000D03*
X173400000Y-64900000D03*
X169400000Y-68900000D03*
X109900000Y-89600000D03*
X161400000Y-64900000D03*
X167400000Y-77500000D03*
X137000000Y-106800000D03*
X158500000Y-83400000D03*
X157400000Y-77500000D03*
X138600000Y-74100000D03*
X164600000Y-91900000D03*
X126000000Y-108700000D03*
X156500000Y-111300000D03*
X169400000Y-66900000D03*
X145200000Y-85500000D03*
X134500000Y-83200000D03*
X128900000Y-92500000D03*
X105900000Y-91900000D03*
X134800000Y-100800000D03*
X130000000Y-82300000D03*
X141700000Y-103500000D03*
X144700000Y-80700000D03*
X149300000Y-111900000D03*
X141600000Y-110600000D03*
X122800000Y-66200000D03*
X167600000Y-96900000D03*
X175500000Y-91200000D03*
X149400000Y-64900000D03*
X112500000Y-92300000D03*
X137300000Y-98200000D03*
X149400000Y-68900000D03*
X149400000Y-77500000D03*
X136800000Y-109700000D03*
X148000000Y-101000000D03*
X134500000Y-91200000D03*
X101400000Y-86700000D03*
X130900000Y-104700000D03*
X132100000Y-114700000D03*
X175400000Y-71100000D03*
X151400000Y-66900000D03*
X134100000Y-116100000D03*
X182500000Y-96700000D03*
X145900000Y-114900000D03*
X128600000Y-66200000D03*
X155600000Y-106300000D03*
X139200000Y-64900000D03*
X133300000Y-69600000D03*
X161400000Y-71100000D03*
X113700000Y-97600000D03*
X101400000Y-74700000D03*
X101400000Y-78700000D03*
X174600000Y-107700000D03*
X157400000Y-64900000D03*
X111300000Y-110700000D03*
X165400000Y-71100000D03*
X176500000Y-78600000D03*
X178600000Y-107700000D03*
X172600000Y-95000000D03*
X168600000Y-91900000D03*
X114000000Y-79100000D03*
D27*
X119400000Y-100200000D03*
D26*
X145400000Y-71100000D03*
X143600000Y-110600000D03*
X133200000Y-96800000D03*
X101400000Y-72700000D03*
X149100000Y-97500000D03*
D27*
X110200000Y-104100000D03*
D26*
X135700000Y-66300000D03*
X154500000Y-83400000D03*
X119300000Y-110700000D03*
X143400000Y-68900000D03*
X101400000Y-94700000D03*
X182500000Y-82700000D03*
X107700000Y-105700000D03*
X175600000Y-81400000D03*
X116100000Y-66400000D03*
X143400000Y-108100000D03*
X156500000Y-87300000D03*
X150400000Y-97500000D03*
X151400000Y-64900000D03*
X119000000Y-85600000D03*
D27*
X112200000Y-80700000D03*
X122700000Y-72200000D03*
D26*
X118100000Y-95800000D03*
X141800000Y-94100000D03*
X140000000Y-76100000D03*
X140900000Y-95000000D03*
X141800000Y-95000000D03*
D27*
X111000000Y-84400000D03*
D26*
X119100000Y-68300000D03*
X119600000Y-67600000D03*
X118100000Y-96700000D03*
D27*
X111000000Y-94900000D03*
D26*
X118600000Y-67600000D03*
X140900000Y-94100000D03*
D27*
X144975000Y-109870710D03*
X107600000Y-99900000D03*
D26*
X145500000Y-107300000D03*
D27*
X112100000Y-102400000D03*
D26*
X144600000Y-107300000D03*
X144600000Y-108200000D03*
X145500000Y-108200000D03*
D27*
X142274863Y-114366420D03*
D26*
X145850000Y-92700000D03*
X147900000Y-113800000D03*
X147900000Y-112900000D03*
D27*
X172000000Y-73700000D03*
D26*
X146400000Y-103200000D03*
X146400000Y-104100000D03*
X148800000Y-113800000D03*
X144850000Y-92700000D03*
X145500000Y-103200000D03*
X145500000Y-104100000D03*
X148800000Y-112900000D03*
D27*
X120500000Y-75700000D03*
X135600000Y-81400000D03*
D26*
X126200000Y-95100000D03*
D27*
X116300000Y-84400000D03*
D26*
X127400000Y-105201142D03*
D27*
X130400000Y-102800000D03*
D26*
X122100000Y-102600000D03*
X127100000Y-95100000D03*
D27*
X115700000Y-92900000D03*
X128200000Y-104275736D03*
X128199997Y-94100000D03*
X129000000Y-94100000D03*
X128800000Y-99700000D03*
X123400000Y-73000000D03*
X112200000Y-91200000D03*
X145200000Y-114200000D03*
X121661605Y-100128335D03*
X121048994Y-100642837D03*
X128500000Y-81000000D03*
X128850664Y-103312488D03*
X125700000Y-81000000D03*
X128845946Y-102512500D03*
X122700000Y-84100000D03*
X115798052Y-94409179D03*
X137128186Y-92123725D03*
X120500000Y-76700000D03*
D28*
X112200000Y-78800000D02*
X118800000Y-72200000D01*
X118800000Y-72200000D02*
X122700000Y-72200000D01*
X112200000Y-80700000D02*
X112200000Y-78800000D01*
D29*
X119100000Y-68300000D02*
X117700000Y-69700000D01*
X140000000Y-76100000D02*
X140000000Y-72200000D01*
X118200000Y-96200000D02*
X112300000Y-96200000D01*
X111000000Y-84400000D02*
X111000000Y-77775000D01*
X135400000Y-67600000D02*
X118600000Y-67600000D01*
X117700000Y-71075000D02*
X114475000Y-74300000D01*
X111000000Y-84400000D02*
X111000000Y-94900000D01*
X140900000Y-94100000D02*
X140000000Y-93200000D01*
X117700000Y-69700000D02*
X117700000Y-71075000D01*
X140000000Y-93200000D02*
X140000000Y-76100000D01*
X112300000Y-96200000D02*
X111000000Y-94900000D01*
X140000000Y-72200000D02*
X135400000Y-67600000D01*
X111000000Y-77775000D02*
X114475000Y-74300000D01*
X144600000Y-107300000D02*
X143200000Y-105900000D01*
D28*
X111100000Y-99900000D02*
X112100000Y-100900000D01*
X142279289Y-110770710D02*
X143179289Y-109870710D01*
X107600000Y-99900000D02*
X111100000Y-99900000D01*
X143179289Y-109870710D02*
X144975000Y-109870710D01*
D29*
X141800000Y-70100000D02*
X136700000Y-65000000D01*
D28*
X142274863Y-114366420D02*
X142279289Y-114361994D01*
D29*
X143200000Y-105900000D02*
X143200000Y-93650000D01*
X111200000Y-65000000D02*
X110200000Y-66000000D01*
D28*
X142279289Y-114361994D02*
X142279289Y-110770710D01*
X112100000Y-100900000D02*
X112100000Y-102400000D01*
D29*
X110200000Y-72565000D02*
X111935000Y-74300000D01*
X143200000Y-93650000D02*
X141800000Y-92250000D01*
X136700000Y-65000000D02*
X111200000Y-65000000D01*
X110200000Y-66000000D02*
X110200000Y-72565000D01*
X141800000Y-92250000D02*
X141800000Y-70100000D01*
D28*
X143800000Y-91650000D02*
X144850000Y-92700000D01*
X172000000Y-73700000D02*
X145800000Y-73700000D01*
D30*
X145300000Y-93150000D02*
X145400000Y-93150000D01*
X145400000Y-93150000D02*
X145350000Y-93200000D01*
D31*
X147900000Y-105600000D02*
X147900000Y-112900000D01*
D30*
X145350000Y-93200000D02*
X145350000Y-103050000D01*
D31*
X146400000Y-104100000D02*
X147900000Y-105600000D01*
D28*
X143800000Y-75700000D02*
X143800000Y-91650000D01*
X145800000Y-73700000D02*
X143800000Y-75700000D01*
D30*
X145850000Y-92700000D02*
X145400000Y-93150000D01*
X144850000Y-92700000D02*
X145300000Y-93150000D01*
X145350000Y-103050000D02*
X145500000Y-103200000D01*
D28*
X133500000Y-75700000D02*
X135600000Y-77800000D01*
X135600000Y-77800000D02*
X135600000Y-81400000D01*
X120500000Y-75700000D02*
X133500000Y-75700000D01*
D30*
X127400000Y-102600000D02*
X127400000Y-105201142D01*
X128998858Y-105201142D02*
X127400000Y-105201142D01*
X130400000Y-102800000D02*
X130400000Y-103800000D01*
D28*
X122187500Y-102512500D02*
X127387500Y-102512500D01*
D30*
X130400000Y-103800000D02*
X128998858Y-105201142D01*
X132580000Y-92120000D02*
X132580000Y-90600000D01*
D32*
X127400000Y-102600000D02*
X127400000Y-95400000D01*
D30*
X130400000Y-102800000D02*
X131300000Y-101900000D01*
X131300000Y-93400000D02*
X132580000Y-92120000D01*
D28*
X127400000Y-95400000D02*
X127400000Y-102500000D01*
X127400000Y-102500000D02*
X127400000Y-102600000D01*
D30*
X131300000Y-101900000D02*
X131300000Y-93400000D01*
X122100000Y-102600000D02*
X127400000Y-102600000D01*
D32*
X127400000Y-95400000D02*
X127100000Y-95100000D01*
D28*
X127387500Y-102512500D02*
X127400000Y-102500000D01*
X115700000Y-92900000D02*
X116300000Y-92300000D01*
X116300000Y-92300000D02*
X116300000Y-84400000D01*
X122100000Y-102600000D02*
X122187500Y-102512500D01*
X128199997Y-100700003D02*
X128199997Y-94100000D01*
X128200000Y-100700006D02*
X128199997Y-100700003D01*
X128200000Y-104275736D02*
X128200000Y-100700006D01*
X129000000Y-99500000D02*
X128800000Y-99700000D01*
X129000000Y-94100000D02*
X129000000Y-99500000D01*
X112800000Y-79100000D02*
X112800000Y-81400000D01*
X112200000Y-82000000D02*
X112200000Y-91200000D01*
X112800000Y-81400000D02*
X112200000Y-82000000D01*
X118900000Y-73000000D02*
X112800000Y-79100000D01*
X123400000Y-73000000D02*
X118900000Y-73000000D01*
X142900000Y-92050000D02*
X142900000Y-75800000D01*
X144200000Y-104400000D02*
X144200000Y-93350000D01*
X146400000Y-106600000D02*
X144200000Y-104400000D01*
X145200000Y-114200000D02*
X145200000Y-111800000D01*
X177350000Y-73050000D02*
X178400000Y-74100000D01*
X145650000Y-73050000D02*
X177350000Y-73050000D01*
X145200000Y-111800000D02*
X146400000Y-110600000D01*
X144200000Y-93350000D02*
X142900000Y-92050000D01*
X142900000Y-75800000D02*
X145650000Y-73050000D01*
X146400000Y-110600000D02*
X146400000Y-106600000D01*
X123300000Y-93200000D02*
X126800000Y-93200000D01*
X121661605Y-100128335D02*
X121661605Y-94838395D01*
X121661605Y-94838395D02*
X123300000Y-93200000D01*
X126800000Y-93200000D02*
X127500000Y-92500000D01*
X127500000Y-92500000D02*
X127500000Y-90600000D01*
X124300000Y-92600000D02*
X124960000Y-91940000D01*
X121048994Y-94601006D02*
X123050000Y-92600000D01*
X123050000Y-92600000D02*
X124300000Y-92600000D01*
X121048994Y-100642837D02*
X121048994Y-94601006D01*
X124960000Y-91940000D02*
X124960000Y-90600000D01*
X128894487Y-103312488D02*
X130400000Y-101806975D01*
X130400000Y-92195000D02*
X131190000Y-91405000D01*
X131190000Y-88490000D02*
X128500000Y-85800000D01*
X131190000Y-91405000D02*
X131190000Y-88490000D01*
X128500000Y-85800000D02*
X128500000Y-81000000D01*
X128850664Y-103312488D02*
X128894487Y-103312488D01*
X130400000Y-101806975D02*
X130400000Y-92195000D01*
X128800000Y-89900000D02*
X125700000Y-86800000D01*
X125700000Y-86800000D02*
X125700000Y-81000000D01*
X128800000Y-91300000D02*
X128800000Y-89900000D01*
X129700000Y-92200000D02*
X128800000Y-91300000D01*
X129700000Y-101658446D02*
X129700000Y-92200000D01*
X128845946Y-102512500D02*
X129700000Y-101658446D01*
X117400000Y-92807231D02*
X117400000Y-84900000D01*
X117400000Y-84900000D02*
X118200000Y-84100000D01*
X115798052Y-94409179D02*
X117400000Y-92807231D01*
X118200000Y-84100000D02*
X122700000Y-84100000D01*
X133000000Y-76700000D02*
X120500000Y-76700000D01*
X137128186Y-84528186D02*
X134600000Y-82000000D01*
X134600000Y-82000000D02*
X134600000Y-78300000D01*
X134600000Y-78300000D02*
X133000000Y-76700000D01*
X137128186Y-92123725D02*
X137128186Y-84528186D01*
G04 #@! TA.AperFunction,Conductor*
G36*
X110867501Y-64219407D02*
G01*
X110903465Y-64268907D01*
X110903465Y-64330093D01*
X110867501Y-64379593D01*
X110864311Y-64381816D01*
X110753460Y-64455883D01*
X109655883Y-65553460D01*
X109597015Y-65641564D01*
X109579223Y-65668191D01*
X109526420Y-65795670D01*
X109526420Y-65795672D01*
X109499500Y-65931004D01*
X109499500Y-72633996D01*
X109526420Y-72769327D01*
X109526420Y-72769329D01*
X109579223Y-72896808D01*
X109648174Y-73000002D01*
X109655886Y-73011543D01*
X110267067Y-73622724D01*
X110852129Y-74207786D01*
X110879906Y-74262303D01*
X110880648Y-74287490D01*
X110879418Y-74299996D01*
X110879417Y-74300003D01*
X110899698Y-74505929D01*
X110899699Y-74505934D01*
X110959768Y-74703954D01*
X111057316Y-74886452D01*
X111136055Y-74982396D01*
X111188590Y-75046410D01*
X111188595Y-75046414D01*
X111348547Y-75177683D01*
X111348548Y-75177683D01*
X111348550Y-75177685D01*
X111531046Y-75275232D01*
X111665007Y-75315868D01*
X111729065Y-75335300D01*
X111729070Y-75335301D01*
X111934997Y-75355583D01*
X111935000Y-75355583D01*
X111935003Y-75355583D01*
X112140929Y-75335301D01*
X112140929Y-75335300D01*
X112140934Y-75335300D01*
X112204993Y-75315868D01*
X112266163Y-75317069D01*
X112314948Y-75353997D01*
X112332710Y-75412548D01*
X112312664Y-75470356D01*
X112303733Y-75480609D01*
X110455883Y-77328460D01*
X110379223Y-77443191D01*
X110326420Y-77570670D01*
X110326420Y-77570672D01*
X110308565Y-77660436D01*
X110299500Y-77706006D01*
X110299500Y-94968996D01*
X110326420Y-95104327D01*
X110326420Y-95104329D01*
X110379223Y-95231808D01*
X110448043Y-95334806D01*
X110455886Y-95346543D01*
X111853457Y-96744114D01*
X111968189Y-96820775D01*
X112095672Y-96873580D01*
X112231006Y-96900500D01*
X112231007Y-96900500D01*
X116968872Y-96900500D01*
X117027063Y-96919407D01*
X117038876Y-96929496D01*
X117318376Y-97208996D01*
X117334722Y-97223679D01*
X117334738Y-97223693D01*
X117355380Y-97240327D01*
X117426425Y-97277490D01*
X117426426Y-97277490D01*
X117426428Y-97277491D01*
X117426561Y-97277530D01*
X117493464Y-97297175D01*
X117551362Y-97305500D01*
X118092126Y-97305500D01*
X118094905Y-97305682D01*
X118100000Y-97305682D01*
X118105095Y-97305682D01*
X118107874Y-97305500D01*
X118348620Y-97305500D01*
X118348638Y-97305500D01*
X118370607Y-97304322D01*
X118396965Y-97301488D01*
X118473482Y-97277529D01*
X118534805Y-97244044D01*
X118581629Y-97208991D01*
X118808991Y-96981629D01*
X118823693Y-96965262D01*
X118840327Y-96944620D01*
X118877490Y-96873575D01*
X118897175Y-96806536D01*
X118905500Y-96748638D01*
X118905500Y-95751362D01*
X118904322Y-95729393D01*
X118901488Y-95703035D01*
X118881614Y-95639563D01*
X118877530Y-95626520D01*
X118867961Y-95608996D01*
X118844044Y-95565195D01*
X118808991Y-95518371D01*
X118581629Y-95291009D01*
X118581623Y-95291003D01*
X118565277Y-95276320D01*
X118565270Y-95276314D01*
X118565262Y-95276307D01*
X118544620Y-95259673D01*
X118544619Y-95259672D01*
X118473576Y-95222510D01*
X118473571Y-95222508D01*
X118406542Y-95202826D01*
X118406533Y-95202824D01*
X118360322Y-95196180D01*
X118348638Y-95194500D01*
X118348637Y-95194500D01*
X118107874Y-95194500D01*
X118105095Y-95194318D01*
X118094905Y-95194318D01*
X118092126Y-95194500D01*
X117451343Y-95194500D01*
X117429405Y-95195677D01*
X117429398Y-95195677D01*
X117429393Y-95195678D01*
X117420894Y-95196591D01*
X117403038Y-95198511D01*
X117403033Y-95198512D01*
X117326520Y-95222469D01*
X117265193Y-95255957D01*
X117218369Y-95291010D01*
X117038876Y-95470504D01*
X116984359Y-95498281D01*
X116968872Y-95499500D01*
X112631165Y-95499500D01*
X112572974Y-95480593D01*
X112561161Y-95470504D01*
X111729496Y-94638839D01*
X111701719Y-94584322D01*
X111700500Y-94568835D01*
X111700500Y-94409176D01*
X115292405Y-94409176D01*
X115292405Y-94409181D01*
X115312886Y-94551635D01*
X115372674Y-94682550D01*
X115372675Y-94682552D01*
X115466924Y-94791322D01*
X115466925Y-94791323D01*
X115587994Y-94869129D01*
X115587999Y-94869132D01*
X115670874Y-94893466D01*
X115726087Y-94909678D01*
X115726088Y-94909678D01*
X115726091Y-94909679D01*
X115726093Y-94909679D01*
X115870011Y-94909679D01*
X115870013Y-94909679D01*
X116008105Y-94869132D01*
X116129180Y-94791322D01*
X116223429Y-94682552D01*
X116283217Y-94551636D01*
X116292796Y-94485013D01*
X116303699Y-94409181D01*
X116303699Y-94409179D01*
X116302844Y-94403236D01*
X116300610Y-94387696D01*
X116311042Y-94327407D01*
X116328595Y-94303605D01*
X117640460Y-92991742D01*
X117660783Y-92956542D01*
X117680020Y-92923223D01*
X117680020Y-92923221D01*
X117680022Y-92923219D01*
X117700500Y-92846793D01*
X117700500Y-92767669D01*
X117700500Y-90371532D01*
X118829500Y-90371532D01*
X118829500Y-90828467D01*
X118869869Y-91031418D01*
X118949058Y-91222597D01*
X119043885Y-91364516D01*
X119064023Y-91394655D01*
X119210345Y-91540977D01*
X119382402Y-91655941D01*
X119573580Y-91735130D01*
X119776535Y-91775500D01*
X119776536Y-91775500D01*
X119983464Y-91775500D01*
X119983465Y-91775500D01*
X120186420Y-91735130D01*
X120377598Y-91655941D01*
X120549655Y-91540977D01*
X120695977Y-91394655D01*
X120810941Y-91222598D01*
X120890130Y-91031420D01*
X120930500Y-90828465D01*
X120930500Y-90371535D01*
X120930499Y-90371532D01*
X121369500Y-90371532D01*
X121369500Y-90828467D01*
X121409869Y-91031418D01*
X121489058Y-91222597D01*
X121583885Y-91364516D01*
X121604023Y-91394655D01*
X121750345Y-91540977D01*
X121922402Y-91655941D01*
X122113580Y-91735130D01*
X122316535Y-91775500D01*
X122316536Y-91775500D01*
X122523464Y-91775500D01*
X122523465Y-91775500D01*
X122726420Y-91735130D01*
X122917598Y-91655941D01*
X123089655Y-91540977D01*
X123235977Y-91394655D01*
X123350941Y-91222598D01*
X123430130Y-91031420D01*
X123470500Y-90828465D01*
X123470500Y-90371535D01*
X123430130Y-90168580D01*
X123350941Y-89977402D01*
X123235977Y-89805345D01*
X123089655Y-89659023D01*
X123028966Y-89618472D01*
X122917597Y-89544058D01*
X122726418Y-89464869D01*
X122523467Y-89424500D01*
X122523465Y-89424500D01*
X122316535Y-89424500D01*
X122316532Y-89424500D01*
X122113581Y-89464869D01*
X121922402Y-89544058D01*
X121750348Y-89659020D01*
X121604020Y-89805348D01*
X121489058Y-89977402D01*
X121409869Y-90168581D01*
X121369500Y-90371532D01*
X120930499Y-90371532D01*
X120890130Y-90168580D01*
X120810941Y-89977402D01*
X120695977Y-89805345D01*
X120549655Y-89659023D01*
X120488966Y-89618472D01*
X120377597Y-89544058D01*
X120186418Y-89464869D01*
X119983467Y-89424500D01*
X119983465Y-89424500D01*
X119776535Y-89424500D01*
X119776532Y-89424500D01*
X119573581Y-89464869D01*
X119382402Y-89544058D01*
X119210348Y-89659020D01*
X119064020Y-89805348D01*
X118949058Y-89977402D01*
X118869869Y-90168581D01*
X118829500Y-90371532D01*
X117700500Y-90371532D01*
X117700500Y-85065479D01*
X117719407Y-85007288D01*
X117729496Y-84995475D01*
X118295475Y-84429496D01*
X118349992Y-84401719D01*
X118365479Y-84400500D01*
X122252917Y-84400500D01*
X122311108Y-84419407D01*
X122327733Y-84434667D01*
X122368872Y-84482143D01*
X122489947Y-84559953D01*
X122592698Y-84590123D01*
X122628035Y-84600499D01*
X122628036Y-84600499D01*
X122628039Y-84600500D01*
X122628041Y-84600500D01*
X122771959Y-84600500D01*
X122771961Y-84600500D01*
X122910053Y-84559953D01*
X123031128Y-84482143D01*
X123125377Y-84373373D01*
X123185165Y-84242457D01*
X123205647Y-84100000D01*
X123203566Y-84085528D01*
X123185165Y-83957543D01*
X123138739Y-83855886D01*
X123125377Y-83826627D01*
X123031128Y-83717857D01*
X123031127Y-83717856D01*
X123031126Y-83717855D01*
X122910057Y-83640049D01*
X122910054Y-83640047D01*
X122910053Y-83640047D01*
X122910050Y-83640046D01*
X122771964Y-83599500D01*
X122771961Y-83599500D01*
X122628039Y-83599500D01*
X122628035Y-83599500D01*
X122489949Y-83640046D01*
X122489942Y-83640049D01*
X122368876Y-83717854D01*
X122368871Y-83717858D01*
X122327736Y-83765331D01*
X122275340Y-83796927D01*
X122252917Y-83799500D01*
X118160435Y-83799500D01*
X118084012Y-83819978D01*
X118021818Y-83855886D01*
X118021817Y-83855885D01*
X118015491Y-83859538D01*
X117215489Y-84659540D01*
X117215488Y-84659539D01*
X117159539Y-84715489D01*
X117119980Y-84784007D01*
X117119978Y-84784011D01*
X117099500Y-84860435D01*
X117099500Y-92641751D01*
X117080593Y-92699942D01*
X117070504Y-92711755D01*
X115902576Y-93879683D01*
X115848059Y-93907460D01*
X115832572Y-93908679D01*
X115726087Y-93908679D01*
X115588001Y-93949225D01*
X115587994Y-93949228D01*
X115466925Y-94027034D01*
X115372674Y-94135807D01*
X115312886Y-94266722D01*
X115292405Y-94409176D01*
X111700500Y-94409176D01*
X111700500Y-92899997D01*
X115194353Y-92899997D01*
X115194353Y-92900002D01*
X115214834Y-93042456D01*
X115255274Y-93131006D01*
X115274623Y-93173373D01*
X115368872Y-93282143D01*
X115368873Y-93282144D01*
X115455420Y-93337764D01*
X115489947Y-93359953D01*
X115570857Y-93383710D01*
X115628035Y-93400499D01*
X115628036Y-93400499D01*
X115628039Y-93400500D01*
X115628041Y-93400500D01*
X115771959Y-93400500D01*
X115771961Y-93400500D01*
X115910053Y-93359953D01*
X116031128Y-93282143D01*
X116125377Y-93173373D01*
X116185165Y-93042457D01*
X116197518Y-92956542D01*
X116205647Y-92900002D01*
X116205647Y-92899998D01*
X116202558Y-92878516D01*
X116212991Y-92818227D01*
X116230543Y-92794426D01*
X116540460Y-92484511D01*
X116557886Y-92454329D01*
X116558113Y-92453936D01*
X116580020Y-92415990D01*
X116580021Y-92415989D01*
X116580021Y-92415986D01*
X116580023Y-92415984D01*
X116600499Y-92339564D01*
X116600500Y-92339562D01*
X116600500Y-84853893D01*
X116619407Y-84795702D01*
X116626741Y-84787711D01*
X116626491Y-84787494D01*
X116676962Y-84729247D01*
X116725377Y-84673373D01*
X116785165Y-84542457D01*
X116792905Y-84488621D01*
X116805647Y-84400002D01*
X116805647Y-84399997D01*
X116785165Y-84257543D01*
X116725377Y-84126628D01*
X116725377Y-84126627D01*
X116631128Y-84017857D01*
X116631127Y-84017856D01*
X116631126Y-84017855D01*
X116510057Y-83940049D01*
X116510054Y-83940047D01*
X116510053Y-83940047D01*
X116510050Y-83940046D01*
X116371964Y-83899500D01*
X116371961Y-83899500D01*
X116228039Y-83899500D01*
X116228035Y-83899500D01*
X116089949Y-83940046D01*
X116089942Y-83940049D01*
X115968873Y-84017855D01*
X115874622Y-84126628D01*
X115814834Y-84257543D01*
X115794353Y-84399997D01*
X115794353Y-84400002D01*
X115814834Y-84542456D01*
X115865162Y-84652657D01*
X115874623Y-84673373D01*
X115911116Y-84715489D01*
X115973509Y-84787494D01*
X115971471Y-84789259D01*
X115996925Y-84831458D01*
X115999500Y-84853893D01*
X115999500Y-92134521D01*
X115980593Y-92192712D01*
X115970504Y-92204524D01*
X115804523Y-92370504D01*
X115750008Y-92398281D01*
X115734521Y-92399500D01*
X115628035Y-92399500D01*
X115489949Y-92440046D01*
X115489942Y-92440049D01*
X115368873Y-92517855D01*
X115274622Y-92626628D01*
X115214834Y-92757543D01*
X115194353Y-92899997D01*
X111700500Y-92899997D01*
X111700500Y-91653027D01*
X111719407Y-91594836D01*
X111768907Y-91558872D01*
X111830093Y-91558872D01*
X111864334Y-91578210D01*
X111868869Y-91582140D01*
X111868872Y-91582143D01*
X111868874Y-91582144D01*
X111868875Y-91582145D01*
X111983705Y-91655942D01*
X111989947Y-91659953D01*
X112090787Y-91689562D01*
X112128035Y-91700499D01*
X112128036Y-91700499D01*
X112128039Y-91700500D01*
X112128041Y-91700500D01*
X112271959Y-91700500D01*
X112271961Y-91700500D01*
X112410053Y-91659953D01*
X112531128Y-91582143D01*
X112625377Y-91473373D01*
X112685165Y-91342457D01*
X112702398Y-91222597D01*
X112705647Y-91200002D01*
X112705647Y-91199997D01*
X112685165Y-91057543D01*
X112625377Y-90926628D01*
X112625377Y-90926627D01*
X112531128Y-90817857D01*
X112531127Y-90817856D01*
X112526491Y-90812506D01*
X112528524Y-90810743D01*
X112503067Y-90768505D01*
X112500500Y-90746105D01*
X112500500Y-82165478D01*
X112519407Y-82107287D01*
X112529490Y-82095480D01*
X113040460Y-81584511D01*
X113059277Y-81551918D01*
X113080021Y-81515989D01*
X113100500Y-81439562D01*
X113100500Y-79265479D01*
X113119407Y-79207288D01*
X113129496Y-79195475D01*
X116624974Y-75699997D01*
X119994353Y-75699997D01*
X119994353Y-75700002D01*
X120014834Y-75842456D01*
X120052290Y-75924471D01*
X120074623Y-75973373D01*
X120168872Y-76082143D01*
X120211257Y-76109382D01*
X120222669Y-76116716D01*
X120261400Y-76164082D01*
X120264893Y-76225168D01*
X120231813Y-76276640D01*
X120222669Y-76283284D01*
X120168872Y-76317857D01*
X120074622Y-76426628D01*
X120014834Y-76557543D01*
X119994353Y-76699997D01*
X119994353Y-76700002D01*
X120014834Y-76842456D01*
X120074622Y-76973371D01*
X120074623Y-76973373D01*
X120127736Y-77034669D01*
X120168873Y-77082144D01*
X120168875Y-77082145D01*
X120289947Y-77159953D01*
X120396403Y-77191211D01*
X120428035Y-77200499D01*
X120428036Y-77200499D01*
X120428039Y-77200500D01*
X120428041Y-77200500D01*
X120571959Y-77200500D01*
X120571961Y-77200500D01*
X120710053Y-77159953D01*
X120831128Y-77082143D01*
X120872264Y-77034668D01*
X120924660Y-77003073D01*
X120947083Y-77000500D01*
X132834521Y-77000500D01*
X132892712Y-77019407D01*
X132904525Y-77029496D01*
X134270504Y-78395475D01*
X134298281Y-78449992D01*
X134299500Y-78465479D01*
X134299500Y-82039564D01*
X134319978Y-82115988D01*
X134319980Y-82115992D01*
X134348551Y-82165478D01*
X134359540Y-82184511D01*
X136798691Y-84623662D01*
X136826467Y-84678177D01*
X136827686Y-84693664D01*
X136827686Y-91669830D01*
X136808779Y-91728021D01*
X136801444Y-91736014D01*
X136801695Y-91736231D01*
X136797058Y-91741581D01*
X136797058Y-91741582D01*
X136767669Y-91775499D01*
X136702808Y-91850353D01*
X136643020Y-91981268D01*
X136622539Y-92123722D01*
X136622539Y-92123727D01*
X136643020Y-92266181D01*
X136693410Y-92376518D01*
X136702809Y-92397098D01*
X136787902Y-92495301D01*
X136797059Y-92505869D01*
X136882033Y-92560478D01*
X136918133Y-92583678D01*
X137024589Y-92614936D01*
X137056221Y-92624224D01*
X137056222Y-92624224D01*
X137056225Y-92624225D01*
X137056227Y-92624225D01*
X137200145Y-92624225D01*
X137200147Y-92624225D01*
X137338239Y-92583678D01*
X137459314Y-92505868D01*
X137553563Y-92397098D01*
X137613351Y-92266182D01*
X137628555Y-92160438D01*
X137633833Y-92123727D01*
X137633833Y-92123722D01*
X137613351Y-91981268D01*
X137595272Y-91941682D01*
X137553563Y-91850352D01*
X137459314Y-91741582D01*
X137459313Y-91741581D01*
X137454677Y-91736231D01*
X137456710Y-91734468D01*
X137431253Y-91692230D01*
X137428686Y-91669830D01*
X137428686Y-84488623D01*
X137428685Y-84488621D01*
X137426949Y-84482144D01*
X137408207Y-84412197D01*
X137401166Y-84400002D01*
X137368646Y-84343675D01*
X137312697Y-84287725D01*
X137312697Y-84287726D01*
X134929496Y-81904525D01*
X134901719Y-81850008D01*
X134900500Y-81834521D01*
X134900500Y-81435924D01*
X134910597Y-81404847D01*
X134900500Y-81364075D01*
X134900500Y-78260438D01*
X134890078Y-78221543D01*
X134890078Y-78221542D01*
X134886726Y-78209032D01*
X134880022Y-78184012D01*
X134840460Y-78115489D01*
X133184511Y-76459540D01*
X133174342Y-76453669D01*
X133115989Y-76419979D01*
X133115988Y-76419978D01*
X133115987Y-76419978D01*
X133039564Y-76399500D01*
X133039562Y-76399500D01*
X120947083Y-76399500D01*
X120888892Y-76380593D01*
X120872264Y-76365331D01*
X120831128Y-76317857D01*
X120831125Y-76317855D01*
X120831124Y-76317854D01*
X120777331Y-76283284D01*
X120738600Y-76235919D01*
X120735106Y-76174833D01*
X120768185Y-76123360D01*
X120777331Y-76116716D01*
X120788743Y-76109382D01*
X120831128Y-76082143D01*
X120872264Y-76034668D01*
X120924660Y-76003073D01*
X120947083Y-76000500D01*
X133334521Y-76000500D01*
X133392712Y-76019407D01*
X133404525Y-76029496D01*
X135270504Y-77895475D01*
X135298281Y-77949992D01*
X135299500Y-77965479D01*
X135299500Y-80946105D01*
X135280593Y-81004296D01*
X135273258Y-81012289D01*
X135273509Y-81012506D01*
X135268872Y-81017856D01*
X135268872Y-81017857D01*
X135202170Y-81094836D01*
X135174622Y-81126628D01*
X135114834Y-81257543D01*
X135097492Y-81378164D01*
X135087782Y-81397911D01*
X135097492Y-81421835D01*
X135114834Y-81542456D01*
X135174622Y-81673371D01*
X135174623Y-81673373D01*
X135209297Y-81713389D01*
X135268873Y-81782144D01*
X135350374Y-81834521D01*
X135389947Y-81859953D01*
X135471882Y-81884011D01*
X135528035Y-81900499D01*
X135528036Y-81900499D01*
X135528039Y-81900500D01*
X135528041Y-81900500D01*
X135671959Y-81900500D01*
X135671961Y-81900500D01*
X135810053Y-81859953D01*
X135931128Y-81782143D01*
X136025377Y-81673373D01*
X136085165Y-81542457D01*
X136091992Y-81494971D01*
X136105647Y-81400002D01*
X136105647Y-81399997D01*
X136085165Y-81257543D01*
X136069486Y-81223212D01*
X136025377Y-81126627D01*
X135931128Y-81017857D01*
X135931127Y-81017856D01*
X135926491Y-81012506D01*
X135928524Y-81010743D01*
X135903067Y-80968505D01*
X135900500Y-80946105D01*
X135900500Y-77760437D01*
X135900499Y-77760435D01*
X135880021Y-77684011D01*
X135880019Y-77684007D01*
X135840460Y-77615489D01*
X135784511Y-77559539D01*
X135784511Y-77559540D01*
X133684511Y-75459540D01*
X133684508Y-75459538D01*
X133615992Y-75419980D01*
X133615988Y-75419978D01*
X133539564Y-75399500D01*
X133539562Y-75399500D01*
X120947083Y-75399500D01*
X120888892Y-75380593D01*
X120872264Y-75365331D01*
X120831128Y-75317857D01*
X120764802Y-75275232D01*
X120710057Y-75240049D01*
X120710054Y-75240047D01*
X120710053Y-75240047D01*
X120710050Y-75240046D01*
X120571964Y-75199500D01*
X120571961Y-75199500D01*
X120428039Y-75199500D01*
X120428035Y-75199500D01*
X120289949Y-75240046D01*
X120289942Y-75240049D01*
X120168873Y-75317855D01*
X120074622Y-75426628D01*
X120014834Y-75557543D01*
X119994353Y-75699997D01*
X116624974Y-75699997D01*
X118995475Y-73329496D01*
X119049992Y-73301719D01*
X119065479Y-73300500D01*
X122952917Y-73300500D01*
X123011108Y-73319407D01*
X123027733Y-73334667D01*
X123068872Y-73382143D01*
X123189947Y-73459953D01*
X123294414Y-73490627D01*
X123328035Y-73500499D01*
X123328036Y-73500499D01*
X123328039Y-73500500D01*
X123328041Y-73500500D01*
X123471959Y-73500500D01*
X123471961Y-73500500D01*
X123610053Y-73459953D01*
X123731128Y-73382143D01*
X123825377Y-73273373D01*
X123885165Y-73142457D01*
X123891992Y-73094971D01*
X123905647Y-73000002D01*
X123905647Y-72999997D01*
X123885165Y-72857543D01*
X123825377Y-72726627D01*
X123731128Y-72617857D01*
X123731127Y-72617856D01*
X123731126Y-72617855D01*
X123610057Y-72540049D01*
X123610054Y-72540047D01*
X123610053Y-72540047D01*
X123610050Y-72540046D01*
X123471964Y-72499500D01*
X123471961Y-72499500D01*
X123328039Y-72499500D01*
X123328035Y-72499500D01*
X123288212Y-72511194D01*
X123227052Y-72509446D01*
X123178599Y-72472084D01*
X123161361Y-72413377D01*
X123170268Y-72375077D01*
X123185165Y-72342456D01*
X123205647Y-72200002D01*
X123205647Y-72199997D01*
X123185165Y-72057543D01*
X123125377Y-71926628D01*
X123125377Y-71926627D01*
X123031128Y-71817857D01*
X123031127Y-71817856D01*
X123031126Y-71817855D01*
X122910057Y-71740049D01*
X122910054Y-71740047D01*
X122910053Y-71740047D01*
X122910050Y-71740046D01*
X122771964Y-71699500D01*
X122771961Y-71699500D01*
X122628039Y-71699500D01*
X122628035Y-71699500D01*
X122489949Y-71740046D01*
X122489942Y-71740049D01*
X122368876Y-71817854D01*
X122368871Y-71817858D01*
X122327736Y-71865331D01*
X122275340Y-71896927D01*
X122252917Y-71899500D01*
X118839562Y-71899500D01*
X118760438Y-71899500D01*
X118713661Y-71912033D01*
X118684007Y-71919979D01*
X118615493Y-71959536D01*
X115694504Y-74880525D01*
X115639987Y-74908302D01*
X115579555Y-74898731D01*
X115536290Y-74855466D01*
X115525500Y-74810521D01*
X115525500Y-74281164D01*
X115544407Y-74222973D01*
X115554490Y-74211166D01*
X118244114Y-71521543D01*
X118320775Y-71406811D01*
X118373580Y-71279328D01*
X118400500Y-71143994D01*
X118400500Y-71006006D01*
X118400500Y-70031164D01*
X118419407Y-69972973D01*
X118429490Y-69961166D01*
X119644114Y-68746543D01*
X119644117Y-68746537D01*
X119647464Y-68743191D01*
X119647802Y-68742816D01*
X120061124Y-68329496D01*
X120115640Y-68301719D01*
X120131127Y-68300500D01*
X135068835Y-68300500D01*
X135127026Y-68319407D01*
X135138839Y-68329496D01*
X139270504Y-72461160D01*
X139298281Y-72515677D01*
X139299500Y-72531164D01*
X139299500Y-93268996D01*
X139302494Y-93284048D01*
X139325658Y-93400499D01*
X139326420Y-93404327D01*
X139326420Y-93404329D01*
X139379223Y-93531808D01*
X139451545Y-93640047D01*
X139455886Y-93646543D01*
X140165505Y-94356162D01*
X140193281Y-94410677D01*
X140194500Y-94426164D01*
X140194500Y-95148656D01*
X140195677Y-95170594D01*
X140195678Y-95170603D01*
X140198511Y-95196961D01*
X140198512Y-95196966D01*
X140222469Y-95273479D01*
X140235294Y-95296965D01*
X140255956Y-95334805D01*
X140278757Y-95365262D01*
X140291010Y-95381630D01*
X140518376Y-95608996D01*
X140534722Y-95623679D01*
X140534738Y-95623693D01*
X140555380Y-95640327D01*
X140626425Y-95677490D01*
X140626426Y-95677490D01*
X140626428Y-95677491D01*
X140626561Y-95677530D01*
X140693464Y-95697175D01*
X140751362Y-95705500D01*
X140751363Y-95705500D01*
X141948620Y-95705500D01*
X141948638Y-95705500D01*
X141970607Y-95704322D01*
X141996965Y-95701488D01*
X142073482Y-95677529D01*
X142134805Y-95644044D01*
X142181629Y-95608991D01*
X142330496Y-95460124D01*
X142385013Y-95432347D01*
X142445445Y-95441918D01*
X142488710Y-95485183D01*
X142499500Y-95530128D01*
X142499500Y-105968996D01*
X142526420Y-106104327D01*
X142526420Y-106104329D01*
X142579223Y-106231808D01*
X142579224Y-106231810D01*
X142579225Y-106231811D01*
X142655886Y-106346543D01*
X143865505Y-107556162D01*
X143893281Y-107610677D01*
X143894500Y-107626164D01*
X143894500Y-108448656D01*
X143895677Y-108470594D01*
X143895678Y-108470603D01*
X143898511Y-108496961D01*
X143898512Y-108496966D01*
X143922469Y-108573479D01*
X143955957Y-108634806D01*
X143991010Y-108681630D01*
X144118376Y-108808996D01*
X144134722Y-108823679D01*
X144134738Y-108823693D01*
X144155380Y-108840327D01*
X144226425Y-108877490D01*
X144226426Y-108877490D01*
X144226428Y-108877491D01*
X144226561Y-108877530D01*
X144293464Y-108897175D01*
X144351362Y-108905500D01*
X144351363Y-108905500D01*
X145748620Y-108905500D01*
X145748638Y-108905500D01*
X145770607Y-108904322D01*
X145796965Y-108901488D01*
X145873482Y-108877529D01*
X145934805Y-108844044D01*
X145941168Y-108839280D01*
X145999080Y-108819541D01*
X146057536Y-108837612D01*
X146094206Y-108886591D01*
X146099500Y-108918531D01*
X146099500Y-110434521D01*
X146080593Y-110492712D01*
X146070504Y-110504525D01*
X145015489Y-111559540D01*
X145015488Y-111559539D01*
X144959539Y-111615489D01*
X144919980Y-111684007D01*
X144919978Y-111684011D01*
X144899500Y-111760435D01*
X144899500Y-113746105D01*
X144880593Y-113804296D01*
X144873258Y-113812289D01*
X144873509Y-113812506D01*
X144868872Y-113817856D01*
X144868872Y-113817857D01*
X144843650Y-113846965D01*
X144774622Y-113926628D01*
X144714834Y-114057543D01*
X144694353Y-114199997D01*
X144694353Y-114200002D01*
X144714834Y-114342456D01*
X144751937Y-114423698D01*
X144774623Y-114473373D01*
X144860601Y-114572598D01*
X144868873Y-114582144D01*
X144958574Y-114639791D01*
X144989947Y-114659953D01*
X145096403Y-114691211D01*
X145128035Y-114700499D01*
X145128036Y-114700499D01*
X145128039Y-114700500D01*
X145128041Y-114700500D01*
X145271959Y-114700500D01*
X145271961Y-114700500D01*
X145410053Y-114659953D01*
X145531128Y-114582143D01*
X145625377Y-114473373D01*
X145685165Y-114342457D01*
X145705647Y-114200000D01*
X145702550Y-114178463D01*
X145685165Y-114057543D01*
X145644015Y-113967438D01*
X145625377Y-113926627D01*
X145531128Y-113817857D01*
X145531127Y-113817856D01*
X145526491Y-113812506D01*
X145528524Y-113810743D01*
X145503067Y-113768505D01*
X145500500Y-113746105D01*
X145500500Y-111965478D01*
X145519407Y-111907287D01*
X145529490Y-111895480D01*
X146640460Y-110784511D01*
X146671269Y-110731148D01*
X146680021Y-110715989D01*
X146700500Y-110639562D01*
X146700500Y-106560438D01*
X146680021Y-106484011D01*
X146640460Y-106415489D01*
X146584511Y-106359539D01*
X146584511Y-106359540D01*
X145199475Y-104974504D01*
X145171698Y-104919987D01*
X145181269Y-104859555D01*
X145224534Y-104816290D01*
X145269479Y-104805500D01*
X145720282Y-104805500D01*
X145778473Y-104824407D01*
X145790286Y-104834496D01*
X146920504Y-105964714D01*
X146948281Y-106019231D01*
X146949500Y-106034718D01*
X146949500Y-112959508D01*
X146948492Y-112973597D01*
X146944500Y-113001362D01*
X146944500Y-113798656D01*
X146945677Y-113820594D01*
X146945678Y-113820603D01*
X146948511Y-113846961D01*
X146948512Y-113846966D01*
X146972469Y-113923479D01*
X146972471Y-113923482D01*
X147004393Y-113981943D01*
X147005957Y-113984806D01*
X147041010Y-114031630D01*
X147418376Y-114408996D01*
X147434722Y-114423679D01*
X147434738Y-114423693D01*
X147455380Y-114440327D01*
X147526425Y-114477490D01*
X147526426Y-114477490D01*
X147526428Y-114477491D01*
X147526561Y-114477530D01*
X147593464Y-114497175D01*
X147651362Y-114505500D01*
X147651363Y-114505500D01*
X147848716Y-114505500D01*
X147853196Y-114505353D01*
X147862159Y-114505060D01*
X147878342Y-114503999D01*
X147890299Y-114502821D01*
X147909700Y-114502821D01*
X147921658Y-114503999D01*
X147937842Y-114505060D01*
X147951285Y-114505500D01*
X149048620Y-114505500D01*
X149048638Y-114505500D01*
X149070607Y-114504322D01*
X149096965Y-114501488D01*
X149173482Y-114477529D01*
X149234805Y-114444044D01*
X149281629Y-114408991D01*
X149408991Y-114281629D01*
X149423693Y-114265262D01*
X149440327Y-114244620D01*
X149477490Y-114173575D01*
X149497175Y-114106536D01*
X149505500Y-114048638D01*
X149505500Y-112651362D01*
X149504322Y-112629393D01*
X149501488Y-112603035D01*
X149477529Y-112526518D01*
X149444044Y-112465195D01*
X149408991Y-112418371D01*
X149408988Y-112418368D01*
X149408986Y-112418365D01*
X149366460Y-112375840D01*
X149366455Y-112375835D01*
X149360274Y-112369905D01*
X149352669Y-112362909D01*
X149352668Y-112362908D01*
X149352665Y-112362906D01*
X149296668Y-112326212D01*
X149232775Y-112297952D01*
X149232773Y-112297951D01*
X149225353Y-112295868D01*
X149214232Y-112292018D01*
X149060432Y-112228313D01*
X149055328Y-112226028D01*
X149048036Y-112222512D01*
X149048025Y-112222508D01*
X148980996Y-112202826D01*
X148980988Y-112202824D01*
X148935410Y-112196271D01*
X148880503Y-112169275D01*
X148851950Y-112115160D01*
X148850500Y-112098279D01*
X148850500Y-105506383D01*
X148850021Y-105503977D01*
X148850019Y-105503966D01*
X148828211Y-105394328D01*
X148822529Y-105365764D01*
X148813973Y-105322749D01*
X148742322Y-105149769D01*
X148742320Y-105149767D01*
X148742318Y-105149761D01*
X148671902Y-105044378D01*
X148638302Y-104994092D01*
X148505908Y-104861698D01*
X147139935Y-103495725D01*
X176599500Y-103495725D01*
X176599500Y-104904274D01*
X176602353Y-104934694D01*
X176602355Y-104934703D01*
X176647207Y-105062883D01*
X176727845Y-105172144D01*
X176727847Y-105172146D01*
X176727850Y-105172150D01*
X176727853Y-105172152D01*
X176727855Y-105172154D01*
X176837116Y-105252792D01*
X176837117Y-105252792D01*
X176837118Y-105252793D01*
X176965301Y-105297646D01*
X176995725Y-105300499D01*
X176995727Y-105300500D01*
X176995734Y-105300500D01*
X180204273Y-105300500D01*
X180204273Y-105300499D01*
X180234699Y-105297646D01*
X180362882Y-105252793D01*
X180472150Y-105172150D01*
X180552793Y-105062882D01*
X180597646Y-104934699D01*
X180600499Y-104904273D01*
X180600500Y-104904273D01*
X180600500Y-103495727D01*
X180600499Y-103495725D01*
X180597646Y-103465305D01*
X180597646Y-103465301D01*
X180552793Y-103337118D01*
X180534615Y-103312488D01*
X180472154Y-103227855D01*
X180472152Y-103227853D01*
X180472150Y-103227850D01*
X180472146Y-103227847D01*
X180472144Y-103227845D01*
X180362883Y-103147207D01*
X180234703Y-103102355D01*
X180234694Y-103102353D01*
X180204274Y-103099500D01*
X180204266Y-103099500D01*
X176995734Y-103099500D01*
X176995725Y-103099500D01*
X176965305Y-103102353D01*
X176965296Y-103102355D01*
X176837116Y-103147207D01*
X176727855Y-103227845D01*
X176727845Y-103227855D01*
X176647207Y-103337116D01*
X176602355Y-103465296D01*
X176602353Y-103465305D01*
X176599500Y-103495725D01*
X147139935Y-103495725D01*
X147134496Y-103490286D01*
X147106719Y-103435769D01*
X147105500Y-103420282D01*
X147105500Y-102951380D01*
X147105499Y-102951343D01*
X147105465Y-102950720D01*
X147104322Y-102929393D01*
X147101488Y-102903035D01*
X147077529Y-102826518D01*
X147044044Y-102765195D01*
X147008991Y-102718371D01*
X146881629Y-102591009D01*
X146881623Y-102591003D01*
X146865277Y-102576320D01*
X146865270Y-102576314D01*
X146865262Y-102576307D01*
X146844620Y-102559673D01*
X146844619Y-102559672D01*
X146773576Y-102522510D01*
X146773571Y-102522508D01*
X146706542Y-102502826D01*
X146706533Y-102502824D01*
X146660322Y-102496180D01*
X146648638Y-102494500D01*
X146648637Y-102494500D01*
X145949500Y-102494500D01*
X145891309Y-102475593D01*
X145855345Y-102426093D01*
X145850500Y-102395500D01*
X145850500Y-93681128D01*
X145869407Y-93622937D01*
X145879496Y-93611124D01*
X146115027Y-93375593D01*
X146358991Y-93131629D01*
X146373693Y-93115262D01*
X146390327Y-93094620D01*
X146427490Y-93023575D01*
X146447175Y-92956536D01*
X146455500Y-92898638D01*
X146455500Y-92707875D01*
X146455682Y-92705097D01*
X146455682Y-92694912D01*
X146455500Y-92692132D01*
X146455500Y-92525725D01*
X176599500Y-92525725D01*
X176599500Y-93934274D01*
X176602353Y-93964694D01*
X176602355Y-93964703D01*
X176647207Y-94092883D01*
X176727845Y-94202144D01*
X176727847Y-94202146D01*
X176727850Y-94202150D01*
X176727853Y-94202152D01*
X176727855Y-94202154D01*
X176837116Y-94282792D01*
X176837117Y-94282792D01*
X176837118Y-94282793D01*
X176965301Y-94327646D01*
X176995725Y-94330499D01*
X176995727Y-94330500D01*
X176995734Y-94330500D01*
X180204273Y-94330500D01*
X180204273Y-94330499D01*
X180234699Y-94327646D01*
X180362882Y-94282793D01*
X180472150Y-94202150D01*
X180552793Y-94092882D01*
X180597646Y-93964699D01*
X180600499Y-93934273D01*
X180600500Y-93934273D01*
X180600500Y-92525727D01*
X180600499Y-92525725D01*
X180597646Y-92495301D01*
X180552793Y-92367118D01*
X180547892Y-92360478D01*
X180472154Y-92257855D01*
X180472152Y-92257853D01*
X180472150Y-92257850D01*
X180472146Y-92257847D01*
X180472144Y-92257845D01*
X180362883Y-92177207D01*
X180234703Y-92132355D01*
X180234694Y-92132353D01*
X180204274Y-92129500D01*
X180204266Y-92129500D01*
X176995734Y-92129500D01*
X176995725Y-92129500D01*
X176965305Y-92132353D01*
X176965296Y-92132355D01*
X176837116Y-92177207D01*
X176727855Y-92257845D01*
X176727845Y-92257855D01*
X176647207Y-92367116D01*
X176602355Y-92495296D01*
X176602353Y-92495305D01*
X176599500Y-92525725D01*
X146455500Y-92525725D01*
X146455500Y-92501380D01*
X146455499Y-92501343D01*
X146454596Y-92484509D01*
X146454322Y-92479393D01*
X146451488Y-92453035D01*
X146436299Y-92404525D01*
X146427530Y-92376520D01*
X146422395Y-92367116D01*
X146394044Y-92315195D01*
X146358991Y-92268371D01*
X146131629Y-92041009D01*
X146131623Y-92041003D01*
X146115277Y-92026320D01*
X146115270Y-92026314D01*
X146115262Y-92026307D01*
X146094620Y-92009673D01*
X146094619Y-92009672D01*
X146023576Y-91972510D01*
X146023571Y-91972508D01*
X145956542Y-91952826D01*
X145956533Y-91952824D01*
X145910322Y-91946180D01*
X145898638Y-91944500D01*
X144801362Y-91944500D01*
X144801343Y-91944500D01*
X144779405Y-91945677D01*
X144779398Y-91945677D01*
X144779393Y-91945678D01*
X144770894Y-91946591D01*
X144753038Y-91948511D01*
X144753033Y-91948512D01*
X144676517Y-91972470D01*
X144658075Y-91982541D01*
X144597941Y-91993834D01*
X144542654Y-91967625D01*
X144540626Y-91965655D01*
X144129496Y-91554525D01*
X144101719Y-91500008D01*
X144100500Y-91484521D01*
X144100500Y-85523385D01*
X176599500Y-85523385D01*
X176599500Y-85696614D01*
X176626597Y-85867702D01*
X176626598Y-85867706D01*
X176680123Y-86032438D01*
X176680125Y-86032441D01*
X176723959Y-86118472D01*
X176758768Y-86186788D01*
X176860586Y-86326928D01*
X176983072Y-86449414D01*
X177123212Y-86551232D01*
X177277555Y-86629873D01*
X177277557Y-86629873D01*
X177277558Y-86629874D01*
X177277561Y-86629876D01*
X177442293Y-86683401D01*
X177442297Y-86683402D01*
X177613386Y-86710500D01*
X177613389Y-86710500D01*
X179586614Y-86710500D01*
X179757702Y-86683402D01*
X179757706Y-86683401D01*
X179922438Y-86629876D01*
X179922440Y-86629874D01*
X179922445Y-86629873D01*
X180076788Y-86551232D01*
X180216928Y-86449414D01*
X180339414Y-86326928D01*
X180441232Y-86186788D01*
X180519873Y-86032445D01*
X180519874Y-86032440D01*
X180519876Y-86032438D01*
X180573401Y-85867706D01*
X180573402Y-85867702D01*
X180600500Y-85696614D01*
X180600500Y-85523385D01*
X180573402Y-85352297D01*
X180573401Y-85352293D01*
X180519876Y-85187561D01*
X180519874Y-85187558D01*
X180519873Y-85187557D01*
X180519873Y-85187555D01*
X180441232Y-85033212D01*
X180339414Y-84893072D01*
X180216928Y-84770586D01*
X180076788Y-84668768D01*
X180076787Y-84668767D01*
X180076785Y-84668766D01*
X179922441Y-84590125D01*
X179922438Y-84590123D01*
X179757706Y-84536598D01*
X179757702Y-84536597D01*
X179586614Y-84509500D01*
X179586611Y-84509500D01*
X177613389Y-84509500D01*
X177613386Y-84509500D01*
X177442297Y-84536597D01*
X177442293Y-84536598D01*
X177277561Y-84590123D01*
X177277558Y-84590125D01*
X177123214Y-84668766D01*
X176983073Y-84770585D01*
X176860585Y-84893073D01*
X176758766Y-85033214D01*
X176680125Y-85187558D01*
X176680123Y-85187561D01*
X176626598Y-85352293D01*
X176626597Y-85352297D01*
X176599500Y-85523385D01*
X144100500Y-85523385D01*
X144100500Y-81713385D01*
X176599500Y-81713385D01*
X176599500Y-81886614D01*
X176626597Y-82057702D01*
X176626598Y-82057706D01*
X176680123Y-82222438D01*
X176680125Y-82222441D01*
X176680126Y-82222444D01*
X176680127Y-82222445D01*
X176758768Y-82376788D01*
X176860586Y-82516928D01*
X176983072Y-82639414D01*
X177123212Y-82741232D01*
X177277555Y-82819873D01*
X177277557Y-82819873D01*
X177277558Y-82819874D01*
X177277561Y-82819876D01*
X177442293Y-82873401D01*
X177442297Y-82873402D01*
X177613386Y-82900500D01*
X177613389Y-82900500D01*
X179586614Y-82900500D01*
X179757702Y-82873402D01*
X179757706Y-82873401D01*
X179922438Y-82819876D01*
X179922440Y-82819874D01*
X179922445Y-82819873D01*
X180076788Y-82741232D01*
X180216928Y-82639414D01*
X180339414Y-82516928D01*
X180441232Y-82376788D01*
X180519873Y-82222445D01*
X180519874Y-82222440D01*
X180519876Y-82222438D01*
X180573401Y-82057706D01*
X180573402Y-82057702D01*
X180600500Y-81886614D01*
X180600500Y-81713385D01*
X180573402Y-81542297D01*
X180573401Y-81542293D01*
X180519876Y-81377561D01*
X180519874Y-81377558D01*
X180519873Y-81377557D01*
X180519873Y-81377555D01*
X180441232Y-81223212D01*
X180339414Y-81083072D01*
X180216928Y-80960586D01*
X180076788Y-80858768D01*
X180076787Y-80858767D01*
X180076785Y-80858766D01*
X179922441Y-80780125D01*
X179922438Y-80780123D01*
X179757706Y-80726598D01*
X179757702Y-80726597D01*
X179586614Y-80699500D01*
X179586611Y-80699500D01*
X177613389Y-80699500D01*
X177613386Y-80699500D01*
X177442297Y-80726597D01*
X177442293Y-80726598D01*
X177277561Y-80780123D01*
X177277558Y-80780125D01*
X177123214Y-80858766D01*
X176983073Y-80960585D01*
X176860585Y-81083073D01*
X176758766Y-81223214D01*
X176680125Y-81377558D01*
X176680123Y-81377561D01*
X176626598Y-81542293D01*
X176626597Y-81542297D01*
X176599500Y-81713385D01*
X144100500Y-81713385D01*
X144100500Y-76639995D01*
X174904901Y-76639995D01*
X174904901Y-76640004D01*
X174923251Y-76826325D01*
X174923252Y-76826328D01*
X174923253Y-76826331D01*
X174976867Y-77003073D01*
X174977605Y-77005504D01*
X174977606Y-77005506D01*
X175065859Y-77170617D01*
X175065862Y-77170622D01*
X175065864Y-77170625D01*
X175095940Y-77207272D01*
X175184638Y-77315352D01*
X175184647Y-77315361D01*
X175252145Y-77370755D01*
X175329375Y-77434136D01*
X175329380Y-77434138D01*
X175329382Y-77434140D01*
X175494493Y-77522393D01*
X175494499Y-77522396D01*
X175673669Y-77576747D01*
X175673671Y-77576747D01*
X175673674Y-77576748D01*
X175859996Y-77595099D01*
X175860000Y-77595099D01*
X175860004Y-77595099D01*
X176046325Y-77576748D01*
X176046326Y-77576747D01*
X176046331Y-77576747D01*
X176225501Y-77522396D01*
X176390625Y-77434136D01*
X176535357Y-77315357D01*
X176654136Y-77170625D01*
X176742396Y-77005501D01*
X176796747Y-76826331D01*
X176809190Y-76700002D01*
X176815099Y-76640004D01*
X176815099Y-76639995D01*
X177444901Y-76639995D01*
X177444901Y-76640004D01*
X177463251Y-76826325D01*
X177463252Y-76826328D01*
X177463253Y-76826331D01*
X177516867Y-77003073D01*
X177517605Y-77005504D01*
X177517606Y-77005506D01*
X177605859Y-77170617D01*
X177605862Y-77170622D01*
X177605864Y-77170625D01*
X177635940Y-77207272D01*
X177724638Y-77315352D01*
X177724647Y-77315361D01*
X177792145Y-77370755D01*
X177869375Y-77434136D01*
X177869380Y-77434138D01*
X177869382Y-77434140D01*
X178034493Y-77522393D01*
X178034499Y-77522396D01*
X178213669Y-77576747D01*
X178213671Y-77576747D01*
X178213674Y-77576748D01*
X178399996Y-77595099D01*
X178400000Y-77595099D01*
X178400004Y-77595099D01*
X178586325Y-77576748D01*
X178586326Y-77576747D01*
X178586331Y-77576747D01*
X178765501Y-77522396D01*
X178930625Y-77434136D01*
X179075357Y-77315357D01*
X179194136Y-77170625D01*
X179282396Y-77005501D01*
X179336747Y-76826331D01*
X179349190Y-76700002D01*
X179355099Y-76640004D01*
X179355099Y-76639995D01*
X179336748Y-76453674D01*
X179336747Y-76453669D01*
X179314579Y-76380593D01*
X179282396Y-76274499D01*
X179229124Y-76174833D01*
X179194140Y-76109382D01*
X179194138Y-76109380D01*
X179194136Y-76109375D01*
X179106896Y-76003073D01*
X179075361Y-75964647D01*
X179075352Y-75964638D01*
X178990978Y-75895395D01*
X178930625Y-75845864D01*
X178930622Y-75845862D01*
X178930617Y-75845859D01*
X178765506Y-75757606D01*
X178765504Y-75757605D01*
X178586328Y-75703252D01*
X178586325Y-75703251D01*
X178400004Y-75684901D01*
X178399996Y-75684901D01*
X178213674Y-75703251D01*
X178213671Y-75703252D01*
X178034495Y-75757605D01*
X178034493Y-75757606D01*
X177869382Y-75845859D01*
X177869376Y-75845863D01*
X177724647Y-75964638D01*
X177724638Y-75964647D01*
X177605863Y-76109376D01*
X177605859Y-76109382D01*
X177517606Y-76274493D01*
X177517605Y-76274495D01*
X177463253Y-76453669D01*
X177463251Y-76453674D01*
X177444901Y-76639995D01*
X176815099Y-76639995D01*
X176796748Y-76453674D01*
X176796747Y-76453669D01*
X176774579Y-76380593D01*
X176742396Y-76274499D01*
X176689124Y-76174833D01*
X176654140Y-76109382D01*
X176654138Y-76109380D01*
X176654136Y-76109375D01*
X176566896Y-76003073D01*
X176535361Y-75964647D01*
X176535352Y-75964638D01*
X176450978Y-75895395D01*
X176390625Y-75845864D01*
X176390622Y-75845862D01*
X176390617Y-75845859D01*
X176225506Y-75757606D01*
X176225504Y-75757605D01*
X176046328Y-75703252D01*
X176046325Y-75703251D01*
X175860004Y-75684901D01*
X175859996Y-75684901D01*
X175673674Y-75703251D01*
X175673671Y-75703252D01*
X175494495Y-75757605D01*
X175494493Y-75757606D01*
X175329382Y-75845859D01*
X175329376Y-75845863D01*
X175184647Y-75964638D01*
X175184638Y-75964647D01*
X175065863Y-76109376D01*
X175065859Y-76109382D01*
X174977606Y-76274493D01*
X174977605Y-76274495D01*
X174923253Y-76453669D01*
X174923251Y-76453674D01*
X174904901Y-76639995D01*
X144100500Y-76639995D01*
X144100500Y-75865479D01*
X144119407Y-75807288D01*
X144129496Y-75795475D01*
X145895475Y-74029496D01*
X145949992Y-74001719D01*
X145965479Y-74000500D01*
X171552917Y-74000500D01*
X171611108Y-74019407D01*
X171627733Y-74034667D01*
X171668872Y-74082143D01*
X171789947Y-74159953D01*
X171896403Y-74191211D01*
X171928035Y-74200499D01*
X171928036Y-74200499D01*
X171928039Y-74200500D01*
X171928041Y-74200500D01*
X172071959Y-74200500D01*
X172071961Y-74200500D01*
X172210053Y-74159953D01*
X172331128Y-74082143D01*
X172425377Y-73973373D01*
X172485165Y-73842457D01*
X172500687Y-73734496D01*
X172505647Y-73700002D01*
X172505647Y-73699997D01*
X172485165Y-73557543D01*
X172459114Y-73500500D01*
X172454604Y-73490626D01*
X172447630Y-73429841D01*
X172477716Y-73376563D01*
X172533372Y-73351145D01*
X172544658Y-73350500D01*
X175036172Y-73350500D01*
X175094363Y-73369407D01*
X175130327Y-73418907D01*
X175130327Y-73480093D01*
X175112701Y-73512304D01*
X175065862Y-73569377D01*
X175065859Y-73569382D01*
X174977606Y-73734493D01*
X174977605Y-73734495D01*
X174923252Y-73913671D01*
X174923251Y-73913674D01*
X174904901Y-74099995D01*
X174904901Y-74100004D01*
X174923251Y-74286325D01*
X174923252Y-74286328D01*
X174977605Y-74465504D01*
X174977606Y-74465506D01*
X175065859Y-74630617D01*
X175065862Y-74630622D01*
X175065864Y-74630625D01*
X175097139Y-74668733D01*
X175184638Y-74775352D01*
X175184647Y-74775361D01*
X175227490Y-74810521D01*
X175329375Y-74894136D01*
X175329380Y-74894138D01*
X175329382Y-74894140D01*
X175494493Y-74982393D01*
X175494499Y-74982396D01*
X175673669Y-75036747D01*
X175673671Y-75036747D01*
X175673674Y-75036748D01*
X175859996Y-75055099D01*
X175860000Y-75055099D01*
X175860004Y-75055099D01*
X176046325Y-75036748D01*
X176046326Y-75036747D01*
X176046331Y-75036747D01*
X176225501Y-74982396D01*
X176390625Y-74894136D01*
X176535357Y-74775357D01*
X176654136Y-74630625D01*
X176742396Y-74465501D01*
X176796747Y-74286331D01*
X176802988Y-74222973D01*
X176815099Y-74100004D01*
X176815099Y-74099995D01*
X176796748Y-73913674D01*
X176796747Y-73913671D01*
X176796747Y-73913669D01*
X176742396Y-73734499D01*
X176723956Y-73700000D01*
X176654140Y-73569382D01*
X176654137Y-73569377D01*
X176654136Y-73569375D01*
X176607299Y-73512304D01*
X176585000Y-73455327D01*
X176600449Y-73396125D01*
X176647746Y-73357309D01*
X176683828Y-73350500D01*
X177184521Y-73350500D01*
X177242712Y-73369407D01*
X177254525Y-73379496D01*
X177497753Y-73622724D01*
X177525530Y-73677241D01*
X177519216Y-73730607D01*
X177517605Y-73734496D01*
X177463252Y-73913671D01*
X177463251Y-73913674D01*
X177444901Y-74099995D01*
X177444901Y-74100004D01*
X177463251Y-74286325D01*
X177463252Y-74286328D01*
X177517605Y-74465504D01*
X177517606Y-74465506D01*
X177605859Y-74630617D01*
X177605862Y-74630622D01*
X177605864Y-74630625D01*
X177637139Y-74668733D01*
X177724638Y-74775352D01*
X177724647Y-74775361D01*
X177767490Y-74810521D01*
X177869375Y-74894136D01*
X177869380Y-74894138D01*
X177869382Y-74894140D01*
X178034493Y-74982393D01*
X178034499Y-74982396D01*
X178213669Y-75036747D01*
X178213671Y-75036747D01*
X178213674Y-75036748D01*
X178399996Y-75055099D01*
X178400000Y-75055099D01*
X178400004Y-75055099D01*
X178586325Y-75036748D01*
X178586326Y-75036747D01*
X178586331Y-75036747D01*
X178765501Y-74982396D01*
X178930625Y-74894136D01*
X179075357Y-74775357D01*
X179194136Y-74630625D01*
X179282396Y-74465501D01*
X179336747Y-74286331D01*
X179342988Y-74222973D01*
X179355099Y-74100004D01*
X179355099Y-74099995D01*
X179336748Y-73913674D01*
X179336747Y-73913671D01*
X179336747Y-73913669D01*
X179282396Y-73734499D01*
X179263956Y-73700000D01*
X179194140Y-73569382D01*
X179194137Y-73569377D01*
X179194136Y-73569375D01*
X179120864Y-73480093D01*
X179075361Y-73424647D01*
X179075352Y-73424638D01*
X178965724Y-73334669D01*
X178930625Y-73305864D01*
X178930622Y-73305862D01*
X178930617Y-73305859D01*
X178765506Y-73217606D01*
X178765504Y-73217605D01*
X178586328Y-73163252D01*
X178586325Y-73163251D01*
X178400004Y-73144901D01*
X178399996Y-73144901D01*
X178213674Y-73163251D01*
X178213671Y-73163252D01*
X178034496Y-73217605D01*
X178030607Y-73219216D01*
X177969610Y-73224012D01*
X177922725Y-73197753D01*
X177534510Y-72809539D01*
X177465992Y-72769980D01*
X177465988Y-72769978D01*
X177389564Y-72749500D01*
X177389562Y-72749500D01*
X145610438Y-72749500D01*
X145610435Y-72749500D01*
X145534011Y-72769978D01*
X145534007Y-72769980D01*
X145465491Y-72809538D01*
X142669504Y-75605525D01*
X142614987Y-75633302D01*
X142554555Y-75623731D01*
X142511290Y-75580466D01*
X142500500Y-75535521D01*
X142500500Y-70031008D01*
X142500499Y-70031004D01*
X142497835Y-70017612D01*
X142473580Y-69895672D01*
X142469194Y-69885084D01*
X142433082Y-69797902D01*
X142420776Y-69768191D01*
X142344116Y-69653460D01*
X142344114Y-69653457D01*
X137146543Y-64455886D01*
X137035689Y-64381816D01*
X136997809Y-64333766D01*
X136995407Y-64272628D01*
X137029400Y-64221754D01*
X137086803Y-64200576D01*
X137090690Y-64200500D01*
X177628732Y-64200500D01*
X177686923Y-64219407D01*
X177722887Y-64268907D01*
X177722887Y-64330093D01*
X177686923Y-64379593D01*
X177655825Y-64394721D01*
X177627320Y-64402831D01*
X177282384Y-64536459D01*
X176951260Y-64701339D01*
X176636755Y-64896072D01*
X176341556Y-65118998D01*
X176068205Y-65368191D01*
X176068191Y-65368205D01*
X175818998Y-65641556D01*
X175596072Y-65936755D01*
X175401339Y-66251260D01*
X175236459Y-66582384D01*
X175102831Y-66927320D01*
X175001600Y-67283108D01*
X174933632Y-67646703D01*
X174933631Y-67646710D01*
X174899500Y-68015043D01*
X174899500Y-68584956D01*
X174933631Y-68953289D01*
X174933632Y-68953296D01*
X175001600Y-69316891D01*
X175090974Y-69631007D01*
X175102832Y-69672682D01*
X175139832Y-69768191D01*
X175236459Y-70017615D01*
X175401339Y-70348739D01*
X175596072Y-70663244D01*
X175642201Y-70724328D01*
X175818992Y-70958436D01*
X176068198Y-71231802D01*
X176341564Y-71481008D01*
X176534202Y-71626481D01*
X176636755Y-71703927D01*
X176951260Y-71898660D01*
X177146083Y-71995670D01*
X177282388Y-72063542D01*
X177627318Y-72197168D01*
X177900318Y-72274843D01*
X177983109Y-72298399D01*
X177983108Y-72298399D01*
X178346703Y-72366367D01*
X178346708Y-72366367D01*
X178346715Y-72366369D01*
X178715046Y-72400500D01*
X178834108Y-72400500D01*
X179034108Y-72400500D01*
X179100000Y-72400500D01*
X179284002Y-72400543D01*
X179284002Y-72400542D01*
X179284012Y-72400543D01*
X179650482Y-72366759D01*
X180012303Y-72299476D01*
X180366420Y-72199261D01*
X180709843Y-72066962D01*
X181039670Y-71903696D01*
X181346062Y-71715181D01*
X181397941Y-71700500D01*
X183000500Y-71700500D01*
X183058691Y-71719407D01*
X183094655Y-71768907D01*
X183099500Y-71799500D01*
X183099500Y-109300500D01*
X183080593Y-109358691D01*
X183031093Y-109394655D01*
X183000500Y-109399500D01*
X181397941Y-109399500D01*
X181346062Y-109384818D01*
X181039671Y-109196304D01*
X180881158Y-109117840D01*
X180709843Y-109033038D01*
X180709835Y-109033035D01*
X180709831Y-109033033D01*
X180366428Y-108900742D01*
X180366411Y-108900736D01*
X180012306Y-108800524D01*
X179690936Y-108740763D01*
X179650485Y-108733241D01*
X179650478Y-108733240D01*
X179371650Y-108707536D01*
X179284012Y-108699457D01*
X179284009Y-108699457D01*
X179283999Y-108699456D01*
X179100000Y-108699500D01*
X178715043Y-108699500D01*
X178346710Y-108733631D01*
X178346703Y-108733632D01*
X177983108Y-108801600D01*
X177627320Y-108902831D01*
X177282384Y-109036459D01*
X176951260Y-109201339D01*
X176636755Y-109396072D01*
X176341556Y-109618998D01*
X176068205Y-109868191D01*
X176068191Y-109868205D01*
X175818998Y-110141556D01*
X175596072Y-110436755D01*
X175401339Y-110751260D01*
X175236459Y-111082384D01*
X175102831Y-111427320D01*
X175001600Y-111783108D01*
X174933632Y-112146703D01*
X174933631Y-112146710D01*
X174899500Y-112515043D01*
X174899500Y-113084956D01*
X174933631Y-113453289D01*
X174933632Y-113453296D01*
X175001600Y-113816891D01*
X175102831Y-114172679D01*
X175102832Y-114172682D01*
X175130701Y-114244620D01*
X175236459Y-114517615D01*
X175401339Y-114848739D01*
X175596072Y-115163244D01*
X175710671Y-115314996D01*
X175818992Y-115458436D01*
X176068198Y-115731802D01*
X176222794Y-115872735D01*
X176289568Y-115933608D01*
X176341564Y-115981008D01*
X176489449Y-116092686D01*
X176636755Y-116203927D01*
X176951260Y-116398660D01*
X177279682Y-116562194D01*
X177282388Y-116563542D01*
X177627318Y-116697168D01*
X177652720Y-116704395D01*
X177655825Y-116705279D01*
X177706620Y-116739390D01*
X177727664Y-116796842D01*
X177710920Y-116855692D01*
X177662783Y-116893460D01*
X177628732Y-116899500D01*
X131499000Y-116899500D01*
X131440809Y-116880593D01*
X131404845Y-116831093D01*
X131400000Y-116800500D01*
X131400000Y-113721532D01*
X132984500Y-113721532D01*
X132984500Y-114178467D01*
X133024869Y-114381418D01*
X133104058Y-114572597D01*
X133219020Y-114744651D01*
X133219023Y-114744655D01*
X133365345Y-114890977D01*
X133537402Y-115005941D01*
X133728580Y-115085130D01*
X133931535Y-115125500D01*
X133931536Y-115125500D01*
X134138464Y-115125500D01*
X134138465Y-115125500D01*
X134341420Y-115085130D01*
X134532598Y-115005941D01*
X134704655Y-114890977D01*
X134850977Y-114744655D01*
X134965941Y-114572598D01*
X135045130Y-114381420D01*
X135085500Y-114178465D01*
X135085500Y-113721535D01*
X135045130Y-113518580D01*
X134969851Y-113336842D01*
X135524500Y-113336842D01*
X135524500Y-114563157D01*
X135527291Y-114598626D01*
X135527292Y-114598631D01*
X135571383Y-114750393D01*
X135651827Y-114886416D01*
X135651828Y-114886417D01*
X135651830Y-114886420D01*
X135763580Y-114998170D01*
X135899610Y-115078618D01*
X136051373Y-115122709D01*
X136086837Y-115125500D01*
X137063162Y-115125499D01*
X137098627Y-115122709D01*
X137250390Y-115078618D01*
X137386420Y-114998170D01*
X137498170Y-114886420D01*
X137578618Y-114750390D01*
X137622709Y-114598627D01*
X137625500Y-114563163D01*
X137625500Y-114366417D01*
X141769216Y-114366417D01*
X141769216Y-114366422D01*
X141789697Y-114508876D01*
X141823158Y-114582143D01*
X141849486Y-114639793D01*
X141866955Y-114659953D01*
X141943736Y-114748564D01*
X142064805Y-114826370D01*
X142064810Y-114826373D01*
X142140986Y-114848740D01*
X142202898Y-114866919D01*
X142202899Y-114866919D01*
X142202902Y-114866920D01*
X142202904Y-114866920D01*
X142346822Y-114866920D01*
X142346824Y-114866920D01*
X142484916Y-114826373D01*
X142605991Y-114748563D01*
X142700240Y-114639793D01*
X142760028Y-114508877D01*
X142766855Y-114461391D01*
X142780510Y-114366422D01*
X142780510Y-114366417D01*
X142760028Y-114223963D01*
X142739250Y-114178467D01*
X142700240Y-114093047D01*
X142634715Y-114017427D01*
X142603969Y-113981943D01*
X142580152Y-113925583D01*
X142579789Y-113917112D01*
X142579789Y-110936189D01*
X142598696Y-110877998D01*
X142608785Y-110866185D01*
X143274764Y-110200206D01*
X143329281Y-110172429D01*
X143344768Y-110171210D01*
X144527917Y-110171210D01*
X144586108Y-110190117D01*
X144602733Y-110205377D01*
X144643872Y-110252853D01*
X144764947Y-110330663D01*
X144834986Y-110351228D01*
X144903035Y-110371209D01*
X144903036Y-110371209D01*
X144903039Y-110371210D01*
X144903041Y-110371210D01*
X145046959Y-110371210D01*
X145046961Y-110371210D01*
X145185053Y-110330663D01*
X145306128Y-110252853D01*
X145400377Y-110144083D01*
X145460165Y-110013167D01*
X145480647Y-109870710D01*
X145472471Y-109813847D01*
X145460165Y-109728253D01*
X145415408Y-109630250D01*
X145400377Y-109597337D01*
X145306128Y-109488567D01*
X145306127Y-109488566D01*
X145306126Y-109488565D01*
X145185057Y-109410759D01*
X145185054Y-109410757D01*
X145185053Y-109410757D01*
X145185050Y-109410756D01*
X145046964Y-109370210D01*
X145046961Y-109370210D01*
X144903039Y-109370210D01*
X144903035Y-109370210D01*
X144764949Y-109410756D01*
X144764942Y-109410759D01*
X144643876Y-109488564D01*
X144643871Y-109488568D01*
X144602736Y-109536041D01*
X144550340Y-109567637D01*
X144527917Y-109570210D01*
X143139724Y-109570210D01*
X143063300Y-109590688D01*
X143014280Y-109618991D01*
X143014276Y-109618993D01*
X142994781Y-109630247D01*
X142094778Y-110530250D01*
X142094777Y-110530249D01*
X142038828Y-110586199D01*
X141999269Y-110654717D01*
X141999267Y-110654721D01*
X141978789Y-110731145D01*
X141978789Y-113908690D01*
X141959882Y-113966881D01*
X141944624Y-113983506D01*
X141943738Y-113984273D01*
X141849485Y-114093048D01*
X141789697Y-114223963D01*
X141769216Y-114366417D01*
X137625500Y-114366417D01*
X137625499Y-113336838D01*
X137622709Y-113301373D01*
X137578618Y-113149610D01*
X137498170Y-113013580D01*
X137386420Y-112901830D01*
X137386417Y-112901828D01*
X137386416Y-112901827D01*
X137250392Y-112821383D01*
X137250391Y-112821382D01*
X137250390Y-112821382D01*
X137174508Y-112799336D01*
X137098625Y-112777290D01*
X137075894Y-112775502D01*
X137063163Y-112774500D01*
X137063157Y-112774500D01*
X136086842Y-112774500D01*
X136051373Y-112777291D01*
X136051368Y-112777292D01*
X135899606Y-112821383D01*
X135763583Y-112901827D01*
X135651827Y-113013583D01*
X135571383Y-113149606D01*
X135571383Y-113149607D01*
X135527290Y-113301374D01*
X135524500Y-113336842D01*
X134969851Y-113336842D01*
X134965941Y-113327402D01*
X134850977Y-113155345D01*
X134704655Y-113009023D01*
X134704651Y-113009020D01*
X134532597Y-112894058D01*
X134341418Y-112814869D01*
X134138467Y-112774500D01*
X134138465Y-112774500D01*
X133931535Y-112774500D01*
X133931532Y-112774500D01*
X133728581Y-112814869D01*
X133537402Y-112894058D01*
X133365348Y-113009020D01*
X133219020Y-113155348D01*
X133104058Y-113327402D01*
X133024869Y-113518581D01*
X132984500Y-113721532D01*
X131400000Y-113721532D01*
X131400000Y-111200001D01*
X131400000Y-111200000D01*
X131399999Y-111200000D01*
X108376922Y-111200000D01*
X108318731Y-111181093D01*
X108284608Y-111136764D01*
X108263539Y-111082381D01*
X108098660Y-110751260D01*
X107903927Y-110436755D01*
X107765051Y-110252855D01*
X107681008Y-110141564D01*
X107431802Y-109868198D01*
X107247846Y-109700500D01*
X107158443Y-109618998D01*
X107158440Y-109618996D01*
X107158436Y-109618992D01*
X106985722Y-109488564D01*
X106863244Y-109396072D01*
X106548739Y-109201339D01*
X106217615Y-109036459D01*
X105876528Y-108904322D01*
X105872682Y-108902832D01*
X105872680Y-108902831D01*
X105872679Y-108902831D01*
X105516890Y-108801600D01*
X105516891Y-108801600D01*
X105153296Y-108733632D01*
X105153289Y-108733631D01*
X104784956Y-108699500D01*
X104784954Y-108699500D01*
X104665892Y-108699500D01*
X104400000Y-108699500D01*
X104215997Y-108699456D01*
X103849521Y-108733240D01*
X103849512Y-108733242D01*
X103487693Y-108800524D01*
X103133588Y-108900736D01*
X103133571Y-108900742D01*
X102790168Y-109033033D01*
X102790149Y-109033042D01*
X102460328Y-109196304D01*
X102153938Y-109384818D01*
X102102059Y-109399500D01*
X100499500Y-109399500D01*
X100441309Y-109380593D01*
X100405345Y-109331093D01*
X100400500Y-109300500D01*
X100400500Y-105214234D01*
X104424500Y-105214234D01*
X104424500Y-105365766D01*
X104432153Y-105394328D01*
X104463720Y-105512139D01*
X104539481Y-105643360D01*
X104539483Y-105643362D01*
X104539485Y-105643365D01*
X104646635Y-105750515D01*
X104646637Y-105750516D01*
X104646639Y-105750518D01*
X104777861Y-105826279D01*
X104777859Y-105826279D01*
X104777863Y-105826280D01*
X104777865Y-105826281D01*
X104924234Y-105865500D01*
X104924236Y-105865500D01*
X105075764Y-105865500D01*
X105075766Y-105865500D01*
X105222135Y-105826281D01*
X105222137Y-105826279D01*
X105222139Y-105826279D01*
X105353360Y-105750518D01*
X105353360Y-105750517D01*
X105353365Y-105750515D01*
X105460515Y-105643365D01*
X105536281Y-105512135D01*
X105575500Y-105365766D01*
X105575500Y-105214234D01*
X105536281Y-105067865D01*
X105536279Y-105067862D01*
X105536279Y-105067860D01*
X105460518Y-104936639D01*
X105460516Y-104936637D01*
X105460515Y-104936635D01*
X105353365Y-104829485D01*
X105353362Y-104829483D01*
X105353360Y-104829481D01*
X105222138Y-104753720D01*
X105222140Y-104753720D01*
X105165347Y-104738503D01*
X105075766Y-104714500D01*
X104924234Y-104714500D01*
X104834652Y-104738503D01*
X104777860Y-104753720D01*
X104646639Y-104829481D01*
X104539481Y-104936639D01*
X104463720Y-105067860D01*
X104463719Y-105067865D01*
X104424500Y-105214234D01*
X100400500Y-105214234D01*
X100400500Y-99434234D01*
X104424500Y-99434234D01*
X104424500Y-99585766D01*
X104448260Y-99674440D01*
X104463720Y-99732139D01*
X104539481Y-99863360D01*
X104539483Y-99863362D01*
X104539485Y-99863365D01*
X104646635Y-99970515D01*
X104646637Y-99970516D01*
X104646639Y-99970518D01*
X104777861Y-100046279D01*
X104777859Y-100046279D01*
X104777863Y-100046280D01*
X104777865Y-100046281D01*
X104924234Y-100085500D01*
X104924236Y-100085500D01*
X105075764Y-100085500D01*
X105075766Y-100085500D01*
X105222135Y-100046281D01*
X105222137Y-100046279D01*
X105222139Y-100046279D01*
X105353360Y-99970518D01*
X105353360Y-99970517D01*
X105353365Y-99970515D01*
X105423883Y-99899997D01*
X107094353Y-99899997D01*
X107094353Y-99900002D01*
X107114834Y-100042456D01*
X107168493Y-100159950D01*
X107174623Y-100173373D01*
X107268870Y-100282141D01*
X107268873Y-100282144D01*
X107268875Y-100282145D01*
X107389947Y-100359953D01*
X107496403Y-100391211D01*
X107528035Y-100400499D01*
X107528036Y-100400499D01*
X107528039Y-100400500D01*
X107528041Y-100400500D01*
X107671959Y-100400500D01*
X107671961Y-100400500D01*
X107810053Y-100359953D01*
X107931128Y-100282143D01*
X107972264Y-100234668D01*
X108024660Y-100203073D01*
X108047083Y-100200500D01*
X110934521Y-100200500D01*
X110992712Y-100219407D01*
X111004525Y-100229496D01*
X111770504Y-100995475D01*
X111798281Y-101049992D01*
X111799500Y-101065479D01*
X111799500Y-101946105D01*
X111780593Y-102004296D01*
X111773258Y-102012289D01*
X111773509Y-102012506D01*
X111768872Y-102017856D01*
X111768872Y-102017857D01*
X111714511Y-102080593D01*
X111674622Y-102126628D01*
X111614834Y-102257543D01*
X111594353Y-102399997D01*
X111594353Y-102400002D01*
X111614834Y-102542456D01*
X111637005Y-102591003D01*
X111674623Y-102673373D01*
X111754185Y-102765193D01*
X111768873Y-102782144D01*
X111837776Y-102826425D01*
X111889947Y-102859953D01*
X111996403Y-102891211D01*
X112028035Y-102900499D01*
X112028036Y-102900499D01*
X112028039Y-102900500D01*
X112028041Y-102900500D01*
X112171959Y-102900500D01*
X112171961Y-102900500D01*
X112310053Y-102859953D01*
X112431128Y-102782143D01*
X112525377Y-102673373D01*
X112585165Y-102542457D01*
X112592060Y-102494500D01*
X112605647Y-102400002D01*
X112605647Y-102399997D01*
X112585165Y-102257543D01*
X112562226Y-102207314D01*
X112525377Y-102126627D01*
X112431128Y-102017857D01*
X112431127Y-102017856D01*
X112426491Y-102012506D01*
X112428524Y-102010743D01*
X112403067Y-101968505D01*
X112400500Y-101946105D01*
X112400500Y-100860439D01*
X112400500Y-100860438D01*
X112380022Y-100784012D01*
X112380020Y-100784009D01*
X112380020Y-100784007D01*
X112340463Y-100715493D01*
X112340461Y-100715491D01*
X112340460Y-100715489D01*
X112267805Y-100642834D01*
X120543347Y-100642834D01*
X120543347Y-100642839D01*
X120563828Y-100785293D01*
X120598146Y-100860438D01*
X120623617Y-100916210D01*
X120692300Y-100995475D01*
X120717867Y-101024981D01*
X120838936Y-101102787D01*
X120838941Y-101102790D01*
X120945397Y-101134048D01*
X120977029Y-101143336D01*
X120977030Y-101143336D01*
X120977033Y-101143337D01*
X120977035Y-101143337D01*
X121120953Y-101143337D01*
X121120955Y-101143337D01*
X121259047Y-101102790D01*
X121380122Y-101024980D01*
X121474371Y-100916210D01*
X121534159Y-100785294D01*
X121544195Y-100715493D01*
X121544446Y-100713747D01*
X121571441Y-100658839D01*
X121625555Y-100630285D01*
X121642438Y-100628835D01*
X121733564Y-100628835D01*
X121733566Y-100628835D01*
X121871658Y-100588288D01*
X121992733Y-100510478D01*
X122086982Y-100401708D01*
X122146770Y-100270792D01*
X122156876Y-100200500D01*
X122167252Y-100128337D01*
X122167252Y-100128332D01*
X122146770Y-99985878D01*
X122107549Y-99899997D01*
X122086982Y-99854962D01*
X121992733Y-99746192D01*
X121992732Y-99746191D01*
X121988096Y-99740841D01*
X121990129Y-99739078D01*
X121964672Y-99696840D01*
X121962105Y-99674440D01*
X121962105Y-95003874D01*
X121981012Y-94945683D01*
X121991101Y-94933870D01*
X123395475Y-93529496D01*
X123449992Y-93501719D01*
X123465479Y-93500500D01*
X126839563Y-93500500D01*
X126839563Y-93500499D01*
X126915989Y-93480021D01*
X126984511Y-93440460D01*
X127040460Y-93384511D01*
X127740460Y-92684511D01*
X127754358Y-92660438D01*
X127780021Y-92615989D01*
X127800500Y-92539562D01*
X127800500Y-91803731D01*
X127819407Y-91745540D01*
X127861614Y-91712267D01*
X127997598Y-91655941D01*
X128169655Y-91540977D01*
X128315977Y-91394655D01*
X128336116Y-91364514D01*
X128384163Y-91326636D01*
X128445302Y-91324232D01*
X128496176Y-91358224D01*
X128514057Y-91393890D01*
X128519979Y-91415989D01*
X128536476Y-91444562D01*
X128536477Y-91444565D01*
X128559535Y-91484505D01*
X128559538Y-91484508D01*
X128559540Y-91484511D01*
X129370505Y-92295476D01*
X129398281Y-92349991D01*
X129399500Y-92365478D01*
X129399500Y-93580492D01*
X129380593Y-93638683D01*
X129331093Y-93674647D01*
X129269907Y-93674647D01*
X129246977Y-93663776D01*
X129210057Y-93640049D01*
X129210054Y-93640047D01*
X129210053Y-93640047D01*
X129205408Y-93638683D01*
X129071964Y-93599500D01*
X129071961Y-93599500D01*
X128928039Y-93599500D01*
X128928035Y-93599500D01*
X128789949Y-93640046D01*
X128789942Y-93640049D01*
X128668867Y-93717859D01*
X128664820Y-93721366D01*
X128608458Y-93745178D01*
X128548864Y-93731313D01*
X128535162Y-93721356D01*
X128531129Y-93717862D01*
X128531125Y-93717857D01*
X128498179Y-93696684D01*
X128410054Y-93640049D01*
X128410051Y-93640047D01*
X128410050Y-93640047D01*
X128405405Y-93638683D01*
X128271961Y-93599500D01*
X128271958Y-93599500D01*
X128128036Y-93599500D01*
X128128032Y-93599500D01*
X127989946Y-93640046D01*
X127989939Y-93640049D01*
X127868870Y-93717855D01*
X127774619Y-93826628D01*
X127714831Y-93957543D01*
X127694350Y-94099997D01*
X127694350Y-94100002D01*
X127714831Y-94242456D01*
X127766759Y-94356160D01*
X127774620Y-94373373D01*
X127866211Y-94479076D01*
X127873506Y-94487494D01*
X127871468Y-94489259D01*
X127896922Y-94531458D01*
X127899497Y-94553893D01*
X127899497Y-94769869D01*
X127880590Y-94828060D01*
X127831090Y-94864024D01*
X127769904Y-94864024D01*
X127730493Y-94839873D01*
X127381623Y-94491003D01*
X127365277Y-94476320D01*
X127365270Y-94476314D01*
X127365262Y-94476307D01*
X127344620Y-94459673D01*
X127344619Y-94459672D01*
X127273576Y-94422510D01*
X127273571Y-94422508D01*
X127206542Y-94402826D01*
X127206533Y-94402824D01*
X127160322Y-94396180D01*
X127148638Y-94394500D01*
X126051362Y-94394500D01*
X126051343Y-94394500D01*
X126029405Y-94395677D01*
X126029398Y-94395677D01*
X126029393Y-94395678D01*
X126020894Y-94396591D01*
X126003038Y-94398511D01*
X126003033Y-94398512D01*
X125926520Y-94422469D01*
X125865193Y-94455957D01*
X125818369Y-94491010D01*
X125591003Y-94718376D01*
X125576320Y-94734722D01*
X125576301Y-94734745D01*
X125559672Y-94755380D01*
X125522510Y-94826423D01*
X125522508Y-94826428D01*
X125502826Y-94893457D01*
X125502824Y-94893466D01*
X125494500Y-94951362D01*
X125494500Y-95248656D01*
X125495677Y-95270594D01*
X125495678Y-95270603D01*
X125498511Y-95296961D01*
X125498512Y-95296966D01*
X125522469Y-95373479D01*
X125526920Y-95381630D01*
X125555956Y-95434805D01*
X125590234Y-95480593D01*
X125591010Y-95481630D01*
X125918376Y-95808996D01*
X125934722Y-95823679D01*
X125934738Y-95823693D01*
X125955380Y-95840327D01*
X126017059Y-95872591D01*
X126026425Y-95877490D01*
X126093464Y-95897175D01*
X126151362Y-95905500D01*
X126700500Y-95905500D01*
X126758691Y-95924407D01*
X126794655Y-95973907D01*
X126799500Y-96004500D01*
X126799500Y-102000500D01*
X126780593Y-102058691D01*
X126731093Y-102094655D01*
X126700500Y-102099500D01*
X122467772Y-102099500D01*
X122409581Y-102080593D01*
X122407506Y-102079043D01*
X122402842Y-102075464D01*
X122402838Y-102075462D01*
X122256766Y-102014957D01*
X122256758Y-102014955D01*
X122100001Y-101994318D01*
X122099999Y-101994318D01*
X121943241Y-102014955D01*
X121943233Y-102014957D01*
X121797161Y-102075462D01*
X121797160Y-102075462D01*
X121671723Y-102171713D01*
X121671713Y-102171723D01*
X121575462Y-102297160D01*
X121575462Y-102297161D01*
X121514957Y-102443233D01*
X121514955Y-102443241D01*
X121494318Y-102599999D01*
X121494318Y-102600000D01*
X121514955Y-102756758D01*
X121514957Y-102756766D01*
X121575462Y-102902838D01*
X121575462Y-102902839D01*
X121642442Y-102990129D01*
X121671718Y-103028282D01*
X121797159Y-103124536D01*
X121797160Y-103124536D01*
X121797161Y-103124537D01*
X121904280Y-103168907D01*
X121943238Y-103185044D01*
X122053043Y-103199500D01*
X122099999Y-103205682D01*
X122100000Y-103205682D01*
X122100001Y-103205682D01*
X122146957Y-103199500D01*
X122256762Y-103185044D01*
X122402841Y-103124536D01*
X122404118Y-103123555D01*
X122407506Y-103120957D01*
X122465182Y-103100534D01*
X122467772Y-103100500D01*
X126800500Y-103100500D01*
X126858691Y-103119407D01*
X126894655Y-103168907D01*
X126899500Y-103199500D01*
X126899500Y-104833369D01*
X126880593Y-104891560D01*
X126879045Y-104893632D01*
X126875465Y-104898296D01*
X126814957Y-105044378D01*
X126814955Y-105044383D01*
X126794318Y-105201141D01*
X126794318Y-105201142D01*
X126814955Y-105357900D01*
X126814957Y-105357908D01*
X126875462Y-105503980D01*
X126875463Y-105503982D01*
X126875464Y-105503983D01*
X126917101Y-105558246D01*
X126925226Y-105568835D01*
X126971718Y-105629424D01*
X127097159Y-105725678D01*
X127097160Y-105725678D01*
X127097161Y-105725679D01*
X127157128Y-105750518D01*
X127243238Y-105786186D01*
X127360809Y-105801664D01*
X127399999Y-105806824D01*
X127400000Y-105806824D01*
X127400001Y-105806824D01*
X127431352Y-105802696D01*
X127556762Y-105786186D01*
X127702841Y-105725678D01*
X127704118Y-105724697D01*
X127707506Y-105722099D01*
X127765182Y-105701676D01*
X127767772Y-105701642D01*
X129064748Y-105701642D01*
X129064750Y-105701642D01*
X129192044Y-105667534D01*
X129192046Y-105667532D01*
X129192048Y-105667532D01*
X129306167Y-105601645D01*
X129306167Y-105601644D01*
X129306172Y-105601642D01*
X130800500Y-104107314D01*
X130861094Y-104002363D01*
X130866390Y-103993190D01*
X130866390Y-103993188D01*
X130866392Y-103993186D01*
X130900500Y-103865892D01*
X130900500Y-103734108D01*
X130900500Y-103048320D01*
X130919407Y-102990129D01*
X130929490Y-102978322D01*
X131607311Y-102300501D01*
X131607314Y-102300500D01*
X131700500Y-102207314D01*
X131766392Y-102093186D01*
X131786576Y-102017857D01*
X131800500Y-101965893D01*
X131800500Y-101834108D01*
X131800500Y-93648321D01*
X131819407Y-93590130D01*
X131829490Y-93578323D01*
X132980499Y-92427315D01*
X132986459Y-92416992D01*
X132987042Y-92415984D01*
X133010398Y-92375529D01*
X133046392Y-92313186D01*
X133052480Y-92290463D01*
X133052482Y-92290460D01*
X133052481Y-92290460D01*
X133080500Y-92185893D01*
X133080500Y-92054108D01*
X133080500Y-91853758D01*
X133099407Y-91795568D01*
X133148907Y-91759604D01*
X133151863Y-91758695D01*
X133255390Y-91728618D01*
X133391420Y-91648170D01*
X133503170Y-91536420D01*
X133583618Y-91400390D01*
X133627709Y-91248627D01*
X133630500Y-91213163D01*
X133630499Y-89986838D01*
X133627709Y-89951373D01*
X133583618Y-89799610D01*
X133574390Y-89784007D01*
X133503172Y-89663583D01*
X133503171Y-89663582D01*
X133503170Y-89663580D01*
X133391420Y-89551830D01*
X133391417Y-89551828D01*
X133391416Y-89551827D01*
X133255392Y-89471383D01*
X133255391Y-89471382D01*
X133255390Y-89471382D01*
X133179508Y-89449336D01*
X133103625Y-89427290D01*
X133080894Y-89425502D01*
X133068163Y-89424500D01*
X133068157Y-89424500D01*
X132091842Y-89424500D01*
X132056373Y-89427291D01*
X132056368Y-89427292D01*
X131904606Y-89471383D01*
X131768583Y-89551827D01*
X131768580Y-89551829D01*
X131768580Y-89551830D01*
X131659501Y-89660908D01*
X131604987Y-89688684D01*
X131544555Y-89679113D01*
X131501290Y-89635848D01*
X131490500Y-89590903D01*
X131490500Y-88450437D01*
X131490499Y-88450435D01*
X131470021Y-88374011D01*
X131470019Y-88374007D01*
X131430460Y-88305489D01*
X131374511Y-88249539D01*
X131374511Y-88249540D01*
X128829496Y-85704525D01*
X128801719Y-85650008D01*
X128800500Y-85634521D01*
X128800500Y-81453893D01*
X128819407Y-81395702D01*
X128826741Y-81387711D01*
X128826491Y-81387494D01*
X128831128Y-81382143D01*
X128925377Y-81273373D01*
X128985165Y-81142457D01*
X128993703Y-81083072D01*
X129005647Y-81000002D01*
X129005647Y-80999997D01*
X128985165Y-80857543D01*
X128949808Y-80780123D01*
X128925377Y-80726627D01*
X128831128Y-80617857D01*
X128831127Y-80617856D01*
X128831126Y-80617855D01*
X128710057Y-80540049D01*
X128710054Y-80540047D01*
X128710053Y-80540047D01*
X128710050Y-80540046D01*
X128571964Y-80499500D01*
X128571961Y-80499500D01*
X128428039Y-80499500D01*
X128428035Y-80499500D01*
X128289949Y-80540046D01*
X128289942Y-80540049D01*
X128168873Y-80617855D01*
X128074622Y-80726628D01*
X128014834Y-80857543D01*
X127994353Y-80999997D01*
X127994353Y-81000002D01*
X128014834Y-81142456D01*
X128051671Y-81223116D01*
X128074623Y-81273373D01*
X128165424Y-81378164D01*
X128173509Y-81387494D01*
X128171471Y-81389259D01*
X128196925Y-81431458D01*
X128199500Y-81453893D01*
X128199500Y-85839564D01*
X128219978Y-85915988D01*
X128219980Y-85915992D01*
X128259538Y-85984508D01*
X128259540Y-85984511D01*
X130860505Y-88585476D01*
X130888281Y-88639991D01*
X130889500Y-88655478D01*
X130889500Y-91239521D01*
X130870593Y-91297712D01*
X130860504Y-91309525D01*
X130215489Y-91954540D01*
X130215488Y-91954539D01*
X130159539Y-92010489D01*
X130134291Y-92054219D01*
X130088821Y-92095159D01*
X130027971Y-92101553D01*
X129974983Y-92070959D01*
X129962820Y-92054217D01*
X129940460Y-92015489D01*
X129884511Y-91959539D01*
X129884511Y-91959540D01*
X129129496Y-91204525D01*
X129101719Y-91150008D01*
X129100500Y-91134521D01*
X129100500Y-89860437D01*
X129100499Y-89860435D01*
X129085737Y-89805345D01*
X129080021Y-89784011D01*
X129040460Y-89715489D01*
X129013655Y-89688684D01*
X128984511Y-89659539D01*
X128984511Y-89659540D01*
X126029496Y-86704525D01*
X126001719Y-86650008D01*
X126000500Y-86634521D01*
X126000500Y-81453893D01*
X126019407Y-81395702D01*
X126026741Y-81387711D01*
X126026491Y-81387494D01*
X126031128Y-81382143D01*
X126125377Y-81273373D01*
X126185165Y-81142457D01*
X126193703Y-81083072D01*
X126205647Y-81000002D01*
X126205647Y-80999997D01*
X126185165Y-80857543D01*
X126149808Y-80780123D01*
X126125377Y-80726627D01*
X126031128Y-80617857D01*
X126031127Y-80617856D01*
X126031126Y-80617855D01*
X125910057Y-80540049D01*
X125910054Y-80540047D01*
X125910053Y-80540047D01*
X125910050Y-80540046D01*
X125771964Y-80499500D01*
X125771961Y-80499500D01*
X125628039Y-80499500D01*
X125628035Y-80499500D01*
X125489949Y-80540046D01*
X125489942Y-80540049D01*
X125368873Y-80617855D01*
X125274622Y-80726628D01*
X125214834Y-80857543D01*
X125194353Y-80999997D01*
X125194353Y-81000002D01*
X125214834Y-81142456D01*
X125251671Y-81223116D01*
X125274623Y-81273373D01*
X125365424Y-81378164D01*
X125373509Y-81387494D01*
X125371471Y-81389259D01*
X125396925Y-81431458D01*
X125399500Y-81453893D01*
X125399500Y-86839564D01*
X125419978Y-86915988D01*
X125419980Y-86915992D01*
X125439326Y-86949500D01*
X125459540Y-86984511D01*
X126635466Y-88160437D01*
X127742270Y-89267241D01*
X127770047Y-89321758D01*
X127760476Y-89382190D01*
X127717211Y-89425455D01*
X127656779Y-89435026D01*
X127652953Y-89434343D01*
X127603470Y-89424500D01*
X127603465Y-89424500D01*
X127396535Y-89424500D01*
X127396532Y-89424500D01*
X127193581Y-89464869D01*
X127002402Y-89544058D01*
X126830348Y-89659020D01*
X126684020Y-89805348D01*
X126569058Y-89977402D01*
X126489869Y-90168581D01*
X126449500Y-90371532D01*
X126449500Y-90828467D01*
X126489869Y-91031418D01*
X126569058Y-91222597D01*
X126663885Y-91364516D01*
X126684023Y-91394655D01*
X126830345Y-91540977D01*
X127002402Y-91655941D01*
X127002403Y-91655941D01*
X127002404Y-91655942D01*
X127035933Y-91669830D01*
X127138385Y-91712267D01*
X127184911Y-91752003D01*
X127199500Y-91803731D01*
X127199500Y-92334521D01*
X127180593Y-92392712D01*
X127170504Y-92404525D01*
X126704525Y-92870504D01*
X126650008Y-92898281D01*
X126634521Y-92899500D01*
X124664479Y-92899500D01*
X124606288Y-92880593D01*
X124570324Y-92831093D01*
X124570324Y-92769907D01*
X124594475Y-92730496D01*
X124884925Y-92440046D01*
X125200460Y-92124511D01*
X125205669Y-92115489D01*
X125240021Y-92055989D01*
X125260500Y-91979562D01*
X125260500Y-91803731D01*
X125279407Y-91745540D01*
X125321614Y-91712267D01*
X125457598Y-91655941D01*
X125629655Y-91540977D01*
X125775977Y-91394655D01*
X125890941Y-91222598D01*
X125970130Y-91031420D01*
X126010500Y-90828465D01*
X126010500Y-90371535D01*
X125970130Y-90168580D01*
X125890941Y-89977402D01*
X125775977Y-89805345D01*
X125629655Y-89659023D01*
X125568966Y-89618472D01*
X125457597Y-89544058D01*
X125266418Y-89464869D01*
X125063467Y-89424500D01*
X125063465Y-89424500D01*
X124856535Y-89424500D01*
X124856532Y-89424500D01*
X124653581Y-89464869D01*
X124462402Y-89544058D01*
X124290348Y-89659020D01*
X124144020Y-89805348D01*
X124029058Y-89977402D01*
X123949869Y-90168581D01*
X123909500Y-90371532D01*
X123909500Y-90828467D01*
X123949869Y-91031418D01*
X124029058Y-91222597D01*
X124123885Y-91364516D01*
X124144023Y-91394655D01*
X124290345Y-91540977D01*
X124462402Y-91655941D01*
X124462403Y-91655941D01*
X124462404Y-91655942D01*
X124472088Y-91659953D01*
X124577731Y-91703712D01*
X124624256Y-91743447D01*
X124638540Y-91802942D01*
X124615126Y-91859470D01*
X124609849Y-91865178D01*
X124204525Y-92270503D01*
X124150008Y-92298281D01*
X124134521Y-92299500D01*
X123010435Y-92299500D01*
X122934012Y-92319978D01*
X122881147Y-92350500D01*
X122881146Y-92350499D01*
X122865491Y-92359538D01*
X120864483Y-94360546D01*
X120864482Y-94360545D01*
X120808533Y-94416495D01*
X120768974Y-94485013D01*
X120768972Y-94485017D01*
X120748494Y-94561441D01*
X120748494Y-100188942D01*
X120729587Y-100247133D01*
X120722252Y-100255126D01*
X120722503Y-100255343D01*
X120717866Y-100260693D01*
X120717866Y-100260694D01*
X120699280Y-100282144D01*
X120623616Y-100369465D01*
X120563828Y-100500380D01*
X120543347Y-100642834D01*
X112267805Y-100642834D01*
X111284511Y-99659540D01*
X111284508Y-99659538D01*
X111215992Y-99619980D01*
X111215988Y-99619978D01*
X111139564Y-99599500D01*
X111139562Y-99599500D01*
X108047083Y-99599500D01*
X107988892Y-99580593D01*
X107972264Y-99565331D01*
X107949935Y-99539562D01*
X107931128Y-99517857D01*
X107898182Y-99496684D01*
X107810057Y-99440049D01*
X107810054Y-99440047D01*
X107810053Y-99440047D01*
X107810050Y-99440046D01*
X107671964Y-99399500D01*
X107671961Y-99399500D01*
X107528039Y-99399500D01*
X107528035Y-99399500D01*
X107389949Y-99440046D01*
X107389942Y-99440049D01*
X107268873Y-99517855D01*
X107174622Y-99626628D01*
X107114834Y-99757543D01*
X107094353Y-99899997D01*
X105423883Y-99899997D01*
X105460515Y-99863365D01*
X105465366Y-99854963D01*
X105536279Y-99732139D01*
X105536279Y-99732137D01*
X105536281Y-99732135D01*
X105575500Y-99585766D01*
X105575500Y-99434234D01*
X105536281Y-99287865D01*
X105536279Y-99287862D01*
X105536279Y-99287860D01*
X105460518Y-99156639D01*
X105460516Y-99156637D01*
X105460515Y-99156635D01*
X105353365Y-99049485D01*
X105353362Y-99049483D01*
X105353360Y-99049481D01*
X105222138Y-98973720D01*
X105222140Y-98973720D01*
X105165347Y-98958503D01*
X105075766Y-98934500D01*
X104924234Y-98934500D01*
X104834652Y-98958503D01*
X104777860Y-98973720D01*
X104646639Y-99049481D01*
X104539481Y-99156639D01*
X104463720Y-99287860D01*
X104441793Y-99369693D01*
X104424500Y-99434234D01*
X100400500Y-99434234D01*
X100400500Y-94150000D01*
X104694357Y-94150000D01*
X104714885Y-94371536D01*
X104775771Y-94585528D01*
X104874942Y-94784689D01*
X105009019Y-94962236D01*
X105173438Y-95112124D01*
X105362599Y-95229247D01*
X105570060Y-95309618D01*
X105788757Y-95350500D01*
X106011243Y-95350500D01*
X106229940Y-95309618D01*
X106437401Y-95229247D01*
X106626562Y-95112124D01*
X106790981Y-94962236D01*
X106832135Y-94907737D01*
X106882288Y-94872697D01*
X106943463Y-94873826D01*
X106992291Y-94910698D01*
X107010120Y-94969228D01*
X107007108Y-94991702D01*
X106964380Y-95160434D01*
X106964379Y-95160438D01*
X106944529Y-95400000D01*
X106964379Y-95639561D01*
X106964379Y-95639562D01*
X107023388Y-95872585D01*
X107023390Y-95872591D01*
X107046119Y-95924407D01*
X107119950Y-96092727D01*
X107119953Y-96092732D01*
X107251425Y-96293964D01*
X107251427Y-96293966D01*
X107251429Y-96293969D01*
X107414236Y-96470825D01*
X107603933Y-96618472D01*
X107815344Y-96732882D01*
X108042703Y-96810934D01*
X108279808Y-96850500D01*
X108520192Y-96850500D01*
X108757297Y-96810934D01*
X108984656Y-96732882D01*
X109196067Y-96618472D01*
X109385764Y-96470825D01*
X109548571Y-96293969D01*
X109680049Y-96092728D01*
X109776610Y-95872591D01*
X109835620Y-95639563D01*
X109855471Y-95400000D01*
X109835620Y-95160437D01*
X109776610Y-94927409D01*
X109680049Y-94707272D01*
X109663899Y-94682552D01*
X109548574Y-94506035D01*
X109548572Y-94506033D01*
X109548571Y-94506031D01*
X109385764Y-94329175D01*
X109274349Y-94242457D01*
X109196070Y-94181530D01*
X109196067Y-94181528D01*
X108984659Y-94067119D01*
X108867900Y-94027036D01*
X108757297Y-93989066D01*
X108757294Y-93989065D01*
X108757293Y-93989065D01*
X108520192Y-93949500D01*
X108279808Y-93949500D01*
X108042706Y-93989065D01*
X107815340Y-94067119D01*
X107603932Y-94181528D01*
X107603929Y-94181530D01*
X107414239Y-94329172D01*
X107251425Y-94506035D01*
X107245464Y-94515160D01*
X107197807Y-94553533D01*
X107136697Y-94556565D01*
X107085476Y-94523099D01*
X107063708Y-94465917D01*
X107067364Y-94433923D01*
X107085115Y-94371536D01*
X107105643Y-94150000D01*
X107085115Y-93928464D01*
X107024229Y-93714472D01*
X106925058Y-93515311D01*
X106790981Y-93337764D01*
X106626562Y-93187876D01*
X106437401Y-93070753D01*
X106229940Y-92990382D01*
X106229939Y-92990381D01*
X106229937Y-92990381D01*
X106011243Y-92949500D01*
X105788757Y-92949500D01*
X105570062Y-92990381D01*
X105493797Y-93019926D01*
X105362599Y-93070753D01*
X105196861Y-93173373D01*
X105173438Y-93187876D01*
X105067943Y-93284048D01*
X105009019Y-93337764D01*
X104992265Y-93359950D01*
X104874943Y-93515309D01*
X104874938Y-93515318D01*
X104792374Y-93681128D01*
X104775771Y-93714472D01*
X104714885Y-93928464D01*
X104694357Y-94150000D01*
X100400500Y-94150000D01*
X100400500Y-88400000D01*
X106944529Y-88400000D01*
X106964379Y-88639561D01*
X106964379Y-88639562D01*
X107023388Y-88872585D01*
X107023390Y-88872591D01*
X107074520Y-88989157D01*
X107119950Y-89092727D01*
X107119953Y-89092732D01*
X107251425Y-89293964D01*
X107251427Y-89293966D01*
X107251429Y-89293969D01*
X107414236Y-89470825D01*
X107603933Y-89618472D01*
X107687291Y-89663583D01*
X107783204Y-89715489D01*
X107815344Y-89732882D01*
X108042703Y-89810934D01*
X108279808Y-89850500D01*
X108520192Y-89850500D01*
X108757297Y-89810934D01*
X108984656Y-89732882D01*
X109196067Y-89618472D01*
X109385764Y-89470825D01*
X109548571Y-89293969D01*
X109680049Y-89092728D01*
X109776610Y-88872591D01*
X109835620Y-88639563D01*
X109855471Y-88400000D01*
X109835620Y-88160437D01*
X109776610Y-87927409D01*
X109680049Y-87707272D01*
X109548571Y-87506031D01*
X109385764Y-87329175D01*
X109196067Y-87181528D01*
X108984659Y-87067119D01*
X108967796Y-87061330D01*
X108757297Y-86989066D01*
X108757294Y-86989065D01*
X108757293Y-86989065D01*
X108520192Y-86949500D01*
X108279808Y-86949500D01*
X108042706Y-86989065D01*
X107815340Y-87067119D01*
X107603932Y-87181528D01*
X107603929Y-87181530D01*
X107414239Y-87329172D01*
X107251425Y-87506035D01*
X107119953Y-87707267D01*
X107119950Y-87707272D01*
X107023388Y-87927414D01*
X106964379Y-88160437D01*
X106964379Y-88160438D01*
X106944529Y-88400000D01*
X100400500Y-88400000D01*
X100400500Y-83650000D01*
X104694357Y-83650000D01*
X104714885Y-83871536D01*
X104775771Y-84085528D01*
X104874942Y-84284689D01*
X105009019Y-84462236D01*
X105173438Y-84612124D01*
X105362599Y-84729247D01*
X105570060Y-84809618D01*
X105788757Y-84850500D01*
X106011243Y-84850500D01*
X106229940Y-84809618D01*
X106437401Y-84729247D01*
X106626562Y-84612124D01*
X106790981Y-84462236D01*
X106832135Y-84407737D01*
X106882288Y-84372697D01*
X106943463Y-84373826D01*
X106992291Y-84410698D01*
X107010120Y-84469228D01*
X107007108Y-84491702D01*
X106964380Y-84660434D01*
X106964379Y-84660438D01*
X106944529Y-84900000D01*
X106964379Y-85139561D01*
X106964379Y-85139562D01*
X107018251Y-85352299D01*
X107023390Y-85372591D01*
X107074520Y-85489157D01*
X107119950Y-85592727D01*
X107119953Y-85592732D01*
X107251425Y-85793964D01*
X107251427Y-85793966D01*
X107251429Y-85793969D01*
X107414236Y-85970825D01*
X107603933Y-86118472D01*
X107815344Y-86232882D01*
X108042703Y-86310934D01*
X108279808Y-86350500D01*
X108520192Y-86350500D01*
X108757297Y-86310934D01*
X108984656Y-86232882D01*
X109196067Y-86118472D01*
X109385764Y-85970825D01*
X109548571Y-85793969D01*
X109680049Y-85592728D01*
X109776610Y-85372591D01*
X109835620Y-85139563D01*
X109855471Y-84900000D01*
X109835620Y-84660437D01*
X109776610Y-84427409D01*
X109680049Y-84207272D01*
X109680046Y-84207267D01*
X109548574Y-84006035D01*
X109548572Y-84006033D01*
X109548571Y-84006031D01*
X109385764Y-83829175D01*
X109196067Y-83681528D01*
X108984659Y-83567119D01*
X108967796Y-83561330D01*
X108757297Y-83489066D01*
X108757294Y-83489065D01*
X108757293Y-83489065D01*
X108520192Y-83449500D01*
X108279808Y-83449500D01*
X108042706Y-83489065D01*
X107815340Y-83567119D01*
X107603932Y-83681528D01*
X107603929Y-83681530D01*
X107414239Y-83829172D01*
X107251425Y-84006035D01*
X107245464Y-84015160D01*
X107197807Y-84053533D01*
X107136697Y-84056565D01*
X107085476Y-84023099D01*
X107063708Y-83965917D01*
X107067364Y-83933923D01*
X107085115Y-83871536D01*
X107105643Y-83650000D01*
X107085115Y-83428464D01*
X107024229Y-83214472D01*
X106925058Y-83015311D01*
X106790981Y-82837764D01*
X106626562Y-82687876D01*
X106437401Y-82570753D01*
X106229940Y-82490382D01*
X106229939Y-82490381D01*
X106229937Y-82490381D01*
X106011243Y-82449500D01*
X105788757Y-82449500D01*
X105570062Y-82490381D01*
X105501542Y-82516926D01*
X105362599Y-82570753D01*
X105173438Y-82687876D01*
X105009019Y-82837764D01*
X104965550Y-82895326D01*
X104874943Y-83015309D01*
X104874938Y-83015318D01*
X104775772Y-83214469D01*
X104775771Y-83214472D01*
X104714885Y-83428464D01*
X104694357Y-83650000D01*
X100400500Y-83650000D01*
X100400500Y-77900000D01*
X106944529Y-77900000D01*
X106964379Y-78139561D01*
X106964379Y-78139562D01*
X106994989Y-78260438D01*
X107023390Y-78372591D01*
X107074520Y-78489157D01*
X107119950Y-78592727D01*
X107119953Y-78592732D01*
X107251425Y-78793964D01*
X107251427Y-78793966D01*
X107251429Y-78793969D01*
X107414236Y-78970825D01*
X107603933Y-79118472D01*
X107815344Y-79232882D01*
X108042703Y-79310934D01*
X108279808Y-79350500D01*
X108520192Y-79350500D01*
X108757297Y-79310934D01*
X108984656Y-79232882D01*
X109196067Y-79118472D01*
X109385764Y-78970825D01*
X109548571Y-78793969D01*
X109680049Y-78592728D01*
X109776610Y-78372591D01*
X109835620Y-78139563D01*
X109855471Y-77900000D01*
X109835620Y-77660437D01*
X109776610Y-77427409D01*
X109680049Y-77207272D01*
X109598299Y-77082145D01*
X109548574Y-77006035D01*
X109548572Y-77006033D01*
X109548571Y-77006031D01*
X109385764Y-76829175D01*
X109337811Y-76791851D01*
X109196070Y-76681530D01*
X109196067Y-76681528D01*
X108984659Y-76567119D01*
X108956765Y-76557543D01*
X108757297Y-76489066D01*
X108757294Y-76489065D01*
X108757293Y-76489065D01*
X108520192Y-76449500D01*
X108279808Y-76449500D01*
X108042706Y-76489065D01*
X107815340Y-76567119D01*
X107603932Y-76681528D01*
X107603929Y-76681530D01*
X107414239Y-76829172D01*
X107251425Y-77006035D01*
X107119953Y-77207267D01*
X107119950Y-77207272D01*
X107023388Y-77427414D01*
X106964380Y-77660436D01*
X106944529Y-77900000D01*
X100400500Y-77900000D01*
X100400500Y-71799500D01*
X100419407Y-71741309D01*
X100468907Y-71705345D01*
X100499500Y-71700500D01*
X102102059Y-71700500D01*
X102153937Y-71715181D01*
X102460330Y-71903696D01*
X102790157Y-72066962D01*
X103133580Y-72199261D01*
X103255750Y-72233835D01*
X103483887Y-72298398D01*
X103487697Y-72299476D01*
X103849518Y-72366759D01*
X104215988Y-72400543D01*
X104400000Y-72400500D01*
X104465892Y-72400500D01*
X104534108Y-72400500D01*
X104600000Y-72400500D01*
X104784954Y-72400500D01*
X105153285Y-72366369D01*
X105153296Y-72366367D01*
X105516891Y-72298399D01*
X105516895Y-72298398D01*
X105872682Y-72197168D01*
X106217612Y-72063542D01*
X106426483Y-71959536D01*
X106548739Y-71898660D01*
X106804905Y-71740049D01*
X106863243Y-71703928D01*
X107158436Y-71481008D01*
X107431802Y-71231802D01*
X107681008Y-70958436D01*
X107903928Y-70663243D01*
X108073015Y-70390157D01*
X108098660Y-70348739D01*
X108223671Y-70097683D01*
X108263542Y-70017612D01*
X108397168Y-69672682D01*
X108498398Y-69316895D01*
X108516511Y-69220003D01*
X108566367Y-68953296D01*
X108566368Y-68953289D01*
X108566369Y-68953285D01*
X108600500Y-68584954D01*
X108600500Y-68400000D01*
X108600500Y-68334108D01*
X108600500Y-68134108D01*
X108600500Y-68015046D01*
X108566369Y-67646715D01*
X108553219Y-67576369D01*
X108498399Y-67283108D01*
X108461510Y-67153458D01*
X108397168Y-66927318D01*
X108263542Y-66582388D01*
X108209604Y-66474066D01*
X108098660Y-66251260D01*
X107903927Y-65936755D01*
X107739792Y-65719407D01*
X107681008Y-65641564D01*
X107431802Y-65368198D01*
X107247846Y-65200500D01*
X107158443Y-65118998D01*
X107158440Y-65118996D01*
X107158436Y-65118992D01*
X107010551Y-65007314D01*
X106863244Y-64896072D01*
X106548739Y-64701339D01*
X106217615Y-64536459D01*
X105872679Y-64402831D01*
X105844175Y-64394721D01*
X105793380Y-64360610D01*
X105772336Y-64303158D01*
X105789080Y-64244308D01*
X105837217Y-64206540D01*
X105871268Y-64200500D01*
X110809310Y-64200500D01*
X110867501Y-64219407D01*
G37*
G04 #@! TD.AperFunction*
G04 #@! TA.AperFunction,Conductor*
G36*
X113794116Y-65719407D02*
G01*
X113830080Y-65768907D01*
X113830080Y-65830093D01*
X113798730Y-65876028D01*
X113728595Y-65933585D01*
X113728585Y-65933595D01*
X113597316Y-66093547D01*
X113499768Y-66276045D01*
X113439699Y-66474065D01*
X113439698Y-66474070D01*
X113419417Y-66679996D01*
X113419417Y-66680003D01*
X113439698Y-66885929D01*
X113439699Y-66885934D01*
X113499768Y-67083954D01*
X113597316Y-67266452D01*
X113703364Y-67395672D01*
X113728590Y-67426410D01*
X113728595Y-67426414D01*
X113888547Y-67557683D01*
X113888548Y-67557683D01*
X113888550Y-67557685D01*
X114071046Y-67655232D01*
X114208997Y-67697078D01*
X114269065Y-67715300D01*
X114269070Y-67715301D01*
X114474997Y-67735583D01*
X114475000Y-67735583D01*
X114475003Y-67735583D01*
X114680929Y-67715301D01*
X114680934Y-67715300D01*
X114878954Y-67655232D01*
X115061450Y-67557685D01*
X115221410Y-67426410D01*
X115352685Y-67266450D01*
X115450232Y-67083954D01*
X115510300Y-66885934D01*
X115510301Y-66885929D01*
X115530583Y-66680003D01*
X115530583Y-66679996D01*
X115510301Y-66474070D01*
X115510300Y-66474065D01*
X115454512Y-66290157D01*
X115450232Y-66276046D01*
X115352685Y-66093550D01*
X115221410Y-65933590D01*
X115151269Y-65876027D01*
X115118283Y-65824497D01*
X115121885Y-65763418D01*
X115160700Y-65716121D01*
X115214075Y-65700500D01*
X136368835Y-65700500D01*
X136427026Y-65719407D01*
X136438839Y-65729496D01*
X141070504Y-70361161D01*
X141098281Y-70415678D01*
X141099500Y-70431165D01*
X141099500Y-92318996D01*
X141109746Y-92370504D01*
X141126163Y-92453038D01*
X141126420Y-92454327D01*
X141126420Y-92454329D01*
X141179223Y-92581808D01*
X141252938Y-92692132D01*
X141255886Y-92696543D01*
X141544998Y-92985655D01*
X141784839Y-93225496D01*
X141812616Y-93280013D01*
X141803045Y-93340445D01*
X141759780Y-93383710D01*
X141714835Y-93394500D01*
X141226165Y-93394500D01*
X141167974Y-93375593D01*
X141156161Y-93365504D01*
X140729496Y-92938839D01*
X140701719Y-92884322D01*
X140700500Y-92868835D01*
X140700500Y-72131008D01*
X140700499Y-72131004D01*
X140687761Y-72066966D01*
X140673580Y-71995672D01*
X140642227Y-71919978D01*
X140620777Y-71868193D01*
X140620771Y-71868182D01*
X140544114Y-71753458D01*
X138158845Y-69368189D01*
X135846543Y-67055886D01*
X135731811Y-66979225D01*
X135731810Y-66979224D01*
X135731808Y-66979223D01*
X135604328Y-66926420D01*
X135468996Y-66899500D01*
X135468994Y-66899500D01*
X135468993Y-66899500D01*
X119590491Y-66899500D01*
X119576402Y-66898492D01*
X119567939Y-66897275D01*
X119548638Y-66894500D01*
X118551362Y-66894500D01*
X118551343Y-66894500D01*
X118529405Y-66895677D01*
X118529398Y-66895677D01*
X118529393Y-66895678D01*
X118522398Y-66896430D01*
X118503036Y-66898511D01*
X118450724Y-66914890D01*
X118440461Y-66917509D01*
X118395678Y-66926418D01*
X118395669Y-66926420D01*
X118268193Y-66979222D01*
X118268182Y-66979228D01*
X118153458Y-67055885D01*
X118055885Y-67153458D01*
X117979228Y-67268182D01*
X117979222Y-67268193D01*
X117926420Y-67395669D01*
X117916531Y-67445386D01*
X117914423Y-67453961D01*
X117902826Y-67493458D01*
X117902824Y-67493468D01*
X117894500Y-67551362D01*
X117894500Y-68473835D01*
X117875593Y-68532026D01*
X117865504Y-68543839D01*
X117155883Y-69253460D01*
X117106816Y-69326896D01*
X117079223Y-69368191D01*
X117026420Y-69495670D01*
X117026420Y-69495672D01*
X116999500Y-69631004D01*
X116999500Y-70743835D01*
X116980593Y-70802026D01*
X116970504Y-70813839D01*
X114563839Y-73220504D01*
X114509322Y-73248281D01*
X114493835Y-73249500D01*
X113605252Y-73249500D01*
X113605251Y-73249500D01*
X113605241Y-73249501D01*
X113546772Y-73261132D01*
X113546766Y-73261134D01*
X113480451Y-73305445D01*
X113480445Y-73305451D01*
X113436134Y-73371766D01*
X113436132Y-73371772D01*
X113424501Y-73430241D01*
X113424500Y-73430253D01*
X113424500Y-74318835D01*
X113405593Y-74377026D01*
X113395503Y-74388839D01*
X113115608Y-74668733D01*
X113061092Y-74696510D01*
X113000660Y-74686939D01*
X112957395Y-74643674D01*
X112947824Y-74583242D01*
X112950864Y-74570004D01*
X112970300Y-74505934D01*
X112970300Y-74505929D01*
X112970301Y-74505929D01*
X112990583Y-74300003D01*
X112990583Y-74299996D01*
X112970301Y-74094070D01*
X112970300Y-74094065D01*
X112941917Y-74000500D01*
X112910232Y-73896046D01*
X112812685Y-73713550D01*
X112801562Y-73699997D01*
X112681414Y-73553595D01*
X112681410Y-73553590D01*
X112631103Y-73512304D01*
X112521452Y-73422316D01*
X112338954Y-73324768D01*
X112140934Y-73264699D01*
X112140929Y-73264698D01*
X111935003Y-73244417D01*
X111935001Y-73244417D01*
X111935000Y-73244417D01*
X111922491Y-73245649D01*
X111862727Y-73232534D01*
X111842786Y-73217129D01*
X110929496Y-72303839D01*
X110901719Y-72249322D01*
X110900500Y-72233835D01*
X110900500Y-69892057D01*
X110919407Y-69833866D01*
X110968907Y-69797902D01*
X111030093Y-69797902D01*
X111076028Y-69829252D01*
X111121849Y-69885086D01*
X111188590Y-69966410D01*
X111188595Y-69966414D01*
X111348547Y-70097683D01*
X111348548Y-70097683D01*
X111348550Y-70097685D01*
X111531046Y-70195232D01*
X111668997Y-70237078D01*
X111729065Y-70255300D01*
X111729070Y-70255301D01*
X111934997Y-70275583D01*
X111935000Y-70275583D01*
X111935003Y-70275583D01*
X112140929Y-70255301D01*
X112140934Y-70255300D01*
X112338954Y-70195232D01*
X112521450Y-70097685D01*
X112681410Y-69966410D01*
X112812685Y-69806450D01*
X112910232Y-69623954D01*
X112970300Y-69425934D01*
X112970301Y-69425929D01*
X112990583Y-69220003D01*
X112990583Y-69219996D01*
X113419417Y-69219996D01*
X113419417Y-69220003D01*
X113439698Y-69425929D01*
X113439699Y-69425934D01*
X113499768Y-69623954D01*
X113597316Y-69806452D01*
X113667570Y-69892057D01*
X113728590Y-69966410D01*
X113728595Y-69966414D01*
X113888547Y-70097683D01*
X113888548Y-70097683D01*
X113888550Y-70097685D01*
X114071046Y-70195232D01*
X114208997Y-70237078D01*
X114269065Y-70255300D01*
X114269070Y-70255301D01*
X114474997Y-70275583D01*
X114475000Y-70275583D01*
X114475003Y-70275583D01*
X114680929Y-70255301D01*
X114680934Y-70255300D01*
X114878954Y-70195232D01*
X115061450Y-70097685D01*
X115221410Y-69966410D01*
X115352685Y-69806450D01*
X115450232Y-69623954D01*
X115510300Y-69425934D01*
X115510301Y-69425929D01*
X115530583Y-69220003D01*
X115530583Y-69219996D01*
X115510301Y-69014070D01*
X115510300Y-69014065D01*
X115491864Y-68953289D01*
X115450232Y-68816046D01*
X115352685Y-68633550D01*
X115333971Y-68610747D01*
X115221414Y-68473595D01*
X115221410Y-68473590D01*
X115131740Y-68400000D01*
X115061452Y-68342316D01*
X114878954Y-68244768D01*
X114680934Y-68184699D01*
X114680929Y-68184698D01*
X114475003Y-68164417D01*
X114474997Y-68164417D01*
X114269070Y-68184698D01*
X114269065Y-68184699D01*
X114071045Y-68244768D01*
X113888547Y-68342316D01*
X113728595Y-68473585D01*
X113728585Y-68473595D01*
X113597316Y-68633547D01*
X113499768Y-68816045D01*
X113439699Y-69014065D01*
X113439698Y-69014070D01*
X113419417Y-69219996D01*
X112990583Y-69219996D01*
X112970301Y-69014070D01*
X112970300Y-69014065D01*
X112951864Y-68953289D01*
X112910232Y-68816046D01*
X112812685Y-68633550D01*
X112793971Y-68610747D01*
X112681414Y-68473595D01*
X112681410Y-68473590D01*
X112591740Y-68400000D01*
X112521452Y-68342316D01*
X112338954Y-68244768D01*
X112140934Y-68184699D01*
X112140929Y-68184698D01*
X111935003Y-68164417D01*
X111934997Y-68164417D01*
X111729070Y-68184698D01*
X111729065Y-68184699D01*
X111531045Y-68244768D01*
X111348547Y-68342316D01*
X111188595Y-68473585D01*
X111188585Y-68473595D01*
X111076028Y-68610747D01*
X111024497Y-68643734D01*
X110963417Y-68640132D01*
X110916120Y-68601317D01*
X110900500Y-68547942D01*
X110900500Y-67352057D01*
X110919407Y-67293866D01*
X110968907Y-67257902D01*
X111030093Y-67257902D01*
X111076028Y-67289252D01*
X111188590Y-67426410D01*
X111188595Y-67426414D01*
X111348547Y-67557683D01*
X111348548Y-67557683D01*
X111348550Y-67557685D01*
X111531046Y-67655232D01*
X111668997Y-67697078D01*
X111729065Y-67715300D01*
X111729070Y-67715301D01*
X111934997Y-67735583D01*
X111935000Y-67735583D01*
X111935003Y-67735583D01*
X112140929Y-67715301D01*
X112140934Y-67715300D01*
X112338954Y-67655232D01*
X112521450Y-67557685D01*
X112681410Y-67426410D01*
X112812685Y-67266450D01*
X112910232Y-67083954D01*
X112970300Y-66885934D01*
X112970301Y-66885929D01*
X112990583Y-66680003D01*
X112990583Y-66679996D01*
X112970301Y-66474070D01*
X112970300Y-66474065D01*
X112914512Y-66290157D01*
X112910232Y-66276046D01*
X112812685Y-66093550D01*
X112681410Y-65933590D01*
X112611269Y-65876027D01*
X112578283Y-65824497D01*
X112581885Y-65763418D01*
X112620700Y-65716121D01*
X112674075Y-65700500D01*
X113735925Y-65700500D01*
X113794116Y-65719407D01*
G37*
G04 #@! TD.AperFunction*
G04 #@! TA.AperFunction,Conductor*
G36*
X145965677Y-92169685D02*
G01*
X145986319Y-92186319D01*
X146213681Y-92413681D01*
X146247166Y-92475004D01*
X146250000Y-92501362D01*
X146250000Y-92898638D01*
X146230315Y-92965677D01*
X146213681Y-92986319D01*
X145686319Y-93513681D01*
X145624996Y-93547166D01*
X145598638Y-93550000D01*
X145101362Y-93550000D01*
X145034323Y-93530315D01*
X145013681Y-93513681D01*
X144486319Y-92986319D01*
X144452834Y-92924996D01*
X144450000Y-92898638D01*
X144450000Y-92501362D01*
X144469685Y-92434323D01*
X144486319Y-92413681D01*
X144713681Y-92186319D01*
X144775004Y-92152834D01*
X144801362Y-92150000D01*
X145898638Y-92150000D01*
X145965677Y-92169685D01*
G37*
G04 #@! TD.AperFunction*
G04 #@! TA.AperFunction,Conductor*
G36*
X127215677Y-94619685D02*
G01*
X127236319Y-94636319D01*
X127763681Y-95163681D01*
X127797166Y-95225004D01*
X127800000Y-95251362D01*
X127800000Y-95576000D01*
X127780315Y-95643039D01*
X127727511Y-95688794D01*
X127676000Y-95700000D01*
X127400000Y-95700000D01*
X126151362Y-95700000D01*
X126084323Y-95680315D01*
X126063681Y-95663681D01*
X125736319Y-95336319D01*
X125702834Y-95274996D01*
X125700000Y-95248638D01*
X125700000Y-94951362D01*
X125719685Y-94884323D01*
X125736319Y-94863681D01*
X125963681Y-94636319D01*
X126025004Y-94602834D01*
X126051362Y-94600000D01*
X127148638Y-94600000D01*
X127215677Y-94619685D01*
G37*
G04 #@! TD.AperFunction*
G04 #@! TA.AperFunction,Conductor*
G36*
X148990131Y-112419685D02*
G01*
X148996438Y-112424119D01*
X148997155Y-112424533D01*
X148997159Y-112424536D01*
X149143238Y-112485044D01*
X149149645Y-112485887D01*
X149213540Y-112514149D01*
X149221145Y-112521145D01*
X149263681Y-112563681D01*
X149297166Y-112625004D01*
X149300000Y-112651362D01*
X149300000Y-114048638D01*
X149280315Y-114115677D01*
X149263681Y-114136319D01*
X149136319Y-114263681D01*
X149074996Y-114297166D01*
X149048638Y-114300000D01*
X147951285Y-114300000D01*
X147935101Y-114298939D01*
X147900000Y-114294318D01*
X147864898Y-114298939D01*
X147848715Y-114300000D01*
X147651362Y-114300000D01*
X147584323Y-114280315D01*
X147563681Y-114263681D01*
X147186319Y-113886319D01*
X147152834Y-113824996D01*
X147150000Y-113798638D01*
X147150000Y-113001362D01*
X147169685Y-112934323D01*
X147186319Y-112913681D01*
X147663681Y-112436319D01*
X147725004Y-112402834D01*
X147751362Y-112400000D01*
X148923092Y-112400000D01*
X148990131Y-112419685D01*
G37*
G04 #@! TD.AperFunction*
G04 #@! TA.AperFunction,Conductor*
G36*
X119615677Y-67119685D02*
G01*
X119636319Y-67136319D01*
X119963681Y-67463681D01*
X119997166Y-67525004D01*
X120000000Y-67551362D01*
X120000000Y-68048638D01*
X119980315Y-68115677D01*
X119963681Y-68136319D01*
X119236319Y-68863681D01*
X119174996Y-68897166D01*
X119148638Y-68900000D01*
X118451362Y-68900000D01*
X118384323Y-68880315D01*
X118363681Y-68863681D01*
X118136319Y-68636319D01*
X118102834Y-68574996D01*
X118100000Y-68548638D01*
X118100000Y-67551362D01*
X118119685Y-67484323D01*
X118136319Y-67463681D01*
X118463681Y-67136319D01*
X118525004Y-67102834D01*
X118551362Y-67100000D01*
X119548638Y-67100000D01*
X119615677Y-67119685D01*
G37*
G04 #@! TD.AperFunction*
G04 #@! TA.AperFunction,Conductor*
G36*
X118415677Y-95419685D02*
G01*
X118436319Y-95436319D01*
X118663681Y-95663681D01*
X118697166Y-95725004D01*
X118700000Y-95751362D01*
X118700000Y-96748638D01*
X118680315Y-96815677D01*
X118663681Y-96836319D01*
X118436319Y-97063681D01*
X118374996Y-97097166D01*
X118348638Y-97100000D01*
X117551362Y-97100000D01*
X117484323Y-97080315D01*
X117463681Y-97063681D01*
X117136319Y-96736319D01*
X117102834Y-96674996D01*
X117100000Y-96648638D01*
X117100000Y-95751362D01*
X117119685Y-95684323D01*
X117136319Y-95663681D01*
X117363681Y-95436319D01*
X117425004Y-95402834D01*
X117451362Y-95400000D01*
X118348638Y-95400000D01*
X118415677Y-95419685D01*
G37*
G04 #@! TD.AperFunction*
G04 #@! TA.AperFunction,Conductor*
G36*
X146715677Y-102719685D02*
G01*
X146736319Y-102736319D01*
X146863681Y-102863681D01*
X146897166Y-102925004D01*
X146900000Y-102951362D01*
X146900000Y-104348638D01*
X146880315Y-104415677D01*
X146863681Y-104436319D01*
X146736319Y-104563681D01*
X146674996Y-104597166D01*
X146648638Y-104600000D01*
X145400000Y-104600000D01*
X145251362Y-104600000D01*
X145184323Y-104580315D01*
X145163681Y-104563681D01*
X145036319Y-104436319D01*
X145002834Y-104374996D01*
X145000000Y-104348638D01*
X145000000Y-102951362D01*
X145019685Y-102884323D01*
X145036319Y-102863681D01*
X145163681Y-102736319D01*
X145225004Y-102702834D01*
X145251362Y-102700000D01*
X146648638Y-102700000D01*
X146715677Y-102719685D01*
G37*
G04 #@! TD.AperFunction*
G04 #@! TA.AperFunction,Conductor*
G36*
X142015677Y-93619685D02*
G01*
X142036319Y-93636319D01*
X142263681Y-93863681D01*
X142297166Y-93925004D01*
X142300000Y-93951362D01*
X142300000Y-95148638D01*
X142280315Y-95215677D01*
X142263681Y-95236319D01*
X142036319Y-95463681D01*
X141974996Y-95497166D01*
X141948638Y-95500000D01*
X140751362Y-95500000D01*
X140684323Y-95480315D01*
X140663681Y-95463681D01*
X140436319Y-95236319D01*
X140402834Y-95174996D01*
X140400000Y-95148638D01*
X140400000Y-93951362D01*
X140419685Y-93884323D01*
X140436319Y-93863681D01*
X140663681Y-93636319D01*
X140725004Y-93602834D01*
X140751362Y-93600000D01*
X141948638Y-93600000D01*
X142015677Y-93619685D01*
G37*
G04 #@! TD.AperFunction*
G04 #@! TA.AperFunction,Conductor*
G36*
X145815677Y-106819685D02*
G01*
X145836319Y-106836319D01*
X145963681Y-106963681D01*
X145997166Y-107025004D01*
X146000000Y-107051362D01*
X146000000Y-108448638D01*
X145980315Y-108515677D01*
X145963681Y-108536319D01*
X145836319Y-108663681D01*
X145774996Y-108697166D01*
X145748638Y-108700000D01*
X144351362Y-108700000D01*
X144284323Y-108680315D01*
X144263681Y-108663681D01*
X144136319Y-108536319D01*
X144102834Y-108474996D01*
X144100000Y-108448638D01*
X144100000Y-107151362D01*
X144119685Y-107084323D01*
X144136319Y-107063681D01*
X144363681Y-106836319D01*
X144425004Y-106802834D01*
X144451362Y-106800000D01*
X145748638Y-106800000D01*
X145815677Y-106819685D01*
G37*
G04 #@! TD.AperFunction*
M02*
