G04 #@! TF.GenerationSoftware,KiCad,Pcbnew,8.0.2-8.0.2-0~ubuntu23.10.1*
G04 #@! TF.CreationDate,2024-05-02T10:42:59+07:00*
G04 #@! TF.ProjectId,Node_RS232,4e6f6465-5f52-4533-9233-322e6b696361,rev?*
G04 #@! TF.SameCoordinates,Original*
G04 #@! TF.FileFunction,Soldermask,Top*
G04 #@! TF.FilePolarity,Negative*
%FSLAX46Y46*%
G04 Gerber Fmt 4.6, Leading zero omitted, Abs format (unit mm)*
G04 Created by KiCad (PCBNEW 8.0.2-8.0.2-0~ubuntu23.10.1) date 2024-05-02 10:42:59*
%MOMM*%
%LPD*%
G01*
G04 APERTURE LIST*
G04 Aperture macros list*
%AMRoundRect*
0 Rectangle with rounded corners*
0 $1 Rounding radius*
0 $2 $3 $4 $5 $6 $7 $8 $9 X,Y pos of 4 corners*
0 Add a 4 corners polygon primitive as box body*
4,1,4,$2,$3,$4,$5,$6,$7,$8,$9,$2,$3,0*
0 Add four circle primitives for the rounded corners*
1,1,$1+$1,$2,$3*
1,1,$1+$1,$4,$5*
1,1,$1+$1,$6,$7*
1,1,$1+$1,$8,$9*
0 Add four rect primitives between the rounded corners*
20,1,$1+$1,$2,$3,$4,$5,0*
20,1,$1+$1,$4,$5,$6,$7,0*
20,1,$1+$1,$6,$7,$8,$9,0*
20,1,$1+$1,$8,$9,$2,$3,0*%
%AMFreePoly0*
4,1,21,-0.125000,1.200000,0.125000,1.200000,0.125000,1.700000,0.375000,1.700000,0.375000,1.200000,0.825000,1.200000,0.825000,-1.200000,0.375000,-1.200000,0.375000,-1.700000,0.125000,-1.700000,0.125000,-1.200000,-0.125000,-1.200000,-0.125000,-1.700000,-0.375000,-1.700000,-0.375000,-1.200000,-0.825000,-1.200000,-0.825000,1.200000,-0.375000,1.200000,-0.375000,1.700000,-0.125000,1.700000,
-0.125000,1.200000,-0.125000,1.200000,$1*%
%AMFreePoly1*
4,1,18,-0.700000,0.540000,-0.695433,0.562961,-0.682426,0.582426,-0.662961,0.595433,-0.640000,0.600000,0.640000,0.600000,0.662961,0.595433,0.682426,0.582426,0.695433,0.562961,0.700000,0.540000,0.700000,-0.540000,0.695433,-0.562961,0.682426,-0.582426,0.662961,-0.595433,0.640000,-0.600000,-0.400000,-0.600000,-0.700000,-0.300000,-0.700000,0.540000,-0.700000,0.540000,$1*%
G04 Aperture macros list end*
%ADD10RoundRect,0.085000X0.365000X-0.340000X0.365000X0.340000X-0.365000X0.340000X-0.365000X-0.340000X0*%
%ADD11RoundRect,0.085000X0.340000X0.365000X-0.340000X0.365000X-0.340000X-0.365000X0.340000X-0.365000X0*%
%ADD12R,2.350000X5.100000*%
%ADD13RoundRect,0.102000X-0.350000X0.900000X-0.350000X-0.900000X0.350000X-0.900000X0.350000X0.900000X0*%
%ADD14RoundRect,0.102000X-0.900000X-0.350000X0.900000X-0.350000X0.900000X0.350000X-0.900000X0.350000X0*%
%ADD15RoundRect,0.250000X-0.550000X1.500000X-0.550000X-1.500000X0.550000X-1.500000X0.550000X1.500000X0*%
%ADD16RoundRect,0.085000X-0.340000X-0.365000X0.340000X-0.365000X0.340000X0.365000X-0.340000X0.365000X0*%
%ADD17RoundRect,0.060000X-0.915000X-0.240000X0.915000X-0.240000X0.915000X0.240000X-0.915000X0.240000X0*%
%ADD18RoundRect,0.085000X-0.365000X0.340000X-0.365000X-0.340000X0.365000X-0.340000X0.365000X0.340000X0*%
%ADD19RoundRect,0.100000X0.637500X0.100000X-0.637500X0.100000X-0.637500X-0.100000X0.637500X-0.100000X0*%
%ADD20C,0.650000*%
%ADD21R,1.300000X0.600000*%
%ADD22R,1.300000X0.300000*%
%ADD23O,2.100000X1.000000*%
%ADD24O,1.600000X1.000000*%
%ADD25RoundRect,0.090000X0.360000X0.210000X-0.360000X0.210000X-0.360000X-0.210000X0.360000X-0.210000X0*%
%ADD26C,2.000000*%
%ADD27C,2.500000*%
%ADD28RoundRect,0.425000X-0.425000X0.550000X-0.425000X-0.550000X0.425000X-0.550000X0.425000X0.550000X0*%
%ADD29O,1.700000X1.950000*%
%ADD30C,1.500000*%
%ADD31RoundRect,0.250000X1.550000X-0.650000X1.550000X0.650000X-1.550000X0.650000X-1.550000X-0.650000X0*%
%ADD32O,3.600000X1.800000*%
%ADD33RoundRect,0.090000X-0.560000X-0.210000X0.560000X-0.210000X0.560000X0.210000X-0.560000X0.210000X0*%
%ADD34R,5.100000X2.350000*%
%ADD35RoundRect,0.060000X-0.240000X-0.060000X0.240000X-0.060000X0.240000X0.060000X-0.240000X0.060000X0*%
%ADD36FreePoly0,0.000000*%
%ADD37RoundRect,0.090000X0.210000X-0.360000X0.210000X0.360000X-0.210000X0.360000X-0.210000X-0.360000X0*%
%ADD38FreePoly1,90.000000*%
%ADD39RoundRect,0.060000X0.540000X-0.640000X0.540000X0.640000X-0.540000X0.640000X-0.540000X-0.640000X0*%
%ADD40RoundRect,0.290000X1.160000X2.410000X-1.160000X2.410000X-1.160000X-2.410000X1.160000X-2.410000X0*%
%ADD41RoundRect,0.250000X0.850000X0.350000X-0.850000X0.350000X-0.850000X-0.350000X0.850000X-0.350000X0*%
%ADD42RoundRect,0.249997X2.950003X2.650003X-2.950003X2.650003X-2.950003X-2.650003X2.950003X-2.650003X0*%
%ADD43RoundRect,0.090000X-0.360000X-0.210000X0.360000X-0.210000X0.360000X0.210000X-0.360000X0.210000X0*%
%ADD44RoundRect,0.090000X0.560000X0.210000X-0.560000X0.210000X-0.560000X-0.210000X0.560000X-0.210000X0*%
%ADD45RoundRect,0.062500X0.062500X-0.375000X0.062500X0.375000X-0.062500X0.375000X-0.062500X-0.375000X0*%
%ADD46RoundRect,0.062500X0.375000X-0.062500X0.375000X0.062500X-0.375000X0.062500X-0.375000X-0.062500X0*%
%ADD47R,3.450000X3.450000*%
%ADD48RoundRect,0.062500X-0.375000X-0.062500X0.375000X-0.062500X0.375000X0.062500X-0.375000X0.062500X0*%
%ADD49RoundRect,0.062500X-0.062500X-0.375000X0.062500X-0.375000X0.062500X0.375000X-0.062500X0.375000X0*%
%ADD50R,1.600000X1.600000*%
%ADD51RoundRect,0.150000X-0.600000X0.600000X-0.600000X-0.600000X0.600000X-0.600000X0.600000X0.600000X0*%
%ADD52RoundRect,0.090000X-0.210000X0.885000X-0.210000X-0.885000X0.210000X-0.885000X0.210000X0.885000X0*%
%ADD53RoundRect,0.250000X0.400000X0.600000X-0.400000X0.600000X-0.400000X-0.600000X0.400000X-0.600000X0*%
%ADD54RoundRect,0.090000X0.210000X-0.560000X0.210000X0.560000X-0.210000X0.560000X-0.210000X-0.560000X0*%
%ADD55RoundRect,0.180000X1.020000X0.720000X-1.020000X0.720000X-1.020000X-0.720000X1.020000X-0.720000X0*%
%ADD56R,1.700000X1.700000*%
%ADD57O,1.700000X1.700000*%
%ADD58RoundRect,0.250000X-1.950000X-1.000000X1.950000X-1.000000X1.950000X1.000000X-1.950000X1.000000X0*%
G04 APERTURE END LIST*
D10*
X116300000Y-90500000D03*
X116300000Y-88950000D03*
D11*
X148575000Y-81400000D03*
X147025000Y-81400000D03*
D12*
X145125000Y-89000000D03*
X149275000Y-89000000D03*
D11*
X136075000Y-101900000D03*
X134525000Y-101900000D03*
D13*
X120700000Y-85625000D03*
X121700000Y-85625000D03*
X122700000Y-85625000D03*
X123700000Y-85625000D03*
X124700000Y-85625000D03*
X125700000Y-85625000D03*
X126700000Y-85625000D03*
X127700000Y-85625000D03*
X128700000Y-85625000D03*
X129700000Y-85625000D03*
X130700000Y-85625000D03*
X131700000Y-85625000D03*
D14*
X133835000Y-77670000D03*
X133835000Y-76670000D03*
X133835000Y-75670000D03*
X133835000Y-74670000D03*
D13*
X131700000Y-70825000D03*
X130700000Y-70825000D03*
X129700000Y-70825000D03*
X124700000Y-70825000D03*
X123700000Y-70825000D03*
X122700000Y-70825000D03*
X121700000Y-70825000D03*
X120700000Y-70825000D03*
D14*
X119035000Y-74670000D03*
X119035000Y-75670000D03*
X119035000Y-76670000D03*
X119035000Y-77670000D03*
X119035000Y-78670000D03*
X119035000Y-79670000D03*
X119035000Y-80670000D03*
X119035000Y-81670000D03*
D10*
X111000000Y-91175000D03*
X111000000Y-89625000D03*
D15*
X152300000Y-109200000D03*
X152300000Y-114600000D03*
D16*
X136325000Y-90000000D03*
X137875000Y-90000000D03*
D11*
X137875000Y-84200000D03*
X136325000Y-84200000D03*
D17*
X167625000Y-80555000D03*
X167625000Y-81825000D03*
X167625000Y-83095000D03*
X167625000Y-84365000D03*
X167625000Y-85635000D03*
X167625000Y-86905000D03*
X167625000Y-88175000D03*
X167625000Y-89445000D03*
X172575000Y-89445000D03*
X172575000Y-88175000D03*
X172575000Y-86905000D03*
X172575000Y-85635000D03*
X172575000Y-84365000D03*
X172575000Y-83095000D03*
X172575000Y-81825000D03*
X172575000Y-80555000D03*
D18*
X129800000Y-98225000D03*
X129800000Y-99775000D03*
D16*
X136325000Y-82800000D03*
X137875000Y-82800000D03*
D10*
X127760000Y-67075000D03*
X127760000Y-65525000D03*
D16*
X109225000Y-100200000D03*
X110775000Y-100200000D03*
D19*
X138162500Y-109475000D03*
X138162500Y-108825000D03*
X138162500Y-108175000D03*
X138162500Y-107525000D03*
X132437500Y-107525000D03*
X132437500Y-108175000D03*
X132437500Y-108825000D03*
X132437500Y-109475000D03*
D20*
X105000000Y-99510000D03*
X105000000Y-105290000D03*
D21*
X106525000Y-99150000D03*
X106525000Y-99950000D03*
D22*
X106525000Y-101150000D03*
X106525000Y-102150000D03*
X106525000Y-102650000D03*
X106525000Y-103650000D03*
D21*
X106525000Y-104850000D03*
X106525000Y-105650000D03*
X106525000Y-105650000D03*
X106525000Y-104850000D03*
D22*
X106525000Y-104150000D03*
X106525000Y-103150000D03*
X106525000Y-101650000D03*
X106525000Y-100650000D03*
D21*
X106525000Y-99950000D03*
X106525000Y-99150000D03*
D23*
X105530000Y-98080000D03*
D24*
X101350000Y-98080000D03*
D23*
X105530000Y-106720000D03*
D24*
X101350000Y-106720000D03*
D10*
X140600000Y-111975000D03*
X140600000Y-110425000D03*
D16*
X109225000Y-104600000D03*
X110775000Y-104600000D03*
D25*
X126347500Y-67250000D03*
X126347500Y-65350000D03*
X124072500Y-66300000D03*
D11*
X123475000Y-105500000D03*
X121925000Y-105500000D03*
D26*
X105900000Y-79150000D03*
X105900000Y-83650000D03*
D27*
X108400000Y-77900000D03*
X108400000Y-84900000D03*
D16*
X120385000Y-67200000D03*
X121935000Y-67200000D03*
D10*
X111000000Y-80675000D03*
X111000000Y-79125000D03*
X116300000Y-83675000D03*
X116300000Y-82125000D03*
X123400000Y-108375000D03*
X123400000Y-106825000D03*
D18*
X160400000Y-89425000D03*
X160400000Y-90975000D03*
D28*
X136575000Y-113950000D03*
D29*
X134035000Y-113950000D03*
D16*
X120385000Y-68600000D03*
X121935000Y-68600000D03*
D30*
X178400000Y-76640000D03*
X178400000Y-74100000D03*
X175860000Y-76640000D03*
X175860000Y-74100000D03*
D28*
X132580000Y-90600000D03*
D29*
X130040000Y-90600000D03*
X127500000Y-90600000D03*
X124960000Y-90600000D03*
X122420000Y-90600000D03*
X119880000Y-90600000D03*
D18*
X150000000Y-98425000D03*
X150000000Y-99975000D03*
D11*
X142075000Y-109100000D03*
X140525000Y-109100000D03*
D16*
X128325000Y-96600000D03*
X129875000Y-96600000D03*
D31*
X178600000Y-93230000D03*
D32*
X178600000Y-89420000D03*
X178600000Y-85610000D03*
X178600000Y-81800000D03*
D11*
X128535000Y-68600000D03*
X126985000Y-68600000D03*
X147075000Y-96300000D03*
X145525000Y-96300000D03*
D26*
X105900000Y-89650000D03*
X105900000Y-94150000D03*
D27*
X108400000Y-88400000D03*
X108400000Y-95400000D03*
D18*
X129800000Y-102225000D03*
X129800000Y-103775000D03*
D10*
X146900000Y-114875000D03*
X146900000Y-113325000D03*
D33*
X108862500Y-101450000D03*
X108862500Y-102400000D03*
X108862500Y-103350000D03*
X111137500Y-103350000D03*
X111137500Y-102400000D03*
X111137500Y-101450000D03*
D34*
X141200000Y-97125000D03*
X141200000Y-101275000D03*
D35*
X145510000Y-98210000D03*
X145510000Y-98710000D03*
X145510000Y-99210000D03*
X145510000Y-99710000D03*
X145510000Y-100210000D03*
X148310000Y-100210000D03*
X148310000Y-99710000D03*
X148310000Y-99210000D03*
X148310000Y-98710000D03*
X148310000Y-98210000D03*
D36*
X146910000Y-99210000D03*
D18*
X117000000Y-94825000D03*
X117000000Y-96375000D03*
D11*
X137875000Y-91400000D03*
X136325000Y-91400000D03*
D37*
X136150000Y-88587500D03*
X138050000Y-88587500D03*
X137100000Y-86312500D03*
D10*
X137500000Y-105975000D03*
X137500000Y-104425000D03*
D38*
X118250000Y-103000000D03*
D39*
X118250000Y-100800000D03*
X116550000Y-100800000D03*
X116550000Y-103000000D03*
D40*
X162650000Y-99200000D03*
X152750000Y-99200000D03*
D41*
X174500000Y-106200000D03*
D42*
X168200000Y-103920000D03*
D41*
X174500000Y-101640000D03*
D16*
X143425000Y-109100000D03*
X144975000Y-109100000D03*
X124085000Y-68600000D03*
X125635000Y-68600000D03*
D11*
X173575000Y-74700000D03*
X172025000Y-74700000D03*
D18*
X165500000Y-83825000D03*
X165500000Y-85375000D03*
D11*
X172775000Y-97100000D03*
X171225000Y-97100000D03*
D10*
X146900000Y-111975000D03*
X146900000Y-110425000D03*
D43*
X121812500Y-94150000D03*
X121812500Y-96050000D03*
X124087500Y-95100000D03*
D10*
X120400000Y-96175000D03*
X120400000Y-94625000D03*
D44*
X148337500Y-84550000D03*
X148337500Y-83600000D03*
X148337500Y-82650000D03*
X146062500Y-82650000D03*
X146062500Y-83600000D03*
X146062500Y-84550000D03*
D45*
X123700000Y-103500000D03*
X124200000Y-103500000D03*
X124700000Y-103500000D03*
X125200000Y-103500000D03*
X125700000Y-103500000D03*
X126200000Y-103500000D03*
X126700000Y-103500000D03*
X127200000Y-103500000D03*
D46*
X127887500Y-102812500D03*
X127887500Y-102312500D03*
X127887500Y-101812500D03*
X127887500Y-101312500D03*
X127887500Y-100812500D03*
X127887500Y-100312500D03*
X127887500Y-99812500D03*
X127887500Y-99312500D03*
D45*
X127200000Y-98625000D03*
X126700000Y-98625000D03*
X126200000Y-98625000D03*
X125700000Y-98625000D03*
X125200000Y-98625000D03*
X124700000Y-98625000D03*
X124200000Y-98625000D03*
X123700000Y-98625000D03*
D46*
X123012500Y-99312500D03*
X123012500Y-99812500D03*
X123012500Y-100312500D03*
X123012500Y-100812500D03*
X123012500Y-101312500D03*
X123012500Y-101812500D03*
X123012500Y-102312500D03*
X123012500Y-102812500D03*
D47*
X125450000Y-101062500D03*
D16*
X148525000Y-102100000D03*
X150075000Y-102100000D03*
X124825000Y-105500000D03*
X126375000Y-105500000D03*
D10*
X119900000Y-104175000D03*
X119900000Y-102625000D03*
X140600000Y-114875000D03*
X140600000Y-113325000D03*
D11*
X147075000Y-102100000D03*
X145525000Y-102100000D03*
D10*
X119000000Y-96175000D03*
X119000000Y-94625000D03*
X148600000Y-96375000D03*
X148600000Y-94825000D03*
D48*
X142262500Y-112241421D03*
X142262500Y-112741421D03*
X142262500Y-113241421D03*
X142262500Y-113741421D03*
D49*
X142950000Y-114428921D03*
X143450000Y-114428921D03*
X143950000Y-114428921D03*
X144450000Y-114428921D03*
D48*
X145137500Y-113741421D03*
X145137500Y-113241421D03*
X145137500Y-112741421D03*
X145137500Y-112241421D03*
D49*
X144450000Y-111553921D03*
X143950000Y-111553921D03*
X143450000Y-111553921D03*
X142950000Y-111553921D03*
D50*
X143700000Y-112991421D03*
D18*
X165500000Y-86825000D03*
X165500000Y-88375000D03*
D51*
X113700000Y-88000000D03*
X113700000Y-95800000D03*
D37*
X140950000Y-88587500D03*
X142850000Y-88587500D03*
X141900000Y-86312500D03*
D18*
X121300000Y-102625000D03*
X121300000Y-104175000D03*
D11*
X145675000Y-81400000D03*
X144125000Y-81400000D03*
D52*
X161105000Y-110525000D03*
X159835000Y-110525000D03*
X158565000Y-110525000D03*
X157295000Y-110525000D03*
X157295000Y-115475000D03*
X158565000Y-115475000D03*
X159835000Y-115475000D03*
X161105000Y-115475000D03*
D10*
X174700000Y-81975000D03*
X174700000Y-80425000D03*
D16*
X168025000Y-79100000D03*
X169575000Y-79100000D03*
D10*
X116300000Y-93500000D03*
X116300000Y-91950000D03*
D53*
X174700000Y-99100000D03*
X171200000Y-99100000D03*
D31*
X178600000Y-104200000D03*
D32*
X178600000Y-100390000D03*
D11*
X142675000Y-90000000D03*
X141125000Y-90000000D03*
D18*
X159000000Y-89425000D03*
X159000000Y-90975000D03*
D10*
X144300000Y-84975000D03*
X144300000Y-83425000D03*
D54*
X134350000Y-105737500D03*
X135300000Y-105737500D03*
X136250000Y-105737500D03*
X136250000Y-103462500D03*
X135300000Y-103462500D03*
X134350000Y-103462500D03*
D18*
X139500000Y-86625000D03*
X139500000Y-88175000D03*
D10*
X116300000Y-80675000D03*
X116300000Y-79125000D03*
D18*
X119900000Y-99625000D03*
X119900000Y-101175000D03*
D10*
X133100000Y-104775000D03*
X133100000Y-103225000D03*
D18*
X150000000Y-94825000D03*
X150000000Y-96375000D03*
D10*
X111000000Y-83675000D03*
X111000000Y-82125000D03*
X111000000Y-94175000D03*
X111000000Y-92625000D03*
D11*
X126975000Y-96600000D03*
X125425000Y-96600000D03*
X123475000Y-109700000D03*
X121925000Y-109700000D03*
X137875000Y-81400000D03*
X136325000Y-81400000D03*
D10*
X165500000Y-82375000D03*
X165500000Y-80825000D03*
D55*
X161150000Y-107500000D03*
X157100000Y-107500000D03*
D51*
X113700000Y-77500000D03*
X113700000Y-85300000D03*
D10*
X109000000Y-74275000D03*
X109000000Y-72725000D03*
D56*
X114475000Y-74300000D03*
D57*
X111935000Y-74300000D03*
X114475000Y-71760000D03*
X111935000Y-71760000D03*
X114475000Y-69220000D03*
X111935000Y-69220000D03*
X114475000Y-66680000D03*
X111935000Y-66680000D03*
D11*
X173575000Y-76100000D03*
X172025000Y-76100000D03*
D58*
X164400000Y-112200000D03*
X171800000Y-112200000D03*
D55*
X156550000Y-90200000D03*
X152500000Y-90200000D03*
D11*
X147075000Y-94900000D03*
X145525000Y-94900000D03*
M02*
