M48
; DRILL file {KiCad 8.0.2-8.0.2-0~ubuntu23.10.1} date 2024-05-23T15:30:10+0700
; FORMAT={-:-/ absolute / metric / decimal}
; #@! TF.CreationDate,2024-05-23T15:30:10+07:00
; #@! TF.GenerationSoftware,Kicad,Pcbnew,8.0.2-8.0.2-0~ubuntu23.10.1
; #@! TF.FileFunction,Plated,1,2,PTH
FMAT,2
METRIC
; #@! TA.AperFunction,Plated,PTH,ViaDrill
T1C0.300
; #@! TA.AperFunction,Plated,PTH,ComponentDrill
T2C0.300
; #@! TA.AperFunction,Plated,PTH,ViaDrill
T3C0.400
; #@! TA.AperFunction,Plated,PTH,ComponentDrill
T4C0.400
; #@! TA.AperFunction,Plated,PTH,ComponentDrill
T5C0.600
; #@! TA.AperFunction,Plated,PTH,ComponentDrill
T6C0.800
; #@! TA.AperFunction,Plated,PTH,ComponentDrill
T7C1.000
; #@! TA.AperFunction,Plated,PTH,ComponentDrill
T8C1.100
; #@! TA.AperFunction,Plated,PTH,ComponentDrill
T9C1.200
; #@! TA.AperFunction,Plated,PTH,ComponentDrill
T10C1.400
%
G90
G05
T1
X107.6Y-99.9
X109.8Y-102.4
X110.2Y-100.7
X110.2Y-104.1
X111.0Y-84.4
X111.0Y-94.9
X112.1Y-102.4
X112.2Y-80.7
X112.2Y-91.2
X115.3Y-100.6
X115.3Y-101.9
X115.3Y-103.2
X115.7Y-92.9
X115.798Y-94.409
X115.8Y-99.4
X115.8Y-104.4
X116.3Y-84.4
X117.4Y-99.4
X117.4Y-104.4
X118.9Y-99.4
X118.9Y-104.4
X119.4Y-100.2
X119.4Y-103.6
X120.4Y-75.7
X120.5Y-103.6
X121.049Y-100.643
X121.662Y-100.128
X122.7Y-72.2
X122.7Y-87.2
X123.4Y-73.0
X125.7Y-81.0
X128.2Y-94.1
X128.2Y-104.276
X128.5Y-81.0
X128.8Y-99.7
X128.846Y-102.512
X128.851Y-103.312
X129.0Y-94.1
X129.7Y-84.3
X130.95Y-102.25
X134.5Y-88.7
X135.2Y-77.7
X138.9Y-83.0
X139.1Y-106.9
X142.275Y-114.366
X144.975Y-109.871
X145.2Y-114.2
X147.9Y-103.7
X149.475Y-100.179
X150.8Y-103.5
X172.0Y-73.7
T2
X125.6Y-111.0
X143.15Y-112.441
X143.15Y-113.541
X143.7Y-112.991
X144.25Y-112.441
X144.25Y-113.541
X146.335Y-99.21
X146.91Y-98.26
X146.91Y-100.16
X147.485Y-99.21
T3
X101.4Y-72.7
X101.4Y-74.7
X101.4Y-76.7
X101.4Y-78.7
X101.4Y-80.7
X101.4Y-82.7
X101.4Y-84.7
X101.4Y-86.7
X101.4Y-88.7
X101.4Y-90.7
X101.4Y-92.7
X101.4Y-94.7
X101.4Y-96.7
X101.4Y-100.7
X101.4Y-102.7
X101.4Y-104.7
X101.4Y-108.9
X103.3Y-106.8
X103.5Y-74.7
X105.9Y-86.6
X105.9Y-91.9
X105.9Y-96.5
X107.1Y-75.6
X107.1Y-80.8
X107.7Y-99.0
X107.7Y-105.7
X108.0Y-72.7
X108.2Y-97.6
X108.4Y-91.2
X109.0Y-71.8
X109.3Y-106.3
X109.3Y-108.2
X109.3Y-109.9
X109.8Y-79.2
X109.9Y-89.6
X110.6Y-75.6
X110.9Y-97.6
X111.3Y-106.3
X111.3Y-108.2
X111.3Y-109.9
X111.4Y-70.6
X111.7Y-99.4
X111.7Y-104.6
X112.5Y-92.3
X112.5Y-94.2
X112.6Y-72.9
X113.3Y-106.3
X113.3Y-108.2
X113.3Y-109.9
X113.7Y-89.3
X113.7Y-91.2
X113.7Y-97.6
X114.0Y-79.1
X114.6Y-81.0
X114.6Y-83.4
X114.6Y-93.7
X115.3Y-79.1
X115.3Y-86.4
X115.3Y-88.9
X115.3Y-106.3
X115.3Y-108.2
X115.3Y-109.9
X115.8Y-71.3
X116.1Y-66.4
X116.3Y-78.2
X117.3Y-66.4
X117.3Y-67.9
X117.3Y-106.3
X117.3Y-108.2
X117.3Y-109.9
X117.4Y-79.1
X117.4Y-81.0
X117.4Y-83.0
X117.5Y-77.7
X118.1Y-95.8
X118.1Y-96.7
X118.3Y-89.0
X118.3Y-92.3
X118.6Y-67.6
X119.0Y-85.6
X119.1Y-68.3
X119.1Y-69.9
X119.3Y-106.3
X119.3Y-108.2
X119.3Y-109.9
X119.6Y-67.6
X119.8Y-83.0
X119.9Y-98.8
X119.9Y-105.1
X121.0Y-105.1
X121.0Y-106.3
X121.0Y-109.7
X121.5Y-66.2
X121.8Y-69.5
X122.1Y-102.6
X122.3Y-106.9
X122.3Y-107.8
X122.3Y-108.7
X122.6Y-104.6
X122.7Y-94.9
X122.8Y-66.2
X122.9Y-98.5
X122.9Y-103.8
X123.2Y-96.6
X124.3Y-74.5
X124.3Y-77.9
X124.3Y-79.9
X124.3Y-81.9
X124.5Y-96.6
X124.5Y-106.9
X124.5Y-107.8
X124.5Y-108.7
X124.5Y-109.6
X124.6Y-93.9
X125.3Y-66.2
X125.4Y-97.6
X125.7Y-104.6
X126.0Y-108.7
X126.0Y-109.9
X126.2Y-95.1
X126.6Y-93.9
X126.8Y-66.2
X127.1Y-70.5
X127.1Y-72.5
X127.1Y-74.5
X127.1Y-77.9
X127.1Y-79.9
X127.1Y-81.9
X127.1Y-95.1
X127.4Y-105.201
X128.0Y-108.7
X128.0Y-109.9
X128.6Y-66.2
X128.9Y-92.5
X129.8Y-105.7
X130.0Y-78.3
X130.0Y-80.3
X130.0Y-108.7
X130.0Y-109.9
X130.3Y-73.5
X130.7Y-66.3
X130.7Y-69.3
X130.7Y-82.3
X130.7Y-84.1
X130.9Y-104.7
X131.7Y-69.3
X132.0Y-78.3
X132.0Y-80.3
X132.0Y-82.3
X132.1Y-107.3
X132.1Y-109.3
X132.1Y-112.7
X132.1Y-114.7
X132.1Y-116.1
X132.3Y-73.5
X132.5Y-88.7
X133.2Y-66.3
X133.3Y-69.6
X133.3Y-71.6
X133.9Y-111.8
X134.1Y-116.1
X134.3Y-73.5
X134.5Y-83.2
X134.5Y-85.2
X134.5Y-87.2
X134.5Y-91.2
X134.5Y-93.2
X134.5Y-95.2
X134.5Y-97.2
X134.5Y-99.2
X134.5Y-101.2
X134.5Y-103.2
X134.5Y-105.2
X134.5Y-107.3
X134.5Y-109.3
X135.3Y-69.6
X135.3Y-71.6
X135.7Y-66.3
X136.0Y-81.0
X136.1Y-116.1
X136.5Y-91.2
X136.5Y-93.2
X136.6Y-74.8
X136.6Y-76.1
X136.6Y-78.1
X136.9Y-82.5
X136.9Y-84.5
X136.9Y-86.5
X136.9Y-87.9
X136.9Y-95.2
X136.9Y-97.2
X136.9Y-99.2
X136.9Y-101.2
X136.9Y-103.2
X136.9Y-105.2
X137.2Y-71.6
X137.4Y-67.7
X138.1Y-116.1
X138.6Y-73.9
X138.6Y-76.1
X138.6Y-78.1
X138.9Y-93.9
X139.5Y-94.8
X139.6Y-110.6
X139.6Y-115.3
X139.7Y-103.5
X139.7Y-105.8
X140.0Y-76.1
X140.5Y-108.1
X140.6Y-115.8
X140.9Y-94.1
X140.9Y-95.0
X141.4Y-65.2
X141.6Y-110.6
X141.6Y-115.0
X141.7Y-103.5
X141.7Y-105.8
X141.7Y-107.5
X141.8Y-94.1
X141.8Y-95.0
X143.4Y-108.1
X143.4Y-115.4
X143.6Y-110.6
X143.7Y-65.2
X143.7Y-67.9
X143.7Y-70.7
X143.7Y-73.3
X144.6Y-107.3
X144.6Y-108.2
X144.6Y-115.4
X144.7Y-80.7
X144.85Y-92.7
X144.9Y-77.5
X145.2Y-85.5
X145.5Y-103.2
X145.5Y-104.1
X145.5Y-107.3
X145.5Y-108.2
X145.7Y-65.2
X145.7Y-67.9
X145.7Y-70.7
X145.85Y-92.7
X145.9Y-114.9
X146.4Y-103.2
X146.4Y-104.1
X146.9Y-97.3
X146.9Y-101.3
X146.9Y-115.9
X147.0Y-92.8
X147.4Y-74.9
X147.4Y-77.5
X147.7Y-65.2
X147.7Y-67.9
X147.7Y-70.7
X147.8Y-94.4
X147.8Y-95.5
X147.9Y-112.9
X147.9Y-113.8
X147.9Y-114.9
X148.0Y-101.0
X148.6Y-92.8
X148.7Y-116.0
X148.8Y-112.9
X148.8Y-113.8
X149.1Y-97.5
X149.3Y-110.4
X149.3Y-111.9
X149.4Y-74.9
X149.4Y-77.5
X149.5Y-83.6
X149.5Y-106.1
X149.7Y-65.2
X149.7Y-67.9
X149.7Y-70.7
X150.3Y-92.8
X151.0Y-113.2
X151.0Y-116.0
X151.4Y-74.9
X151.4Y-77.5
X151.6Y-85.4
X151.7Y-65.2
X151.7Y-67.9
X151.7Y-70.7
X152.5Y-83.4
X152.5Y-87.3
X153.4Y-74.9
X153.4Y-77.5
X153.6Y-85.4
X153.6Y-113.2
X153.6Y-116.0
X153.7Y-65.2
X153.7Y-67.9
X153.7Y-70.7
X154.4Y-110.7
X154.5Y-83.4
X154.5Y-87.3
X155.4Y-74.9
X155.4Y-77.5
X155.6Y-85.4
X155.6Y-106.3
X155.6Y-108.7
X155.7Y-65.2
X155.7Y-67.9
X155.7Y-70.7
X155.7Y-113.2
X155.7Y-116.1
X156.5Y-83.4
X156.5Y-87.3
X156.5Y-110.0
X156.5Y-111.3
X157.3Y-114.0
X157.6Y-85.4
X157.7Y-65.2
X157.7Y-67.9
X157.7Y-70.7
X158.0Y-78.5
X158.5Y-83.4
X158.5Y-87.3
X158.6Y-106.3
X158.6Y-108.7
X158.6Y-114.0
X159.0Y-88.5
X159.4Y-78.6
X159.6Y-85.4
X159.7Y-65.2
X159.7Y-67.9
X159.7Y-70.7
X159.9Y-114.0
X160.4Y-88.5
X160.5Y-83.4
X160.5Y-87.3
X161.0Y-76.7
X161.2Y-81.0
X161.7Y-65.2
X161.7Y-67.9
X161.7Y-70.7
X161.8Y-75.2
X161.8Y-78.4
X161.9Y-115.4
X162.8Y-83.3
X162.8Y-85.3
X162.8Y-87.3
X162.8Y-89.3
X163.1Y-116.1
X163.7Y-65.2
X163.7Y-67.9
X163.7Y-70.7
X164.6Y-80.6
X164.9Y-78.1
X165.1Y-116.1
X165.5Y-79.9
X165.6Y-96.9
X165.6Y-99.1
X165.7Y-65.2
X165.7Y-67.9
X165.7Y-70.7
X165.8Y-89.4
X166.6Y-91.9
X166.6Y-95.0
X166.8Y-79.5
X167.1Y-116.1
X167.5Y-74.6
X167.6Y-96.9
X167.6Y-99.1
X167.8Y-65.2
X167.8Y-67.9
X167.8Y-70.7
X168.6Y-91.9
X168.6Y-95.0
X169.1Y-74.6
X169.1Y-116.1
X169.6Y-96.9
X169.6Y-99.1
X169.8Y-65.2
X169.8Y-67.9
X169.8Y-70.7
X170.2Y-84.3
X170.6Y-91.9
X170.6Y-95.0
X170.7Y-74.6
X171.0Y-78.4
X171.1Y-81.8
X171.1Y-110.4
X171.1Y-114.0
X171.1Y-116.1
X171.6Y-79.5
X171.8Y-65.2
X171.8Y-67.9
X171.8Y-70.7
X172.6Y-91.9
X172.6Y-95.0
X172.6Y-107.7
X172.8Y-96.1
X172.8Y-98.1
X172.9Y-77.2
X173.1Y-110.4
X173.1Y-114.0
X173.1Y-116.1
X173.5Y-79.5
X173.7Y-97.1
X173.8Y-65.2
X173.8Y-67.9
X173.8Y-70.7
X174.6Y-95.0
X174.6Y-107.7
X175.1Y-116.1
X175.5Y-87.6
X175.5Y-91.2
X175.6Y-81.4
X176.0Y-83.7
X176.5Y-78.6
X176.6Y-95.0
X176.6Y-98.0
X176.6Y-107.7
X177.5Y-87.6
X177.5Y-91.2
X178.5Y-78.6
X178.6Y-83.7
X178.6Y-95.0
X178.6Y-98.0
X178.6Y-107.7
X179.5Y-87.6
X179.5Y-91.2
X180.3Y-74.7
X180.3Y-76.7
X180.3Y-78.6
X180.6Y-95.0
X180.6Y-98.0
X180.6Y-107.7
X182.5Y-72.7
X182.5Y-74.7
X182.5Y-76.7
X182.5Y-78.7
X182.5Y-80.7
X182.5Y-82.7
X182.5Y-84.7
X182.5Y-86.7
X182.5Y-88.7
X182.5Y-90.7
X182.5Y-92.7
X182.5Y-94.7
X182.5Y-96.7
X182.5Y-98.7
X182.5Y-100.7
X182.5Y-102.7
X182.5Y-104.7
X182.5Y-106.7
X182.5Y-108.7
T4
X124.85Y-100.487
X124.85Y-101.662
X125.45Y-101.062
X126.05Y-100.487
X126.05Y-101.662
T6
X175.86Y-74.1
X175.86Y-76.64
X178.4Y-74.1
X178.4Y-76.64
T7
X111.935Y-66.68
X111.935Y-69.22
X111.935Y-71.76
X111.935Y-74.3
X114.475Y-66.68
X114.475Y-69.22
X114.475Y-71.76
X114.475Y-74.3
X119.88Y-90.6
X122.42Y-90.6
X124.96Y-90.6
X127.5Y-90.6
X130.04Y-90.6
X132.58Y-90.6
X134.035Y-113.95
X136.575Y-113.95
T8
X105.9Y-79.15
X105.9Y-83.65
X105.9Y-89.65
X105.9Y-94.15
T9
X178.6Y-81.8
X178.6Y-85.61
X178.6Y-89.42
X178.6Y-93.23
X178.6Y-100.39
X178.6Y-104.2
T10
X108.4Y-77.9
X108.4Y-84.9
X108.4Y-88.4
X108.4Y-95.4
T5
X101.65Y-98.08G85X101.05Y-98.08
G05
X101.65Y-106.72G85X101.05Y-106.72
G05
X106.08Y-98.08G85X104.98Y-98.08
G05
X106.08Y-106.72G85X104.98Y-106.72
G05
M30
