G04 #@! TF.GenerationSoftware,KiCad,Pcbnew,8.0.2-8.0.2-0~ubuntu23.10.1*
G04 #@! TF.CreationDate,2024-05-02T10:42:59+07:00*
G04 #@! TF.ProjectId,Node_RS232,4e6f6465-5f52-4533-9233-322e6b696361,rev?*
G04 #@! TF.SameCoordinates,Original*
G04 #@! TF.FileFunction,Soldermask,Bot*
G04 #@! TF.FilePolarity,Negative*
%FSLAX46Y46*%
G04 Gerber Fmt 4.6, Leading zero omitted, Abs format (unit mm)*
G04 Created by KiCad (PCBNEW 8.0.2-8.0.2-0~ubuntu23.10.1) date 2024-05-02 10:42:59*
%MOMM*%
%LPD*%
G01*
G04 APERTURE LIST*
G04 Aperture macros list*
%AMRoundRect*
0 Rectangle with rounded corners*
0 $1 Rounding radius*
0 $2 $3 $4 $5 $6 $7 $8 $9 X,Y pos of 4 corners*
0 Add a 4 corners polygon primitive as box body*
4,1,4,$2,$3,$4,$5,$6,$7,$8,$9,$2,$3,0*
0 Add four circle primitives for the rounded corners*
1,1,$1+$1,$2,$3*
1,1,$1+$1,$4,$5*
1,1,$1+$1,$6,$7*
1,1,$1+$1,$8,$9*
0 Add four rect primitives between the rounded corners*
20,1,$1+$1,$2,$3,$4,$5,0*
20,1,$1+$1,$4,$5,$6,$7,0*
20,1,$1+$1,$6,$7,$8,$9,0*
20,1,$1+$1,$8,$9,$2,$3,0*%
G04 Aperture macros list end*
%ADD10C,0.650000*%
%ADD11O,2.100000X1.000000*%
%ADD12O,1.600000X1.000000*%
%ADD13C,2.000000*%
%ADD14C,2.500000*%
%ADD15RoundRect,0.425000X-0.425000X0.550000X-0.425000X-0.550000X0.425000X-0.550000X0.425000X0.550000X0*%
%ADD16O,1.700000X1.950000*%
%ADD17C,1.500000*%
%ADD18RoundRect,0.250000X1.550000X-0.650000X1.550000X0.650000X-1.550000X0.650000X-1.550000X-0.650000X0*%
%ADD19O,3.600000X1.800000*%
%ADD20R,1.700000X1.700000*%
%ADD21O,1.700000X1.700000*%
G04 APERTURE END LIST*
D10*
X105000000Y-99510000D03*
X105000000Y-105290000D03*
D11*
X105530000Y-98080000D03*
D12*
X101350000Y-98080000D03*
D11*
X105530000Y-106720000D03*
D12*
X101350000Y-106720000D03*
D13*
X105900000Y-79150000D03*
X105900000Y-83650000D03*
D14*
X108400000Y-77900000D03*
X108400000Y-84900000D03*
D15*
X136575000Y-113950000D03*
D16*
X134035000Y-113950000D03*
D17*
X178400000Y-76640000D03*
X178400000Y-74100000D03*
X175860000Y-76640000D03*
X175860000Y-74100000D03*
D15*
X132580000Y-90600000D03*
D16*
X130040000Y-90600000D03*
X127500000Y-90600000D03*
X124960000Y-90600000D03*
X122420000Y-90600000D03*
X119880000Y-90600000D03*
D18*
X178600000Y-93230000D03*
D19*
X178600000Y-89420000D03*
X178600000Y-85610000D03*
X178600000Y-81800000D03*
D13*
X105900000Y-89650000D03*
X105900000Y-94150000D03*
D14*
X108400000Y-88400000D03*
X108400000Y-95400000D03*
D18*
X178600000Y-104200000D03*
D19*
X178600000Y-100390000D03*
D20*
X114475000Y-74300000D03*
D21*
X111935000Y-74300000D03*
X114475000Y-71760000D03*
X111935000Y-71760000D03*
X114475000Y-69220000D03*
X111935000Y-69220000D03*
X114475000Y-66680000D03*
X111935000Y-66680000D03*
M02*
