%TF.GenerationSoftware,KiCad,Pcbnew,8.0.2-8.0.2-0~ubuntu23.10.1*%
%TF.CreationDate,2024-05-02T10:43:01+07:00*%
%TF.ProjectId,Node_RS232,4e6f6465-5f52-4533-9233-322e6b696361,rev?*%
%TF.SameCoordinates,Original*%
%TF.FileFunction,Drillmap*%
%TF.FilePolarity,Positive*%
%FSLAX45Y45*%
G04 Gerber Fmt 4.5, Leading zero omitted, Abs format (unit mm)*
G04 Created by KiCad (PCBNEW 8.0.2-8.0.2-0~ubuntu23.10.1) date 2024-05-02 10:43:01*
%MOMM*%
%LPD*%
G01*
G04 APERTURE LIST*
%ADD10C,0.250000*%
%ADD11C,0.200000*%
%ADD12C,0.100000*%
G04 APERTURE END LIST*
D10*
X10230000Y-10990000D02*
X9990000Y-10990000D01*
X10460000Y-7190000D02*
X10440000Y-7190000D01*
X10810000Y-11290000D02*
G75*
G02*
X10460000Y-11640000I-350000J0D01*
G01*
X10460000Y-11640000D02*
X10460000Y-11740000D01*
X10230000Y-7120000D02*
X9990000Y-7120000D01*
X10810000Y-6840000D02*
G75*
G02*
X10460000Y-7190000I-350000J0D01*
G01*
X10810000Y-6840000D02*
X10810000Y-6820000D01*
X10460000Y-6370000D02*
X17890000Y-6370000D01*
X17910000Y-7190000D02*
X17890000Y-7190000D01*
X18360000Y-7120000D02*
X18360000Y-10990000D01*
X17540000Y-11270000D02*
G75*
G02*
X17890000Y-10920000I350000J0D01*
G01*
X17890000Y-6370000D02*
X17890000Y-6470000D01*
X17890000Y-7190000D02*
G75*
G02*
X17540000Y-6840000I0J350000D01*
G01*
X9990000Y-7120000D02*
X9990000Y-10990000D01*
X18120000Y-10990000D02*
X18360000Y-10990000D01*
X17540000Y-11270000D02*
X17540000Y-11290000D01*
X17540000Y-6820000D02*
X17540000Y-6840000D01*
X17890000Y-11640000D02*
G75*
G02*
X17540000Y-11290000I0J350000D01*
G01*
X17890000Y-10920000D02*
X17910000Y-10920000D01*
X10460000Y-6470000D02*
X10460000Y-6370000D01*
X18360000Y-7120000D02*
X18120000Y-7120000D01*
X10460000Y-6470000D02*
G75*
G02*
X10810000Y-6820000I0J-350000D01*
G01*
X17890000Y-11640000D02*
X17890000Y-11740000D01*
X17540000Y-6820000D02*
G75*
G02*
X17890000Y-6470000I350000J0D01*
G01*
X10440000Y-7190000D02*
G75*
G02*
X10230000Y-7120000I0J350000D01*
G01*
X10810000Y-11270000D02*
X10810000Y-11290000D01*
X10230000Y-10990000D02*
G75*
G02*
X10440000Y-10920000I210000J-280000D01*
G01*
X17910000Y-10920000D02*
G75*
G02*
X18120000Y-10990000I0J-350000D01*
G01*
X10460000Y-11740000D02*
X17890000Y-11740000D01*
X18120000Y-7120000D02*
G75*
G02*
X17910000Y-7190000I-210000J280000D01*
G01*
X10460000Y-10920000D02*
X10440000Y-10920000D01*
X10460000Y-10920000D02*
G75*
G02*
X10810000Y-11270000I0J-350000D01*
G01*
D11*
D12*
X10467500Y-9918500D02*
X10532500Y-9983500D01*
X10532500Y-9918500D02*
X10467500Y-9983500D01*
X10467500Y-10496500D02*
X10532500Y-10561500D01*
X10532500Y-10496500D02*
X10467500Y-10561500D01*
D11*
X10238277Y-12063984D02*
X10238277Y-11863984D01*
X10238277Y-11863984D02*
X10285896Y-11863984D01*
X10285896Y-11863984D02*
X10314467Y-11873508D01*
X10314467Y-11873508D02*
X10333515Y-11892555D01*
X10333515Y-11892555D02*
X10343039Y-11911603D01*
X10343039Y-11911603D02*
X10352563Y-11949698D01*
X10352563Y-11949698D02*
X10352563Y-11978269D01*
X10352563Y-11978269D02*
X10343039Y-12016365D01*
X10343039Y-12016365D02*
X10333515Y-12035412D01*
X10333515Y-12035412D02*
X10314467Y-12054460D01*
X10314467Y-12054460D02*
X10285896Y-12063984D01*
X10285896Y-12063984D02*
X10238277Y-12063984D01*
X10438277Y-12063984D02*
X10438277Y-11930650D01*
X10438277Y-11968746D02*
X10447801Y-11949698D01*
X10447801Y-11949698D02*
X10457324Y-11940174D01*
X10457324Y-11940174D02*
X10476372Y-11930650D01*
X10476372Y-11930650D02*
X10495420Y-11930650D01*
X10562086Y-12063984D02*
X10562086Y-11930650D01*
X10562086Y-11863984D02*
X10552563Y-11873508D01*
X10552563Y-11873508D02*
X10562086Y-11883031D01*
X10562086Y-11883031D02*
X10571610Y-11873508D01*
X10571610Y-11873508D02*
X10562086Y-11863984D01*
X10562086Y-11863984D02*
X10562086Y-11883031D01*
X10685896Y-12063984D02*
X10666848Y-12054460D01*
X10666848Y-12054460D02*
X10657324Y-12035412D01*
X10657324Y-12035412D02*
X10657324Y-11863984D01*
X10790658Y-12063984D02*
X10771610Y-12054460D01*
X10771610Y-12054460D02*
X10762086Y-12035412D01*
X10762086Y-12035412D02*
X10762086Y-11863984D01*
X11019229Y-12063984D02*
X11019229Y-11863984D01*
X11019229Y-11863984D02*
X11085896Y-12006841D01*
X11085896Y-12006841D02*
X11152563Y-11863984D01*
X11152563Y-11863984D02*
X11152563Y-12063984D01*
X11333515Y-12063984D02*
X11333515Y-11959222D01*
X11333515Y-11959222D02*
X11323991Y-11940174D01*
X11323991Y-11940174D02*
X11304943Y-11930650D01*
X11304943Y-11930650D02*
X11266848Y-11930650D01*
X11266848Y-11930650D02*
X11247801Y-11940174D01*
X11333515Y-12054460D02*
X11314467Y-12063984D01*
X11314467Y-12063984D02*
X11266848Y-12063984D01*
X11266848Y-12063984D02*
X11247801Y-12054460D01*
X11247801Y-12054460D02*
X11238277Y-12035412D01*
X11238277Y-12035412D02*
X11238277Y-12016365D01*
X11238277Y-12016365D02*
X11247801Y-11997317D01*
X11247801Y-11997317D02*
X11266848Y-11987793D01*
X11266848Y-11987793D02*
X11314467Y-11987793D01*
X11314467Y-11987793D02*
X11333515Y-11978269D01*
X11428753Y-11930650D02*
X11428753Y-12130650D01*
X11428753Y-11940174D02*
X11447801Y-11930650D01*
X11447801Y-11930650D02*
X11485896Y-11930650D01*
X11485896Y-11930650D02*
X11504943Y-11940174D01*
X11504943Y-11940174D02*
X11514467Y-11949698D01*
X11514467Y-11949698D02*
X11523991Y-11968746D01*
X11523991Y-11968746D02*
X11523991Y-12025888D01*
X11523991Y-12025888D02*
X11514467Y-12044936D01*
X11514467Y-12044936D02*
X11504943Y-12054460D01*
X11504943Y-12054460D02*
X11485896Y-12063984D01*
X11485896Y-12063984D02*
X11447801Y-12063984D01*
X11447801Y-12063984D02*
X11428753Y-12054460D01*
X11609705Y-12044936D02*
X11619229Y-12054460D01*
X11619229Y-12054460D02*
X11609705Y-12063984D01*
X11609705Y-12063984D02*
X11600182Y-12054460D01*
X11600182Y-12054460D02*
X11609705Y-12044936D01*
X11609705Y-12044936D02*
X11609705Y-12063984D01*
X11609705Y-11940174D02*
X11619229Y-11949698D01*
X11619229Y-11949698D02*
X11609705Y-11959222D01*
X11609705Y-11959222D02*
X11600182Y-11949698D01*
X11600182Y-11949698D02*
X11609705Y-11940174D01*
X11609705Y-11940174D02*
X11609705Y-11959222D01*
D12*
X9912500Y-12360000D02*
X9977500Y-12425000D01*
X9977500Y-12360000D02*
X9912500Y-12425000D01*
D11*
X10276372Y-12283984D02*
X10295420Y-12283984D01*
X10295420Y-12283984D02*
X10314467Y-12293508D01*
X10314467Y-12293508D02*
X10323991Y-12303031D01*
X10323991Y-12303031D02*
X10333515Y-12322079D01*
X10333515Y-12322079D02*
X10343039Y-12360174D01*
X10343039Y-12360174D02*
X10343039Y-12407793D01*
X10343039Y-12407793D02*
X10333515Y-12445888D01*
X10333515Y-12445888D02*
X10323991Y-12464936D01*
X10323991Y-12464936D02*
X10314467Y-12474460D01*
X10314467Y-12474460D02*
X10295420Y-12483984D01*
X10295420Y-12483984D02*
X10276372Y-12483984D01*
X10276372Y-12483984D02*
X10257324Y-12474460D01*
X10257324Y-12474460D02*
X10247801Y-12464936D01*
X10247801Y-12464936D02*
X10238277Y-12445888D01*
X10238277Y-12445888D02*
X10228753Y-12407793D01*
X10228753Y-12407793D02*
X10228753Y-12360174D01*
X10228753Y-12360174D02*
X10238277Y-12322079D01*
X10238277Y-12322079D02*
X10247801Y-12303031D01*
X10247801Y-12303031D02*
X10257324Y-12293508D01*
X10257324Y-12293508D02*
X10276372Y-12283984D01*
X10428753Y-12464936D02*
X10438277Y-12474460D01*
X10438277Y-12474460D02*
X10428753Y-12483984D01*
X10428753Y-12483984D02*
X10419229Y-12474460D01*
X10419229Y-12474460D02*
X10428753Y-12464936D01*
X10428753Y-12464936D02*
X10428753Y-12483984D01*
X10609705Y-12283984D02*
X10571610Y-12283984D01*
X10571610Y-12283984D02*
X10552563Y-12293508D01*
X10552563Y-12293508D02*
X10543039Y-12303031D01*
X10543039Y-12303031D02*
X10523991Y-12331603D01*
X10523991Y-12331603D02*
X10514467Y-12369698D01*
X10514467Y-12369698D02*
X10514467Y-12445888D01*
X10514467Y-12445888D02*
X10523991Y-12464936D01*
X10523991Y-12464936D02*
X10533515Y-12474460D01*
X10533515Y-12474460D02*
X10552563Y-12483984D01*
X10552563Y-12483984D02*
X10590658Y-12483984D01*
X10590658Y-12483984D02*
X10609705Y-12474460D01*
X10609705Y-12474460D02*
X10619229Y-12464936D01*
X10619229Y-12464936D02*
X10628753Y-12445888D01*
X10628753Y-12445888D02*
X10628753Y-12398269D01*
X10628753Y-12398269D02*
X10619229Y-12379222D01*
X10619229Y-12379222D02*
X10609705Y-12369698D01*
X10609705Y-12369698D02*
X10590658Y-12360174D01*
X10590658Y-12360174D02*
X10552563Y-12360174D01*
X10552563Y-12360174D02*
X10533515Y-12369698D01*
X10533515Y-12369698D02*
X10523991Y-12379222D01*
X10523991Y-12379222D02*
X10514467Y-12398269D01*
X10809705Y-12283984D02*
X10714467Y-12283984D01*
X10714467Y-12283984D02*
X10704944Y-12379222D01*
X10704944Y-12379222D02*
X10714467Y-12369698D01*
X10714467Y-12369698D02*
X10733515Y-12360174D01*
X10733515Y-12360174D02*
X10781134Y-12360174D01*
X10781134Y-12360174D02*
X10800182Y-12369698D01*
X10800182Y-12369698D02*
X10809705Y-12379222D01*
X10809705Y-12379222D02*
X10819229Y-12398269D01*
X10819229Y-12398269D02*
X10819229Y-12445888D01*
X10819229Y-12445888D02*
X10809705Y-12464936D01*
X10809705Y-12464936D02*
X10800182Y-12474460D01*
X10800182Y-12474460D02*
X10781134Y-12483984D01*
X10781134Y-12483984D02*
X10733515Y-12483984D01*
X10733515Y-12483984D02*
X10714467Y-12474460D01*
X10714467Y-12474460D02*
X10704944Y-12464936D01*
X10943039Y-12283984D02*
X10962086Y-12283984D01*
X10962086Y-12283984D02*
X10981134Y-12293508D01*
X10981134Y-12293508D02*
X10990658Y-12303031D01*
X10990658Y-12303031D02*
X11000182Y-12322079D01*
X11000182Y-12322079D02*
X11009705Y-12360174D01*
X11009705Y-12360174D02*
X11009705Y-12407793D01*
X11009705Y-12407793D02*
X11000182Y-12445888D01*
X11000182Y-12445888D02*
X10990658Y-12464936D01*
X10990658Y-12464936D02*
X10981134Y-12474460D01*
X10981134Y-12474460D02*
X10962086Y-12483984D01*
X10962086Y-12483984D02*
X10943039Y-12483984D01*
X10943039Y-12483984D02*
X10923991Y-12474460D01*
X10923991Y-12474460D02*
X10914467Y-12464936D01*
X10914467Y-12464936D02*
X10904944Y-12445888D01*
X10904944Y-12445888D02*
X10895420Y-12407793D01*
X10895420Y-12407793D02*
X10895420Y-12360174D01*
X10895420Y-12360174D02*
X10904944Y-12322079D01*
X10904944Y-12322079D02*
X10914467Y-12303031D01*
X10914467Y-12303031D02*
X10923991Y-12293508D01*
X10923991Y-12293508D02*
X10943039Y-12283984D01*
X11095420Y-12483984D02*
X11095420Y-12350650D01*
X11095420Y-12369698D02*
X11104944Y-12360174D01*
X11104944Y-12360174D02*
X11123991Y-12350650D01*
X11123991Y-12350650D02*
X11152563Y-12350650D01*
X11152563Y-12350650D02*
X11171610Y-12360174D01*
X11171610Y-12360174D02*
X11181134Y-12379222D01*
X11181134Y-12379222D02*
X11181134Y-12483984D01*
X11181134Y-12379222D02*
X11190658Y-12360174D01*
X11190658Y-12360174D02*
X11209705Y-12350650D01*
X11209705Y-12350650D02*
X11238277Y-12350650D01*
X11238277Y-12350650D02*
X11257324Y-12360174D01*
X11257324Y-12360174D02*
X11266848Y-12379222D01*
X11266848Y-12379222D02*
X11266848Y-12483984D01*
X11362086Y-12483984D02*
X11362086Y-12350650D01*
X11362086Y-12369698D02*
X11371610Y-12360174D01*
X11371610Y-12360174D02*
X11390658Y-12350650D01*
X11390658Y-12350650D02*
X11419229Y-12350650D01*
X11419229Y-12350650D02*
X11438277Y-12360174D01*
X11438277Y-12360174D02*
X11447801Y-12379222D01*
X11447801Y-12379222D02*
X11447801Y-12483984D01*
X11447801Y-12379222D02*
X11457324Y-12360174D01*
X11457324Y-12360174D02*
X11476372Y-12350650D01*
X11476372Y-12350650D02*
X11504943Y-12350650D01*
X11504943Y-12350650D02*
X11523991Y-12360174D01*
X11523991Y-12360174D02*
X11533515Y-12379222D01*
X11533515Y-12379222D02*
X11533515Y-12483984D01*
X11923991Y-12274460D02*
X11752563Y-12531603D01*
X12181134Y-12283984D02*
X12200182Y-12283984D01*
X12200182Y-12283984D02*
X12219229Y-12293508D01*
X12219229Y-12293508D02*
X12228753Y-12303031D01*
X12228753Y-12303031D02*
X12238277Y-12322079D01*
X12238277Y-12322079D02*
X12247801Y-12360174D01*
X12247801Y-12360174D02*
X12247801Y-12407793D01*
X12247801Y-12407793D02*
X12238277Y-12445888D01*
X12238277Y-12445888D02*
X12228753Y-12464936D01*
X12228753Y-12464936D02*
X12219229Y-12474460D01*
X12219229Y-12474460D02*
X12200182Y-12483984D01*
X12200182Y-12483984D02*
X12181134Y-12483984D01*
X12181134Y-12483984D02*
X12162086Y-12474460D01*
X12162086Y-12474460D02*
X12152563Y-12464936D01*
X12152563Y-12464936D02*
X12143039Y-12445888D01*
X12143039Y-12445888D02*
X12133515Y-12407793D01*
X12133515Y-12407793D02*
X12133515Y-12360174D01*
X12133515Y-12360174D02*
X12143039Y-12322079D01*
X12143039Y-12322079D02*
X12152563Y-12303031D01*
X12152563Y-12303031D02*
X12162086Y-12293508D01*
X12162086Y-12293508D02*
X12181134Y-12283984D01*
X12333515Y-12464936D02*
X12343039Y-12474460D01*
X12343039Y-12474460D02*
X12333515Y-12483984D01*
X12333515Y-12483984D02*
X12323991Y-12474460D01*
X12323991Y-12474460D02*
X12333515Y-12464936D01*
X12333515Y-12464936D02*
X12333515Y-12483984D01*
X12466848Y-12283984D02*
X12485896Y-12283984D01*
X12485896Y-12283984D02*
X12504944Y-12293508D01*
X12504944Y-12293508D02*
X12514467Y-12303031D01*
X12514467Y-12303031D02*
X12523991Y-12322079D01*
X12523991Y-12322079D02*
X12533515Y-12360174D01*
X12533515Y-12360174D02*
X12533515Y-12407793D01*
X12533515Y-12407793D02*
X12523991Y-12445888D01*
X12523991Y-12445888D02*
X12514467Y-12464936D01*
X12514467Y-12464936D02*
X12504944Y-12474460D01*
X12504944Y-12474460D02*
X12485896Y-12483984D01*
X12485896Y-12483984D02*
X12466848Y-12483984D01*
X12466848Y-12483984D02*
X12447801Y-12474460D01*
X12447801Y-12474460D02*
X12438277Y-12464936D01*
X12438277Y-12464936D02*
X12428753Y-12445888D01*
X12428753Y-12445888D02*
X12419229Y-12407793D01*
X12419229Y-12407793D02*
X12419229Y-12360174D01*
X12419229Y-12360174D02*
X12428753Y-12322079D01*
X12428753Y-12322079D02*
X12438277Y-12303031D01*
X12438277Y-12303031D02*
X12447801Y-12293508D01*
X12447801Y-12293508D02*
X12466848Y-12283984D01*
X12609706Y-12303031D02*
X12619229Y-12293508D01*
X12619229Y-12293508D02*
X12638277Y-12283984D01*
X12638277Y-12283984D02*
X12685896Y-12283984D01*
X12685896Y-12283984D02*
X12704944Y-12293508D01*
X12704944Y-12293508D02*
X12714467Y-12303031D01*
X12714467Y-12303031D02*
X12723991Y-12322079D01*
X12723991Y-12322079D02*
X12723991Y-12341127D01*
X12723991Y-12341127D02*
X12714467Y-12369698D01*
X12714467Y-12369698D02*
X12600182Y-12483984D01*
X12600182Y-12483984D02*
X12723991Y-12483984D01*
X12904944Y-12283984D02*
X12809706Y-12283984D01*
X12809706Y-12283984D02*
X12800182Y-12379222D01*
X12800182Y-12379222D02*
X12809706Y-12369698D01*
X12809706Y-12369698D02*
X12828753Y-12360174D01*
X12828753Y-12360174D02*
X12876372Y-12360174D01*
X12876372Y-12360174D02*
X12895420Y-12369698D01*
X12895420Y-12369698D02*
X12904944Y-12379222D01*
X12904944Y-12379222D02*
X12914467Y-12398269D01*
X12914467Y-12398269D02*
X12914467Y-12445888D01*
X12914467Y-12445888D02*
X12904944Y-12464936D01*
X12904944Y-12464936D02*
X12895420Y-12474460D01*
X12895420Y-12474460D02*
X12876372Y-12483984D01*
X12876372Y-12483984D02*
X12828753Y-12483984D01*
X12828753Y-12483984D02*
X12809706Y-12474460D01*
X12809706Y-12474460D02*
X12800182Y-12464936D01*
X13085896Y-12283984D02*
X13047801Y-12283984D01*
X13047801Y-12283984D02*
X13028753Y-12293508D01*
X13028753Y-12293508D02*
X13019229Y-12303031D01*
X13019229Y-12303031D02*
X13000182Y-12331603D01*
X13000182Y-12331603D02*
X12990658Y-12369698D01*
X12990658Y-12369698D02*
X12990658Y-12445888D01*
X12990658Y-12445888D02*
X13000182Y-12464936D01*
X13000182Y-12464936D02*
X13009706Y-12474460D01*
X13009706Y-12474460D02*
X13028753Y-12483984D01*
X13028753Y-12483984D02*
X13066848Y-12483984D01*
X13066848Y-12483984D02*
X13085896Y-12474460D01*
X13085896Y-12474460D02*
X13095420Y-12464936D01*
X13095420Y-12464936D02*
X13104944Y-12445888D01*
X13104944Y-12445888D02*
X13104944Y-12398269D01*
X13104944Y-12398269D02*
X13095420Y-12379222D01*
X13095420Y-12379222D02*
X13085896Y-12369698D01*
X13085896Y-12369698D02*
X13066848Y-12360174D01*
X13066848Y-12360174D02*
X13028753Y-12360174D01*
X13028753Y-12360174D02*
X13009706Y-12369698D01*
X13009706Y-12369698D02*
X13000182Y-12379222D01*
X13000182Y-12379222D02*
X12990658Y-12398269D01*
X13181134Y-12283984D02*
X13181134Y-12322079D01*
X13257325Y-12283984D02*
X13257325Y-12322079D01*
X13552563Y-12560174D02*
X13543039Y-12550650D01*
X13543039Y-12550650D02*
X13523991Y-12522079D01*
X13523991Y-12522079D02*
X13514468Y-12503031D01*
X13514468Y-12503031D02*
X13504944Y-12474460D01*
X13504944Y-12474460D02*
X13495420Y-12426841D01*
X13495420Y-12426841D02*
X13495420Y-12388746D01*
X13495420Y-12388746D02*
X13504944Y-12341127D01*
X13504944Y-12341127D02*
X13514468Y-12312555D01*
X13514468Y-12312555D02*
X13523991Y-12293508D01*
X13523991Y-12293508D02*
X13543039Y-12264936D01*
X13543039Y-12264936D02*
X13552563Y-12255412D01*
X13619229Y-12303031D02*
X13628753Y-12293508D01*
X13628753Y-12293508D02*
X13647801Y-12283984D01*
X13647801Y-12283984D02*
X13695420Y-12283984D01*
X13695420Y-12283984D02*
X13714468Y-12293508D01*
X13714468Y-12293508D02*
X13723991Y-12303031D01*
X13723991Y-12303031D02*
X13733515Y-12322079D01*
X13733515Y-12322079D02*
X13733515Y-12341127D01*
X13733515Y-12341127D02*
X13723991Y-12369698D01*
X13723991Y-12369698D02*
X13609706Y-12483984D01*
X13609706Y-12483984D02*
X13733515Y-12483984D01*
X13971610Y-12483984D02*
X13971610Y-12283984D01*
X14057325Y-12483984D02*
X14057325Y-12379222D01*
X14057325Y-12379222D02*
X14047801Y-12360174D01*
X14047801Y-12360174D02*
X14028753Y-12350650D01*
X14028753Y-12350650D02*
X14000182Y-12350650D01*
X14000182Y-12350650D02*
X13981134Y-12360174D01*
X13981134Y-12360174D02*
X13971610Y-12369698D01*
X14181134Y-12483984D02*
X14162087Y-12474460D01*
X14162087Y-12474460D02*
X14152563Y-12464936D01*
X14152563Y-12464936D02*
X14143039Y-12445888D01*
X14143039Y-12445888D02*
X14143039Y-12388746D01*
X14143039Y-12388746D02*
X14152563Y-12369698D01*
X14152563Y-12369698D02*
X14162087Y-12360174D01*
X14162087Y-12360174D02*
X14181134Y-12350650D01*
X14181134Y-12350650D02*
X14209706Y-12350650D01*
X14209706Y-12350650D02*
X14228753Y-12360174D01*
X14228753Y-12360174D02*
X14238277Y-12369698D01*
X14238277Y-12369698D02*
X14247801Y-12388746D01*
X14247801Y-12388746D02*
X14247801Y-12445888D01*
X14247801Y-12445888D02*
X14238277Y-12464936D01*
X14238277Y-12464936D02*
X14228753Y-12474460D01*
X14228753Y-12474460D02*
X14209706Y-12483984D01*
X14209706Y-12483984D02*
X14181134Y-12483984D01*
X14362087Y-12483984D02*
X14343039Y-12474460D01*
X14343039Y-12474460D02*
X14333515Y-12455412D01*
X14333515Y-12455412D02*
X14333515Y-12283984D01*
X14514468Y-12474460D02*
X14495420Y-12483984D01*
X14495420Y-12483984D02*
X14457325Y-12483984D01*
X14457325Y-12483984D02*
X14438277Y-12474460D01*
X14438277Y-12474460D02*
X14428753Y-12455412D01*
X14428753Y-12455412D02*
X14428753Y-12379222D01*
X14428753Y-12379222D02*
X14438277Y-12360174D01*
X14438277Y-12360174D02*
X14457325Y-12350650D01*
X14457325Y-12350650D02*
X14495420Y-12350650D01*
X14495420Y-12350650D02*
X14514468Y-12360174D01*
X14514468Y-12360174D02*
X14523991Y-12379222D01*
X14523991Y-12379222D02*
X14523991Y-12398269D01*
X14523991Y-12398269D02*
X14428753Y-12417317D01*
X14600182Y-12474460D02*
X14619230Y-12483984D01*
X14619230Y-12483984D02*
X14657325Y-12483984D01*
X14657325Y-12483984D02*
X14676372Y-12474460D01*
X14676372Y-12474460D02*
X14685896Y-12455412D01*
X14685896Y-12455412D02*
X14685896Y-12445888D01*
X14685896Y-12445888D02*
X14676372Y-12426841D01*
X14676372Y-12426841D02*
X14657325Y-12417317D01*
X14657325Y-12417317D02*
X14628753Y-12417317D01*
X14628753Y-12417317D02*
X14609706Y-12407793D01*
X14609706Y-12407793D02*
X14600182Y-12388746D01*
X14600182Y-12388746D02*
X14600182Y-12379222D01*
X14600182Y-12379222D02*
X14609706Y-12360174D01*
X14609706Y-12360174D02*
X14628753Y-12350650D01*
X14628753Y-12350650D02*
X14657325Y-12350650D01*
X14657325Y-12350650D02*
X14676372Y-12360174D01*
X14752563Y-12560174D02*
X14762087Y-12550650D01*
X14762087Y-12550650D02*
X14781134Y-12522079D01*
X14781134Y-12522079D02*
X14790658Y-12503031D01*
X14790658Y-12503031D02*
X14800182Y-12474460D01*
X14800182Y-12474460D02*
X14809706Y-12426841D01*
X14809706Y-12426841D02*
X14809706Y-12388746D01*
X14809706Y-12388746D02*
X14800182Y-12341127D01*
X14800182Y-12341127D02*
X14790658Y-12312555D01*
X14790658Y-12312555D02*
X14781134Y-12293508D01*
X14781134Y-12293508D02*
X14762087Y-12264936D01*
X14762087Y-12264936D02*
X14752563Y-12255412D01*
X15114468Y-12560174D02*
X15104944Y-12550650D01*
X15104944Y-12550650D02*
X15085896Y-12522079D01*
X15085896Y-12522079D02*
X15076372Y-12503031D01*
X15076372Y-12503031D02*
X15066849Y-12474460D01*
X15066849Y-12474460D02*
X15057325Y-12426841D01*
X15057325Y-12426841D02*
X15057325Y-12388746D01*
X15057325Y-12388746D02*
X15066849Y-12341127D01*
X15066849Y-12341127D02*
X15076372Y-12312555D01*
X15076372Y-12312555D02*
X15085896Y-12293508D01*
X15085896Y-12293508D02*
X15104944Y-12264936D01*
X15104944Y-12264936D02*
X15114468Y-12255412D01*
X15190658Y-12350650D02*
X15190658Y-12483984D01*
X15190658Y-12369698D02*
X15200182Y-12360174D01*
X15200182Y-12360174D02*
X15219230Y-12350650D01*
X15219230Y-12350650D02*
X15247801Y-12350650D01*
X15247801Y-12350650D02*
X15266849Y-12360174D01*
X15266849Y-12360174D02*
X15276372Y-12379222D01*
X15276372Y-12379222D02*
X15276372Y-12483984D01*
X15400182Y-12483984D02*
X15381134Y-12474460D01*
X15381134Y-12474460D02*
X15371611Y-12464936D01*
X15371611Y-12464936D02*
X15362087Y-12445888D01*
X15362087Y-12445888D02*
X15362087Y-12388746D01*
X15362087Y-12388746D02*
X15371611Y-12369698D01*
X15371611Y-12369698D02*
X15381134Y-12360174D01*
X15381134Y-12360174D02*
X15400182Y-12350650D01*
X15400182Y-12350650D02*
X15428753Y-12350650D01*
X15428753Y-12350650D02*
X15447801Y-12360174D01*
X15447801Y-12360174D02*
X15457325Y-12369698D01*
X15457325Y-12369698D02*
X15466849Y-12388746D01*
X15466849Y-12388746D02*
X15466849Y-12445888D01*
X15466849Y-12445888D02*
X15457325Y-12464936D01*
X15457325Y-12464936D02*
X15447801Y-12474460D01*
X15447801Y-12474460D02*
X15428753Y-12483984D01*
X15428753Y-12483984D02*
X15400182Y-12483984D01*
X15523992Y-12350650D02*
X15600182Y-12350650D01*
X15552563Y-12283984D02*
X15552563Y-12455412D01*
X15552563Y-12455412D02*
X15562087Y-12474460D01*
X15562087Y-12474460D02*
X15581134Y-12483984D01*
X15581134Y-12483984D02*
X15600182Y-12483984D01*
X15819230Y-12350650D02*
X15819230Y-12550650D01*
X15819230Y-12360174D02*
X15838277Y-12350650D01*
X15838277Y-12350650D02*
X15876373Y-12350650D01*
X15876373Y-12350650D02*
X15895420Y-12360174D01*
X15895420Y-12360174D02*
X15904944Y-12369698D01*
X15904944Y-12369698D02*
X15914468Y-12388746D01*
X15914468Y-12388746D02*
X15914468Y-12445888D01*
X15914468Y-12445888D02*
X15904944Y-12464936D01*
X15904944Y-12464936D02*
X15895420Y-12474460D01*
X15895420Y-12474460D02*
X15876373Y-12483984D01*
X15876373Y-12483984D02*
X15838277Y-12483984D01*
X15838277Y-12483984D02*
X15819230Y-12474460D01*
X16028753Y-12483984D02*
X16009706Y-12474460D01*
X16009706Y-12474460D02*
X16000182Y-12455412D01*
X16000182Y-12455412D02*
X16000182Y-12283984D01*
X16190658Y-12483984D02*
X16190658Y-12379222D01*
X16190658Y-12379222D02*
X16181134Y-12360174D01*
X16181134Y-12360174D02*
X16162087Y-12350650D01*
X16162087Y-12350650D02*
X16123992Y-12350650D01*
X16123992Y-12350650D02*
X16104944Y-12360174D01*
X16190658Y-12474460D02*
X16171611Y-12483984D01*
X16171611Y-12483984D02*
X16123992Y-12483984D01*
X16123992Y-12483984D02*
X16104944Y-12474460D01*
X16104944Y-12474460D02*
X16095420Y-12455412D01*
X16095420Y-12455412D02*
X16095420Y-12436365D01*
X16095420Y-12436365D02*
X16104944Y-12417317D01*
X16104944Y-12417317D02*
X16123992Y-12407793D01*
X16123992Y-12407793D02*
X16171611Y-12407793D01*
X16171611Y-12407793D02*
X16190658Y-12398269D01*
X16257325Y-12350650D02*
X16333515Y-12350650D01*
X16285896Y-12283984D02*
X16285896Y-12455412D01*
X16285896Y-12455412D02*
X16295420Y-12474460D01*
X16295420Y-12474460D02*
X16314468Y-12483984D01*
X16314468Y-12483984D02*
X16333515Y-12483984D01*
X16476373Y-12474460D02*
X16457325Y-12483984D01*
X16457325Y-12483984D02*
X16419230Y-12483984D01*
X16419230Y-12483984D02*
X16400182Y-12474460D01*
X16400182Y-12474460D02*
X16390658Y-12455412D01*
X16390658Y-12455412D02*
X16390658Y-12379222D01*
X16390658Y-12379222D02*
X16400182Y-12360174D01*
X16400182Y-12360174D02*
X16419230Y-12350650D01*
X16419230Y-12350650D02*
X16457325Y-12350650D01*
X16457325Y-12350650D02*
X16476373Y-12360174D01*
X16476373Y-12360174D02*
X16485896Y-12379222D01*
X16485896Y-12379222D02*
X16485896Y-12398269D01*
X16485896Y-12398269D02*
X16390658Y-12417317D01*
X16657325Y-12483984D02*
X16657325Y-12283984D01*
X16657325Y-12474460D02*
X16638277Y-12483984D01*
X16638277Y-12483984D02*
X16600182Y-12483984D01*
X16600182Y-12483984D02*
X16581134Y-12474460D01*
X16581134Y-12474460D02*
X16571611Y-12464936D01*
X16571611Y-12464936D02*
X16562087Y-12445888D01*
X16562087Y-12445888D02*
X16562087Y-12388746D01*
X16562087Y-12388746D02*
X16571611Y-12369698D01*
X16571611Y-12369698D02*
X16581134Y-12360174D01*
X16581134Y-12360174D02*
X16600182Y-12350650D01*
X16600182Y-12350650D02*
X16638277Y-12350650D01*
X16638277Y-12350650D02*
X16657325Y-12360174D01*
X16733515Y-12560174D02*
X16743039Y-12550650D01*
X16743039Y-12550650D02*
X16762087Y-12522079D01*
X16762087Y-12522079D02*
X16771611Y-12503031D01*
X16771611Y-12503031D02*
X16781135Y-12474460D01*
X16781135Y-12474460D02*
X16790658Y-12426841D01*
X16790658Y-12426841D02*
X16790658Y-12388746D01*
X16790658Y-12388746D02*
X16781135Y-12341127D01*
X16781135Y-12341127D02*
X16771611Y-12312555D01*
X16771611Y-12312555D02*
X16762087Y-12293508D01*
X16762087Y-12293508D02*
X16743039Y-12264936D01*
X16743039Y-12264936D02*
X16733515Y-12255412D01*
M02*
