G04 #@! TF.GenerationSoftware,KiCad,Pcbnew,8.0.2-8.0.2-0~ubuntu23.10.1*
G04 #@! TF.CreationDate,2024-05-02T10:42:59+07:00*
G04 #@! TF.ProjectId,Node_RS232,4e6f6465-5f52-4533-9233-322e6b696361,rev?*
G04 #@! TF.SameCoordinates,Original*
G04 #@! TF.FileFunction,Legend,Top*
G04 #@! TF.FilePolarity,Positive*
%FSLAX46Y46*%
G04 Gerber Fmt 4.6, Leading zero omitted, Abs format (unit mm)*
G04 Created by KiCad (PCBNEW 8.0.2-8.0.2-0~ubuntu23.10.1) date 2024-05-02 10:42:59*
%MOMM*%
%LPD*%
G01*
G04 APERTURE LIST*
G04 Aperture macros list*
%AMRoundRect*
0 Rectangle with rounded corners*
0 $1 Rounding radius*
0 $2 $3 $4 $5 $6 $7 $8 $9 X,Y pos of 4 corners*
0 Add a 4 corners polygon primitive as box body*
4,1,4,$2,$3,$4,$5,$6,$7,$8,$9,$2,$3,0*
0 Add four circle primitives for the rounded corners*
1,1,$1+$1,$2,$3*
1,1,$1+$1,$4,$5*
1,1,$1+$1,$6,$7*
1,1,$1+$1,$8,$9*
0 Add four rect primitives between the rounded corners*
20,1,$1+$1,$2,$3,$4,$5,0*
20,1,$1+$1,$4,$5,$6,$7,0*
20,1,$1+$1,$6,$7,$8,$9,0*
20,1,$1+$1,$8,$9,$2,$3,0*%
%AMFreePoly0*
4,1,21,-0.125000,1.200000,0.125000,1.200000,0.125000,1.700000,0.375000,1.700000,0.375000,1.200000,0.825000,1.200000,0.825000,-1.200000,0.375000,-1.200000,0.375000,-1.700000,0.125000,-1.700000,0.125000,-1.200000,-0.125000,-1.200000,-0.125000,-1.700000,-0.375000,-1.700000,-0.375000,-1.200000,-0.825000,-1.200000,-0.825000,1.200000,-0.375000,1.200000,-0.375000,1.700000,-0.125000,1.700000,
-0.125000,1.200000,-0.125000,1.200000,$1*%
%AMFreePoly1*
4,1,18,-0.700000,0.540000,-0.695433,0.562961,-0.682426,0.582426,-0.662961,0.595433,-0.640000,0.600000,0.640000,0.600000,0.662961,0.595433,0.682426,0.582426,0.695433,0.562961,0.700000,0.540000,0.700000,-0.540000,0.695433,-0.562961,0.682426,-0.582426,0.662961,-0.595433,0.640000,-0.600000,-0.400000,-0.600000,-0.700000,-0.300000,-0.700000,0.540000,-0.700000,0.540000,$1*%
G04 Aperture macros list end*
%ADD10C,0.375000*%
%ADD11C,0.250000*%
%ADD12C,0.120000*%
%ADD13C,0.127000*%
%ADD14C,0.150000*%
%ADD15C,0.200000*%
%ADD16C,0.575000*%
%ADD17C,0.300000*%
%ADD18C,0.100000*%
%ADD19C,0.400000*%
%ADD20RoundRect,0.085000X0.365000X-0.340000X0.365000X0.340000X-0.365000X0.340000X-0.365000X-0.340000X0*%
%ADD21RoundRect,0.085000X0.340000X0.365000X-0.340000X0.365000X-0.340000X-0.365000X0.340000X-0.365000X0*%
%ADD22R,2.350000X5.100000*%
%ADD23RoundRect,0.102000X-0.350000X0.900000X-0.350000X-0.900000X0.350000X-0.900000X0.350000X0.900000X0*%
%ADD24RoundRect,0.102000X-0.900000X-0.350000X0.900000X-0.350000X0.900000X0.350000X-0.900000X0.350000X0*%
%ADD25RoundRect,0.250000X-0.550000X1.500000X-0.550000X-1.500000X0.550000X-1.500000X0.550000X1.500000X0*%
%ADD26RoundRect,0.085000X-0.340000X-0.365000X0.340000X-0.365000X0.340000X0.365000X-0.340000X0.365000X0*%
%ADD27RoundRect,0.060000X-0.915000X-0.240000X0.915000X-0.240000X0.915000X0.240000X-0.915000X0.240000X0*%
%ADD28RoundRect,0.085000X-0.365000X0.340000X-0.365000X-0.340000X0.365000X-0.340000X0.365000X0.340000X0*%
%ADD29RoundRect,0.100000X0.637500X0.100000X-0.637500X0.100000X-0.637500X-0.100000X0.637500X-0.100000X0*%
%ADD30C,0.650000*%
%ADD31R,1.300000X0.600000*%
%ADD32R,1.300000X0.300000*%
%ADD33O,2.100000X1.000000*%
%ADD34O,1.600000X1.000000*%
%ADD35RoundRect,0.090000X0.360000X0.210000X-0.360000X0.210000X-0.360000X-0.210000X0.360000X-0.210000X0*%
%ADD36C,2.000000*%
%ADD37C,2.500000*%
%ADD38RoundRect,0.425000X-0.425000X0.550000X-0.425000X-0.550000X0.425000X-0.550000X0.425000X0.550000X0*%
%ADD39O,1.700000X1.950000*%
%ADD40C,1.500000*%
%ADD41RoundRect,0.250000X1.550000X-0.650000X1.550000X0.650000X-1.550000X0.650000X-1.550000X-0.650000X0*%
%ADD42O,3.600000X1.800000*%
%ADD43RoundRect,0.090000X-0.560000X-0.210000X0.560000X-0.210000X0.560000X0.210000X-0.560000X0.210000X0*%
%ADD44R,5.100000X2.350000*%
%ADD45RoundRect,0.060000X-0.240000X-0.060000X0.240000X-0.060000X0.240000X0.060000X-0.240000X0.060000X0*%
%ADD46FreePoly0,0.000000*%
%ADD47RoundRect,0.090000X0.210000X-0.360000X0.210000X0.360000X-0.210000X0.360000X-0.210000X-0.360000X0*%
%ADD48FreePoly1,90.000000*%
%ADD49RoundRect,0.060000X0.540000X-0.640000X0.540000X0.640000X-0.540000X0.640000X-0.540000X-0.640000X0*%
%ADD50RoundRect,0.290000X1.160000X2.410000X-1.160000X2.410000X-1.160000X-2.410000X1.160000X-2.410000X0*%
%ADD51RoundRect,0.250000X0.850000X0.350000X-0.850000X0.350000X-0.850000X-0.350000X0.850000X-0.350000X0*%
%ADD52RoundRect,0.249997X2.950003X2.650003X-2.950003X2.650003X-2.950003X-2.650003X2.950003X-2.650003X0*%
%ADD53RoundRect,0.090000X-0.360000X-0.210000X0.360000X-0.210000X0.360000X0.210000X-0.360000X0.210000X0*%
%ADD54RoundRect,0.090000X0.560000X0.210000X-0.560000X0.210000X-0.560000X-0.210000X0.560000X-0.210000X0*%
%ADD55RoundRect,0.062500X0.062500X-0.375000X0.062500X0.375000X-0.062500X0.375000X-0.062500X-0.375000X0*%
%ADD56RoundRect,0.062500X0.375000X-0.062500X0.375000X0.062500X-0.375000X0.062500X-0.375000X-0.062500X0*%
%ADD57R,3.450000X3.450000*%
%ADD58RoundRect,0.062500X-0.375000X-0.062500X0.375000X-0.062500X0.375000X0.062500X-0.375000X0.062500X0*%
%ADD59RoundRect,0.062500X-0.062500X-0.375000X0.062500X-0.375000X0.062500X0.375000X-0.062500X0.375000X0*%
%ADD60R,1.600000X1.600000*%
%ADD61RoundRect,0.150000X-0.600000X0.600000X-0.600000X-0.600000X0.600000X-0.600000X0.600000X0.600000X0*%
%ADD62RoundRect,0.090000X-0.210000X0.885000X-0.210000X-0.885000X0.210000X-0.885000X0.210000X0.885000X0*%
%ADD63RoundRect,0.250000X0.400000X0.600000X-0.400000X0.600000X-0.400000X-0.600000X0.400000X-0.600000X0*%
%ADD64RoundRect,0.090000X0.210000X-0.560000X0.210000X0.560000X-0.210000X0.560000X-0.210000X-0.560000X0*%
%ADD65RoundRect,0.180000X1.020000X0.720000X-1.020000X0.720000X-1.020000X-0.720000X1.020000X-0.720000X0*%
%ADD66R,1.700000X1.700000*%
%ADD67O,1.700000X1.700000*%
%ADD68RoundRect,0.250000X-1.950000X-1.000000X1.950000X-1.000000X1.950000X1.000000X-1.950000X1.000000X0*%
G04 APERTURE END LIST*
D10*
G36*
X150221402Y-67503234D02*
G01*
X150251652Y-67531941D01*
X150291658Y-67608411D01*
X150293468Y-67734488D01*
X150257225Y-67810429D01*
X150228518Y-67840679D01*
X150152712Y-67880337D01*
X149981359Y-67881353D01*
X149974507Y-67880144D01*
X149968710Y-67881428D01*
X149806819Y-67882387D01*
X149805848Y-67468293D01*
X150143992Y-67466289D01*
X150221402Y-67503234D01*
G37*
G36*
X163364258Y-67503234D02*
G01*
X163394508Y-67531941D01*
X163434514Y-67608411D01*
X163436324Y-67734488D01*
X163400081Y-67810429D01*
X163371374Y-67840679D01*
X163295568Y-67880337D01*
X163124215Y-67881353D01*
X163117363Y-67880144D01*
X163111566Y-67881428D01*
X162949675Y-67882387D01*
X162948704Y-67468293D01*
X163286848Y-67466289D01*
X163364258Y-67503234D01*
G37*
G36*
X165935171Y-68167051D02*
G01*
X165736318Y-68168005D01*
X165835165Y-67869245D01*
X165935171Y-68167051D01*
G37*
G36*
X152757115Y-65588318D02*
G01*
X152787365Y-65617025D01*
X152827097Y-65692971D01*
X152829728Y-66032712D01*
X152792938Y-66109799D01*
X152764231Y-66140049D01*
X152687759Y-66180056D01*
X152561682Y-66181866D01*
X152485741Y-66145623D01*
X152455491Y-66116916D01*
X152415758Y-66040968D01*
X152413127Y-65701227D01*
X152449917Y-65624141D01*
X152478623Y-65593892D01*
X152555098Y-65553883D01*
X152681171Y-65552073D01*
X152757115Y-65588318D01*
G37*
G36*
X155615122Y-66179854D02*
G01*
X155348297Y-66182296D01*
X155296549Y-66157599D01*
X155272385Y-66111408D01*
X155271277Y-66056259D01*
X155295084Y-66006378D01*
X155340398Y-65982672D01*
X155614247Y-65980166D01*
X155615122Y-66179854D01*
G37*
G36*
X164399182Y-65087941D02*
G01*
X164487512Y-65173643D01*
X164541150Y-65378684D01*
X164544193Y-65831878D01*
X164491079Y-66054609D01*
X164409307Y-66138889D01*
X164330871Y-66179923D01*
X164133660Y-66182128D01*
X164057960Y-66145999D01*
X163969630Y-66060296D01*
X163915993Y-65855256D01*
X163912950Y-65402060D01*
X163966064Y-65179330D01*
X164047835Y-65095052D01*
X164126274Y-65054016D01*
X164323482Y-65051811D01*
X164399182Y-65087941D01*
G37*
G36*
X165838988Y-65098841D02*
G01*
X165929062Y-65186234D01*
X165977815Y-65279425D01*
X166041245Y-65521902D01*
X166043676Y-65691189D01*
X165985940Y-65933303D01*
X165936172Y-66037581D01*
X165845646Y-66130884D01*
X165705694Y-66179679D01*
X165558492Y-66181026D01*
X165555847Y-65052782D01*
X165690349Y-65051551D01*
X165838988Y-65098841D01*
G37*
G36*
X154257115Y-65088318D02*
G01*
X154287365Y-65117025D01*
X154327371Y-65193495D01*
X154329181Y-65319572D01*
X154292938Y-65395513D01*
X154264231Y-65425763D01*
X154188425Y-65465421D01*
X154017072Y-65466437D01*
X154010220Y-65465228D01*
X154004423Y-65466512D01*
X153842532Y-65467471D01*
X153841561Y-65053377D01*
X154179705Y-65051373D01*
X154257115Y-65088318D01*
G37*
G36*
X158613743Y-65752135D02*
G01*
X158414890Y-65753089D01*
X158513737Y-65454329D01*
X158613743Y-65752135D01*
G37*
G36*
X169421396Y-69156886D02*
G01*
X149246429Y-69156886D01*
X149246429Y-67281886D01*
X149433929Y-67281886D01*
X149437532Y-68818465D01*
X149465528Y-68886055D01*
X149517260Y-68937787D01*
X149584850Y-68965783D01*
X149658008Y-68965783D01*
X149725598Y-68937787D01*
X149777330Y-68886055D01*
X149805326Y-68818465D01*
X149808929Y-68781886D01*
X149807691Y-68253996D01*
X149880339Y-68253565D01*
X150348894Y-68917311D01*
X150410590Y-68956628D01*
X150482637Y-68969342D01*
X150554063Y-68953517D01*
X150613997Y-68911564D01*
X150653314Y-68849868D01*
X150666028Y-68777821D01*
X150650203Y-68706395D01*
X150632178Y-68674362D01*
X150309958Y-68217911D01*
X150420311Y-68160179D01*
X150439885Y-68152072D01*
X150447052Y-68146190D01*
X150450673Y-68144296D01*
X150453914Y-68140558D01*
X150468298Y-68128755D01*
X150541353Y-68051768D01*
X150555268Y-68039701D01*
X150560119Y-68031993D01*
X150563044Y-68028912D01*
X150564938Y-68024339D01*
X150574849Y-68008595D01*
X150632291Y-67888236D01*
X150634473Y-67886055D01*
X150641963Y-67867969D01*
X150659413Y-67831409D01*
X150659890Y-67824689D01*
X150662469Y-67818465D01*
X150666072Y-67781886D01*
X150663383Y-67594700D01*
X150664600Y-67591051D01*
X150663009Y-67568680D01*
X150662994Y-67567600D01*
X150862501Y-67567600D01*
X150864846Y-67684387D01*
X150863973Y-67687007D01*
X150865263Y-67705156D01*
X150866104Y-67747037D01*
X150868682Y-67753261D01*
X150869160Y-67759981D01*
X150882296Y-67794310D01*
X150957422Y-67937913D01*
X150965530Y-67957486D01*
X150971410Y-67964651D01*
X150973305Y-67968273D01*
X150977044Y-67971516D01*
X150988847Y-67985898D01*
X151065831Y-68058953D01*
X151077899Y-68072867D01*
X151085606Y-68077718D01*
X151088689Y-68080644D01*
X151093263Y-68082538D01*
X151109005Y-68092448D01*
X151243183Y-68156487D01*
X151255627Y-68165707D01*
X151282972Y-68175477D01*
X151286190Y-68177013D01*
X151287538Y-68177108D01*
X151290240Y-68178074D01*
X151544906Y-68238803D01*
X151649973Y-68288948D01*
X151680221Y-68317653D01*
X151720472Y-68394592D01*
X151721580Y-68449738D01*
X151685795Y-68524715D01*
X151657090Y-68554965D01*
X151581031Y-68594755D01*
X151302508Y-68597304D01*
X151073452Y-68524431D01*
X151000477Y-68529616D01*
X150935041Y-68562335D01*
X150887108Y-68617603D01*
X150863974Y-68687007D01*
X150869159Y-68759982D01*
X150901878Y-68825418D01*
X150957146Y-68873351D01*
X150990709Y-68888336D01*
X151206401Y-68956957D01*
X151227708Y-68965783D01*
X151237025Y-68966700D01*
X151240836Y-68967913D01*
X151245772Y-68967562D01*
X151264287Y-68969386D01*
X151593359Y-68966374D01*
X151597977Y-68967914D01*
X151623517Y-68966098D01*
X151658008Y-68965783D01*
X151664233Y-68963204D01*
X151670952Y-68962727D01*
X151705281Y-68949592D01*
X151848886Y-68874464D01*
X151868458Y-68866357D01*
X151875623Y-68860476D01*
X151879245Y-68858582D01*
X151882487Y-68854843D01*
X151896870Y-68843040D01*
X151969925Y-68766055D01*
X151983839Y-68753988D01*
X151988690Y-68746280D01*
X151989614Y-68745307D01*
X152223246Y-68745307D01*
X152223246Y-68818465D01*
X152251242Y-68886055D01*
X152302974Y-68937787D01*
X152331685Y-68949679D01*
X152370563Y-68965783D01*
X152370564Y-68965783D01*
X152407143Y-68969386D01*
X153372294Y-68965783D01*
X153439884Y-68937787D01*
X153491616Y-68886055D01*
X153519612Y-68818465D01*
X153519612Y-68745307D01*
X153491616Y-68677717D01*
X153439884Y-68625985D01*
X153372294Y-68597989D01*
X153335715Y-68594386D01*
X152856187Y-68596176D01*
X153373756Y-68075611D01*
X153379245Y-68072867D01*
X153398099Y-68051127D01*
X153420186Y-68028913D01*
X153422764Y-68022687D01*
X153427178Y-68017599D01*
X153442164Y-67984036D01*
X153510787Y-67768341D01*
X153519612Y-67747037D01*
X153520529Y-67737720D01*
X153521742Y-67733910D01*
X153521391Y-67728973D01*
X153523215Y-67710458D01*
X153520869Y-67593669D01*
X153521743Y-67591050D01*
X153520452Y-67572899D01*
X153519612Y-67531021D01*
X153517033Y-67524796D01*
X153516556Y-67518075D01*
X153503420Y-67483747D01*
X153428291Y-67340140D01*
X153420186Y-67320573D01*
X153414306Y-67313408D01*
X153412410Y-67309784D01*
X153408668Y-67306539D01*
X153396868Y-67292160D01*
X153347495Y-67245307D01*
X153651817Y-67245307D01*
X153651817Y-67318465D01*
X153679813Y-67386055D01*
X153731545Y-67437787D01*
X153799135Y-67465783D01*
X153835714Y-67469386D01*
X154355237Y-67467446D01*
X154128003Y-67729527D01*
X154108385Y-67749146D01*
X154105999Y-67754906D01*
X154101802Y-67759747D01*
X154092045Y-67788594D01*
X154080389Y-67816736D01*
X154080389Y-67823058D01*
X154078363Y-67829049D01*
X154080389Y-67859442D01*
X154080389Y-67889894D01*
X154082808Y-67895734D01*
X154083229Y-67902047D01*
X154096730Y-67929346D01*
X154108385Y-67957484D01*
X154112858Y-67961957D01*
X154115661Y-67967624D01*
X154138573Y-67987672D01*
X154160117Y-68009216D01*
X154165960Y-68011636D01*
X154170718Y-68015799D01*
X154199565Y-68025555D01*
X154227707Y-68037212D01*
X154236627Y-68038090D01*
X154240020Y-68039238D01*
X154244943Y-68038909D01*
X154264286Y-68040815D01*
X154431171Y-68038418D01*
X154507117Y-68074664D01*
X154537363Y-68103367D01*
X154577155Y-68179428D01*
X154579612Y-68447872D01*
X154542937Y-68524715D01*
X154514232Y-68554965D01*
X154438283Y-68594698D01*
X154098543Y-68597329D01*
X154021456Y-68560539D01*
X153939884Y-68483129D01*
X153872294Y-68455132D01*
X153799134Y-68455132D01*
X153731544Y-68483129D01*
X153679814Y-68534859D01*
X153651817Y-68602449D01*
X153651817Y-68675609D01*
X153679814Y-68743199D01*
X153703131Y-68771612D01*
X153780117Y-68844667D01*
X153792185Y-68858582D01*
X153799892Y-68863433D01*
X153802974Y-68866358D01*
X153807546Y-68868252D01*
X153823291Y-68878163D01*
X153943649Y-68935605D01*
X153945831Y-68937787D01*
X153963916Y-68945277D01*
X154000477Y-68962727D01*
X154007196Y-68963204D01*
X154013421Y-68965783D01*
X154050000Y-68969386D01*
X154450234Y-68966285D01*
X154455119Y-68967914D01*
X154481424Y-68966044D01*
X154515150Y-68965783D01*
X154521375Y-68963204D01*
X154528094Y-68962727D01*
X154562423Y-68949592D01*
X154706028Y-68874464D01*
X154725600Y-68866357D01*
X154732765Y-68860476D01*
X154736387Y-68858582D01*
X154739629Y-68854843D01*
X154754012Y-68843040D01*
X154827067Y-68766055D01*
X154840981Y-68753988D01*
X154845832Y-68746280D01*
X154846756Y-68745307D01*
X155080388Y-68745307D01*
X155080388Y-68818465D01*
X155108384Y-68886055D01*
X155160116Y-68937787D01*
X155188827Y-68949679D01*
X155227705Y-68965783D01*
X155227706Y-68965783D01*
X155264285Y-68969386D01*
X156229436Y-68965783D01*
X156297026Y-68937787D01*
X156348758Y-68886055D01*
X156376754Y-68818465D01*
X156376754Y-68745307D01*
X156348758Y-68677717D01*
X156297026Y-68625985D01*
X156229436Y-68597989D01*
X156192857Y-68594386D01*
X155713329Y-68596176D01*
X156230898Y-68075611D01*
X156236387Y-68072867D01*
X156255241Y-68051127D01*
X156277328Y-68028913D01*
X156279906Y-68022687D01*
X156284320Y-68017599D01*
X156299306Y-67984036D01*
X156367929Y-67768341D01*
X156376754Y-67747037D01*
X156377671Y-67737720D01*
X156378884Y-67733910D01*
X156378533Y-67728973D01*
X156380357Y-67710458D01*
X156378011Y-67593669D01*
X156378885Y-67591050D01*
X156377594Y-67572899D01*
X156376754Y-67531021D01*
X156374175Y-67524796D01*
X156373698Y-67518075D01*
X156360562Y-67483747D01*
X156285433Y-67340140D01*
X156277328Y-67320573D01*
X156271448Y-67313408D01*
X156269552Y-67309784D01*
X156265810Y-67306539D01*
X156254010Y-67292160D01*
X156243183Y-67281886D01*
X157791070Y-67281886D01*
X157794673Y-68818465D01*
X157822669Y-68886055D01*
X157874401Y-68937787D01*
X157941991Y-68965783D01*
X158015149Y-68965783D01*
X158082739Y-68937787D01*
X158134471Y-68886055D01*
X158162467Y-68818465D01*
X158166070Y-68781886D01*
X158162553Y-67281886D01*
X158505356Y-67281886D01*
X158508959Y-68818465D01*
X158536955Y-68886055D01*
X158588687Y-68937787D01*
X158656277Y-68965783D01*
X158729435Y-68965783D01*
X158797025Y-68937787D01*
X158848757Y-68886055D01*
X158876753Y-68818465D01*
X158880356Y-68781886D01*
X158878479Y-67981765D01*
X159384848Y-68863724D01*
X159394098Y-68886055D01*
X159402484Y-68894441D01*
X159408480Y-68904884D01*
X159428196Y-68920153D01*
X159445830Y-68937787D01*
X159456870Y-68942359D01*
X159466321Y-68949679D01*
X159490385Y-68956242D01*
X159513420Y-68965783D01*
X159525369Y-68965783D01*
X159536904Y-68968929D01*
X159561649Y-68965783D01*
X159586578Y-68965783D01*
X159597619Y-68961209D01*
X159609478Y-68959702D01*
X159631129Y-68947329D01*
X159654168Y-68937787D01*
X159662620Y-68929334D01*
X159672997Y-68923405D01*
X159688266Y-68903688D01*
X159705900Y-68886055D01*
X159710472Y-68875014D01*
X159717792Y-68865564D01*
X159724354Y-68841500D01*
X159733896Y-68818465D01*
X159735738Y-68799757D01*
X159737041Y-68794982D01*
X159736572Y-68791294D01*
X159737499Y-68781886D01*
X159733896Y-67245307D01*
X159866103Y-67245307D01*
X159866103Y-67318465D01*
X159894099Y-67386055D01*
X159945831Y-67437787D01*
X160013421Y-67465783D01*
X160050000Y-67469386D01*
X160291508Y-67468412D01*
X160294674Y-68818465D01*
X160322670Y-68886055D01*
X160374402Y-68937787D01*
X160441992Y-68965783D01*
X160515150Y-68965783D01*
X160582740Y-68937787D01*
X160634472Y-68886055D01*
X160662468Y-68818465D01*
X160666071Y-68781886D01*
X160662987Y-67466914D01*
X160943722Y-67465783D01*
X161011312Y-67437787D01*
X161063044Y-67386055D01*
X161091040Y-67318465D01*
X161091040Y-67281886D01*
X161219642Y-67281886D01*
X161223245Y-68818465D01*
X161251241Y-68886055D01*
X161302973Y-68937787D01*
X161370563Y-68965783D01*
X161407142Y-68969386D01*
X162158007Y-68965783D01*
X162225597Y-68937787D01*
X162277329Y-68886055D01*
X162305325Y-68818465D01*
X162305325Y-68745307D01*
X162277329Y-68677717D01*
X162225597Y-68625985D01*
X162158007Y-68597989D01*
X162121428Y-68594386D01*
X161594208Y-68596915D01*
X161593236Y-68182422D01*
X161943721Y-68180069D01*
X162011311Y-68152073D01*
X162063043Y-68100341D01*
X162091039Y-68032751D01*
X162091039Y-67959593D01*
X162063043Y-67892003D01*
X162011311Y-67840271D01*
X161943721Y-67812275D01*
X161907142Y-67808672D01*
X161592364Y-67810785D01*
X161591562Y-67468501D01*
X162158007Y-67465783D01*
X162225597Y-67437787D01*
X162277329Y-67386055D01*
X162305325Y-67318465D01*
X162305325Y-67281886D01*
X162576785Y-67281886D01*
X162580388Y-68818465D01*
X162608384Y-68886055D01*
X162660116Y-68937787D01*
X162727706Y-68965783D01*
X162800864Y-68965783D01*
X162868454Y-68937787D01*
X162920186Y-68886055D01*
X162948182Y-68818465D01*
X162951785Y-68781886D01*
X162950547Y-68253996D01*
X163023195Y-68253565D01*
X163491750Y-68917311D01*
X163553446Y-68956628D01*
X163625493Y-68969342D01*
X163696919Y-68953517D01*
X163756853Y-68911564D01*
X163796170Y-68849868D01*
X163808884Y-68777821D01*
X163793059Y-68706395D01*
X163775034Y-68674362D01*
X163452814Y-68217911D01*
X163563167Y-68160179D01*
X163582741Y-68152072D01*
X163589908Y-68146190D01*
X163593529Y-68144296D01*
X163596770Y-68140558D01*
X163611154Y-68128755D01*
X163684209Y-68051768D01*
X163698124Y-68039701D01*
X163702975Y-68031993D01*
X163705900Y-68028912D01*
X163707794Y-68024339D01*
X163717705Y-68008595D01*
X163775147Y-67888236D01*
X163777329Y-67886055D01*
X163784819Y-67867969D01*
X163802269Y-67831409D01*
X163802746Y-67824689D01*
X163805325Y-67818465D01*
X163808928Y-67781886D01*
X163806239Y-67594700D01*
X163807456Y-67591051D01*
X163805865Y-67568680D01*
X163805325Y-67531021D01*
X163802746Y-67524796D01*
X163802269Y-67518077D01*
X163789133Y-67483748D01*
X163714006Y-67340144D01*
X163705899Y-67320572D01*
X163700018Y-67313407D01*
X163698124Y-67309785D01*
X163694384Y-67306541D01*
X163682581Y-67292159D01*
X163671755Y-67281886D01*
X164076785Y-67281886D01*
X164080388Y-68818465D01*
X164108384Y-68886055D01*
X164160116Y-68937787D01*
X164227706Y-68965783D01*
X164300864Y-68965783D01*
X164368454Y-68937787D01*
X164420186Y-68886055D01*
X164448182Y-68818465D01*
X164451785Y-68781886D01*
X164451730Y-68758435D01*
X165149687Y-68758435D01*
X165154872Y-68831409D01*
X165187590Y-68896846D01*
X165242859Y-68944779D01*
X165312263Y-68967913D01*
X165385237Y-68962728D01*
X165450674Y-68930010D01*
X165498607Y-68874741D01*
X165513592Y-68841179D01*
X165613184Y-68540169D01*
X166059748Y-68538026D01*
X166172821Y-68874741D01*
X166220755Y-68930010D01*
X166286191Y-68962728D01*
X166359166Y-68967913D01*
X166428569Y-68944779D01*
X166483838Y-68896846D01*
X166516556Y-68831409D01*
X166521741Y-68758435D01*
X166513592Y-68722593D01*
X166245666Y-67924743D01*
X166576785Y-67924743D01*
X166579730Y-68129838D01*
X166577007Y-68148143D01*
X166580314Y-68170516D01*
X166580388Y-68175608D01*
X166581445Y-68178159D01*
X166582383Y-68184504D01*
X166653636Y-68456889D01*
X166654872Y-68474267D01*
X166665336Y-68501615D01*
X166666178Y-68504831D01*
X166666983Y-68505917D01*
X166668008Y-68508596D01*
X166743138Y-68652206D01*
X166751242Y-68671769D01*
X166757120Y-68678932D01*
X166759018Y-68682559D01*
X166762760Y-68685804D01*
X166774559Y-68700182D01*
X166900219Y-68822104D01*
X166901876Y-68825418D01*
X166918440Y-68839784D01*
X166945829Y-68866358D01*
X166952054Y-68868936D01*
X166957144Y-68873351D01*
X166990707Y-68888336D01*
X167206399Y-68956957D01*
X167227706Y-68965783D01*
X167237023Y-68966700D01*
X167240834Y-68967913D01*
X167245770Y-68967562D01*
X167264285Y-68969386D01*
X167410112Y-68966457D01*
X167430593Y-68967913D01*
X167439596Y-68965865D01*
X167443721Y-68965783D01*
X167448296Y-68963887D01*
X167466434Y-68959764D01*
X167654039Y-68894355D01*
X167658009Y-68894355D01*
X167679112Y-68885613D01*
X167714283Y-68873351D01*
X167719374Y-68868935D01*
X167725599Y-68866357D01*
X167754011Y-68843040D01*
X167848757Y-68743198D01*
X167876753Y-68675608D01*
X167876753Y-68602448D01*
X167848755Y-68534858D01*
X167797024Y-68483128D01*
X167729435Y-68455132D01*
X167656275Y-68455132D01*
X167588685Y-68483130D01*
X167560272Y-68506448D01*
X167522291Y-68546471D01*
X167383503Y-68594860D01*
X167300089Y-68596535D01*
X167153867Y-68550015D01*
X167063795Y-68462622D01*
X167015041Y-68369430D01*
X166951611Y-68126953D01*
X166949180Y-67957666D01*
X167006916Y-67715551D01*
X167056684Y-67611275D01*
X167147211Y-67517972D01*
X167287924Y-67468911D01*
X167371336Y-67467236D01*
X167518527Y-67514065D01*
X167588686Y-67580643D01*
X167656276Y-67608640D01*
X167729436Y-67608640D01*
X167797025Y-67580643D01*
X167848756Y-67528912D01*
X167876753Y-67461323D01*
X167876753Y-67388163D01*
X167848756Y-67320573D01*
X167825438Y-67292160D01*
X167814611Y-67281886D01*
X168148213Y-67281886D01*
X168151816Y-68818465D01*
X168179812Y-68886055D01*
X168231544Y-68937787D01*
X168299134Y-68965783D01*
X168335713Y-68969386D01*
X169086578Y-68965783D01*
X169154168Y-68937787D01*
X169205900Y-68886055D01*
X169233896Y-68818465D01*
X169233896Y-68745307D01*
X169205900Y-68677717D01*
X169154168Y-68625985D01*
X169086578Y-68597989D01*
X169049999Y-68594386D01*
X168522779Y-68596915D01*
X168521807Y-68182422D01*
X168872292Y-68180069D01*
X168939882Y-68152073D01*
X168991614Y-68100341D01*
X169019610Y-68032751D01*
X169019610Y-67959593D01*
X168991614Y-67892003D01*
X168939882Y-67840271D01*
X168872292Y-67812275D01*
X168835713Y-67808672D01*
X168520935Y-67810785D01*
X168520133Y-67468501D01*
X169086578Y-67465783D01*
X169154168Y-67437787D01*
X169205900Y-67386055D01*
X169233896Y-67318465D01*
X169233896Y-67245307D01*
X169205900Y-67177717D01*
X169154168Y-67125985D01*
X169086578Y-67097989D01*
X169049999Y-67094386D01*
X168299134Y-67097989D01*
X168231544Y-67125985D01*
X168179812Y-67177717D01*
X168151816Y-67245307D01*
X168148213Y-67281886D01*
X167814611Y-67281886D01*
X167770282Y-67239819D01*
X167769551Y-67238356D01*
X167760134Y-67230189D01*
X167725598Y-67197415D01*
X167719372Y-67194836D01*
X167714283Y-67190422D01*
X167680721Y-67175437D01*
X167465025Y-67106813D01*
X167443721Y-67097989D01*
X167434404Y-67097071D01*
X167430594Y-67095859D01*
X167425657Y-67096209D01*
X167407142Y-67094386D01*
X167261313Y-67097314D01*
X167240833Y-67095859D01*
X167231828Y-67097906D01*
X167227706Y-67097989D01*
X167223131Y-67099883D01*
X167204992Y-67104008D01*
X167017387Y-67169418D01*
X167013419Y-67169418D01*
X166992319Y-67178157D01*
X166957144Y-67190422D01*
X166952053Y-67194836D01*
X166945829Y-67197415D01*
X166917416Y-67220733D01*
X166776002Y-67366482D01*
X166759018Y-67381213D01*
X166754044Y-67389113D01*
X166751242Y-67392002D01*
X166749347Y-67396574D01*
X166739437Y-67412319D01*
X166675398Y-67546496D01*
X166666178Y-67558941D01*
X166656406Y-67586290D01*
X166654872Y-67589505D01*
X166654776Y-67590852D01*
X166653811Y-67593554D01*
X166587855Y-67870134D01*
X166580388Y-67888164D01*
X166578158Y-67910801D01*
X166577007Y-67915629D01*
X166577413Y-67918361D01*
X166576785Y-67924743D01*
X166245666Y-67924743D01*
X166017467Y-67245196D01*
X166016556Y-67232363D01*
X166006208Y-67211668D01*
X165998607Y-67189031D01*
X165989830Y-67178911D01*
X165983838Y-67166926D01*
X165966077Y-67151522D01*
X165950674Y-67133762D01*
X165938688Y-67127769D01*
X165928569Y-67118993D01*
X165906268Y-67111559D01*
X165885237Y-67101044D01*
X165871872Y-67100094D01*
X165859166Y-67095859D01*
X165835714Y-67097525D01*
X165812263Y-67095859D01*
X165799556Y-67100094D01*
X165786191Y-67101044D01*
X165765159Y-67111559D01*
X165742859Y-67118993D01*
X165732738Y-67127770D01*
X165720755Y-67133762D01*
X165705353Y-67151520D01*
X165687590Y-67166926D01*
X165681597Y-67178911D01*
X165672821Y-67189031D01*
X165657836Y-67222593D01*
X165300407Y-68302894D01*
X165294674Y-68316736D01*
X165294674Y-68320222D01*
X165149687Y-68758435D01*
X164451730Y-68758435D01*
X164450379Y-68182422D01*
X164800864Y-68180069D01*
X164868454Y-68152073D01*
X164920186Y-68100341D01*
X164948182Y-68032751D01*
X164948182Y-67959593D01*
X164920186Y-67892003D01*
X164868454Y-67840271D01*
X164800864Y-67812275D01*
X164764285Y-67808672D01*
X164449507Y-67810785D01*
X164448705Y-67468501D01*
X165015150Y-67465783D01*
X165082740Y-67437787D01*
X165134472Y-67386055D01*
X165162468Y-67318465D01*
X165162468Y-67245307D01*
X165134472Y-67177717D01*
X165082740Y-67125985D01*
X165015150Y-67097989D01*
X164978571Y-67094386D01*
X164227706Y-67097989D01*
X164160116Y-67125985D01*
X164108384Y-67177717D01*
X164080388Y-67245307D01*
X164076785Y-67281886D01*
X163671755Y-67281886D01*
X163605600Y-67219108D01*
X163593530Y-67205191D01*
X163585819Y-67200337D01*
X163582739Y-67197414D01*
X163578167Y-67195520D01*
X163562424Y-67185610D01*
X163442064Y-67128166D01*
X163439883Y-67125985D01*
X163421802Y-67118495D01*
X163385238Y-67101045D01*
X163378517Y-67100567D01*
X163372293Y-67097989D01*
X163335714Y-67094386D01*
X162727706Y-67097989D01*
X162660116Y-67125985D01*
X162608384Y-67177717D01*
X162580388Y-67245307D01*
X162576785Y-67281886D01*
X162305325Y-67281886D01*
X162305325Y-67245307D01*
X162277329Y-67177717D01*
X162225597Y-67125985D01*
X162158007Y-67097989D01*
X162121428Y-67094386D01*
X161370563Y-67097989D01*
X161302973Y-67125985D01*
X161251241Y-67177717D01*
X161223245Y-67245307D01*
X161219642Y-67281886D01*
X161091040Y-67281886D01*
X161091040Y-67245307D01*
X161063044Y-67177717D01*
X161011312Y-67125985D01*
X160943722Y-67097989D01*
X160907143Y-67094386D01*
X160013421Y-67097989D01*
X159945831Y-67125985D01*
X159894099Y-67177717D01*
X159866103Y-67245307D01*
X159733896Y-67245307D01*
X159705900Y-67177717D01*
X159654168Y-67125985D01*
X159586578Y-67097989D01*
X159513420Y-67097989D01*
X159445830Y-67125985D01*
X159394098Y-67177717D01*
X159366102Y-67245307D01*
X159362499Y-67281886D01*
X159364375Y-68082006D01*
X158858006Y-67200047D01*
X158848757Y-67177717D01*
X158840370Y-67169330D01*
X158834375Y-67158888D01*
X158814658Y-67143618D01*
X158797025Y-67125985D01*
X158785984Y-67121412D01*
X158776534Y-67114093D01*
X158752471Y-67107530D01*
X158729435Y-67097989D01*
X158717483Y-67097989D01*
X158705951Y-67094844D01*
X158681212Y-67097989D01*
X158656277Y-67097989D01*
X158645235Y-67102562D01*
X158633377Y-67104070D01*
X158611725Y-67116442D01*
X158588687Y-67125985D01*
X158580234Y-67134437D01*
X158569858Y-67140367D01*
X158554588Y-67160083D01*
X158536955Y-67177717D01*
X158532382Y-67188757D01*
X158525063Y-67198208D01*
X158518500Y-67222270D01*
X158508959Y-67245307D01*
X158507116Y-67264016D01*
X158505814Y-67268791D01*
X158506282Y-67272477D01*
X158505356Y-67281886D01*
X158162553Y-67281886D01*
X158162467Y-67245307D01*
X158134471Y-67177717D01*
X158082739Y-67125985D01*
X158015149Y-67097989D01*
X157941991Y-67097989D01*
X157874401Y-67125985D01*
X157822669Y-67177717D01*
X157794673Y-67245307D01*
X157791070Y-67281886D01*
X156243183Y-67281886D01*
X156177023Y-67219102D01*
X156164958Y-67205191D01*
X156157253Y-67200340D01*
X156154170Y-67197415D01*
X156149594Y-67195519D01*
X156133852Y-67185610D01*
X156013492Y-67128166D01*
X156011311Y-67125985D01*
X155993230Y-67118495D01*
X155956666Y-67101045D01*
X155949945Y-67100567D01*
X155943721Y-67097989D01*
X155907142Y-67094386D01*
X155578068Y-67097397D01*
X155573450Y-67095858D01*
X155547910Y-67097673D01*
X155513421Y-67097989D01*
X155507196Y-67100567D01*
X155500476Y-67101045D01*
X155466147Y-67114181D01*
X155322544Y-67189307D01*
X155302972Y-67197415D01*
X155295805Y-67203296D01*
X155292184Y-67205191D01*
X155288941Y-67208929D01*
X155274559Y-67220733D01*
X155179814Y-67320573D01*
X155151817Y-67388163D01*
X155151817Y-67461323D01*
X155179814Y-67528913D01*
X155231544Y-67580643D01*
X155299134Y-67608640D01*
X155372294Y-67608640D01*
X155439884Y-67580643D01*
X155468297Y-67557326D01*
X155514339Y-67508807D01*
X155590398Y-67469016D01*
X155858843Y-67466559D01*
X155935684Y-67503233D01*
X155965935Y-67531940D01*
X156006185Y-67608877D01*
X156007506Y-67674652D01*
X155961309Y-67819855D01*
X155108385Y-68677716D01*
X155108384Y-68677717D01*
X155092642Y-68715723D01*
X155081262Y-68743198D01*
X155080388Y-68745307D01*
X154846756Y-68745307D01*
X154848758Y-68743198D01*
X154850652Y-68738623D01*
X154860562Y-68722882D01*
X154918006Y-68602521D01*
X154920187Y-68600341D01*
X154927673Y-68582266D01*
X154945127Y-68545697D01*
X154945604Y-68538975D01*
X154948183Y-68532751D01*
X154951786Y-68496172D01*
X154948774Y-68167097D01*
X154950314Y-68162479D01*
X154948498Y-68136938D01*
X154948183Y-68102450D01*
X154945604Y-68096225D01*
X154945127Y-68089504D01*
X154931991Y-68055176D01*
X154856863Y-67911572D01*
X154848758Y-67892003D01*
X154842876Y-67884836D01*
X154840981Y-67881213D01*
X154837240Y-67877968D01*
X154825440Y-67863590D01*
X154748453Y-67790531D01*
X154736387Y-67776619D01*
X154728682Y-67771768D01*
X154725600Y-67768844D01*
X154721025Y-67766949D01*
X154705281Y-67757038D01*
X154627930Y-67720121D01*
X154900575Y-67405666D01*
X154920187Y-67386055D01*
X154922572Y-67380296D01*
X154926770Y-67375455D01*
X154936528Y-67346602D01*
X154948183Y-67318465D01*
X154948183Y-67312143D01*
X154950209Y-67306153D01*
X154948183Y-67275765D01*
X154948183Y-67245307D01*
X154945762Y-67239463D01*
X154945342Y-67233155D01*
X154931846Y-67205865D01*
X154920187Y-67177717D01*
X154915713Y-67173243D01*
X154912911Y-67167577D01*
X154889998Y-67147528D01*
X154868455Y-67125985D01*
X154862611Y-67123564D01*
X154857854Y-67119402D01*
X154829006Y-67109645D01*
X154800865Y-67097989D01*
X154791944Y-67097110D01*
X154788552Y-67095963D01*
X154783628Y-67096291D01*
X154764286Y-67094386D01*
X153799135Y-67097989D01*
X153731545Y-67125985D01*
X153679813Y-67177717D01*
X153651817Y-67245307D01*
X153347495Y-67245307D01*
X153319881Y-67219102D01*
X153307816Y-67205191D01*
X153300111Y-67200340D01*
X153297028Y-67197415D01*
X153292452Y-67195519D01*
X153276710Y-67185610D01*
X153156350Y-67128166D01*
X153154169Y-67125985D01*
X153136088Y-67118495D01*
X153099524Y-67101045D01*
X153092803Y-67100567D01*
X153086579Y-67097989D01*
X153050000Y-67094386D01*
X152720926Y-67097397D01*
X152716308Y-67095858D01*
X152690768Y-67097673D01*
X152656279Y-67097989D01*
X152650054Y-67100567D01*
X152643334Y-67101045D01*
X152609005Y-67114181D01*
X152465402Y-67189307D01*
X152445830Y-67197415D01*
X152438663Y-67203296D01*
X152435042Y-67205191D01*
X152431799Y-67208929D01*
X152417417Y-67220733D01*
X152322672Y-67320573D01*
X152294675Y-67388163D01*
X152294675Y-67461323D01*
X152322672Y-67528913D01*
X152374402Y-67580643D01*
X152441992Y-67608640D01*
X152515152Y-67608640D01*
X152582742Y-67580643D01*
X152611155Y-67557326D01*
X152657197Y-67508807D01*
X152733256Y-67469016D01*
X153001701Y-67466559D01*
X153078542Y-67503233D01*
X153108793Y-67531940D01*
X153149043Y-67608877D01*
X153150364Y-67674652D01*
X153104167Y-67819855D01*
X152251243Y-68677716D01*
X152251242Y-68677717D01*
X152235500Y-68715723D01*
X152224120Y-68743198D01*
X152223246Y-68745307D01*
X151989614Y-68745307D01*
X151991616Y-68743198D01*
X151993510Y-68738623D01*
X152003420Y-68722882D01*
X152060864Y-68602521D01*
X152063045Y-68600341D01*
X152070531Y-68582266D01*
X152087985Y-68545697D01*
X152088462Y-68538975D01*
X152091041Y-68532751D01*
X152094644Y-68496172D01*
X152092298Y-68379384D01*
X152093172Y-68376765D01*
X152091881Y-68358614D01*
X152091041Y-68316736D01*
X152088462Y-68310511D01*
X152087985Y-68303790D01*
X152074849Y-68269462D01*
X151999721Y-68125858D01*
X151991616Y-68106289D01*
X151985734Y-68099122D01*
X151983839Y-68095499D01*
X151980098Y-68092254D01*
X151968298Y-68077876D01*
X151891311Y-68004817D01*
X151879245Y-67990905D01*
X151871540Y-67986054D01*
X151868458Y-67983130D01*
X151863883Y-67981235D01*
X151848139Y-67971324D01*
X151713961Y-67907285D01*
X151701517Y-67898065D01*
X151674167Y-67888293D01*
X151670953Y-67886759D01*
X151669605Y-67886663D01*
X151666904Y-67885698D01*
X151412238Y-67824968D01*
X151307171Y-67774823D01*
X151276920Y-67746117D01*
X151236672Y-67669182D01*
X151235564Y-67614032D01*
X151271347Y-67539057D01*
X151300053Y-67508808D01*
X151376114Y-67469016D01*
X151654635Y-67466467D01*
X151883692Y-67539342D01*
X151956667Y-67534157D01*
X152022103Y-67501439D01*
X152070036Y-67446170D01*
X152093171Y-67376767D01*
X152087986Y-67303792D01*
X152055267Y-67238356D01*
X151999999Y-67190422D01*
X151966437Y-67175437D01*
X151750741Y-67106813D01*
X151729437Y-67097989D01*
X151720120Y-67097071D01*
X151716310Y-67095859D01*
X151711373Y-67096209D01*
X151692858Y-67094386D01*
X151363783Y-67097397D01*
X151359165Y-67095858D01*
X151333624Y-67097673D01*
X151299136Y-67097989D01*
X151292911Y-67100567D01*
X151286190Y-67101045D01*
X151251862Y-67114181D01*
X151108258Y-67189308D01*
X151088689Y-67197414D01*
X151081522Y-67203295D01*
X151077899Y-67205191D01*
X151074654Y-67208931D01*
X151060276Y-67220732D01*
X150987218Y-67297716D01*
X150973305Y-67309785D01*
X150968454Y-67317489D01*
X150965530Y-67320572D01*
X150963635Y-67325146D01*
X150953724Y-67340891D01*
X150896281Y-67461249D01*
X150894100Y-67463431D01*
X150886609Y-67481516D01*
X150869160Y-67518077D01*
X150868682Y-67524796D01*
X150866104Y-67531021D01*
X150862501Y-67567600D01*
X150662994Y-67567600D01*
X150662469Y-67531021D01*
X150659890Y-67524796D01*
X150659413Y-67518077D01*
X150646277Y-67483748D01*
X150571150Y-67340144D01*
X150563043Y-67320572D01*
X150557162Y-67313407D01*
X150555268Y-67309785D01*
X150551528Y-67306541D01*
X150539725Y-67292159D01*
X150462744Y-67219108D01*
X150450674Y-67205191D01*
X150442963Y-67200337D01*
X150439883Y-67197414D01*
X150435311Y-67195520D01*
X150419568Y-67185610D01*
X150299208Y-67128166D01*
X150297027Y-67125985D01*
X150278946Y-67118495D01*
X150242382Y-67101045D01*
X150235661Y-67100567D01*
X150229437Y-67097989D01*
X150192858Y-67094386D01*
X149584850Y-67097989D01*
X149517260Y-67125985D01*
X149465528Y-67177717D01*
X149437532Y-67245307D01*
X149433929Y-67281886D01*
X149246429Y-67281886D01*
X149246429Y-64866970D01*
X150898213Y-64866970D01*
X150901816Y-66403549D01*
X150929812Y-66471139D01*
X150981544Y-66522871D01*
X151049134Y-66550867D01*
X151085713Y-66554470D01*
X151836578Y-66550867D01*
X151904168Y-66522871D01*
X151955900Y-66471139D01*
X151983896Y-66403549D01*
X151983896Y-66330391D01*
X151955900Y-66262801D01*
X151904168Y-66211069D01*
X151836578Y-66183073D01*
X151799999Y-66179470D01*
X151272779Y-66181999D01*
X151271538Y-65652684D01*
X152041071Y-65652684D01*
X152044171Y-66052920D01*
X152042543Y-66057805D01*
X152044412Y-66084110D01*
X152044674Y-66117835D01*
X152047252Y-66124059D01*
X152047730Y-66130779D01*
X152060866Y-66165108D01*
X152135991Y-66308709D01*
X152144099Y-66328283D01*
X152149980Y-66335450D01*
X152151875Y-66339071D01*
X152155612Y-66342312D01*
X152167416Y-66356696D01*
X152244402Y-66429751D01*
X152256470Y-66443666D01*
X152264177Y-66448517D01*
X152267259Y-66451442D01*
X152271831Y-66453336D01*
X152287576Y-66463247D01*
X152407934Y-66520689D01*
X152410116Y-66522871D01*
X152428201Y-66530361D01*
X152464762Y-66547811D01*
X152471481Y-66548288D01*
X152477706Y-66550867D01*
X152514285Y-66554470D01*
X152701470Y-66551781D01*
X152705120Y-66552998D01*
X152727490Y-66551407D01*
X152765150Y-66550867D01*
X152771374Y-66548288D01*
X152778094Y-66547811D01*
X152812423Y-66534675D01*
X152956024Y-66459549D01*
X152975598Y-66451442D01*
X152982765Y-66445560D01*
X152986386Y-66443666D01*
X152989627Y-66439928D01*
X153004011Y-66428125D01*
X153077066Y-66351138D01*
X153090981Y-66339071D01*
X153095832Y-66331363D01*
X153098757Y-66328282D01*
X153100651Y-66323709D01*
X153110562Y-66307965D01*
X153168004Y-66187606D01*
X153170186Y-66185425D01*
X153177676Y-66167339D01*
X153195126Y-66130779D01*
X153195603Y-66124059D01*
X153198182Y-66117835D01*
X153201785Y-66081256D01*
X153198684Y-65681019D01*
X153200313Y-65676135D01*
X153198443Y-65649829D01*
X153198182Y-65616105D01*
X153195603Y-65609880D01*
X153195126Y-65603161D01*
X153181990Y-65568832D01*
X153106863Y-65425228D01*
X153098756Y-65405656D01*
X153092875Y-65398491D01*
X153090981Y-65394869D01*
X153087241Y-65391625D01*
X153075438Y-65377243D01*
X152998457Y-65304192D01*
X152986387Y-65290275D01*
X152978676Y-65285421D01*
X152975596Y-65282498D01*
X152971024Y-65280604D01*
X152955281Y-65270694D01*
X152834921Y-65213250D01*
X152832740Y-65211069D01*
X152814659Y-65203579D01*
X152778095Y-65186129D01*
X152771374Y-65185651D01*
X152765150Y-65183073D01*
X152728571Y-65179470D01*
X152541384Y-65182158D01*
X152537735Y-65180942D01*
X152515363Y-65182532D01*
X152477706Y-65183073D01*
X152471481Y-65185651D01*
X152464760Y-65186129D01*
X152430432Y-65199265D01*
X152286828Y-65274392D01*
X152267259Y-65282498D01*
X152260092Y-65288379D01*
X152256469Y-65290275D01*
X152253224Y-65294015D01*
X152238846Y-65305816D01*
X152165788Y-65382800D01*
X152151875Y-65394869D01*
X152147024Y-65402573D01*
X152144100Y-65405656D01*
X152142205Y-65410230D01*
X152132294Y-65425975D01*
X152074851Y-65546333D01*
X152072670Y-65548515D01*
X152065179Y-65566600D01*
X152047730Y-65603161D01*
X152047252Y-65609880D01*
X152044674Y-65616105D01*
X152041071Y-65652684D01*
X151271538Y-65652684D01*
X151269696Y-64866970D01*
X153469642Y-64866970D01*
X153473245Y-66403549D01*
X153501241Y-66471139D01*
X153552973Y-66522871D01*
X153620563Y-66550867D01*
X153693721Y-66550867D01*
X153761311Y-66522871D01*
X153813043Y-66471139D01*
X153841039Y-66403549D01*
X153844642Y-66366970D01*
X153843404Y-65839080D01*
X153916052Y-65838649D01*
X154384607Y-66502395D01*
X154446303Y-66541712D01*
X154518350Y-66554426D01*
X154589776Y-66538601D01*
X154649710Y-66496648D01*
X154689027Y-66434952D01*
X154701741Y-66362905D01*
X154685916Y-66291479D01*
X154667891Y-66259446D01*
X154491679Y-66009827D01*
X154898214Y-66009827D01*
X154900559Y-66126613D01*
X154899686Y-66129232D01*
X154900976Y-66147381D01*
X154901817Y-66189263D01*
X154904395Y-66195488D01*
X154904873Y-66202207D01*
X154918008Y-66236536D01*
X154988619Y-66371509D01*
X154994250Y-66388399D01*
X155002328Y-66397713D01*
X155009018Y-66410500D01*
X155026779Y-66425904D01*
X155042184Y-66443666D01*
X155060689Y-66455315D01*
X155064285Y-66458434D01*
X155067171Y-66459396D01*
X155073290Y-66463248D01*
X155193651Y-66520691D01*
X155195831Y-66522871D01*
X155213898Y-66530354D01*
X155250477Y-66547812D01*
X155257198Y-66548289D01*
X155263421Y-66550867D01*
X155300000Y-66554470D01*
X155629072Y-66551458D01*
X155633690Y-66552998D01*
X155659230Y-66551182D01*
X155693721Y-66550867D01*
X155699946Y-66548288D01*
X155706665Y-66547811D01*
X155732332Y-66537990D01*
X155763421Y-66550867D01*
X155836579Y-66550867D01*
X155904169Y-66522871D01*
X155955901Y-66471139D01*
X155983897Y-66403549D01*
X155987500Y-66366970D01*
X155984802Y-65751241D01*
X155986028Y-65747564D01*
X155984704Y-65728942D01*
X155984184Y-65610237D01*
X155986028Y-65604706D01*
X155984037Y-65576699D01*
X155983897Y-65544677D01*
X155981318Y-65538452D01*
X155980841Y-65531731D01*
X155967705Y-65497403D01*
X155897092Y-65362430D01*
X155891464Y-65345543D01*
X155883385Y-65336228D01*
X155876695Y-65323440D01*
X155858934Y-65308035D01*
X155843530Y-65290275D01*
X155825023Y-65278625D01*
X155821427Y-65275506D01*
X155818538Y-65274543D01*
X155812424Y-65270694D01*
X155692064Y-65213250D01*
X155689883Y-65211069D01*
X155671802Y-65203579D01*
X155635238Y-65186129D01*
X155628517Y-65185651D01*
X155622293Y-65183073D01*
X155585714Y-65179470D01*
X155327687Y-65182354D01*
X155323450Y-65180942D01*
X155299077Y-65182674D01*
X155263421Y-65183073D01*
X155257196Y-65185651D01*
X155250476Y-65186129D01*
X155216147Y-65199265D01*
X155042184Y-65290275D01*
X154994249Y-65345543D01*
X154971114Y-65414948D01*
X154976301Y-65487923D01*
X155009018Y-65553357D01*
X155064286Y-65601292D01*
X155133691Y-65624427D01*
X155206666Y-65619240D01*
X155240995Y-65606104D01*
X155340558Y-65554016D01*
X155537767Y-65551811D01*
X155589163Y-65576341D01*
X155605992Y-65608510D01*
X155328070Y-65611053D01*
X155323452Y-65609514D01*
X155297906Y-65611329D01*
X155263421Y-65611645D01*
X155257198Y-65614222D01*
X155250477Y-65614700D01*
X155216149Y-65627836D01*
X155081178Y-65698445D01*
X155064285Y-65704077D01*
X155054967Y-65712158D01*
X155042184Y-65718846D01*
X155026780Y-65736606D01*
X155009018Y-65752012D01*
X154997370Y-65770515D01*
X154994250Y-65774113D01*
X154993286Y-65777002D01*
X154989437Y-65783118D01*
X154931994Y-65903476D01*
X154929813Y-65905658D01*
X154922322Y-65923743D01*
X154904873Y-65960304D01*
X154904395Y-65967023D01*
X154901817Y-65973248D01*
X154898214Y-66009827D01*
X154491679Y-66009827D01*
X154345671Y-65802995D01*
X154456024Y-65745263D01*
X154475598Y-65737156D01*
X154482765Y-65731274D01*
X154486386Y-65729380D01*
X154489627Y-65725642D01*
X154504011Y-65713839D01*
X154577066Y-65636852D01*
X154590981Y-65624785D01*
X154595832Y-65617077D01*
X154598757Y-65613996D01*
X154600651Y-65609423D01*
X154610562Y-65593679D01*
X154668004Y-65473320D01*
X154670186Y-65471139D01*
X154677676Y-65453053D01*
X154695126Y-65416493D01*
X154695603Y-65409773D01*
X154698182Y-65403549D01*
X154701785Y-65366970D01*
X154699096Y-65179784D01*
X154700313Y-65176135D01*
X154698722Y-65153764D01*
X154698182Y-65116105D01*
X154695603Y-65109880D01*
X154695126Y-65103161D01*
X154681990Y-65068832D01*
X154606863Y-64925228D01*
X154598756Y-64905656D01*
X154592875Y-64898491D01*
X154590981Y-64894869D01*
X154587241Y-64891625D01*
X154575438Y-64877243D01*
X154571999Y-64873980D01*
X156184059Y-64873980D01*
X156189027Y-64910399D01*
X156547641Y-66401468D01*
X156551094Y-66427452D01*
X156555878Y-66435716D01*
X156558147Y-66445149D01*
X156574107Y-66467204D01*
X156587749Y-66490767D01*
X156595394Y-66496618D01*
X156601037Y-66504416D01*
X156624222Y-66518683D01*
X156645844Y-66535233D01*
X156655146Y-66537713D01*
X156663345Y-66542759D01*
X156690227Y-66547068D01*
X156716532Y-66554083D01*
X156726074Y-66552815D01*
X156735581Y-66554339D01*
X156762068Y-66548032D01*
X156789053Y-66544447D01*
X156797383Y-66539624D01*
X156806750Y-66537394D01*
X156828805Y-66521433D01*
X156852368Y-66507792D01*
X156858219Y-66500146D01*
X156866017Y-66494504D01*
X156880284Y-66471318D01*
X156896834Y-66449697D01*
X156901894Y-66436202D01*
X156904360Y-66432196D01*
X156905078Y-66427711D01*
X156909740Y-66415282D01*
X157014748Y-66016467D01*
X157120120Y-66406678D01*
X157124211Y-66432196D01*
X157129200Y-66440304D01*
X157131737Y-66449697D01*
X157148283Y-66471314D01*
X157162554Y-66494504D01*
X157170354Y-66500149D01*
X157176204Y-66507791D01*
X157199759Y-66521428D01*
X157221821Y-66537394D01*
X157231187Y-66539624D01*
X157239518Y-66544447D01*
X157266498Y-66548031D01*
X157292990Y-66554339D01*
X157302499Y-66552814D01*
X157312040Y-66554082D01*
X157338336Y-66547069D01*
X157365226Y-66542759D01*
X157373427Y-66537711D01*
X157382727Y-66535232D01*
X157404341Y-66518687D01*
X157427534Y-66504416D01*
X157433178Y-66496616D01*
X157440822Y-66490766D01*
X157454460Y-66467208D01*
X157470424Y-66445149D01*
X157475121Y-66431519D01*
X157477477Y-66427451D01*
X157478074Y-66422950D01*
X157482401Y-66410399D01*
X157498164Y-66343519D01*
X157828259Y-66343519D01*
X157833444Y-66416493D01*
X157866162Y-66481930D01*
X157921431Y-66529863D01*
X157990835Y-66552997D01*
X158063809Y-66547812D01*
X158129246Y-66515094D01*
X158177179Y-66459825D01*
X158192164Y-66426263D01*
X158291756Y-66125253D01*
X158738320Y-66123110D01*
X158851393Y-66459825D01*
X158899327Y-66515094D01*
X158964763Y-66547812D01*
X159037738Y-66552997D01*
X159107141Y-66529863D01*
X159162410Y-66481930D01*
X159195128Y-66416493D01*
X159200313Y-66343519D01*
X159192164Y-66307677D01*
X158708360Y-64866970D01*
X159326785Y-64866970D01*
X159330388Y-66403549D01*
X159358384Y-66471139D01*
X159410116Y-66522871D01*
X159477706Y-66550867D01*
X159550864Y-66550867D01*
X159618454Y-66522871D01*
X159670186Y-66471139D01*
X159698182Y-66403549D01*
X159701785Y-66366970D01*
X159699908Y-65566849D01*
X160206277Y-66448808D01*
X160215527Y-66471139D01*
X160223913Y-66479525D01*
X160229909Y-66489968D01*
X160249625Y-66505237D01*
X160267259Y-66522871D01*
X160278299Y-66527443D01*
X160287750Y-66534763D01*
X160311814Y-66541326D01*
X160334849Y-66550867D01*
X160346798Y-66550867D01*
X160358333Y-66554013D01*
X160383078Y-66550867D01*
X160408007Y-66550867D01*
X160419048Y-66546293D01*
X160430907Y-66544786D01*
X160452558Y-66532413D01*
X160475597Y-66522871D01*
X160484049Y-66514418D01*
X160494426Y-66508489D01*
X160509695Y-66488772D01*
X160527329Y-66471139D01*
X160531901Y-66460098D01*
X160539221Y-66450648D01*
X160545783Y-66426584D01*
X160555325Y-66403549D01*
X160557167Y-66384841D01*
X160558470Y-66380066D01*
X160558001Y-66376378D01*
X160558928Y-66366970D01*
X160555411Y-64866970D01*
X162041071Y-64866970D01*
X162044674Y-66403549D01*
X162072670Y-66471139D01*
X162124402Y-66522871D01*
X162191992Y-66550867D01*
X162265150Y-66550867D01*
X162332740Y-66522871D01*
X162384472Y-66471139D01*
X162412468Y-66403549D01*
X162416071Y-66366970D01*
X162414194Y-65566849D01*
X162920563Y-66448808D01*
X162929813Y-66471139D01*
X162938199Y-66479525D01*
X162944195Y-66489968D01*
X162963911Y-66505237D01*
X162981545Y-66522871D01*
X162992585Y-66527443D01*
X163002036Y-66534763D01*
X163026100Y-66541326D01*
X163049135Y-66550867D01*
X163061084Y-66550867D01*
X163072619Y-66554013D01*
X163097364Y-66550867D01*
X163122293Y-66550867D01*
X163133334Y-66546293D01*
X163145193Y-66544786D01*
X163166844Y-66532413D01*
X163189883Y-66522871D01*
X163198335Y-66514418D01*
X163208712Y-66508489D01*
X163223981Y-66488772D01*
X163241615Y-66471139D01*
X163246187Y-66460098D01*
X163253507Y-66450648D01*
X163260069Y-66426584D01*
X163269611Y-66403549D01*
X163271453Y-66384841D01*
X163272756Y-66380066D01*
X163272287Y-66376378D01*
X163273214Y-66366970D01*
X163270869Y-65366970D01*
X163541072Y-65366970D01*
X163544352Y-65855528D01*
X163541294Y-65876084D01*
X163544642Y-65898732D01*
X163544675Y-65903549D01*
X163545732Y-65906100D01*
X163546670Y-65912445D01*
X163616103Y-66177869D01*
X163616103Y-66189264D01*
X163624192Y-66208793D01*
X163630465Y-66232772D01*
X163638764Y-66243974D01*
X163644100Y-66256854D01*
X163667417Y-66285267D01*
X163813169Y-66426681D01*
X163827900Y-66443666D01*
X163835800Y-66448639D01*
X163838689Y-66451442D01*
X163843261Y-66453336D01*
X163859006Y-66463247D01*
X163979364Y-66520689D01*
X163981546Y-66522871D01*
X163999631Y-66530361D01*
X164036192Y-66547811D01*
X164042911Y-66548288D01*
X164049136Y-66550867D01*
X164085715Y-66554470D01*
X164343740Y-66551585D01*
X164347978Y-66552998D01*
X164372350Y-66551265D01*
X164408008Y-66550867D01*
X164414232Y-66548288D01*
X164420952Y-66547811D01*
X164455281Y-66534675D01*
X164598881Y-66459550D01*
X164618456Y-66451442D01*
X164625622Y-66445560D01*
X164629244Y-66443666D01*
X164632486Y-66439927D01*
X164646869Y-66428124D01*
X164774149Y-66296939D01*
X164783124Y-66291555D01*
X164795241Y-66275200D01*
X164813043Y-66256853D01*
X164818377Y-66243974D01*
X164826677Y-66232773D01*
X164839045Y-66198160D01*
X164905001Y-65921578D01*
X164912469Y-65903549D01*
X164914698Y-65880913D01*
X164915850Y-65876085D01*
X164915443Y-65873352D01*
X164916072Y-65866970D01*
X164912791Y-65378410D01*
X164915850Y-65357855D01*
X164912501Y-65335206D01*
X164912469Y-65330391D01*
X164911412Y-65327839D01*
X164910474Y-65321494D01*
X164841040Y-65056071D01*
X164841040Y-65044676D01*
X164832949Y-65025143D01*
X164826677Y-65001167D01*
X164818378Y-64989966D01*
X164813043Y-64977086D01*
X164789725Y-64948673D01*
X164705517Y-64866970D01*
X165183929Y-64866970D01*
X165187532Y-66403549D01*
X165215528Y-66471139D01*
X165267260Y-66522871D01*
X165334850Y-66550867D01*
X165371429Y-66554470D01*
X165726963Y-66551216D01*
X165752023Y-66552997D01*
X165761233Y-66550902D01*
X165765151Y-66550867D01*
X165769726Y-66548971D01*
X165787864Y-66544848D01*
X165975470Y-66479439D01*
X165979439Y-66479439D01*
X166000544Y-66470696D01*
X166035713Y-66458435D01*
X166040802Y-66454020D01*
X166047028Y-66451442D01*
X166075441Y-66428124D01*
X166216850Y-66282377D01*
X166233839Y-66267643D01*
X166238813Y-66259740D01*
X166241615Y-66256853D01*
X166243507Y-66252283D01*
X166253420Y-66236537D01*
X166317459Y-66102358D01*
X166326679Y-66089915D01*
X166336449Y-66062569D01*
X166337985Y-66059352D01*
X166338080Y-66058003D01*
X166339046Y-66055302D01*
X166405001Y-65778720D01*
X166412469Y-65760692D01*
X166414698Y-65738056D01*
X166415850Y-65733228D01*
X166415443Y-65730495D01*
X166416072Y-65724113D01*
X166413126Y-65519016D01*
X166415850Y-65500712D01*
X166412542Y-65478339D01*
X166412469Y-65473248D01*
X166411412Y-65470696D01*
X166410474Y-65464352D01*
X166339220Y-65191967D01*
X166337985Y-65174588D01*
X166327520Y-65147240D01*
X166326679Y-65144025D01*
X166325873Y-65142938D01*
X166324849Y-65140260D01*
X166249720Y-64996653D01*
X166241615Y-64977086D01*
X166235735Y-64969921D01*
X166233839Y-64966297D01*
X166230097Y-64963052D01*
X166218297Y-64948673D01*
X166134089Y-64866970D01*
X166683929Y-64866970D01*
X166687532Y-66403549D01*
X166715528Y-66471139D01*
X166767260Y-66522871D01*
X166834850Y-66550867D01*
X166871429Y-66554470D01*
X167622294Y-66550867D01*
X167689884Y-66522871D01*
X167741616Y-66471139D01*
X167769612Y-66403549D01*
X167769612Y-66330391D01*
X167741616Y-66262801D01*
X167689884Y-66211069D01*
X167622294Y-66183073D01*
X167585715Y-66179470D01*
X167058495Y-66181999D01*
X167057523Y-65767506D01*
X167408008Y-65765153D01*
X167475598Y-65737157D01*
X167527330Y-65685425D01*
X167555326Y-65617835D01*
X167555326Y-65544677D01*
X167527330Y-65477087D01*
X167475598Y-65425355D01*
X167408008Y-65397359D01*
X167371429Y-65393756D01*
X167056651Y-65395869D01*
X167055849Y-65053585D01*
X167622294Y-65050867D01*
X167689884Y-65022871D01*
X167741616Y-64971139D01*
X167769612Y-64903549D01*
X167769612Y-64830391D01*
X167741616Y-64762801D01*
X167689884Y-64711069D01*
X167622294Y-64683073D01*
X167585715Y-64679470D01*
X166834850Y-64683073D01*
X166767260Y-64711069D01*
X166715528Y-64762801D01*
X166687532Y-64830391D01*
X166683929Y-64866970D01*
X166134089Y-64866970D01*
X166092636Y-64826750D01*
X166090981Y-64823440D01*
X166074424Y-64809080D01*
X166047028Y-64782499D01*
X166040802Y-64779920D01*
X166035713Y-64775506D01*
X166002151Y-64760521D01*
X165786455Y-64691897D01*
X165765151Y-64683073D01*
X165755834Y-64682155D01*
X165752024Y-64680943D01*
X165747087Y-64681293D01*
X165728572Y-64679470D01*
X165334850Y-64683073D01*
X165267260Y-64711069D01*
X165215528Y-64762801D01*
X165187532Y-64830391D01*
X165183929Y-64866970D01*
X164705517Y-64866970D01*
X164643975Y-64807259D01*
X164629245Y-64790275D01*
X164621344Y-64785301D01*
X164618456Y-64782499D01*
X164613883Y-64780604D01*
X164598139Y-64770694D01*
X164477779Y-64713250D01*
X164475598Y-64711069D01*
X164457517Y-64703579D01*
X164420953Y-64686129D01*
X164414232Y-64685651D01*
X164408008Y-64683073D01*
X164371429Y-64679470D01*
X164113402Y-64682354D01*
X164109165Y-64680942D01*
X164084792Y-64682674D01*
X164049136Y-64683073D01*
X164042911Y-64685651D01*
X164036190Y-64686129D01*
X164001862Y-64699265D01*
X163858251Y-64774395D01*
X163838689Y-64782499D01*
X163831525Y-64788377D01*
X163827899Y-64790275D01*
X163824653Y-64794017D01*
X163810276Y-64805816D01*
X163682992Y-64937001D01*
X163674018Y-64942386D01*
X163661902Y-64958737D01*
X163644100Y-64977086D01*
X163638764Y-64989966D01*
X163630465Y-65001168D01*
X163618098Y-65035781D01*
X163552142Y-65312361D01*
X163544675Y-65330391D01*
X163542445Y-65353028D01*
X163541294Y-65357856D01*
X163541700Y-65360588D01*
X163541072Y-65366970D01*
X163270869Y-65366970D01*
X163269611Y-64830391D01*
X163241615Y-64762801D01*
X163189883Y-64711069D01*
X163122293Y-64683073D01*
X163049135Y-64683073D01*
X162981545Y-64711069D01*
X162929813Y-64762801D01*
X162901817Y-64830391D01*
X162898214Y-64866970D01*
X162900090Y-65667090D01*
X162393721Y-64785131D01*
X162384472Y-64762801D01*
X162376085Y-64754414D01*
X162370090Y-64743972D01*
X162350373Y-64728702D01*
X162332740Y-64711069D01*
X162321699Y-64706496D01*
X162312249Y-64699177D01*
X162288186Y-64692614D01*
X162265150Y-64683073D01*
X162253198Y-64683073D01*
X162241666Y-64679928D01*
X162216927Y-64683073D01*
X162191992Y-64683073D01*
X162180950Y-64687646D01*
X162169092Y-64689154D01*
X162147440Y-64701526D01*
X162124402Y-64711069D01*
X162115949Y-64719521D01*
X162105573Y-64725451D01*
X162090303Y-64745167D01*
X162072670Y-64762801D01*
X162068097Y-64773841D01*
X162060778Y-64783292D01*
X162054215Y-64807354D01*
X162044674Y-64830391D01*
X162042831Y-64849100D01*
X162041529Y-64853875D01*
X162041997Y-64857561D01*
X162041071Y-64866970D01*
X160555411Y-64866970D01*
X160555325Y-64830391D01*
X160527329Y-64762801D01*
X160475597Y-64711069D01*
X160408007Y-64683073D01*
X160334849Y-64683073D01*
X160267259Y-64711069D01*
X160215527Y-64762801D01*
X160187531Y-64830391D01*
X160183928Y-64866970D01*
X160185804Y-65667090D01*
X159679435Y-64785131D01*
X159670186Y-64762801D01*
X159661799Y-64754414D01*
X159655804Y-64743972D01*
X159636087Y-64728702D01*
X159618454Y-64711069D01*
X159607413Y-64706496D01*
X159597963Y-64699177D01*
X159573900Y-64692614D01*
X159550864Y-64683073D01*
X159538912Y-64683073D01*
X159527380Y-64679928D01*
X159502641Y-64683073D01*
X159477706Y-64683073D01*
X159466664Y-64687646D01*
X159454806Y-64689154D01*
X159433154Y-64701526D01*
X159410116Y-64711069D01*
X159401663Y-64719521D01*
X159391287Y-64725451D01*
X159376017Y-64745167D01*
X159358384Y-64762801D01*
X159353811Y-64773841D01*
X159346492Y-64783292D01*
X159339929Y-64807354D01*
X159330388Y-64830391D01*
X159328545Y-64849100D01*
X159327243Y-64853875D01*
X159327711Y-64857561D01*
X159326785Y-64866970D01*
X158708360Y-64866970D01*
X158696039Y-64830280D01*
X158695128Y-64817447D01*
X158684780Y-64796752D01*
X158677179Y-64774115D01*
X158668402Y-64763995D01*
X158662410Y-64752010D01*
X158644649Y-64736606D01*
X158629246Y-64718846D01*
X158617260Y-64712853D01*
X158607141Y-64704077D01*
X158584840Y-64696643D01*
X158563809Y-64686128D01*
X158550444Y-64685178D01*
X158537738Y-64680943D01*
X158514286Y-64682609D01*
X158490835Y-64680943D01*
X158478128Y-64685178D01*
X158464763Y-64686128D01*
X158443731Y-64696643D01*
X158421431Y-64704077D01*
X158411310Y-64712854D01*
X158399327Y-64718846D01*
X158383925Y-64736604D01*
X158366162Y-64752010D01*
X158360169Y-64763995D01*
X158351393Y-64774115D01*
X158336408Y-64807677D01*
X157978979Y-65887978D01*
X157973246Y-65901820D01*
X157973246Y-65905306D01*
X157828259Y-66343519D01*
X157498164Y-66343519D01*
X157844512Y-64873980D01*
X157832932Y-64801744D01*
X157794589Y-64739436D01*
X157735322Y-64696546D01*
X157664153Y-64679601D01*
X157591917Y-64691181D01*
X157529609Y-64729524D01*
X157486719Y-64788791D01*
X157474742Y-64823541D01*
X157289580Y-65609173D01*
X157194868Y-65258440D01*
X157191762Y-65235060D01*
X157185751Y-65224677D01*
X157182548Y-65212815D01*
X157167508Y-65193165D01*
X157155107Y-65171745D01*
X157145461Y-65164362D01*
X157138081Y-65154720D01*
X157116664Y-65142321D01*
X157097012Y-65127279D01*
X157085277Y-65124149D01*
X157074767Y-65118065D01*
X157050236Y-65114805D01*
X157026324Y-65108429D01*
X157014284Y-65110028D01*
X157002245Y-65108429D01*
X156978332Y-65114805D01*
X156953803Y-65118065D01*
X156943292Y-65124149D01*
X156931558Y-65127279D01*
X156911908Y-65142318D01*
X156890488Y-65154720D01*
X156883105Y-65164365D01*
X156873463Y-65171746D01*
X156861064Y-65193162D01*
X156846022Y-65212815D01*
X156839283Y-65230784D01*
X156836808Y-65235060D01*
X156836329Y-65238660D01*
X156833116Y-65247230D01*
X156738518Y-65606504D01*
X156541852Y-64788791D01*
X156498962Y-64729524D01*
X156436654Y-64691181D01*
X156364418Y-64679601D01*
X156293249Y-64696546D01*
X156233982Y-64739436D01*
X156195639Y-64801744D01*
X156184059Y-64873980D01*
X154571999Y-64873980D01*
X154498457Y-64804192D01*
X154486387Y-64790275D01*
X154478676Y-64785421D01*
X154475596Y-64782498D01*
X154471024Y-64780604D01*
X154455281Y-64770694D01*
X154334921Y-64713250D01*
X154332740Y-64711069D01*
X154314659Y-64703579D01*
X154278095Y-64686129D01*
X154271374Y-64685651D01*
X154265150Y-64683073D01*
X154228571Y-64679470D01*
X153620563Y-64683073D01*
X153552973Y-64711069D01*
X153501241Y-64762801D01*
X153473245Y-64830391D01*
X153469642Y-64866970D01*
X151269696Y-64866970D01*
X151269610Y-64830391D01*
X151241614Y-64762801D01*
X151189882Y-64711069D01*
X151122292Y-64683073D01*
X151049134Y-64683073D01*
X150981544Y-64711069D01*
X150929812Y-64762801D01*
X150901816Y-64830391D01*
X150898213Y-64866970D01*
X149246429Y-64866970D01*
X149246429Y-64491970D01*
X169421396Y-64491970D01*
X169421396Y-69156886D01*
G37*
D11*
X116000000Y-89875000D02*
X116000000Y-89575000D01*
X116600000Y-89875000D02*
X116600000Y-89575000D01*
X147950000Y-81100000D02*
X147650000Y-81100000D01*
X147950000Y-81700000D02*
X147650000Y-81700000D01*
D12*
X144100000Y-85900000D02*
X144100000Y-86350000D01*
X144100000Y-85900000D02*
X150300000Y-85900000D01*
X144100000Y-92100000D02*
X144100000Y-91650000D01*
X150300000Y-85900000D02*
X150300000Y-86350000D01*
X150300000Y-92100000D02*
X144100000Y-92100000D01*
X150300000Y-92100000D02*
X150300000Y-91650000D01*
D11*
X135450000Y-101600000D02*
X135150000Y-101600000D01*
X135450000Y-102200000D02*
X135150000Y-102200000D01*
X118700000Y-70680000D02*
X120000000Y-70680000D01*
X118700000Y-73980000D02*
X118700000Y-70680000D01*
X118700000Y-85680000D02*
X118700000Y-82380000D01*
X120000000Y-85680000D02*
X118700000Y-85680000D01*
X129000000Y-70680000D02*
X125400000Y-70680000D01*
D13*
X130400000Y-82780000D02*
X130900000Y-82780000D01*
X130400000Y-83980000D02*
X130400000Y-82780000D01*
X130400000Y-83980000D02*
X130900000Y-83980000D01*
X130900000Y-82380000D02*
X131400000Y-82380000D01*
X130900000Y-82780000D02*
X130900000Y-82380000D01*
X130900000Y-83980000D02*
X130900000Y-82780000D01*
X130900000Y-84380000D02*
X130900000Y-83980000D01*
X131400000Y-81980000D02*
X131400000Y-82380000D01*
X131400000Y-82380000D02*
X132500000Y-82380000D01*
X132500000Y-81980000D02*
X131400000Y-81980000D01*
X132500000Y-81980000D02*
X132500000Y-82380000D01*
X132500000Y-82380000D02*
X133100000Y-82380000D01*
X133100000Y-82380000D02*
X133100000Y-82780000D01*
X133100000Y-82780000D02*
X133100000Y-83980000D01*
X133100000Y-82780000D02*
X133600000Y-82780000D01*
X133100000Y-83980000D02*
X133100000Y-84380000D01*
X133100000Y-84380000D02*
X130900000Y-84380000D01*
X133600000Y-82780000D02*
X133600000Y-83980000D01*
X133600000Y-83980000D02*
X133100000Y-83980000D01*
D11*
X134200000Y-70680000D02*
X132300000Y-70680000D01*
X134200000Y-73980000D02*
X134200000Y-70680000D01*
X134200000Y-78280000D02*
X134200000Y-85680000D01*
X134200000Y-85680000D02*
X132300000Y-85680000D01*
D13*
X132707106Y-83380000D02*
G75*
G02*
X131292894Y-83380000I-707106J0D01*
G01*
X131292894Y-83380000D02*
G75*
G02*
X132707106Y-83380000I707106J0D01*
G01*
D11*
X110700000Y-90550000D02*
X110700000Y-90250000D01*
X111300000Y-90550000D02*
X111300000Y-90250000D01*
D12*
X148890000Y-109554437D02*
X148890000Y-115310000D01*
X148890000Y-115310000D02*
X151240000Y-115310000D01*
X149954437Y-108490000D02*
X148890000Y-109554437D01*
X149954437Y-108490000D02*
X151240000Y-108490000D01*
X154147500Y-107462500D02*
X154147500Y-108250000D01*
X154541250Y-107856250D02*
X153753750Y-107856250D01*
X154645563Y-108490000D02*
X153360000Y-108490000D01*
X154645563Y-108490000D02*
X155710000Y-109554437D01*
X155710000Y-109554437D02*
X155710000Y-115310000D01*
X155710000Y-115310000D02*
X153360000Y-115310000D01*
D11*
X136950000Y-89700000D02*
X137250000Y-89700000D01*
X136950000Y-90300000D02*
X137250000Y-90300000D01*
X137250000Y-83900000D02*
X136950000Y-83900000D01*
X137250000Y-84500000D02*
X136950000Y-84500000D01*
X168900000Y-89900000D02*
X168900000Y-80100000D01*
X169600000Y-80100000D02*
X168900000Y-80100000D01*
X170600000Y-80100000D02*
X171300000Y-80100000D01*
X171300000Y-80100000D02*
X171300000Y-89900000D01*
X171300000Y-89900000D02*
X168900000Y-89900000D01*
X170600000Y-80100000D02*
G75*
G02*
X169600000Y-80100000I-500000J0D01*
G01*
X129500000Y-98850000D02*
X129500000Y-99150000D01*
X130100000Y-98850000D02*
X130100000Y-99150000D01*
X136950000Y-82500000D02*
X137250000Y-82500000D01*
X136950000Y-83100000D02*
X137250000Y-83100000D01*
X127460000Y-66450000D02*
X127460000Y-66150000D01*
X128060000Y-66450000D02*
X128060000Y-66150000D01*
X109850000Y-99900000D02*
X110150000Y-99900000D01*
X109850000Y-100500000D02*
X110150000Y-100500000D01*
D12*
X135300000Y-106890000D02*
X133100000Y-106890000D01*
X135300000Y-106890000D02*
X137500000Y-106890000D01*
X135300000Y-110110000D02*
X133100000Y-110110000D01*
X135300000Y-110110000D02*
X137500000Y-110110000D01*
X138440000Y-110265000D02*
X137960000Y-110265000D01*
X138200000Y-109935000D01*
X138440000Y-110265000D01*
G36*
X138440000Y-110265000D02*
G01*
X137960000Y-110265000D01*
X138200000Y-109935000D01*
X138440000Y-110265000D01*
G37*
D14*
X98800000Y-97700000D02*
X98800000Y-107100000D01*
X100400000Y-97700000D02*
X98800000Y-97700000D01*
X100400000Y-107100000D02*
X98800000Y-107100000D01*
D15*
X101050000Y-102400000D02*
X105150000Y-102400000D01*
X102375000Y-102400000D02*
X102925000Y-101475000D01*
X102600000Y-103325000D02*
X102050000Y-102400000D01*
X102600000Y-103325000D02*
X103675000Y-103325000D01*
X102925000Y-101475000D02*
X103925000Y-101475000D01*
D14*
X104300000Y-97700000D02*
X102300000Y-97700000D01*
X104300000Y-107100000D02*
X102300000Y-107100000D01*
X107075000Y-97700000D02*
X106575000Y-97700000D01*
X107075000Y-97700000D02*
X107075000Y-98200000D01*
X107125000Y-106600000D02*
X107125000Y-107100000D01*
X107125000Y-107100000D02*
X106625000Y-107100000D01*
X104180997Y-103072202D02*
X103675000Y-103072202D01*
X103675000Y-103577799D01*
X104180997Y-103577799D01*
X104180997Y-103072202D01*
G36*
X104180997Y-103072202D02*
G01*
X103675000Y-103072202D01*
X103675000Y-103577799D01*
X104180997Y-103577799D01*
X104180997Y-103072202D01*
G37*
D16*
X101337500Y-102400000D02*
G75*
G02*
X100762500Y-102400000I-287500J0D01*
G01*
X100762500Y-102400000D02*
G75*
G02*
X101337500Y-102400000I287500J0D01*
G01*
D17*
X104125000Y-101475000D02*
G75*
G02*
X103725000Y-101475000I-200000J0D01*
G01*
X103725000Y-101475000D02*
G75*
G02*
X104125000Y-101475000I200000J0D01*
G01*
D18*
X105225000Y-102400000D02*
X104675000Y-102950000D01*
X104675000Y-101850000D01*
X105225000Y-102400000D01*
G36*
X105225000Y-102400000D02*
G01*
X104675000Y-102950000D01*
X104675000Y-101850000D01*
X105225000Y-102400000D01*
G37*
D11*
X140300000Y-111350000D02*
X140300000Y-111050000D01*
X140900000Y-111350000D02*
X140900000Y-111050000D01*
X109850000Y-104300000D02*
X110150000Y-104300000D01*
X109850000Y-104900000D02*
X110150000Y-104900000D01*
X124610000Y-65800000D02*
X124610000Y-64900000D01*
X124610000Y-67700000D02*
X124610000Y-66800000D01*
X124610000Y-67700000D02*
X125710000Y-67700000D01*
X125710000Y-64900000D02*
X124610000Y-64900000D01*
X125810000Y-66700000D02*
X125810000Y-65900000D01*
D18*
X125440000Y-67630000D02*
X124640000Y-67630000D01*
X124640000Y-66845000D01*
X124655000Y-66845000D01*
X125440000Y-67630000D01*
G36*
X125440000Y-67630000D02*
G01*
X124640000Y-67630000D01*
X124640000Y-66845000D01*
X124655000Y-66845000D01*
X125440000Y-67630000D01*
G37*
D11*
X122850000Y-105200000D02*
X122550000Y-105200000D01*
X122850000Y-105800000D02*
X122550000Y-105800000D01*
X109900000Y-76400000D02*
X103400000Y-76400000D01*
X103400000Y-86400000D01*
X109900000Y-86400000D01*
X109900000Y-76400000D01*
X121010000Y-66900000D02*
X121310000Y-66900000D01*
X121010000Y-67500000D02*
X121310000Y-67500000D01*
X110700000Y-80050000D02*
X110700000Y-79750000D01*
X111300000Y-80050000D02*
X111300000Y-79750000D01*
X116000000Y-83050000D02*
X116000000Y-82750000D01*
X116600000Y-83050000D02*
X116600000Y-82750000D01*
X123100000Y-107750000D02*
X123100000Y-107450000D01*
X123700000Y-107750000D02*
X123700000Y-107450000D01*
X160100000Y-90050000D02*
X160100000Y-90350000D01*
X160700000Y-90050000D02*
X160700000Y-90350000D01*
X131525000Y-110550000D02*
X131525000Y-116450000D01*
X133175000Y-115250000D02*
X133175000Y-116450000D01*
X134925000Y-115250000D02*
X133175000Y-115250000D01*
X134925000Y-116450000D02*
X134925000Y-115250000D01*
X135675000Y-115250000D02*
X135675000Y-116450000D01*
X137425000Y-115250000D02*
X135675000Y-115250000D01*
X137425000Y-116450000D02*
X137425000Y-115250000D01*
X139075000Y-110550000D02*
X131525000Y-110550000D01*
X139075000Y-110550000D02*
X139075000Y-116450000D01*
X139075000Y-111450000D02*
X138175000Y-110550000D01*
X139075000Y-116450000D02*
X131525000Y-116450000D01*
X132125000Y-111350000D02*
G75*
G02*
X131825000Y-111350000I-150000J0D01*
G01*
X131825000Y-111350000D02*
G75*
G02*
X132125000Y-111350000I150000J0D01*
G01*
X121010000Y-68300000D02*
X121310000Y-68300000D01*
X121010000Y-68900000D02*
X121310000Y-68900000D01*
D18*
X174450000Y-77520000D02*
X183450000Y-77520000D01*
X183450000Y-73220000D01*
X174450000Y-73220000D01*
X174450000Y-77520000D01*
D11*
X117370000Y-87200000D02*
X117370000Y-93100000D01*
X119010000Y-91800000D02*
X119010000Y-93100000D01*
X120760000Y-91800000D02*
X119010000Y-91800000D01*
X120760000Y-93100000D02*
X120760000Y-91800000D01*
X127530000Y-87200000D02*
X117370000Y-87200000D01*
X127530000Y-93100000D02*
X117370000Y-93100000D01*
X131680000Y-91800000D02*
X131680000Y-93100000D01*
X133430000Y-91800000D02*
X131680000Y-91800000D01*
X133430000Y-93100000D02*
X133430000Y-91800000D01*
X135080000Y-87200000D02*
X127530000Y-87200000D01*
X135080000Y-87200000D02*
X135080000Y-93100000D01*
X135080000Y-88100000D02*
X134180000Y-87200000D01*
X135080000Y-93100000D02*
X127530000Y-93100000D01*
X118120000Y-87770000D02*
G75*
G02*
X117820000Y-87770000I-150000J0D01*
G01*
X117820000Y-87770000D02*
G75*
G02*
X118120000Y-87770000I150000J0D01*
G01*
X149700000Y-99050000D02*
X149700000Y-99350000D01*
X150300000Y-99050000D02*
X150300000Y-99350000D01*
X141450000Y-108800000D02*
X141150000Y-108800000D01*
X141450000Y-109400000D02*
X141150000Y-109400000D01*
X128950000Y-96300000D02*
X129250000Y-96300000D01*
X128950000Y-96900000D02*
X129250000Y-96900000D01*
D12*
X176000000Y-92930000D02*
X176600000Y-93230000D01*
X176000000Y-93530000D02*
X176000000Y-92930000D01*
X176600000Y-93230000D02*
X176000000Y-93530000D01*
X177290000Y-79090000D02*
X177290000Y-80750000D01*
X177290000Y-84560000D02*
X177290000Y-82850000D01*
X177290000Y-88370000D02*
X177290000Y-86660000D01*
X177290000Y-92180000D02*
X177290000Y-90470000D01*
X177290000Y-95940000D02*
X177290000Y-94280000D01*
X177290000Y-95940000D02*
X186710000Y-95940000D01*
X183400000Y-95940000D02*
X183400000Y-79090000D01*
X186710000Y-79090000D02*
X177290000Y-79090000D01*
X186710000Y-95940000D02*
X186710000Y-79090000D01*
D11*
X127910000Y-68300000D02*
X127610000Y-68300000D01*
X127910000Y-68900000D02*
X127610000Y-68900000D01*
X146450000Y-96000000D02*
X146150000Y-96000000D01*
X146450000Y-96600000D02*
X146150000Y-96600000D01*
X109900000Y-86900000D02*
X103400000Y-86900000D01*
X103400000Y-96900000D01*
X109900000Y-96900000D01*
X109900000Y-86900000D01*
X129500000Y-102850000D02*
X129500000Y-103150000D01*
X130100000Y-102850000D02*
X130100000Y-103150000D01*
X146600000Y-114250000D02*
X146600000Y-113950000D01*
X147200000Y-114250000D02*
X147200000Y-113950000D01*
X109700000Y-101200000D02*
X110300000Y-101200000D01*
X110300000Y-103600000D01*
X109700000Y-103600000D01*
X109700000Y-101200000D01*
D19*
X108170000Y-100700000D02*
G75*
G02*
X107970000Y-100700000I-100000J0D01*
G01*
X107970000Y-100700000D02*
G75*
G02*
X108170000Y-100700000I100000J0D01*
G01*
D18*
X109700000Y-101800000D02*
X109700000Y-101200000D01*
X110300000Y-101200000D01*
X109700000Y-101800000D01*
G36*
X109700000Y-101800000D02*
G01*
X109700000Y-101200000D01*
X110300000Y-101200000D01*
X109700000Y-101800000D01*
G37*
D12*
X138100000Y-96100000D02*
X138550000Y-96100000D01*
X138100000Y-102300000D02*
X138100000Y-96100000D01*
X138100000Y-102300000D02*
X138550000Y-102300000D01*
X144300000Y-96100000D02*
X143850000Y-96100000D01*
X144300000Y-96100000D02*
X144300000Y-102300000D01*
X144300000Y-102300000D02*
X143850000Y-102300000D01*
D11*
X145300000Y-100590000D02*
X145300000Y-100820000D01*
X145300000Y-100820000D02*
X146275000Y-100820000D01*
X147545000Y-97600000D02*
X148520000Y-97600000D01*
X147545000Y-100820000D02*
X148520000Y-100820000D01*
X148520000Y-97600000D02*
X148520000Y-97830000D01*
X148520000Y-100590000D02*
X148520000Y-100820000D01*
X145130000Y-97310000D02*
G75*
G02*
X144890000Y-97310000I-120000J0D01*
G01*
X144890000Y-97310000D02*
G75*
G02*
X145130000Y-97310000I120000J0D01*
G01*
D18*
X145310000Y-97840000D02*
X145310000Y-97610000D01*
X146285000Y-97610000D01*
X145310000Y-97840000D01*
G36*
X145310000Y-97840000D02*
G01*
X145310000Y-97610000D01*
X146285000Y-97610000D01*
X145310000Y-97840000D01*
G37*
D11*
X116700000Y-95450000D02*
X116700000Y-95750000D01*
X117300000Y-95450000D02*
X117300000Y-95750000D01*
X137250000Y-91100000D02*
X136950000Y-91100000D01*
X137250000Y-91700000D02*
X136950000Y-91700000D01*
X135700000Y-86850000D02*
X135700000Y-87950000D01*
X135700000Y-86850000D02*
X136600000Y-86850000D01*
X136700000Y-88050000D02*
X137500000Y-88050000D01*
X137600000Y-86850000D02*
X138500000Y-86850000D01*
X138500000Y-87950000D02*
X138500000Y-86850000D01*
D18*
X136555000Y-86895000D02*
X135770000Y-87680000D01*
X135770000Y-86880000D01*
X136555000Y-86880000D01*
X136555000Y-86895000D01*
G36*
X136555000Y-86895000D02*
G01*
X135770000Y-87680000D01*
X135770000Y-86880000D01*
X136555000Y-86880000D01*
X136555000Y-86895000D01*
G37*
D11*
X137200000Y-105350000D02*
X137200000Y-105050000D01*
X137800000Y-105350000D02*
X137800000Y-105050000D01*
X115700000Y-104000000D02*
X119100000Y-104000000D01*
X119100000Y-99800000D01*
X115700000Y-99800000D01*
X115700000Y-104000000D01*
D18*
X119100000Y-104000000D02*
X118500000Y-104000000D01*
X119100000Y-103400000D01*
X119100000Y-104000000D01*
G36*
X119100000Y-104000000D02*
G01*
X118500000Y-104000000D01*
X119100000Y-103400000D01*
X119100000Y-104000000D01*
G37*
D11*
X151400000Y-92900000D02*
X164000000Y-92900000D01*
X151400000Y-95900000D02*
X151400000Y-92900000D01*
X151400000Y-105500000D02*
X151400000Y-102500000D01*
X164000000Y-92900000D02*
X164000000Y-95900000D01*
X164000000Y-102500000D02*
X164000000Y-105500000D01*
X164000000Y-105500000D02*
X151400000Y-105500000D01*
D12*
X166350000Y-100470000D02*
X172770000Y-100470000D01*
X166350000Y-107370000D02*
X172770000Y-107370000D01*
X172770000Y-100470000D02*
X172770000Y-100740000D01*
X172770000Y-107370000D02*
X172770000Y-107100000D01*
X174430000Y-107390000D02*
X173950000Y-107390000D01*
X174190000Y-107060000D01*
X174430000Y-107390000D01*
G36*
X174430000Y-107390000D02*
G01*
X173950000Y-107390000D01*
X174190000Y-107060000D01*
X174430000Y-107390000D01*
G37*
D11*
X144050000Y-108800000D02*
X144350000Y-108800000D01*
X144050000Y-109400000D02*
X144350000Y-109400000D01*
X124710000Y-68300000D02*
X125010000Y-68300000D01*
X124710000Y-68900000D02*
X125010000Y-68900000D01*
X172950000Y-74400000D02*
X172650000Y-74400000D01*
X172950000Y-75000000D02*
X172650000Y-75000000D01*
X165200000Y-84450000D02*
X165200000Y-84750000D01*
X165800000Y-84450000D02*
X165800000Y-84750000D01*
X172150000Y-96800000D02*
X171850000Y-96800000D01*
X172150000Y-97400000D02*
X171850000Y-97400000D01*
X146600000Y-111350000D02*
X146600000Y-111050000D01*
X147200000Y-111350000D02*
X147200000Y-111050000D01*
X122350000Y-94700000D02*
X122350000Y-95500000D01*
X122450000Y-96500000D02*
X123550000Y-96500000D01*
X123550000Y-93700000D02*
X122450000Y-93700000D01*
X123550000Y-93700000D02*
X123550000Y-94600000D01*
X123550000Y-95600000D02*
X123550000Y-96500000D01*
D18*
X123520000Y-94555000D02*
X123505000Y-94555000D01*
X122720000Y-93770000D01*
X123520000Y-93770000D01*
X123520000Y-94555000D01*
G36*
X123520000Y-94555000D02*
G01*
X123505000Y-94555000D01*
X122720000Y-93770000D01*
X123520000Y-93770000D01*
X123520000Y-94555000D01*
G37*
D11*
X120100000Y-95550000D02*
X120100000Y-95250000D01*
X120700000Y-95550000D02*
X120700000Y-95250000D01*
X147500000Y-84800000D02*
X146900000Y-84800000D01*
X146900000Y-82400000D01*
X147500000Y-82400000D01*
X147500000Y-84800000D01*
D19*
X149230000Y-85300000D02*
G75*
G02*
X149030000Y-85300000I-100000J0D01*
G01*
X149030000Y-85300000D02*
G75*
G02*
X149230000Y-85300000I100000J0D01*
G01*
D18*
X147500000Y-84800000D02*
X146900000Y-84800000D01*
X147500000Y-84200000D01*
X147500000Y-84800000D01*
G36*
X147500000Y-84800000D02*
G01*
X146900000Y-84800000D01*
X147500000Y-84200000D01*
X147500000Y-84800000D01*
G37*
D14*
X122840000Y-98452500D02*
X123315000Y-98452500D01*
X122840000Y-98927500D02*
X122840000Y-98452500D01*
X128060000Y-98452500D02*
X127585000Y-98452500D01*
X128060000Y-98927500D02*
X128060000Y-98452500D01*
X128060000Y-103197500D02*
X128060000Y-103672500D01*
X128060000Y-103672500D02*
X127585000Y-103672500D01*
D18*
X123575000Y-102937500D02*
X127325000Y-102937500D01*
X127325000Y-99187500D01*
X123575000Y-99187500D01*
X123575000Y-102937500D01*
D17*
X122622762Y-104012500D02*
G75*
G02*
X122427238Y-104012500I-97762J0D01*
G01*
X122427238Y-104012500D02*
G75*
G02*
X122622762Y-104012500I97762J0D01*
G01*
D18*
X123375000Y-103762500D02*
X122750000Y-103762500D01*
X122750000Y-103137500D01*
X123375000Y-103762500D01*
G36*
X123375000Y-103762500D02*
G01*
X122750000Y-103762500D01*
X122750000Y-103137500D01*
X123375000Y-103762500D01*
G37*
D11*
X149150000Y-101800000D02*
X149450000Y-101800000D01*
X149150000Y-102400000D02*
X149450000Y-102400000D01*
X125450000Y-105200000D02*
X125750000Y-105200000D01*
X125450000Y-105800000D02*
X125750000Y-105800000D01*
X119600000Y-103550000D02*
X119600000Y-103250000D01*
X120200000Y-103550000D02*
X120200000Y-103250000D01*
X140300000Y-114250000D02*
X140300000Y-113950000D01*
X140900000Y-114250000D02*
X140900000Y-113950000D01*
X146450000Y-101800000D02*
X146150000Y-101800000D01*
X146450000Y-102400000D02*
X146150000Y-102400000D01*
X118700000Y-95550000D02*
X118700000Y-95250000D01*
X119300000Y-95550000D02*
X119300000Y-95250000D01*
X148300000Y-95750000D02*
X148300000Y-95450000D01*
X148900000Y-95750000D02*
X148900000Y-95450000D01*
X142100000Y-114601421D02*
X142100000Y-114126421D01*
X142575000Y-114601421D02*
X142100000Y-114601421D01*
X144835000Y-111381421D02*
X145310000Y-111381421D01*
X144835000Y-114601421D02*
X145310000Y-114601421D01*
X145310000Y-111381421D02*
X145310000Y-111856421D01*
X145310000Y-114601421D02*
X145310000Y-114126421D01*
X141841421Y-110991421D02*
G75*
G02*
X141558579Y-110991421I-141421J0D01*
G01*
X141558579Y-110991421D02*
G75*
G02*
X141841421Y-110991421I141421J0D01*
G01*
D18*
X142000000Y-111891421D02*
X142000000Y-111291421D01*
X142600000Y-111291421D01*
X142000000Y-111891421D01*
G36*
X142000000Y-111891421D02*
G01*
X142000000Y-111291421D01*
X142600000Y-111291421D01*
X142000000Y-111891421D01*
G37*
D11*
X165200000Y-87450000D02*
X165200000Y-87750000D01*
X165800000Y-87450000D02*
X165800000Y-87750000D01*
X115300000Y-89100000D02*
X112100000Y-89100000D01*
X112100000Y-94700000D01*
X115300000Y-94700000D01*
X115300000Y-89100000D01*
X140500000Y-86850000D02*
X140500000Y-87950000D01*
X140500000Y-86850000D02*
X141400000Y-86850000D01*
X141500000Y-88050000D02*
X142300000Y-88050000D01*
X142400000Y-86850000D02*
X143300000Y-86850000D01*
X143300000Y-87950000D02*
X143300000Y-86850000D01*
D18*
X141355000Y-86895000D02*
X140570000Y-87680000D01*
X140570000Y-86880000D01*
X141355000Y-86880000D01*
X141355000Y-86895000D01*
G36*
X141355000Y-86895000D02*
G01*
X140570000Y-87680000D01*
X140570000Y-86880000D01*
X141355000Y-86880000D01*
X141355000Y-86895000D01*
G37*
D11*
X121000000Y-103250000D02*
X121000000Y-103550000D01*
X121600000Y-103250000D02*
X121600000Y-103550000D01*
X145050000Y-81100000D02*
X144750000Y-81100000D01*
X145050000Y-81700000D02*
X144750000Y-81700000D01*
D14*
X161650000Y-111600000D02*
X156750000Y-111600000D01*
X156750000Y-114400000D01*
X161650000Y-114400000D01*
X161650000Y-111600000D01*
D18*
X161650000Y-112775000D02*
X160475000Y-111600000D01*
X161650000Y-111600000D01*
X161650000Y-112775000D01*
G36*
X161650000Y-112775000D02*
G01*
X160475000Y-111600000D01*
X161650000Y-111600000D01*
X161650000Y-112775000D01*
G37*
D11*
X174400000Y-81350000D02*
X174400000Y-81050000D01*
X175000000Y-81350000D02*
X175000000Y-81050000D01*
X168650000Y-78800000D02*
X168950000Y-78800000D01*
X168650000Y-79400000D02*
X168950000Y-79400000D01*
X116000000Y-92875000D02*
X116000000Y-92575000D01*
X116600000Y-92875000D02*
X116600000Y-92575000D01*
X171290000Y-100300000D02*
X175700000Y-100300000D01*
X173600000Y-99850000D02*
X173600000Y-98350000D01*
X175700000Y-97900000D02*
X171190000Y-97900000D01*
X175700000Y-100300000D02*
X175700000Y-97900000D01*
D18*
X173600000Y-99100000D02*
X172250000Y-99850000D01*
X172250000Y-98350000D01*
X173600000Y-99100000D01*
G36*
X173600000Y-99100000D02*
G01*
X172250000Y-99850000D01*
X172250000Y-98350000D01*
X173600000Y-99100000D01*
G37*
D12*
X176000000Y-103900000D02*
X176600000Y-104200000D01*
X176000000Y-104500000D02*
X176000000Y-103900000D01*
X176600000Y-104200000D02*
X176000000Y-104500000D01*
X177290000Y-97680000D02*
X177290000Y-99340000D01*
X177290000Y-103150000D02*
X177290000Y-101440000D01*
X177290000Y-106910000D02*
X177290000Y-105250000D01*
X177290000Y-106910000D02*
X186710000Y-106910000D01*
X183400000Y-106910000D02*
X183400000Y-97680000D01*
X186710000Y-97680000D02*
X177290000Y-97680000D01*
X186710000Y-106910000D02*
X186710000Y-97680000D01*
D11*
X142050000Y-89700000D02*
X141750000Y-89700000D01*
X142050000Y-90300000D02*
X141750000Y-90300000D01*
X158700000Y-90050000D02*
X158700000Y-90350000D01*
X159300000Y-90050000D02*
X159300000Y-90350000D01*
X144000000Y-84350000D02*
X144000000Y-84050000D01*
X144600000Y-84350000D02*
X144600000Y-84050000D01*
X134100000Y-104900000D02*
X136500000Y-104900000D01*
X136500000Y-104300000D01*
X134100000Y-104300000D01*
X134100000Y-104900000D01*
D19*
X133700000Y-106530000D02*
G75*
G02*
X133500000Y-106530000I-100000J0D01*
G01*
X133500000Y-106530000D02*
G75*
G02*
X133700000Y-106530000I100000J0D01*
G01*
D18*
X134700000Y-104900000D02*
X134100000Y-104900000D01*
X134100000Y-104300000D01*
X134700000Y-104900000D01*
G36*
X134700000Y-104900000D02*
G01*
X134100000Y-104900000D01*
X134100000Y-104300000D01*
X134700000Y-104900000D01*
G37*
D11*
X139200000Y-87250000D02*
X139200000Y-87550000D01*
X139800000Y-87250000D02*
X139800000Y-87550000D01*
X116000000Y-80050000D02*
X116000000Y-79750000D01*
X116600000Y-80050000D02*
X116600000Y-79750000D01*
X119600000Y-100250000D02*
X119600000Y-100550000D01*
X120200000Y-100250000D02*
X120200000Y-100550000D01*
X132800000Y-104150000D02*
X132800000Y-103850000D01*
X133400000Y-104150000D02*
X133400000Y-103850000D01*
X149700000Y-95450000D02*
X149700000Y-95750000D01*
X150300000Y-95450000D02*
X150300000Y-95750000D01*
X110700000Y-83050000D02*
X110700000Y-82750000D01*
X111300000Y-83050000D02*
X111300000Y-82750000D01*
X110700000Y-93550000D02*
X110700000Y-93250000D01*
X111300000Y-93550000D02*
X111300000Y-93250000D01*
X126350000Y-96300000D02*
X126050000Y-96300000D01*
X126350000Y-96900000D02*
X126050000Y-96900000D01*
X122850000Y-109400000D02*
X122550000Y-109400000D01*
X122850000Y-110000000D02*
X122550000Y-110000000D01*
X137250000Y-81100000D02*
X136950000Y-81100000D01*
X137250000Y-81700000D02*
X136950000Y-81700000D01*
X165200000Y-81750000D02*
X165200000Y-81450000D01*
X165800000Y-81750000D02*
X165800000Y-81450000D01*
X159700000Y-108600000D02*
X159700000Y-106400000D01*
X162700000Y-106000000D02*
X157125870Y-106000000D01*
X162700000Y-109000000D02*
X157140000Y-109000000D01*
X162700000Y-109000000D02*
X162700000Y-106000000D01*
D18*
X159750000Y-107500000D02*
X158450000Y-108700000D01*
X158450000Y-106300000D01*
X159750000Y-107500000D01*
G36*
X159750000Y-107500000D02*
G01*
X158450000Y-108700000D01*
X158450000Y-106300000D01*
X159750000Y-107500000D01*
G37*
D11*
X115300000Y-78600000D02*
X112100000Y-78600000D01*
X112100000Y-84200000D01*
X115300000Y-84200000D01*
X115300000Y-78600000D01*
X108700000Y-73650000D02*
X108700000Y-73350000D01*
X109300000Y-73650000D02*
X109300000Y-73350000D01*
D12*
X110605000Y-75630000D02*
X110605000Y-65350000D01*
X113205000Y-73030000D02*
X113205000Y-75630000D01*
X113205000Y-75630000D02*
X110605000Y-75630000D01*
X115805000Y-65350000D02*
X110605000Y-65350000D01*
X115805000Y-73030000D02*
X113205000Y-73030000D01*
X115805000Y-73030000D02*
X115805000Y-65350000D01*
X115805000Y-74300000D02*
X115805000Y-75630000D01*
X115805000Y-75630000D02*
X114475000Y-75630000D01*
D11*
X172950000Y-75800000D02*
X172650000Y-75800000D01*
X172950000Y-76400000D02*
X172650000Y-76400000D01*
D12*
X162500000Y-109690000D02*
X163500000Y-109690000D01*
X163000000Y-109190000D02*
X163000000Y-110190000D01*
X163740000Y-108904437D02*
X163740000Y-110690000D01*
X163740000Y-108904437D02*
X164804437Y-107840000D01*
X163740000Y-115495563D02*
X163740000Y-113710000D01*
X163740000Y-115495563D02*
X164804437Y-116560000D01*
X164804437Y-107840000D02*
X172460000Y-107840000D01*
X164804437Y-116560000D02*
X172460000Y-116560000D01*
X172460000Y-107840000D02*
X172460000Y-110690000D01*
X172460000Y-116560000D02*
X172460000Y-113710000D01*
D11*
X155100000Y-91300000D02*
X155100000Y-89100000D01*
X158100000Y-88700000D02*
X152525870Y-88700000D01*
X158100000Y-91700000D02*
X152540000Y-91700000D01*
X158100000Y-91700000D02*
X158100000Y-88700000D01*
D18*
X155150000Y-90200000D02*
X153850000Y-91400000D01*
X153850000Y-89000000D01*
X155150000Y-90200000D01*
G36*
X155150000Y-90200000D02*
G01*
X153850000Y-91400000D01*
X153850000Y-89000000D01*
X155150000Y-90200000D01*
G37*
D11*
X146450000Y-94600000D02*
X146150000Y-94600000D01*
X146450000Y-95200000D02*
X146150000Y-95200000D01*
%LPC*%
D20*
X116300000Y-90500000D03*
X116300000Y-88950000D03*
D21*
X148575000Y-81400000D03*
X147025000Y-81400000D03*
D22*
X145125000Y-89000000D03*
X149275000Y-89000000D03*
D21*
X136075000Y-101900000D03*
X134525000Y-101900000D03*
D23*
X120700000Y-85625000D03*
X121700000Y-85625000D03*
X122700000Y-85625000D03*
X123700000Y-85625000D03*
X124700000Y-85625000D03*
X125700000Y-85625000D03*
X126700000Y-85625000D03*
X127700000Y-85625000D03*
X128700000Y-85625000D03*
X129700000Y-85625000D03*
X130700000Y-85625000D03*
X131700000Y-85625000D03*
D24*
X133835000Y-77670000D03*
X133835000Y-76670000D03*
X133835000Y-75670000D03*
X133835000Y-74670000D03*
D23*
X131700000Y-70825000D03*
X130700000Y-70825000D03*
X129700000Y-70825000D03*
X124700000Y-70825000D03*
X123700000Y-70825000D03*
X122700000Y-70825000D03*
X121700000Y-70825000D03*
X120700000Y-70825000D03*
D24*
X119035000Y-74670000D03*
X119035000Y-75670000D03*
X119035000Y-76670000D03*
X119035000Y-77670000D03*
X119035000Y-78670000D03*
X119035000Y-79670000D03*
X119035000Y-80670000D03*
X119035000Y-81670000D03*
D20*
X111000000Y-91175000D03*
X111000000Y-89625000D03*
D25*
X152300000Y-109200000D03*
X152300000Y-114600000D03*
D26*
X136325000Y-90000000D03*
X137875000Y-90000000D03*
D21*
X137875000Y-84200000D03*
X136325000Y-84200000D03*
D27*
X167625000Y-80555000D03*
X167625000Y-81825000D03*
X167625000Y-83095000D03*
X167625000Y-84365000D03*
X167625000Y-85635000D03*
X167625000Y-86905000D03*
X167625000Y-88175000D03*
X167625000Y-89445000D03*
X172575000Y-89445000D03*
X172575000Y-88175000D03*
X172575000Y-86905000D03*
X172575000Y-85635000D03*
X172575000Y-84365000D03*
X172575000Y-83095000D03*
X172575000Y-81825000D03*
X172575000Y-80555000D03*
D28*
X129800000Y-98225000D03*
X129800000Y-99775000D03*
D26*
X136325000Y-82800000D03*
X137875000Y-82800000D03*
D20*
X127760000Y-67075000D03*
X127760000Y-65525000D03*
D26*
X109225000Y-100200000D03*
X110775000Y-100200000D03*
D29*
X138162500Y-109475000D03*
X138162500Y-108825000D03*
X138162500Y-108175000D03*
X138162500Y-107525000D03*
X132437500Y-107525000D03*
X132437500Y-108175000D03*
X132437500Y-108825000D03*
X132437500Y-109475000D03*
D30*
X105000000Y-99510000D03*
X105000000Y-105290000D03*
D31*
X106525000Y-99150000D03*
X106525000Y-99950000D03*
D32*
X106525000Y-101150000D03*
X106525000Y-102150000D03*
X106525000Y-102650000D03*
X106525000Y-103650000D03*
D31*
X106525000Y-104850000D03*
X106525000Y-105650000D03*
X106525000Y-105650000D03*
X106525000Y-104850000D03*
D32*
X106525000Y-104150000D03*
X106525000Y-103150000D03*
X106525000Y-101650000D03*
X106525000Y-100650000D03*
D31*
X106525000Y-99950000D03*
X106525000Y-99150000D03*
D33*
X105530000Y-98080000D03*
D34*
X101350000Y-98080000D03*
D33*
X105530000Y-106720000D03*
D34*
X101350000Y-106720000D03*
D20*
X140600000Y-111975000D03*
X140600000Y-110425000D03*
D26*
X109225000Y-104600000D03*
X110775000Y-104600000D03*
D35*
X126347500Y-67250000D03*
X126347500Y-65350000D03*
X124072500Y-66300000D03*
D21*
X123475000Y-105500000D03*
X121925000Y-105500000D03*
D36*
X105900000Y-79150000D03*
X105900000Y-83650000D03*
D37*
X108400000Y-77900000D03*
X108400000Y-84900000D03*
D26*
X120385000Y-67200000D03*
X121935000Y-67200000D03*
D20*
X111000000Y-80675000D03*
X111000000Y-79125000D03*
X116300000Y-83675000D03*
X116300000Y-82125000D03*
X123400000Y-108375000D03*
X123400000Y-106825000D03*
D28*
X160400000Y-89425000D03*
X160400000Y-90975000D03*
D38*
X136575000Y-113950000D03*
D39*
X134035000Y-113950000D03*
D26*
X120385000Y-68600000D03*
X121935000Y-68600000D03*
D40*
X178400000Y-76640000D03*
X178400000Y-74100000D03*
X175860000Y-76640000D03*
X175860000Y-74100000D03*
D38*
X132580000Y-90600000D03*
D39*
X130040000Y-90600000D03*
X127500000Y-90600000D03*
X124960000Y-90600000D03*
X122420000Y-90600000D03*
X119880000Y-90600000D03*
D28*
X150000000Y-98425000D03*
X150000000Y-99975000D03*
D21*
X142075000Y-109100000D03*
X140525000Y-109100000D03*
D26*
X128325000Y-96600000D03*
X129875000Y-96600000D03*
D41*
X178600000Y-93230000D03*
D42*
X178600000Y-89420000D03*
X178600000Y-85610000D03*
X178600000Y-81800000D03*
D21*
X128535000Y-68600000D03*
X126985000Y-68600000D03*
X147075000Y-96300000D03*
X145525000Y-96300000D03*
D36*
X105900000Y-89650000D03*
X105900000Y-94150000D03*
D37*
X108400000Y-88400000D03*
X108400000Y-95400000D03*
D28*
X129800000Y-102225000D03*
X129800000Y-103775000D03*
D20*
X146900000Y-114875000D03*
X146900000Y-113325000D03*
D43*
X108862500Y-101450000D03*
X108862500Y-102400000D03*
X108862500Y-103350000D03*
X111137500Y-103350000D03*
X111137500Y-102400000D03*
X111137500Y-101450000D03*
D44*
X141200000Y-97125000D03*
X141200000Y-101275000D03*
D45*
X145510000Y-98210000D03*
X145510000Y-98710000D03*
X145510000Y-99210000D03*
X145510000Y-99710000D03*
X145510000Y-100210000D03*
X148310000Y-100210000D03*
X148310000Y-99710000D03*
X148310000Y-99210000D03*
X148310000Y-98710000D03*
X148310000Y-98210000D03*
D46*
X146910000Y-99210000D03*
D28*
X117000000Y-94825000D03*
X117000000Y-96375000D03*
D21*
X137875000Y-91400000D03*
X136325000Y-91400000D03*
D47*
X136150000Y-88587500D03*
X138050000Y-88587500D03*
X137100000Y-86312500D03*
D20*
X137500000Y-105975000D03*
X137500000Y-104425000D03*
D48*
X118250000Y-103000000D03*
D49*
X118250000Y-100800000D03*
X116550000Y-100800000D03*
X116550000Y-103000000D03*
D50*
X162650000Y-99200000D03*
X152750000Y-99200000D03*
D51*
X174500000Y-106200000D03*
D52*
X168200000Y-103920000D03*
D51*
X174500000Y-101640000D03*
D26*
X143425000Y-109100000D03*
X144975000Y-109100000D03*
X124085000Y-68600000D03*
X125635000Y-68600000D03*
D21*
X173575000Y-74700000D03*
X172025000Y-74700000D03*
D28*
X165500000Y-83825000D03*
X165500000Y-85375000D03*
D21*
X172775000Y-97100000D03*
X171225000Y-97100000D03*
D20*
X146900000Y-111975000D03*
X146900000Y-110425000D03*
D53*
X121812500Y-94150000D03*
X121812500Y-96050000D03*
X124087500Y-95100000D03*
D20*
X120400000Y-96175000D03*
X120400000Y-94625000D03*
D54*
X148337500Y-84550000D03*
X148337500Y-83600000D03*
X148337500Y-82650000D03*
X146062500Y-82650000D03*
X146062500Y-83600000D03*
X146062500Y-84550000D03*
D55*
X123700000Y-103500000D03*
X124200000Y-103500000D03*
X124700000Y-103500000D03*
X125200000Y-103500000D03*
X125700000Y-103500000D03*
X126200000Y-103500000D03*
X126700000Y-103500000D03*
X127200000Y-103500000D03*
D56*
X127887500Y-102812500D03*
X127887500Y-102312500D03*
X127887500Y-101812500D03*
X127887500Y-101312500D03*
X127887500Y-100812500D03*
X127887500Y-100312500D03*
X127887500Y-99812500D03*
X127887500Y-99312500D03*
D55*
X127200000Y-98625000D03*
X126700000Y-98625000D03*
X126200000Y-98625000D03*
X125700000Y-98625000D03*
X125200000Y-98625000D03*
X124700000Y-98625000D03*
X124200000Y-98625000D03*
X123700000Y-98625000D03*
D56*
X123012500Y-99312500D03*
X123012500Y-99812500D03*
X123012500Y-100312500D03*
X123012500Y-100812500D03*
X123012500Y-101312500D03*
X123012500Y-101812500D03*
X123012500Y-102312500D03*
X123012500Y-102812500D03*
D57*
X125450000Y-101062500D03*
D26*
X148525000Y-102100000D03*
X150075000Y-102100000D03*
X124825000Y-105500000D03*
X126375000Y-105500000D03*
D20*
X119900000Y-104175000D03*
X119900000Y-102625000D03*
X140600000Y-114875000D03*
X140600000Y-113325000D03*
D21*
X147075000Y-102100000D03*
X145525000Y-102100000D03*
D20*
X119000000Y-96175000D03*
X119000000Y-94625000D03*
X148600000Y-96375000D03*
X148600000Y-94825000D03*
D58*
X142262500Y-112241421D03*
X142262500Y-112741421D03*
X142262500Y-113241421D03*
X142262500Y-113741421D03*
D59*
X142950000Y-114428921D03*
X143450000Y-114428921D03*
X143950000Y-114428921D03*
X144450000Y-114428921D03*
D58*
X145137500Y-113741421D03*
X145137500Y-113241421D03*
X145137500Y-112741421D03*
X145137500Y-112241421D03*
D59*
X144450000Y-111553921D03*
X143950000Y-111553921D03*
X143450000Y-111553921D03*
X142950000Y-111553921D03*
D60*
X143700000Y-112991421D03*
D28*
X165500000Y-86825000D03*
X165500000Y-88375000D03*
D61*
X113700000Y-88000000D03*
X113700000Y-95800000D03*
D47*
X140950000Y-88587500D03*
X142850000Y-88587500D03*
X141900000Y-86312500D03*
D28*
X121300000Y-102625000D03*
X121300000Y-104175000D03*
D21*
X145675000Y-81400000D03*
X144125000Y-81400000D03*
D62*
X161105000Y-110525000D03*
X159835000Y-110525000D03*
X158565000Y-110525000D03*
X157295000Y-110525000D03*
X157295000Y-115475000D03*
X158565000Y-115475000D03*
X159835000Y-115475000D03*
X161105000Y-115475000D03*
D20*
X174700000Y-81975000D03*
X174700000Y-80425000D03*
D26*
X168025000Y-79100000D03*
X169575000Y-79100000D03*
D20*
X116300000Y-93500000D03*
X116300000Y-91950000D03*
D63*
X174700000Y-99100000D03*
X171200000Y-99100000D03*
D41*
X178600000Y-104200000D03*
D42*
X178600000Y-100390000D03*
D21*
X142675000Y-90000000D03*
X141125000Y-90000000D03*
D28*
X159000000Y-89425000D03*
X159000000Y-90975000D03*
D20*
X144300000Y-84975000D03*
X144300000Y-83425000D03*
D64*
X134350000Y-105737500D03*
X135300000Y-105737500D03*
X136250000Y-105737500D03*
X136250000Y-103462500D03*
X135300000Y-103462500D03*
X134350000Y-103462500D03*
D28*
X139500000Y-86625000D03*
X139500000Y-88175000D03*
D20*
X116300000Y-80675000D03*
X116300000Y-79125000D03*
D28*
X119900000Y-99625000D03*
X119900000Y-101175000D03*
D20*
X133100000Y-104775000D03*
X133100000Y-103225000D03*
D28*
X150000000Y-94825000D03*
X150000000Y-96375000D03*
D20*
X111000000Y-83675000D03*
X111000000Y-82125000D03*
X111000000Y-94175000D03*
X111000000Y-92625000D03*
D21*
X126975000Y-96600000D03*
X125425000Y-96600000D03*
X123475000Y-109700000D03*
X121925000Y-109700000D03*
X137875000Y-81400000D03*
X136325000Y-81400000D03*
D20*
X165500000Y-82375000D03*
X165500000Y-80825000D03*
D65*
X161150000Y-107500000D03*
X157100000Y-107500000D03*
D61*
X113700000Y-77500000D03*
X113700000Y-85300000D03*
D20*
X109000000Y-74275000D03*
X109000000Y-72725000D03*
D66*
X114475000Y-74300000D03*
D67*
X111935000Y-74300000D03*
X114475000Y-71760000D03*
X111935000Y-71760000D03*
X114475000Y-69220000D03*
X111935000Y-69220000D03*
X114475000Y-66680000D03*
X111935000Y-66680000D03*
D21*
X173575000Y-76100000D03*
X172025000Y-76100000D03*
D68*
X164400000Y-112200000D03*
X171800000Y-112200000D03*
D65*
X156550000Y-90200000D03*
X152500000Y-90200000D03*
D21*
X147075000Y-94900000D03*
X145525000Y-94900000D03*
%LPD*%
M02*
