M48
; DRILL file {KiCad 8.0.2-8.0.2-0~ubuntu23.10.1} date 2024-05-02T10:41:40+0700
; FORMAT={-:-/ absolute / metric / decimal}
; #@! TF.CreationDate,2024-05-02T10:41:40+07:00
; #@! TF.GenerationSoftware,Kicad,Pcbnew,8.0.2-8.0.2-0~ubuntu23.10.1
; #@! TF.FileFunction,Plated,1,2,PTH
FMAT,2
METRIC
; #@! TA.AperFunction,Plated,PTH,ViaDrill
T1C0.300
; #@! TA.AperFunction,Plated,PTH,ComponentDrill
T2C0.300
; #@! TA.AperFunction,Plated,PTH,ViaDrill
T3C0.400
; #@! TA.AperFunction,Plated,PTH,ComponentDrill
T4C0.400
; #@! TA.AperFunction,Plated,PTH,ComponentDrill
T5C0.600
; #@! TA.AperFunction,Plated,PTH,ComponentDrill
T6C0.800
; #@! TA.AperFunction,Plated,PTH,ComponentDrill
T7C1.000
; #@! TA.AperFunction,Plated,PTH,ComponentDrill
T8C1.100
; #@! TA.AperFunction,Plated,PTH,ComponentDrill
T9C1.200
; #@! TA.AperFunction,Plated,PTH,ComponentDrill
T10C1.400
%
G90
G05
T1
X116.45Y-107.45
X118.6Y-109.9
X119.9Y-92.1
X119.9Y-102.55
X120.85Y-109.9
X121.0Y-88.15
X121.0Y-98.7
X124.0Y-100.9
X124.5Y-108.1
X124.5Y-109.5
X124.5Y-110.8
X124.75Y-101.9
X124.9Y-107.1
X124.9Y-112.0
X125.2Y-92.1
X126.6Y-107.1
X126.6Y-112.0
X128.0Y-107.1
X128.0Y-112.0
X129.5Y-83.2
X129.5Y-84.2
X130.185Y-108.196
X130.784Y-107.666
X131.6Y-91.6
X131.65Y-79.7
X131.65Y-80.55
X134.85Y-88.45
X137.2Y-101.5
X137.2Y-111.85
X137.25Y-88.45
X137.85Y-107.232
X137.9Y-99.8
X137.9Y-109.957
X137.9Y-110.8
X138.0Y-101.5
X144.65Y-89.25
X146.154Y-99.654
X151.287Y-121.887
X153.838Y-117.438
X154.037Y-121.887
X164.2Y-89.6
X171.05Y-89.35
X180.9Y-81.25
T2
X134.6Y-118.6
X152.05Y-119.938
X152.05Y-121.037
X152.6Y-120.487
X153.15Y-119.938
X153.15Y-121.037
X155.25Y-106.7
X155.825Y-105.75
X155.825Y-107.65
X156.4Y-106.7
T3
X110.05Y-115.9
X110.9Y-80.4
X110.9Y-82.4
X110.9Y-84.4
X110.9Y-86.4
X110.9Y-88.4
X110.9Y-90.4
X110.9Y-92.4
X110.9Y-94.4
X110.9Y-96.4
X110.9Y-98.4
X110.9Y-100.4
X110.9Y-102.4
X110.9Y-107.35
X110.9Y-109.35
X110.9Y-111.35
X112.15Y-114.25
X114.5Y-94.2
X114.7Y-80.5
X114.8Y-88.9
X114.8Y-99.4
X114.8Y-103.9
X114.9Y-83.6
X116.0Y-115.25
X116.7Y-80.2
X116.7Y-106.4
X116.7Y-113.1
X117.4Y-72.6
X117.7Y-79.3
X118.0Y-90.0
X118.0Y-115.25
X118.0Y-117.25
X118.3Y-100.5
X118.5Y-94.2
X118.7Y-86.9
X118.7Y-97.4
X118.7Y-105.4
X119.2Y-83.3
X120.0Y-115.25
X120.0Y-117.25
X120.5Y-107.0
X120.5Y-112.8
X121.3Y-105.4
X121.5Y-101.4
X121.8Y-89.6
X121.8Y-91.0
X121.8Y-108.1
X122.0Y-115.25
X122.0Y-117.25
X122.5Y-97.6
X122.6Y-94.3
X123.2Y-110.9
X123.2Y-112.8
X123.4Y-86.3
X123.6Y-99.4
X123.8Y-91.4
X123.9Y-89.5
X124.0Y-115.25
X124.0Y-117.25
X124.2Y-96.4
X125.2Y-85.7
X125.4Y-73.8
X125.6Y-83.9
X126.0Y-115.25
X126.0Y-117.25
X126.1Y-86.6
X126.2Y-75.0
X126.5Y-85.2
X127.0Y-73.8
X127.0Y-90.6
X127.0Y-103.3
X127.0Y-104.2
X127.2Y-98.4
X127.3Y-96.1
X127.55Y-75.1
X127.9Y-93.1
X128.0Y-115.25
X128.0Y-117.25
X128.05Y-75.8
X128.55Y-75.1
X128.8Y-90.6
X129.0Y-106.4
X129.0Y-112.7
X129.4Y-85.2
X130.0Y-113.1
X130.0Y-115.25
X130.0Y-117.25
X130.25Y-114.15
X130.4Y-116.4
X130.4Y-118.2
X131.2Y-110.1
X131.3Y-114.15
X131.3Y-115.25
X131.3Y-116.4
X131.3Y-118.25
X131.4Y-111.7
X131.6Y-73.8
X131.7Y-102.6
X132.2Y-104.1
X133.2Y-82.05
X133.25Y-85.4
X133.25Y-87.4
X133.25Y-89.4
X133.5Y-104.1
X133.55Y-114.9
X133.55Y-116.05
X133.55Y-117.2
X133.55Y-118.35
X133.6Y-101.2
X134.3Y-73.8
X134.95Y-117.65
X135.0Y-112.2
X135.0Y-115.5
X135.3Y-102.6
X136.0Y-101.2
X136.05Y-78.05
X136.05Y-80.05
X136.05Y-82.05
X136.2Y-102.6
X136.6Y-113.6
X137.0Y-115.5
X137.0Y-117.65
X138.0Y-73.8
X138.3Y-112.1
X138.45Y-85.4
X138.45Y-87.4
X138.45Y-89.4
X139.0Y-82.05
X139.0Y-115.5
X139.0Y-117.65
X139.35Y-76.8
X139.65Y-91.65
X139.9Y-110.4
X140.8Y-85.4
X140.8Y-87.4
X140.8Y-89.4
X140.9Y-73.8
X141.1Y-118.9
X141.1Y-121.3
X141.15Y-76.85
X141.3Y-123.65
X141.6Y-79.2
X141.6Y-81.0
X143.2Y-95.9
X143.2Y-97.9
X143.2Y-99.9
X143.2Y-101.9
X143.2Y-103.9
X143.2Y-105.9
X143.2Y-107.9
X143.3Y-123.65
X144.1Y-73.8
X144.1Y-79.2
X144.3Y-114.8
X144.9Y-115.5
X144.9Y-116.4
X144.9Y-117.3
X145.2Y-82.7
X145.2Y-84.7
X145.25Y-95.05
X145.3Y-123.65
X145.7Y-75.5
X145.7Y-115.9
X145.7Y-116.8
X145.8Y-88.2
X146.15Y-101.9
X146.15Y-103.9
X146.15Y-105.9
X146.15Y-107.9
X146.2Y-81.0
X147.15Y-95.1
X147.2Y-82.7
X147.2Y-84.7
X147.3Y-123.65
X147.4Y-114.0
X147.45Y-88.2
X147.6Y-77.4
X148.0Y-118.9
X148.35Y-111.15
X148.4Y-72.3
X148.85Y-84.4
X149.2Y-79.0
X149.3Y-123.65
X149.4Y-115.6
X149.45Y-113.55
X149.8Y-101.6
X149.8Y-102.5
X150.4Y-72.3
X150.4Y-74.3
X150.4Y-117.9
X150.7Y-101.6
X150.7Y-102.5
X151.05Y-111.15
X151.05Y-113.55
X151.3Y-123.65
X152.3Y-115.6
X152.4Y-72.3
X152.4Y-74.3
X152.4Y-76.3
X152.4Y-78.3
X152.45Y-82.5
X153.3Y-123.65
X153.6Y-114.9
X153.6Y-115.8
X153.7Y-88.1
X153.8Y-100.25
X154.1Y-81.15
X154.15Y-93.1
X154.4Y-72.3
X154.4Y-74.3
X154.4Y-76.3
X154.4Y-78.3
X154.4Y-110.7
X154.4Y-111.6
X154.5Y-114.9
X154.5Y-115.8
X154.8Y-100.25
X155.3Y-110.7
X155.3Y-111.6
X155.3Y-123.65
X156.05Y-87.95
X156.4Y-72.3
X156.4Y-74.3
X156.4Y-76.3
X156.4Y-78.3
X156.45Y-100.25
X156.8Y-120.4
X156.8Y-121.3
X157.3Y-123.65
X157.7Y-120.4
X157.7Y-121.3
X157.85Y-82.5
X158.0Y-111.85
X158.4Y-72.3
X158.4Y-74.3
X158.4Y-76.3
X158.4Y-78.3
X158.4Y-87.95
X158.5Y-90.7
X158.85Y-100.25
X159.05Y-110.9
X159.05Y-112.9
X159.2Y-118.1
X159.2Y-120.1
X159.2Y-122.1
X159.3Y-123.65
X159.75Y-90.05
X159.75Y-91.5
X159.85Y-82.5
X160.4Y-72.3
X160.4Y-74.3
X160.4Y-76.3
X160.4Y-78.3
X160.65Y-94.95
X160.85Y-88.6
X161.55Y-90.35
X161.55Y-92.45
X161.85Y-82.5
X162.4Y-72.3
X162.4Y-74.3
X162.4Y-76.3
X162.4Y-78.3
X162.65Y-95.8
X162.75Y-86.7
X163.0Y-94.05
X163.35Y-121.45
X163.35Y-123.45
X163.4Y-117.15
X163.85Y-82.5
X164.4Y-72.3
X164.4Y-74.3
X164.4Y-76.3
X164.4Y-78.3
X164.7Y-118.55
X164.75Y-86.7
X165.0Y-121.4
X165.2Y-95.8
X165.85Y-82.5
X166.4Y-72.3
X166.4Y-74.3
X166.4Y-76.3
X166.4Y-78.3
X166.4Y-121.4
X166.75Y-86.7
X167.65Y-95.8
X167.75Y-121.4
X167.85Y-82.5
X168.4Y-72.3
X168.4Y-74.3
X168.4Y-76.3
X168.4Y-78.3
X168.4Y-120.1
X168.75Y-86.7
X169.05Y-121.4
X169.15Y-95.8
X169.8Y-91.45
X169.8Y-94.0
X169.85Y-82.5
X170.4Y-72.3
X170.4Y-74.3
X170.4Y-76.3
X170.4Y-78.3
X170.85Y-84.2
X171.55Y-123.3
X171.85Y-82.5
X172.1Y-94.05
X172.4Y-72.3
X172.4Y-74.3
X172.4Y-76.3
X172.4Y-78.3
X172.5Y-96.25
X172.5Y-98.15
X173.1Y-85.25
X173.55Y-123.3
X173.65Y-94.05
X173.85Y-82.5
X174.4Y-72.3
X174.4Y-74.3
X174.4Y-76.3
X174.4Y-78.3
X174.65Y-106.8
X174.7Y-102.65
X174.7Y-104.65
X174.75Y-96.25
X174.95Y-84.55
X174.95Y-86.45
X174.95Y-99.1
X175.55Y-123.3
X175.85Y-82.5
X176.4Y-72.3
X176.4Y-74.3
X176.4Y-76.3
X176.4Y-78.3
X176.7Y-102.65
X176.7Y-104.65
X176.7Y-106.8
X177.45Y-120.9
X177.55Y-123.3
X177.85Y-82.5
X178.4Y-72.3
X178.4Y-74.3
X178.4Y-76.3
X178.4Y-78.3
X178.7Y-102.65
X178.7Y-104.65
X178.7Y-106.8
X178.75Y-99.1
X179.55Y-123.3
X179.85Y-82.5
X180.4Y-72.3
X180.4Y-74.3
X180.4Y-76.3
X180.4Y-78.3
X180.7Y-102.65
X181.35Y-114.1
X181.55Y-123.3
X182.4Y-72.3
X182.4Y-74.3
X182.4Y-76.3
X182.4Y-78.3
X182.5Y-111.9
X182.65Y-99.1
X182.7Y-102.65
X182.7Y-104.65
X183.15Y-86.1
X183.4Y-116.7
X183.55Y-123.3
X184.4Y-72.3
X184.7Y-79.85
X184.7Y-102.65
X186.35Y-99.1
X186.5Y-114.5
X186.5Y-115.55
X186.6Y-86.05
X191.35Y-80.05
X191.35Y-82.05
X191.35Y-84.05
X191.35Y-86.05
X191.35Y-88.05
X191.35Y-90.05
X191.35Y-92.05
X191.35Y-94.05
X191.35Y-96.05
X191.35Y-98.05
X191.35Y-100.05
X191.35Y-102.05
X191.35Y-104.05
X191.35Y-106.05
X191.35Y-108.05
X191.35Y-110.05
X191.35Y-112.05
X191.35Y-114.05
X191.35Y-116.05
T4
X133.944Y-108.007
X133.944Y-109.182
X134.544Y-108.582
X135.144Y-108.007
X135.144Y-109.182
T6
X184.735Y-81.63
X184.735Y-84.17
X187.275Y-81.63
X187.275Y-84.17
T7
X120.86Y-74.22
X120.86Y-76.76
X120.86Y-79.3
X120.86Y-81.84
X123.4Y-74.22
X123.4Y-76.76
X123.4Y-79.3
X123.4Y-81.84
X128.805Y-98.1
X131.345Y-98.1
X133.885Y-98.1
X136.425Y-98.1
X138.965Y-98.1
X141.505Y-98.1
X142.91Y-121.45
X145.45Y-121.45
T8
X114.8Y-86.65
X114.8Y-91.15
X114.8Y-97.15
X114.8Y-101.65
T9
X187.5Y-89.3
X187.5Y-93.11
X187.5Y-96.92
X187.5Y-100.73
X187.5Y-107.89
X187.5Y-111.7
T10
X117.3Y-85.4
X117.3Y-92.4
X117.3Y-95.9
X117.3Y-102.9
T5
X110.55Y-105.58G85X109.95Y-105.58
G05
X110.55Y-114.22G85X109.95Y-114.22
G05
X114.98Y-105.58G85X113.88Y-105.58
G05
X114.98Y-114.22G85X113.88Y-114.22
G05
M30
