%TF.GenerationSoftware,KiCad,Pcbnew,8.0.2-8.0.2-0~ubuntu23.10.1*%
%TF.CreationDate,2024-05-02T10:41:41+07:00*%
%TF.ProjectId,Node_RS485,4e6f6465-5f52-4533-9438-352e6b696361,rev?*%
%TF.SameCoordinates,Original*%
%TF.FileFunction,Drillmap*%
%TF.FilePolarity,Positive*%
%FSLAX45Y45*%
G04 Gerber Fmt 4.5, Leading zero omitted, Abs format (unit mm)*
G04 Created by KiCad (PCBNEW 8.0.2-8.0.2-0~ubuntu23.10.1) date 2024-05-02 10:41:41*
%MOMM*%
%LPD*%
G01*
G04 APERTURE LIST*
%ADD10C,0.250000*%
%ADD11C,0.200000*%
%ADD12C,0.100000*%
G04 APERTURE END LIST*
D10*
X19010000Y-11740000D02*
X19250000Y-11740000D01*
X11350000Y-7120000D02*
X18780000Y-7120000D01*
X11350000Y-11670000D02*
G75*
G02*
X11700000Y-12020000I0J-350000D01*
G01*
X11350000Y-12490000D02*
X18780000Y-12490000D01*
X11700000Y-7590000D02*
G75*
G02*
X11350000Y-7940000I-350000J0D01*
G01*
X18800000Y-11670000D02*
G75*
G02*
X19010000Y-11740000I0J-350000D01*
G01*
X18430000Y-12020000D02*
X18430000Y-12040000D01*
X11700000Y-12040000D02*
G75*
G02*
X11350000Y-12390000I-350000J0D01*
G01*
X11330000Y-7940000D02*
G75*
G02*
X11120000Y-7870000I0J350000D01*
G01*
X18780000Y-12390000D02*
G75*
G02*
X18430000Y-12040000I0J350000D01*
G01*
X19250000Y-7870000D02*
X19250000Y-11740000D01*
X11700000Y-12020000D02*
X11700000Y-12040000D01*
X18780000Y-11670000D02*
X18800000Y-11670000D01*
X10880000Y-7870000D02*
X10880000Y-11740000D01*
X11120000Y-11740000D02*
X10880000Y-11740000D01*
X11350000Y-11670000D02*
X11330000Y-11670000D01*
X11350000Y-7940000D02*
X11330000Y-7940000D01*
X18430000Y-12020000D02*
G75*
G02*
X18780000Y-11670000I350000J0D01*
G01*
X11120000Y-7870000D02*
X10880000Y-7870000D01*
X18780000Y-7940000D02*
G75*
G02*
X18430000Y-7590000I0J350000D01*
G01*
X18430000Y-7570000D02*
G75*
G02*
X18780000Y-7220000I350000J0D01*
G01*
X18780000Y-12390000D02*
X18780000Y-12490000D01*
X11350000Y-7220000D02*
X11350000Y-7120000D01*
X11350000Y-12390000D02*
X11350000Y-12490000D01*
X11120000Y-11740000D02*
G75*
G02*
X11330000Y-11670000I210000J-280000D01*
G01*
X19250000Y-7870000D02*
X19010000Y-7870000D01*
X18780000Y-7120000D02*
X18780000Y-7220000D01*
X11700000Y-7590000D02*
X11700000Y-7570000D01*
X18800000Y-7940000D02*
X18780000Y-7940000D01*
X11350000Y-7220000D02*
G75*
G02*
X11700000Y-7570000I0J-350000D01*
G01*
X18430000Y-7570000D02*
X18430000Y-7590000D01*
X19010000Y-7870000D02*
G75*
G02*
X18800000Y-7940000I-210000J280000D01*
G01*
D11*
D12*
X11357500Y-10668500D02*
X11422500Y-10733500D01*
X11422500Y-10668500D02*
X11357500Y-10733500D01*
X11357500Y-11246500D02*
X11422500Y-11311500D01*
X11422500Y-11246500D02*
X11357500Y-11311500D01*
D11*
X11128277Y-12813984D02*
X11128277Y-12613984D01*
X11128277Y-12613984D02*
X11175896Y-12613984D01*
X11175896Y-12613984D02*
X11204467Y-12623508D01*
X11204467Y-12623508D02*
X11223515Y-12642555D01*
X11223515Y-12642555D02*
X11233039Y-12661603D01*
X11233039Y-12661603D02*
X11242562Y-12699698D01*
X11242562Y-12699698D02*
X11242562Y-12728269D01*
X11242562Y-12728269D02*
X11233039Y-12766365D01*
X11233039Y-12766365D02*
X11223515Y-12785412D01*
X11223515Y-12785412D02*
X11204467Y-12804460D01*
X11204467Y-12804460D02*
X11175896Y-12813984D01*
X11175896Y-12813984D02*
X11128277Y-12813984D01*
X11328277Y-12813984D02*
X11328277Y-12680650D01*
X11328277Y-12718746D02*
X11337801Y-12699698D01*
X11337801Y-12699698D02*
X11347324Y-12690174D01*
X11347324Y-12690174D02*
X11366372Y-12680650D01*
X11366372Y-12680650D02*
X11385420Y-12680650D01*
X11452086Y-12813984D02*
X11452086Y-12680650D01*
X11452086Y-12613984D02*
X11442562Y-12623508D01*
X11442562Y-12623508D02*
X11452086Y-12633031D01*
X11452086Y-12633031D02*
X11461610Y-12623508D01*
X11461610Y-12623508D02*
X11452086Y-12613984D01*
X11452086Y-12613984D02*
X11452086Y-12633031D01*
X11575896Y-12813984D02*
X11556848Y-12804460D01*
X11556848Y-12804460D02*
X11547324Y-12785412D01*
X11547324Y-12785412D02*
X11547324Y-12613984D01*
X11680658Y-12813984D02*
X11661610Y-12804460D01*
X11661610Y-12804460D02*
X11652086Y-12785412D01*
X11652086Y-12785412D02*
X11652086Y-12613984D01*
X11909229Y-12813984D02*
X11909229Y-12613984D01*
X11909229Y-12613984D02*
X11975896Y-12756841D01*
X11975896Y-12756841D02*
X12042562Y-12613984D01*
X12042562Y-12613984D02*
X12042562Y-12813984D01*
X12223515Y-12813984D02*
X12223515Y-12709222D01*
X12223515Y-12709222D02*
X12213991Y-12690174D01*
X12213991Y-12690174D02*
X12194943Y-12680650D01*
X12194943Y-12680650D02*
X12156848Y-12680650D01*
X12156848Y-12680650D02*
X12137801Y-12690174D01*
X12223515Y-12804460D02*
X12204467Y-12813984D01*
X12204467Y-12813984D02*
X12156848Y-12813984D01*
X12156848Y-12813984D02*
X12137801Y-12804460D01*
X12137801Y-12804460D02*
X12128277Y-12785412D01*
X12128277Y-12785412D02*
X12128277Y-12766365D01*
X12128277Y-12766365D02*
X12137801Y-12747317D01*
X12137801Y-12747317D02*
X12156848Y-12737793D01*
X12156848Y-12737793D02*
X12204467Y-12737793D01*
X12204467Y-12737793D02*
X12223515Y-12728269D01*
X12318753Y-12680650D02*
X12318753Y-12880650D01*
X12318753Y-12690174D02*
X12337801Y-12680650D01*
X12337801Y-12680650D02*
X12375896Y-12680650D01*
X12375896Y-12680650D02*
X12394943Y-12690174D01*
X12394943Y-12690174D02*
X12404467Y-12699698D01*
X12404467Y-12699698D02*
X12413991Y-12718746D01*
X12413991Y-12718746D02*
X12413991Y-12775888D01*
X12413991Y-12775888D02*
X12404467Y-12794936D01*
X12404467Y-12794936D02*
X12394943Y-12804460D01*
X12394943Y-12804460D02*
X12375896Y-12813984D01*
X12375896Y-12813984D02*
X12337801Y-12813984D01*
X12337801Y-12813984D02*
X12318753Y-12804460D01*
X12499705Y-12794936D02*
X12509229Y-12804460D01*
X12509229Y-12804460D02*
X12499705Y-12813984D01*
X12499705Y-12813984D02*
X12490182Y-12804460D01*
X12490182Y-12804460D02*
X12499705Y-12794936D01*
X12499705Y-12794936D02*
X12499705Y-12813984D01*
X12499705Y-12690174D02*
X12509229Y-12699698D01*
X12509229Y-12699698D02*
X12499705Y-12709222D01*
X12499705Y-12709222D02*
X12490182Y-12699698D01*
X12490182Y-12699698D02*
X12499705Y-12690174D01*
X12499705Y-12690174D02*
X12499705Y-12709222D01*
D12*
X10802500Y-13110000D02*
X10867500Y-13175000D01*
X10867500Y-13110000D02*
X10802500Y-13175000D01*
D11*
X11166372Y-13033984D02*
X11185420Y-13033984D01*
X11185420Y-13033984D02*
X11204467Y-13043508D01*
X11204467Y-13043508D02*
X11213991Y-13053031D01*
X11213991Y-13053031D02*
X11223515Y-13072079D01*
X11223515Y-13072079D02*
X11233039Y-13110174D01*
X11233039Y-13110174D02*
X11233039Y-13157793D01*
X11233039Y-13157793D02*
X11223515Y-13195888D01*
X11223515Y-13195888D02*
X11213991Y-13214936D01*
X11213991Y-13214936D02*
X11204467Y-13224460D01*
X11204467Y-13224460D02*
X11185420Y-13233984D01*
X11185420Y-13233984D02*
X11166372Y-13233984D01*
X11166372Y-13233984D02*
X11147324Y-13224460D01*
X11147324Y-13224460D02*
X11137801Y-13214936D01*
X11137801Y-13214936D02*
X11128277Y-13195888D01*
X11128277Y-13195888D02*
X11118753Y-13157793D01*
X11118753Y-13157793D02*
X11118753Y-13110174D01*
X11118753Y-13110174D02*
X11128277Y-13072079D01*
X11128277Y-13072079D02*
X11137801Y-13053031D01*
X11137801Y-13053031D02*
X11147324Y-13043508D01*
X11147324Y-13043508D02*
X11166372Y-13033984D01*
X11318753Y-13214936D02*
X11328277Y-13224460D01*
X11328277Y-13224460D02*
X11318753Y-13233984D01*
X11318753Y-13233984D02*
X11309229Y-13224460D01*
X11309229Y-13224460D02*
X11318753Y-13214936D01*
X11318753Y-13214936D02*
X11318753Y-13233984D01*
X11499705Y-13033984D02*
X11461610Y-13033984D01*
X11461610Y-13033984D02*
X11442562Y-13043508D01*
X11442562Y-13043508D02*
X11433039Y-13053031D01*
X11433039Y-13053031D02*
X11413991Y-13081603D01*
X11413991Y-13081603D02*
X11404467Y-13119698D01*
X11404467Y-13119698D02*
X11404467Y-13195888D01*
X11404467Y-13195888D02*
X11413991Y-13214936D01*
X11413991Y-13214936D02*
X11423515Y-13224460D01*
X11423515Y-13224460D02*
X11442562Y-13233984D01*
X11442562Y-13233984D02*
X11480658Y-13233984D01*
X11480658Y-13233984D02*
X11499705Y-13224460D01*
X11499705Y-13224460D02*
X11509229Y-13214936D01*
X11509229Y-13214936D02*
X11518753Y-13195888D01*
X11518753Y-13195888D02*
X11518753Y-13148269D01*
X11518753Y-13148269D02*
X11509229Y-13129222D01*
X11509229Y-13129222D02*
X11499705Y-13119698D01*
X11499705Y-13119698D02*
X11480658Y-13110174D01*
X11480658Y-13110174D02*
X11442562Y-13110174D01*
X11442562Y-13110174D02*
X11423515Y-13119698D01*
X11423515Y-13119698D02*
X11413991Y-13129222D01*
X11413991Y-13129222D02*
X11404467Y-13148269D01*
X11699705Y-13033984D02*
X11604467Y-13033984D01*
X11604467Y-13033984D02*
X11594943Y-13129222D01*
X11594943Y-13129222D02*
X11604467Y-13119698D01*
X11604467Y-13119698D02*
X11623515Y-13110174D01*
X11623515Y-13110174D02*
X11671134Y-13110174D01*
X11671134Y-13110174D02*
X11690182Y-13119698D01*
X11690182Y-13119698D02*
X11699705Y-13129222D01*
X11699705Y-13129222D02*
X11709229Y-13148269D01*
X11709229Y-13148269D02*
X11709229Y-13195888D01*
X11709229Y-13195888D02*
X11699705Y-13214936D01*
X11699705Y-13214936D02*
X11690182Y-13224460D01*
X11690182Y-13224460D02*
X11671134Y-13233984D01*
X11671134Y-13233984D02*
X11623515Y-13233984D01*
X11623515Y-13233984D02*
X11604467Y-13224460D01*
X11604467Y-13224460D02*
X11594943Y-13214936D01*
X11833039Y-13033984D02*
X11852086Y-13033984D01*
X11852086Y-13033984D02*
X11871134Y-13043508D01*
X11871134Y-13043508D02*
X11880658Y-13053031D01*
X11880658Y-13053031D02*
X11890182Y-13072079D01*
X11890182Y-13072079D02*
X11899705Y-13110174D01*
X11899705Y-13110174D02*
X11899705Y-13157793D01*
X11899705Y-13157793D02*
X11890182Y-13195888D01*
X11890182Y-13195888D02*
X11880658Y-13214936D01*
X11880658Y-13214936D02*
X11871134Y-13224460D01*
X11871134Y-13224460D02*
X11852086Y-13233984D01*
X11852086Y-13233984D02*
X11833039Y-13233984D01*
X11833039Y-13233984D02*
X11813991Y-13224460D01*
X11813991Y-13224460D02*
X11804467Y-13214936D01*
X11804467Y-13214936D02*
X11794943Y-13195888D01*
X11794943Y-13195888D02*
X11785420Y-13157793D01*
X11785420Y-13157793D02*
X11785420Y-13110174D01*
X11785420Y-13110174D02*
X11794943Y-13072079D01*
X11794943Y-13072079D02*
X11804467Y-13053031D01*
X11804467Y-13053031D02*
X11813991Y-13043508D01*
X11813991Y-13043508D02*
X11833039Y-13033984D01*
X11985420Y-13233984D02*
X11985420Y-13100650D01*
X11985420Y-13119698D02*
X11994943Y-13110174D01*
X11994943Y-13110174D02*
X12013991Y-13100650D01*
X12013991Y-13100650D02*
X12042563Y-13100650D01*
X12042563Y-13100650D02*
X12061610Y-13110174D01*
X12061610Y-13110174D02*
X12071134Y-13129222D01*
X12071134Y-13129222D02*
X12071134Y-13233984D01*
X12071134Y-13129222D02*
X12080658Y-13110174D01*
X12080658Y-13110174D02*
X12099705Y-13100650D01*
X12099705Y-13100650D02*
X12128277Y-13100650D01*
X12128277Y-13100650D02*
X12147324Y-13110174D01*
X12147324Y-13110174D02*
X12156848Y-13129222D01*
X12156848Y-13129222D02*
X12156848Y-13233984D01*
X12252086Y-13233984D02*
X12252086Y-13100650D01*
X12252086Y-13119698D02*
X12261610Y-13110174D01*
X12261610Y-13110174D02*
X12280658Y-13100650D01*
X12280658Y-13100650D02*
X12309229Y-13100650D01*
X12309229Y-13100650D02*
X12328277Y-13110174D01*
X12328277Y-13110174D02*
X12337801Y-13129222D01*
X12337801Y-13129222D02*
X12337801Y-13233984D01*
X12337801Y-13129222D02*
X12347324Y-13110174D01*
X12347324Y-13110174D02*
X12366372Y-13100650D01*
X12366372Y-13100650D02*
X12394943Y-13100650D01*
X12394943Y-13100650D02*
X12413991Y-13110174D01*
X12413991Y-13110174D02*
X12423515Y-13129222D01*
X12423515Y-13129222D02*
X12423515Y-13233984D01*
X12813991Y-13024460D02*
X12642563Y-13281603D01*
X13071134Y-13033984D02*
X13090182Y-13033984D01*
X13090182Y-13033984D02*
X13109229Y-13043508D01*
X13109229Y-13043508D02*
X13118753Y-13053031D01*
X13118753Y-13053031D02*
X13128277Y-13072079D01*
X13128277Y-13072079D02*
X13137801Y-13110174D01*
X13137801Y-13110174D02*
X13137801Y-13157793D01*
X13137801Y-13157793D02*
X13128277Y-13195888D01*
X13128277Y-13195888D02*
X13118753Y-13214936D01*
X13118753Y-13214936D02*
X13109229Y-13224460D01*
X13109229Y-13224460D02*
X13090182Y-13233984D01*
X13090182Y-13233984D02*
X13071134Y-13233984D01*
X13071134Y-13233984D02*
X13052086Y-13224460D01*
X13052086Y-13224460D02*
X13042563Y-13214936D01*
X13042563Y-13214936D02*
X13033039Y-13195888D01*
X13033039Y-13195888D02*
X13023515Y-13157793D01*
X13023515Y-13157793D02*
X13023515Y-13110174D01*
X13023515Y-13110174D02*
X13033039Y-13072079D01*
X13033039Y-13072079D02*
X13042563Y-13053031D01*
X13042563Y-13053031D02*
X13052086Y-13043508D01*
X13052086Y-13043508D02*
X13071134Y-13033984D01*
X13223515Y-13214936D02*
X13233039Y-13224460D01*
X13233039Y-13224460D02*
X13223515Y-13233984D01*
X13223515Y-13233984D02*
X13213991Y-13224460D01*
X13213991Y-13224460D02*
X13223515Y-13214936D01*
X13223515Y-13214936D02*
X13223515Y-13233984D01*
X13356848Y-13033984D02*
X13375896Y-13033984D01*
X13375896Y-13033984D02*
X13394944Y-13043508D01*
X13394944Y-13043508D02*
X13404467Y-13053031D01*
X13404467Y-13053031D02*
X13413991Y-13072079D01*
X13413991Y-13072079D02*
X13423515Y-13110174D01*
X13423515Y-13110174D02*
X13423515Y-13157793D01*
X13423515Y-13157793D02*
X13413991Y-13195888D01*
X13413991Y-13195888D02*
X13404467Y-13214936D01*
X13404467Y-13214936D02*
X13394944Y-13224460D01*
X13394944Y-13224460D02*
X13375896Y-13233984D01*
X13375896Y-13233984D02*
X13356848Y-13233984D01*
X13356848Y-13233984D02*
X13337801Y-13224460D01*
X13337801Y-13224460D02*
X13328277Y-13214936D01*
X13328277Y-13214936D02*
X13318753Y-13195888D01*
X13318753Y-13195888D02*
X13309229Y-13157793D01*
X13309229Y-13157793D02*
X13309229Y-13110174D01*
X13309229Y-13110174D02*
X13318753Y-13072079D01*
X13318753Y-13072079D02*
X13328277Y-13053031D01*
X13328277Y-13053031D02*
X13337801Y-13043508D01*
X13337801Y-13043508D02*
X13356848Y-13033984D01*
X13499706Y-13053031D02*
X13509229Y-13043508D01*
X13509229Y-13043508D02*
X13528277Y-13033984D01*
X13528277Y-13033984D02*
X13575896Y-13033984D01*
X13575896Y-13033984D02*
X13594944Y-13043508D01*
X13594944Y-13043508D02*
X13604467Y-13053031D01*
X13604467Y-13053031D02*
X13613991Y-13072079D01*
X13613991Y-13072079D02*
X13613991Y-13091127D01*
X13613991Y-13091127D02*
X13604467Y-13119698D01*
X13604467Y-13119698D02*
X13490182Y-13233984D01*
X13490182Y-13233984D02*
X13613991Y-13233984D01*
X13794944Y-13033984D02*
X13699706Y-13033984D01*
X13699706Y-13033984D02*
X13690182Y-13129222D01*
X13690182Y-13129222D02*
X13699706Y-13119698D01*
X13699706Y-13119698D02*
X13718753Y-13110174D01*
X13718753Y-13110174D02*
X13766372Y-13110174D01*
X13766372Y-13110174D02*
X13785420Y-13119698D01*
X13785420Y-13119698D02*
X13794944Y-13129222D01*
X13794944Y-13129222D02*
X13804467Y-13148269D01*
X13804467Y-13148269D02*
X13804467Y-13195888D01*
X13804467Y-13195888D02*
X13794944Y-13214936D01*
X13794944Y-13214936D02*
X13785420Y-13224460D01*
X13785420Y-13224460D02*
X13766372Y-13233984D01*
X13766372Y-13233984D02*
X13718753Y-13233984D01*
X13718753Y-13233984D02*
X13699706Y-13224460D01*
X13699706Y-13224460D02*
X13690182Y-13214936D01*
X13975896Y-13033984D02*
X13937801Y-13033984D01*
X13937801Y-13033984D02*
X13918753Y-13043508D01*
X13918753Y-13043508D02*
X13909229Y-13053031D01*
X13909229Y-13053031D02*
X13890182Y-13081603D01*
X13890182Y-13081603D02*
X13880658Y-13119698D01*
X13880658Y-13119698D02*
X13880658Y-13195888D01*
X13880658Y-13195888D02*
X13890182Y-13214936D01*
X13890182Y-13214936D02*
X13899706Y-13224460D01*
X13899706Y-13224460D02*
X13918753Y-13233984D01*
X13918753Y-13233984D02*
X13956848Y-13233984D01*
X13956848Y-13233984D02*
X13975896Y-13224460D01*
X13975896Y-13224460D02*
X13985420Y-13214936D01*
X13985420Y-13214936D02*
X13994944Y-13195888D01*
X13994944Y-13195888D02*
X13994944Y-13148269D01*
X13994944Y-13148269D02*
X13985420Y-13129222D01*
X13985420Y-13129222D02*
X13975896Y-13119698D01*
X13975896Y-13119698D02*
X13956848Y-13110174D01*
X13956848Y-13110174D02*
X13918753Y-13110174D01*
X13918753Y-13110174D02*
X13899706Y-13119698D01*
X13899706Y-13119698D02*
X13890182Y-13129222D01*
X13890182Y-13129222D02*
X13880658Y-13148269D01*
X14071134Y-13033984D02*
X14071134Y-13072079D01*
X14147325Y-13033984D02*
X14147325Y-13072079D01*
X14442563Y-13310174D02*
X14433039Y-13300650D01*
X14433039Y-13300650D02*
X14413991Y-13272079D01*
X14413991Y-13272079D02*
X14404468Y-13253031D01*
X14404468Y-13253031D02*
X14394944Y-13224460D01*
X14394944Y-13224460D02*
X14385420Y-13176841D01*
X14385420Y-13176841D02*
X14385420Y-13138746D01*
X14385420Y-13138746D02*
X14394944Y-13091127D01*
X14394944Y-13091127D02*
X14404468Y-13062555D01*
X14404468Y-13062555D02*
X14413991Y-13043508D01*
X14413991Y-13043508D02*
X14433039Y-13014936D01*
X14433039Y-13014936D02*
X14442563Y-13005412D01*
X14509229Y-13053031D02*
X14518753Y-13043508D01*
X14518753Y-13043508D02*
X14537801Y-13033984D01*
X14537801Y-13033984D02*
X14585420Y-13033984D01*
X14585420Y-13033984D02*
X14604468Y-13043508D01*
X14604468Y-13043508D02*
X14613991Y-13053031D01*
X14613991Y-13053031D02*
X14623515Y-13072079D01*
X14623515Y-13072079D02*
X14623515Y-13091127D01*
X14623515Y-13091127D02*
X14613991Y-13119698D01*
X14613991Y-13119698D02*
X14499706Y-13233984D01*
X14499706Y-13233984D02*
X14623515Y-13233984D01*
X14861610Y-13233984D02*
X14861610Y-13033984D01*
X14947325Y-13233984D02*
X14947325Y-13129222D01*
X14947325Y-13129222D02*
X14937801Y-13110174D01*
X14937801Y-13110174D02*
X14918753Y-13100650D01*
X14918753Y-13100650D02*
X14890182Y-13100650D01*
X14890182Y-13100650D02*
X14871134Y-13110174D01*
X14871134Y-13110174D02*
X14861610Y-13119698D01*
X15071134Y-13233984D02*
X15052087Y-13224460D01*
X15052087Y-13224460D02*
X15042563Y-13214936D01*
X15042563Y-13214936D02*
X15033039Y-13195888D01*
X15033039Y-13195888D02*
X15033039Y-13138746D01*
X15033039Y-13138746D02*
X15042563Y-13119698D01*
X15042563Y-13119698D02*
X15052087Y-13110174D01*
X15052087Y-13110174D02*
X15071134Y-13100650D01*
X15071134Y-13100650D02*
X15099706Y-13100650D01*
X15099706Y-13100650D02*
X15118753Y-13110174D01*
X15118753Y-13110174D02*
X15128277Y-13119698D01*
X15128277Y-13119698D02*
X15137801Y-13138746D01*
X15137801Y-13138746D02*
X15137801Y-13195888D01*
X15137801Y-13195888D02*
X15128277Y-13214936D01*
X15128277Y-13214936D02*
X15118753Y-13224460D01*
X15118753Y-13224460D02*
X15099706Y-13233984D01*
X15099706Y-13233984D02*
X15071134Y-13233984D01*
X15252087Y-13233984D02*
X15233039Y-13224460D01*
X15233039Y-13224460D02*
X15223515Y-13205412D01*
X15223515Y-13205412D02*
X15223515Y-13033984D01*
X15404468Y-13224460D02*
X15385420Y-13233984D01*
X15385420Y-13233984D02*
X15347325Y-13233984D01*
X15347325Y-13233984D02*
X15328277Y-13224460D01*
X15328277Y-13224460D02*
X15318753Y-13205412D01*
X15318753Y-13205412D02*
X15318753Y-13129222D01*
X15318753Y-13129222D02*
X15328277Y-13110174D01*
X15328277Y-13110174D02*
X15347325Y-13100650D01*
X15347325Y-13100650D02*
X15385420Y-13100650D01*
X15385420Y-13100650D02*
X15404468Y-13110174D01*
X15404468Y-13110174D02*
X15413991Y-13129222D01*
X15413991Y-13129222D02*
X15413991Y-13148269D01*
X15413991Y-13148269D02*
X15318753Y-13167317D01*
X15490182Y-13224460D02*
X15509230Y-13233984D01*
X15509230Y-13233984D02*
X15547325Y-13233984D01*
X15547325Y-13233984D02*
X15566372Y-13224460D01*
X15566372Y-13224460D02*
X15575896Y-13205412D01*
X15575896Y-13205412D02*
X15575896Y-13195888D01*
X15575896Y-13195888D02*
X15566372Y-13176841D01*
X15566372Y-13176841D02*
X15547325Y-13167317D01*
X15547325Y-13167317D02*
X15518753Y-13167317D01*
X15518753Y-13167317D02*
X15499706Y-13157793D01*
X15499706Y-13157793D02*
X15490182Y-13138746D01*
X15490182Y-13138746D02*
X15490182Y-13129222D01*
X15490182Y-13129222D02*
X15499706Y-13110174D01*
X15499706Y-13110174D02*
X15518753Y-13100650D01*
X15518753Y-13100650D02*
X15547325Y-13100650D01*
X15547325Y-13100650D02*
X15566372Y-13110174D01*
X15642563Y-13310174D02*
X15652087Y-13300650D01*
X15652087Y-13300650D02*
X15671134Y-13272079D01*
X15671134Y-13272079D02*
X15680658Y-13253031D01*
X15680658Y-13253031D02*
X15690182Y-13224460D01*
X15690182Y-13224460D02*
X15699706Y-13176841D01*
X15699706Y-13176841D02*
X15699706Y-13138746D01*
X15699706Y-13138746D02*
X15690182Y-13091127D01*
X15690182Y-13091127D02*
X15680658Y-13062555D01*
X15680658Y-13062555D02*
X15671134Y-13043508D01*
X15671134Y-13043508D02*
X15652087Y-13014936D01*
X15652087Y-13014936D02*
X15642563Y-13005412D01*
X16004468Y-13310174D02*
X15994944Y-13300650D01*
X15994944Y-13300650D02*
X15975896Y-13272079D01*
X15975896Y-13272079D02*
X15966372Y-13253031D01*
X15966372Y-13253031D02*
X15956849Y-13224460D01*
X15956849Y-13224460D02*
X15947325Y-13176841D01*
X15947325Y-13176841D02*
X15947325Y-13138746D01*
X15947325Y-13138746D02*
X15956849Y-13091127D01*
X15956849Y-13091127D02*
X15966372Y-13062555D01*
X15966372Y-13062555D02*
X15975896Y-13043508D01*
X15975896Y-13043508D02*
X15994944Y-13014936D01*
X15994944Y-13014936D02*
X16004468Y-13005412D01*
X16080658Y-13100650D02*
X16080658Y-13233984D01*
X16080658Y-13119698D02*
X16090182Y-13110174D01*
X16090182Y-13110174D02*
X16109230Y-13100650D01*
X16109230Y-13100650D02*
X16137801Y-13100650D01*
X16137801Y-13100650D02*
X16156849Y-13110174D01*
X16156849Y-13110174D02*
X16166372Y-13129222D01*
X16166372Y-13129222D02*
X16166372Y-13233984D01*
X16290182Y-13233984D02*
X16271134Y-13224460D01*
X16271134Y-13224460D02*
X16261611Y-13214936D01*
X16261611Y-13214936D02*
X16252087Y-13195888D01*
X16252087Y-13195888D02*
X16252087Y-13138746D01*
X16252087Y-13138746D02*
X16261611Y-13119698D01*
X16261611Y-13119698D02*
X16271134Y-13110174D01*
X16271134Y-13110174D02*
X16290182Y-13100650D01*
X16290182Y-13100650D02*
X16318753Y-13100650D01*
X16318753Y-13100650D02*
X16337801Y-13110174D01*
X16337801Y-13110174D02*
X16347325Y-13119698D01*
X16347325Y-13119698D02*
X16356849Y-13138746D01*
X16356849Y-13138746D02*
X16356849Y-13195888D01*
X16356849Y-13195888D02*
X16347325Y-13214936D01*
X16347325Y-13214936D02*
X16337801Y-13224460D01*
X16337801Y-13224460D02*
X16318753Y-13233984D01*
X16318753Y-13233984D02*
X16290182Y-13233984D01*
X16413992Y-13100650D02*
X16490182Y-13100650D01*
X16442563Y-13033984D02*
X16442563Y-13205412D01*
X16442563Y-13205412D02*
X16452087Y-13224460D01*
X16452087Y-13224460D02*
X16471134Y-13233984D01*
X16471134Y-13233984D02*
X16490182Y-13233984D01*
X16709230Y-13100650D02*
X16709230Y-13300650D01*
X16709230Y-13110174D02*
X16728277Y-13100650D01*
X16728277Y-13100650D02*
X16766373Y-13100650D01*
X16766373Y-13100650D02*
X16785420Y-13110174D01*
X16785420Y-13110174D02*
X16794944Y-13119698D01*
X16794944Y-13119698D02*
X16804468Y-13138746D01*
X16804468Y-13138746D02*
X16804468Y-13195888D01*
X16804468Y-13195888D02*
X16794944Y-13214936D01*
X16794944Y-13214936D02*
X16785420Y-13224460D01*
X16785420Y-13224460D02*
X16766373Y-13233984D01*
X16766373Y-13233984D02*
X16728277Y-13233984D01*
X16728277Y-13233984D02*
X16709230Y-13224460D01*
X16918754Y-13233984D02*
X16899706Y-13224460D01*
X16899706Y-13224460D02*
X16890182Y-13205412D01*
X16890182Y-13205412D02*
X16890182Y-13033984D01*
X17080658Y-13233984D02*
X17080658Y-13129222D01*
X17080658Y-13129222D02*
X17071135Y-13110174D01*
X17071135Y-13110174D02*
X17052087Y-13100650D01*
X17052087Y-13100650D02*
X17013992Y-13100650D01*
X17013992Y-13100650D02*
X16994944Y-13110174D01*
X17080658Y-13224460D02*
X17061611Y-13233984D01*
X17061611Y-13233984D02*
X17013992Y-13233984D01*
X17013992Y-13233984D02*
X16994944Y-13224460D01*
X16994944Y-13224460D02*
X16985420Y-13205412D01*
X16985420Y-13205412D02*
X16985420Y-13186365D01*
X16985420Y-13186365D02*
X16994944Y-13167317D01*
X16994944Y-13167317D02*
X17013992Y-13157793D01*
X17013992Y-13157793D02*
X17061611Y-13157793D01*
X17061611Y-13157793D02*
X17080658Y-13148269D01*
X17147325Y-13100650D02*
X17223515Y-13100650D01*
X17175896Y-13033984D02*
X17175896Y-13205412D01*
X17175896Y-13205412D02*
X17185420Y-13224460D01*
X17185420Y-13224460D02*
X17204468Y-13233984D01*
X17204468Y-13233984D02*
X17223515Y-13233984D01*
X17366373Y-13224460D02*
X17347325Y-13233984D01*
X17347325Y-13233984D02*
X17309230Y-13233984D01*
X17309230Y-13233984D02*
X17290182Y-13224460D01*
X17290182Y-13224460D02*
X17280658Y-13205412D01*
X17280658Y-13205412D02*
X17280658Y-13129222D01*
X17280658Y-13129222D02*
X17290182Y-13110174D01*
X17290182Y-13110174D02*
X17309230Y-13100650D01*
X17309230Y-13100650D02*
X17347325Y-13100650D01*
X17347325Y-13100650D02*
X17366373Y-13110174D01*
X17366373Y-13110174D02*
X17375896Y-13129222D01*
X17375896Y-13129222D02*
X17375896Y-13148269D01*
X17375896Y-13148269D02*
X17280658Y-13167317D01*
X17547325Y-13233984D02*
X17547325Y-13033984D01*
X17547325Y-13224460D02*
X17528277Y-13233984D01*
X17528277Y-13233984D02*
X17490182Y-13233984D01*
X17490182Y-13233984D02*
X17471135Y-13224460D01*
X17471135Y-13224460D02*
X17461611Y-13214936D01*
X17461611Y-13214936D02*
X17452087Y-13195888D01*
X17452087Y-13195888D02*
X17452087Y-13138746D01*
X17452087Y-13138746D02*
X17461611Y-13119698D01*
X17461611Y-13119698D02*
X17471135Y-13110174D01*
X17471135Y-13110174D02*
X17490182Y-13100650D01*
X17490182Y-13100650D02*
X17528277Y-13100650D01*
X17528277Y-13100650D02*
X17547325Y-13110174D01*
X17623516Y-13310174D02*
X17633039Y-13300650D01*
X17633039Y-13300650D02*
X17652087Y-13272079D01*
X17652087Y-13272079D02*
X17661611Y-13253031D01*
X17661611Y-13253031D02*
X17671135Y-13224460D01*
X17671135Y-13224460D02*
X17680658Y-13176841D01*
X17680658Y-13176841D02*
X17680658Y-13138746D01*
X17680658Y-13138746D02*
X17671135Y-13091127D01*
X17671135Y-13091127D02*
X17661611Y-13062555D01*
X17661611Y-13062555D02*
X17652087Y-13043508D01*
X17652087Y-13043508D02*
X17633039Y-13014936D01*
X17633039Y-13014936D02*
X17623516Y-13005412D01*
M02*
