G04 #@! TF.GenerationSoftware,KiCad,Pcbnew,8.0.2-8.0.2-0~ubuntu23.10.1*
G04 #@! TF.CreationDate,2024-05-23T15:40:16+07:00*
G04 #@! TF.ProjectId,Node_RS485,4e6f6465-5f52-4533-9438-352e6b696361,rev?*
G04 #@! TF.SameCoordinates,Original*
G04 #@! TF.FileFunction,Profile,NP*
%FSLAX46Y46*%
G04 Gerber Fmt 4.6, Leading zero omitted, Abs format (unit mm)*
G04 Created by KiCad (PCBNEW 8.0.2-8.0.2-0~ubuntu23.10.1) date 2024-05-23 15:40:16*
%MOMM*%
%LPD*%
G01*
G04 APERTURE LIST*
G04 #@! TA.AperFunction,Profile*
%ADD10C,0.250000*%
G04 #@! TD*
G04 APERTURE END LIST*
D10*
X190100000Y-117400000D02*
X192500000Y-117400000D01*
X113500000Y-71200000D02*
X187800000Y-71200000D01*
X113500000Y-116700000D02*
G75*
G02*
X117000000Y-120200000I0J-3500000D01*
G01*
X113500000Y-124900000D02*
X187800000Y-124900000D01*
X117000000Y-75900000D02*
G75*
G02*
X113500000Y-79400000I-3500000J0D01*
G01*
X188000000Y-116700000D02*
G75*
G02*
X190100000Y-117400000I0J-3500000D01*
G01*
X184300000Y-120200000D02*
X184300000Y-120400000D01*
X117000000Y-120400000D02*
G75*
G02*
X113500000Y-123900000I-3500000J0D01*
G01*
X113300000Y-79400000D02*
G75*
G02*
X111200000Y-78700000I0J3500000D01*
G01*
X187800000Y-123900000D02*
G75*
G02*
X184300000Y-120400000I0J3500000D01*
G01*
X192500000Y-78700000D02*
X192500000Y-117400000D01*
X117000000Y-120200000D02*
X117000000Y-120400000D01*
X187800000Y-116700000D02*
X188000000Y-116700000D01*
X108800000Y-78700000D02*
X108800000Y-117400000D01*
X111200000Y-117400000D02*
X108800000Y-117400000D01*
X113500000Y-116700000D02*
X113300000Y-116700000D01*
X113500000Y-79400000D02*
X113300000Y-79400000D01*
X184300000Y-120200000D02*
G75*
G02*
X187800000Y-116700000I3500000J0D01*
G01*
X111200000Y-78700000D02*
X108800000Y-78700000D01*
X187800000Y-79400000D02*
G75*
G02*
X184300000Y-75900000I0J3500000D01*
G01*
X184300000Y-75700000D02*
G75*
G02*
X187800000Y-72200000I3500000J0D01*
G01*
X187800000Y-123900000D02*
X187800000Y-124900000D01*
X113500000Y-72200000D02*
X113500000Y-71200000D01*
X113500000Y-123900000D02*
X113500000Y-124900000D01*
X111200000Y-117400000D02*
G75*
G02*
X113300000Y-116700000I2100000J-2800000D01*
G01*
X192500000Y-78700000D02*
X190100000Y-78700000D01*
X187800000Y-71200000D02*
X187800000Y-72200000D01*
X117000000Y-75900000D02*
X117000000Y-75700000D01*
X188000000Y-79400000D02*
X187800000Y-79400000D01*
X113500000Y-72200000D02*
G75*
G02*
X117000000Y-75700000I0J-3500000D01*
G01*
X184300000Y-75700000D02*
X184300000Y-75900000D01*
X190100000Y-78700000D02*
G75*
G02*
X188000000Y-79400000I-2100000J2800000D01*
G01*
M02*
