G04 #@! TF.GenerationSoftware,KiCad,Pcbnew,8.0.2-8.0.2-0~ubuntu23.10.1*
G04 #@! TF.CreationDate,2024-05-23T15:40:16+07:00*
G04 #@! TF.ProjectId,Node_RS485,4e6f6465-5f52-4533-9438-352e6b696361,rev?*
G04 #@! TF.SameCoordinates,Original*
G04 #@! TF.FileFunction,Soldermask,Top*
G04 #@! TF.FilePolarity,Negative*
%FSLAX46Y46*%
G04 Gerber Fmt 4.6, Leading zero omitted, Abs format (unit mm)*
G04 Created by KiCad (PCBNEW 8.0.2-8.0.2-0~ubuntu23.10.1) date 2024-05-23 15:40:16*
%MOMM*%
%LPD*%
G01*
G04 APERTURE LIST*
G04 Aperture macros list*
%AMRoundRect*
0 Rectangle with rounded corners*
0 $1 Rounding radius*
0 $2 $3 $4 $5 $6 $7 $8 $9 X,Y pos of 4 corners*
0 Add a 4 corners polygon primitive as box body*
4,1,4,$2,$3,$4,$5,$6,$7,$8,$9,$2,$3,0*
0 Add four circle primitives for the rounded corners*
1,1,$1+$1,$2,$3*
1,1,$1+$1,$4,$5*
1,1,$1+$1,$6,$7*
1,1,$1+$1,$8,$9*
0 Add four rect primitives between the rounded corners*
20,1,$1+$1,$2,$3,$4,$5,0*
20,1,$1+$1,$4,$5,$6,$7,0*
20,1,$1+$1,$6,$7,$8,$9,0*
20,1,$1+$1,$8,$9,$2,$3,0*%
%AMFreePoly0*
4,1,18,-0.700000,0.540000,-0.695433,0.562961,-0.682426,0.582426,-0.662961,0.595433,-0.640000,0.600000,0.640000,0.600000,0.662961,0.595433,0.682426,0.582426,0.695433,0.562961,0.700000,0.540000,0.700000,-0.540000,0.695433,-0.562961,0.682426,-0.582426,0.662961,-0.595433,0.640000,-0.600000,-0.400000,-0.600000,-0.700000,-0.300000,-0.700000,0.540000,-0.700000,0.540000,$1*%
%AMFreePoly1*
4,1,21,-0.125000,1.200000,0.125000,1.200000,0.125000,1.700000,0.375000,1.700000,0.375000,1.200000,0.825000,1.200000,0.825000,-1.200000,0.375000,-1.200000,0.375000,-1.700000,0.125000,-1.700000,0.125000,-1.200000,-0.125000,-1.200000,-0.125000,-1.700000,-0.375000,-1.700000,-0.375000,-1.200000,-0.825000,-1.200000,-0.825000,1.200000,-0.375000,1.200000,-0.375000,1.700000,-0.125000,1.700000,
-0.125000,1.200000,-0.125000,1.200000,$1*%
G04 Aperture macros list end*
%ADD10RoundRect,0.085000X-0.365000X0.340000X-0.365000X-0.340000X0.365000X-0.340000X0.365000X0.340000X0*%
%ADD11RoundRect,0.085000X0.365000X-0.340000X0.365000X0.340000X-0.365000X0.340000X-0.365000X-0.340000X0*%
%ADD12RoundRect,0.090000X0.360000X0.210000X-0.360000X0.210000X-0.360000X-0.210000X0.360000X-0.210000X0*%
%ADD13RoundRect,0.090000X-0.360000X-0.210000X0.360000X-0.210000X0.360000X0.210000X-0.360000X0.210000X0*%
%ADD14RoundRect,0.180000X-1.020000X-0.720000X1.020000X-0.720000X1.020000X0.720000X-1.020000X0.720000X0*%
%ADD15RoundRect,0.085000X0.340000X0.365000X-0.340000X0.365000X-0.340000X-0.365000X0.340000X-0.365000X0*%
%ADD16RoundRect,0.085000X-0.340000X-0.365000X0.340000X-0.365000X0.340000X0.365000X-0.340000X0.365000X0*%
%ADD17RoundRect,0.150000X-0.600000X0.600000X-0.600000X-0.600000X0.600000X-0.600000X0.600000X0.600000X0*%
%ADD18RoundRect,0.112000X-0.448000X-1.538000X0.448000X-1.538000X0.448000X1.538000X-0.448000X1.538000X0*%
%ADD19RoundRect,0.062500X0.062500X-0.375000X0.062500X0.375000X-0.062500X0.375000X-0.062500X-0.375000X0*%
%ADD20RoundRect,0.062500X0.375000X-0.062500X0.375000X0.062500X-0.375000X0.062500X-0.375000X-0.062500X0*%
%ADD21R,3.450000X3.450000*%
%ADD22RoundRect,0.090000X-0.210000X0.885000X-0.210000X-0.885000X0.210000X-0.885000X0.210000X0.885000X0*%
%ADD23RoundRect,0.102000X-0.350000X0.900000X-0.350000X-0.900000X0.350000X-0.900000X0.350000X0.900000X0*%
%ADD24RoundRect,0.102000X-0.900000X-0.350000X0.900000X-0.350000X0.900000X0.350000X-0.900000X0.350000X0*%
%ADD25FreePoly0,90.000000*%
%ADD26RoundRect,0.060000X0.540000X-0.640000X0.540000X0.640000X-0.540000X0.640000X-0.540000X-0.640000X0*%
%ADD27RoundRect,0.250000X-0.600000X0.725000X-0.600000X-0.725000X0.600000X-0.725000X0.600000X0.725000X0*%
%ADD28O,1.700000X1.950000*%
%ADD29RoundRect,0.180000X-0.720000X1.020000X-0.720000X-1.020000X0.720000X-1.020000X0.720000X1.020000X0*%
%ADD30RoundRect,0.090000X-0.210000X0.360000X-0.210000X-0.360000X0.210000X-0.360000X0.210000X0.360000X0*%
%ADD31RoundRect,0.250000X-0.550000X1.412500X-0.550000X-1.412500X0.550000X-1.412500X0.550000X1.412500X0*%
%ADD32RoundRect,0.062500X-0.375000X-0.062500X0.375000X-0.062500X0.375000X0.062500X-0.375000X0.062500X0*%
%ADD33RoundRect,0.062500X-0.062500X-0.375000X0.062500X-0.375000X0.062500X0.375000X-0.062500X0.375000X0*%
%ADD34R,1.600000X1.600000*%
%ADD35RoundRect,0.250000X-1.950000X-1.000000X1.950000X-1.000000X1.950000X1.000000X-1.950000X1.000000X0*%
%ADD36RoundRect,0.290000X1.160000X2.410000X-1.160000X2.410000X-1.160000X-2.410000X1.160000X-2.410000X0*%
%ADD37RoundRect,0.250000X1.550000X-0.650000X1.550000X0.650000X-1.550000X0.650000X-1.550000X-0.650000X0*%
%ADD38O,3.600000X1.800000*%
%ADD39RoundRect,0.180000X1.020000X0.720000X-1.020000X0.720000X-1.020000X-0.720000X1.020000X-0.720000X0*%
%ADD40RoundRect,0.090000X-0.885000X-0.210000X0.885000X-0.210000X0.885000X0.210000X-0.885000X0.210000X0*%
%ADD41R,2.350000X5.100000*%
%ADD42C,1.500000*%
%ADD43RoundRect,0.090000X0.560000X0.210000X-0.560000X0.210000X-0.560000X-0.210000X0.560000X-0.210000X0*%
%ADD44R,1.700000X1.700000*%
%ADD45O,1.700000X1.700000*%
%ADD46C,2.000000*%
%ADD47C,2.500000*%
%ADD48RoundRect,0.060000X-0.240000X-0.060000X0.240000X-0.060000X0.240000X0.060000X-0.240000X0.060000X0*%
%ADD49FreePoly1,0.000000*%
%ADD50RoundRect,0.090000X0.210000X-0.360000X0.210000X0.360000X-0.210000X0.360000X-0.210000X-0.360000X0*%
%ADD51RoundRect,0.090000X-0.560000X-0.210000X0.560000X-0.210000X0.560000X0.210000X-0.560000X0.210000X0*%
%ADD52RoundRect,0.250000X0.400000X0.600000X-0.400000X0.600000X-0.400000X-0.600000X0.400000X-0.600000X0*%
%ADD53C,0.650000*%
%ADD54R,1.300000X0.600000*%
%ADD55R,1.300000X0.300000*%
%ADD56O,2.100000X1.000000*%
%ADD57O,1.600000X1.000000*%
%ADD58R,5.100000X2.350000*%
%ADD59RoundRect,0.250000X0.850000X0.350000X-0.850000X0.350000X-0.850000X-0.350000X0.850000X-0.350000X0*%
%ADD60RoundRect,0.249997X2.950003X2.650003X-2.950003X2.650003X-2.950003X-2.650003X2.950003X-2.650003X0*%
%ADD61RoundRect,0.425000X-0.425000X0.550000X-0.425000X-0.550000X0.425000X-0.550000X0.425000X0.550000X0*%
G04 APERTURE END LIST*
D10*
X164200000Y-83225000D03*
X164200000Y-84775000D03*
X167000000Y-83225000D03*
X167000000Y-84775000D03*
X159100000Y-83225000D03*
X159100000Y-84775000D03*
D11*
X157700000Y-84775000D03*
X157700000Y-83225000D03*
D12*
X170687500Y-84950000D03*
X170687500Y-83050000D03*
X168412500Y-84000000D03*
D13*
X160512500Y-83050000D03*
X160512500Y-84950000D03*
X162787500Y-84000000D03*
D10*
X165600000Y-83225000D03*
X165600000Y-84775000D03*
D11*
X119900000Y-88175000D03*
X119900000Y-86625000D03*
D10*
X130475000Y-110225000D03*
X130475000Y-111775000D03*
D14*
X177387345Y-96550000D03*
X181400000Y-96550000D03*
D15*
X154675000Y-89000000D03*
X153125000Y-89000000D03*
X155975000Y-109600000D03*
X154425000Y-109600000D03*
D16*
X171825000Y-86550000D03*
X173375000Y-86550000D03*
D17*
X122600000Y-95500001D03*
X122600000Y-103299999D03*
D18*
X179712500Y-89400000D03*
X183987500Y-89400000D03*
D11*
X149487500Y-119412500D03*
X149487500Y-117862500D03*
D15*
X155975000Y-102400000D03*
X154425000Y-102400000D03*
D16*
X133025000Y-76100000D03*
X134575000Y-76100000D03*
D15*
X181675000Y-104620000D03*
X180125000Y-104620000D03*
D19*
X132794150Y-111019822D03*
X133294150Y-111019822D03*
X133794150Y-111019822D03*
X134294150Y-111019822D03*
X134794150Y-111019822D03*
X135294150Y-111019822D03*
X135794150Y-111019822D03*
X136294150Y-111019822D03*
D20*
X136981650Y-110332322D03*
X136981650Y-109832322D03*
X136981650Y-109332322D03*
X136981650Y-108832322D03*
X136981650Y-108332322D03*
X136981650Y-107832322D03*
X136981650Y-107332322D03*
X136981650Y-106832322D03*
D19*
X136294150Y-106144822D03*
X135794150Y-106144822D03*
X135294150Y-106144822D03*
X134794150Y-106144822D03*
X134294150Y-106144822D03*
X133794150Y-106144822D03*
X133294150Y-106144822D03*
X132794150Y-106144822D03*
D20*
X132106650Y-106832322D03*
X132106650Y-107332322D03*
X132106650Y-107832322D03*
X132106650Y-108332322D03*
X132106650Y-108832322D03*
X132106650Y-109332322D03*
X132106650Y-109832322D03*
X132106650Y-110332322D03*
D21*
X134544150Y-108582322D03*
D22*
X169955000Y-118025000D03*
X168685000Y-118025000D03*
X167415000Y-118025000D03*
X166145000Y-118025000D03*
X166145000Y-122975000D03*
X167415000Y-122975000D03*
X168685000Y-122975000D03*
X169955000Y-122975000D03*
D10*
X169200000Y-97025000D03*
X169200000Y-98575000D03*
D11*
X125200000Y-91175000D03*
X125200000Y-89625000D03*
D16*
X146925000Y-92400000D03*
X148475000Y-92400000D03*
D23*
X129640000Y-93125000D03*
X130640000Y-93125000D03*
X131640000Y-93125000D03*
X132640000Y-93125000D03*
X133640000Y-93125000D03*
X134640000Y-93125000D03*
X135640000Y-93125000D03*
X136640000Y-93125000D03*
X137640000Y-93125000D03*
X138640000Y-93125000D03*
X139640000Y-93125000D03*
X140640000Y-93125000D03*
D24*
X142775000Y-85170000D03*
X142775000Y-84170000D03*
X142775000Y-83170000D03*
X142775000Y-82170000D03*
D23*
X140640000Y-78325000D03*
X139640000Y-78325000D03*
X138640000Y-78325000D03*
X133640000Y-78325000D03*
X132640000Y-78325000D03*
X131640000Y-78325000D03*
X130640000Y-78325000D03*
X129640000Y-78325000D03*
D24*
X127975000Y-82170000D03*
X127975000Y-83170000D03*
X127975000Y-84170000D03*
X127975000Y-85170000D03*
X127975000Y-86170000D03*
X127975000Y-87170000D03*
X127975000Y-88170000D03*
X127975000Y-89170000D03*
D25*
X127425000Y-110650000D03*
D26*
X127425000Y-108450000D03*
X125725000Y-108450000D03*
X125725000Y-110650000D03*
D11*
X149487500Y-122312500D03*
X149487500Y-120762500D03*
X136700000Y-74575000D03*
X136700000Y-73025000D03*
D15*
X160475000Y-89000000D03*
X158925000Y-89000000D03*
D16*
X117975000Y-107750000D03*
X119525000Y-107750000D03*
D27*
X142910000Y-121450000D03*
D28*
X145450000Y-121450000D03*
D16*
X164225000Y-90000000D03*
X165775000Y-90000000D03*
D15*
X148475000Y-93800000D03*
X146925000Y-93800000D03*
D10*
X138850000Y-105725000D03*
X138850000Y-107275000D03*
D29*
X177350000Y-89237345D03*
X177350000Y-93250000D03*
D15*
X150962500Y-116537500D03*
X149412500Y-116537500D03*
D16*
X164200000Y-87200000D03*
X165750000Y-87200000D03*
D12*
X135337500Y-74750000D03*
X135337500Y-72850000D03*
X133062500Y-73800000D03*
D10*
X146600000Y-115025000D03*
X146600000Y-116575000D03*
D11*
X125200000Y-88175000D03*
X125200000Y-86625000D03*
X153250000Y-92525000D03*
X153250000Y-90975000D03*
D30*
X148650000Y-95162500D03*
X146750000Y-95162500D03*
X147700000Y-97437500D03*
D15*
X132500000Y-113100000D03*
X130950000Y-113100000D03*
D11*
X129025000Y-111775000D03*
X129025000Y-110225000D03*
D31*
X161200000Y-116912500D03*
X161200000Y-121987500D03*
D32*
X151162500Y-119737500D03*
X151162500Y-120237500D03*
X151162500Y-120737500D03*
X151162500Y-121237500D03*
D33*
X151850000Y-121925000D03*
X152350000Y-121925000D03*
X152850000Y-121925000D03*
X153350000Y-121925000D03*
D32*
X154037500Y-121237500D03*
X154037500Y-120737500D03*
X154037500Y-120237500D03*
X154037500Y-119737500D03*
D33*
X153350000Y-119050000D03*
X152850000Y-119050000D03*
X152350000Y-119050000D03*
X151850000Y-119050000D03*
D34*
X152600000Y-120487500D03*
D16*
X137375000Y-104100000D03*
X138925000Y-104100000D03*
D10*
X158900000Y-105225000D03*
X158900000Y-106775000D03*
X125900000Y-102275000D03*
X125900000Y-103825000D03*
D35*
X173300000Y-119700000D03*
X180700000Y-119700000D03*
D36*
X171550000Y-106700000D03*
X161650000Y-106700000D03*
D17*
X122600000Y-85000001D03*
X122600000Y-92799999D03*
D37*
X187500000Y-111700000D03*
D38*
X187500000Y-107890000D03*
D18*
X179712500Y-93100000D03*
X183987500Y-93100000D03*
D10*
X129025000Y-107325000D03*
X129025000Y-108875000D03*
D11*
X155687500Y-119412500D03*
X155687500Y-117862500D03*
D16*
X164225000Y-93250000D03*
X165775000Y-93250000D03*
D39*
X165450000Y-97800000D03*
X161400000Y-97800000D03*
D15*
X132500000Y-117300000D03*
X130950000Y-117300000D03*
D40*
X167750000Y-89360000D03*
X167750000Y-90630000D03*
X167750000Y-91900000D03*
X167750000Y-93170000D03*
X172700000Y-93170000D03*
X172700000Y-91900000D03*
X172700000Y-90630000D03*
X172700000Y-89360000D03*
D11*
X117650000Y-81825000D03*
X117650000Y-80275000D03*
X127900000Y-103675000D03*
X127900000Y-102125000D03*
D41*
X154075000Y-96550000D03*
X158225000Y-96550000D03*
D42*
X187275000Y-84170000D03*
X187275000Y-81630000D03*
X184735000Y-84170000D03*
X184735000Y-81630000D03*
D43*
X157287500Y-92150000D03*
X157287500Y-91200000D03*
X157287500Y-90250000D03*
X155012500Y-90250000D03*
X155012500Y-91200000D03*
X155012500Y-92150000D03*
D44*
X123400000Y-81840000D03*
D45*
X120860000Y-81840000D03*
X123400000Y-79300000D03*
X120860000Y-79300000D03*
X123400000Y-76760000D03*
X120860000Y-76760000D03*
X123400000Y-74220000D03*
X120860000Y-74220000D03*
D11*
X119900000Y-101625000D03*
X119900000Y-100075000D03*
X125200000Y-97975000D03*
X125200000Y-96425000D03*
D15*
X136025000Y-104100000D03*
X134475000Y-104100000D03*
D16*
X117975000Y-112050000D03*
X119525000Y-112050000D03*
D15*
X151625000Y-94650000D03*
X150075000Y-94650000D03*
D11*
X157500000Y-103875000D03*
X157500000Y-102325000D03*
D15*
X137475000Y-76100000D03*
X135925000Y-76100000D03*
D11*
X119900000Y-98725000D03*
X119900000Y-97175000D03*
D46*
X114800000Y-86650000D03*
X114800000Y-91150000D03*
D47*
X117300000Y-85400000D03*
X117300000Y-92400000D03*
D10*
X138850000Y-109725000D03*
X138850000Y-111275000D03*
D16*
X129325000Y-74700000D03*
X130875000Y-74700000D03*
D48*
X154425000Y-105700000D03*
X154425000Y-106200000D03*
X154425000Y-106700000D03*
X154425000Y-107200000D03*
X154425000Y-107700000D03*
X157225000Y-107700000D03*
X157225000Y-107200000D03*
X157225000Y-106700000D03*
X157225000Y-106200000D03*
X157225000Y-105700000D03*
D49*
X155825000Y-106700000D03*
D13*
X130712500Y-101650000D03*
X130712500Y-103550000D03*
X132987501Y-102600000D03*
D11*
X145200000Y-116575000D03*
X145200000Y-115025000D03*
D50*
X149900000Y-93287500D03*
X151800000Y-93287500D03*
X150850000Y-91012500D03*
D51*
X117612500Y-108950000D03*
X117612500Y-109900000D03*
X117612500Y-110850000D03*
X119887500Y-110850000D03*
X119887500Y-109900000D03*
X119887500Y-108950000D03*
D15*
X182475000Y-83600000D03*
X180925000Y-83600000D03*
D46*
X114800000Y-97150000D03*
X114800000Y-101650000D03*
D47*
X117300000Y-95900000D03*
X117300000Y-102900000D03*
D10*
X167850000Y-97025000D03*
X167850000Y-98575000D03*
D16*
X129325000Y-76100000D03*
X130875000Y-76100000D03*
D11*
X119900000Y-91175000D03*
X119900000Y-89625000D03*
X132425000Y-115975000D03*
X132425000Y-114425000D03*
D39*
X181362655Y-85900000D03*
X177350000Y-85900000D03*
D11*
X148000000Y-116575000D03*
X148000000Y-115025000D03*
D15*
X182475000Y-82200000D03*
X180925000Y-82200000D03*
D11*
X155687500Y-122312500D03*
X155687500Y-120762500D03*
D16*
X152312500Y-116537500D03*
X153862500Y-116537500D03*
D52*
X183590000Y-106570000D03*
X180090000Y-106570000D03*
D11*
X129300000Y-103675000D03*
X129300000Y-102125000D03*
D37*
X187500000Y-100730000D03*
D38*
X187500000Y-96920000D03*
X187500000Y-93110000D03*
X187500000Y-89300000D03*
D15*
X155975000Y-103800000D03*
X154425000Y-103800000D03*
D53*
X113900000Y-107010000D03*
X113900000Y-112790000D03*
D54*
X115425000Y-106650000D03*
X115425000Y-107450000D03*
D55*
X115425000Y-108650000D03*
X115425000Y-109650000D03*
X115425000Y-110150000D03*
X115425000Y-111150000D03*
D54*
X115425000Y-112350000D03*
X115425000Y-113150000D03*
X115425000Y-113150000D03*
X115425000Y-112350000D03*
D55*
X115425000Y-111650000D03*
X115425000Y-110650000D03*
X115425000Y-109150000D03*
X115425000Y-108150000D03*
D54*
X115425000Y-107450000D03*
X115425000Y-106650000D03*
D56*
X114430000Y-105580000D03*
D57*
X110250000Y-105580000D03*
D56*
X114430000Y-114220000D03*
D57*
X110250000Y-114220000D03*
D15*
X157575000Y-89000000D03*
X156025000Y-89000000D03*
D39*
X170000000Y-115000000D03*
X165950000Y-115000000D03*
D10*
X175000000Y-90475000D03*
X175000000Y-92025000D03*
D16*
X157425000Y-109600000D03*
X158975000Y-109600000D03*
X171825000Y-87850000D03*
X173375000Y-87850000D03*
D15*
X158975000Y-111000000D03*
X157425000Y-111000000D03*
X158975000Y-112400000D03*
X157425000Y-112400000D03*
D16*
X133850000Y-113100000D03*
X135400000Y-113100000D03*
D10*
X175000000Y-93375000D03*
X175000000Y-94925000D03*
D58*
X150100000Y-104625000D03*
X150100000Y-108775000D03*
D16*
X164225000Y-88600000D03*
X165775000Y-88600000D03*
D59*
X183390000Y-113730000D03*
D60*
X177090000Y-111450000D03*
D59*
X183390000Y-109170000D03*
D10*
X158900000Y-102325000D03*
X158900000Y-103875000D03*
D11*
X150100000Y-97525000D03*
X150100000Y-95975000D03*
D10*
X175000000Y-87575000D03*
X175000000Y-89125000D03*
D11*
X125200000Y-100975000D03*
X125200000Y-99425000D03*
D61*
X141505000Y-98100000D03*
D28*
X138965000Y-98100000D03*
X136425000Y-98100000D03*
X133885000Y-98100000D03*
X131345000Y-98100000D03*
X128805000Y-98100000D03*
M02*
