G04 #@! TF.GenerationSoftware,KiCad,Pcbnew,8.0.2-8.0.2-0~ubuntu23.10.1*
G04 #@! TF.CreationDate,2024-05-23T15:40:16+07:00*
G04 #@! TF.ProjectId,Node_RS485,4e6f6465-5f52-4533-9438-352e6b696361,rev?*
G04 #@! TF.SameCoordinates,Original*
G04 #@! TF.FileFunction,Soldermask,Bot*
G04 #@! TF.FilePolarity,Negative*
%FSLAX46Y46*%
G04 Gerber Fmt 4.6, Leading zero omitted, Abs format (unit mm)*
G04 Created by KiCad (PCBNEW 8.0.2-8.0.2-0~ubuntu23.10.1) date 2024-05-23 15:40:16*
%MOMM*%
%LPD*%
G01*
G04 APERTURE LIST*
G04 Aperture macros list*
%AMRoundRect*
0 Rectangle with rounded corners*
0 $1 Rounding radius*
0 $2 $3 $4 $5 $6 $7 $8 $9 X,Y pos of 4 corners*
0 Add a 4 corners polygon primitive as box body*
4,1,4,$2,$3,$4,$5,$6,$7,$8,$9,$2,$3,0*
0 Add four circle primitives for the rounded corners*
1,1,$1+$1,$2,$3*
1,1,$1+$1,$4,$5*
1,1,$1+$1,$6,$7*
1,1,$1+$1,$8,$9*
0 Add four rect primitives between the rounded corners*
20,1,$1+$1,$2,$3,$4,$5,0*
20,1,$1+$1,$4,$5,$6,$7,0*
20,1,$1+$1,$6,$7,$8,$9,0*
20,1,$1+$1,$8,$9,$2,$3,0*%
G04 Aperture macros list end*
%ADD10RoundRect,0.250000X-0.600000X0.725000X-0.600000X-0.725000X0.600000X-0.725000X0.600000X0.725000X0*%
%ADD11O,1.700000X1.950000*%
%ADD12RoundRect,0.250000X1.550000X-0.650000X1.550000X0.650000X-1.550000X0.650000X-1.550000X-0.650000X0*%
%ADD13O,3.600000X1.800000*%
%ADD14C,1.500000*%
%ADD15R,1.700000X1.700000*%
%ADD16O,1.700000X1.700000*%
%ADD17C,2.000000*%
%ADD18C,2.500000*%
%ADD19C,0.650000*%
%ADD20O,2.100000X1.000000*%
%ADD21O,1.600000X1.000000*%
%ADD22RoundRect,0.425000X-0.425000X0.550000X-0.425000X-0.550000X0.425000X-0.550000X0.425000X0.550000X0*%
G04 APERTURE END LIST*
D10*
X142910000Y-121450000D03*
D11*
X145450000Y-121450000D03*
D12*
X187500000Y-111700000D03*
D13*
X187500000Y-107890000D03*
D14*
X187275000Y-84170000D03*
X187275000Y-81630000D03*
X184735000Y-84170000D03*
X184735000Y-81630000D03*
D15*
X123400000Y-81840000D03*
D16*
X120860000Y-81840000D03*
X123400000Y-79300000D03*
X120860000Y-79300000D03*
X123400000Y-76760000D03*
X120860000Y-76760000D03*
X123400000Y-74220000D03*
X120860000Y-74220000D03*
D17*
X114800000Y-86650000D03*
X114800000Y-91150000D03*
D18*
X117300000Y-85400000D03*
X117300000Y-92400000D03*
D17*
X114800000Y-97150000D03*
X114800000Y-101650000D03*
D18*
X117300000Y-95900000D03*
X117300000Y-102900000D03*
D12*
X187500000Y-100730000D03*
D13*
X187500000Y-96920000D03*
X187500000Y-93110000D03*
X187500000Y-89300000D03*
D19*
X113900000Y-107010000D03*
X113900000Y-112790000D03*
D20*
X114430000Y-105580000D03*
D21*
X110250000Y-105580000D03*
D20*
X114430000Y-114220000D03*
D21*
X110250000Y-114220000D03*
D22*
X141505000Y-98100000D03*
D11*
X138965000Y-98100000D03*
X136425000Y-98100000D03*
X133885000Y-98100000D03*
X131345000Y-98100000D03*
X128805000Y-98100000D03*
M02*
