%TF.GenerationSoftware,KiCad,Pcbnew,8.0.2-8.0.2-0~ubuntu23.10.1*%
%TF.CreationDate,2024-05-02T10:41:41+07:00*%
%TF.ProjectId,Node_RS485,4e6f6465-5f52-4533-9438-352e6b696361,rev?*%
%TF.SameCoordinates,Original*%
%TF.FileFunction,Drillmap*%
%TF.FilePolarity,Positive*%
%FSLAX45Y45*%
G04 Gerber Fmt 4.5, Leading zero omitted, Abs format (unit mm)*
G04 Created by KiCad (PCBNEW 8.0.2-8.0.2-0~ubuntu23.10.1) date 2024-05-02 10:41:41*
%MOMM*%
%LPD*%
G01*
G04 APERTURE LIST*
%ADD10C,0.250000*%
%ADD11C,0.200000*%
%ADD12C,0.100000*%
%ADD13C,0.110000*%
%ADD14C,0.120000*%
%ADD15C,0.140000*%
G04 APERTURE END LIST*
D10*
X19010000Y-11740000D02*
X19250000Y-11740000D01*
X11350000Y-7120000D02*
X18780000Y-7120000D01*
X11350000Y-11670000D02*
G75*
G02*
X11700000Y-12020000I0J-350000D01*
G01*
X11350000Y-12490000D02*
X18780000Y-12490000D01*
X11700000Y-7590000D02*
G75*
G02*
X11350000Y-7940000I-350000J0D01*
G01*
X18800000Y-11670000D02*
G75*
G02*
X19010000Y-11740000I0J-350000D01*
G01*
X18430000Y-12020000D02*
X18430000Y-12040000D01*
X11700000Y-12040000D02*
G75*
G02*
X11350000Y-12390000I-350000J0D01*
G01*
X11330000Y-7940000D02*
G75*
G02*
X11120000Y-7870000I0J350000D01*
G01*
X18780000Y-12390000D02*
G75*
G02*
X18430000Y-12040000I0J350000D01*
G01*
X19250000Y-7870000D02*
X19250000Y-11740000D01*
X11700000Y-12020000D02*
X11700000Y-12040000D01*
X18780000Y-11670000D02*
X18800000Y-11670000D01*
X10880000Y-7870000D02*
X10880000Y-11740000D01*
X11120000Y-11740000D02*
X10880000Y-11740000D01*
X11350000Y-11670000D02*
X11330000Y-11670000D01*
X11350000Y-7940000D02*
X11330000Y-7940000D01*
X18430000Y-12020000D02*
G75*
G02*
X18780000Y-11670000I350000J0D01*
G01*
X11120000Y-7870000D02*
X10880000Y-7870000D01*
X18780000Y-7940000D02*
G75*
G02*
X18430000Y-7590000I0J350000D01*
G01*
X18430000Y-7570000D02*
G75*
G02*
X18780000Y-7220000I350000J0D01*
G01*
X18780000Y-12390000D02*
X18780000Y-12490000D01*
X11350000Y-7220000D02*
X11350000Y-7120000D01*
X11350000Y-12390000D02*
X11350000Y-12490000D01*
X11120000Y-11740000D02*
G75*
G02*
X11330000Y-11670000I210000J-280000D01*
G01*
X19250000Y-7870000D02*
X19010000Y-7870000D01*
X18780000Y-7120000D02*
X18780000Y-7220000D01*
X11700000Y-7590000D02*
X11700000Y-7570000D01*
X18800000Y-7940000D02*
X18780000Y-7940000D01*
X11350000Y-7220000D02*
G75*
G02*
X11700000Y-7570000I0J-350000D01*
G01*
X18430000Y-7570000D02*
X18430000Y-7590000D01*
X19010000Y-7870000D02*
G75*
G02*
X18800000Y-7940000I-210000J280000D01*
G01*
D11*
D12*
X11630000Y-10730000D02*
X11660000Y-10760000D01*
X11660000Y-10730000D02*
X11630000Y-10760000D01*
X11845000Y-10975000D02*
X11875000Y-11005000D01*
X11875000Y-10975000D02*
X11845000Y-11005000D01*
X11975000Y-9195000D02*
X12005000Y-9225000D01*
X12005000Y-9195000D02*
X11975000Y-9225000D01*
X11975000Y-10240000D02*
X12005000Y-10270000D01*
X12005000Y-10240000D02*
X11975000Y-10270000D01*
X12070000Y-10975000D02*
X12100000Y-11005000D01*
X12100000Y-10975000D02*
X12070000Y-11005000D01*
X12085000Y-8800000D02*
X12115000Y-8830000D01*
X12115000Y-8800000D02*
X12085000Y-8830000D01*
X12085000Y-9855000D02*
X12115000Y-9885000D01*
X12115000Y-9855000D02*
X12085000Y-9885000D01*
X12385000Y-10075000D02*
X12415000Y-10105000D01*
X12415000Y-10075000D02*
X12385000Y-10105000D01*
X12435000Y-10795000D02*
X12465000Y-10825000D01*
X12465000Y-10795000D02*
X12435000Y-10825000D01*
X12435000Y-10935000D02*
X12465000Y-10965000D01*
X12465000Y-10935000D02*
X12435000Y-10965000D01*
X12435000Y-11065000D02*
X12465000Y-11095000D01*
X12465000Y-11065000D02*
X12435000Y-11095000D01*
X12460000Y-10175000D02*
X12490000Y-10205000D01*
X12490000Y-10175000D02*
X12460000Y-10205000D01*
X12475000Y-10695000D02*
X12505000Y-10725000D01*
X12505000Y-10695000D02*
X12475000Y-10725000D01*
X12475000Y-11185000D02*
X12505000Y-11215000D01*
X12505000Y-11185000D02*
X12475000Y-11215000D01*
X12505000Y-9195000D02*
X12535000Y-9225000D01*
X12535000Y-9195000D02*
X12505000Y-9225000D01*
X12645000Y-10695000D02*
X12675000Y-10725000D01*
X12675000Y-10695000D02*
X12645000Y-10725000D01*
X12645000Y-11185000D02*
X12675000Y-11215000D01*
X12675000Y-11185000D02*
X12645000Y-11215000D01*
X12785000Y-10695000D02*
X12815000Y-10725000D01*
X12815000Y-10695000D02*
X12785000Y-10725000D01*
X12785000Y-11185000D02*
X12815000Y-11215000D01*
X12815000Y-11185000D02*
X12785000Y-11215000D01*
X12935000Y-8305000D02*
X12965000Y-8335000D01*
X12965000Y-8305000D02*
X12935000Y-8335000D01*
X12935000Y-8405000D02*
X12965000Y-8435000D01*
X12965000Y-8405000D02*
X12935000Y-8435000D01*
X13003451Y-10804641D02*
X13033451Y-10834641D01*
X13033451Y-10804641D02*
X13003451Y-10834641D01*
X13063368Y-10751632D02*
X13093368Y-10781632D01*
X13093368Y-10751632D02*
X13063368Y-10781632D01*
X13145000Y-9145000D02*
X13175000Y-9175000D01*
X13175000Y-9145000D02*
X13145000Y-9175000D01*
X13150000Y-7955000D02*
X13180000Y-7985000D01*
X13180000Y-7955000D02*
X13150000Y-7985000D01*
X13150000Y-8040000D02*
X13180000Y-8070000D01*
X13180000Y-8040000D02*
X13150000Y-8070000D01*
X13470000Y-8830000D02*
X13500000Y-8860000D01*
X13500000Y-8830000D02*
X13470000Y-8860000D01*
X13705000Y-10135000D02*
X13735000Y-10165000D01*
X13735000Y-10135000D02*
X13705000Y-10165000D01*
X13705000Y-11170000D02*
X13735000Y-11200000D01*
X13735000Y-11170000D02*
X13705000Y-11200000D01*
X13710000Y-8830000D02*
X13740000Y-8860000D01*
X13740000Y-8830000D02*
X13710000Y-8860000D01*
X13770000Y-10708232D02*
X13800000Y-10738232D01*
X13800000Y-10708232D02*
X13770000Y-10738232D01*
X13775000Y-9965000D02*
X13805000Y-9995000D01*
X13805000Y-9965000D02*
X13775000Y-9995000D01*
X13775000Y-10980732D02*
X13805000Y-11010732D01*
X13805000Y-10980732D02*
X13775000Y-11010732D01*
X13775000Y-11065000D02*
X13805000Y-11095000D01*
X13805000Y-11065000D02*
X13775000Y-11095000D01*
X13785000Y-10135000D02*
X13815000Y-10165000D01*
X13815000Y-10135000D02*
X13785000Y-10165000D01*
X14450000Y-8910000D02*
X14480000Y-8940000D01*
X14480000Y-8910000D02*
X14450000Y-8940000D01*
X14600420Y-9950366D02*
X14630420Y-9980366D01*
X14630420Y-9950366D02*
X14600420Y-9980366D01*
X15113750Y-12173750D02*
X15143750Y-12203750D01*
X15143750Y-12173750D02*
X15113750Y-12203750D01*
X15368750Y-11728750D02*
X15398750Y-11758750D01*
X15398750Y-11728750D02*
X15368750Y-11758750D01*
X15388750Y-12173750D02*
X15418750Y-12203750D01*
X15418750Y-12173750D02*
X15388750Y-12203750D01*
X16405000Y-8945000D02*
X16435000Y-8975000D01*
X16435000Y-8945000D02*
X16405000Y-8975000D01*
X17090000Y-8920000D02*
X17120000Y-8950000D01*
X17120000Y-8920000D02*
X17090000Y-8950000D01*
X18075000Y-8110000D02*
X18105000Y-8140000D01*
X18105000Y-8110000D02*
X18075000Y-8140000D01*
X13475000Y-11860000D02*
G75*
G02*
X13445000Y-11860000I-15000J0D01*
G01*
X13445000Y-11860000D02*
G75*
G02*
X13475000Y-11860000I15000J0D01*
G01*
X15220000Y-11993750D02*
G75*
G02*
X15190000Y-11993750I-15000J0D01*
G01*
X15190000Y-11993750D02*
G75*
G02*
X15220000Y-11993750I15000J0D01*
G01*
X15220000Y-12103750D02*
G75*
G02*
X15190000Y-12103750I-15000J0D01*
G01*
X15190000Y-12103750D02*
G75*
G02*
X15220000Y-12103750I15000J0D01*
G01*
X15275000Y-12048750D02*
G75*
G02*
X15245000Y-12048750I-15000J0D01*
G01*
X15245000Y-12048750D02*
G75*
G02*
X15275000Y-12048750I15000J0D01*
G01*
X15330000Y-11993750D02*
G75*
G02*
X15300000Y-11993750I-15000J0D01*
G01*
X15300000Y-11993750D02*
G75*
G02*
X15330000Y-11993750I15000J0D01*
G01*
X15330000Y-12103750D02*
G75*
G02*
X15300000Y-12103750I-15000J0D01*
G01*
X15300000Y-12103750D02*
G75*
G02*
X15330000Y-12103750I15000J0D01*
G01*
X15540000Y-10670000D02*
G75*
G02*
X15510000Y-10670000I-15000J0D01*
G01*
X15510000Y-10670000D02*
G75*
G02*
X15540000Y-10670000I15000J0D01*
G01*
X15597500Y-10575000D02*
G75*
G02*
X15567500Y-10575000I-15000J0D01*
G01*
X15567500Y-10575000D02*
G75*
G02*
X15597500Y-10575000I15000J0D01*
G01*
X15597500Y-10765000D02*
G75*
G02*
X15567500Y-10765000I-15000J0D01*
G01*
X15567500Y-10765000D02*
G75*
G02*
X15597500Y-10765000I15000J0D01*
G01*
X15655000Y-10670000D02*
G75*
G02*
X15625000Y-10670000I-15000J0D01*
G01*
X15625000Y-10670000D02*
G75*
G02*
X15655000Y-10670000I15000J0D01*
G01*
X11005000Y-11570000D02*
X11005000Y-11610000D01*
X10985000Y-11590000D02*
X11025000Y-11590000D01*
X11090000Y-8020000D02*
X11090000Y-8060000D01*
X11070000Y-8040000D02*
X11110000Y-8040000D01*
X11090000Y-8220000D02*
X11090000Y-8260000D01*
X11070000Y-8240000D02*
X11110000Y-8240000D01*
X11090000Y-8420000D02*
X11090000Y-8460000D01*
X11070000Y-8440000D02*
X11110000Y-8440000D01*
X11090000Y-8620000D02*
X11090000Y-8660000D01*
X11070000Y-8640000D02*
X11110000Y-8640000D01*
X11090000Y-8820000D02*
X11090000Y-8860000D01*
X11070000Y-8840000D02*
X11110000Y-8840000D01*
X11090000Y-9020000D02*
X11090000Y-9060000D01*
X11070000Y-9040000D02*
X11110000Y-9040000D01*
X11090000Y-9220000D02*
X11090000Y-9260000D01*
X11070000Y-9240000D02*
X11110000Y-9240000D01*
X11090000Y-9420000D02*
X11090000Y-9460000D01*
X11070000Y-9440000D02*
X11110000Y-9440000D01*
X11090000Y-9620000D02*
X11090000Y-9660000D01*
X11070000Y-9640000D02*
X11110000Y-9640000D01*
X11090000Y-9820000D02*
X11090000Y-9860000D01*
X11070000Y-9840000D02*
X11110000Y-9840000D01*
X11090000Y-10020000D02*
X11090000Y-10060000D01*
X11070000Y-10040000D02*
X11110000Y-10040000D01*
X11090000Y-10220000D02*
X11090000Y-10260000D01*
X11070000Y-10240000D02*
X11110000Y-10240000D01*
X11090000Y-10715000D02*
X11090000Y-10755000D01*
X11070000Y-10735000D02*
X11110000Y-10735000D01*
X11090000Y-10915000D02*
X11090000Y-10955000D01*
X11070000Y-10935000D02*
X11110000Y-10935000D01*
X11090000Y-11115000D02*
X11090000Y-11155000D01*
X11070000Y-11135000D02*
X11110000Y-11135000D01*
X11215000Y-11405000D02*
X11215000Y-11445000D01*
X11195000Y-11425000D02*
X11235000Y-11425000D01*
X11450000Y-9400000D02*
X11450000Y-9440000D01*
X11430000Y-9420000D02*
X11470000Y-9420000D01*
X11470000Y-8030000D02*
X11470000Y-8070000D01*
X11450000Y-8050000D02*
X11490000Y-8050000D01*
X11480000Y-8870000D02*
X11480000Y-8910000D01*
X11460000Y-8890000D02*
X11500000Y-8890000D01*
X11480000Y-9920000D02*
X11480000Y-9960000D01*
X11460000Y-9940000D02*
X11500000Y-9940000D01*
X11480000Y-10370000D02*
X11480000Y-10410000D01*
X11460000Y-10390000D02*
X11500000Y-10390000D01*
X11490000Y-8340000D02*
X11490000Y-8380000D01*
X11470000Y-8360000D02*
X11510000Y-8360000D01*
X11600000Y-11505000D02*
X11600000Y-11545000D01*
X11580000Y-11525000D02*
X11620000Y-11525000D01*
X11670000Y-8000000D02*
X11670000Y-8040000D01*
X11650000Y-8020000D02*
X11690000Y-8020000D01*
X11670000Y-10620000D02*
X11670000Y-10660000D01*
X11650000Y-10640000D02*
X11690000Y-10640000D01*
X11670000Y-11290000D02*
X11670000Y-11330000D01*
X11650000Y-11310000D02*
X11690000Y-11310000D01*
X11740000Y-7240000D02*
X11740000Y-7280000D01*
X11720000Y-7260000D02*
X11760000Y-7260000D01*
X11770000Y-7910000D02*
X11770000Y-7950000D01*
X11750000Y-7930000D02*
X11790000Y-7930000D01*
X11800000Y-8980000D02*
X11800000Y-9020000D01*
X11780000Y-9000000D02*
X11820000Y-9000000D01*
X11800000Y-11505000D02*
X11800000Y-11545000D01*
X11780000Y-11525000D02*
X11820000Y-11525000D01*
X11800000Y-11705000D02*
X11800000Y-11745000D01*
X11780000Y-11725000D02*
X11820000Y-11725000D01*
X11830000Y-10030000D02*
X11830000Y-10070000D01*
X11810000Y-10050000D02*
X11850000Y-10050000D01*
X11850000Y-9400000D02*
X11850000Y-9440000D01*
X11830000Y-9420000D02*
X11870000Y-9420000D01*
X11870000Y-8670000D02*
X11870000Y-8710000D01*
X11850000Y-8690000D02*
X11890000Y-8690000D01*
X11870000Y-9720000D02*
X11870000Y-9760000D01*
X11850000Y-9740000D02*
X11890000Y-9740000D01*
X11870000Y-10520000D02*
X11870000Y-10560000D01*
X11850000Y-10540000D02*
X11890000Y-10540000D01*
X11920000Y-8310000D02*
X11920000Y-8350000D01*
X11900000Y-8330000D02*
X11940000Y-8330000D01*
X12000000Y-11505000D02*
X12000000Y-11545000D01*
X11980000Y-11525000D02*
X12020000Y-11525000D01*
X12000000Y-11705000D02*
X12000000Y-11745000D01*
X11980000Y-11725000D02*
X12020000Y-11725000D01*
X12050000Y-10680000D02*
X12050000Y-10720000D01*
X12030000Y-10700000D02*
X12070000Y-10700000D01*
X12050000Y-11260000D02*
X12050000Y-11300000D01*
X12030000Y-11280000D02*
X12070000Y-11280000D01*
X12130000Y-10520000D02*
X12130000Y-10560000D01*
X12110000Y-10540000D02*
X12150000Y-10540000D01*
X12150000Y-10120000D02*
X12150000Y-10160000D01*
X12130000Y-10140000D02*
X12170000Y-10140000D01*
X12180000Y-8940000D02*
X12180000Y-8980000D01*
X12160000Y-8960000D02*
X12200000Y-8960000D01*
X12180000Y-9080000D02*
X12180000Y-9120000D01*
X12160000Y-9100000D02*
X12200000Y-9100000D01*
X12180000Y-10790000D02*
X12180000Y-10830000D01*
X12160000Y-10810000D02*
X12200000Y-10810000D01*
X12200000Y-11505000D02*
X12200000Y-11545000D01*
X12180000Y-11525000D02*
X12220000Y-11525000D01*
X12200000Y-11705000D02*
X12200000Y-11745000D01*
X12180000Y-11725000D02*
X12220000Y-11725000D01*
X12250000Y-9740000D02*
X12250000Y-9780000D01*
X12230000Y-9760000D02*
X12270000Y-9760000D01*
X12260000Y-9410000D02*
X12260000Y-9450000D01*
X12240000Y-9430000D02*
X12280000Y-9430000D01*
X12320000Y-11070000D02*
X12320000Y-11110000D01*
X12300000Y-11090000D02*
X12340000Y-11090000D01*
X12320000Y-11260000D02*
X12320000Y-11300000D01*
X12300000Y-11280000D02*
X12340000Y-11280000D01*
X12340000Y-8610000D02*
X12340000Y-8650000D01*
X12320000Y-8630000D02*
X12360000Y-8630000D01*
X12360000Y-9920000D02*
X12360000Y-9960000D01*
X12340000Y-9940000D02*
X12380000Y-9940000D01*
X12380000Y-9120000D02*
X12380000Y-9160000D01*
X12360000Y-9140000D02*
X12400000Y-9140000D01*
X12390000Y-8930000D02*
X12390000Y-8970000D01*
X12370000Y-8950000D02*
X12410000Y-8950000D01*
X12400000Y-11505000D02*
X12400000Y-11545000D01*
X12380000Y-11525000D02*
X12420000Y-11525000D01*
X12400000Y-11705000D02*
X12400000Y-11745000D01*
X12380000Y-11725000D02*
X12420000Y-11725000D01*
X12420000Y-9620000D02*
X12420000Y-9660000D01*
X12400000Y-9640000D02*
X12440000Y-9640000D01*
X12520000Y-8550000D02*
X12520000Y-8590000D01*
X12500000Y-8570000D02*
X12540000Y-8570000D01*
X12540000Y-7360000D02*
X12540000Y-7400000D01*
X12520000Y-7380000D02*
X12560000Y-7380000D01*
X12560000Y-8370000D02*
X12560000Y-8410000D01*
X12540000Y-8390000D02*
X12580000Y-8390000D01*
X12600000Y-11505000D02*
X12600000Y-11545000D01*
X12580000Y-11525000D02*
X12620000Y-11525000D01*
X12600000Y-11705000D02*
X12600000Y-11745000D01*
X12580000Y-11725000D02*
X12620000Y-11725000D01*
X12610000Y-8640000D02*
X12610000Y-8680000D01*
X12590000Y-8660000D02*
X12630000Y-8660000D01*
X12620000Y-7480000D02*
X12620000Y-7520000D01*
X12600000Y-7500000D02*
X12640000Y-7500000D01*
X12650000Y-8500000D02*
X12650000Y-8540000D01*
X12630000Y-8520000D02*
X12670000Y-8520000D01*
X12700000Y-7360000D02*
X12700000Y-7400000D01*
X12680000Y-7380000D02*
X12720000Y-7380000D01*
X12700000Y-9040000D02*
X12700000Y-9080000D01*
X12680000Y-9060000D02*
X12720000Y-9060000D01*
X12700000Y-10310000D02*
X12700000Y-10350000D01*
X12680000Y-10330000D02*
X12720000Y-10330000D01*
X12700000Y-10400000D02*
X12700000Y-10440000D01*
X12680000Y-10420000D02*
X12720000Y-10420000D01*
X12720000Y-9820000D02*
X12720000Y-9860000D01*
X12700000Y-9840000D02*
X12740000Y-9840000D01*
X12730000Y-9590000D02*
X12730000Y-9630000D01*
X12710000Y-9610000D02*
X12750000Y-9610000D01*
X12755000Y-7490000D02*
X12755000Y-7530000D01*
X12735000Y-7510000D02*
X12775000Y-7510000D01*
X12790000Y-9290000D02*
X12790000Y-9330000D01*
X12770000Y-9310000D02*
X12810000Y-9310000D01*
X12800000Y-11505000D02*
X12800000Y-11545000D01*
X12780000Y-11525000D02*
X12820000Y-11525000D01*
X12800000Y-11705000D02*
X12800000Y-11745000D01*
X12780000Y-11725000D02*
X12820000Y-11725000D01*
X12805000Y-7560000D02*
X12805000Y-7600000D01*
X12785000Y-7580000D02*
X12825000Y-7580000D01*
X12855000Y-7490000D02*
X12855000Y-7530000D01*
X12835000Y-7510000D02*
X12875000Y-7510000D01*
X12880000Y-9040000D02*
X12880000Y-9080000D01*
X12860000Y-9060000D02*
X12900000Y-9060000D01*
X12900000Y-10620000D02*
X12900000Y-10660000D01*
X12880000Y-10640000D02*
X12920000Y-10640000D01*
X12900000Y-11250000D02*
X12900000Y-11290000D01*
X12880000Y-11270000D02*
X12920000Y-11270000D01*
X12940000Y-8500000D02*
X12940000Y-8540000D01*
X12920000Y-8520000D02*
X12960000Y-8520000D01*
X13000000Y-11290000D02*
X13000000Y-11330000D01*
X12980000Y-11310000D02*
X13020000Y-11310000D01*
X13000000Y-11505000D02*
X13000000Y-11545000D01*
X12980000Y-11525000D02*
X13020000Y-11525000D01*
X13000000Y-11705000D02*
X13000000Y-11745000D01*
X12980000Y-11725000D02*
X13020000Y-11725000D01*
X13025000Y-11395000D02*
X13025000Y-11435000D01*
X13005000Y-11415000D02*
X13045000Y-11415000D01*
X13040000Y-11620000D02*
X13040000Y-11660000D01*
X13020000Y-11640000D02*
X13060000Y-11640000D01*
X13040000Y-11800000D02*
X13040000Y-11840000D01*
X13020000Y-11820000D02*
X13060000Y-11820000D01*
X13120000Y-10990000D02*
X13120000Y-11030000D01*
X13100000Y-11010000D02*
X13140000Y-11010000D01*
X13130000Y-11395000D02*
X13130000Y-11435000D01*
X13110000Y-11415000D02*
X13150000Y-11415000D01*
X13130000Y-11505000D02*
X13130000Y-11545000D01*
X13110000Y-11525000D02*
X13150000Y-11525000D01*
X13130000Y-11620000D02*
X13130000Y-11660000D01*
X13110000Y-11640000D02*
X13150000Y-11640000D01*
X13130000Y-11805000D02*
X13130000Y-11845000D01*
X13110000Y-11825000D02*
X13150000Y-11825000D01*
X13140000Y-11150000D02*
X13140000Y-11190000D01*
X13120000Y-11170000D02*
X13160000Y-11170000D01*
X13160000Y-7360000D02*
X13160000Y-7400000D01*
X13140000Y-7380000D02*
X13180000Y-7380000D01*
X13170000Y-10240000D02*
X13170000Y-10280000D01*
X13150000Y-10260000D02*
X13190000Y-10260000D01*
X13220000Y-10390000D02*
X13220000Y-10430000D01*
X13200000Y-10410000D02*
X13240000Y-10410000D01*
X13320000Y-8185000D02*
X13320000Y-8225000D01*
X13300000Y-8205000D02*
X13340000Y-8205000D01*
X13325000Y-8520000D02*
X13325000Y-8560000D01*
X13305000Y-8540000D02*
X13345000Y-8540000D01*
X13325000Y-8720000D02*
X13325000Y-8760000D01*
X13305000Y-8740000D02*
X13345000Y-8740000D01*
X13325000Y-8920000D02*
X13325000Y-8960000D01*
X13305000Y-8940000D02*
X13345000Y-8940000D01*
X13350000Y-10390000D02*
X13350000Y-10430000D01*
X13330000Y-10410000D02*
X13370000Y-10410000D01*
X13355000Y-11470000D02*
X13355000Y-11510000D01*
X13335000Y-11490000D02*
X13375000Y-11490000D01*
X13355000Y-11585000D02*
X13355000Y-11625000D01*
X13335000Y-11605000D02*
X13375000Y-11605000D01*
X13355000Y-11700000D02*
X13355000Y-11740000D01*
X13335000Y-11720000D02*
X13375000Y-11720000D01*
X13355000Y-11815000D02*
X13355000Y-11855000D01*
X13335000Y-11835000D02*
X13375000Y-11835000D01*
X13360000Y-10100000D02*
X13360000Y-10140000D01*
X13340000Y-10120000D02*
X13380000Y-10120000D01*
X13430000Y-7360000D02*
X13430000Y-7400000D01*
X13410000Y-7380000D02*
X13450000Y-7380000D01*
X13495000Y-11745000D02*
X13495000Y-11785000D01*
X13475000Y-11765000D02*
X13515000Y-11765000D01*
X13500000Y-11200000D02*
X13500000Y-11240000D01*
X13480000Y-11220000D02*
X13520000Y-11220000D01*
X13500000Y-11530000D02*
X13500000Y-11570000D01*
X13480000Y-11550000D02*
X13520000Y-11550000D01*
X13530000Y-10240000D02*
X13530000Y-10280000D01*
X13510000Y-10260000D02*
X13550000Y-10260000D01*
X13600000Y-10100000D02*
X13600000Y-10140000D01*
X13580000Y-10120000D02*
X13620000Y-10120000D01*
X13605000Y-7785000D02*
X13605000Y-7825000D01*
X13585000Y-7805000D02*
X13625000Y-7805000D01*
X13605000Y-7985000D02*
X13605000Y-8025000D01*
X13585000Y-8005000D02*
X13625000Y-8005000D01*
X13605000Y-8185000D02*
X13605000Y-8225000D01*
X13585000Y-8205000D02*
X13625000Y-8205000D01*
X13620000Y-10240000D02*
X13620000Y-10280000D01*
X13600000Y-10260000D02*
X13640000Y-10260000D01*
X13660000Y-11340000D02*
X13660000Y-11380000D01*
X13640000Y-11360000D02*
X13680000Y-11360000D01*
X13700000Y-11530000D02*
X13700000Y-11570000D01*
X13680000Y-11550000D02*
X13720000Y-11550000D01*
X13700000Y-11745000D02*
X13700000Y-11785000D01*
X13680000Y-11765000D02*
X13720000Y-11765000D01*
X13800000Y-7360000D02*
X13800000Y-7400000D01*
X13780000Y-7380000D02*
X13820000Y-7380000D01*
X13830000Y-11190000D02*
X13830000Y-11230000D01*
X13810000Y-11210000D02*
X13850000Y-11210000D01*
X13845000Y-8520000D02*
X13845000Y-8560000D01*
X13825000Y-8540000D02*
X13865000Y-8540000D01*
X13845000Y-8720000D02*
X13845000Y-8760000D01*
X13825000Y-8740000D02*
X13865000Y-8740000D01*
X13845000Y-8920000D02*
X13845000Y-8960000D01*
X13825000Y-8940000D02*
X13865000Y-8940000D01*
X13900000Y-8185000D02*
X13900000Y-8225000D01*
X13880000Y-8205000D02*
X13920000Y-8205000D01*
X13900000Y-11530000D02*
X13900000Y-11570000D01*
X13880000Y-11550000D02*
X13920000Y-11550000D01*
X13900000Y-11745000D02*
X13900000Y-11785000D01*
X13880000Y-11765000D02*
X13920000Y-11765000D01*
X13935000Y-7660000D02*
X13935000Y-7700000D01*
X13915000Y-7680000D02*
X13955000Y-7680000D01*
X13965000Y-9145000D02*
X13965000Y-9185000D01*
X13945000Y-9165000D02*
X13985000Y-9165000D01*
X13990000Y-11020000D02*
X13990000Y-11060000D01*
X13970000Y-11040000D02*
X14010000Y-11040000D01*
X14080000Y-8520000D02*
X14080000Y-8560000D01*
X14060000Y-8540000D02*
X14100000Y-8540000D01*
X14080000Y-8720000D02*
X14080000Y-8760000D01*
X14060000Y-8740000D02*
X14100000Y-8740000D01*
X14080000Y-8920000D02*
X14080000Y-8960000D01*
X14060000Y-8940000D02*
X14100000Y-8940000D01*
X14090000Y-7360000D02*
X14090000Y-7400000D01*
X14070000Y-7380000D02*
X14110000Y-7380000D01*
X14110000Y-11870000D02*
X14110000Y-11910000D01*
X14090000Y-11890000D02*
X14130000Y-11890000D01*
X14110000Y-12110000D02*
X14110000Y-12150000D01*
X14090000Y-12130000D02*
X14130000Y-12130000D01*
X14115000Y-7665000D02*
X14115000Y-7705000D01*
X14095000Y-7685000D02*
X14135000Y-7685000D01*
X14130000Y-12345000D02*
X14130000Y-12385000D01*
X14110000Y-12365000D02*
X14150000Y-12365000D01*
X14160000Y-7900000D02*
X14160000Y-7940000D01*
X14140000Y-7920000D02*
X14180000Y-7920000D01*
X14160000Y-8080000D02*
X14160000Y-8120000D01*
X14140000Y-8100000D02*
X14180000Y-8100000D01*
X14320000Y-9570000D02*
X14320000Y-9610000D01*
X14300000Y-9590000D02*
X14340000Y-9590000D01*
X14320000Y-9770000D02*
X14320000Y-9810000D01*
X14300000Y-9790000D02*
X14340000Y-9790000D01*
X14320000Y-9970000D02*
X14320000Y-10010000D01*
X14300000Y-9990000D02*
X14340000Y-9990000D01*
X14320000Y-10170000D02*
X14320000Y-10210000D01*
X14300000Y-10190000D02*
X14340000Y-10190000D01*
X14320000Y-10370000D02*
X14320000Y-10410000D01*
X14300000Y-10390000D02*
X14340000Y-10390000D01*
X14320000Y-10570000D02*
X14320000Y-10610000D01*
X14300000Y-10590000D02*
X14340000Y-10590000D01*
X14320000Y-10770000D02*
X14320000Y-10810000D01*
X14300000Y-10790000D02*
X14340000Y-10790000D01*
X14330000Y-12345000D02*
X14330000Y-12385000D01*
X14310000Y-12365000D02*
X14350000Y-12365000D01*
X14410000Y-7360000D02*
X14410000Y-7400000D01*
X14390000Y-7380000D02*
X14430000Y-7380000D01*
X14410000Y-7900000D02*
X14410000Y-7940000D01*
X14390000Y-7920000D02*
X14430000Y-7920000D01*
X14430000Y-11460000D02*
X14430000Y-11500000D01*
X14410000Y-11480000D02*
X14450000Y-11480000D01*
X14490000Y-11530000D02*
X14490000Y-11570000D01*
X14470000Y-11550000D02*
X14510000Y-11550000D01*
X14490000Y-11620000D02*
X14490000Y-11660000D01*
X14470000Y-11640000D02*
X14510000Y-11640000D01*
X14490000Y-11710000D02*
X14490000Y-11750000D01*
X14470000Y-11730000D02*
X14510000Y-11730000D01*
X14520000Y-8250000D02*
X14520000Y-8290000D01*
X14500000Y-8270000D02*
X14540000Y-8270000D01*
X14520000Y-8450000D02*
X14520000Y-8490000D01*
X14500000Y-8470000D02*
X14540000Y-8470000D01*
X14525000Y-9485000D02*
X14525000Y-9525000D01*
X14505000Y-9505000D02*
X14545000Y-9505000D01*
X14530000Y-12345000D02*
X14530000Y-12385000D01*
X14510000Y-12365000D02*
X14550000Y-12365000D01*
X14570000Y-7530000D02*
X14570000Y-7570000D01*
X14550000Y-7550000D02*
X14590000Y-7550000D01*
X14570000Y-11570000D02*
X14570000Y-11610000D01*
X14550000Y-11590000D02*
X14590000Y-11590000D01*
X14570000Y-11660000D02*
X14570000Y-11700000D01*
X14550000Y-11680000D02*
X14590000Y-11680000D01*
X14580000Y-8800000D02*
X14580000Y-8840000D01*
X14560000Y-8820000D02*
X14600000Y-8820000D01*
X14615000Y-10170000D02*
X14615000Y-10210000D01*
X14595000Y-10190000D02*
X14635000Y-10190000D01*
X14615000Y-10370000D02*
X14615000Y-10410000D01*
X14595000Y-10390000D02*
X14635000Y-10390000D01*
X14615000Y-10570000D02*
X14615000Y-10610000D01*
X14595000Y-10590000D02*
X14635000Y-10590000D01*
X14615000Y-10770000D02*
X14615000Y-10810000D01*
X14595000Y-10790000D02*
X14635000Y-10790000D01*
X14620000Y-8080000D02*
X14620000Y-8120000D01*
X14600000Y-8100000D02*
X14640000Y-8100000D01*
X14715000Y-9490000D02*
X14715000Y-9530000D01*
X14695000Y-9510000D02*
X14735000Y-9510000D01*
X14720000Y-8250000D02*
X14720000Y-8290000D01*
X14700000Y-8270000D02*
X14740000Y-8270000D01*
X14720000Y-8450000D02*
X14720000Y-8490000D01*
X14700000Y-8470000D02*
X14740000Y-8470000D01*
X14730000Y-12345000D02*
X14730000Y-12385000D01*
X14710000Y-12365000D02*
X14750000Y-12365000D01*
X14740000Y-11380000D02*
X14740000Y-11420000D01*
X14720000Y-11400000D02*
X14760000Y-11400000D01*
X14745000Y-8800000D02*
X14745000Y-8840000D01*
X14725000Y-8820000D02*
X14765000Y-8820000D01*
X14760000Y-7720000D02*
X14760000Y-7760000D01*
X14740000Y-7740000D02*
X14780000Y-7740000D01*
X14800000Y-11870000D02*
X14800000Y-11910000D01*
X14780000Y-11890000D02*
X14820000Y-11890000D01*
X14835000Y-11095000D02*
X14835000Y-11135000D01*
X14815000Y-11115000D02*
X14855000Y-11115000D01*
X14840000Y-7210000D02*
X14840000Y-7250000D01*
X14820000Y-7230000D02*
X14860000Y-7230000D01*
X14885000Y-8420000D02*
X14885000Y-8460000D01*
X14865000Y-8440000D02*
X14905000Y-8440000D01*
X14920000Y-7880000D02*
X14920000Y-7920000D01*
X14900000Y-7900000D02*
X14940000Y-7900000D01*
X14930000Y-12345000D02*
X14930000Y-12385000D01*
X14910000Y-12365000D02*
X14950000Y-12365000D01*
X14940000Y-11540000D02*
X14940000Y-11580000D01*
X14920000Y-11560000D02*
X14960000Y-11560000D01*
X14945000Y-11335000D02*
X14945000Y-11375000D01*
X14925000Y-11355000D02*
X14965000Y-11355000D01*
X14980000Y-10140000D02*
X14980000Y-10180000D01*
X14960000Y-10160000D02*
X15000000Y-10160000D01*
X14980000Y-10230000D02*
X14980000Y-10270000D01*
X14960000Y-10250000D02*
X15000000Y-10250000D01*
X15040000Y-7210000D02*
X15040000Y-7250000D01*
X15020000Y-7230000D02*
X15060000Y-7230000D01*
X15040000Y-7410000D02*
X15040000Y-7450000D01*
X15020000Y-7430000D02*
X15060000Y-7430000D01*
X15040000Y-11770000D02*
X15040000Y-11810000D01*
X15020000Y-11790000D02*
X15060000Y-11790000D01*
X15070000Y-10140000D02*
X15070000Y-10180000D01*
X15050000Y-10160000D02*
X15090000Y-10160000D01*
X15070000Y-10230000D02*
X15070000Y-10270000D01*
X15050000Y-10250000D02*
X15090000Y-10250000D01*
X15105000Y-11095000D02*
X15105000Y-11135000D01*
X15085000Y-11115000D02*
X15125000Y-11115000D01*
X15105000Y-11335000D02*
X15105000Y-11375000D01*
X15085000Y-11355000D02*
X15125000Y-11355000D01*
X15130000Y-12345000D02*
X15130000Y-12385000D01*
X15110000Y-12365000D02*
X15150000Y-12365000D01*
X15230000Y-11540000D02*
X15230000Y-11580000D01*
X15210000Y-11560000D02*
X15250000Y-11560000D01*
X15240000Y-7210000D02*
X15240000Y-7250000D01*
X15220000Y-7230000D02*
X15260000Y-7230000D01*
X15240000Y-7410000D02*
X15240000Y-7450000D01*
X15220000Y-7430000D02*
X15260000Y-7430000D01*
X15240000Y-7610000D02*
X15240000Y-7650000D01*
X15220000Y-7630000D02*
X15260000Y-7630000D01*
X15240000Y-7810000D02*
X15240000Y-7850000D01*
X15220000Y-7830000D02*
X15260000Y-7830000D01*
X15245000Y-8230000D02*
X15245000Y-8270000D01*
X15225000Y-8250000D02*
X15265000Y-8250000D01*
X15330000Y-12345000D02*
X15330000Y-12385000D01*
X15310000Y-12365000D02*
X15350000Y-12365000D01*
X15360000Y-11470000D02*
X15360000Y-11510000D01*
X15340000Y-11490000D02*
X15380000Y-11490000D01*
X15360000Y-11560000D02*
X15360000Y-11600000D01*
X15340000Y-11580000D02*
X15380000Y-11580000D01*
X15370000Y-8790000D02*
X15370000Y-8830000D01*
X15350000Y-8810000D02*
X15390000Y-8810000D01*
X15380000Y-10005000D02*
X15380000Y-10045000D01*
X15360000Y-10025000D02*
X15400000Y-10025000D01*
X15410000Y-8095000D02*
X15410000Y-8135000D01*
X15390000Y-8115000D02*
X15430000Y-8115000D01*
X15415000Y-9290000D02*
X15415000Y-9330000D01*
X15395000Y-9310000D02*
X15435000Y-9310000D01*
X15440000Y-7210000D02*
X15440000Y-7250000D01*
X15420000Y-7230000D02*
X15460000Y-7230000D01*
X15440000Y-7410000D02*
X15440000Y-7450000D01*
X15420000Y-7430000D02*
X15460000Y-7430000D01*
X15440000Y-7610000D02*
X15440000Y-7650000D01*
X15420000Y-7630000D02*
X15460000Y-7630000D01*
X15440000Y-7810000D02*
X15440000Y-7850000D01*
X15420000Y-7830000D02*
X15460000Y-7830000D01*
X15440000Y-11050000D02*
X15440000Y-11090000D01*
X15420000Y-11070000D02*
X15460000Y-11070000D01*
X15440000Y-11140000D02*
X15440000Y-11180000D01*
X15420000Y-11160000D02*
X15460000Y-11160000D01*
X15450000Y-11470000D02*
X15450000Y-11510000D01*
X15430000Y-11490000D02*
X15470000Y-11490000D01*
X15450000Y-11560000D02*
X15450000Y-11600000D01*
X15430000Y-11580000D02*
X15470000Y-11580000D01*
X15480000Y-10005000D02*
X15480000Y-10045000D01*
X15460000Y-10025000D02*
X15500000Y-10025000D01*
X15530000Y-11050000D02*
X15530000Y-11090000D01*
X15510000Y-11070000D02*
X15550000Y-11070000D01*
X15530000Y-11140000D02*
X15530000Y-11180000D01*
X15510000Y-11160000D02*
X15550000Y-11160000D01*
X15530000Y-12345000D02*
X15530000Y-12385000D01*
X15510000Y-12365000D02*
X15550000Y-12365000D01*
X15605000Y-8775000D02*
X15605000Y-8815000D01*
X15585000Y-8795000D02*
X15625000Y-8795000D01*
X15640000Y-7210000D02*
X15640000Y-7250000D01*
X15620000Y-7230000D02*
X15660000Y-7230000D01*
X15640000Y-7410000D02*
X15640000Y-7450000D01*
X15620000Y-7430000D02*
X15660000Y-7430000D01*
X15640000Y-7610000D02*
X15640000Y-7650000D01*
X15620000Y-7630000D02*
X15660000Y-7630000D01*
X15640000Y-7810000D02*
X15640000Y-7850000D01*
X15620000Y-7830000D02*
X15660000Y-7830000D01*
X15645000Y-10005000D02*
X15645000Y-10045000D01*
X15625000Y-10025000D02*
X15665000Y-10025000D01*
X15680000Y-12020000D02*
X15680000Y-12060000D01*
X15660000Y-12040000D02*
X15700000Y-12040000D01*
X15680000Y-12110000D02*
X15680000Y-12150000D01*
X15660000Y-12130000D02*
X15700000Y-12130000D01*
X15730000Y-12345000D02*
X15730000Y-12385000D01*
X15710000Y-12365000D02*
X15750000Y-12365000D01*
X15770000Y-12020000D02*
X15770000Y-12060000D01*
X15750000Y-12040000D02*
X15790000Y-12040000D01*
X15770000Y-12110000D02*
X15770000Y-12150000D01*
X15750000Y-12130000D02*
X15790000Y-12130000D01*
X15785000Y-8230000D02*
X15785000Y-8270000D01*
X15765000Y-8250000D02*
X15805000Y-8250000D01*
X15800000Y-11165000D02*
X15800000Y-11205000D01*
X15780000Y-11185000D02*
X15820000Y-11185000D01*
X15840000Y-7210000D02*
X15840000Y-7250000D01*
X15820000Y-7230000D02*
X15860000Y-7230000D01*
X15840000Y-7410000D02*
X15840000Y-7450000D01*
X15820000Y-7430000D02*
X15860000Y-7430000D01*
X15840000Y-7610000D02*
X15840000Y-7650000D01*
X15820000Y-7630000D02*
X15860000Y-7630000D01*
X15840000Y-7810000D02*
X15840000Y-7850000D01*
X15820000Y-7830000D02*
X15860000Y-7830000D01*
X15840000Y-8775000D02*
X15840000Y-8815000D01*
X15820000Y-8795000D02*
X15860000Y-8795000D01*
X15850000Y-9050000D02*
X15850000Y-9090000D01*
X15830000Y-9070000D02*
X15870000Y-9070000D01*
X15885000Y-10005000D02*
X15885000Y-10045000D01*
X15865000Y-10025000D02*
X15905000Y-10025000D01*
X15905000Y-11070000D02*
X15905000Y-11110000D01*
X15885000Y-11090000D02*
X15925000Y-11090000D01*
X15905000Y-11270000D02*
X15905000Y-11310000D01*
X15885000Y-11290000D02*
X15925000Y-11290000D01*
X15920000Y-11790000D02*
X15920000Y-11830000D01*
X15900000Y-11810000D02*
X15940000Y-11810000D01*
X15920000Y-11990000D02*
X15920000Y-12030000D01*
X15900000Y-12010000D02*
X15940000Y-12010000D01*
X15920000Y-12190000D02*
X15920000Y-12230000D01*
X15900000Y-12210000D02*
X15940000Y-12210000D01*
X15930000Y-12345000D02*
X15930000Y-12385000D01*
X15910000Y-12365000D02*
X15950000Y-12365000D01*
X15975000Y-8985000D02*
X15975000Y-9025000D01*
X15955000Y-9005000D02*
X15995000Y-9005000D01*
X15975000Y-9130000D02*
X15975000Y-9170000D01*
X15955000Y-9150000D02*
X15995000Y-9150000D01*
X15985000Y-8230000D02*
X15985000Y-8270000D01*
X15965000Y-8250000D02*
X16005000Y-8250000D01*
X16040000Y-7210000D02*
X16040000Y-7250000D01*
X16020000Y-7230000D02*
X16060000Y-7230000D01*
X16040000Y-7410000D02*
X16040000Y-7450000D01*
X16020000Y-7430000D02*
X16060000Y-7430000D01*
X16040000Y-7610000D02*
X16040000Y-7650000D01*
X16020000Y-7630000D02*
X16060000Y-7630000D01*
X16040000Y-7810000D02*
X16040000Y-7850000D01*
X16020000Y-7830000D02*
X16060000Y-7830000D01*
X16065000Y-9475000D02*
X16065000Y-9515000D01*
X16045000Y-9495000D02*
X16085000Y-9495000D01*
X16085000Y-8840000D02*
X16085000Y-8880000D01*
X16065000Y-8860000D02*
X16105000Y-8860000D01*
X16155000Y-9015000D02*
X16155000Y-9055000D01*
X16135000Y-9035000D02*
X16175000Y-9035000D01*
X16155000Y-9225000D02*
X16155000Y-9265000D01*
X16135000Y-9245000D02*
X16175000Y-9245000D01*
X16185000Y-8230000D02*
X16185000Y-8270000D01*
X16165000Y-8250000D02*
X16205000Y-8250000D01*
X16240000Y-7210000D02*
X16240000Y-7250000D01*
X16220000Y-7230000D02*
X16260000Y-7230000D01*
X16240000Y-7410000D02*
X16240000Y-7450000D01*
X16220000Y-7430000D02*
X16260000Y-7430000D01*
X16240000Y-7610000D02*
X16240000Y-7650000D01*
X16220000Y-7630000D02*
X16260000Y-7630000D01*
X16240000Y-7810000D02*
X16240000Y-7850000D01*
X16220000Y-7830000D02*
X16260000Y-7830000D01*
X16265000Y-9560000D02*
X16265000Y-9600000D01*
X16245000Y-9580000D02*
X16285000Y-9580000D01*
X16275000Y-8650000D02*
X16275000Y-8690000D01*
X16255000Y-8670000D02*
X16295000Y-8670000D01*
X16300000Y-9385000D02*
X16300000Y-9425000D01*
X16280000Y-9405000D02*
X16320000Y-9405000D01*
X16335000Y-12125000D02*
X16335000Y-12165000D01*
X16315000Y-12145000D02*
X16355000Y-12145000D01*
X16335000Y-12325000D02*
X16335000Y-12365000D01*
X16315000Y-12345000D02*
X16355000Y-12345000D01*
X16340000Y-11695000D02*
X16340000Y-11735000D01*
X16320000Y-11715000D02*
X16360000Y-11715000D01*
X16385000Y-8230000D02*
X16385000Y-8270000D01*
X16365000Y-8250000D02*
X16405000Y-8250000D01*
X16440000Y-7210000D02*
X16440000Y-7250000D01*
X16420000Y-7230000D02*
X16460000Y-7230000D01*
X16440000Y-7410000D02*
X16440000Y-7450000D01*
X16420000Y-7430000D02*
X16460000Y-7430000D01*
X16440000Y-7610000D02*
X16440000Y-7650000D01*
X16420000Y-7630000D02*
X16460000Y-7630000D01*
X16440000Y-7810000D02*
X16440000Y-7850000D01*
X16420000Y-7830000D02*
X16460000Y-7830000D01*
X16470000Y-11835000D02*
X16470000Y-11875000D01*
X16450000Y-11855000D02*
X16490000Y-11855000D01*
X16475000Y-8650000D02*
X16475000Y-8690000D01*
X16455000Y-8670000D02*
X16495000Y-8670000D01*
X16500000Y-12120000D02*
X16500000Y-12160000D01*
X16480000Y-12140000D02*
X16520000Y-12140000D01*
X16520000Y-9560000D02*
X16520000Y-9600000D01*
X16500000Y-9580000D02*
X16540000Y-9580000D01*
X16585000Y-8230000D02*
X16585000Y-8270000D01*
X16565000Y-8250000D02*
X16605000Y-8250000D01*
X16640000Y-7210000D02*
X16640000Y-7250000D01*
X16620000Y-7230000D02*
X16660000Y-7230000D01*
X16640000Y-7410000D02*
X16640000Y-7450000D01*
X16620000Y-7430000D02*
X16660000Y-7430000D01*
X16640000Y-7610000D02*
X16640000Y-7650000D01*
X16620000Y-7630000D02*
X16660000Y-7630000D01*
X16640000Y-7810000D02*
X16640000Y-7850000D01*
X16620000Y-7830000D02*
X16660000Y-7830000D01*
X16640000Y-12120000D02*
X16640000Y-12160000D01*
X16620000Y-12140000D02*
X16660000Y-12140000D01*
X16675000Y-8650000D02*
X16675000Y-8690000D01*
X16655000Y-8670000D02*
X16695000Y-8670000D01*
X16765000Y-9560000D02*
X16765000Y-9600000D01*
X16745000Y-9580000D02*
X16785000Y-9580000D01*
X16775000Y-12120000D02*
X16775000Y-12160000D01*
X16755000Y-12140000D02*
X16795000Y-12140000D01*
X16785000Y-8230000D02*
X16785000Y-8270000D01*
X16765000Y-8250000D02*
X16805000Y-8250000D01*
X16840000Y-7210000D02*
X16840000Y-7250000D01*
X16820000Y-7230000D02*
X16860000Y-7230000D01*
X16840000Y-7410000D02*
X16840000Y-7450000D01*
X16820000Y-7430000D02*
X16860000Y-7430000D01*
X16840000Y-7610000D02*
X16840000Y-7650000D01*
X16820000Y-7630000D02*
X16860000Y-7630000D01*
X16840000Y-7810000D02*
X16840000Y-7850000D01*
X16820000Y-7830000D02*
X16860000Y-7830000D01*
X16840000Y-11990000D02*
X16840000Y-12030000D01*
X16820000Y-12010000D02*
X16860000Y-12010000D01*
X16875000Y-8650000D02*
X16875000Y-8690000D01*
X16855000Y-8670000D02*
X16895000Y-8670000D01*
X16905000Y-12120000D02*
X16905000Y-12160000D01*
X16885000Y-12140000D02*
X16925000Y-12140000D01*
X16915000Y-9560000D02*
X16915000Y-9600000D01*
X16895000Y-9580000D02*
X16935000Y-9580000D01*
X16980000Y-9125000D02*
X16980000Y-9165000D01*
X16960000Y-9145000D02*
X17000000Y-9145000D01*
X16980000Y-9380000D02*
X16980000Y-9420000D01*
X16960000Y-9400000D02*
X17000000Y-9400000D01*
X16985000Y-8230000D02*
X16985000Y-8270000D01*
X16965000Y-8250000D02*
X17005000Y-8250000D01*
X17040000Y-7210000D02*
X17040000Y-7250000D01*
X17020000Y-7230000D02*
X17060000Y-7230000D01*
X17040000Y-7410000D02*
X17040000Y-7450000D01*
X17020000Y-7430000D02*
X17060000Y-7430000D01*
X17040000Y-7610000D02*
X17040000Y-7650000D01*
X17020000Y-7630000D02*
X17060000Y-7630000D01*
X17040000Y-7810000D02*
X17040000Y-7850000D01*
X17020000Y-7830000D02*
X17060000Y-7830000D01*
X17085000Y-8400000D02*
X17085000Y-8440000D01*
X17065000Y-8420000D02*
X17105000Y-8420000D01*
X17155000Y-12310000D02*
X17155000Y-12350000D01*
X17135000Y-12330000D02*
X17175000Y-12330000D01*
X17185000Y-8230000D02*
X17185000Y-8270000D01*
X17165000Y-8250000D02*
X17205000Y-8250000D01*
X17210000Y-9385000D02*
X17210000Y-9425000D01*
X17190000Y-9405000D02*
X17230000Y-9405000D01*
X17240000Y-7210000D02*
X17240000Y-7250000D01*
X17220000Y-7230000D02*
X17260000Y-7230000D01*
X17240000Y-7410000D02*
X17240000Y-7450000D01*
X17220000Y-7430000D02*
X17260000Y-7430000D01*
X17240000Y-7610000D02*
X17240000Y-7650000D01*
X17220000Y-7630000D02*
X17260000Y-7630000D01*
X17240000Y-7810000D02*
X17240000Y-7850000D01*
X17220000Y-7830000D02*
X17260000Y-7830000D01*
X17250000Y-9605000D02*
X17250000Y-9645000D01*
X17230000Y-9625000D02*
X17270000Y-9625000D01*
X17250000Y-9795000D02*
X17250000Y-9835000D01*
X17230000Y-9815000D02*
X17270000Y-9815000D01*
X17310000Y-8505000D02*
X17310000Y-8545000D01*
X17290000Y-8525000D02*
X17330000Y-8525000D01*
X17355000Y-12310000D02*
X17355000Y-12350000D01*
X17335000Y-12330000D02*
X17375000Y-12330000D01*
X17365000Y-9385000D02*
X17365000Y-9425000D01*
X17345000Y-9405000D02*
X17385000Y-9405000D01*
X17385000Y-8230000D02*
X17385000Y-8270000D01*
X17365000Y-8250000D02*
X17405000Y-8250000D01*
X17440000Y-7210000D02*
X17440000Y-7250000D01*
X17420000Y-7230000D02*
X17460000Y-7230000D01*
X17440000Y-7410000D02*
X17440000Y-7450000D01*
X17420000Y-7430000D02*
X17460000Y-7430000D01*
X17440000Y-7610000D02*
X17440000Y-7650000D01*
X17420000Y-7630000D02*
X17460000Y-7630000D01*
X17440000Y-7810000D02*
X17440000Y-7850000D01*
X17420000Y-7830000D02*
X17460000Y-7830000D01*
X17465000Y-10660000D02*
X17465000Y-10700000D01*
X17445000Y-10680000D02*
X17485000Y-10680000D01*
X17470000Y-10245000D02*
X17470000Y-10285000D01*
X17450000Y-10265000D02*
X17490000Y-10265000D01*
X17470000Y-10445000D02*
X17470000Y-10485000D01*
X17450000Y-10465000D02*
X17490000Y-10465000D01*
X17475000Y-9605000D02*
X17475000Y-9645000D01*
X17455000Y-9625000D02*
X17495000Y-9625000D01*
X17495000Y-8435000D02*
X17495000Y-8475000D01*
X17475000Y-8455000D02*
X17515000Y-8455000D01*
X17495000Y-8625000D02*
X17495000Y-8665000D01*
X17475000Y-8645000D02*
X17515000Y-8645000D01*
X17495000Y-9890000D02*
X17495000Y-9930000D01*
X17475000Y-9910000D02*
X17515000Y-9910000D01*
X17555000Y-12310000D02*
X17555000Y-12350000D01*
X17535000Y-12330000D02*
X17575000Y-12330000D01*
X17585000Y-8230000D02*
X17585000Y-8270000D01*
X17565000Y-8250000D02*
X17605000Y-8250000D01*
X17640000Y-7210000D02*
X17640000Y-7250000D01*
X17620000Y-7230000D02*
X17660000Y-7230000D01*
X17640000Y-7410000D02*
X17640000Y-7450000D01*
X17620000Y-7430000D02*
X17660000Y-7430000D01*
X17640000Y-7610000D02*
X17640000Y-7650000D01*
X17620000Y-7630000D02*
X17660000Y-7630000D01*
X17640000Y-7810000D02*
X17640000Y-7850000D01*
X17620000Y-7830000D02*
X17660000Y-7830000D01*
X17670000Y-10245000D02*
X17670000Y-10285000D01*
X17650000Y-10265000D02*
X17690000Y-10265000D01*
X17670000Y-10445000D02*
X17670000Y-10485000D01*
X17650000Y-10465000D02*
X17690000Y-10465000D01*
X17670000Y-10660000D02*
X17670000Y-10700000D01*
X17650000Y-10680000D02*
X17690000Y-10680000D01*
X17745000Y-12070000D02*
X17745000Y-12110000D01*
X17725000Y-12090000D02*
X17765000Y-12090000D01*
X17755000Y-12310000D02*
X17755000Y-12350000D01*
X17735000Y-12330000D02*
X17775000Y-12330000D01*
X17785000Y-8230000D02*
X17785000Y-8270000D01*
X17765000Y-8250000D02*
X17805000Y-8250000D01*
X17840000Y-7210000D02*
X17840000Y-7250000D01*
X17820000Y-7230000D02*
X17860000Y-7230000D01*
X17840000Y-7410000D02*
X17840000Y-7450000D01*
X17820000Y-7430000D02*
X17860000Y-7430000D01*
X17840000Y-7610000D02*
X17840000Y-7650000D01*
X17820000Y-7630000D02*
X17860000Y-7630000D01*
X17840000Y-7810000D02*
X17840000Y-7850000D01*
X17820000Y-7830000D02*
X17860000Y-7830000D01*
X17870000Y-10245000D02*
X17870000Y-10285000D01*
X17850000Y-10265000D02*
X17890000Y-10265000D01*
X17870000Y-10445000D02*
X17870000Y-10485000D01*
X17850000Y-10465000D02*
X17890000Y-10465000D01*
X17870000Y-10660000D02*
X17870000Y-10700000D01*
X17850000Y-10680000D02*
X17890000Y-10680000D01*
X17875000Y-9890000D02*
X17875000Y-9930000D01*
X17855000Y-9910000D02*
X17895000Y-9910000D01*
X17955000Y-12310000D02*
X17955000Y-12350000D01*
X17935000Y-12330000D02*
X17975000Y-12330000D01*
X17985000Y-8230000D02*
X17985000Y-8270000D01*
X17965000Y-8250000D02*
X18005000Y-8250000D01*
X18040000Y-7210000D02*
X18040000Y-7250000D01*
X18020000Y-7230000D02*
X18060000Y-7230000D01*
X18040000Y-7410000D02*
X18040000Y-7450000D01*
X18020000Y-7430000D02*
X18060000Y-7430000D01*
X18040000Y-7610000D02*
X18040000Y-7650000D01*
X18020000Y-7630000D02*
X18060000Y-7630000D01*
X18040000Y-7810000D02*
X18040000Y-7850000D01*
X18020000Y-7830000D02*
X18060000Y-7830000D01*
X18070000Y-10245000D02*
X18070000Y-10285000D01*
X18050000Y-10265000D02*
X18090000Y-10265000D01*
X18135000Y-11390000D02*
X18135000Y-11430000D01*
X18115000Y-11410000D02*
X18155000Y-11410000D01*
X18155000Y-12310000D02*
X18155000Y-12350000D01*
X18135000Y-12330000D02*
X18175000Y-12330000D01*
X18240000Y-7210000D02*
X18240000Y-7250000D01*
X18220000Y-7230000D02*
X18260000Y-7230000D01*
X18240000Y-7410000D02*
X18240000Y-7450000D01*
X18220000Y-7430000D02*
X18260000Y-7430000D01*
X18240000Y-7610000D02*
X18240000Y-7650000D01*
X18220000Y-7630000D02*
X18260000Y-7630000D01*
X18240000Y-7810000D02*
X18240000Y-7850000D01*
X18220000Y-7830000D02*
X18260000Y-7830000D01*
X18250000Y-11170000D02*
X18250000Y-11210000D01*
X18230000Y-11190000D02*
X18270000Y-11190000D01*
X18265000Y-9890000D02*
X18265000Y-9930000D01*
X18245000Y-9910000D02*
X18285000Y-9910000D01*
X18270000Y-10245000D02*
X18270000Y-10285000D01*
X18250000Y-10265000D02*
X18290000Y-10265000D01*
X18270000Y-10445000D02*
X18270000Y-10485000D01*
X18250000Y-10465000D02*
X18290000Y-10465000D01*
X18315000Y-8590000D02*
X18315000Y-8630000D01*
X18295000Y-8610000D02*
X18335000Y-8610000D01*
X18340000Y-11650000D02*
X18340000Y-11690000D01*
X18320000Y-11670000D02*
X18360000Y-11670000D01*
X18355000Y-12310000D02*
X18355000Y-12350000D01*
X18335000Y-12330000D02*
X18375000Y-12330000D01*
X18440000Y-7210000D02*
X18440000Y-7250000D01*
X18420000Y-7230000D02*
X18460000Y-7230000D01*
X18470000Y-7965000D02*
X18470000Y-8005000D01*
X18450000Y-7985000D02*
X18490000Y-7985000D01*
X18470000Y-10245000D02*
X18470000Y-10285000D01*
X18450000Y-10265000D02*
X18490000Y-10265000D01*
X18635000Y-9890000D02*
X18635000Y-9930000D01*
X18615000Y-9910000D02*
X18655000Y-9910000D01*
X18650000Y-11430000D02*
X18650000Y-11470000D01*
X18630000Y-11450000D02*
X18670000Y-11450000D01*
X18650000Y-11535000D02*
X18650000Y-11575000D01*
X18630000Y-11555000D02*
X18670000Y-11555000D01*
X18660000Y-8585000D02*
X18660000Y-8625000D01*
X18640000Y-8605000D02*
X18680000Y-8605000D01*
X19135000Y-7985000D02*
X19135000Y-8025000D01*
X19115000Y-8005000D02*
X19155000Y-8005000D01*
X19135000Y-8185000D02*
X19135000Y-8225000D01*
X19115000Y-8205000D02*
X19155000Y-8205000D01*
X19135000Y-8385000D02*
X19135000Y-8425000D01*
X19115000Y-8405000D02*
X19155000Y-8405000D01*
X19135000Y-8585000D02*
X19135000Y-8625000D01*
X19115000Y-8605000D02*
X19155000Y-8605000D01*
X19135000Y-8785000D02*
X19135000Y-8825000D01*
X19115000Y-8805000D02*
X19155000Y-8805000D01*
X19135000Y-8985000D02*
X19135000Y-9025000D01*
X19115000Y-9005000D02*
X19155000Y-9005000D01*
X19135000Y-9185000D02*
X19135000Y-9225000D01*
X19115000Y-9205000D02*
X19155000Y-9205000D01*
X19135000Y-9385000D02*
X19135000Y-9425000D01*
X19115000Y-9405000D02*
X19155000Y-9405000D01*
X19135000Y-9585000D02*
X19135000Y-9625000D01*
X19115000Y-9605000D02*
X19155000Y-9605000D01*
X19135000Y-9785000D02*
X19135000Y-9825000D01*
X19115000Y-9805000D02*
X19155000Y-9805000D01*
X19135000Y-9985000D02*
X19135000Y-10025000D01*
X19115000Y-10005000D02*
X19155000Y-10005000D01*
X19135000Y-10185000D02*
X19135000Y-10225000D01*
X19115000Y-10205000D02*
X19155000Y-10205000D01*
X19135000Y-10385000D02*
X19135000Y-10425000D01*
X19115000Y-10405000D02*
X19155000Y-10405000D01*
X19135000Y-10585000D02*
X19135000Y-10625000D01*
X19115000Y-10605000D02*
X19155000Y-10605000D01*
X19135000Y-10785000D02*
X19135000Y-10825000D01*
X19115000Y-10805000D02*
X19155000Y-10805000D01*
X19135000Y-10985000D02*
X19135000Y-11025000D01*
X19115000Y-11005000D02*
X19155000Y-11005000D01*
X19135000Y-11185000D02*
X19135000Y-11225000D01*
X19115000Y-11205000D02*
X19155000Y-11205000D01*
X19135000Y-11385000D02*
X19135000Y-11425000D01*
X19115000Y-11405000D02*
X19155000Y-11405000D01*
X19135000Y-11585000D02*
X19135000Y-11625000D01*
X19115000Y-11605000D02*
X19155000Y-11605000D01*
X13408557Y-10814875D02*
X13408557Y-10786590D01*
X13380273Y-10786590D01*
X13380273Y-10814875D01*
X13408557Y-10814875D01*
X13408557Y-10932375D02*
X13408557Y-10904090D01*
X13380273Y-10904090D01*
X13380273Y-10932375D01*
X13408557Y-10932375D01*
X13468557Y-10872375D02*
X13468557Y-10844090D01*
X13440273Y-10844090D01*
X13440273Y-10872375D01*
X13468557Y-10872375D01*
X13528557Y-10814875D02*
X13528557Y-10786590D01*
X13500273Y-10786590D01*
X13500273Y-10814875D01*
X13528557Y-10814875D01*
X13528557Y-10932375D02*
X13528557Y-10904090D01*
X13500273Y-10904090D01*
X13500273Y-10932375D01*
X13528557Y-10932375D01*
X11025000Y-10588000D02*
X11055000Y-10558000D01*
X11025000Y-10528000D01*
X10995000Y-10558000D01*
X11025000Y-10588000D01*
X11055000Y-10528000D02*
X10995000Y-10528000D01*
X10995000Y-10588000D02*
G75*
G02*
X10995000Y-10528000I0J30000D01*
G01*
X10995000Y-10588000D02*
X11055000Y-10588000D01*
X11055000Y-10588000D02*
G75*
G03*
X11055000Y-10528000I0J30000D01*
G01*
X11025000Y-11452000D02*
X11055000Y-11422000D01*
X11025000Y-11392000D01*
X10995000Y-11422000D01*
X11025000Y-11452000D01*
X11055000Y-11392000D02*
X10995000Y-11392000D01*
X10995000Y-11452000D02*
G75*
G02*
X10995000Y-11392000I0J30000D01*
G01*
X10995000Y-11452000D02*
X11055000Y-11452000D01*
X11055000Y-11452000D02*
G75*
G03*
X11055000Y-11392000I0J30000D01*
G01*
X11443000Y-10588000D02*
X11473000Y-10558000D01*
X11443000Y-10528000D01*
X11413000Y-10558000D01*
X11443000Y-10588000D01*
X11498000Y-10528000D02*
X11388000Y-10528000D01*
X11388000Y-10588000D02*
G75*
G02*
X11388000Y-10528000I0J30000D01*
G01*
X11388000Y-10588000D02*
X11498000Y-10588000D01*
X11498000Y-10588000D02*
G75*
G03*
X11498000Y-10528000I0J30000D01*
G01*
X11443000Y-11452000D02*
X11473000Y-11422000D01*
X11443000Y-11392000D01*
X11413000Y-11422000D01*
X11443000Y-11452000D01*
X11498000Y-11392000D02*
X11388000Y-11392000D01*
X11388000Y-11452000D02*
G75*
G02*
X11388000Y-11392000I0J30000D01*
G01*
X11388000Y-11452000D02*
X11498000Y-11452000D01*
X11498000Y-11452000D02*
G75*
G03*
X11498000Y-11392000I0J30000D01*
G01*
X18433500Y-8123000D02*
X18513500Y-8203000D01*
X18513500Y-8123000D02*
X18433500Y-8203000D01*
X18513500Y-8163000D02*
G75*
G02*
X18433500Y-8163000I-40000J0D01*
G01*
X18433500Y-8163000D02*
G75*
G02*
X18513500Y-8163000I40000J0D01*
G01*
X18433500Y-8377000D02*
X18513500Y-8457000D01*
X18513500Y-8377000D02*
X18433500Y-8457000D01*
X18513500Y-8417000D02*
G75*
G02*
X18433500Y-8417000I-40000J0D01*
G01*
X18433500Y-8417000D02*
G75*
G02*
X18513500Y-8417000I40000J0D01*
G01*
X18687500Y-8123000D02*
X18767500Y-8203000D01*
X18767500Y-8123000D02*
X18687500Y-8203000D01*
X18767500Y-8163000D02*
G75*
G02*
X18687500Y-8163000I-40000J0D01*
G01*
X18687500Y-8163000D02*
G75*
G02*
X18767500Y-8163000I40000J0D01*
G01*
X18687500Y-8377000D02*
X18767500Y-8457000D01*
X18767500Y-8377000D02*
X18687500Y-8457000D01*
X18767500Y-8417000D02*
G75*
G02*
X18687500Y-8417000I-40000J0D01*
G01*
X18687500Y-8417000D02*
G75*
G02*
X18767500Y-8417000I40000J0D01*
G01*
X12036000Y-7372000D02*
X12136000Y-7472000D01*
X12136000Y-7372000D02*
X12036000Y-7472000D01*
X12086000Y-7372000D02*
X12086000Y-7472000D01*
X12036000Y-7422000D02*
X12136000Y-7422000D01*
X12036000Y-7626000D02*
X12136000Y-7726000D01*
X12136000Y-7626000D02*
X12036000Y-7726000D01*
X12086000Y-7626000D02*
X12086000Y-7726000D01*
X12036000Y-7676000D02*
X12136000Y-7676000D01*
X12036000Y-7880000D02*
X12136000Y-7980000D01*
X12136000Y-7880000D02*
X12036000Y-7980000D01*
X12086000Y-7880000D02*
X12086000Y-7980000D01*
X12036000Y-7930000D02*
X12136000Y-7930000D01*
X12036000Y-8134000D02*
X12136000Y-8234000D01*
X12136000Y-8134000D02*
X12036000Y-8234000D01*
X12086000Y-8134000D02*
X12086000Y-8234000D01*
X12036000Y-8184000D02*
X12136000Y-8184000D01*
X12290000Y-7372000D02*
X12390000Y-7472000D01*
X12390000Y-7372000D02*
X12290000Y-7472000D01*
X12340000Y-7372000D02*
X12340000Y-7472000D01*
X12290000Y-7422000D02*
X12390000Y-7422000D01*
X12290000Y-7626000D02*
X12390000Y-7726000D01*
X12390000Y-7626000D02*
X12290000Y-7726000D01*
X12340000Y-7626000D02*
X12340000Y-7726000D01*
X12290000Y-7676000D02*
X12390000Y-7676000D01*
X12290000Y-7880000D02*
X12390000Y-7980000D01*
X12390000Y-7880000D02*
X12290000Y-7980000D01*
X12340000Y-7880000D02*
X12340000Y-7980000D01*
X12290000Y-7930000D02*
X12390000Y-7930000D01*
X12290000Y-8134000D02*
X12390000Y-8234000D01*
X12390000Y-8134000D02*
X12290000Y-8234000D01*
X12340000Y-8134000D02*
X12340000Y-8234000D01*
X12290000Y-8184000D02*
X12390000Y-8184000D01*
X12830500Y-9760000D02*
X12930500Y-9860000D01*
X12930500Y-9760000D02*
X12830500Y-9860000D01*
X12880500Y-9760000D02*
X12880500Y-9860000D01*
X12830500Y-9810000D02*
X12930500Y-9810000D01*
X13084500Y-9760000D02*
X13184500Y-9860000D01*
X13184500Y-9760000D02*
X13084500Y-9860000D01*
X13134500Y-9760000D02*
X13134500Y-9860000D01*
X13084500Y-9810000D02*
X13184500Y-9810000D01*
X13338500Y-9760000D02*
X13438500Y-9860000D01*
X13438500Y-9760000D02*
X13338500Y-9860000D01*
X13388500Y-9760000D02*
X13388500Y-9860000D01*
X13338500Y-9810000D02*
X13438500Y-9810000D01*
X13592500Y-9760000D02*
X13692500Y-9860000D01*
X13692500Y-9760000D02*
X13592500Y-9860000D01*
X13642500Y-9760000D02*
X13642500Y-9860000D01*
X13592500Y-9810000D02*
X13692500Y-9810000D01*
X13846500Y-9760000D02*
X13946500Y-9860000D01*
X13946500Y-9760000D02*
X13846500Y-9860000D01*
X13896500Y-9760000D02*
X13896500Y-9860000D01*
X13846500Y-9810000D02*
X13946500Y-9810000D01*
X14100500Y-9760000D02*
X14200500Y-9860000D01*
X14200500Y-9760000D02*
X14100500Y-9860000D01*
X14150500Y-9760000D02*
X14150500Y-9860000D01*
X14100500Y-9810000D02*
X14200500Y-9810000D01*
X14241000Y-12095000D02*
X14341000Y-12195000D01*
X14341000Y-12095000D02*
X14241000Y-12195000D01*
X14291000Y-12095000D02*
X14291000Y-12195000D01*
X14241000Y-12145000D02*
X14341000Y-12145000D01*
X14495000Y-12095000D02*
X14595000Y-12195000D01*
X14595000Y-12095000D02*
X14495000Y-12195000D01*
X14545000Y-12095000D02*
X14545000Y-12195000D01*
X14495000Y-12145000D02*
X14595000Y-12145000D01*
D13*
X11425000Y-8610000D02*
X11535000Y-8720000D01*
X11535000Y-8610000D02*
X11425000Y-8720000D01*
X11518891Y-8703891D02*
X11518891Y-8626109D01*
X11441109Y-8626109D01*
X11441109Y-8703891D01*
X11518891Y-8703891D01*
X11425000Y-9060000D02*
X11535000Y-9170000D01*
X11535000Y-9060000D02*
X11425000Y-9170000D01*
X11518891Y-9153891D02*
X11518891Y-9076109D01*
X11441109Y-9076109D01*
X11441109Y-9153891D01*
X11518891Y-9153891D01*
X11425000Y-9660000D02*
X11535000Y-9770000D01*
X11535000Y-9660000D02*
X11425000Y-9770000D01*
X11518891Y-9753891D02*
X11518891Y-9676109D01*
X11441109Y-9676109D01*
X11441109Y-9753891D01*
X11518891Y-9753891D01*
X11425000Y-10110000D02*
X11535000Y-10220000D01*
X11535000Y-10110000D02*
X11425000Y-10220000D01*
X11518891Y-10203891D02*
X11518891Y-10126109D01*
X11441109Y-10126109D01*
X11441109Y-10203891D01*
X11518891Y-10203891D01*
D14*
X18690000Y-8870000D02*
X18810000Y-8990000D01*
X18810000Y-8870000D02*
X18690000Y-8990000D01*
X18750000Y-8990000D02*
X18810000Y-8930000D01*
X18750000Y-8870000D01*
X18690000Y-8930000D01*
X18750000Y-8990000D01*
X18690000Y-9251000D02*
X18810000Y-9371000D01*
X18810000Y-9251000D02*
X18690000Y-9371000D01*
X18750000Y-9371000D02*
X18810000Y-9311000D01*
X18750000Y-9251000D01*
X18690000Y-9311000D01*
X18750000Y-9371000D01*
X18690000Y-9632000D02*
X18810000Y-9752000D01*
X18810000Y-9632000D02*
X18690000Y-9752000D01*
X18750000Y-9752000D02*
X18810000Y-9692000D01*
X18750000Y-9632000D01*
X18690000Y-9692000D01*
X18750000Y-9752000D01*
X18690000Y-10013000D02*
X18810000Y-10133000D01*
X18810000Y-10013000D02*
X18690000Y-10133000D01*
X18750000Y-10133000D02*
X18810000Y-10073000D01*
X18750000Y-10013000D01*
X18690000Y-10073000D01*
X18750000Y-10133000D01*
X18690000Y-10729000D02*
X18810000Y-10849000D01*
X18810000Y-10729000D02*
X18690000Y-10849000D01*
X18750000Y-10849000D02*
X18810000Y-10789000D01*
X18750000Y-10729000D01*
X18690000Y-10789000D01*
X18750000Y-10849000D01*
X18690000Y-11110000D02*
X18810000Y-11230000D01*
X18810000Y-11110000D02*
X18690000Y-11230000D01*
X18750000Y-11230000D02*
X18810000Y-11170000D01*
X18750000Y-11110000D01*
X18690000Y-11170000D01*
X18750000Y-11230000D01*
D15*
X11730000Y-8470000D02*
X11730000Y-8610000D01*
X11660000Y-8540000D02*
X11800000Y-8540000D01*
X11800000Y-8540000D02*
G75*
G02*
X11660000Y-8540000I-70000J0D01*
G01*
X11660000Y-8540000D02*
G75*
G02*
X11800000Y-8540000I70000J0D01*
G01*
X11730000Y-9170000D02*
X11730000Y-9310000D01*
X11660000Y-9240000D02*
X11800000Y-9240000D01*
X11800000Y-9240000D02*
G75*
G02*
X11660000Y-9240000I-70000J0D01*
G01*
X11660000Y-9240000D02*
G75*
G02*
X11800000Y-9240000I70000J0D01*
G01*
X11730000Y-9520000D02*
X11730000Y-9660000D01*
X11660000Y-9590000D02*
X11800000Y-9590000D01*
X11800000Y-9590000D02*
G75*
G02*
X11660000Y-9590000I-70000J0D01*
G01*
X11660000Y-9590000D02*
G75*
G02*
X11800000Y-9590000I70000J0D01*
G01*
X11730000Y-10220000D02*
X11730000Y-10360000D01*
X11660000Y-10290000D02*
X11800000Y-10290000D01*
X11800000Y-10290000D02*
G75*
G02*
X11660000Y-10290000I-70000J0D01*
G01*
X11660000Y-10290000D02*
G75*
G02*
X11800000Y-10290000I70000J0D01*
G01*
D11*
X11128277Y-12813984D02*
X11128277Y-12613984D01*
X11128277Y-12613984D02*
X11175896Y-12613984D01*
X11175896Y-12613984D02*
X11204467Y-12623508D01*
X11204467Y-12623508D02*
X11223515Y-12642555D01*
X11223515Y-12642555D02*
X11233039Y-12661603D01*
X11233039Y-12661603D02*
X11242562Y-12699698D01*
X11242562Y-12699698D02*
X11242562Y-12728269D01*
X11242562Y-12728269D02*
X11233039Y-12766365D01*
X11233039Y-12766365D02*
X11223515Y-12785412D01*
X11223515Y-12785412D02*
X11204467Y-12804460D01*
X11204467Y-12804460D02*
X11175896Y-12813984D01*
X11175896Y-12813984D02*
X11128277Y-12813984D01*
X11328277Y-12813984D02*
X11328277Y-12680650D01*
X11328277Y-12718746D02*
X11337801Y-12699698D01*
X11337801Y-12699698D02*
X11347324Y-12690174D01*
X11347324Y-12690174D02*
X11366372Y-12680650D01*
X11366372Y-12680650D02*
X11385420Y-12680650D01*
X11452086Y-12813984D02*
X11452086Y-12680650D01*
X11452086Y-12613984D02*
X11442562Y-12623508D01*
X11442562Y-12623508D02*
X11452086Y-12633031D01*
X11452086Y-12633031D02*
X11461610Y-12623508D01*
X11461610Y-12623508D02*
X11452086Y-12613984D01*
X11452086Y-12613984D02*
X11452086Y-12633031D01*
X11575896Y-12813984D02*
X11556848Y-12804460D01*
X11556848Y-12804460D02*
X11547324Y-12785412D01*
X11547324Y-12785412D02*
X11547324Y-12613984D01*
X11680658Y-12813984D02*
X11661610Y-12804460D01*
X11661610Y-12804460D02*
X11652086Y-12785412D01*
X11652086Y-12785412D02*
X11652086Y-12613984D01*
X11909229Y-12813984D02*
X11909229Y-12613984D01*
X11909229Y-12613984D02*
X11975896Y-12756841D01*
X11975896Y-12756841D02*
X12042562Y-12613984D01*
X12042562Y-12613984D02*
X12042562Y-12813984D01*
X12223515Y-12813984D02*
X12223515Y-12709222D01*
X12223515Y-12709222D02*
X12213991Y-12690174D01*
X12213991Y-12690174D02*
X12194943Y-12680650D01*
X12194943Y-12680650D02*
X12156848Y-12680650D01*
X12156848Y-12680650D02*
X12137801Y-12690174D01*
X12223515Y-12804460D02*
X12204467Y-12813984D01*
X12204467Y-12813984D02*
X12156848Y-12813984D01*
X12156848Y-12813984D02*
X12137801Y-12804460D01*
X12137801Y-12804460D02*
X12128277Y-12785412D01*
X12128277Y-12785412D02*
X12128277Y-12766365D01*
X12128277Y-12766365D02*
X12137801Y-12747317D01*
X12137801Y-12747317D02*
X12156848Y-12737793D01*
X12156848Y-12737793D02*
X12204467Y-12737793D01*
X12204467Y-12737793D02*
X12223515Y-12728269D01*
X12318753Y-12680650D02*
X12318753Y-12880650D01*
X12318753Y-12690174D02*
X12337801Y-12680650D01*
X12337801Y-12680650D02*
X12375896Y-12680650D01*
X12375896Y-12680650D02*
X12394943Y-12690174D01*
X12394943Y-12690174D02*
X12404467Y-12699698D01*
X12404467Y-12699698D02*
X12413991Y-12718746D01*
X12413991Y-12718746D02*
X12413991Y-12775888D01*
X12413991Y-12775888D02*
X12404467Y-12794936D01*
X12404467Y-12794936D02*
X12394943Y-12804460D01*
X12394943Y-12804460D02*
X12375896Y-12813984D01*
X12375896Y-12813984D02*
X12337801Y-12813984D01*
X12337801Y-12813984D02*
X12318753Y-12804460D01*
X12499705Y-12794936D02*
X12509229Y-12804460D01*
X12509229Y-12804460D02*
X12499705Y-12813984D01*
X12499705Y-12813984D02*
X12490182Y-12804460D01*
X12490182Y-12804460D02*
X12499705Y-12794936D01*
X12499705Y-12794936D02*
X12499705Y-12813984D01*
X12499705Y-12690174D02*
X12509229Y-12699698D01*
X12509229Y-12699698D02*
X12499705Y-12709222D01*
X12499705Y-12709222D02*
X12490182Y-12699698D01*
X12490182Y-12699698D02*
X12499705Y-12690174D01*
X12499705Y-12690174D02*
X12499705Y-12709222D01*
D12*
X10837500Y-13127500D02*
X10867500Y-13157500D01*
X10867500Y-13127500D02*
X10837500Y-13157500D01*
D11*
X11166372Y-13033984D02*
X11185420Y-13033984D01*
X11185420Y-13033984D02*
X11204467Y-13043508D01*
X11204467Y-13043508D02*
X11213991Y-13053031D01*
X11213991Y-13053031D02*
X11223515Y-13072079D01*
X11223515Y-13072079D02*
X11233039Y-13110174D01*
X11233039Y-13110174D02*
X11233039Y-13157793D01*
X11233039Y-13157793D02*
X11223515Y-13195888D01*
X11223515Y-13195888D02*
X11213991Y-13214936D01*
X11213991Y-13214936D02*
X11204467Y-13224460D01*
X11204467Y-13224460D02*
X11185420Y-13233984D01*
X11185420Y-13233984D02*
X11166372Y-13233984D01*
X11166372Y-13233984D02*
X11147324Y-13224460D01*
X11147324Y-13224460D02*
X11137801Y-13214936D01*
X11137801Y-13214936D02*
X11128277Y-13195888D01*
X11128277Y-13195888D02*
X11118753Y-13157793D01*
X11118753Y-13157793D02*
X11118753Y-13110174D01*
X11118753Y-13110174D02*
X11128277Y-13072079D01*
X11128277Y-13072079D02*
X11137801Y-13053031D01*
X11137801Y-13053031D02*
X11147324Y-13043508D01*
X11147324Y-13043508D02*
X11166372Y-13033984D01*
X11318753Y-13214936D02*
X11328277Y-13224460D01*
X11328277Y-13224460D02*
X11318753Y-13233984D01*
X11318753Y-13233984D02*
X11309229Y-13224460D01*
X11309229Y-13224460D02*
X11318753Y-13214936D01*
X11318753Y-13214936D02*
X11318753Y-13233984D01*
X11394943Y-13033984D02*
X11518753Y-13033984D01*
X11518753Y-13033984D02*
X11452086Y-13110174D01*
X11452086Y-13110174D02*
X11480658Y-13110174D01*
X11480658Y-13110174D02*
X11499705Y-13119698D01*
X11499705Y-13119698D02*
X11509229Y-13129222D01*
X11509229Y-13129222D02*
X11518753Y-13148269D01*
X11518753Y-13148269D02*
X11518753Y-13195888D01*
X11518753Y-13195888D02*
X11509229Y-13214936D01*
X11509229Y-13214936D02*
X11499705Y-13224460D01*
X11499705Y-13224460D02*
X11480658Y-13233984D01*
X11480658Y-13233984D02*
X11423515Y-13233984D01*
X11423515Y-13233984D02*
X11404467Y-13224460D01*
X11404467Y-13224460D02*
X11394943Y-13214936D01*
X11642562Y-13033984D02*
X11661610Y-13033984D01*
X11661610Y-13033984D02*
X11680658Y-13043508D01*
X11680658Y-13043508D02*
X11690182Y-13053031D01*
X11690182Y-13053031D02*
X11699705Y-13072079D01*
X11699705Y-13072079D02*
X11709229Y-13110174D01*
X11709229Y-13110174D02*
X11709229Y-13157793D01*
X11709229Y-13157793D02*
X11699705Y-13195888D01*
X11699705Y-13195888D02*
X11690182Y-13214936D01*
X11690182Y-13214936D02*
X11680658Y-13224460D01*
X11680658Y-13224460D02*
X11661610Y-13233984D01*
X11661610Y-13233984D02*
X11642562Y-13233984D01*
X11642562Y-13233984D02*
X11623515Y-13224460D01*
X11623515Y-13224460D02*
X11613991Y-13214936D01*
X11613991Y-13214936D02*
X11604467Y-13195888D01*
X11604467Y-13195888D02*
X11594943Y-13157793D01*
X11594943Y-13157793D02*
X11594943Y-13110174D01*
X11594943Y-13110174D02*
X11604467Y-13072079D01*
X11604467Y-13072079D02*
X11613991Y-13053031D01*
X11613991Y-13053031D02*
X11623515Y-13043508D01*
X11623515Y-13043508D02*
X11642562Y-13033984D01*
X11833039Y-13033984D02*
X11852086Y-13033984D01*
X11852086Y-13033984D02*
X11871134Y-13043508D01*
X11871134Y-13043508D02*
X11880658Y-13053031D01*
X11880658Y-13053031D02*
X11890182Y-13072079D01*
X11890182Y-13072079D02*
X11899705Y-13110174D01*
X11899705Y-13110174D02*
X11899705Y-13157793D01*
X11899705Y-13157793D02*
X11890182Y-13195888D01*
X11890182Y-13195888D02*
X11880658Y-13214936D01*
X11880658Y-13214936D02*
X11871134Y-13224460D01*
X11871134Y-13224460D02*
X11852086Y-13233984D01*
X11852086Y-13233984D02*
X11833039Y-13233984D01*
X11833039Y-13233984D02*
X11813991Y-13224460D01*
X11813991Y-13224460D02*
X11804467Y-13214936D01*
X11804467Y-13214936D02*
X11794943Y-13195888D01*
X11794943Y-13195888D02*
X11785420Y-13157793D01*
X11785420Y-13157793D02*
X11785420Y-13110174D01*
X11785420Y-13110174D02*
X11794943Y-13072079D01*
X11794943Y-13072079D02*
X11804467Y-13053031D01*
X11804467Y-13053031D02*
X11813991Y-13043508D01*
X11813991Y-13043508D02*
X11833039Y-13033984D01*
X11985420Y-13233984D02*
X11985420Y-13100650D01*
X11985420Y-13119698D02*
X11994943Y-13110174D01*
X11994943Y-13110174D02*
X12013991Y-13100650D01*
X12013991Y-13100650D02*
X12042563Y-13100650D01*
X12042563Y-13100650D02*
X12061610Y-13110174D01*
X12061610Y-13110174D02*
X12071134Y-13129222D01*
X12071134Y-13129222D02*
X12071134Y-13233984D01*
X12071134Y-13129222D02*
X12080658Y-13110174D01*
X12080658Y-13110174D02*
X12099705Y-13100650D01*
X12099705Y-13100650D02*
X12128277Y-13100650D01*
X12128277Y-13100650D02*
X12147324Y-13110174D01*
X12147324Y-13110174D02*
X12156848Y-13129222D01*
X12156848Y-13129222D02*
X12156848Y-13233984D01*
X12252086Y-13233984D02*
X12252086Y-13100650D01*
X12252086Y-13119698D02*
X12261610Y-13110174D01*
X12261610Y-13110174D02*
X12280658Y-13100650D01*
X12280658Y-13100650D02*
X12309229Y-13100650D01*
X12309229Y-13100650D02*
X12328277Y-13110174D01*
X12328277Y-13110174D02*
X12337801Y-13129222D01*
X12337801Y-13129222D02*
X12337801Y-13233984D01*
X12337801Y-13129222D02*
X12347324Y-13110174D01*
X12347324Y-13110174D02*
X12366372Y-13100650D01*
X12366372Y-13100650D02*
X12394943Y-13100650D01*
X12394943Y-13100650D02*
X12413991Y-13110174D01*
X12413991Y-13110174D02*
X12423515Y-13129222D01*
X12423515Y-13129222D02*
X12423515Y-13233984D01*
X12813991Y-13024460D02*
X12642563Y-13281603D01*
X13071134Y-13033984D02*
X13090182Y-13033984D01*
X13090182Y-13033984D02*
X13109229Y-13043508D01*
X13109229Y-13043508D02*
X13118753Y-13053031D01*
X13118753Y-13053031D02*
X13128277Y-13072079D01*
X13128277Y-13072079D02*
X13137801Y-13110174D01*
X13137801Y-13110174D02*
X13137801Y-13157793D01*
X13137801Y-13157793D02*
X13128277Y-13195888D01*
X13128277Y-13195888D02*
X13118753Y-13214936D01*
X13118753Y-13214936D02*
X13109229Y-13224460D01*
X13109229Y-13224460D02*
X13090182Y-13233984D01*
X13090182Y-13233984D02*
X13071134Y-13233984D01*
X13071134Y-13233984D02*
X13052086Y-13224460D01*
X13052086Y-13224460D02*
X13042563Y-13214936D01*
X13042563Y-13214936D02*
X13033039Y-13195888D01*
X13033039Y-13195888D02*
X13023515Y-13157793D01*
X13023515Y-13157793D02*
X13023515Y-13110174D01*
X13023515Y-13110174D02*
X13033039Y-13072079D01*
X13033039Y-13072079D02*
X13042563Y-13053031D01*
X13042563Y-13053031D02*
X13052086Y-13043508D01*
X13052086Y-13043508D02*
X13071134Y-13033984D01*
X13223515Y-13214936D02*
X13233039Y-13224460D01*
X13233039Y-13224460D02*
X13223515Y-13233984D01*
X13223515Y-13233984D02*
X13213991Y-13224460D01*
X13213991Y-13224460D02*
X13223515Y-13214936D01*
X13223515Y-13214936D02*
X13223515Y-13233984D01*
X13356848Y-13033984D02*
X13375896Y-13033984D01*
X13375896Y-13033984D02*
X13394944Y-13043508D01*
X13394944Y-13043508D02*
X13404467Y-13053031D01*
X13404467Y-13053031D02*
X13413991Y-13072079D01*
X13413991Y-13072079D02*
X13423515Y-13110174D01*
X13423515Y-13110174D02*
X13423515Y-13157793D01*
X13423515Y-13157793D02*
X13413991Y-13195888D01*
X13413991Y-13195888D02*
X13404467Y-13214936D01*
X13404467Y-13214936D02*
X13394944Y-13224460D01*
X13394944Y-13224460D02*
X13375896Y-13233984D01*
X13375896Y-13233984D02*
X13356848Y-13233984D01*
X13356848Y-13233984D02*
X13337801Y-13224460D01*
X13337801Y-13224460D02*
X13328277Y-13214936D01*
X13328277Y-13214936D02*
X13318753Y-13195888D01*
X13318753Y-13195888D02*
X13309229Y-13157793D01*
X13309229Y-13157793D02*
X13309229Y-13110174D01*
X13309229Y-13110174D02*
X13318753Y-13072079D01*
X13318753Y-13072079D02*
X13328277Y-13053031D01*
X13328277Y-13053031D02*
X13337801Y-13043508D01*
X13337801Y-13043508D02*
X13356848Y-13033984D01*
X13613991Y-13233984D02*
X13499706Y-13233984D01*
X13556848Y-13233984D02*
X13556848Y-13033984D01*
X13556848Y-13033984D02*
X13537801Y-13062555D01*
X13537801Y-13062555D02*
X13518753Y-13081603D01*
X13518753Y-13081603D02*
X13499706Y-13091127D01*
X13804467Y-13233984D02*
X13690182Y-13233984D01*
X13747325Y-13233984D02*
X13747325Y-13033984D01*
X13747325Y-13033984D02*
X13728277Y-13062555D01*
X13728277Y-13062555D02*
X13709229Y-13081603D01*
X13709229Y-13081603D02*
X13690182Y-13091127D01*
X13918753Y-13119698D02*
X13899706Y-13110174D01*
X13899706Y-13110174D02*
X13890182Y-13100650D01*
X13890182Y-13100650D02*
X13880658Y-13081603D01*
X13880658Y-13081603D02*
X13880658Y-13072079D01*
X13880658Y-13072079D02*
X13890182Y-13053031D01*
X13890182Y-13053031D02*
X13899706Y-13043508D01*
X13899706Y-13043508D02*
X13918753Y-13033984D01*
X13918753Y-13033984D02*
X13956848Y-13033984D01*
X13956848Y-13033984D02*
X13975896Y-13043508D01*
X13975896Y-13043508D02*
X13985420Y-13053031D01*
X13985420Y-13053031D02*
X13994944Y-13072079D01*
X13994944Y-13072079D02*
X13994944Y-13081603D01*
X13994944Y-13081603D02*
X13985420Y-13100650D01*
X13985420Y-13100650D02*
X13975896Y-13110174D01*
X13975896Y-13110174D02*
X13956848Y-13119698D01*
X13956848Y-13119698D02*
X13918753Y-13119698D01*
X13918753Y-13119698D02*
X13899706Y-13129222D01*
X13899706Y-13129222D02*
X13890182Y-13138746D01*
X13890182Y-13138746D02*
X13880658Y-13157793D01*
X13880658Y-13157793D02*
X13880658Y-13195888D01*
X13880658Y-13195888D02*
X13890182Y-13214936D01*
X13890182Y-13214936D02*
X13899706Y-13224460D01*
X13899706Y-13224460D02*
X13918753Y-13233984D01*
X13918753Y-13233984D02*
X13956848Y-13233984D01*
X13956848Y-13233984D02*
X13975896Y-13224460D01*
X13975896Y-13224460D02*
X13985420Y-13214936D01*
X13985420Y-13214936D02*
X13994944Y-13195888D01*
X13994944Y-13195888D02*
X13994944Y-13157793D01*
X13994944Y-13157793D02*
X13985420Y-13138746D01*
X13985420Y-13138746D02*
X13975896Y-13129222D01*
X13975896Y-13129222D02*
X13956848Y-13119698D01*
X14071134Y-13033984D02*
X14071134Y-13072079D01*
X14147325Y-13033984D02*
X14147325Y-13072079D01*
X14442563Y-13310174D02*
X14433039Y-13300650D01*
X14433039Y-13300650D02*
X14413991Y-13272079D01*
X14413991Y-13272079D02*
X14404468Y-13253031D01*
X14404468Y-13253031D02*
X14394944Y-13224460D01*
X14394944Y-13224460D02*
X14385420Y-13176841D01*
X14385420Y-13176841D02*
X14385420Y-13138746D01*
X14385420Y-13138746D02*
X14394944Y-13091127D01*
X14394944Y-13091127D02*
X14404468Y-13062555D01*
X14404468Y-13062555D02*
X14413991Y-13043508D01*
X14413991Y-13043508D02*
X14433039Y-13014936D01*
X14433039Y-13014936D02*
X14442563Y-13005412D01*
X14604468Y-13100650D02*
X14604468Y-13233984D01*
X14556848Y-13024460D02*
X14509229Y-13167317D01*
X14509229Y-13167317D02*
X14633039Y-13167317D01*
X14690182Y-13033984D02*
X14813991Y-13033984D01*
X14813991Y-13033984D02*
X14747325Y-13110174D01*
X14747325Y-13110174D02*
X14775896Y-13110174D01*
X14775896Y-13110174D02*
X14794944Y-13119698D01*
X14794944Y-13119698D02*
X14804468Y-13129222D01*
X14804468Y-13129222D02*
X14813991Y-13148269D01*
X14813991Y-13148269D02*
X14813991Y-13195888D01*
X14813991Y-13195888D02*
X14804468Y-13214936D01*
X14804468Y-13214936D02*
X14794944Y-13224460D01*
X14794944Y-13224460D02*
X14775896Y-13233984D01*
X14775896Y-13233984D02*
X14718753Y-13233984D01*
X14718753Y-13233984D02*
X14699706Y-13224460D01*
X14699706Y-13224460D02*
X14690182Y-13214936D01*
X15052087Y-13233984D02*
X15052087Y-13033984D01*
X15137801Y-13233984D02*
X15137801Y-13129222D01*
X15137801Y-13129222D02*
X15128277Y-13110174D01*
X15128277Y-13110174D02*
X15109230Y-13100650D01*
X15109230Y-13100650D02*
X15080658Y-13100650D01*
X15080658Y-13100650D02*
X15061610Y-13110174D01*
X15061610Y-13110174D02*
X15052087Y-13119698D01*
X15261610Y-13233984D02*
X15242563Y-13224460D01*
X15242563Y-13224460D02*
X15233039Y-13214936D01*
X15233039Y-13214936D02*
X15223515Y-13195888D01*
X15223515Y-13195888D02*
X15223515Y-13138746D01*
X15223515Y-13138746D02*
X15233039Y-13119698D01*
X15233039Y-13119698D02*
X15242563Y-13110174D01*
X15242563Y-13110174D02*
X15261610Y-13100650D01*
X15261610Y-13100650D02*
X15290182Y-13100650D01*
X15290182Y-13100650D02*
X15309230Y-13110174D01*
X15309230Y-13110174D02*
X15318753Y-13119698D01*
X15318753Y-13119698D02*
X15328277Y-13138746D01*
X15328277Y-13138746D02*
X15328277Y-13195888D01*
X15328277Y-13195888D02*
X15318753Y-13214936D01*
X15318753Y-13214936D02*
X15309230Y-13224460D01*
X15309230Y-13224460D02*
X15290182Y-13233984D01*
X15290182Y-13233984D02*
X15261610Y-13233984D01*
X15442563Y-13233984D02*
X15423515Y-13224460D01*
X15423515Y-13224460D02*
X15413991Y-13205412D01*
X15413991Y-13205412D02*
X15413991Y-13033984D01*
X15594944Y-13224460D02*
X15575896Y-13233984D01*
X15575896Y-13233984D02*
X15537801Y-13233984D01*
X15537801Y-13233984D02*
X15518753Y-13224460D01*
X15518753Y-13224460D02*
X15509230Y-13205412D01*
X15509230Y-13205412D02*
X15509230Y-13129222D01*
X15509230Y-13129222D02*
X15518753Y-13110174D01*
X15518753Y-13110174D02*
X15537801Y-13100650D01*
X15537801Y-13100650D02*
X15575896Y-13100650D01*
X15575896Y-13100650D02*
X15594944Y-13110174D01*
X15594944Y-13110174D02*
X15604468Y-13129222D01*
X15604468Y-13129222D02*
X15604468Y-13148269D01*
X15604468Y-13148269D02*
X15509230Y-13167317D01*
X15680658Y-13224460D02*
X15699706Y-13233984D01*
X15699706Y-13233984D02*
X15737801Y-13233984D01*
X15737801Y-13233984D02*
X15756849Y-13224460D01*
X15756849Y-13224460D02*
X15766372Y-13205412D01*
X15766372Y-13205412D02*
X15766372Y-13195888D01*
X15766372Y-13195888D02*
X15756849Y-13176841D01*
X15756849Y-13176841D02*
X15737801Y-13167317D01*
X15737801Y-13167317D02*
X15709230Y-13167317D01*
X15709230Y-13167317D02*
X15690182Y-13157793D01*
X15690182Y-13157793D02*
X15680658Y-13138746D01*
X15680658Y-13138746D02*
X15680658Y-13129222D01*
X15680658Y-13129222D02*
X15690182Y-13110174D01*
X15690182Y-13110174D02*
X15709230Y-13100650D01*
X15709230Y-13100650D02*
X15737801Y-13100650D01*
X15737801Y-13100650D02*
X15756849Y-13110174D01*
X15833039Y-13310174D02*
X15842563Y-13300650D01*
X15842563Y-13300650D02*
X15861611Y-13272079D01*
X15861611Y-13272079D02*
X15871134Y-13253031D01*
X15871134Y-13253031D02*
X15880658Y-13224460D01*
X15880658Y-13224460D02*
X15890182Y-13176841D01*
X15890182Y-13176841D02*
X15890182Y-13138746D01*
X15890182Y-13138746D02*
X15880658Y-13091127D01*
X15880658Y-13091127D02*
X15871134Y-13062555D01*
X15871134Y-13062555D02*
X15861611Y-13043508D01*
X15861611Y-13043508D02*
X15842563Y-13014936D01*
X15842563Y-13014936D02*
X15833039Y-13005412D01*
D12*
X10867500Y-13406500D02*
G75*
G02*
X10837500Y-13406500I-15000J0D01*
G01*
X10837500Y-13406500D02*
G75*
G02*
X10867500Y-13406500I15000J0D01*
G01*
D11*
X11166372Y-13297984D02*
X11185420Y-13297984D01*
X11185420Y-13297984D02*
X11204467Y-13307508D01*
X11204467Y-13307508D02*
X11213991Y-13317031D01*
X11213991Y-13317031D02*
X11223515Y-13336079D01*
X11223515Y-13336079D02*
X11233039Y-13374174D01*
X11233039Y-13374174D02*
X11233039Y-13421793D01*
X11233039Y-13421793D02*
X11223515Y-13459888D01*
X11223515Y-13459888D02*
X11213991Y-13478936D01*
X11213991Y-13478936D02*
X11204467Y-13488460D01*
X11204467Y-13488460D02*
X11185420Y-13497984D01*
X11185420Y-13497984D02*
X11166372Y-13497984D01*
X11166372Y-13497984D02*
X11147324Y-13488460D01*
X11147324Y-13488460D02*
X11137801Y-13478936D01*
X11137801Y-13478936D02*
X11128277Y-13459888D01*
X11128277Y-13459888D02*
X11118753Y-13421793D01*
X11118753Y-13421793D02*
X11118753Y-13374174D01*
X11118753Y-13374174D02*
X11128277Y-13336079D01*
X11128277Y-13336079D02*
X11137801Y-13317031D01*
X11137801Y-13317031D02*
X11147324Y-13307508D01*
X11147324Y-13307508D02*
X11166372Y-13297984D01*
X11318753Y-13478936D02*
X11328277Y-13488460D01*
X11328277Y-13488460D02*
X11318753Y-13497984D01*
X11318753Y-13497984D02*
X11309229Y-13488460D01*
X11309229Y-13488460D02*
X11318753Y-13478936D01*
X11318753Y-13478936D02*
X11318753Y-13497984D01*
X11394943Y-13297984D02*
X11518753Y-13297984D01*
X11518753Y-13297984D02*
X11452086Y-13374174D01*
X11452086Y-13374174D02*
X11480658Y-13374174D01*
X11480658Y-13374174D02*
X11499705Y-13383698D01*
X11499705Y-13383698D02*
X11509229Y-13393222D01*
X11509229Y-13393222D02*
X11518753Y-13412269D01*
X11518753Y-13412269D02*
X11518753Y-13459888D01*
X11518753Y-13459888D02*
X11509229Y-13478936D01*
X11509229Y-13478936D02*
X11499705Y-13488460D01*
X11499705Y-13488460D02*
X11480658Y-13497984D01*
X11480658Y-13497984D02*
X11423515Y-13497984D01*
X11423515Y-13497984D02*
X11404467Y-13488460D01*
X11404467Y-13488460D02*
X11394943Y-13478936D01*
X11642562Y-13297984D02*
X11661610Y-13297984D01*
X11661610Y-13297984D02*
X11680658Y-13307508D01*
X11680658Y-13307508D02*
X11690182Y-13317031D01*
X11690182Y-13317031D02*
X11699705Y-13336079D01*
X11699705Y-13336079D02*
X11709229Y-13374174D01*
X11709229Y-13374174D02*
X11709229Y-13421793D01*
X11709229Y-13421793D02*
X11699705Y-13459888D01*
X11699705Y-13459888D02*
X11690182Y-13478936D01*
X11690182Y-13478936D02*
X11680658Y-13488460D01*
X11680658Y-13488460D02*
X11661610Y-13497984D01*
X11661610Y-13497984D02*
X11642562Y-13497984D01*
X11642562Y-13497984D02*
X11623515Y-13488460D01*
X11623515Y-13488460D02*
X11613991Y-13478936D01*
X11613991Y-13478936D02*
X11604467Y-13459888D01*
X11604467Y-13459888D02*
X11594943Y-13421793D01*
X11594943Y-13421793D02*
X11594943Y-13374174D01*
X11594943Y-13374174D02*
X11604467Y-13336079D01*
X11604467Y-13336079D02*
X11613991Y-13317031D01*
X11613991Y-13317031D02*
X11623515Y-13307508D01*
X11623515Y-13307508D02*
X11642562Y-13297984D01*
X11833039Y-13297984D02*
X11852086Y-13297984D01*
X11852086Y-13297984D02*
X11871134Y-13307508D01*
X11871134Y-13307508D02*
X11880658Y-13317031D01*
X11880658Y-13317031D02*
X11890182Y-13336079D01*
X11890182Y-13336079D02*
X11899705Y-13374174D01*
X11899705Y-13374174D02*
X11899705Y-13421793D01*
X11899705Y-13421793D02*
X11890182Y-13459888D01*
X11890182Y-13459888D02*
X11880658Y-13478936D01*
X11880658Y-13478936D02*
X11871134Y-13488460D01*
X11871134Y-13488460D02*
X11852086Y-13497984D01*
X11852086Y-13497984D02*
X11833039Y-13497984D01*
X11833039Y-13497984D02*
X11813991Y-13488460D01*
X11813991Y-13488460D02*
X11804467Y-13478936D01*
X11804467Y-13478936D02*
X11794943Y-13459888D01*
X11794943Y-13459888D02*
X11785420Y-13421793D01*
X11785420Y-13421793D02*
X11785420Y-13374174D01*
X11785420Y-13374174D02*
X11794943Y-13336079D01*
X11794943Y-13336079D02*
X11804467Y-13317031D01*
X11804467Y-13317031D02*
X11813991Y-13307508D01*
X11813991Y-13307508D02*
X11833039Y-13297984D01*
X11985420Y-13497984D02*
X11985420Y-13364650D01*
X11985420Y-13383698D02*
X11994943Y-13374174D01*
X11994943Y-13374174D02*
X12013991Y-13364650D01*
X12013991Y-13364650D02*
X12042563Y-13364650D01*
X12042563Y-13364650D02*
X12061610Y-13374174D01*
X12061610Y-13374174D02*
X12071134Y-13393222D01*
X12071134Y-13393222D02*
X12071134Y-13497984D01*
X12071134Y-13393222D02*
X12080658Y-13374174D01*
X12080658Y-13374174D02*
X12099705Y-13364650D01*
X12099705Y-13364650D02*
X12128277Y-13364650D01*
X12128277Y-13364650D02*
X12147324Y-13374174D01*
X12147324Y-13374174D02*
X12156848Y-13393222D01*
X12156848Y-13393222D02*
X12156848Y-13497984D01*
X12252086Y-13497984D02*
X12252086Y-13364650D01*
X12252086Y-13383698D02*
X12261610Y-13374174D01*
X12261610Y-13374174D02*
X12280658Y-13364650D01*
X12280658Y-13364650D02*
X12309229Y-13364650D01*
X12309229Y-13364650D02*
X12328277Y-13374174D01*
X12328277Y-13374174D02*
X12337801Y-13393222D01*
X12337801Y-13393222D02*
X12337801Y-13497984D01*
X12337801Y-13393222D02*
X12347324Y-13374174D01*
X12347324Y-13374174D02*
X12366372Y-13364650D01*
X12366372Y-13364650D02*
X12394943Y-13364650D01*
X12394943Y-13364650D02*
X12413991Y-13374174D01*
X12413991Y-13374174D02*
X12423515Y-13393222D01*
X12423515Y-13393222D02*
X12423515Y-13497984D01*
X12813991Y-13288460D02*
X12642563Y-13545603D01*
X13071134Y-13297984D02*
X13090182Y-13297984D01*
X13090182Y-13297984D02*
X13109229Y-13307508D01*
X13109229Y-13307508D02*
X13118753Y-13317031D01*
X13118753Y-13317031D02*
X13128277Y-13336079D01*
X13128277Y-13336079D02*
X13137801Y-13374174D01*
X13137801Y-13374174D02*
X13137801Y-13421793D01*
X13137801Y-13421793D02*
X13128277Y-13459888D01*
X13128277Y-13459888D02*
X13118753Y-13478936D01*
X13118753Y-13478936D02*
X13109229Y-13488460D01*
X13109229Y-13488460D02*
X13090182Y-13497984D01*
X13090182Y-13497984D02*
X13071134Y-13497984D01*
X13071134Y-13497984D02*
X13052086Y-13488460D01*
X13052086Y-13488460D02*
X13042563Y-13478936D01*
X13042563Y-13478936D02*
X13033039Y-13459888D01*
X13033039Y-13459888D02*
X13023515Y-13421793D01*
X13023515Y-13421793D02*
X13023515Y-13374174D01*
X13023515Y-13374174D02*
X13033039Y-13336079D01*
X13033039Y-13336079D02*
X13042563Y-13317031D01*
X13042563Y-13317031D02*
X13052086Y-13307508D01*
X13052086Y-13307508D02*
X13071134Y-13297984D01*
X13223515Y-13478936D02*
X13233039Y-13488460D01*
X13233039Y-13488460D02*
X13223515Y-13497984D01*
X13223515Y-13497984D02*
X13213991Y-13488460D01*
X13213991Y-13488460D02*
X13223515Y-13478936D01*
X13223515Y-13478936D02*
X13223515Y-13497984D01*
X13356848Y-13297984D02*
X13375896Y-13297984D01*
X13375896Y-13297984D02*
X13394944Y-13307508D01*
X13394944Y-13307508D02*
X13404467Y-13317031D01*
X13404467Y-13317031D02*
X13413991Y-13336079D01*
X13413991Y-13336079D02*
X13423515Y-13374174D01*
X13423515Y-13374174D02*
X13423515Y-13421793D01*
X13423515Y-13421793D02*
X13413991Y-13459888D01*
X13413991Y-13459888D02*
X13404467Y-13478936D01*
X13404467Y-13478936D02*
X13394944Y-13488460D01*
X13394944Y-13488460D02*
X13375896Y-13497984D01*
X13375896Y-13497984D02*
X13356848Y-13497984D01*
X13356848Y-13497984D02*
X13337801Y-13488460D01*
X13337801Y-13488460D02*
X13328277Y-13478936D01*
X13328277Y-13478936D02*
X13318753Y-13459888D01*
X13318753Y-13459888D02*
X13309229Y-13421793D01*
X13309229Y-13421793D02*
X13309229Y-13374174D01*
X13309229Y-13374174D02*
X13318753Y-13336079D01*
X13318753Y-13336079D02*
X13328277Y-13317031D01*
X13328277Y-13317031D02*
X13337801Y-13307508D01*
X13337801Y-13307508D02*
X13356848Y-13297984D01*
X13613991Y-13497984D02*
X13499706Y-13497984D01*
X13556848Y-13497984D02*
X13556848Y-13297984D01*
X13556848Y-13297984D02*
X13537801Y-13326555D01*
X13537801Y-13326555D02*
X13518753Y-13345603D01*
X13518753Y-13345603D02*
X13499706Y-13355127D01*
X13804467Y-13497984D02*
X13690182Y-13497984D01*
X13747325Y-13497984D02*
X13747325Y-13297984D01*
X13747325Y-13297984D02*
X13728277Y-13326555D01*
X13728277Y-13326555D02*
X13709229Y-13345603D01*
X13709229Y-13345603D02*
X13690182Y-13355127D01*
X13918753Y-13383698D02*
X13899706Y-13374174D01*
X13899706Y-13374174D02*
X13890182Y-13364650D01*
X13890182Y-13364650D02*
X13880658Y-13345603D01*
X13880658Y-13345603D02*
X13880658Y-13336079D01*
X13880658Y-13336079D02*
X13890182Y-13317031D01*
X13890182Y-13317031D02*
X13899706Y-13307508D01*
X13899706Y-13307508D02*
X13918753Y-13297984D01*
X13918753Y-13297984D02*
X13956848Y-13297984D01*
X13956848Y-13297984D02*
X13975896Y-13307508D01*
X13975896Y-13307508D02*
X13985420Y-13317031D01*
X13985420Y-13317031D02*
X13994944Y-13336079D01*
X13994944Y-13336079D02*
X13994944Y-13345603D01*
X13994944Y-13345603D02*
X13985420Y-13364650D01*
X13985420Y-13364650D02*
X13975896Y-13374174D01*
X13975896Y-13374174D02*
X13956848Y-13383698D01*
X13956848Y-13383698D02*
X13918753Y-13383698D01*
X13918753Y-13383698D02*
X13899706Y-13393222D01*
X13899706Y-13393222D02*
X13890182Y-13402746D01*
X13890182Y-13402746D02*
X13880658Y-13421793D01*
X13880658Y-13421793D02*
X13880658Y-13459888D01*
X13880658Y-13459888D02*
X13890182Y-13478936D01*
X13890182Y-13478936D02*
X13899706Y-13488460D01*
X13899706Y-13488460D02*
X13918753Y-13497984D01*
X13918753Y-13497984D02*
X13956848Y-13497984D01*
X13956848Y-13497984D02*
X13975896Y-13488460D01*
X13975896Y-13488460D02*
X13985420Y-13478936D01*
X13985420Y-13478936D02*
X13994944Y-13459888D01*
X13994944Y-13459888D02*
X13994944Y-13421793D01*
X13994944Y-13421793D02*
X13985420Y-13402746D01*
X13985420Y-13402746D02*
X13975896Y-13393222D01*
X13975896Y-13393222D02*
X13956848Y-13383698D01*
X14071134Y-13297984D02*
X14071134Y-13336079D01*
X14147325Y-13297984D02*
X14147325Y-13336079D01*
X14442563Y-13574174D02*
X14433039Y-13564650D01*
X14433039Y-13564650D02*
X14413991Y-13536079D01*
X14413991Y-13536079D02*
X14404468Y-13517031D01*
X14404468Y-13517031D02*
X14394944Y-13488460D01*
X14394944Y-13488460D02*
X14385420Y-13440841D01*
X14385420Y-13440841D02*
X14385420Y-13402746D01*
X14385420Y-13402746D02*
X14394944Y-13355127D01*
X14394944Y-13355127D02*
X14404468Y-13326555D01*
X14404468Y-13326555D02*
X14413991Y-13307508D01*
X14413991Y-13307508D02*
X14433039Y-13278936D01*
X14433039Y-13278936D02*
X14442563Y-13269412D01*
X14623515Y-13497984D02*
X14509229Y-13497984D01*
X14566372Y-13497984D02*
X14566372Y-13297984D01*
X14566372Y-13297984D02*
X14547325Y-13326555D01*
X14547325Y-13326555D02*
X14528277Y-13345603D01*
X14528277Y-13345603D02*
X14509229Y-13355127D01*
X14747325Y-13297984D02*
X14766372Y-13297984D01*
X14766372Y-13297984D02*
X14785420Y-13307508D01*
X14785420Y-13307508D02*
X14794944Y-13317031D01*
X14794944Y-13317031D02*
X14804468Y-13336079D01*
X14804468Y-13336079D02*
X14813991Y-13374174D01*
X14813991Y-13374174D02*
X14813991Y-13421793D01*
X14813991Y-13421793D02*
X14804468Y-13459888D01*
X14804468Y-13459888D02*
X14794944Y-13478936D01*
X14794944Y-13478936D02*
X14785420Y-13488460D01*
X14785420Y-13488460D02*
X14766372Y-13497984D01*
X14766372Y-13497984D02*
X14747325Y-13497984D01*
X14747325Y-13497984D02*
X14728277Y-13488460D01*
X14728277Y-13488460D02*
X14718753Y-13478936D01*
X14718753Y-13478936D02*
X14709229Y-13459888D01*
X14709229Y-13459888D02*
X14699706Y-13421793D01*
X14699706Y-13421793D02*
X14699706Y-13374174D01*
X14699706Y-13374174D02*
X14709229Y-13336079D01*
X14709229Y-13336079D02*
X14718753Y-13317031D01*
X14718753Y-13317031D02*
X14728277Y-13307508D01*
X14728277Y-13307508D02*
X14747325Y-13297984D01*
X15052087Y-13497984D02*
X15052087Y-13297984D01*
X15137801Y-13497984D02*
X15137801Y-13393222D01*
X15137801Y-13393222D02*
X15128277Y-13374174D01*
X15128277Y-13374174D02*
X15109230Y-13364650D01*
X15109230Y-13364650D02*
X15080658Y-13364650D01*
X15080658Y-13364650D02*
X15061610Y-13374174D01*
X15061610Y-13374174D02*
X15052087Y-13383698D01*
X15261610Y-13497984D02*
X15242563Y-13488460D01*
X15242563Y-13488460D02*
X15233039Y-13478936D01*
X15233039Y-13478936D02*
X15223515Y-13459888D01*
X15223515Y-13459888D02*
X15223515Y-13402746D01*
X15223515Y-13402746D02*
X15233039Y-13383698D01*
X15233039Y-13383698D02*
X15242563Y-13374174D01*
X15242563Y-13374174D02*
X15261610Y-13364650D01*
X15261610Y-13364650D02*
X15290182Y-13364650D01*
X15290182Y-13364650D02*
X15309230Y-13374174D01*
X15309230Y-13374174D02*
X15318753Y-13383698D01*
X15318753Y-13383698D02*
X15328277Y-13402746D01*
X15328277Y-13402746D02*
X15328277Y-13459888D01*
X15328277Y-13459888D02*
X15318753Y-13478936D01*
X15318753Y-13478936D02*
X15309230Y-13488460D01*
X15309230Y-13488460D02*
X15290182Y-13497984D01*
X15290182Y-13497984D02*
X15261610Y-13497984D01*
X15442563Y-13497984D02*
X15423515Y-13488460D01*
X15423515Y-13488460D02*
X15413991Y-13469412D01*
X15413991Y-13469412D02*
X15413991Y-13297984D01*
X15594944Y-13488460D02*
X15575896Y-13497984D01*
X15575896Y-13497984D02*
X15537801Y-13497984D01*
X15537801Y-13497984D02*
X15518753Y-13488460D01*
X15518753Y-13488460D02*
X15509230Y-13469412D01*
X15509230Y-13469412D02*
X15509230Y-13393222D01*
X15509230Y-13393222D02*
X15518753Y-13374174D01*
X15518753Y-13374174D02*
X15537801Y-13364650D01*
X15537801Y-13364650D02*
X15575896Y-13364650D01*
X15575896Y-13364650D02*
X15594944Y-13374174D01*
X15594944Y-13374174D02*
X15604468Y-13393222D01*
X15604468Y-13393222D02*
X15604468Y-13412269D01*
X15604468Y-13412269D02*
X15509230Y-13431317D01*
X15680658Y-13488460D02*
X15699706Y-13497984D01*
X15699706Y-13497984D02*
X15737801Y-13497984D01*
X15737801Y-13497984D02*
X15756849Y-13488460D01*
X15756849Y-13488460D02*
X15766372Y-13469412D01*
X15766372Y-13469412D02*
X15766372Y-13459888D01*
X15766372Y-13459888D02*
X15756849Y-13440841D01*
X15756849Y-13440841D02*
X15737801Y-13431317D01*
X15737801Y-13431317D02*
X15709230Y-13431317D01*
X15709230Y-13431317D02*
X15690182Y-13421793D01*
X15690182Y-13421793D02*
X15680658Y-13402746D01*
X15680658Y-13402746D02*
X15680658Y-13393222D01*
X15680658Y-13393222D02*
X15690182Y-13374174D01*
X15690182Y-13374174D02*
X15709230Y-13364650D01*
X15709230Y-13364650D02*
X15737801Y-13364650D01*
X15737801Y-13364650D02*
X15756849Y-13374174D01*
X15833039Y-13574174D02*
X15842563Y-13564650D01*
X15842563Y-13564650D02*
X15861611Y-13536079D01*
X15861611Y-13536079D02*
X15871134Y-13517031D01*
X15871134Y-13517031D02*
X15880658Y-13488460D01*
X15880658Y-13488460D02*
X15890182Y-13440841D01*
X15890182Y-13440841D02*
X15890182Y-13402746D01*
X15890182Y-13402746D02*
X15880658Y-13355127D01*
X15880658Y-13355127D02*
X15871134Y-13326555D01*
X15871134Y-13326555D02*
X15861611Y-13307508D01*
X15861611Y-13307508D02*
X15842563Y-13278936D01*
X15842563Y-13278936D02*
X15833039Y-13269412D01*
D12*
X10847500Y-13650500D02*
X10847500Y-13690500D01*
X10827500Y-13670500D02*
X10867500Y-13670500D01*
D11*
X11166372Y-13561984D02*
X11185420Y-13561984D01*
X11185420Y-13561984D02*
X11204467Y-13571508D01*
X11204467Y-13571508D02*
X11213991Y-13581031D01*
X11213991Y-13581031D02*
X11223515Y-13600079D01*
X11223515Y-13600079D02*
X11233039Y-13638174D01*
X11233039Y-13638174D02*
X11233039Y-13685793D01*
X11233039Y-13685793D02*
X11223515Y-13723888D01*
X11223515Y-13723888D02*
X11213991Y-13742936D01*
X11213991Y-13742936D02*
X11204467Y-13752460D01*
X11204467Y-13752460D02*
X11185420Y-13761984D01*
X11185420Y-13761984D02*
X11166372Y-13761984D01*
X11166372Y-13761984D02*
X11147324Y-13752460D01*
X11147324Y-13752460D02*
X11137801Y-13742936D01*
X11137801Y-13742936D02*
X11128277Y-13723888D01*
X11128277Y-13723888D02*
X11118753Y-13685793D01*
X11118753Y-13685793D02*
X11118753Y-13638174D01*
X11118753Y-13638174D02*
X11128277Y-13600079D01*
X11128277Y-13600079D02*
X11137801Y-13581031D01*
X11137801Y-13581031D02*
X11147324Y-13571508D01*
X11147324Y-13571508D02*
X11166372Y-13561984D01*
X11318753Y-13742936D02*
X11328277Y-13752460D01*
X11328277Y-13752460D02*
X11318753Y-13761984D01*
X11318753Y-13761984D02*
X11309229Y-13752460D01*
X11309229Y-13752460D02*
X11318753Y-13742936D01*
X11318753Y-13742936D02*
X11318753Y-13761984D01*
X11499705Y-13628650D02*
X11499705Y-13761984D01*
X11452086Y-13552460D02*
X11404467Y-13695317D01*
X11404467Y-13695317D02*
X11528277Y-13695317D01*
X11642562Y-13561984D02*
X11661610Y-13561984D01*
X11661610Y-13561984D02*
X11680658Y-13571508D01*
X11680658Y-13571508D02*
X11690182Y-13581031D01*
X11690182Y-13581031D02*
X11699705Y-13600079D01*
X11699705Y-13600079D02*
X11709229Y-13638174D01*
X11709229Y-13638174D02*
X11709229Y-13685793D01*
X11709229Y-13685793D02*
X11699705Y-13723888D01*
X11699705Y-13723888D02*
X11690182Y-13742936D01*
X11690182Y-13742936D02*
X11680658Y-13752460D01*
X11680658Y-13752460D02*
X11661610Y-13761984D01*
X11661610Y-13761984D02*
X11642562Y-13761984D01*
X11642562Y-13761984D02*
X11623515Y-13752460D01*
X11623515Y-13752460D02*
X11613991Y-13742936D01*
X11613991Y-13742936D02*
X11604467Y-13723888D01*
X11604467Y-13723888D02*
X11594943Y-13685793D01*
X11594943Y-13685793D02*
X11594943Y-13638174D01*
X11594943Y-13638174D02*
X11604467Y-13600079D01*
X11604467Y-13600079D02*
X11613991Y-13581031D01*
X11613991Y-13581031D02*
X11623515Y-13571508D01*
X11623515Y-13571508D02*
X11642562Y-13561984D01*
X11833039Y-13561984D02*
X11852086Y-13561984D01*
X11852086Y-13561984D02*
X11871134Y-13571508D01*
X11871134Y-13571508D02*
X11880658Y-13581031D01*
X11880658Y-13581031D02*
X11890182Y-13600079D01*
X11890182Y-13600079D02*
X11899705Y-13638174D01*
X11899705Y-13638174D02*
X11899705Y-13685793D01*
X11899705Y-13685793D02*
X11890182Y-13723888D01*
X11890182Y-13723888D02*
X11880658Y-13742936D01*
X11880658Y-13742936D02*
X11871134Y-13752460D01*
X11871134Y-13752460D02*
X11852086Y-13761984D01*
X11852086Y-13761984D02*
X11833039Y-13761984D01*
X11833039Y-13761984D02*
X11813991Y-13752460D01*
X11813991Y-13752460D02*
X11804467Y-13742936D01*
X11804467Y-13742936D02*
X11794943Y-13723888D01*
X11794943Y-13723888D02*
X11785420Y-13685793D01*
X11785420Y-13685793D02*
X11785420Y-13638174D01*
X11785420Y-13638174D02*
X11794943Y-13600079D01*
X11794943Y-13600079D02*
X11804467Y-13581031D01*
X11804467Y-13581031D02*
X11813991Y-13571508D01*
X11813991Y-13571508D02*
X11833039Y-13561984D01*
X11985420Y-13761984D02*
X11985420Y-13628650D01*
X11985420Y-13647698D02*
X11994943Y-13638174D01*
X11994943Y-13638174D02*
X12013991Y-13628650D01*
X12013991Y-13628650D02*
X12042563Y-13628650D01*
X12042563Y-13628650D02*
X12061610Y-13638174D01*
X12061610Y-13638174D02*
X12071134Y-13657222D01*
X12071134Y-13657222D02*
X12071134Y-13761984D01*
X12071134Y-13657222D02*
X12080658Y-13638174D01*
X12080658Y-13638174D02*
X12099705Y-13628650D01*
X12099705Y-13628650D02*
X12128277Y-13628650D01*
X12128277Y-13628650D02*
X12147324Y-13638174D01*
X12147324Y-13638174D02*
X12156848Y-13657222D01*
X12156848Y-13657222D02*
X12156848Y-13761984D01*
X12252086Y-13761984D02*
X12252086Y-13628650D01*
X12252086Y-13647698D02*
X12261610Y-13638174D01*
X12261610Y-13638174D02*
X12280658Y-13628650D01*
X12280658Y-13628650D02*
X12309229Y-13628650D01*
X12309229Y-13628650D02*
X12328277Y-13638174D01*
X12328277Y-13638174D02*
X12337801Y-13657222D01*
X12337801Y-13657222D02*
X12337801Y-13761984D01*
X12337801Y-13657222D02*
X12347324Y-13638174D01*
X12347324Y-13638174D02*
X12366372Y-13628650D01*
X12366372Y-13628650D02*
X12394943Y-13628650D01*
X12394943Y-13628650D02*
X12413991Y-13638174D01*
X12413991Y-13638174D02*
X12423515Y-13657222D01*
X12423515Y-13657222D02*
X12423515Y-13761984D01*
X12813991Y-13552460D02*
X12642563Y-13809603D01*
X13071134Y-13561984D02*
X13090182Y-13561984D01*
X13090182Y-13561984D02*
X13109229Y-13571508D01*
X13109229Y-13571508D02*
X13118753Y-13581031D01*
X13118753Y-13581031D02*
X13128277Y-13600079D01*
X13128277Y-13600079D02*
X13137801Y-13638174D01*
X13137801Y-13638174D02*
X13137801Y-13685793D01*
X13137801Y-13685793D02*
X13128277Y-13723888D01*
X13128277Y-13723888D02*
X13118753Y-13742936D01*
X13118753Y-13742936D02*
X13109229Y-13752460D01*
X13109229Y-13752460D02*
X13090182Y-13761984D01*
X13090182Y-13761984D02*
X13071134Y-13761984D01*
X13071134Y-13761984D02*
X13052086Y-13752460D01*
X13052086Y-13752460D02*
X13042563Y-13742936D01*
X13042563Y-13742936D02*
X13033039Y-13723888D01*
X13033039Y-13723888D02*
X13023515Y-13685793D01*
X13023515Y-13685793D02*
X13023515Y-13638174D01*
X13023515Y-13638174D02*
X13033039Y-13600079D01*
X13033039Y-13600079D02*
X13042563Y-13581031D01*
X13042563Y-13581031D02*
X13052086Y-13571508D01*
X13052086Y-13571508D02*
X13071134Y-13561984D01*
X13223515Y-13742936D02*
X13233039Y-13752460D01*
X13233039Y-13752460D02*
X13223515Y-13761984D01*
X13223515Y-13761984D02*
X13213991Y-13752460D01*
X13213991Y-13752460D02*
X13223515Y-13742936D01*
X13223515Y-13742936D02*
X13223515Y-13761984D01*
X13356848Y-13561984D02*
X13375896Y-13561984D01*
X13375896Y-13561984D02*
X13394944Y-13571508D01*
X13394944Y-13571508D02*
X13404467Y-13581031D01*
X13404467Y-13581031D02*
X13413991Y-13600079D01*
X13413991Y-13600079D02*
X13423515Y-13638174D01*
X13423515Y-13638174D02*
X13423515Y-13685793D01*
X13423515Y-13685793D02*
X13413991Y-13723888D01*
X13413991Y-13723888D02*
X13404467Y-13742936D01*
X13404467Y-13742936D02*
X13394944Y-13752460D01*
X13394944Y-13752460D02*
X13375896Y-13761984D01*
X13375896Y-13761984D02*
X13356848Y-13761984D01*
X13356848Y-13761984D02*
X13337801Y-13752460D01*
X13337801Y-13752460D02*
X13328277Y-13742936D01*
X13328277Y-13742936D02*
X13318753Y-13723888D01*
X13318753Y-13723888D02*
X13309229Y-13685793D01*
X13309229Y-13685793D02*
X13309229Y-13638174D01*
X13309229Y-13638174D02*
X13318753Y-13600079D01*
X13318753Y-13600079D02*
X13328277Y-13581031D01*
X13328277Y-13581031D02*
X13337801Y-13571508D01*
X13337801Y-13571508D02*
X13356848Y-13561984D01*
X13613991Y-13761984D02*
X13499706Y-13761984D01*
X13556848Y-13761984D02*
X13556848Y-13561984D01*
X13556848Y-13561984D02*
X13537801Y-13590555D01*
X13537801Y-13590555D02*
X13518753Y-13609603D01*
X13518753Y-13609603D02*
X13499706Y-13619127D01*
X13794944Y-13561984D02*
X13699706Y-13561984D01*
X13699706Y-13561984D02*
X13690182Y-13657222D01*
X13690182Y-13657222D02*
X13699706Y-13647698D01*
X13699706Y-13647698D02*
X13718753Y-13638174D01*
X13718753Y-13638174D02*
X13766372Y-13638174D01*
X13766372Y-13638174D02*
X13785420Y-13647698D01*
X13785420Y-13647698D02*
X13794944Y-13657222D01*
X13794944Y-13657222D02*
X13804467Y-13676269D01*
X13804467Y-13676269D02*
X13804467Y-13723888D01*
X13804467Y-13723888D02*
X13794944Y-13742936D01*
X13794944Y-13742936D02*
X13785420Y-13752460D01*
X13785420Y-13752460D02*
X13766372Y-13761984D01*
X13766372Y-13761984D02*
X13718753Y-13761984D01*
X13718753Y-13761984D02*
X13699706Y-13752460D01*
X13699706Y-13752460D02*
X13690182Y-13742936D01*
X13871134Y-13561984D02*
X14004467Y-13561984D01*
X14004467Y-13561984D02*
X13918753Y-13761984D01*
X14071134Y-13561984D02*
X14071134Y-13600079D01*
X14147325Y-13561984D02*
X14147325Y-13600079D01*
X14442563Y-13838174D02*
X14433039Y-13828650D01*
X14433039Y-13828650D02*
X14413991Y-13800079D01*
X14413991Y-13800079D02*
X14404468Y-13781031D01*
X14404468Y-13781031D02*
X14394944Y-13752460D01*
X14394944Y-13752460D02*
X14385420Y-13704841D01*
X14385420Y-13704841D02*
X14385420Y-13666746D01*
X14385420Y-13666746D02*
X14394944Y-13619127D01*
X14394944Y-13619127D02*
X14404468Y-13590555D01*
X14404468Y-13590555D02*
X14413991Y-13571508D01*
X14413991Y-13571508D02*
X14433039Y-13542936D01*
X14433039Y-13542936D02*
X14442563Y-13533412D01*
X14499706Y-13561984D02*
X14623515Y-13561984D01*
X14623515Y-13561984D02*
X14556848Y-13638174D01*
X14556848Y-13638174D02*
X14585420Y-13638174D01*
X14585420Y-13638174D02*
X14604468Y-13647698D01*
X14604468Y-13647698D02*
X14613991Y-13657222D01*
X14613991Y-13657222D02*
X14623515Y-13676269D01*
X14623515Y-13676269D02*
X14623515Y-13723888D01*
X14623515Y-13723888D02*
X14613991Y-13742936D01*
X14613991Y-13742936D02*
X14604468Y-13752460D01*
X14604468Y-13752460D02*
X14585420Y-13761984D01*
X14585420Y-13761984D02*
X14528277Y-13761984D01*
X14528277Y-13761984D02*
X14509229Y-13752460D01*
X14509229Y-13752460D02*
X14499706Y-13742936D01*
X14718753Y-13761984D02*
X14756848Y-13761984D01*
X14756848Y-13761984D02*
X14775896Y-13752460D01*
X14775896Y-13752460D02*
X14785420Y-13742936D01*
X14785420Y-13742936D02*
X14804468Y-13714365D01*
X14804468Y-13714365D02*
X14813991Y-13676269D01*
X14813991Y-13676269D02*
X14813991Y-13600079D01*
X14813991Y-13600079D02*
X14804468Y-13581031D01*
X14804468Y-13581031D02*
X14794944Y-13571508D01*
X14794944Y-13571508D02*
X14775896Y-13561984D01*
X14775896Y-13561984D02*
X14737801Y-13561984D01*
X14737801Y-13561984D02*
X14718753Y-13571508D01*
X14718753Y-13571508D02*
X14709229Y-13581031D01*
X14709229Y-13581031D02*
X14699706Y-13600079D01*
X14699706Y-13600079D02*
X14699706Y-13647698D01*
X14699706Y-13647698D02*
X14709229Y-13666746D01*
X14709229Y-13666746D02*
X14718753Y-13676269D01*
X14718753Y-13676269D02*
X14737801Y-13685793D01*
X14737801Y-13685793D02*
X14775896Y-13685793D01*
X14775896Y-13685793D02*
X14794944Y-13676269D01*
X14794944Y-13676269D02*
X14804468Y-13666746D01*
X14804468Y-13666746D02*
X14813991Y-13647698D01*
X14880658Y-13561984D02*
X15004468Y-13561984D01*
X15004468Y-13561984D02*
X14937801Y-13638174D01*
X14937801Y-13638174D02*
X14966372Y-13638174D01*
X14966372Y-13638174D02*
X14985420Y-13647698D01*
X14985420Y-13647698D02*
X14994944Y-13657222D01*
X14994944Y-13657222D02*
X15004468Y-13676269D01*
X15004468Y-13676269D02*
X15004468Y-13723888D01*
X15004468Y-13723888D02*
X14994944Y-13742936D01*
X14994944Y-13742936D02*
X14985420Y-13752460D01*
X14985420Y-13752460D02*
X14966372Y-13761984D01*
X14966372Y-13761984D02*
X14909229Y-13761984D01*
X14909229Y-13761984D02*
X14890182Y-13752460D01*
X14890182Y-13752460D02*
X14880658Y-13742936D01*
X15242563Y-13761984D02*
X15242563Y-13561984D01*
X15328277Y-13761984D02*
X15328277Y-13657222D01*
X15328277Y-13657222D02*
X15318753Y-13638174D01*
X15318753Y-13638174D02*
X15299706Y-13628650D01*
X15299706Y-13628650D02*
X15271134Y-13628650D01*
X15271134Y-13628650D02*
X15252087Y-13638174D01*
X15252087Y-13638174D02*
X15242563Y-13647698D01*
X15452087Y-13761984D02*
X15433039Y-13752460D01*
X15433039Y-13752460D02*
X15423515Y-13742936D01*
X15423515Y-13742936D02*
X15413991Y-13723888D01*
X15413991Y-13723888D02*
X15413991Y-13666746D01*
X15413991Y-13666746D02*
X15423515Y-13647698D01*
X15423515Y-13647698D02*
X15433039Y-13638174D01*
X15433039Y-13638174D02*
X15452087Y-13628650D01*
X15452087Y-13628650D02*
X15480658Y-13628650D01*
X15480658Y-13628650D02*
X15499706Y-13638174D01*
X15499706Y-13638174D02*
X15509230Y-13647698D01*
X15509230Y-13647698D02*
X15518753Y-13666746D01*
X15518753Y-13666746D02*
X15518753Y-13723888D01*
X15518753Y-13723888D02*
X15509230Y-13742936D01*
X15509230Y-13742936D02*
X15499706Y-13752460D01*
X15499706Y-13752460D02*
X15480658Y-13761984D01*
X15480658Y-13761984D02*
X15452087Y-13761984D01*
X15633039Y-13761984D02*
X15613991Y-13752460D01*
X15613991Y-13752460D02*
X15604468Y-13733412D01*
X15604468Y-13733412D02*
X15604468Y-13561984D01*
X15785420Y-13752460D02*
X15766372Y-13761984D01*
X15766372Y-13761984D02*
X15728277Y-13761984D01*
X15728277Y-13761984D02*
X15709230Y-13752460D01*
X15709230Y-13752460D02*
X15699706Y-13733412D01*
X15699706Y-13733412D02*
X15699706Y-13657222D01*
X15699706Y-13657222D02*
X15709230Y-13638174D01*
X15709230Y-13638174D02*
X15728277Y-13628650D01*
X15728277Y-13628650D02*
X15766372Y-13628650D01*
X15766372Y-13628650D02*
X15785420Y-13638174D01*
X15785420Y-13638174D02*
X15794944Y-13657222D01*
X15794944Y-13657222D02*
X15794944Y-13676269D01*
X15794944Y-13676269D02*
X15699706Y-13695317D01*
X15871134Y-13752460D02*
X15890182Y-13761984D01*
X15890182Y-13761984D02*
X15928277Y-13761984D01*
X15928277Y-13761984D02*
X15947325Y-13752460D01*
X15947325Y-13752460D02*
X15956849Y-13733412D01*
X15956849Y-13733412D02*
X15956849Y-13723888D01*
X15956849Y-13723888D02*
X15947325Y-13704841D01*
X15947325Y-13704841D02*
X15928277Y-13695317D01*
X15928277Y-13695317D02*
X15899706Y-13695317D01*
X15899706Y-13695317D02*
X15880658Y-13685793D01*
X15880658Y-13685793D02*
X15871134Y-13666746D01*
X15871134Y-13666746D02*
X15871134Y-13657222D01*
X15871134Y-13657222D02*
X15880658Y-13638174D01*
X15880658Y-13638174D02*
X15899706Y-13628650D01*
X15899706Y-13628650D02*
X15928277Y-13628650D01*
X15928277Y-13628650D02*
X15947325Y-13638174D01*
X16023515Y-13838174D02*
X16033039Y-13828650D01*
X16033039Y-13828650D02*
X16052087Y-13800079D01*
X16052087Y-13800079D02*
X16061611Y-13781031D01*
X16061611Y-13781031D02*
X16071134Y-13752460D01*
X16071134Y-13752460D02*
X16080658Y-13704841D01*
X16080658Y-13704841D02*
X16080658Y-13666746D01*
X16080658Y-13666746D02*
X16071134Y-13619127D01*
X16071134Y-13619127D02*
X16061611Y-13590555D01*
X16061611Y-13590555D02*
X16052087Y-13571508D01*
X16052087Y-13571508D02*
X16033039Y-13542936D01*
X16033039Y-13542936D02*
X16023515Y-13533412D01*
D12*
X10861642Y-13948642D02*
X10861642Y-13920358D01*
X10833358Y-13920358D01*
X10833358Y-13948642D01*
X10861642Y-13948642D01*
D11*
X11166372Y-13825984D02*
X11185420Y-13825984D01*
X11185420Y-13825984D02*
X11204467Y-13835508D01*
X11204467Y-13835508D02*
X11213991Y-13845031D01*
X11213991Y-13845031D02*
X11223515Y-13864079D01*
X11223515Y-13864079D02*
X11233039Y-13902174D01*
X11233039Y-13902174D02*
X11233039Y-13949793D01*
X11233039Y-13949793D02*
X11223515Y-13987888D01*
X11223515Y-13987888D02*
X11213991Y-14006936D01*
X11213991Y-14006936D02*
X11204467Y-14016460D01*
X11204467Y-14016460D02*
X11185420Y-14025984D01*
X11185420Y-14025984D02*
X11166372Y-14025984D01*
X11166372Y-14025984D02*
X11147324Y-14016460D01*
X11147324Y-14016460D02*
X11137801Y-14006936D01*
X11137801Y-14006936D02*
X11128277Y-13987888D01*
X11128277Y-13987888D02*
X11118753Y-13949793D01*
X11118753Y-13949793D02*
X11118753Y-13902174D01*
X11118753Y-13902174D02*
X11128277Y-13864079D01*
X11128277Y-13864079D02*
X11137801Y-13845031D01*
X11137801Y-13845031D02*
X11147324Y-13835508D01*
X11147324Y-13835508D02*
X11166372Y-13825984D01*
X11318753Y-14006936D02*
X11328277Y-14016460D01*
X11328277Y-14016460D02*
X11318753Y-14025984D01*
X11318753Y-14025984D02*
X11309229Y-14016460D01*
X11309229Y-14016460D02*
X11318753Y-14006936D01*
X11318753Y-14006936D02*
X11318753Y-14025984D01*
X11499705Y-13892650D02*
X11499705Y-14025984D01*
X11452086Y-13816460D02*
X11404467Y-13959317D01*
X11404467Y-13959317D02*
X11528277Y-13959317D01*
X11642562Y-13825984D02*
X11661610Y-13825984D01*
X11661610Y-13825984D02*
X11680658Y-13835508D01*
X11680658Y-13835508D02*
X11690182Y-13845031D01*
X11690182Y-13845031D02*
X11699705Y-13864079D01*
X11699705Y-13864079D02*
X11709229Y-13902174D01*
X11709229Y-13902174D02*
X11709229Y-13949793D01*
X11709229Y-13949793D02*
X11699705Y-13987888D01*
X11699705Y-13987888D02*
X11690182Y-14006936D01*
X11690182Y-14006936D02*
X11680658Y-14016460D01*
X11680658Y-14016460D02*
X11661610Y-14025984D01*
X11661610Y-14025984D02*
X11642562Y-14025984D01*
X11642562Y-14025984D02*
X11623515Y-14016460D01*
X11623515Y-14016460D02*
X11613991Y-14006936D01*
X11613991Y-14006936D02*
X11604467Y-13987888D01*
X11604467Y-13987888D02*
X11594943Y-13949793D01*
X11594943Y-13949793D02*
X11594943Y-13902174D01*
X11594943Y-13902174D02*
X11604467Y-13864079D01*
X11604467Y-13864079D02*
X11613991Y-13845031D01*
X11613991Y-13845031D02*
X11623515Y-13835508D01*
X11623515Y-13835508D02*
X11642562Y-13825984D01*
X11833039Y-13825984D02*
X11852086Y-13825984D01*
X11852086Y-13825984D02*
X11871134Y-13835508D01*
X11871134Y-13835508D02*
X11880658Y-13845031D01*
X11880658Y-13845031D02*
X11890182Y-13864079D01*
X11890182Y-13864079D02*
X11899705Y-13902174D01*
X11899705Y-13902174D02*
X11899705Y-13949793D01*
X11899705Y-13949793D02*
X11890182Y-13987888D01*
X11890182Y-13987888D02*
X11880658Y-14006936D01*
X11880658Y-14006936D02*
X11871134Y-14016460D01*
X11871134Y-14016460D02*
X11852086Y-14025984D01*
X11852086Y-14025984D02*
X11833039Y-14025984D01*
X11833039Y-14025984D02*
X11813991Y-14016460D01*
X11813991Y-14016460D02*
X11804467Y-14006936D01*
X11804467Y-14006936D02*
X11794943Y-13987888D01*
X11794943Y-13987888D02*
X11785420Y-13949793D01*
X11785420Y-13949793D02*
X11785420Y-13902174D01*
X11785420Y-13902174D02*
X11794943Y-13864079D01*
X11794943Y-13864079D02*
X11804467Y-13845031D01*
X11804467Y-13845031D02*
X11813991Y-13835508D01*
X11813991Y-13835508D02*
X11833039Y-13825984D01*
X11985420Y-14025984D02*
X11985420Y-13892650D01*
X11985420Y-13911698D02*
X11994943Y-13902174D01*
X11994943Y-13902174D02*
X12013991Y-13892650D01*
X12013991Y-13892650D02*
X12042563Y-13892650D01*
X12042563Y-13892650D02*
X12061610Y-13902174D01*
X12061610Y-13902174D02*
X12071134Y-13921222D01*
X12071134Y-13921222D02*
X12071134Y-14025984D01*
X12071134Y-13921222D02*
X12080658Y-13902174D01*
X12080658Y-13902174D02*
X12099705Y-13892650D01*
X12099705Y-13892650D02*
X12128277Y-13892650D01*
X12128277Y-13892650D02*
X12147324Y-13902174D01*
X12147324Y-13902174D02*
X12156848Y-13921222D01*
X12156848Y-13921222D02*
X12156848Y-14025984D01*
X12252086Y-14025984D02*
X12252086Y-13892650D01*
X12252086Y-13911698D02*
X12261610Y-13902174D01*
X12261610Y-13902174D02*
X12280658Y-13892650D01*
X12280658Y-13892650D02*
X12309229Y-13892650D01*
X12309229Y-13892650D02*
X12328277Y-13902174D01*
X12328277Y-13902174D02*
X12337801Y-13921222D01*
X12337801Y-13921222D02*
X12337801Y-14025984D01*
X12337801Y-13921222D02*
X12347324Y-13902174D01*
X12347324Y-13902174D02*
X12366372Y-13892650D01*
X12366372Y-13892650D02*
X12394943Y-13892650D01*
X12394943Y-13892650D02*
X12413991Y-13902174D01*
X12413991Y-13902174D02*
X12423515Y-13921222D01*
X12423515Y-13921222D02*
X12423515Y-14025984D01*
X12813991Y-13816460D02*
X12642563Y-14073603D01*
X13071134Y-13825984D02*
X13090182Y-13825984D01*
X13090182Y-13825984D02*
X13109229Y-13835508D01*
X13109229Y-13835508D02*
X13118753Y-13845031D01*
X13118753Y-13845031D02*
X13128277Y-13864079D01*
X13128277Y-13864079D02*
X13137801Y-13902174D01*
X13137801Y-13902174D02*
X13137801Y-13949793D01*
X13137801Y-13949793D02*
X13128277Y-13987888D01*
X13128277Y-13987888D02*
X13118753Y-14006936D01*
X13118753Y-14006936D02*
X13109229Y-14016460D01*
X13109229Y-14016460D02*
X13090182Y-14025984D01*
X13090182Y-14025984D02*
X13071134Y-14025984D01*
X13071134Y-14025984D02*
X13052086Y-14016460D01*
X13052086Y-14016460D02*
X13042563Y-14006936D01*
X13042563Y-14006936D02*
X13033039Y-13987888D01*
X13033039Y-13987888D02*
X13023515Y-13949793D01*
X13023515Y-13949793D02*
X13023515Y-13902174D01*
X13023515Y-13902174D02*
X13033039Y-13864079D01*
X13033039Y-13864079D02*
X13042563Y-13845031D01*
X13042563Y-13845031D02*
X13052086Y-13835508D01*
X13052086Y-13835508D02*
X13071134Y-13825984D01*
X13223515Y-14006936D02*
X13233039Y-14016460D01*
X13233039Y-14016460D02*
X13223515Y-14025984D01*
X13223515Y-14025984D02*
X13213991Y-14016460D01*
X13213991Y-14016460D02*
X13223515Y-14006936D01*
X13223515Y-14006936D02*
X13223515Y-14025984D01*
X13356848Y-13825984D02*
X13375896Y-13825984D01*
X13375896Y-13825984D02*
X13394944Y-13835508D01*
X13394944Y-13835508D02*
X13404467Y-13845031D01*
X13404467Y-13845031D02*
X13413991Y-13864079D01*
X13413991Y-13864079D02*
X13423515Y-13902174D01*
X13423515Y-13902174D02*
X13423515Y-13949793D01*
X13423515Y-13949793D02*
X13413991Y-13987888D01*
X13413991Y-13987888D02*
X13404467Y-14006936D01*
X13404467Y-14006936D02*
X13394944Y-14016460D01*
X13394944Y-14016460D02*
X13375896Y-14025984D01*
X13375896Y-14025984D02*
X13356848Y-14025984D01*
X13356848Y-14025984D02*
X13337801Y-14016460D01*
X13337801Y-14016460D02*
X13328277Y-14006936D01*
X13328277Y-14006936D02*
X13318753Y-13987888D01*
X13318753Y-13987888D02*
X13309229Y-13949793D01*
X13309229Y-13949793D02*
X13309229Y-13902174D01*
X13309229Y-13902174D02*
X13318753Y-13864079D01*
X13318753Y-13864079D02*
X13328277Y-13845031D01*
X13328277Y-13845031D02*
X13337801Y-13835508D01*
X13337801Y-13835508D02*
X13356848Y-13825984D01*
X13613991Y-14025984D02*
X13499706Y-14025984D01*
X13556848Y-14025984D02*
X13556848Y-13825984D01*
X13556848Y-13825984D02*
X13537801Y-13854555D01*
X13537801Y-13854555D02*
X13518753Y-13873603D01*
X13518753Y-13873603D02*
X13499706Y-13883127D01*
X13794944Y-13825984D02*
X13699706Y-13825984D01*
X13699706Y-13825984D02*
X13690182Y-13921222D01*
X13690182Y-13921222D02*
X13699706Y-13911698D01*
X13699706Y-13911698D02*
X13718753Y-13902174D01*
X13718753Y-13902174D02*
X13766372Y-13902174D01*
X13766372Y-13902174D02*
X13785420Y-13911698D01*
X13785420Y-13911698D02*
X13794944Y-13921222D01*
X13794944Y-13921222D02*
X13804467Y-13940269D01*
X13804467Y-13940269D02*
X13804467Y-13987888D01*
X13804467Y-13987888D02*
X13794944Y-14006936D01*
X13794944Y-14006936D02*
X13785420Y-14016460D01*
X13785420Y-14016460D02*
X13766372Y-14025984D01*
X13766372Y-14025984D02*
X13718753Y-14025984D01*
X13718753Y-14025984D02*
X13699706Y-14016460D01*
X13699706Y-14016460D02*
X13690182Y-14006936D01*
X13871134Y-13825984D02*
X14004467Y-13825984D01*
X14004467Y-13825984D02*
X13918753Y-14025984D01*
X14071134Y-13825984D02*
X14071134Y-13864079D01*
X14147325Y-13825984D02*
X14147325Y-13864079D01*
X14442563Y-14102174D02*
X14433039Y-14092650D01*
X14433039Y-14092650D02*
X14413991Y-14064079D01*
X14413991Y-14064079D02*
X14404468Y-14045031D01*
X14404468Y-14045031D02*
X14394944Y-14016460D01*
X14394944Y-14016460D02*
X14385420Y-13968841D01*
X14385420Y-13968841D02*
X14385420Y-13930746D01*
X14385420Y-13930746D02*
X14394944Y-13883127D01*
X14394944Y-13883127D02*
X14404468Y-13854555D01*
X14404468Y-13854555D02*
X14413991Y-13835508D01*
X14413991Y-13835508D02*
X14433039Y-13806936D01*
X14433039Y-13806936D02*
X14442563Y-13797412D01*
X14613991Y-13825984D02*
X14518753Y-13825984D01*
X14518753Y-13825984D02*
X14509229Y-13921222D01*
X14509229Y-13921222D02*
X14518753Y-13911698D01*
X14518753Y-13911698D02*
X14537801Y-13902174D01*
X14537801Y-13902174D02*
X14585420Y-13902174D01*
X14585420Y-13902174D02*
X14604468Y-13911698D01*
X14604468Y-13911698D02*
X14613991Y-13921222D01*
X14613991Y-13921222D02*
X14623515Y-13940269D01*
X14623515Y-13940269D02*
X14623515Y-13987888D01*
X14623515Y-13987888D02*
X14613991Y-14006936D01*
X14613991Y-14006936D02*
X14604468Y-14016460D01*
X14604468Y-14016460D02*
X14585420Y-14025984D01*
X14585420Y-14025984D02*
X14537801Y-14025984D01*
X14537801Y-14025984D02*
X14518753Y-14016460D01*
X14518753Y-14016460D02*
X14509229Y-14006936D01*
X14861610Y-14025984D02*
X14861610Y-13825984D01*
X14947325Y-14025984D02*
X14947325Y-13921222D01*
X14947325Y-13921222D02*
X14937801Y-13902174D01*
X14937801Y-13902174D02*
X14918753Y-13892650D01*
X14918753Y-13892650D02*
X14890182Y-13892650D01*
X14890182Y-13892650D02*
X14871134Y-13902174D01*
X14871134Y-13902174D02*
X14861610Y-13911698D01*
X15071134Y-14025984D02*
X15052087Y-14016460D01*
X15052087Y-14016460D02*
X15042563Y-14006936D01*
X15042563Y-14006936D02*
X15033039Y-13987888D01*
X15033039Y-13987888D02*
X15033039Y-13930746D01*
X15033039Y-13930746D02*
X15042563Y-13911698D01*
X15042563Y-13911698D02*
X15052087Y-13902174D01*
X15052087Y-13902174D02*
X15071134Y-13892650D01*
X15071134Y-13892650D02*
X15099706Y-13892650D01*
X15099706Y-13892650D02*
X15118753Y-13902174D01*
X15118753Y-13902174D02*
X15128277Y-13911698D01*
X15128277Y-13911698D02*
X15137801Y-13930746D01*
X15137801Y-13930746D02*
X15137801Y-13987888D01*
X15137801Y-13987888D02*
X15128277Y-14006936D01*
X15128277Y-14006936D02*
X15118753Y-14016460D01*
X15118753Y-14016460D02*
X15099706Y-14025984D01*
X15099706Y-14025984D02*
X15071134Y-14025984D01*
X15252087Y-14025984D02*
X15233039Y-14016460D01*
X15233039Y-14016460D02*
X15223515Y-13997412D01*
X15223515Y-13997412D02*
X15223515Y-13825984D01*
X15404468Y-14016460D02*
X15385420Y-14025984D01*
X15385420Y-14025984D02*
X15347325Y-14025984D01*
X15347325Y-14025984D02*
X15328277Y-14016460D01*
X15328277Y-14016460D02*
X15318753Y-13997412D01*
X15318753Y-13997412D02*
X15318753Y-13921222D01*
X15318753Y-13921222D02*
X15328277Y-13902174D01*
X15328277Y-13902174D02*
X15347325Y-13892650D01*
X15347325Y-13892650D02*
X15385420Y-13892650D01*
X15385420Y-13892650D02*
X15404468Y-13902174D01*
X15404468Y-13902174D02*
X15413991Y-13921222D01*
X15413991Y-13921222D02*
X15413991Y-13940269D01*
X15413991Y-13940269D02*
X15318753Y-13959317D01*
X15490182Y-14016460D02*
X15509230Y-14025984D01*
X15509230Y-14025984D02*
X15547325Y-14025984D01*
X15547325Y-14025984D02*
X15566372Y-14016460D01*
X15566372Y-14016460D02*
X15575896Y-13997412D01*
X15575896Y-13997412D02*
X15575896Y-13987888D01*
X15575896Y-13987888D02*
X15566372Y-13968841D01*
X15566372Y-13968841D02*
X15547325Y-13959317D01*
X15547325Y-13959317D02*
X15518753Y-13959317D01*
X15518753Y-13959317D02*
X15499706Y-13949793D01*
X15499706Y-13949793D02*
X15490182Y-13930746D01*
X15490182Y-13930746D02*
X15490182Y-13921222D01*
X15490182Y-13921222D02*
X15499706Y-13902174D01*
X15499706Y-13902174D02*
X15518753Y-13892650D01*
X15518753Y-13892650D02*
X15547325Y-13892650D01*
X15547325Y-13892650D02*
X15566372Y-13902174D01*
X15642563Y-14102174D02*
X15652087Y-14092650D01*
X15652087Y-14092650D02*
X15671134Y-14064079D01*
X15671134Y-14064079D02*
X15680658Y-14045031D01*
X15680658Y-14045031D02*
X15690182Y-14016460D01*
X15690182Y-14016460D02*
X15699706Y-13968841D01*
X15699706Y-13968841D02*
X15699706Y-13930746D01*
X15699706Y-13930746D02*
X15690182Y-13883127D01*
X15690182Y-13883127D02*
X15680658Y-13854555D01*
X15680658Y-13854555D02*
X15671134Y-13835508D01*
X15671134Y-13835508D02*
X15652087Y-13806936D01*
X15652087Y-13806936D02*
X15642563Y-13797412D01*
D12*
X10837500Y-14228500D02*
X10867500Y-14198500D01*
X10837500Y-14168500D01*
X10807500Y-14198500D01*
X10837500Y-14228500D01*
D11*
X11166372Y-14089984D02*
X11185420Y-14089984D01*
X11185420Y-14089984D02*
X11204467Y-14099508D01*
X11204467Y-14099508D02*
X11213991Y-14109031D01*
X11213991Y-14109031D02*
X11223515Y-14128079D01*
X11223515Y-14128079D02*
X11233039Y-14166174D01*
X11233039Y-14166174D02*
X11233039Y-14213793D01*
X11233039Y-14213793D02*
X11223515Y-14251888D01*
X11223515Y-14251888D02*
X11213991Y-14270936D01*
X11213991Y-14270936D02*
X11204467Y-14280460D01*
X11204467Y-14280460D02*
X11185420Y-14289984D01*
X11185420Y-14289984D02*
X11166372Y-14289984D01*
X11166372Y-14289984D02*
X11147324Y-14280460D01*
X11147324Y-14280460D02*
X11137801Y-14270936D01*
X11137801Y-14270936D02*
X11128277Y-14251888D01*
X11128277Y-14251888D02*
X11118753Y-14213793D01*
X11118753Y-14213793D02*
X11118753Y-14166174D01*
X11118753Y-14166174D02*
X11128277Y-14128079D01*
X11128277Y-14128079D02*
X11137801Y-14109031D01*
X11137801Y-14109031D02*
X11147324Y-14099508D01*
X11147324Y-14099508D02*
X11166372Y-14089984D01*
X11318753Y-14270936D02*
X11328277Y-14280460D01*
X11328277Y-14280460D02*
X11318753Y-14289984D01*
X11318753Y-14289984D02*
X11309229Y-14280460D01*
X11309229Y-14280460D02*
X11318753Y-14270936D01*
X11318753Y-14270936D02*
X11318753Y-14289984D01*
X11499705Y-14089984D02*
X11461610Y-14089984D01*
X11461610Y-14089984D02*
X11442562Y-14099508D01*
X11442562Y-14099508D02*
X11433039Y-14109031D01*
X11433039Y-14109031D02*
X11413991Y-14137603D01*
X11413991Y-14137603D02*
X11404467Y-14175698D01*
X11404467Y-14175698D02*
X11404467Y-14251888D01*
X11404467Y-14251888D02*
X11413991Y-14270936D01*
X11413991Y-14270936D02*
X11423515Y-14280460D01*
X11423515Y-14280460D02*
X11442562Y-14289984D01*
X11442562Y-14289984D02*
X11480658Y-14289984D01*
X11480658Y-14289984D02*
X11499705Y-14280460D01*
X11499705Y-14280460D02*
X11509229Y-14270936D01*
X11509229Y-14270936D02*
X11518753Y-14251888D01*
X11518753Y-14251888D02*
X11518753Y-14204269D01*
X11518753Y-14204269D02*
X11509229Y-14185222D01*
X11509229Y-14185222D02*
X11499705Y-14175698D01*
X11499705Y-14175698D02*
X11480658Y-14166174D01*
X11480658Y-14166174D02*
X11442562Y-14166174D01*
X11442562Y-14166174D02*
X11423515Y-14175698D01*
X11423515Y-14175698D02*
X11413991Y-14185222D01*
X11413991Y-14185222D02*
X11404467Y-14204269D01*
X11642562Y-14089984D02*
X11661610Y-14089984D01*
X11661610Y-14089984D02*
X11680658Y-14099508D01*
X11680658Y-14099508D02*
X11690182Y-14109031D01*
X11690182Y-14109031D02*
X11699705Y-14128079D01*
X11699705Y-14128079D02*
X11709229Y-14166174D01*
X11709229Y-14166174D02*
X11709229Y-14213793D01*
X11709229Y-14213793D02*
X11699705Y-14251888D01*
X11699705Y-14251888D02*
X11690182Y-14270936D01*
X11690182Y-14270936D02*
X11680658Y-14280460D01*
X11680658Y-14280460D02*
X11661610Y-14289984D01*
X11661610Y-14289984D02*
X11642562Y-14289984D01*
X11642562Y-14289984D02*
X11623515Y-14280460D01*
X11623515Y-14280460D02*
X11613991Y-14270936D01*
X11613991Y-14270936D02*
X11604467Y-14251888D01*
X11604467Y-14251888D02*
X11594943Y-14213793D01*
X11594943Y-14213793D02*
X11594943Y-14166174D01*
X11594943Y-14166174D02*
X11604467Y-14128079D01*
X11604467Y-14128079D02*
X11613991Y-14109031D01*
X11613991Y-14109031D02*
X11623515Y-14099508D01*
X11623515Y-14099508D02*
X11642562Y-14089984D01*
X11833039Y-14089984D02*
X11852086Y-14089984D01*
X11852086Y-14089984D02*
X11871134Y-14099508D01*
X11871134Y-14099508D02*
X11880658Y-14109031D01*
X11880658Y-14109031D02*
X11890182Y-14128079D01*
X11890182Y-14128079D02*
X11899705Y-14166174D01*
X11899705Y-14166174D02*
X11899705Y-14213793D01*
X11899705Y-14213793D02*
X11890182Y-14251888D01*
X11890182Y-14251888D02*
X11880658Y-14270936D01*
X11880658Y-14270936D02*
X11871134Y-14280460D01*
X11871134Y-14280460D02*
X11852086Y-14289984D01*
X11852086Y-14289984D02*
X11833039Y-14289984D01*
X11833039Y-14289984D02*
X11813991Y-14280460D01*
X11813991Y-14280460D02*
X11804467Y-14270936D01*
X11804467Y-14270936D02*
X11794943Y-14251888D01*
X11794943Y-14251888D02*
X11785420Y-14213793D01*
X11785420Y-14213793D02*
X11785420Y-14166174D01*
X11785420Y-14166174D02*
X11794943Y-14128079D01*
X11794943Y-14128079D02*
X11804467Y-14109031D01*
X11804467Y-14109031D02*
X11813991Y-14099508D01*
X11813991Y-14099508D02*
X11833039Y-14089984D01*
X11985420Y-14289984D02*
X11985420Y-14156650D01*
X11985420Y-14175698D02*
X11994943Y-14166174D01*
X11994943Y-14166174D02*
X12013991Y-14156650D01*
X12013991Y-14156650D02*
X12042563Y-14156650D01*
X12042563Y-14156650D02*
X12061610Y-14166174D01*
X12061610Y-14166174D02*
X12071134Y-14185222D01*
X12071134Y-14185222D02*
X12071134Y-14289984D01*
X12071134Y-14185222D02*
X12080658Y-14166174D01*
X12080658Y-14166174D02*
X12099705Y-14156650D01*
X12099705Y-14156650D02*
X12128277Y-14156650D01*
X12128277Y-14156650D02*
X12147324Y-14166174D01*
X12147324Y-14166174D02*
X12156848Y-14185222D01*
X12156848Y-14185222D02*
X12156848Y-14289984D01*
X12252086Y-14289984D02*
X12252086Y-14156650D01*
X12252086Y-14175698D02*
X12261610Y-14166174D01*
X12261610Y-14166174D02*
X12280658Y-14156650D01*
X12280658Y-14156650D02*
X12309229Y-14156650D01*
X12309229Y-14156650D02*
X12328277Y-14166174D01*
X12328277Y-14166174D02*
X12337801Y-14185222D01*
X12337801Y-14185222D02*
X12337801Y-14289984D01*
X12337801Y-14185222D02*
X12347324Y-14166174D01*
X12347324Y-14166174D02*
X12366372Y-14156650D01*
X12366372Y-14156650D02*
X12394943Y-14156650D01*
X12394943Y-14156650D02*
X12413991Y-14166174D01*
X12413991Y-14166174D02*
X12423515Y-14185222D01*
X12423515Y-14185222D02*
X12423515Y-14289984D01*
X12813991Y-14080460D02*
X12642563Y-14337603D01*
X13071134Y-14089984D02*
X13090182Y-14089984D01*
X13090182Y-14089984D02*
X13109229Y-14099508D01*
X13109229Y-14099508D02*
X13118753Y-14109031D01*
X13118753Y-14109031D02*
X13128277Y-14128079D01*
X13128277Y-14128079D02*
X13137801Y-14166174D01*
X13137801Y-14166174D02*
X13137801Y-14213793D01*
X13137801Y-14213793D02*
X13128277Y-14251888D01*
X13128277Y-14251888D02*
X13118753Y-14270936D01*
X13118753Y-14270936D02*
X13109229Y-14280460D01*
X13109229Y-14280460D02*
X13090182Y-14289984D01*
X13090182Y-14289984D02*
X13071134Y-14289984D01*
X13071134Y-14289984D02*
X13052086Y-14280460D01*
X13052086Y-14280460D02*
X13042563Y-14270936D01*
X13042563Y-14270936D02*
X13033039Y-14251888D01*
X13033039Y-14251888D02*
X13023515Y-14213793D01*
X13023515Y-14213793D02*
X13023515Y-14166174D01*
X13023515Y-14166174D02*
X13033039Y-14128079D01*
X13033039Y-14128079D02*
X13042563Y-14109031D01*
X13042563Y-14109031D02*
X13052086Y-14099508D01*
X13052086Y-14099508D02*
X13071134Y-14089984D01*
X13223515Y-14270936D02*
X13233039Y-14280460D01*
X13233039Y-14280460D02*
X13223515Y-14289984D01*
X13223515Y-14289984D02*
X13213991Y-14280460D01*
X13213991Y-14280460D02*
X13223515Y-14270936D01*
X13223515Y-14270936D02*
X13223515Y-14289984D01*
X13356848Y-14089984D02*
X13375896Y-14089984D01*
X13375896Y-14089984D02*
X13394944Y-14099508D01*
X13394944Y-14099508D02*
X13404467Y-14109031D01*
X13404467Y-14109031D02*
X13413991Y-14128079D01*
X13413991Y-14128079D02*
X13423515Y-14166174D01*
X13423515Y-14166174D02*
X13423515Y-14213793D01*
X13423515Y-14213793D02*
X13413991Y-14251888D01*
X13413991Y-14251888D02*
X13404467Y-14270936D01*
X13404467Y-14270936D02*
X13394944Y-14280460D01*
X13394944Y-14280460D02*
X13375896Y-14289984D01*
X13375896Y-14289984D02*
X13356848Y-14289984D01*
X13356848Y-14289984D02*
X13337801Y-14280460D01*
X13337801Y-14280460D02*
X13328277Y-14270936D01*
X13328277Y-14270936D02*
X13318753Y-14251888D01*
X13318753Y-14251888D02*
X13309229Y-14213793D01*
X13309229Y-14213793D02*
X13309229Y-14166174D01*
X13309229Y-14166174D02*
X13318753Y-14128079D01*
X13318753Y-14128079D02*
X13328277Y-14109031D01*
X13328277Y-14109031D02*
X13337801Y-14099508D01*
X13337801Y-14099508D02*
X13356848Y-14089984D01*
X13499706Y-14109031D02*
X13509229Y-14099508D01*
X13509229Y-14099508D02*
X13528277Y-14089984D01*
X13528277Y-14089984D02*
X13575896Y-14089984D01*
X13575896Y-14089984D02*
X13594944Y-14099508D01*
X13594944Y-14099508D02*
X13604467Y-14109031D01*
X13604467Y-14109031D02*
X13613991Y-14128079D01*
X13613991Y-14128079D02*
X13613991Y-14147127D01*
X13613991Y-14147127D02*
X13604467Y-14175698D01*
X13604467Y-14175698D02*
X13490182Y-14289984D01*
X13490182Y-14289984D02*
X13613991Y-14289984D01*
X13680658Y-14089984D02*
X13804467Y-14089984D01*
X13804467Y-14089984D02*
X13737801Y-14166174D01*
X13737801Y-14166174D02*
X13766372Y-14166174D01*
X13766372Y-14166174D02*
X13785420Y-14175698D01*
X13785420Y-14175698D02*
X13794944Y-14185222D01*
X13794944Y-14185222D02*
X13804467Y-14204269D01*
X13804467Y-14204269D02*
X13804467Y-14251888D01*
X13804467Y-14251888D02*
X13794944Y-14270936D01*
X13794944Y-14270936D02*
X13785420Y-14280460D01*
X13785420Y-14280460D02*
X13766372Y-14289984D01*
X13766372Y-14289984D02*
X13709229Y-14289984D01*
X13709229Y-14289984D02*
X13690182Y-14280460D01*
X13690182Y-14280460D02*
X13680658Y-14270936D01*
X13975896Y-14089984D02*
X13937801Y-14089984D01*
X13937801Y-14089984D02*
X13918753Y-14099508D01*
X13918753Y-14099508D02*
X13909229Y-14109031D01*
X13909229Y-14109031D02*
X13890182Y-14137603D01*
X13890182Y-14137603D02*
X13880658Y-14175698D01*
X13880658Y-14175698D02*
X13880658Y-14251888D01*
X13880658Y-14251888D02*
X13890182Y-14270936D01*
X13890182Y-14270936D02*
X13899706Y-14280460D01*
X13899706Y-14280460D02*
X13918753Y-14289984D01*
X13918753Y-14289984D02*
X13956848Y-14289984D01*
X13956848Y-14289984D02*
X13975896Y-14280460D01*
X13975896Y-14280460D02*
X13985420Y-14270936D01*
X13985420Y-14270936D02*
X13994944Y-14251888D01*
X13994944Y-14251888D02*
X13994944Y-14204269D01*
X13994944Y-14204269D02*
X13985420Y-14185222D01*
X13985420Y-14185222D02*
X13975896Y-14175698D01*
X13975896Y-14175698D02*
X13956848Y-14166174D01*
X13956848Y-14166174D02*
X13918753Y-14166174D01*
X13918753Y-14166174D02*
X13899706Y-14175698D01*
X13899706Y-14175698D02*
X13890182Y-14185222D01*
X13890182Y-14185222D02*
X13880658Y-14204269D01*
X14071134Y-14089984D02*
X14071134Y-14128079D01*
X14147325Y-14089984D02*
X14147325Y-14128079D01*
X14442563Y-14366174D02*
X14433039Y-14356650D01*
X14433039Y-14356650D02*
X14413991Y-14328079D01*
X14413991Y-14328079D02*
X14404468Y-14309031D01*
X14404468Y-14309031D02*
X14394944Y-14280460D01*
X14394944Y-14280460D02*
X14385420Y-14232841D01*
X14385420Y-14232841D02*
X14385420Y-14194746D01*
X14385420Y-14194746D02*
X14394944Y-14147127D01*
X14394944Y-14147127D02*
X14404468Y-14118555D01*
X14404468Y-14118555D02*
X14413991Y-14099508D01*
X14413991Y-14099508D02*
X14433039Y-14070936D01*
X14433039Y-14070936D02*
X14442563Y-14061412D01*
X14556848Y-14089984D02*
X14575896Y-14089984D01*
X14575896Y-14089984D02*
X14594944Y-14099508D01*
X14594944Y-14099508D02*
X14604468Y-14109031D01*
X14604468Y-14109031D02*
X14613991Y-14128079D01*
X14613991Y-14128079D02*
X14623515Y-14166174D01*
X14623515Y-14166174D02*
X14623515Y-14213793D01*
X14623515Y-14213793D02*
X14613991Y-14251888D01*
X14613991Y-14251888D02*
X14604468Y-14270936D01*
X14604468Y-14270936D02*
X14594944Y-14280460D01*
X14594944Y-14280460D02*
X14575896Y-14289984D01*
X14575896Y-14289984D02*
X14556848Y-14289984D01*
X14556848Y-14289984D02*
X14537801Y-14280460D01*
X14537801Y-14280460D02*
X14528277Y-14270936D01*
X14528277Y-14270936D02*
X14518753Y-14251888D01*
X14518753Y-14251888D02*
X14509229Y-14213793D01*
X14509229Y-14213793D02*
X14509229Y-14166174D01*
X14509229Y-14166174D02*
X14518753Y-14128079D01*
X14518753Y-14128079D02*
X14528277Y-14109031D01*
X14528277Y-14109031D02*
X14537801Y-14099508D01*
X14537801Y-14099508D02*
X14556848Y-14089984D01*
X14861610Y-14289984D02*
X14861610Y-14089984D01*
X14947325Y-14289984D02*
X14947325Y-14185222D01*
X14947325Y-14185222D02*
X14937801Y-14166174D01*
X14937801Y-14166174D02*
X14918753Y-14156650D01*
X14918753Y-14156650D02*
X14890182Y-14156650D01*
X14890182Y-14156650D02*
X14871134Y-14166174D01*
X14871134Y-14166174D02*
X14861610Y-14175698D01*
X15071134Y-14289984D02*
X15052087Y-14280460D01*
X15052087Y-14280460D02*
X15042563Y-14270936D01*
X15042563Y-14270936D02*
X15033039Y-14251888D01*
X15033039Y-14251888D02*
X15033039Y-14194746D01*
X15033039Y-14194746D02*
X15042563Y-14175698D01*
X15042563Y-14175698D02*
X15052087Y-14166174D01*
X15052087Y-14166174D02*
X15071134Y-14156650D01*
X15071134Y-14156650D02*
X15099706Y-14156650D01*
X15099706Y-14156650D02*
X15118753Y-14166174D01*
X15118753Y-14166174D02*
X15128277Y-14175698D01*
X15128277Y-14175698D02*
X15137801Y-14194746D01*
X15137801Y-14194746D02*
X15137801Y-14251888D01*
X15137801Y-14251888D02*
X15128277Y-14270936D01*
X15128277Y-14270936D02*
X15118753Y-14280460D01*
X15118753Y-14280460D02*
X15099706Y-14289984D01*
X15099706Y-14289984D02*
X15071134Y-14289984D01*
X15252087Y-14289984D02*
X15233039Y-14280460D01*
X15233039Y-14280460D02*
X15223515Y-14261412D01*
X15223515Y-14261412D02*
X15223515Y-14089984D01*
X15404468Y-14280460D02*
X15385420Y-14289984D01*
X15385420Y-14289984D02*
X15347325Y-14289984D01*
X15347325Y-14289984D02*
X15328277Y-14280460D01*
X15328277Y-14280460D02*
X15318753Y-14261412D01*
X15318753Y-14261412D02*
X15318753Y-14185222D01*
X15318753Y-14185222D02*
X15328277Y-14166174D01*
X15328277Y-14166174D02*
X15347325Y-14156650D01*
X15347325Y-14156650D02*
X15385420Y-14156650D01*
X15385420Y-14156650D02*
X15404468Y-14166174D01*
X15404468Y-14166174D02*
X15413991Y-14185222D01*
X15413991Y-14185222D02*
X15413991Y-14204269D01*
X15413991Y-14204269D02*
X15318753Y-14223317D01*
X15490182Y-14280460D02*
X15509230Y-14289984D01*
X15509230Y-14289984D02*
X15547325Y-14289984D01*
X15547325Y-14289984D02*
X15566372Y-14280460D01*
X15566372Y-14280460D02*
X15575896Y-14261412D01*
X15575896Y-14261412D02*
X15575896Y-14251888D01*
X15575896Y-14251888D02*
X15566372Y-14232841D01*
X15566372Y-14232841D02*
X15547325Y-14223317D01*
X15547325Y-14223317D02*
X15518753Y-14223317D01*
X15518753Y-14223317D02*
X15499706Y-14213793D01*
X15499706Y-14213793D02*
X15490182Y-14194746D01*
X15490182Y-14194746D02*
X15490182Y-14185222D01*
X15490182Y-14185222D02*
X15499706Y-14166174D01*
X15499706Y-14166174D02*
X15518753Y-14156650D01*
X15518753Y-14156650D02*
X15547325Y-14156650D01*
X15547325Y-14156650D02*
X15566372Y-14166174D01*
X15813992Y-14213793D02*
X15966373Y-14213793D01*
X15890182Y-14289984D02*
X15890182Y-14137603D01*
X16299706Y-14156650D02*
X16299706Y-14289984D01*
X16252087Y-14080460D02*
X16204468Y-14223317D01*
X16204468Y-14223317D02*
X16328277Y-14223317D01*
X16547325Y-14280460D02*
X16566373Y-14289984D01*
X16566373Y-14289984D02*
X16604468Y-14289984D01*
X16604468Y-14289984D02*
X16623515Y-14280460D01*
X16623515Y-14280460D02*
X16633039Y-14261412D01*
X16633039Y-14261412D02*
X16633039Y-14251888D01*
X16633039Y-14251888D02*
X16623515Y-14232841D01*
X16623515Y-14232841D02*
X16604468Y-14223317D01*
X16604468Y-14223317D02*
X16575896Y-14223317D01*
X16575896Y-14223317D02*
X16556849Y-14213793D01*
X16556849Y-14213793D02*
X16547325Y-14194746D01*
X16547325Y-14194746D02*
X16547325Y-14185222D01*
X16547325Y-14185222D02*
X16556849Y-14166174D01*
X16556849Y-14166174D02*
X16575896Y-14156650D01*
X16575896Y-14156650D02*
X16604468Y-14156650D01*
X16604468Y-14156650D02*
X16623515Y-14166174D01*
X16747325Y-14289984D02*
X16728277Y-14280460D01*
X16728277Y-14280460D02*
X16718754Y-14261412D01*
X16718754Y-14261412D02*
X16718754Y-14089984D01*
X16852087Y-14289984D02*
X16833039Y-14280460D01*
X16833039Y-14280460D02*
X16823516Y-14270936D01*
X16823516Y-14270936D02*
X16813992Y-14251888D01*
X16813992Y-14251888D02*
X16813992Y-14194746D01*
X16813992Y-14194746D02*
X16823516Y-14175698D01*
X16823516Y-14175698D02*
X16833039Y-14166174D01*
X16833039Y-14166174D02*
X16852087Y-14156650D01*
X16852087Y-14156650D02*
X16880658Y-14156650D01*
X16880658Y-14156650D02*
X16899706Y-14166174D01*
X16899706Y-14166174D02*
X16909230Y-14175698D01*
X16909230Y-14175698D02*
X16918754Y-14194746D01*
X16918754Y-14194746D02*
X16918754Y-14251888D01*
X16918754Y-14251888D02*
X16909230Y-14270936D01*
X16909230Y-14270936D02*
X16899706Y-14280460D01*
X16899706Y-14280460D02*
X16880658Y-14289984D01*
X16880658Y-14289984D02*
X16852087Y-14289984D01*
X16975897Y-14156650D02*
X17052087Y-14156650D01*
X17004468Y-14089984D02*
X17004468Y-14261412D01*
X17004468Y-14261412D02*
X17013992Y-14280460D01*
X17013992Y-14280460D02*
X17033039Y-14289984D01*
X17033039Y-14289984D02*
X17052087Y-14289984D01*
X17109230Y-14280460D02*
X17128277Y-14289984D01*
X17128277Y-14289984D02*
X17166373Y-14289984D01*
X17166373Y-14289984D02*
X17185420Y-14280460D01*
X17185420Y-14280460D02*
X17194944Y-14261412D01*
X17194944Y-14261412D02*
X17194944Y-14251888D01*
X17194944Y-14251888D02*
X17185420Y-14232841D01*
X17185420Y-14232841D02*
X17166373Y-14223317D01*
X17166373Y-14223317D02*
X17137801Y-14223317D01*
X17137801Y-14223317D02*
X17118754Y-14213793D01*
X17118754Y-14213793D02*
X17109230Y-14194746D01*
X17109230Y-14194746D02*
X17109230Y-14185222D01*
X17109230Y-14185222D02*
X17118754Y-14166174D01*
X17118754Y-14166174D02*
X17137801Y-14156650D01*
X17137801Y-14156650D02*
X17166373Y-14156650D01*
X17166373Y-14156650D02*
X17185420Y-14166174D01*
X17261611Y-14366174D02*
X17271135Y-14356650D01*
X17271135Y-14356650D02*
X17290182Y-14328079D01*
X17290182Y-14328079D02*
X17299706Y-14309031D01*
X17299706Y-14309031D02*
X17309230Y-14280460D01*
X17309230Y-14280460D02*
X17318754Y-14232841D01*
X17318754Y-14232841D02*
X17318754Y-14194746D01*
X17318754Y-14194746D02*
X17309230Y-14147127D01*
X17309230Y-14147127D02*
X17299706Y-14118555D01*
X17299706Y-14118555D02*
X17290182Y-14099508D01*
X17290182Y-14099508D02*
X17271135Y-14070936D01*
X17271135Y-14070936D02*
X17261611Y-14061412D01*
D12*
X10787500Y-14422500D02*
X10867500Y-14502500D01*
X10867500Y-14422500D02*
X10787500Y-14502500D01*
X10867500Y-14462500D02*
G75*
G02*
X10787500Y-14462500I-40000J0D01*
G01*
X10787500Y-14462500D02*
G75*
G02*
X10867500Y-14462500I40000J0D01*
G01*
D11*
X11166372Y-14353984D02*
X11185420Y-14353984D01*
X11185420Y-14353984D02*
X11204467Y-14363508D01*
X11204467Y-14363508D02*
X11213991Y-14373031D01*
X11213991Y-14373031D02*
X11223515Y-14392079D01*
X11223515Y-14392079D02*
X11233039Y-14430174D01*
X11233039Y-14430174D02*
X11233039Y-14477793D01*
X11233039Y-14477793D02*
X11223515Y-14515888D01*
X11223515Y-14515888D02*
X11213991Y-14534936D01*
X11213991Y-14534936D02*
X11204467Y-14544460D01*
X11204467Y-14544460D02*
X11185420Y-14553984D01*
X11185420Y-14553984D02*
X11166372Y-14553984D01*
X11166372Y-14553984D02*
X11147324Y-14544460D01*
X11147324Y-14544460D02*
X11137801Y-14534936D01*
X11137801Y-14534936D02*
X11128277Y-14515888D01*
X11128277Y-14515888D02*
X11118753Y-14477793D01*
X11118753Y-14477793D02*
X11118753Y-14430174D01*
X11118753Y-14430174D02*
X11128277Y-14392079D01*
X11128277Y-14392079D02*
X11137801Y-14373031D01*
X11137801Y-14373031D02*
X11147324Y-14363508D01*
X11147324Y-14363508D02*
X11166372Y-14353984D01*
X11318753Y-14534936D02*
X11328277Y-14544460D01*
X11328277Y-14544460D02*
X11318753Y-14553984D01*
X11318753Y-14553984D02*
X11309229Y-14544460D01*
X11309229Y-14544460D02*
X11318753Y-14534936D01*
X11318753Y-14534936D02*
X11318753Y-14553984D01*
X11442562Y-14439698D02*
X11423515Y-14430174D01*
X11423515Y-14430174D02*
X11413991Y-14420650D01*
X11413991Y-14420650D02*
X11404467Y-14401603D01*
X11404467Y-14401603D02*
X11404467Y-14392079D01*
X11404467Y-14392079D02*
X11413991Y-14373031D01*
X11413991Y-14373031D02*
X11423515Y-14363508D01*
X11423515Y-14363508D02*
X11442562Y-14353984D01*
X11442562Y-14353984D02*
X11480658Y-14353984D01*
X11480658Y-14353984D02*
X11499705Y-14363508D01*
X11499705Y-14363508D02*
X11509229Y-14373031D01*
X11509229Y-14373031D02*
X11518753Y-14392079D01*
X11518753Y-14392079D02*
X11518753Y-14401603D01*
X11518753Y-14401603D02*
X11509229Y-14420650D01*
X11509229Y-14420650D02*
X11499705Y-14430174D01*
X11499705Y-14430174D02*
X11480658Y-14439698D01*
X11480658Y-14439698D02*
X11442562Y-14439698D01*
X11442562Y-14439698D02*
X11423515Y-14449222D01*
X11423515Y-14449222D02*
X11413991Y-14458746D01*
X11413991Y-14458746D02*
X11404467Y-14477793D01*
X11404467Y-14477793D02*
X11404467Y-14515888D01*
X11404467Y-14515888D02*
X11413991Y-14534936D01*
X11413991Y-14534936D02*
X11423515Y-14544460D01*
X11423515Y-14544460D02*
X11442562Y-14553984D01*
X11442562Y-14553984D02*
X11480658Y-14553984D01*
X11480658Y-14553984D02*
X11499705Y-14544460D01*
X11499705Y-14544460D02*
X11509229Y-14534936D01*
X11509229Y-14534936D02*
X11518753Y-14515888D01*
X11518753Y-14515888D02*
X11518753Y-14477793D01*
X11518753Y-14477793D02*
X11509229Y-14458746D01*
X11509229Y-14458746D02*
X11499705Y-14449222D01*
X11499705Y-14449222D02*
X11480658Y-14439698D01*
X11642562Y-14353984D02*
X11661610Y-14353984D01*
X11661610Y-14353984D02*
X11680658Y-14363508D01*
X11680658Y-14363508D02*
X11690182Y-14373031D01*
X11690182Y-14373031D02*
X11699705Y-14392079D01*
X11699705Y-14392079D02*
X11709229Y-14430174D01*
X11709229Y-14430174D02*
X11709229Y-14477793D01*
X11709229Y-14477793D02*
X11699705Y-14515888D01*
X11699705Y-14515888D02*
X11690182Y-14534936D01*
X11690182Y-14534936D02*
X11680658Y-14544460D01*
X11680658Y-14544460D02*
X11661610Y-14553984D01*
X11661610Y-14553984D02*
X11642562Y-14553984D01*
X11642562Y-14553984D02*
X11623515Y-14544460D01*
X11623515Y-14544460D02*
X11613991Y-14534936D01*
X11613991Y-14534936D02*
X11604467Y-14515888D01*
X11604467Y-14515888D02*
X11594943Y-14477793D01*
X11594943Y-14477793D02*
X11594943Y-14430174D01*
X11594943Y-14430174D02*
X11604467Y-14392079D01*
X11604467Y-14392079D02*
X11613991Y-14373031D01*
X11613991Y-14373031D02*
X11623515Y-14363508D01*
X11623515Y-14363508D02*
X11642562Y-14353984D01*
X11833039Y-14353984D02*
X11852086Y-14353984D01*
X11852086Y-14353984D02*
X11871134Y-14363508D01*
X11871134Y-14363508D02*
X11880658Y-14373031D01*
X11880658Y-14373031D02*
X11890182Y-14392079D01*
X11890182Y-14392079D02*
X11899705Y-14430174D01*
X11899705Y-14430174D02*
X11899705Y-14477793D01*
X11899705Y-14477793D02*
X11890182Y-14515888D01*
X11890182Y-14515888D02*
X11880658Y-14534936D01*
X11880658Y-14534936D02*
X11871134Y-14544460D01*
X11871134Y-14544460D02*
X11852086Y-14553984D01*
X11852086Y-14553984D02*
X11833039Y-14553984D01*
X11833039Y-14553984D02*
X11813991Y-14544460D01*
X11813991Y-14544460D02*
X11804467Y-14534936D01*
X11804467Y-14534936D02*
X11794943Y-14515888D01*
X11794943Y-14515888D02*
X11785420Y-14477793D01*
X11785420Y-14477793D02*
X11785420Y-14430174D01*
X11785420Y-14430174D02*
X11794943Y-14392079D01*
X11794943Y-14392079D02*
X11804467Y-14373031D01*
X11804467Y-14373031D02*
X11813991Y-14363508D01*
X11813991Y-14363508D02*
X11833039Y-14353984D01*
X11985420Y-14553984D02*
X11985420Y-14420650D01*
X11985420Y-14439698D02*
X11994943Y-14430174D01*
X11994943Y-14430174D02*
X12013991Y-14420650D01*
X12013991Y-14420650D02*
X12042563Y-14420650D01*
X12042563Y-14420650D02*
X12061610Y-14430174D01*
X12061610Y-14430174D02*
X12071134Y-14449222D01*
X12071134Y-14449222D02*
X12071134Y-14553984D01*
X12071134Y-14449222D02*
X12080658Y-14430174D01*
X12080658Y-14430174D02*
X12099705Y-14420650D01*
X12099705Y-14420650D02*
X12128277Y-14420650D01*
X12128277Y-14420650D02*
X12147324Y-14430174D01*
X12147324Y-14430174D02*
X12156848Y-14449222D01*
X12156848Y-14449222D02*
X12156848Y-14553984D01*
X12252086Y-14553984D02*
X12252086Y-14420650D01*
X12252086Y-14439698D02*
X12261610Y-14430174D01*
X12261610Y-14430174D02*
X12280658Y-14420650D01*
X12280658Y-14420650D02*
X12309229Y-14420650D01*
X12309229Y-14420650D02*
X12328277Y-14430174D01*
X12328277Y-14430174D02*
X12337801Y-14449222D01*
X12337801Y-14449222D02*
X12337801Y-14553984D01*
X12337801Y-14449222D02*
X12347324Y-14430174D01*
X12347324Y-14430174D02*
X12366372Y-14420650D01*
X12366372Y-14420650D02*
X12394943Y-14420650D01*
X12394943Y-14420650D02*
X12413991Y-14430174D01*
X12413991Y-14430174D02*
X12423515Y-14449222D01*
X12423515Y-14449222D02*
X12423515Y-14553984D01*
X12813991Y-14344460D02*
X12642563Y-14601603D01*
X13071134Y-14353984D02*
X13090182Y-14353984D01*
X13090182Y-14353984D02*
X13109229Y-14363508D01*
X13109229Y-14363508D02*
X13118753Y-14373031D01*
X13118753Y-14373031D02*
X13128277Y-14392079D01*
X13128277Y-14392079D02*
X13137801Y-14430174D01*
X13137801Y-14430174D02*
X13137801Y-14477793D01*
X13137801Y-14477793D02*
X13128277Y-14515888D01*
X13128277Y-14515888D02*
X13118753Y-14534936D01*
X13118753Y-14534936D02*
X13109229Y-14544460D01*
X13109229Y-14544460D02*
X13090182Y-14553984D01*
X13090182Y-14553984D02*
X13071134Y-14553984D01*
X13071134Y-14553984D02*
X13052086Y-14544460D01*
X13052086Y-14544460D02*
X13042563Y-14534936D01*
X13042563Y-14534936D02*
X13033039Y-14515888D01*
X13033039Y-14515888D02*
X13023515Y-14477793D01*
X13023515Y-14477793D02*
X13023515Y-14430174D01*
X13023515Y-14430174D02*
X13033039Y-14392079D01*
X13033039Y-14392079D02*
X13042563Y-14373031D01*
X13042563Y-14373031D02*
X13052086Y-14363508D01*
X13052086Y-14363508D02*
X13071134Y-14353984D01*
X13223515Y-14534936D02*
X13233039Y-14544460D01*
X13233039Y-14544460D02*
X13223515Y-14553984D01*
X13223515Y-14553984D02*
X13213991Y-14544460D01*
X13213991Y-14544460D02*
X13223515Y-14534936D01*
X13223515Y-14534936D02*
X13223515Y-14553984D01*
X13356848Y-14353984D02*
X13375896Y-14353984D01*
X13375896Y-14353984D02*
X13394944Y-14363508D01*
X13394944Y-14363508D02*
X13404467Y-14373031D01*
X13404467Y-14373031D02*
X13413991Y-14392079D01*
X13413991Y-14392079D02*
X13423515Y-14430174D01*
X13423515Y-14430174D02*
X13423515Y-14477793D01*
X13423515Y-14477793D02*
X13413991Y-14515888D01*
X13413991Y-14515888D02*
X13404467Y-14534936D01*
X13404467Y-14534936D02*
X13394944Y-14544460D01*
X13394944Y-14544460D02*
X13375896Y-14553984D01*
X13375896Y-14553984D02*
X13356848Y-14553984D01*
X13356848Y-14553984D02*
X13337801Y-14544460D01*
X13337801Y-14544460D02*
X13328277Y-14534936D01*
X13328277Y-14534936D02*
X13318753Y-14515888D01*
X13318753Y-14515888D02*
X13309229Y-14477793D01*
X13309229Y-14477793D02*
X13309229Y-14430174D01*
X13309229Y-14430174D02*
X13318753Y-14392079D01*
X13318753Y-14392079D02*
X13328277Y-14373031D01*
X13328277Y-14373031D02*
X13337801Y-14363508D01*
X13337801Y-14363508D02*
X13356848Y-14353984D01*
X13490182Y-14353984D02*
X13613991Y-14353984D01*
X13613991Y-14353984D02*
X13547325Y-14430174D01*
X13547325Y-14430174D02*
X13575896Y-14430174D01*
X13575896Y-14430174D02*
X13594944Y-14439698D01*
X13594944Y-14439698D02*
X13604467Y-14449222D01*
X13604467Y-14449222D02*
X13613991Y-14468269D01*
X13613991Y-14468269D02*
X13613991Y-14515888D01*
X13613991Y-14515888D02*
X13604467Y-14534936D01*
X13604467Y-14534936D02*
X13594944Y-14544460D01*
X13594944Y-14544460D02*
X13575896Y-14553984D01*
X13575896Y-14553984D02*
X13518753Y-14553984D01*
X13518753Y-14553984D02*
X13499706Y-14544460D01*
X13499706Y-14544460D02*
X13490182Y-14534936D01*
X13804467Y-14553984D02*
X13690182Y-14553984D01*
X13747325Y-14553984D02*
X13747325Y-14353984D01*
X13747325Y-14353984D02*
X13728277Y-14382555D01*
X13728277Y-14382555D02*
X13709229Y-14401603D01*
X13709229Y-14401603D02*
X13690182Y-14411127D01*
X13985420Y-14353984D02*
X13890182Y-14353984D01*
X13890182Y-14353984D02*
X13880658Y-14449222D01*
X13880658Y-14449222D02*
X13890182Y-14439698D01*
X13890182Y-14439698D02*
X13909229Y-14430174D01*
X13909229Y-14430174D02*
X13956848Y-14430174D01*
X13956848Y-14430174D02*
X13975896Y-14439698D01*
X13975896Y-14439698D02*
X13985420Y-14449222D01*
X13985420Y-14449222D02*
X13994944Y-14468269D01*
X13994944Y-14468269D02*
X13994944Y-14515888D01*
X13994944Y-14515888D02*
X13985420Y-14534936D01*
X13985420Y-14534936D02*
X13975896Y-14544460D01*
X13975896Y-14544460D02*
X13956848Y-14553984D01*
X13956848Y-14553984D02*
X13909229Y-14553984D01*
X13909229Y-14553984D02*
X13890182Y-14544460D01*
X13890182Y-14544460D02*
X13880658Y-14534936D01*
X14071134Y-14353984D02*
X14071134Y-14392079D01*
X14147325Y-14353984D02*
X14147325Y-14392079D01*
X14442563Y-14630174D02*
X14433039Y-14620650D01*
X14433039Y-14620650D02*
X14413991Y-14592079D01*
X14413991Y-14592079D02*
X14404468Y-14573031D01*
X14404468Y-14573031D02*
X14394944Y-14544460D01*
X14394944Y-14544460D02*
X14385420Y-14496841D01*
X14385420Y-14496841D02*
X14385420Y-14458746D01*
X14385420Y-14458746D02*
X14394944Y-14411127D01*
X14394944Y-14411127D02*
X14404468Y-14382555D01*
X14404468Y-14382555D02*
X14413991Y-14363508D01*
X14413991Y-14363508D02*
X14433039Y-14334936D01*
X14433039Y-14334936D02*
X14442563Y-14325412D01*
X14604468Y-14420650D02*
X14604468Y-14553984D01*
X14556848Y-14344460D02*
X14509229Y-14487317D01*
X14509229Y-14487317D02*
X14633039Y-14487317D01*
X14861610Y-14553984D02*
X14861610Y-14353984D01*
X14947325Y-14553984D02*
X14947325Y-14449222D01*
X14947325Y-14449222D02*
X14937801Y-14430174D01*
X14937801Y-14430174D02*
X14918753Y-14420650D01*
X14918753Y-14420650D02*
X14890182Y-14420650D01*
X14890182Y-14420650D02*
X14871134Y-14430174D01*
X14871134Y-14430174D02*
X14861610Y-14439698D01*
X15071134Y-14553984D02*
X15052087Y-14544460D01*
X15052087Y-14544460D02*
X15042563Y-14534936D01*
X15042563Y-14534936D02*
X15033039Y-14515888D01*
X15033039Y-14515888D02*
X15033039Y-14458746D01*
X15033039Y-14458746D02*
X15042563Y-14439698D01*
X15042563Y-14439698D02*
X15052087Y-14430174D01*
X15052087Y-14430174D02*
X15071134Y-14420650D01*
X15071134Y-14420650D02*
X15099706Y-14420650D01*
X15099706Y-14420650D02*
X15118753Y-14430174D01*
X15118753Y-14430174D02*
X15128277Y-14439698D01*
X15128277Y-14439698D02*
X15137801Y-14458746D01*
X15137801Y-14458746D02*
X15137801Y-14515888D01*
X15137801Y-14515888D02*
X15128277Y-14534936D01*
X15128277Y-14534936D02*
X15118753Y-14544460D01*
X15118753Y-14544460D02*
X15099706Y-14553984D01*
X15099706Y-14553984D02*
X15071134Y-14553984D01*
X15252087Y-14553984D02*
X15233039Y-14544460D01*
X15233039Y-14544460D02*
X15223515Y-14525412D01*
X15223515Y-14525412D02*
X15223515Y-14353984D01*
X15404468Y-14544460D02*
X15385420Y-14553984D01*
X15385420Y-14553984D02*
X15347325Y-14553984D01*
X15347325Y-14553984D02*
X15328277Y-14544460D01*
X15328277Y-14544460D02*
X15318753Y-14525412D01*
X15318753Y-14525412D02*
X15318753Y-14449222D01*
X15318753Y-14449222D02*
X15328277Y-14430174D01*
X15328277Y-14430174D02*
X15347325Y-14420650D01*
X15347325Y-14420650D02*
X15385420Y-14420650D01*
X15385420Y-14420650D02*
X15404468Y-14430174D01*
X15404468Y-14430174D02*
X15413991Y-14449222D01*
X15413991Y-14449222D02*
X15413991Y-14468269D01*
X15413991Y-14468269D02*
X15318753Y-14487317D01*
X15490182Y-14544460D02*
X15509230Y-14553984D01*
X15509230Y-14553984D02*
X15547325Y-14553984D01*
X15547325Y-14553984D02*
X15566372Y-14544460D01*
X15566372Y-14544460D02*
X15575896Y-14525412D01*
X15575896Y-14525412D02*
X15575896Y-14515888D01*
X15575896Y-14515888D02*
X15566372Y-14496841D01*
X15566372Y-14496841D02*
X15547325Y-14487317D01*
X15547325Y-14487317D02*
X15518753Y-14487317D01*
X15518753Y-14487317D02*
X15499706Y-14477793D01*
X15499706Y-14477793D02*
X15490182Y-14458746D01*
X15490182Y-14458746D02*
X15490182Y-14449222D01*
X15490182Y-14449222D02*
X15499706Y-14430174D01*
X15499706Y-14430174D02*
X15518753Y-14420650D01*
X15518753Y-14420650D02*
X15547325Y-14420650D01*
X15547325Y-14420650D02*
X15566372Y-14430174D01*
X15642563Y-14630174D02*
X15652087Y-14620650D01*
X15652087Y-14620650D02*
X15671134Y-14592079D01*
X15671134Y-14592079D02*
X15680658Y-14573031D01*
X15680658Y-14573031D02*
X15690182Y-14544460D01*
X15690182Y-14544460D02*
X15699706Y-14496841D01*
X15699706Y-14496841D02*
X15699706Y-14458746D01*
X15699706Y-14458746D02*
X15690182Y-14411127D01*
X15690182Y-14411127D02*
X15680658Y-14382555D01*
X15680658Y-14382555D02*
X15671134Y-14363508D01*
X15671134Y-14363508D02*
X15652087Y-14334936D01*
X15652087Y-14334936D02*
X15642563Y-14325412D01*
D12*
X10767500Y-14676500D02*
X10867500Y-14776500D01*
X10867500Y-14676500D02*
X10767500Y-14776500D01*
X10817500Y-14676500D02*
X10817500Y-14776500D01*
X10767500Y-14726500D02*
X10867500Y-14726500D01*
D11*
X11233039Y-14817984D02*
X11118753Y-14817984D01*
X11175896Y-14817984D02*
X11175896Y-14617984D01*
X11175896Y-14617984D02*
X11156848Y-14646555D01*
X11156848Y-14646555D02*
X11137801Y-14665603D01*
X11137801Y-14665603D02*
X11118753Y-14675127D01*
X11318753Y-14798936D02*
X11328277Y-14808460D01*
X11328277Y-14808460D02*
X11318753Y-14817984D01*
X11318753Y-14817984D02*
X11309229Y-14808460D01*
X11309229Y-14808460D02*
X11318753Y-14798936D01*
X11318753Y-14798936D02*
X11318753Y-14817984D01*
X11452086Y-14617984D02*
X11471134Y-14617984D01*
X11471134Y-14617984D02*
X11490182Y-14627508D01*
X11490182Y-14627508D02*
X11499705Y-14637031D01*
X11499705Y-14637031D02*
X11509229Y-14656079D01*
X11509229Y-14656079D02*
X11518753Y-14694174D01*
X11518753Y-14694174D02*
X11518753Y-14741793D01*
X11518753Y-14741793D02*
X11509229Y-14779888D01*
X11509229Y-14779888D02*
X11499705Y-14798936D01*
X11499705Y-14798936D02*
X11490182Y-14808460D01*
X11490182Y-14808460D02*
X11471134Y-14817984D01*
X11471134Y-14817984D02*
X11452086Y-14817984D01*
X11452086Y-14817984D02*
X11433039Y-14808460D01*
X11433039Y-14808460D02*
X11423515Y-14798936D01*
X11423515Y-14798936D02*
X11413991Y-14779888D01*
X11413991Y-14779888D02*
X11404467Y-14741793D01*
X11404467Y-14741793D02*
X11404467Y-14694174D01*
X11404467Y-14694174D02*
X11413991Y-14656079D01*
X11413991Y-14656079D02*
X11423515Y-14637031D01*
X11423515Y-14637031D02*
X11433039Y-14627508D01*
X11433039Y-14627508D02*
X11452086Y-14617984D01*
X11642562Y-14617984D02*
X11661610Y-14617984D01*
X11661610Y-14617984D02*
X11680658Y-14627508D01*
X11680658Y-14627508D02*
X11690182Y-14637031D01*
X11690182Y-14637031D02*
X11699705Y-14656079D01*
X11699705Y-14656079D02*
X11709229Y-14694174D01*
X11709229Y-14694174D02*
X11709229Y-14741793D01*
X11709229Y-14741793D02*
X11699705Y-14779888D01*
X11699705Y-14779888D02*
X11690182Y-14798936D01*
X11690182Y-14798936D02*
X11680658Y-14808460D01*
X11680658Y-14808460D02*
X11661610Y-14817984D01*
X11661610Y-14817984D02*
X11642562Y-14817984D01*
X11642562Y-14817984D02*
X11623515Y-14808460D01*
X11623515Y-14808460D02*
X11613991Y-14798936D01*
X11613991Y-14798936D02*
X11604467Y-14779888D01*
X11604467Y-14779888D02*
X11594943Y-14741793D01*
X11594943Y-14741793D02*
X11594943Y-14694174D01*
X11594943Y-14694174D02*
X11604467Y-14656079D01*
X11604467Y-14656079D02*
X11613991Y-14637031D01*
X11613991Y-14637031D02*
X11623515Y-14627508D01*
X11623515Y-14627508D02*
X11642562Y-14617984D01*
X11833039Y-14617984D02*
X11852086Y-14617984D01*
X11852086Y-14617984D02*
X11871134Y-14627508D01*
X11871134Y-14627508D02*
X11880658Y-14637031D01*
X11880658Y-14637031D02*
X11890182Y-14656079D01*
X11890182Y-14656079D02*
X11899705Y-14694174D01*
X11899705Y-14694174D02*
X11899705Y-14741793D01*
X11899705Y-14741793D02*
X11890182Y-14779888D01*
X11890182Y-14779888D02*
X11880658Y-14798936D01*
X11880658Y-14798936D02*
X11871134Y-14808460D01*
X11871134Y-14808460D02*
X11852086Y-14817984D01*
X11852086Y-14817984D02*
X11833039Y-14817984D01*
X11833039Y-14817984D02*
X11813991Y-14808460D01*
X11813991Y-14808460D02*
X11804467Y-14798936D01*
X11804467Y-14798936D02*
X11794943Y-14779888D01*
X11794943Y-14779888D02*
X11785420Y-14741793D01*
X11785420Y-14741793D02*
X11785420Y-14694174D01*
X11785420Y-14694174D02*
X11794943Y-14656079D01*
X11794943Y-14656079D02*
X11804467Y-14637031D01*
X11804467Y-14637031D02*
X11813991Y-14627508D01*
X11813991Y-14627508D02*
X11833039Y-14617984D01*
X11985420Y-14817984D02*
X11985420Y-14684650D01*
X11985420Y-14703698D02*
X11994943Y-14694174D01*
X11994943Y-14694174D02*
X12013991Y-14684650D01*
X12013991Y-14684650D02*
X12042563Y-14684650D01*
X12042563Y-14684650D02*
X12061610Y-14694174D01*
X12061610Y-14694174D02*
X12071134Y-14713222D01*
X12071134Y-14713222D02*
X12071134Y-14817984D01*
X12071134Y-14713222D02*
X12080658Y-14694174D01*
X12080658Y-14694174D02*
X12099705Y-14684650D01*
X12099705Y-14684650D02*
X12128277Y-14684650D01*
X12128277Y-14684650D02*
X12147324Y-14694174D01*
X12147324Y-14694174D02*
X12156848Y-14713222D01*
X12156848Y-14713222D02*
X12156848Y-14817984D01*
X12252086Y-14817984D02*
X12252086Y-14684650D01*
X12252086Y-14703698D02*
X12261610Y-14694174D01*
X12261610Y-14694174D02*
X12280658Y-14684650D01*
X12280658Y-14684650D02*
X12309229Y-14684650D01*
X12309229Y-14684650D02*
X12328277Y-14694174D01*
X12328277Y-14694174D02*
X12337801Y-14713222D01*
X12337801Y-14713222D02*
X12337801Y-14817984D01*
X12337801Y-14713222D02*
X12347324Y-14694174D01*
X12347324Y-14694174D02*
X12366372Y-14684650D01*
X12366372Y-14684650D02*
X12394943Y-14684650D01*
X12394943Y-14684650D02*
X12413991Y-14694174D01*
X12413991Y-14694174D02*
X12423515Y-14713222D01*
X12423515Y-14713222D02*
X12423515Y-14817984D01*
X12813991Y-14608460D02*
X12642563Y-14865603D01*
X13071134Y-14617984D02*
X13090182Y-14617984D01*
X13090182Y-14617984D02*
X13109229Y-14627508D01*
X13109229Y-14627508D02*
X13118753Y-14637031D01*
X13118753Y-14637031D02*
X13128277Y-14656079D01*
X13128277Y-14656079D02*
X13137801Y-14694174D01*
X13137801Y-14694174D02*
X13137801Y-14741793D01*
X13137801Y-14741793D02*
X13128277Y-14779888D01*
X13128277Y-14779888D02*
X13118753Y-14798936D01*
X13118753Y-14798936D02*
X13109229Y-14808460D01*
X13109229Y-14808460D02*
X13090182Y-14817984D01*
X13090182Y-14817984D02*
X13071134Y-14817984D01*
X13071134Y-14817984D02*
X13052086Y-14808460D01*
X13052086Y-14808460D02*
X13042563Y-14798936D01*
X13042563Y-14798936D02*
X13033039Y-14779888D01*
X13033039Y-14779888D02*
X13023515Y-14741793D01*
X13023515Y-14741793D02*
X13023515Y-14694174D01*
X13023515Y-14694174D02*
X13033039Y-14656079D01*
X13033039Y-14656079D02*
X13042563Y-14637031D01*
X13042563Y-14637031D02*
X13052086Y-14627508D01*
X13052086Y-14627508D02*
X13071134Y-14617984D01*
X13223515Y-14798936D02*
X13233039Y-14808460D01*
X13233039Y-14808460D02*
X13223515Y-14817984D01*
X13223515Y-14817984D02*
X13213991Y-14808460D01*
X13213991Y-14808460D02*
X13223515Y-14798936D01*
X13223515Y-14798936D02*
X13223515Y-14817984D01*
X13356848Y-14617984D02*
X13375896Y-14617984D01*
X13375896Y-14617984D02*
X13394944Y-14627508D01*
X13394944Y-14627508D02*
X13404467Y-14637031D01*
X13404467Y-14637031D02*
X13413991Y-14656079D01*
X13413991Y-14656079D02*
X13423515Y-14694174D01*
X13423515Y-14694174D02*
X13423515Y-14741793D01*
X13423515Y-14741793D02*
X13413991Y-14779888D01*
X13413991Y-14779888D02*
X13404467Y-14798936D01*
X13404467Y-14798936D02*
X13394944Y-14808460D01*
X13394944Y-14808460D02*
X13375896Y-14817984D01*
X13375896Y-14817984D02*
X13356848Y-14817984D01*
X13356848Y-14817984D02*
X13337801Y-14808460D01*
X13337801Y-14808460D02*
X13328277Y-14798936D01*
X13328277Y-14798936D02*
X13318753Y-14779888D01*
X13318753Y-14779888D02*
X13309229Y-14741793D01*
X13309229Y-14741793D02*
X13309229Y-14694174D01*
X13309229Y-14694174D02*
X13318753Y-14656079D01*
X13318753Y-14656079D02*
X13328277Y-14637031D01*
X13328277Y-14637031D02*
X13337801Y-14627508D01*
X13337801Y-14627508D02*
X13356848Y-14617984D01*
X13490182Y-14617984D02*
X13613991Y-14617984D01*
X13613991Y-14617984D02*
X13547325Y-14694174D01*
X13547325Y-14694174D02*
X13575896Y-14694174D01*
X13575896Y-14694174D02*
X13594944Y-14703698D01*
X13594944Y-14703698D02*
X13604467Y-14713222D01*
X13604467Y-14713222D02*
X13613991Y-14732269D01*
X13613991Y-14732269D02*
X13613991Y-14779888D01*
X13613991Y-14779888D02*
X13604467Y-14798936D01*
X13604467Y-14798936D02*
X13594944Y-14808460D01*
X13594944Y-14808460D02*
X13575896Y-14817984D01*
X13575896Y-14817984D02*
X13518753Y-14817984D01*
X13518753Y-14817984D02*
X13499706Y-14808460D01*
X13499706Y-14808460D02*
X13490182Y-14798936D01*
X13709229Y-14817984D02*
X13747325Y-14817984D01*
X13747325Y-14817984D02*
X13766372Y-14808460D01*
X13766372Y-14808460D02*
X13775896Y-14798936D01*
X13775896Y-14798936D02*
X13794944Y-14770365D01*
X13794944Y-14770365D02*
X13804467Y-14732269D01*
X13804467Y-14732269D02*
X13804467Y-14656079D01*
X13804467Y-14656079D02*
X13794944Y-14637031D01*
X13794944Y-14637031D02*
X13785420Y-14627508D01*
X13785420Y-14627508D02*
X13766372Y-14617984D01*
X13766372Y-14617984D02*
X13728277Y-14617984D01*
X13728277Y-14617984D02*
X13709229Y-14627508D01*
X13709229Y-14627508D02*
X13699706Y-14637031D01*
X13699706Y-14637031D02*
X13690182Y-14656079D01*
X13690182Y-14656079D02*
X13690182Y-14703698D01*
X13690182Y-14703698D02*
X13699706Y-14722746D01*
X13699706Y-14722746D02*
X13709229Y-14732269D01*
X13709229Y-14732269D02*
X13728277Y-14741793D01*
X13728277Y-14741793D02*
X13766372Y-14741793D01*
X13766372Y-14741793D02*
X13785420Y-14732269D01*
X13785420Y-14732269D02*
X13794944Y-14722746D01*
X13794944Y-14722746D02*
X13804467Y-14703698D01*
X13975896Y-14684650D02*
X13975896Y-14817984D01*
X13928277Y-14608460D02*
X13880658Y-14751317D01*
X13880658Y-14751317D02*
X14004467Y-14751317D01*
X14071134Y-14617984D02*
X14071134Y-14656079D01*
X14147325Y-14617984D02*
X14147325Y-14656079D01*
X14442563Y-14894174D02*
X14433039Y-14884650D01*
X14433039Y-14884650D02*
X14413991Y-14856079D01*
X14413991Y-14856079D02*
X14404468Y-14837031D01*
X14404468Y-14837031D02*
X14394944Y-14808460D01*
X14394944Y-14808460D02*
X14385420Y-14760841D01*
X14385420Y-14760841D02*
X14385420Y-14722746D01*
X14385420Y-14722746D02*
X14394944Y-14675127D01*
X14394944Y-14675127D02*
X14404468Y-14646555D01*
X14404468Y-14646555D02*
X14413991Y-14627508D01*
X14413991Y-14627508D02*
X14433039Y-14598936D01*
X14433039Y-14598936D02*
X14442563Y-14589412D01*
X14623515Y-14817984D02*
X14509229Y-14817984D01*
X14566372Y-14817984D02*
X14566372Y-14617984D01*
X14566372Y-14617984D02*
X14547325Y-14646555D01*
X14547325Y-14646555D02*
X14528277Y-14665603D01*
X14528277Y-14665603D02*
X14509229Y-14675127D01*
X14794944Y-14617984D02*
X14756848Y-14617984D01*
X14756848Y-14617984D02*
X14737801Y-14627508D01*
X14737801Y-14627508D02*
X14728277Y-14637031D01*
X14728277Y-14637031D02*
X14709229Y-14665603D01*
X14709229Y-14665603D02*
X14699706Y-14703698D01*
X14699706Y-14703698D02*
X14699706Y-14779888D01*
X14699706Y-14779888D02*
X14709229Y-14798936D01*
X14709229Y-14798936D02*
X14718753Y-14808460D01*
X14718753Y-14808460D02*
X14737801Y-14817984D01*
X14737801Y-14817984D02*
X14775896Y-14817984D01*
X14775896Y-14817984D02*
X14794944Y-14808460D01*
X14794944Y-14808460D02*
X14804468Y-14798936D01*
X14804468Y-14798936D02*
X14813991Y-14779888D01*
X14813991Y-14779888D02*
X14813991Y-14732269D01*
X14813991Y-14732269D02*
X14804468Y-14713222D01*
X14804468Y-14713222D02*
X14794944Y-14703698D01*
X14794944Y-14703698D02*
X14775896Y-14694174D01*
X14775896Y-14694174D02*
X14737801Y-14694174D01*
X14737801Y-14694174D02*
X14718753Y-14703698D01*
X14718753Y-14703698D02*
X14709229Y-14713222D01*
X14709229Y-14713222D02*
X14699706Y-14732269D01*
X15052087Y-14817984D02*
X15052087Y-14617984D01*
X15137801Y-14817984D02*
X15137801Y-14713222D01*
X15137801Y-14713222D02*
X15128277Y-14694174D01*
X15128277Y-14694174D02*
X15109230Y-14684650D01*
X15109230Y-14684650D02*
X15080658Y-14684650D01*
X15080658Y-14684650D02*
X15061610Y-14694174D01*
X15061610Y-14694174D02*
X15052087Y-14703698D01*
X15261610Y-14817984D02*
X15242563Y-14808460D01*
X15242563Y-14808460D02*
X15233039Y-14798936D01*
X15233039Y-14798936D02*
X15223515Y-14779888D01*
X15223515Y-14779888D02*
X15223515Y-14722746D01*
X15223515Y-14722746D02*
X15233039Y-14703698D01*
X15233039Y-14703698D02*
X15242563Y-14694174D01*
X15242563Y-14694174D02*
X15261610Y-14684650D01*
X15261610Y-14684650D02*
X15290182Y-14684650D01*
X15290182Y-14684650D02*
X15309230Y-14694174D01*
X15309230Y-14694174D02*
X15318753Y-14703698D01*
X15318753Y-14703698D02*
X15328277Y-14722746D01*
X15328277Y-14722746D02*
X15328277Y-14779888D01*
X15328277Y-14779888D02*
X15318753Y-14798936D01*
X15318753Y-14798936D02*
X15309230Y-14808460D01*
X15309230Y-14808460D02*
X15290182Y-14817984D01*
X15290182Y-14817984D02*
X15261610Y-14817984D01*
X15442563Y-14817984D02*
X15423515Y-14808460D01*
X15423515Y-14808460D02*
X15413991Y-14789412D01*
X15413991Y-14789412D02*
X15413991Y-14617984D01*
X15594944Y-14808460D02*
X15575896Y-14817984D01*
X15575896Y-14817984D02*
X15537801Y-14817984D01*
X15537801Y-14817984D02*
X15518753Y-14808460D01*
X15518753Y-14808460D02*
X15509230Y-14789412D01*
X15509230Y-14789412D02*
X15509230Y-14713222D01*
X15509230Y-14713222D02*
X15518753Y-14694174D01*
X15518753Y-14694174D02*
X15537801Y-14684650D01*
X15537801Y-14684650D02*
X15575896Y-14684650D01*
X15575896Y-14684650D02*
X15594944Y-14694174D01*
X15594944Y-14694174D02*
X15604468Y-14713222D01*
X15604468Y-14713222D02*
X15604468Y-14732269D01*
X15604468Y-14732269D02*
X15509230Y-14751317D01*
X15680658Y-14808460D02*
X15699706Y-14817984D01*
X15699706Y-14817984D02*
X15737801Y-14817984D01*
X15737801Y-14817984D02*
X15756849Y-14808460D01*
X15756849Y-14808460D02*
X15766372Y-14789412D01*
X15766372Y-14789412D02*
X15766372Y-14779888D01*
X15766372Y-14779888D02*
X15756849Y-14760841D01*
X15756849Y-14760841D02*
X15737801Y-14751317D01*
X15737801Y-14751317D02*
X15709230Y-14751317D01*
X15709230Y-14751317D02*
X15690182Y-14741793D01*
X15690182Y-14741793D02*
X15680658Y-14722746D01*
X15680658Y-14722746D02*
X15680658Y-14713222D01*
X15680658Y-14713222D02*
X15690182Y-14694174D01*
X15690182Y-14694174D02*
X15709230Y-14684650D01*
X15709230Y-14684650D02*
X15737801Y-14684650D01*
X15737801Y-14684650D02*
X15756849Y-14694174D01*
X15833039Y-14894174D02*
X15842563Y-14884650D01*
X15842563Y-14884650D02*
X15861611Y-14856079D01*
X15861611Y-14856079D02*
X15871134Y-14837031D01*
X15871134Y-14837031D02*
X15880658Y-14808460D01*
X15880658Y-14808460D02*
X15890182Y-14760841D01*
X15890182Y-14760841D02*
X15890182Y-14722746D01*
X15890182Y-14722746D02*
X15880658Y-14675127D01*
X15880658Y-14675127D02*
X15871134Y-14646555D01*
X15871134Y-14646555D02*
X15861611Y-14627508D01*
X15861611Y-14627508D02*
X15842563Y-14598936D01*
X15842563Y-14598936D02*
X15833039Y-14589412D01*
D13*
X10757500Y-14935500D02*
X10867500Y-15045500D01*
X10867500Y-14935500D02*
X10757500Y-15045500D01*
X10851391Y-15029391D02*
X10851391Y-14951609D01*
X10773609Y-14951609D01*
X10773609Y-15029391D01*
X10851391Y-15029391D01*
D11*
X11233039Y-15081984D02*
X11118753Y-15081984D01*
X11175896Y-15081984D02*
X11175896Y-14881984D01*
X11175896Y-14881984D02*
X11156848Y-14910555D01*
X11156848Y-14910555D02*
X11137801Y-14929603D01*
X11137801Y-14929603D02*
X11118753Y-14939127D01*
X11318753Y-15062936D02*
X11328277Y-15072460D01*
X11328277Y-15072460D02*
X11318753Y-15081984D01*
X11318753Y-15081984D02*
X11309229Y-15072460D01*
X11309229Y-15072460D02*
X11318753Y-15062936D01*
X11318753Y-15062936D02*
X11318753Y-15081984D01*
X11518753Y-15081984D02*
X11404467Y-15081984D01*
X11461610Y-15081984D02*
X11461610Y-14881984D01*
X11461610Y-14881984D02*
X11442562Y-14910555D01*
X11442562Y-14910555D02*
X11423515Y-14929603D01*
X11423515Y-14929603D02*
X11404467Y-14939127D01*
X11642562Y-14881984D02*
X11661610Y-14881984D01*
X11661610Y-14881984D02*
X11680658Y-14891508D01*
X11680658Y-14891508D02*
X11690182Y-14901031D01*
X11690182Y-14901031D02*
X11699705Y-14920079D01*
X11699705Y-14920079D02*
X11709229Y-14958174D01*
X11709229Y-14958174D02*
X11709229Y-15005793D01*
X11709229Y-15005793D02*
X11699705Y-15043888D01*
X11699705Y-15043888D02*
X11690182Y-15062936D01*
X11690182Y-15062936D02*
X11680658Y-15072460D01*
X11680658Y-15072460D02*
X11661610Y-15081984D01*
X11661610Y-15081984D02*
X11642562Y-15081984D01*
X11642562Y-15081984D02*
X11623515Y-15072460D01*
X11623515Y-15072460D02*
X11613991Y-15062936D01*
X11613991Y-15062936D02*
X11604467Y-15043888D01*
X11604467Y-15043888D02*
X11594943Y-15005793D01*
X11594943Y-15005793D02*
X11594943Y-14958174D01*
X11594943Y-14958174D02*
X11604467Y-14920079D01*
X11604467Y-14920079D02*
X11613991Y-14901031D01*
X11613991Y-14901031D02*
X11623515Y-14891508D01*
X11623515Y-14891508D02*
X11642562Y-14881984D01*
X11833039Y-14881984D02*
X11852086Y-14881984D01*
X11852086Y-14881984D02*
X11871134Y-14891508D01*
X11871134Y-14891508D02*
X11880658Y-14901031D01*
X11880658Y-14901031D02*
X11890182Y-14920079D01*
X11890182Y-14920079D02*
X11899705Y-14958174D01*
X11899705Y-14958174D02*
X11899705Y-15005793D01*
X11899705Y-15005793D02*
X11890182Y-15043888D01*
X11890182Y-15043888D02*
X11880658Y-15062936D01*
X11880658Y-15062936D02*
X11871134Y-15072460D01*
X11871134Y-15072460D02*
X11852086Y-15081984D01*
X11852086Y-15081984D02*
X11833039Y-15081984D01*
X11833039Y-15081984D02*
X11813991Y-15072460D01*
X11813991Y-15072460D02*
X11804467Y-15062936D01*
X11804467Y-15062936D02*
X11794943Y-15043888D01*
X11794943Y-15043888D02*
X11785420Y-15005793D01*
X11785420Y-15005793D02*
X11785420Y-14958174D01*
X11785420Y-14958174D02*
X11794943Y-14920079D01*
X11794943Y-14920079D02*
X11804467Y-14901031D01*
X11804467Y-14901031D02*
X11813991Y-14891508D01*
X11813991Y-14891508D02*
X11833039Y-14881984D01*
X11985420Y-15081984D02*
X11985420Y-14948650D01*
X11985420Y-14967698D02*
X11994943Y-14958174D01*
X11994943Y-14958174D02*
X12013991Y-14948650D01*
X12013991Y-14948650D02*
X12042563Y-14948650D01*
X12042563Y-14948650D02*
X12061610Y-14958174D01*
X12061610Y-14958174D02*
X12071134Y-14977222D01*
X12071134Y-14977222D02*
X12071134Y-15081984D01*
X12071134Y-14977222D02*
X12080658Y-14958174D01*
X12080658Y-14958174D02*
X12099705Y-14948650D01*
X12099705Y-14948650D02*
X12128277Y-14948650D01*
X12128277Y-14948650D02*
X12147324Y-14958174D01*
X12147324Y-14958174D02*
X12156848Y-14977222D01*
X12156848Y-14977222D02*
X12156848Y-15081984D01*
X12252086Y-15081984D02*
X12252086Y-14948650D01*
X12252086Y-14967698D02*
X12261610Y-14958174D01*
X12261610Y-14958174D02*
X12280658Y-14948650D01*
X12280658Y-14948650D02*
X12309229Y-14948650D01*
X12309229Y-14948650D02*
X12328277Y-14958174D01*
X12328277Y-14958174D02*
X12337801Y-14977222D01*
X12337801Y-14977222D02*
X12337801Y-15081984D01*
X12337801Y-14977222D02*
X12347324Y-14958174D01*
X12347324Y-14958174D02*
X12366372Y-14948650D01*
X12366372Y-14948650D02*
X12394943Y-14948650D01*
X12394943Y-14948650D02*
X12413991Y-14958174D01*
X12413991Y-14958174D02*
X12423515Y-14977222D01*
X12423515Y-14977222D02*
X12423515Y-15081984D01*
X12813991Y-14872460D02*
X12642563Y-15129603D01*
X13071134Y-14881984D02*
X13090182Y-14881984D01*
X13090182Y-14881984D02*
X13109229Y-14891508D01*
X13109229Y-14891508D02*
X13118753Y-14901031D01*
X13118753Y-14901031D02*
X13128277Y-14920079D01*
X13128277Y-14920079D02*
X13137801Y-14958174D01*
X13137801Y-14958174D02*
X13137801Y-15005793D01*
X13137801Y-15005793D02*
X13128277Y-15043888D01*
X13128277Y-15043888D02*
X13118753Y-15062936D01*
X13118753Y-15062936D02*
X13109229Y-15072460D01*
X13109229Y-15072460D02*
X13090182Y-15081984D01*
X13090182Y-15081984D02*
X13071134Y-15081984D01*
X13071134Y-15081984D02*
X13052086Y-15072460D01*
X13052086Y-15072460D02*
X13042563Y-15062936D01*
X13042563Y-15062936D02*
X13033039Y-15043888D01*
X13033039Y-15043888D02*
X13023515Y-15005793D01*
X13023515Y-15005793D02*
X13023515Y-14958174D01*
X13023515Y-14958174D02*
X13033039Y-14920079D01*
X13033039Y-14920079D02*
X13042563Y-14901031D01*
X13042563Y-14901031D02*
X13052086Y-14891508D01*
X13052086Y-14891508D02*
X13071134Y-14881984D01*
X13223515Y-15062936D02*
X13233039Y-15072460D01*
X13233039Y-15072460D02*
X13223515Y-15081984D01*
X13223515Y-15081984D02*
X13213991Y-15072460D01*
X13213991Y-15072460D02*
X13223515Y-15062936D01*
X13223515Y-15062936D02*
X13223515Y-15081984D01*
X13356848Y-14881984D02*
X13375896Y-14881984D01*
X13375896Y-14881984D02*
X13394944Y-14891508D01*
X13394944Y-14891508D02*
X13404467Y-14901031D01*
X13404467Y-14901031D02*
X13413991Y-14920079D01*
X13413991Y-14920079D02*
X13423515Y-14958174D01*
X13423515Y-14958174D02*
X13423515Y-15005793D01*
X13423515Y-15005793D02*
X13413991Y-15043888D01*
X13413991Y-15043888D02*
X13404467Y-15062936D01*
X13404467Y-15062936D02*
X13394944Y-15072460D01*
X13394944Y-15072460D02*
X13375896Y-15081984D01*
X13375896Y-15081984D02*
X13356848Y-15081984D01*
X13356848Y-15081984D02*
X13337801Y-15072460D01*
X13337801Y-15072460D02*
X13328277Y-15062936D01*
X13328277Y-15062936D02*
X13318753Y-15043888D01*
X13318753Y-15043888D02*
X13309229Y-15005793D01*
X13309229Y-15005793D02*
X13309229Y-14958174D01*
X13309229Y-14958174D02*
X13318753Y-14920079D01*
X13318753Y-14920079D02*
X13328277Y-14901031D01*
X13328277Y-14901031D02*
X13337801Y-14891508D01*
X13337801Y-14891508D02*
X13356848Y-14881984D01*
X13594944Y-14948650D02*
X13594944Y-15081984D01*
X13547325Y-14872460D02*
X13499706Y-15015317D01*
X13499706Y-15015317D02*
X13623515Y-15015317D01*
X13680658Y-14881984D02*
X13804467Y-14881984D01*
X13804467Y-14881984D02*
X13737801Y-14958174D01*
X13737801Y-14958174D02*
X13766372Y-14958174D01*
X13766372Y-14958174D02*
X13785420Y-14967698D01*
X13785420Y-14967698D02*
X13794944Y-14977222D01*
X13794944Y-14977222D02*
X13804467Y-14996269D01*
X13804467Y-14996269D02*
X13804467Y-15043888D01*
X13804467Y-15043888D02*
X13794944Y-15062936D01*
X13794944Y-15062936D02*
X13785420Y-15072460D01*
X13785420Y-15072460D02*
X13766372Y-15081984D01*
X13766372Y-15081984D02*
X13709229Y-15081984D01*
X13709229Y-15081984D02*
X13690182Y-15072460D01*
X13690182Y-15072460D02*
X13680658Y-15062936D01*
X13871134Y-14881984D02*
X13994944Y-14881984D01*
X13994944Y-14881984D02*
X13928277Y-14958174D01*
X13928277Y-14958174D02*
X13956848Y-14958174D01*
X13956848Y-14958174D02*
X13975896Y-14967698D01*
X13975896Y-14967698D02*
X13985420Y-14977222D01*
X13985420Y-14977222D02*
X13994944Y-14996269D01*
X13994944Y-14996269D02*
X13994944Y-15043888D01*
X13994944Y-15043888D02*
X13985420Y-15062936D01*
X13985420Y-15062936D02*
X13975896Y-15072460D01*
X13975896Y-15072460D02*
X13956848Y-15081984D01*
X13956848Y-15081984D02*
X13899706Y-15081984D01*
X13899706Y-15081984D02*
X13880658Y-15072460D01*
X13880658Y-15072460D02*
X13871134Y-15062936D01*
X14071134Y-14881984D02*
X14071134Y-14920079D01*
X14147325Y-14881984D02*
X14147325Y-14920079D01*
X14442563Y-15158174D02*
X14433039Y-15148650D01*
X14433039Y-15148650D02*
X14413991Y-15120079D01*
X14413991Y-15120079D02*
X14404468Y-15101031D01*
X14404468Y-15101031D02*
X14394944Y-15072460D01*
X14394944Y-15072460D02*
X14385420Y-15024841D01*
X14385420Y-15024841D02*
X14385420Y-14986746D01*
X14385420Y-14986746D02*
X14394944Y-14939127D01*
X14394944Y-14939127D02*
X14404468Y-14910555D01*
X14404468Y-14910555D02*
X14413991Y-14891508D01*
X14413991Y-14891508D02*
X14433039Y-14862936D01*
X14433039Y-14862936D02*
X14442563Y-14853412D01*
X14604468Y-14948650D02*
X14604468Y-15081984D01*
X14556848Y-14872460D02*
X14509229Y-15015317D01*
X14509229Y-15015317D02*
X14633039Y-15015317D01*
X14861610Y-15081984D02*
X14861610Y-14881984D01*
X14947325Y-15081984D02*
X14947325Y-14977222D01*
X14947325Y-14977222D02*
X14937801Y-14958174D01*
X14937801Y-14958174D02*
X14918753Y-14948650D01*
X14918753Y-14948650D02*
X14890182Y-14948650D01*
X14890182Y-14948650D02*
X14871134Y-14958174D01*
X14871134Y-14958174D02*
X14861610Y-14967698D01*
X15071134Y-15081984D02*
X15052087Y-15072460D01*
X15052087Y-15072460D02*
X15042563Y-15062936D01*
X15042563Y-15062936D02*
X15033039Y-15043888D01*
X15033039Y-15043888D02*
X15033039Y-14986746D01*
X15033039Y-14986746D02*
X15042563Y-14967698D01*
X15042563Y-14967698D02*
X15052087Y-14958174D01*
X15052087Y-14958174D02*
X15071134Y-14948650D01*
X15071134Y-14948650D02*
X15099706Y-14948650D01*
X15099706Y-14948650D02*
X15118753Y-14958174D01*
X15118753Y-14958174D02*
X15128277Y-14967698D01*
X15128277Y-14967698D02*
X15137801Y-14986746D01*
X15137801Y-14986746D02*
X15137801Y-15043888D01*
X15137801Y-15043888D02*
X15128277Y-15062936D01*
X15128277Y-15062936D02*
X15118753Y-15072460D01*
X15118753Y-15072460D02*
X15099706Y-15081984D01*
X15099706Y-15081984D02*
X15071134Y-15081984D01*
X15252087Y-15081984D02*
X15233039Y-15072460D01*
X15233039Y-15072460D02*
X15223515Y-15053412D01*
X15223515Y-15053412D02*
X15223515Y-14881984D01*
X15404468Y-15072460D02*
X15385420Y-15081984D01*
X15385420Y-15081984D02*
X15347325Y-15081984D01*
X15347325Y-15081984D02*
X15328277Y-15072460D01*
X15328277Y-15072460D02*
X15318753Y-15053412D01*
X15318753Y-15053412D02*
X15318753Y-14977222D01*
X15318753Y-14977222D02*
X15328277Y-14958174D01*
X15328277Y-14958174D02*
X15347325Y-14948650D01*
X15347325Y-14948650D02*
X15385420Y-14948650D01*
X15385420Y-14948650D02*
X15404468Y-14958174D01*
X15404468Y-14958174D02*
X15413991Y-14977222D01*
X15413991Y-14977222D02*
X15413991Y-14996269D01*
X15413991Y-14996269D02*
X15318753Y-15015317D01*
X15490182Y-15072460D02*
X15509230Y-15081984D01*
X15509230Y-15081984D02*
X15547325Y-15081984D01*
X15547325Y-15081984D02*
X15566372Y-15072460D01*
X15566372Y-15072460D02*
X15575896Y-15053412D01*
X15575896Y-15053412D02*
X15575896Y-15043888D01*
X15575896Y-15043888D02*
X15566372Y-15024841D01*
X15566372Y-15024841D02*
X15547325Y-15015317D01*
X15547325Y-15015317D02*
X15518753Y-15015317D01*
X15518753Y-15015317D02*
X15499706Y-15005793D01*
X15499706Y-15005793D02*
X15490182Y-14986746D01*
X15490182Y-14986746D02*
X15490182Y-14977222D01*
X15490182Y-14977222D02*
X15499706Y-14958174D01*
X15499706Y-14958174D02*
X15518753Y-14948650D01*
X15518753Y-14948650D02*
X15547325Y-14948650D01*
X15547325Y-14948650D02*
X15566372Y-14958174D01*
X15642563Y-15158174D02*
X15652087Y-15148650D01*
X15652087Y-15148650D02*
X15671134Y-15120079D01*
X15671134Y-15120079D02*
X15680658Y-15101031D01*
X15680658Y-15101031D02*
X15690182Y-15072460D01*
X15690182Y-15072460D02*
X15699706Y-15024841D01*
X15699706Y-15024841D02*
X15699706Y-14986746D01*
X15699706Y-14986746D02*
X15690182Y-14939127D01*
X15690182Y-14939127D02*
X15680658Y-14910555D01*
X15680658Y-14910555D02*
X15671134Y-14891508D01*
X15671134Y-14891508D02*
X15652087Y-14862936D01*
X15652087Y-14862936D02*
X15642563Y-14853412D01*
D14*
X10747500Y-15194500D02*
X10867500Y-15314500D01*
X10867500Y-15194500D02*
X10747500Y-15314500D01*
X10807500Y-15314500D02*
X10867500Y-15254500D01*
X10807500Y-15194500D01*
X10747500Y-15254500D01*
X10807500Y-15314500D01*
D11*
X11233039Y-15345984D02*
X11118753Y-15345984D01*
X11175896Y-15345984D02*
X11175896Y-15145984D01*
X11175896Y-15145984D02*
X11156848Y-15174555D01*
X11156848Y-15174555D02*
X11137801Y-15193603D01*
X11137801Y-15193603D02*
X11118753Y-15203127D01*
X11318753Y-15326936D02*
X11328277Y-15336460D01*
X11328277Y-15336460D02*
X11318753Y-15345984D01*
X11318753Y-15345984D02*
X11309229Y-15336460D01*
X11309229Y-15336460D02*
X11318753Y-15326936D01*
X11318753Y-15326936D02*
X11318753Y-15345984D01*
X11404467Y-15165031D02*
X11413991Y-15155508D01*
X11413991Y-15155508D02*
X11433039Y-15145984D01*
X11433039Y-15145984D02*
X11480658Y-15145984D01*
X11480658Y-15145984D02*
X11499705Y-15155508D01*
X11499705Y-15155508D02*
X11509229Y-15165031D01*
X11509229Y-15165031D02*
X11518753Y-15184079D01*
X11518753Y-15184079D02*
X11518753Y-15203127D01*
X11518753Y-15203127D02*
X11509229Y-15231698D01*
X11509229Y-15231698D02*
X11394943Y-15345984D01*
X11394943Y-15345984D02*
X11518753Y-15345984D01*
X11642562Y-15145984D02*
X11661610Y-15145984D01*
X11661610Y-15145984D02*
X11680658Y-15155508D01*
X11680658Y-15155508D02*
X11690182Y-15165031D01*
X11690182Y-15165031D02*
X11699705Y-15184079D01*
X11699705Y-15184079D02*
X11709229Y-15222174D01*
X11709229Y-15222174D02*
X11709229Y-15269793D01*
X11709229Y-15269793D02*
X11699705Y-15307888D01*
X11699705Y-15307888D02*
X11690182Y-15326936D01*
X11690182Y-15326936D02*
X11680658Y-15336460D01*
X11680658Y-15336460D02*
X11661610Y-15345984D01*
X11661610Y-15345984D02*
X11642562Y-15345984D01*
X11642562Y-15345984D02*
X11623515Y-15336460D01*
X11623515Y-15336460D02*
X11613991Y-15326936D01*
X11613991Y-15326936D02*
X11604467Y-15307888D01*
X11604467Y-15307888D02*
X11594943Y-15269793D01*
X11594943Y-15269793D02*
X11594943Y-15222174D01*
X11594943Y-15222174D02*
X11604467Y-15184079D01*
X11604467Y-15184079D02*
X11613991Y-15165031D01*
X11613991Y-15165031D02*
X11623515Y-15155508D01*
X11623515Y-15155508D02*
X11642562Y-15145984D01*
X11833039Y-15145984D02*
X11852086Y-15145984D01*
X11852086Y-15145984D02*
X11871134Y-15155508D01*
X11871134Y-15155508D02*
X11880658Y-15165031D01*
X11880658Y-15165031D02*
X11890182Y-15184079D01*
X11890182Y-15184079D02*
X11899705Y-15222174D01*
X11899705Y-15222174D02*
X11899705Y-15269793D01*
X11899705Y-15269793D02*
X11890182Y-15307888D01*
X11890182Y-15307888D02*
X11880658Y-15326936D01*
X11880658Y-15326936D02*
X11871134Y-15336460D01*
X11871134Y-15336460D02*
X11852086Y-15345984D01*
X11852086Y-15345984D02*
X11833039Y-15345984D01*
X11833039Y-15345984D02*
X11813991Y-15336460D01*
X11813991Y-15336460D02*
X11804467Y-15326936D01*
X11804467Y-15326936D02*
X11794943Y-15307888D01*
X11794943Y-15307888D02*
X11785420Y-15269793D01*
X11785420Y-15269793D02*
X11785420Y-15222174D01*
X11785420Y-15222174D02*
X11794943Y-15184079D01*
X11794943Y-15184079D02*
X11804467Y-15165031D01*
X11804467Y-15165031D02*
X11813991Y-15155508D01*
X11813991Y-15155508D02*
X11833039Y-15145984D01*
X11985420Y-15345984D02*
X11985420Y-15212650D01*
X11985420Y-15231698D02*
X11994943Y-15222174D01*
X11994943Y-15222174D02*
X12013991Y-15212650D01*
X12013991Y-15212650D02*
X12042563Y-15212650D01*
X12042563Y-15212650D02*
X12061610Y-15222174D01*
X12061610Y-15222174D02*
X12071134Y-15241222D01*
X12071134Y-15241222D02*
X12071134Y-15345984D01*
X12071134Y-15241222D02*
X12080658Y-15222174D01*
X12080658Y-15222174D02*
X12099705Y-15212650D01*
X12099705Y-15212650D02*
X12128277Y-15212650D01*
X12128277Y-15212650D02*
X12147324Y-15222174D01*
X12147324Y-15222174D02*
X12156848Y-15241222D01*
X12156848Y-15241222D02*
X12156848Y-15345984D01*
X12252086Y-15345984D02*
X12252086Y-15212650D01*
X12252086Y-15231698D02*
X12261610Y-15222174D01*
X12261610Y-15222174D02*
X12280658Y-15212650D01*
X12280658Y-15212650D02*
X12309229Y-15212650D01*
X12309229Y-15212650D02*
X12328277Y-15222174D01*
X12328277Y-15222174D02*
X12337801Y-15241222D01*
X12337801Y-15241222D02*
X12337801Y-15345984D01*
X12337801Y-15241222D02*
X12347324Y-15222174D01*
X12347324Y-15222174D02*
X12366372Y-15212650D01*
X12366372Y-15212650D02*
X12394943Y-15212650D01*
X12394943Y-15212650D02*
X12413991Y-15222174D01*
X12413991Y-15222174D02*
X12423515Y-15241222D01*
X12423515Y-15241222D02*
X12423515Y-15345984D01*
X12813991Y-15136460D02*
X12642563Y-15393603D01*
X13071134Y-15145984D02*
X13090182Y-15145984D01*
X13090182Y-15145984D02*
X13109229Y-15155508D01*
X13109229Y-15155508D02*
X13118753Y-15165031D01*
X13118753Y-15165031D02*
X13128277Y-15184079D01*
X13128277Y-15184079D02*
X13137801Y-15222174D01*
X13137801Y-15222174D02*
X13137801Y-15269793D01*
X13137801Y-15269793D02*
X13128277Y-15307888D01*
X13128277Y-15307888D02*
X13118753Y-15326936D01*
X13118753Y-15326936D02*
X13109229Y-15336460D01*
X13109229Y-15336460D02*
X13090182Y-15345984D01*
X13090182Y-15345984D02*
X13071134Y-15345984D01*
X13071134Y-15345984D02*
X13052086Y-15336460D01*
X13052086Y-15336460D02*
X13042563Y-15326936D01*
X13042563Y-15326936D02*
X13033039Y-15307888D01*
X13033039Y-15307888D02*
X13023515Y-15269793D01*
X13023515Y-15269793D02*
X13023515Y-15222174D01*
X13023515Y-15222174D02*
X13033039Y-15184079D01*
X13033039Y-15184079D02*
X13042563Y-15165031D01*
X13042563Y-15165031D02*
X13052086Y-15155508D01*
X13052086Y-15155508D02*
X13071134Y-15145984D01*
X13223515Y-15326936D02*
X13233039Y-15336460D01*
X13233039Y-15336460D02*
X13223515Y-15345984D01*
X13223515Y-15345984D02*
X13213991Y-15336460D01*
X13213991Y-15336460D02*
X13223515Y-15326936D01*
X13223515Y-15326936D02*
X13223515Y-15345984D01*
X13356848Y-15145984D02*
X13375896Y-15145984D01*
X13375896Y-15145984D02*
X13394944Y-15155508D01*
X13394944Y-15155508D02*
X13404467Y-15165031D01*
X13404467Y-15165031D02*
X13413991Y-15184079D01*
X13413991Y-15184079D02*
X13423515Y-15222174D01*
X13423515Y-15222174D02*
X13423515Y-15269793D01*
X13423515Y-15269793D02*
X13413991Y-15307888D01*
X13413991Y-15307888D02*
X13404467Y-15326936D01*
X13404467Y-15326936D02*
X13394944Y-15336460D01*
X13394944Y-15336460D02*
X13375896Y-15345984D01*
X13375896Y-15345984D02*
X13356848Y-15345984D01*
X13356848Y-15345984D02*
X13337801Y-15336460D01*
X13337801Y-15336460D02*
X13328277Y-15326936D01*
X13328277Y-15326936D02*
X13318753Y-15307888D01*
X13318753Y-15307888D02*
X13309229Y-15269793D01*
X13309229Y-15269793D02*
X13309229Y-15222174D01*
X13309229Y-15222174D02*
X13318753Y-15184079D01*
X13318753Y-15184079D02*
X13328277Y-15165031D01*
X13328277Y-15165031D02*
X13337801Y-15155508D01*
X13337801Y-15155508D02*
X13356848Y-15145984D01*
X13594944Y-15212650D02*
X13594944Y-15345984D01*
X13547325Y-15136460D02*
X13499706Y-15279317D01*
X13499706Y-15279317D02*
X13623515Y-15279317D01*
X13680658Y-15145984D02*
X13813991Y-15145984D01*
X13813991Y-15145984D02*
X13728277Y-15345984D01*
X13880658Y-15165031D02*
X13890182Y-15155508D01*
X13890182Y-15155508D02*
X13909229Y-15145984D01*
X13909229Y-15145984D02*
X13956848Y-15145984D01*
X13956848Y-15145984D02*
X13975896Y-15155508D01*
X13975896Y-15155508D02*
X13985420Y-15165031D01*
X13985420Y-15165031D02*
X13994944Y-15184079D01*
X13994944Y-15184079D02*
X13994944Y-15203127D01*
X13994944Y-15203127D02*
X13985420Y-15231698D01*
X13985420Y-15231698D02*
X13871134Y-15345984D01*
X13871134Y-15345984D02*
X13994944Y-15345984D01*
X14071134Y-15145984D02*
X14071134Y-15184079D01*
X14147325Y-15145984D02*
X14147325Y-15184079D01*
X14442563Y-15422174D02*
X14433039Y-15412650D01*
X14433039Y-15412650D02*
X14413991Y-15384079D01*
X14413991Y-15384079D02*
X14404468Y-15365031D01*
X14404468Y-15365031D02*
X14394944Y-15336460D01*
X14394944Y-15336460D02*
X14385420Y-15288841D01*
X14385420Y-15288841D02*
X14385420Y-15250746D01*
X14385420Y-15250746D02*
X14394944Y-15203127D01*
X14394944Y-15203127D02*
X14404468Y-15174555D01*
X14404468Y-15174555D02*
X14413991Y-15155508D01*
X14413991Y-15155508D02*
X14433039Y-15126936D01*
X14433039Y-15126936D02*
X14442563Y-15117412D01*
X14604468Y-15145984D02*
X14566372Y-15145984D01*
X14566372Y-15145984D02*
X14547325Y-15155508D01*
X14547325Y-15155508D02*
X14537801Y-15165031D01*
X14537801Y-15165031D02*
X14518753Y-15193603D01*
X14518753Y-15193603D02*
X14509229Y-15231698D01*
X14509229Y-15231698D02*
X14509229Y-15307888D01*
X14509229Y-15307888D02*
X14518753Y-15326936D01*
X14518753Y-15326936D02*
X14528277Y-15336460D01*
X14528277Y-15336460D02*
X14547325Y-15345984D01*
X14547325Y-15345984D02*
X14585420Y-15345984D01*
X14585420Y-15345984D02*
X14604468Y-15336460D01*
X14604468Y-15336460D02*
X14613991Y-15326936D01*
X14613991Y-15326936D02*
X14623515Y-15307888D01*
X14623515Y-15307888D02*
X14623515Y-15260269D01*
X14623515Y-15260269D02*
X14613991Y-15241222D01*
X14613991Y-15241222D02*
X14604468Y-15231698D01*
X14604468Y-15231698D02*
X14585420Y-15222174D01*
X14585420Y-15222174D02*
X14547325Y-15222174D01*
X14547325Y-15222174D02*
X14528277Y-15231698D01*
X14528277Y-15231698D02*
X14518753Y-15241222D01*
X14518753Y-15241222D02*
X14509229Y-15260269D01*
X14861610Y-15345984D02*
X14861610Y-15145984D01*
X14947325Y-15345984D02*
X14947325Y-15241222D01*
X14947325Y-15241222D02*
X14937801Y-15222174D01*
X14937801Y-15222174D02*
X14918753Y-15212650D01*
X14918753Y-15212650D02*
X14890182Y-15212650D01*
X14890182Y-15212650D02*
X14871134Y-15222174D01*
X14871134Y-15222174D02*
X14861610Y-15231698D01*
X15071134Y-15345984D02*
X15052087Y-15336460D01*
X15052087Y-15336460D02*
X15042563Y-15326936D01*
X15042563Y-15326936D02*
X15033039Y-15307888D01*
X15033039Y-15307888D02*
X15033039Y-15250746D01*
X15033039Y-15250746D02*
X15042563Y-15231698D01*
X15042563Y-15231698D02*
X15052087Y-15222174D01*
X15052087Y-15222174D02*
X15071134Y-15212650D01*
X15071134Y-15212650D02*
X15099706Y-15212650D01*
X15099706Y-15212650D02*
X15118753Y-15222174D01*
X15118753Y-15222174D02*
X15128277Y-15231698D01*
X15128277Y-15231698D02*
X15137801Y-15250746D01*
X15137801Y-15250746D02*
X15137801Y-15307888D01*
X15137801Y-15307888D02*
X15128277Y-15326936D01*
X15128277Y-15326936D02*
X15118753Y-15336460D01*
X15118753Y-15336460D02*
X15099706Y-15345984D01*
X15099706Y-15345984D02*
X15071134Y-15345984D01*
X15252087Y-15345984D02*
X15233039Y-15336460D01*
X15233039Y-15336460D02*
X15223515Y-15317412D01*
X15223515Y-15317412D02*
X15223515Y-15145984D01*
X15404468Y-15336460D02*
X15385420Y-15345984D01*
X15385420Y-15345984D02*
X15347325Y-15345984D01*
X15347325Y-15345984D02*
X15328277Y-15336460D01*
X15328277Y-15336460D02*
X15318753Y-15317412D01*
X15318753Y-15317412D02*
X15318753Y-15241222D01*
X15318753Y-15241222D02*
X15328277Y-15222174D01*
X15328277Y-15222174D02*
X15347325Y-15212650D01*
X15347325Y-15212650D02*
X15385420Y-15212650D01*
X15385420Y-15212650D02*
X15404468Y-15222174D01*
X15404468Y-15222174D02*
X15413991Y-15241222D01*
X15413991Y-15241222D02*
X15413991Y-15260269D01*
X15413991Y-15260269D02*
X15318753Y-15279317D01*
X15490182Y-15336460D02*
X15509230Y-15345984D01*
X15509230Y-15345984D02*
X15547325Y-15345984D01*
X15547325Y-15345984D02*
X15566372Y-15336460D01*
X15566372Y-15336460D02*
X15575896Y-15317412D01*
X15575896Y-15317412D02*
X15575896Y-15307888D01*
X15575896Y-15307888D02*
X15566372Y-15288841D01*
X15566372Y-15288841D02*
X15547325Y-15279317D01*
X15547325Y-15279317D02*
X15518753Y-15279317D01*
X15518753Y-15279317D02*
X15499706Y-15269793D01*
X15499706Y-15269793D02*
X15490182Y-15250746D01*
X15490182Y-15250746D02*
X15490182Y-15241222D01*
X15490182Y-15241222D02*
X15499706Y-15222174D01*
X15499706Y-15222174D02*
X15518753Y-15212650D01*
X15518753Y-15212650D02*
X15547325Y-15212650D01*
X15547325Y-15212650D02*
X15566372Y-15222174D01*
X15642563Y-15422174D02*
X15652087Y-15412650D01*
X15652087Y-15412650D02*
X15671134Y-15384079D01*
X15671134Y-15384079D02*
X15680658Y-15365031D01*
X15680658Y-15365031D02*
X15690182Y-15336460D01*
X15690182Y-15336460D02*
X15699706Y-15288841D01*
X15699706Y-15288841D02*
X15699706Y-15250746D01*
X15699706Y-15250746D02*
X15690182Y-15203127D01*
X15690182Y-15203127D02*
X15680658Y-15174555D01*
X15680658Y-15174555D02*
X15671134Y-15155508D01*
X15671134Y-15155508D02*
X15652087Y-15126936D01*
X15652087Y-15126936D02*
X15642563Y-15117412D01*
D15*
X10797500Y-15448500D02*
X10797500Y-15588500D01*
X10727500Y-15518500D02*
X10867500Y-15518500D01*
X10867500Y-15518500D02*
G75*
G02*
X10727500Y-15518500I-70000J0D01*
G01*
X10727500Y-15518500D02*
G75*
G02*
X10867500Y-15518500I70000J0D01*
G01*
D11*
X11233039Y-15609984D02*
X11118753Y-15609984D01*
X11175896Y-15609984D02*
X11175896Y-15409984D01*
X11175896Y-15409984D02*
X11156848Y-15438555D01*
X11156848Y-15438555D02*
X11137801Y-15457603D01*
X11137801Y-15457603D02*
X11118753Y-15467127D01*
X11318753Y-15590936D02*
X11328277Y-15600460D01*
X11328277Y-15600460D02*
X11318753Y-15609984D01*
X11318753Y-15609984D02*
X11309229Y-15600460D01*
X11309229Y-15600460D02*
X11318753Y-15590936D01*
X11318753Y-15590936D02*
X11318753Y-15609984D01*
X11499705Y-15476650D02*
X11499705Y-15609984D01*
X11452086Y-15400460D02*
X11404467Y-15543317D01*
X11404467Y-15543317D02*
X11528277Y-15543317D01*
X11642562Y-15409984D02*
X11661610Y-15409984D01*
X11661610Y-15409984D02*
X11680658Y-15419508D01*
X11680658Y-15419508D02*
X11690182Y-15429031D01*
X11690182Y-15429031D02*
X11699705Y-15448079D01*
X11699705Y-15448079D02*
X11709229Y-15486174D01*
X11709229Y-15486174D02*
X11709229Y-15533793D01*
X11709229Y-15533793D02*
X11699705Y-15571888D01*
X11699705Y-15571888D02*
X11690182Y-15590936D01*
X11690182Y-15590936D02*
X11680658Y-15600460D01*
X11680658Y-15600460D02*
X11661610Y-15609984D01*
X11661610Y-15609984D02*
X11642562Y-15609984D01*
X11642562Y-15609984D02*
X11623515Y-15600460D01*
X11623515Y-15600460D02*
X11613991Y-15590936D01*
X11613991Y-15590936D02*
X11604467Y-15571888D01*
X11604467Y-15571888D02*
X11594943Y-15533793D01*
X11594943Y-15533793D02*
X11594943Y-15486174D01*
X11594943Y-15486174D02*
X11604467Y-15448079D01*
X11604467Y-15448079D02*
X11613991Y-15429031D01*
X11613991Y-15429031D02*
X11623515Y-15419508D01*
X11623515Y-15419508D02*
X11642562Y-15409984D01*
X11833039Y-15409984D02*
X11852086Y-15409984D01*
X11852086Y-15409984D02*
X11871134Y-15419508D01*
X11871134Y-15419508D02*
X11880658Y-15429031D01*
X11880658Y-15429031D02*
X11890182Y-15448079D01*
X11890182Y-15448079D02*
X11899705Y-15486174D01*
X11899705Y-15486174D02*
X11899705Y-15533793D01*
X11899705Y-15533793D02*
X11890182Y-15571888D01*
X11890182Y-15571888D02*
X11880658Y-15590936D01*
X11880658Y-15590936D02*
X11871134Y-15600460D01*
X11871134Y-15600460D02*
X11852086Y-15609984D01*
X11852086Y-15609984D02*
X11833039Y-15609984D01*
X11833039Y-15609984D02*
X11813991Y-15600460D01*
X11813991Y-15600460D02*
X11804467Y-15590936D01*
X11804467Y-15590936D02*
X11794943Y-15571888D01*
X11794943Y-15571888D02*
X11785420Y-15533793D01*
X11785420Y-15533793D02*
X11785420Y-15486174D01*
X11785420Y-15486174D02*
X11794943Y-15448079D01*
X11794943Y-15448079D02*
X11804467Y-15429031D01*
X11804467Y-15429031D02*
X11813991Y-15419508D01*
X11813991Y-15419508D02*
X11833039Y-15409984D01*
X11985420Y-15609984D02*
X11985420Y-15476650D01*
X11985420Y-15495698D02*
X11994943Y-15486174D01*
X11994943Y-15486174D02*
X12013991Y-15476650D01*
X12013991Y-15476650D02*
X12042563Y-15476650D01*
X12042563Y-15476650D02*
X12061610Y-15486174D01*
X12061610Y-15486174D02*
X12071134Y-15505222D01*
X12071134Y-15505222D02*
X12071134Y-15609984D01*
X12071134Y-15505222D02*
X12080658Y-15486174D01*
X12080658Y-15486174D02*
X12099705Y-15476650D01*
X12099705Y-15476650D02*
X12128277Y-15476650D01*
X12128277Y-15476650D02*
X12147324Y-15486174D01*
X12147324Y-15486174D02*
X12156848Y-15505222D01*
X12156848Y-15505222D02*
X12156848Y-15609984D01*
X12252086Y-15609984D02*
X12252086Y-15476650D01*
X12252086Y-15495698D02*
X12261610Y-15486174D01*
X12261610Y-15486174D02*
X12280658Y-15476650D01*
X12280658Y-15476650D02*
X12309229Y-15476650D01*
X12309229Y-15476650D02*
X12328277Y-15486174D01*
X12328277Y-15486174D02*
X12337801Y-15505222D01*
X12337801Y-15505222D02*
X12337801Y-15609984D01*
X12337801Y-15505222D02*
X12347324Y-15486174D01*
X12347324Y-15486174D02*
X12366372Y-15476650D01*
X12366372Y-15476650D02*
X12394943Y-15476650D01*
X12394943Y-15476650D02*
X12413991Y-15486174D01*
X12413991Y-15486174D02*
X12423515Y-15505222D01*
X12423515Y-15505222D02*
X12423515Y-15609984D01*
X12813991Y-15400460D02*
X12642563Y-15657603D01*
X13071134Y-15409984D02*
X13090182Y-15409984D01*
X13090182Y-15409984D02*
X13109229Y-15419508D01*
X13109229Y-15419508D02*
X13118753Y-15429031D01*
X13118753Y-15429031D02*
X13128277Y-15448079D01*
X13128277Y-15448079D02*
X13137801Y-15486174D01*
X13137801Y-15486174D02*
X13137801Y-15533793D01*
X13137801Y-15533793D02*
X13128277Y-15571888D01*
X13128277Y-15571888D02*
X13118753Y-15590936D01*
X13118753Y-15590936D02*
X13109229Y-15600460D01*
X13109229Y-15600460D02*
X13090182Y-15609984D01*
X13090182Y-15609984D02*
X13071134Y-15609984D01*
X13071134Y-15609984D02*
X13052086Y-15600460D01*
X13052086Y-15600460D02*
X13042563Y-15590936D01*
X13042563Y-15590936D02*
X13033039Y-15571888D01*
X13033039Y-15571888D02*
X13023515Y-15533793D01*
X13023515Y-15533793D02*
X13023515Y-15486174D01*
X13023515Y-15486174D02*
X13033039Y-15448079D01*
X13033039Y-15448079D02*
X13042563Y-15429031D01*
X13042563Y-15429031D02*
X13052086Y-15419508D01*
X13052086Y-15419508D02*
X13071134Y-15409984D01*
X13223515Y-15590936D02*
X13233039Y-15600460D01*
X13233039Y-15600460D02*
X13223515Y-15609984D01*
X13223515Y-15609984D02*
X13213991Y-15600460D01*
X13213991Y-15600460D02*
X13223515Y-15590936D01*
X13223515Y-15590936D02*
X13223515Y-15609984D01*
X13356848Y-15409984D02*
X13375896Y-15409984D01*
X13375896Y-15409984D02*
X13394944Y-15419508D01*
X13394944Y-15419508D02*
X13404467Y-15429031D01*
X13404467Y-15429031D02*
X13413991Y-15448079D01*
X13413991Y-15448079D02*
X13423515Y-15486174D01*
X13423515Y-15486174D02*
X13423515Y-15533793D01*
X13423515Y-15533793D02*
X13413991Y-15571888D01*
X13413991Y-15571888D02*
X13404467Y-15590936D01*
X13404467Y-15590936D02*
X13394944Y-15600460D01*
X13394944Y-15600460D02*
X13375896Y-15609984D01*
X13375896Y-15609984D02*
X13356848Y-15609984D01*
X13356848Y-15609984D02*
X13337801Y-15600460D01*
X13337801Y-15600460D02*
X13328277Y-15590936D01*
X13328277Y-15590936D02*
X13318753Y-15571888D01*
X13318753Y-15571888D02*
X13309229Y-15533793D01*
X13309229Y-15533793D02*
X13309229Y-15486174D01*
X13309229Y-15486174D02*
X13318753Y-15448079D01*
X13318753Y-15448079D02*
X13328277Y-15429031D01*
X13328277Y-15429031D02*
X13337801Y-15419508D01*
X13337801Y-15419508D02*
X13356848Y-15409984D01*
X13604467Y-15409984D02*
X13509229Y-15409984D01*
X13509229Y-15409984D02*
X13499706Y-15505222D01*
X13499706Y-15505222D02*
X13509229Y-15495698D01*
X13509229Y-15495698D02*
X13528277Y-15486174D01*
X13528277Y-15486174D02*
X13575896Y-15486174D01*
X13575896Y-15486174D02*
X13594944Y-15495698D01*
X13594944Y-15495698D02*
X13604467Y-15505222D01*
X13604467Y-15505222D02*
X13613991Y-15524269D01*
X13613991Y-15524269D02*
X13613991Y-15571888D01*
X13613991Y-15571888D02*
X13604467Y-15590936D01*
X13604467Y-15590936D02*
X13594944Y-15600460D01*
X13594944Y-15600460D02*
X13575896Y-15609984D01*
X13575896Y-15609984D02*
X13528277Y-15609984D01*
X13528277Y-15609984D02*
X13509229Y-15600460D01*
X13509229Y-15600460D02*
X13499706Y-15590936D01*
X13794944Y-15409984D02*
X13699706Y-15409984D01*
X13699706Y-15409984D02*
X13690182Y-15505222D01*
X13690182Y-15505222D02*
X13699706Y-15495698D01*
X13699706Y-15495698D02*
X13718753Y-15486174D01*
X13718753Y-15486174D02*
X13766372Y-15486174D01*
X13766372Y-15486174D02*
X13785420Y-15495698D01*
X13785420Y-15495698D02*
X13794944Y-15505222D01*
X13794944Y-15505222D02*
X13804467Y-15524269D01*
X13804467Y-15524269D02*
X13804467Y-15571888D01*
X13804467Y-15571888D02*
X13794944Y-15590936D01*
X13794944Y-15590936D02*
X13785420Y-15600460D01*
X13785420Y-15600460D02*
X13766372Y-15609984D01*
X13766372Y-15609984D02*
X13718753Y-15609984D01*
X13718753Y-15609984D02*
X13699706Y-15600460D01*
X13699706Y-15600460D02*
X13690182Y-15590936D01*
X13994944Y-15609984D02*
X13880658Y-15609984D01*
X13937801Y-15609984D02*
X13937801Y-15409984D01*
X13937801Y-15409984D02*
X13918753Y-15438555D01*
X13918753Y-15438555D02*
X13899706Y-15457603D01*
X13899706Y-15457603D02*
X13880658Y-15467127D01*
X14071134Y-15409984D02*
X14071134Y-15448079D01*
X14147325Y-15409984D02*
X14147325Y-15448079D01*
X14442563Y-15686174D02*
X14433039Y-15676650D01*
X14433039Y-15676650D02*
X14413991Y-15648079D01*
X14413991Y-15648079D02*
X14404468Y-15629031D01*
X14404468Y-15629031D02*
X14394944Y-15600460D01*
X14394944Y-15600460D02*
X14385420Y-15552841D01*
X14385420Y-15552841D02*
X14385420Y-15514746D01*
X14385420Y-15514746D02*
X14394944Y-15467127D01*
X14394944Y-15467127D02*
X14404468Y-15438555D01*
X14404468Y-15438555D02*
X14413991Y-15419508D01*
X14413991Y-15419508D02*
X14433039Y-15390936D01*
X14433039Y-15390936D02*
X14442563Y-15381412D01*
X14604468Y-15476650D02*
X14604468Y-15609984D01*
X14556848Y-15400460D02*
X14509229Y-15543317D01*
X14509229Y-15543317D02*
X14633039Y-15543317D01*
X14861610Y-15609984D02*
X14861610Y-15409984D01*
X14947325Y-15609984D02*
X14947325Y-15505222D01*
X14947325Y-15505222D02*
X14937801Y-15486174D01*
X14937801Y-15486174D02*
X14918753Y-15476650D01*
X14918753Y-15476650D02*
X14890182Y-15476650D01*
X14890182Y-15476650D02*
X14871134Y-15486174D01*
X14871134Y-15486174D02*
X14861610Y-15495698D01*
X15071134Y-15609984D02*
X15052087Y-15600460D01*
X15052087Y-15600460D02*
X15042563Y-15590936D01*
X15042563Y-15590936D02*
X15033039Y-15571888D01*
X15033039Y-15571888D02*
X15033039Y-15514746D01*
X15033039Y-15514746D02*
X15042563Y-15495698D01*
X15042563Y-15495698D02*
X15052087Y-15486174D01*
X15052087Y-15486174D02*
X15071134Y-15476650D01*
X15071134Y-15476650D02*
X15099706Y-15476650D01*
X15099706Y-15476650D02*
X15118753Y-15486174D01*
X15118753Y-15486174D02*
X15128277Y-15495698D01*
X15128277Y-15495698D02*
X15137801Y-15514746D01*
X15137801Y-15514746D02*
X15137801Y-15571888D01*
X15137801Y-15571888D02*
X15128277Y-15590936D01*
X15128277Y-15590936D02*
X15118753Y-15600460D01*
X15118753Y-15600460D02*
X15099706Y-15609984D01*
X15099706Y-15609984D02*
X15071134Y-15609984D01*
X15252087Y-15609984D02*
X15233039Y-15600460D01*
X15233039Y-15600460D02*
X15223515Y-15581412D01*
X15223515Y-15581412D02*
X15223515Y-15409984D01*
X15404468Y-15600460D02*
X15385420Y-15609984D01*
X15385420Y-15609984D02*
X15347325Y-15609984D01*
X15347325Y-15609984D02*
X15328277Y-15600460D01*
X15328277Y-15600460D02*
X15318753Y-15581412D01*
X15318753Y-15581412D02*
X15318753Y-15505222D01*
X15318753Y-15505222D02*
X15328277Y-15486174D01*
X15328277Y-15486174D02*
X15347325Y-15476650D01*
X15347325Y-15476650D02*
X15385420Y-15476650D01*
X15385420Y-15476650D02*
X15404468Y-15486174D01*
X15404468Y-15486174D02*
X15413991Y-15505222D01*
X15413991Y-15505222D02*
X15413991Y-15524269D01*
X15413991Y-15524269D02*
X15318753Y-15543317D01*
X15490182Y-15600460D02*
X15509230Y-15609984D01*
X15509230Y-15609984D02*
X15547325Y-15609984D01*
X15547325Y-15609984D02*
X15566372Y-15600460D01*
X15566372Y-15600460D02*
X15575896Y-15581412D01*
X15575896Y-15581412D02*
X15575896Y-15571888D01*
X15575896Y-15571888D02*
X15566372Y-15552841D01*
X15566372Y-15552841D02*
X15547325Y-15543317D01*
X15547325Y-15543317D02*
X15518753Y-15543317D01*
X15518753Y-15543317D02*
X15499706Y-15533793D01*
X15499706Y-15533793D02*
X15490182Y-15514746D01*
X15490182Y-15514746D02*
X15490182Y-15505222D01*
X15490182Y-15505222D02*
X15499706Y-15486174D01*
X15499706Y-15486174D02*
X15518753Y-15476650D01*
X15518753Y-15476650D02*
X15547325Y-15476650D01*
X15547325Y-15476650D02*
X15566372Y-15486174D01*
X15642563Y-15686174D02*
X15652087Y-15676650D01*
X15652087Y-15676650D02*
X15671134Y-15648079D01*
X15671134Y-15648079D02*
X15680658Y-15629031D01*
X15680658Y-15629031D02*
X15690182Y-15600460D01*
X15690182Y-15600460D02*
X15699706Y-15552841D01*
X15699706Y-15552841D02*
X15699706Y-15514746D01*
X15699706Y-15514746D02*
X15690182Y-15467127D01*
X15690182Y-15467127D02*
X15680658Y-15438555D01*
X15680658Y-15438555D02*
X15671134Y-15419508D01*
X15671134Y-15419508D02*
X15652087Y-15390936D01*
X15652087Y-15390936D02*
X15642563Y-15381412D01*
M02*
